<?xml version="1.0" encoding="UTF-8" standalone="no"?>
<svg
   version="1.0"
   width="104.99918mm"
   height="47.421673mm"
   id="svg177"
   sodipodi:docname="image1180.wmf"
   xmlns:inkscape="http://www.inkscape.org/namespaces/inkscape"
   xmlns:sodipodi="http://sodipodi.sourceforge.net/DTD/sodipodi-0.dtd"
   xmlns="http://www.w3.org/2000/svg"
   xmlns:svg="http://www.w3.org/2000/svg">
  <sodipodi:namedview
     id="namedview177"
     pagecolor="#ffffff"
     bordercolor="#000000"
     borderopacity="0.25"
     inkscape:showpageshadow="2"
     inkscape:pageopacity="0.0"
     inkscape:pagecheckerboard="0"
     inkscape:deskcolor="#d1d1d1"
     inkscape:document-units="mm" />
  <defs
     id="defs1">
    <pattern
       id="WMFhbasepattern"
       patternUnits="userSpaceOnUse"
       width="6"
       height="6"
       x="0"
       y="0" />
  </defs>
  <path
     style="fill:none;stroke:#000000;stroke-width:1.3004926px;stroke-linecap:round;stroke-linejoin:round;stroke-miterlimit:4;stroke-dasharray:none;stroke-opacity:1;"
     d="  M 286.85714,135.68473   L 240.78818,135.68473  "
     id="path1" />
  <path
     style="fill:none;stroke:#000000;stroke-width:1.3004926px;stroke-linecap:round;stroke-linejoin:round;stroke-miterlimit:4;stroke-dasharray:none;stroke-opacity:1;"
     d="  M 286.85714,135.68473   L 275.50739,132.25616  "
     id="path2" />
  <path
     style="fill:none;stroke:#000000;stroke-width:1.3004926px;stroke-linecap:round;stroke-linejoin:round;stroke-miterlimit:4;stroke-dasharray:none;stroke-opacity:1;"
     d="  M 275.50739,132.25616   L 278.62069,135.68473  "
     id="path3" />
  <path
     style="fill:none;stroke:#000000;stroke-width:1.3004926px;stroke-linecap:round;stroke-linejoin:round;stroke-miterlimit:4;stroke-dasharray:none;stroke-opacity:1;"
     d="  M 275.50739,139.15271   L 278.62069,135.68473  "
     id="path4" />
  <path
     style="fill:none;stroke:#000000;stroke-width:1.3004926px;stroke-linecap:round;stroke-linejoin:round;stroke-miterlimit:4;stroke-dasharray:none;stroke-opacity:1;"
     d="  M 286.85714,135.68473   L 275.50739,139.15271  "
     id="path5" />
  <path
     style="fill:#000000;fill-rule:evenodd;fill-opacity:1;stroke:none;"
     d="  M 275.50739,132.25616   L 278.62069,135.68473   L 286.85714,135.68473  z "
     id="path6" />
  <path
     style="fill:none;stroke:#000000;stroke-width:1.3004926px;stroke-linecap:round;stroke-linejoin:round;stroke-miterlimit:4;stroke-dasharray:none;stroke-opacity:1;"
     d="  M 275.50739,132.25616   L 278.62069,135.68473   L 286.85714,135.68473   L 275.50739,132.25616  z "
     id="path7" />
  <path
     style="fill:#000000;fill-rule:evenodd;fill-opacity:1;stroke:none;"
     d="  M 278.62069,135.68473   L 286.85714,135.68473   L 286.85714,135.68473  z "
     id="path8" />
  <path
     style="fill:none;stroke:#000000;stroke-width:1.3004926px;stroke-linecap:round;stroke-linejoin:round;stroke-miterlimit:4;stroke-dasharray:none;stroke-opacity:1;"
     d="  M 278.62069,135.68473   L 286.85714,135.68473   L 286.85714,135.68473   L 278.62069,135.68473  z "
     id="path9" />
  <path
     style="fill:#000000;fill-rule:evenodd;fill-opacity:1;stroke:none;"
     d="  M 278.62069,135.68473   L 286.85714,135.68473   L 286.85714,135.68473  z "
     id="path10" />
  <path
     style="fill:none;stroke:#000000;stroke-width:1.3004926px;stroke-linecap:round;stroke-linejoin:round;stroke-miterlimit:4;stroke-dasharray:none;stroke-opacity:1;"
     d="  M 278.62069,135.68473   L 286.85714,135.68473   L 286.85714,135.68473   L 278.62069,135.68473  z "
     id="path11" />
  <path
     style="fill:#000000;fill-rule:evenodd;fill-opacity:1;stroke:none;"
     d="  M 278.62069,135.68473   L 286.85714,135.68473   L 275.50739,139.15271  z "
     id="path12" />
  <path
     style="fill:none;stroke:#000000;stroke-width:1.3004926px;stroke-linecap:round;stroke-linejoin:round;stroke-miterlimit:4;stroke-dasharray:none;stroke-opacity:1;"
     d="  M 278.62069,135.68473   L 286.85714,135.68473   L 275.50739,139.15271   L 278.62069,135.68473  z "
     id="path13" />
  <path
     style="fill:#000000;fill-rule:evenodd;fill-opacity:1;stroke:none;"
     d="  M 252.17734,132.25616   L 240.78818,135.68473   L 249.06404,135.68473  z "
     id="path14" />
  <path
     style="fill:none;stroke:#000000;stroke-width:1.3004926px;stroke-linecap:round;stroke-linejoin:round;stroke-miterlimit:4;stroke-dasharray:none;stroke-opacity:1;"
     d="  M 252.17734,132.25616   L 240.78818,135.68473   L 249.06404,135.68473   L 252.17734,132.25616  z "
     id="path15" />
  <path
     style="fill:#000000;fill-rule:evenodd;fill-opacity:1;stroke:none;"
     d="  M 240.78818,135.68473   L 249.06404,135.68473   L 249.06404,135.68473  z "
     id="path16" />
  <path
     style="fill:none;stroke:#000000;stroke-width:1.3004926px;stroke-linecap:round;stroke-linejoin:round;stroke-miterlimit:4;stroke-dasharray:none;stroke-opacity:1;"
     d="  M 240.78818,135.68473   L 249.06404,135.68473   L 249.06404,135.68473   L 240.78818,135.68473  z "
     id="path17" />
  <path
     style="fill:#000000;fill-rule:evenodd;fill-opacity:1;stroke:none;"
     d="  M 240.78818,135.68473   L 249.06404,135.68473   L 249.06404,135.68473  z "
     id="path18" />
  <path
     style="fill:none;stroke:#000000;stroke-width:1.3004926px;stroke-linecap:round;stroke-linejoin:round;stroke-miterlimit:4;stroke-dasharray:none;stroke-opacity:1;"
     d="  M 240.78818,135.68473   L 249.06404,135.68473   L 249.06404,135.68473   L 240.78818,135.68473  z "
     id="path19" />
  <path
     style="fill:#000000;fill-rule:evenodd;fill-opacity:1;stroke:none;"
     d="  M 240.78818,135.68473   L 249.06404,135.68473   L 252.17734,139.15271  z "
     id="path20" />
  <path
     style="fill:none;stroke:#000000;stroke-width:1.3004926px;stroke-linecap:round;stroke-linejoin:round;stroke-miterlimit:4;stroke-dasharray:none;stroke-opacity:1;"
     d="  M 240.78818,135.68473   L 249.06404,135.68473   L 252.17734,139.15271   L 240.78818,135.68473  z "
     id="path21" />
  <path
     style="fill:none;stroke:#000000;stroke-width:1.3004926px;stroke-linecap:round;stroke-linejoin:round;stroke-miterlimit:4;stroke-dasharray:none;stroke-opacity:1;"
     d="  M 240.78818,135.68473   L 252.17734,139.15271  "
     id="path22" />
  <path
     style="fill:none;stroke:#000000;stroke-width:1.3004926px;stroke-linecap:round;stroke-linejoin:round;stroke-miterlimit:4;stroke-dasharray:none;stroke-opacity:1;"
     d="  M 252.17734,139.15271   L 249.06404,135.68473  "
     id="path23" />
  <path
     style="fill:none;stroke:#000000;stroke-width:1.3004926px;stroke-linecap:round;stroke-linejoin:round;stroke-miterlimit:4;stroke-dasharray:none;stroke-opacity:1;"
     d="  M 252.17734,132.25616   L 249.06404,135.68473  "
     id="path24" />
  <path
     style="fill:none;stroke:#000000;stroke-width:1.3004926px;stroke-linecap:round;stroke-linejoin:round;stroke-miterlimit:4;stroke-dasharray:none;stroke-opacity:1;"
     d="  M 240.78818,135.68473   L 252.17734,132.25616  "
     id="path25" />
  <path
     style="fill:none;stroke:#000000;stroke-width:1.3004926px;stroke-linecap:round;stroke-linejoin:round;stroke-miterlimit:4;stroke-dasharray:none;stroke-opacity:1;"
     d="  M 48,135.68473   L 36.650246,132.25616  "
     id="path26" />
  <path
     style="fill:none;stroke:#000000;stroke-width:1.3004926px;stroke-linecap:round;stroke-linejoin:round;stroke-miterlimit:4;stroke-dasharray:none;stroke-opacity:1;"
     d="  M 36.650246,132.25616   L 39.724138,135.68473  "
     id="path27" />
  <path
     style="fill:none;stroke:#000000;stroke-width:1.3004926px;stroke-linecap:round;stroke-linejoin:round;stroke-miterlimit:4;stroke-dasharray:none;stroke-opacity:1;"
     d="  M 36.650246,139.15271   L 39.724138,135.68473  "
     id="path28" />
  <path
     style="fill:none;stroke:#000000;stroke-width:1.3004926px;stroke-linecap:round;stroke-linejoin:round;stroke-miterlimit:4;stroke-dasharray:none;stroke-opacity:1;"
     d="  M 48,135.68473   L 36.650246,139.15271  "
     id="path29" />
  <path
     style="fill:#000000;fill-rule:evenodd;fill-opacity:1;stroke:none;"
     d="  M 36.650246,132.25616   L 39.724138,135.68473   L 48,135.68473  z "
     id="path30" />
  <path
     style="fill:none;stroke:#000000;stroke-width:1.3004926px;stroke-linecap:round;stroke-linejoin:round;stroke-miterlimit:4;stroke-dasharray:none;stroke-opacity:1;"
     d="  M 36.650246,132.25616   L 39.724138,135.68473   L 48,135.68473   L 36.650246,132.25616  z "
     id="path31" />
  <path
     style="fill:#000000;fill-rule:evenodd;fill-opacity:1;stroke:none;"
     d="  M 39.724138,135.68473   L 48,135.68473   L 48,135.68473  z "
     id="path32" />
  <path
     style="fill:none;stroke:#000000;stroke-width:1.3004926px;stroke-linecap:round;stroke-linejoin:round;stroke-miterlimit:4;stroke-dasharray:none;stroke-opacity:1;"
     d="  M 39.724138,135.68473   L 48,135.68473   L 48,135.68473   L 39.724138,135.68473  z "
     id="path33" />
  <path
     style="fill:#000000;fill-rule:evenodd;fill-opacity:1;stroke:none;"
     d="  M 39.724138,135.68473   L 48,135.68473   L 48,135.68473  z "
     id="path34" />
  <path
     style="fill:none;stroke:#000000;stroke-width:1.3004926px;stroke-linecap:round;stroke-linejoin:round;stroke-miterlimit:4;stroke-dasharray:none;stroke-opacity:1;"
     d="  M 39.724138,135.68473   L 48,135.68473   L 48,135.68473   L 39.724138,135.68473  z "
     id="path35" />
  <path
     style="fill:#000000;fill-rule:evenodd;fill-opacity:1;stroke:none;"
     d="  M 39.724138,135.68473   L 48,135.68473   L 36.650246,139.15271  z "
     id="path36" />
  <path
     style="fill:none;stroke:#000000;stroke-width:1.3004926px;stroke-linecap:round;stroke-linejoin:round;stroke-miterlimit:4;stroke-dasharray:none;stroke-opacity:1;"
     d="  M 39.724138,135.68473   L 48,135.68473   L 36.650246,139.15271   L 39.724138,135.68473  z "
     id="path37" />
  <path
     style="fill:#000000;fill-rule:evenodd;fill-opacity:1;stroke:none;"
     d="  M 13.320197,132.25616   L 1.9310345,135.68473   L 10.206897,135.68473  z "
     id="path38" />
  <path
     style="fill:none;stroke:#000000;stroke-width:1.3004926px;stroke-linecap:round;stroke-linejoin:round;stroke-miterlimit:4;stroke-dasharray:none;stroke-opacity:1;"
     d="  M 13.320197,132.25616   L 1.9310345,135.68473   L 10.206897,135.68473   L 13.320197,132.25616  z "
     id="path39" />
  <path
     style="fill:#000000;fill-rule:evenodd;fill-opacity:1;stroke:none;"
     d="  M 1.9310345,135.68473   L 10.206897,135.68473   L 10.206897,135.68473  z "
     id="path40" />
  <path
     style="fill:none;stroke:#000000;stroke-width:1.3004926px;stroke-linecap:round;stroke-linejoin:round;stroke-miterlimit:4;stroke-dasharray:none;stroke-opacity:1;"
     d="  M 1.9310345,135.68473   L 10.206897,135.68473   L 10.206897,135.68473   L 1.9310345,135.68473  z "
     id="path41" />
  <path
     style="fill:#000000;fill-rule:evenodd;fill-opacity:1;stroke:none;"
     d="  M 1.9310345,135.68473   L 10.206897,135.68473   L 10.206897,135.68473  z "
     id="path42" />
  <path
     style="fill:none;stroke:#000000;stroke-width:1.3004926px;stroke-linecap:round;stroke-linejoin:round;stroke-miterlimit:4;stroke-dasharray:none;stroke-opacity:1;"
     d="  M 1.9310345,135.68473   L 10.206897,135.68473   L 10.206897,135.68473   L 1.9310345,135.68473  z "
     id="path43" />
  <path
     style="fill:#000000;fill-rule:evenodd;fill-opacity:1;stroke:none;"
     d="  M 1.9310345,135.68473   L 10.206897,135.68473   L 13.320197,139.15271  z "
     id="path44" />
  <path
     style="fill:none;stroke:#000000;stroke-width:1.3004926px;stroke-linecap:round;stroke-linejoin:round;stroke-miterlimit:4;stroke-dasharray:none;stroke-opacity:1;"
     d="  M 1.9310345,135.68473   L 10.206897,135.68473   L 13.320197,139.15271   L 1.9310345,135.68473  z "
     id="path45" />
  <path
     style="fill:none;stroke:#000000;stroke-width:1.3004926px;stroke-linecap:round;stroke-linejoin:round;stroke-miterlimit:4;stroke-dasharray:none;stroke-opacity:1;"
     d="  M 1.9310345,135.68473   L 13.320197,139.15271  "
     id="path46" />
  <path
     style="fill:none;stroke:#000000;stroke-width:1.3004926px;stroke-linecap:round;stroke-linejoin:round;stroke-miterlimit:4;stroke-dasharray:none;stroke-opacity:1;"
     d="  M 13.320197,139.15271   L 10.206897,135.68473  "
     id="path47" />
  <path
     style="fill:none;stroke:#000000;stroke-width:1.3004926px;stroke-linecap:round;stroke-linejoin:round;stroke-miterlimit:4;stroke-dasharray:none;stroke-opacity:1;"
     d="  M 13.320197,132.25616   L 10.206897,135.68473  "
     id="path48" />
  <path
     style="fill:none;stroke:#000000;stroke-width:1.3004926px;stroke-linecap:round;stroke-linejoin:round;stroke-miterlimit:4;stroke-dasharray:none;stroke-opacity:1;"
     d="  M 1.9310345,135.68473   L 13.320197,132.25616  "
     id="path49" />
  <path
     style="fill:none;stroke:#000000;stroke-width:1.3004926px;stroke-linecap:round;stroke-linejoin:round;stroke-miterlimit:4;stroke-dasharray:none;stroke-opacity:1;"
     d="  M 1.9310345,135.68473   L 48,135.68473  "
     id="path50" />
  <path
     style="fill:none;stroke:#000000;stroke-width:1.3004926px;stroke-linecap:round;stroke-linejoin:round;stroke-miterlimit:4;stroke-dasharray:none;stroke-opacity:1;"
     d="  M 394.87685,134.73892   L 394.6798,130.87685   L 394.08867,127.05419   L 393.18227,123.31034   L 391.88177,119.68473   L 390.2266,116.17734   L 388.21675,112.867   L 385.93103,109.75369   L 383.33005,106.91626   L 380.49261,104.31527   L 377.37931,102.02956   L 374.06897,100.0197   L 370.60099,98.364532   L 366.97537,97.064039   L 363.23153,96.157635   L 359.40887,95.566502   L 355.5468,95.369458   L 351.72414,95.566502   L 347.90148,96.157635   L 344.15764,97.064039   L 340.53202,98.364532   L 337.02463,100.0197   L 333.71429,102.02956   L 330.64039,104.31527   L 327.76355,106.91626   L 325.16256,109.75369   L 322.87685,112.867   L 320.9064,116.17734   L 319.25123,119.68473   L 317.95074,123.31034   L 317.00493,127.05419   L 316.4532,130.87685   L 316.25616,134.73892   L 316.4532,138.56158   L 317.00493,142.38424   L 317.95074,146.12808   L 319.25123,149.75369   L 320.9064,153.26108   L 322.87685,156.57143   L 325.16256,159.68473   L 327.76355,162.52217   L 330.64039,165.12315   L 333.71429,167.40887   L 337.02463,169.41872   L 340.53202,171.07389   L 344.15764,172.37438   L 347.90148,173.28079   L 351.72414,173.87192   L 355.5468,174.06897   L 359.40887,173.87192   L 363.23153,173.28079   L 366.97537,172.37438   L 370.60099,171.07389   L 374.06897,169.41872   L 377.37931,167.40887   L 380.49261,165.12315   L 383.33005,162.52217   L 385.93103,159.68473   L 388.21675,156.57143   L 390.2266,153.26108   L 391.88177,149.75369   L 393.18227,146.12808   L 394.08867,142.38424   L 394.6798,138.56158   L 394.87685,134.73892  z "
     id="path51" />
  <path
     style="fill:none;stroke:#000000;stroke-width:1.3004926px;stroke-linecap:round;stroke-linejoin:round;stroke-miterlimit:4;stroke-dasharray:none;stroke-opacity:1;"
     d="  M 383.92118,134.73892   L 383.72414,131.31034   L 383.0936,127.92118   L 382.06897,124.65025   L 380.68966,121.53695   L 378.91626,118.58128   L 376.78818,115.90148   L 374.38424,113.45813   L 371.66502,111.36946   L 368.74877,109.59606   L 365.63547,108.17734   L 362.36453,107.15271   L 358.97537,106.52217   L 355.5468,106.32512   L 352.15764,106.52217   L 348.76847,107.15271   L 345.49754,108.17734   L 342.38424,109.59606   L 339.42857,111.36946   L 336.74877,113.45813   L 334.34483,115.90148   L 332.21675,118.58128   L 330.44335,121.53695   L 329.02463,124.65025   L 328,127.92118   L 327.40887,131.31034   L 327.17241,134.73892   L 327.40887,138.12808   L 328,141.51724   L 329.02463,144.78818   L 330.44335,147.90148   L 332.21675,150.85714   L 334.34483,153.53695   L 336.74877,155.9803   L 339.42857,158.06897   L 342.38424,159.84236   L 345.49754,161.26108   L 348.76847,162.28571   L 352.15764,162.91626   L 355.5468,163.1133   L 358.97537,162.91626   L 362.36453,162.28571   L 365.63547,161.26108   L 368.74877,159.84236   L 371.66502,158.06897   L 374.38424,155.9803   L 376.78818,153.53695   L 378.91626,150.85714   L 380.68966,147.90148   L 382.06897,144.78818   L 383.0936,141.51724   L 383.72414,138.12808   L 383.92118,134.73892  z "
     id="path52" />
  <path
     style="fill:none;stroke:#000000;stroke-width:1.3004926px;stroke-linecap:round;stroke-linejoin:round;stroke-miterlimit:4;stroke-dasharray:none;stroke-opacity:1;"
     d="  M 389.08374,134.73892   L 388.84729,130.95567   L 388.21675,127.25123   L 387.19212,123.62562   L 385.73399,120.15764   L 383.92118,116.8867   L 381.75369,113.81281   L 379.27094,111.01478   L 376.4335,108.49261   L 373.39901,106.32512   L 370.08867,104.51232   L 366.62069,103.05419   L 363.03448,102.02956   L 359.33005,101.39901   L 355.5468,101.20197   L 351.80296,101.39901   L 348.09852,102.02956   L 344.51232,103.05419   L 341.00493,104.51232   L 337.73399,106.32512   L 334.6601,108.49261   L 331.86207,111.01478   L 329.37931,113.81281   L 327.17241,116.8867   L 325.35961,120.15764   L 323.94089,123.62562   L 322.87685,127.25123   L 322.24631,130.95567   L 322.04926,134.73892   L 322.24631,138.48276   L 322.87685,142.18719   L 323.94089,145.81281   L 325.35961,149.28079   L 327.17241,152.55172   L 329.37931,155.62562   L 331.86207,158.42365   L 334.6601,160.94581   L 337.73399,163.1133   L 341.00493,164.92611   L 344.51232,166.38424   L 348.09852,167.40887   L 351.80296,168.03941   L 355.5468,168.23645   L 359.33005,168.03941   L 363.03448,167.40887   L 366.62069,166.38424   L 370.08867,164.92611   L 373.39901,163.1133   L 376.4335,160.94581   L 379.27094,158.42365   L 381.75369,155.62562   L 383.92118,152.55172   L 385.73399,149.28079   L 387.19212,145.81281   L 388.21675,142.18719   L 388.84729,138.48276   L 389.08374,134.73892  z "
     id="path53" />
  <path
     style="fill:none;stroke:#000000;stroke-width:1.3004926px;stroke-linecap:round;stroke-linejoin:round;stroke-miterlimit:4;stroke-dasharray:none;stroke-opacity:1;"
     d="  M 228.49261,137.65517   L 228.49261,177.26108  "
     id="path54" />
  <path
     style="fill:none;stroke:#000000;stroke-width:1.3004926px;stroke-linecap:round;stroke-linejoin:round;stroke-miterlimit:4;stroke-dasharray:none;stroke-opacity:1;"
     d="  M 228.49261,135.52709   L 223.64532,135.52709  "
     id="path55" />
  <path
     style="fill:none;stroke:#000000;stroke-width:1.3004926px;stroke-linecap:round;stroke-linejoin:round;stroke-miterlimit:4;stroke-dasharray:none;stroke-opacity:1;"
     d="  M 223.64532,135.52709   L 228.49261,137.65517  "
     id="path56" />
  <path
     style="fill:none;stroke:#000000;stroke-width:1.3004926px;stroke-linecap:round;stroke-linejoin:round;stroke-miterlimit:4;stroke-dasharray:none;stroke-opacity:1;"
     d="  M 233.3399,135.52709   L 228.49261,133.35961  "
     id="path57" />
  <path
     style="fill:none;stroke:#000000;stroke-width:1.3004926px;stroke-linecap:round;stroke-linejoin:round;stroke-miterlimit:4;stroke-dasharray:none;stroke-opacity:1;"
     d="  M 228.49261,135.52709   L 233.3399,135.52709  "
     id="path58" />
  <path
     style="fill:none;stroke:#000000;stroke-width:1.3004926px;stroke-linecap:round;stroke-linejoin:round;stroke-miterlimit:4;stroke-dasharray:none;stroke-opacity:1;"
     d="  M 228.49261,91.625616   L 228.49261,133.35961  "
     id="path59" />
  <path
     style="fill:none;stroke:#000000;stroke-width:1.3004926px;stroke-linecap:round;stroke-linejoin:round;stroke-miterlimit:4;stroke-dasharray:none;stroke-opacity:1;"
     d="  M 60.334975,91.625616   L 60.334975,133.35961  "
     id="path60" />
  <path
     style="fill:none;stroke:#000000;stroke-width:1.3004926px;stroke-linecap:round;stroke-linejoin:round;stroke-miterlimit:4;stroke-dasharray:none;stroke-opacity:1;"
     d="  M 60.334975,135.52709   L 65.182266,135.52709  "
     id="path61" />
  <path
     style="fill:none;stroke:#000000;stroke-width:1.3004926px;stroke-linecap:round;stroke-linejoin:round;stroke-miterlimit:4;stroke-dasharray:none;stroke-opacity:1;"
     d="  M 65.182266,135.52709   L 60.334975,133.35961  "
     id="path62" />
  <path
     style="fill:none;stroke:#000000;stroke-width:1.3004926px;stroke-linecap:round;stroke-linejoin:round;stroke-miterlimit:4;stroke-dasharray:none;stroke-opacity:1;"
     d="  M 55.487685,135.52709   L 60.334975,137.65517  "
     id="path63" />
  <path
     style="fill:none;stroke:#000000;stroke-width:1.3004926px;stroke-linecap:round;stroke-linejoin:round;stroke-miterlimit:4;stroke-dasharray:none;stroke-opacity:1;"
     d="  M 60.334975,135.52709   L 55.487685,135.52709  "
     id="path64" />
  <path
     style="fill:none;stroke:#000000;stroke-width:1.3004926px;stroke-linecap:round;stroke-linejoin:round;stroke-miterlimit:4;stroke-dasharray:none;stroke-opacity:1;"
     d="  M 60.334975,137.65517   L 60.334975,177.26108  "
     id="path65" />
  <path
     style="fill:#000000;fill-rule:evenodd;fill-opacity:1;stroke:none;"
     d="  M 142.10837,97.221675   L 138.48276,101.20197   L 142.10837,101.20197  z "
     id="path66" />
  <path
     style="fill:none;stroke:#000000;stroke-width:1.3004926px;stroke-linecap:round;stroke-linejoin:round;stroke-miterlimit:4;stroke-dasharray:none;stroke-opacity:1;"
     d="  M 142.10837,97.221675   L 138.48276,101.20197   L 142.10837,101.20197   L 142.10837,97.221675  z "
     id="path67" />
  <path
     style="fill:#000000;fill-rule:evenodd;fill-opacity:1;stroke:none;"
     d="  M 146.71921,97.221675   L 146.71921,101.20197   L 150.30542,101.20197  z "
     id="path68" />
  <path
     style="fill:none;stroke:#000000;stroke-width:1.3004926px;stroke-linecap:round;stroke-linejoin:round;stroke-miterlimit:4;stroke-dasharray:none;stroke-opacity:1;"
     d="  M 146.71921,97.221675   L 146.71921,101.20197   L 150.30542,101.20197   L 146.71921,97.221675  z "
     id="path69" />
  <path
     style="fill:#000000;fill-rule:evenodd;fill-opacity:1;stroke:none;"
     d="  M 138.48276,101.20197   L 138.48276,168.23645   L 142.10837,168.23645  z "
     id="path70" />
  <path
     style="fill:none;stroke:#000000;stroke-width:1.3004926px;stroke-linecap:round;stroke-linejoin:round;stroke-miterlimit:4;stroke-dasharray:none;stroke-opacity:1;"
     d="  M 138.48276,101.20197   L 138.48276,168.23645   L 142.10837,168.23645   L 138.48276,101.20197  z "
     id="path71" />
  <path
     style="fill:#000000;fill-rule:evenodd;fill-opacity:1;stroke:none;"
     d="  M 138.48276,101.20197   L 142.10837,101.20197   L 142.10837,168.23645  z "
     id="path72" />
  <path
     style="fill:none;stroke:#000000;stroke-width:1.3004926px;stroke-linecap:round;stroke-linejoin:round;stroke-miterlimit:4;stroke-dasharray:none;stroke-opacity:1;"
     d="  M 138.48276,101.20197   L 142.10837,101.20197   L 142.10837,168.23645   L 138.48276,101.20197  z "
     id="path73" />
  <path
     style="fill:#000000;fill-rule:evenodd;fill-opacity:1;stroke:none;"
     d="  M 146.71921,101.20197   L 146.71921,168.23645   L 150.30542,168.23645  z "
     id="path74" />
  <path
     style="fill:none;stroke:#000000;stroke-width:1.3004926px;stroke-linecap:round;stroke-linejoin:round;stroke-miterlimit:4;stroke-dasharray:none;stroke-opacity:1;"
     d="  M 146.71921,101.20197   L 146.71921,168.23645   L 150.30542,168.23645   L 146.71921,101.20197  z "
     id="path75" />
  <path
     style="fill:#000000;fill-rule:evenodd;fill-opacity:1;stroke:none;"
     d="  M 146.71921,101.20197   L 150.30542,101.20197   L 150.30542,168.23645  z "
     id="path76" />
  <path
     style="fill:none;stroke:#000000;stroke-width:1.3004926px;stroke-linecap:round;stroke-linejoin:round;stroke-miterlimit:4;stroke-dasharray:none;stroke-opacity:1;"
     d="  M 146.71921,101.20197   L 150.30542,101.20197   L 150.30542,168.23645   L 146.71921,101.20197  z "
     id="path77" />
  <path
     style="fill:#000000;fill-rule:evenodd;fill-opacity:1;stroke:none;"
     d="  M 138.48276,168.23645   L 142.10837,168.23645   L 142.10837,172.21675  z "
     id="path78" />
  <path
     style="fill:none;stroke:#000000;stroke-width:1.3004926px;stroke-linecap:round;stroke-linejoin:round;stroke-miterlimit:4;stroke-dasharray:none;stroke-opacity:1;"
     d="  M 138.48276,168.23645   L 142.10837,168.23645   L 142.10837,172.21675   L 138.48276,168.23645  z "
     id="path79" />
  <path
     style="fill:#000000;fill-rule:evenodd;fill-opacity:1;stroke:none;"
     d="  M 146.71921,168.23645   L 150.30542,168.23645   L 146.71921,172.21675  z "
     id="path80" />
  <path
     style="fill:none;stroke:#000000;stroke-width:1.3004926px;stroke-linecap:round;stroke-linejoin:round;stroke-miterlimit:4;stroke-dasharray:none;stroke-opacity:1;"
     d="  M 146.71921,168.23645   L 150.30542,168.23645   L 146.71921,172.21675   L 146.71921,168.23645  z "
     id="path81" />
  <path
     style="fill:none;stroke:#000000;stroke-width:1.3004926px;stroke-linecap:round;stroke-linejoin:round;stroke-miterlimit:4;stroke-dasharray:none;stroke-opacity:1;"
     d="  M 146.71921,172.21675   L 150.30542,168.23645  "
     id="path82" />
  <path
     style="fill:none;stroke:#000000;stroke-width:1.3004926px;stroke-linecap:round;stroke-linejoin:round;stroke-miterlimit:4;stroke-dasharray:none;stroke-opacity:1;"
     d="  M 146.71921,97.221675   L 150.30542,101.20197  "
     id="path83" />
  <path
     style="fill:none;stroke:#000000;stroke-width:1.3004926px;stroke-linecap:round;stroke-linejoin:round;stroke-miterlimit:4;stroke-dasharray:none;stroke-opacity:1;"
     d="  M 150.30542,168.23645   L 150.30542,101.20197  "
     id="path84" />
  <path
     style="fill:none;stroke:#000000;stroke-width:1.3004926px;stroke-linecap:round;stroke-linejoin:round;stroke-miterlimit:4;stroke-dasharray:none;stroke-opacity:1;"
     d="  M 150.30542,163.1133   L 156.37438,163.1133  "
     id="path85" />
  <path
     style="fill:none;stroke:#000000;stroke-width:1.3004926px;stroke-linecap:round;stroke-linejoin:round;stroke-miterlimit:4;stroke-dasharray:none;stroke-opacity:1;"
     d="  M 161.61576,163.1133   L 165.08374,163.1133  "
     id="path86" />
  <path
     style="fill:none;stroke:#000000;stroke-width:1.3004926px;stroke-linecap:round;stroke-linejoin:round;stroke-miterlimit:4;stroke-dasharray:none;stroke-opacity:1;"
     d="  M 170.28571,163.1133   L 173.75369,163.1133  "
     id="path87" />
  <path
     style="fill:none;stroke:#000000;stroke-width:1.3004926px;stroke-linecap:round;stroke-linejoin:round;stroke-miterlimit:4;stroke-dasharray:none;stroke-opacity:1;"
     d="  M 178.99507,163.1133   L 182.46305,163.1133  "
     id="path88" />
  <path
     style="fill:none;stroke:#000000;stroke-width:1.3004926px;stroke-linecap:round;stroke-linejoin:round;stroke-miterlimit:4;stroke-dasharray:none;stroke-opacity:1;"
     d="  M 187.66502,163.1133   L 191.133,163.1133  "
     id="path89" />
  <path
     style="fill:none;stroke:#000000;stroke-width:1.3004926px;stroke-linecap:round;stroke-linejoin:round;stroke-miterlimit:4;stroke-dasharray:none;stroke-opacity:1;"
     d="  M 196.37438,163.1133   L 199.84236,163.1133  "
     id="path90" />
  <path
     style="fill:none;stroke:#000000;stroke-width:1.3004926px;stroke-linecap:round;stroke-linejoin:round;stroke-miterlimit:4;stroke-dasharray:none;stroke-opacity:1;"
     d="  M 205.04433,163.1133   L 208.51232,163.1133  "
     id="path91" />
  <path
     style="fill:none;stroke:#000000;stroke-width:1.3004926px;stroke-linecap:round;stroke-linejoin:round;stroke-miterlimit:4;stroke-dasharray:none;stroke-opacity:1;"
     d="  M 213.71429,163.1133   L 217.22167,163.1133  "
     id="path92" />
  <path
     style="fill:none;stroke:#000000;stroke-width:1.3004926px;stroke-linecap:round;stroke-linejoin:round;stroke-miterlimit:4;stroke-dasharray:none;stroke-opacity:1;"
     d="  M 222.42365,163.1133   L 228.49261,163.1133  "
     id="path93" />
  <path
     style="fill:none;stroke:#000000;stroke-width:1.3004926px;stroke-linecap:round;stroke-linejoin:round;stroke-miterlimit:4;stroke-dasharray:none;stroke-opacity:1;"
     d="  M 150.30542,106.32512   L 156.37438,106.32512  "
     id="path94" />
  <path
     style="fill:none;stroke:#000000;stroke-width:1.3004926px;stroke-linecap:round;stroke-linejoin:round;stroke-miterlimit:4;stroke-dasharray:none;stroke-opacity:1;"
     d="  M 161.61576,106.32512   L 165.08374,106.32512  "
     id="path95" />
  <path
     style="fill:none;stroke:#000000;stroke-width:1.3004926px;stroke-linecap:round;stroke-linejoin:round;stroke-miterlimit:4;stroke-dasharray:none;stroke-opacity:1;"
     d="  M 170.28571,106.32512   L 173.75369,106.32512  "
     id="path96" />
  <path
     style="fill:none;stroke:#000000;stroke-width:1.3004926px;stroke-linecap:round;stroke-linejoin:round;stroke-miterlimit:4;stroke-dasharray:none;stroke-opacity:1;"
     d="  M 178.99507,106.32512   L 182.46305,106.32512  "
     id="path97" />
  <path
     style="fill:none;stroke:#000000;stroke-width:1.3004926px;stroke-linecap:round;stroke-linejoin:round;stroke-miterlimit:4;stroke-dasharray:none;stroke-opacity:1;"
     d="  M 187.66502,106.32512   L 191.133,106.32512  "
     id="path98" />
  <path
     style="fill:none;stroke:#000000;stroke-width:1.3004926px;stroke-linecap:round;stroke-linejoin:round;stroke-miterlimit:4;stroke-dasharray:none;stroke-opacity:1;"
     d="  M 196.37438,106.32512   L 199.84236,106.32512  "
     id="path99" />
  <path
     style="fill:none;stroke:#000000;stroke-width:1.3004926px;stroke-linecap:round;stroke-linejoin:round;stroke-miterlimit:4;stroke-dasharray:none;stroke-opacity:1;"
     d="  M 205.04433,106.32512   L 208.51232,106.32512  "
     id="path100" />
  <path
     style="fill:none;stroke:#000000;stroke-width:1.3004926px;stroke-linecap:round;stroke-linejoin:round;stroke-miterlimit:4;stroke-dasharray:none;stroke-opacity:1;"
     d="  M 213.71429,106.32512   L 217.22167,106.32512  "
     id="path101" />
  <path
     style="fill:none;stroke:#000000;stroke-width:1.3004926px;stroke-linecap:round;stroke-linejoin:round;stroke-miterlimit:4;stroke-dasharray:none;stroke-opacity:1;"
     d="  M 222.42365,106.32512   L 228.49261,106.32512  "
     id="path102" />
  <path
     style="fill:none;stroke:#000000;stroke-width:1.3004926px;stroke-linecap:round;stroke-linejoin:round;stroke-miterlimit:4;stroke-dasharray:none;stroke-opacity:1;"
     d="  M 142.10837,97.221675   L 138.48276,101.20197  "
     id="path103" />
  <path
     style="fill:none;stroke:#000000;stroke-width:1.3004926px;stroke-linecap:round;stroke-linejoin:round;stroke-miterlimit:4;stroke-dasharray:none;stroke-opacity:1;"
     d="  M 138.48276,168.23645   L 138.48276,101.20197  "
     id="path104" />
  <path
     style="fill:none;stroke:#000000;stroke-width:1.3004926px;stroke-linecap:round;stroke-linejoin:round;stroke-miterlimit:4;stroke-dasharray:none;stroke-opacity:1;"
     d="  M 142.10837,172.21675   L 138.48276,168.23645  "
     id="path105" />
  <path
     style="fill:none;stroke:#000000;stroke-width:1.3004926px;stroke-linecap:round;stroke-linejoin:round;stroke-miterlimit:4;stroke-dasharray:none;stroke-opacity:1;"
     d="  M 150.30542,168.23645   L 228.49261,168.23645  "
     id="path106" />
  <path
     style="fill:none;stroke:#000000;stroke-width:1.3004926px;stroke-linecap:round;stroke-linejoin:round;stroke-miterlimit:4;stroke-dasharray:none;stroke-opacity:1;"
     d="  M 150.30542,101.20197   L 228.49261,101.20197  "
     id="path107" />
  <path
     style="fill:none;stroke:#000000;stroke-width:1.3004926px;stroke-linecap:round;stroke-linejoin:round;stroke-miterlimit:4;stroke-dasharray:none;stroke-opacity:1;"
     d="  M 146.71921,174.06897   L 146.71921,95.369458  "
     id="path108" />
  <path
     style="fill:none;stroke:#000000;stroke-width:1.3004926px;stroke-linecap:round;stroke-linejoin:round;stroke-miterlimit:4;stroke-dasharray:none;stroke-opacity:1;"
     d="  M 142.10837,174.06897   L 142.10837,95.369458  "
     id="path109" />
  <path
     style="fill:none;stroke:#000000;stroke-width:1.3004926px;stroke-linecap:round;stroke-linejoin:round;stroke-miterlimit:4;stroke-dasharray:none;stroke-opacity:1;"
     d="  M 142.10837,174.06897   L 146.71921,174.06897  "
     id="path110" />
  <path
     style="fill:none;stroke:#000000;stroke-width:1.3004926px;stroke-linecap:round;stroke-linejoin:round;stroke-miterlimit:4;stroke-dasharray:none;stroke-opacity:1;"
     d="  M 142.10837,95.369458   L 146.71921,95.369458  "
     id="path111" />
  <path
     style="fill:none;stroke:#000000;stroke-width:1.3004926px;stroke-linecap:round;stroke-linejoin:round;stroke-miterlimit:4;stroke-dasharray:none;stroke-opacity:1;"
     d="  M 60.334975,101.20197   L 138.48276,101.20197  "
     id="path112" />
  <path
     style="fill:none;stroke:#000000;stroke-width:1.3004926px;stroke-linecap:round;stroke-linejoin:round;stroke-miterlimit:4;stroke-dasharray:none;stroke-opacity:1;"
     d="  M 60.334975,106.32512   L 66.403941,106.32512  "
     id="path113" />
  <path
     style="fill:none;stroke:#000000;stroke-width:1.3004926px;stroke-linecap:round;stroke-linejoin:round;stroke-miterlimit:4;stroke-dasharray:none;stroke-opacity:1;"
     d="  M 71.605911,106.32512   L 75.073892,106.32512  "
     id="path114" />
  <path
     style="fill:none;stroke:#000000;stroke-width:1.3004926px;stroke-linecap:round;stroke-linejoin:round;stroke-miterlimit:4;stroke-dasharray:none;stroke-opacity:1;"
     d="  M 80.275862,106.32512   L 83.783251,106.32512  "
     id="path115" />
  <path
     style="fill:none;stroke:#000000;stroke-width:1.3004926px;stroke-linecap:round;stroke-linejoin:round;stroke-miterlimit:4;stroke-dasharray:none;stroke-opacity:1;"
     d="  M 88.985222,106.32512   L 92.453202,106.32512  "
     id="path116" />
  <path
     style="fill:none;stroke:#000000;stroke-width:1.3004926px;stroke-linecap:round;stroke-linejoin:round;stroke-miterlimit:4;stroke-dasharray:none;stroke-opacity:1;"
     d="  M 97.655172,106.32512   L 101.16256,106.32512  "
     id="path117" />
  <path
     style="fill:none;stroke:#000000;stroke-width:1.3004926px;stroke-linecap:round;stroke-linejoin:round;stroke-miterlimit:4;stroke-dasharray:none;stroke-opacity:1;"
     d="  M 106.36453,106.32512   L 109.83251,106.32512  "
     id="path118" />
  <path
     style="fill:none;stroke:#000000;stroke-width:1.3004926px;stroke-linecap:round;stroke-linejoin:round;stroke-miterlimit:4;stroke-dasharray:none;stroke-opacity:1;"
     d="  M 115.03448,106.32512   L 118.50246,106.32512  "
     id="path119" />
  <path
     style="fill:none;stroke:#000000;stroke-width:1.3004926px;stroke-linecap:round;stroke-linejoin:round;stroke-miterlimit:4;stroke-dasharray:none;stroke-opacity:1;"
     d="  M 123.74384,106.32512   L 127.21182,106.32512  "
     id="path120" />
  <path
     style="fill:none;stroke:#000000;stroke-width:1.3004926px;stroke-linecap:round;stroke-linejoin:round;stroke-miterlimit:4;stroke-dasharray:none;stroke-opacity:1;"
     d="  M 132.41379,106.32512   L 138.48276,106.32512  "
     id="path121" />
  <path
     style="fill:none;stroke:#000000;stroke-width:1.3004926px;stroke-linecap:round;stroke-linejoin:round;stroke-miterlimit:4;stroke-dasharray:none;stroke-opacity:1;"
     d="  M 60.334975,168.23645   L 138.48276,168.23645  "
     id="path122" />
  <path
     style="fill:none;stroke:#000000;stroke-width:1.3004926px;stroke-linecap:round;stroke-linejoin:round;stroke-miterlimit:4;stroke-dasharray:none;stroke-opacity:1;"
     d="  M 60.334975,163.1133   L 66.403941,163.1133  "
     id="path123" />
  <path
     style="fill:none;stroke:#000000;stroke-width:1.3004926px;stroke-linecap:round;stroke-linejoin:round;stroke-miterlimit:4;stroke-dasharray:none;stroke-opacity:1;"
     d="  M 71.605911,163.1133   L 75.073892,163.1133  "
     id="path124" />
  <path
     style="fill:none;stroke:#000000;stroke-width:1.3004926px;stroke-linecap:round;stroke-linejoin:round;stroke-miterlimit:4;stroke-dasharray:none;stroke-opacity:1;"
     d="  M 80.275862,163.1133   L 83.783251,163.1133  "
     id="path125" />
  <path
     style="fill:none;stroke:#000000;stroke-width:1.3004926px;stroke-linecap:round;stroke-linejoin:round;stroke-miterlimit:4;stroke-dasharray:none;stroke-opacity:1;"
     d="  M 88.985222,163.1133   L 92.453202,163.1133  "
     id="path126" />
  <path
     style="fill:none;stroke:#000000;stroke-width:1.3004926px;stroke-linecap:round;stroke-linejoin:round;stroke-miterlimit:4;stroke-dasharray:none;stroke-opacity:1;"
     d="  M 97.655172,163.1133   L 101.16256,163.1133  "
     id="path127" />
  <path
     style="fill:none;stroke:#000000;stroke-width:1.3004926px;stroke-linecap:round;stroke-linejoin:round;stroke-miterlimit:4;stroke-dasharray:none;stroke-opacity:1;"
     d="  M 106.36453,163.1133   L 109.83251,163.1133  "
     id="path128" />
  <path
     style="fill:none;stroke:#000000;stroke-width:1.3004926px;stroke-linecap:round;stroke-linejoin:round;stroke-miterlimit:4;stroke-dasharray:none;stroke-opacity:1;"
     d="  M 115.03448,163.1133   L 118.50246,163.1133  "
     id="path129" />
  <path
     style="fill:none;stroke:#000000;stroke-width:1.3004926px;stroke-linecap:round;stroke-linejoin:round;stroke-miterlimit:4;stroke-dasharray:none;stroke-opacity:1;"
     d="  M 123.74384,163.1133   L 127.21182,163.1133  "
     id="path130" />
  <path
     style="fill:none;stroke:#000000;stroke-width:1.3004926px;stroke-linecap:round;stroke-linejoin:round;stroke-miterlimit:4;stroke-dasharray:none;stroke-opacity:1;"
     d="  M 132.41379,163.1133   L 138.48276,163.1133  "
     id="path131" />
  <path
     style="fill:none;stroke:#000000;stroke-width:1.3004926px;stroke-linecap:round;stroke-linejoin:round;stroke-miterlimit:4;stroke-dasharray:none;stroke-opacity:1;"
     d="  M 128.31527,21.793103   L 132.33498,17.891626   L 136.03941,13.714286   L 139.38916,9.2216749  "
     id="path132" />
  <path
     style="fill:none;stroke:#000000;stroke-width:1.3004926px;stroke-linecap:round;stroke-linejoin:round;stroke-miterlimit:4;stroke-dasharray:none;stroke-opacity:1;"
     d="  M 126.77833,64.945813   L 158.46305,64.945813  "
     id="path133" />
  <path
     style="fill:none;stroke:#000000;stroke-width:1.3004926px;stroke-linecap:round;stroke-linejoin:round;stroke-miterlimit:4;stroke-dasharray:none;stroke-opacity:1;"
     d="  M 139.38916,7.3300493   L 149.12315,7.3300493  "
     id="path134" />
  <path
     style="fill:none;stroke:#000000;stroke-width:1.3004926px;stroke-linecap:round;stroke-linejoin:round;stroke-miterlimit:4;stroke-dasharray:none;stroke-opacity:1;"
     d="  M 149.12315,64.945813   L 149.12315,7.3300493  "
     id="path135" />
  <path
     style="fill:none;stroke:#000000;stroke-width:1.3004926px;stroke-linecap:round;stroke-linejoin:round;stroke-miterlimit:4;stroke-dasharray:none;stroke-opacity:1;"
     d="  M 139.38916,64.945813   L 139.38916,7.3300493  "
     id="path136" />
  <path
     style="fill:none;stroke:#000000;stroke-width:1.3004926px;stroke-linecap:round;stroke-linejoin:round;stroke-miterlimit:4;stroke-dasharray:none;stroke-opacity:1;"
     d="  M 96.472906,30.817734   L 96.472906,55.369458  "
     id="path137" />
  <path
     style="fill:none;stroke:#000000;stroke-width:1.3004926px;stroke-linecap:round;stroke-linejoin:round;stroke-miterlimit:4;stroke-dasharray:none;stroke-opacity:1;"
     d="  M 96.472906,28.650246   L 91.586207,28.650246  "
     id="path138" />
  <path
     style="fill:none;stroke:#000000;stroke-width:1.3004926px;stroke-linecap:round;stroke-linejoin:round;stroke-miterlimit:4;stroke-dasharray:none;stroke-opacity:1;"
     d="  M 91.586207,28.650246   L 96.472906,30.817734  "
     id="path139" />
  <path
     style="fill:none;stroke:#000000;stroke-width:1.3004926px;stroke-linecap:round;stroke-linejoin:round;stroke-miterlimit:4;stroke-dasharray:none;stroke-opacity:1;"
     d="  M 101.3202,28.650246   L 96.472906,26.482759  "
     id="path140" />
  <path
     style="fill:none;stroke:#000000;stroke-width:1.3004926px;stroke-linecap:round;stroke-linejoin:round;stroke-miterlimit:4;stroke-dasharray:none;stroke-opacity:1;"
     d="  M 96.472906,28.650246   L 101.3202,28.650246  "
     id="path141" />
  <path
     style="fill:none;stroke:#000000;stroke-width:1.3004926px;stroke-linecap:round;stroke-linejoin:round;stroke-miterlimit:4;stroke-dasharray:none;stroke-opacity:1;"
     d="  M 96.472906,1.9310345   L 96.472906,26.482759  "
     id="path142" />
  <path
     style="fill:none;stroke:#000000;stroke-width:1.3004926px;stroke-linecap:round;stroke-linejoin:round;stroke-miterlimit:4;stroke-dasharray:none;stroke-opacity:1;"
     d="  M 192.47291,1.9310345   L 192.47291,26.482759  "
     id="path143" />
  <path
     style="fill:none;stroke:#000000;stroke-width:1.3004926px;stroke-linecap:round;stroke-linejoin:round;stroke-miterlimit:4;stroke-dasharray:none;stroke-opacity:1;"
     d="  M 192.47291,28.650246   L 197.3202,28.650246  "
     id="path144" />
  <path
     style="fill:none;stroke:#000000;stroke-width:1.3004926px;stroke-linecap:round;stroke-linejoin:round;stroke-miterlimit:4;stroke-dasharray:none;stroke-opacity:1;"
     d="  M 197.3202,28.650246   L 192.47291,26.482759  "
     id="path145" />
  <path
     style="fill:none;stroke:#000000;stroke-width:1.3004926px;stroke-linecap:round;stroke-linejoin:round;stroke-miterlimit:4;stroke-dasharray:none;stroke-opacity:1;"
     d="  M 187.62562,28.650246   L 192.47291,30.817734  "
     id="path146" />
  <path
     style="fill:none;stroke:#000000;stroke-width:1.3004926px;stroke-linecap:round;stroke-linejoin:round;stroke-miterlimit:4;stroke-dasharray:none;stroke-opacity:1;"
     d="  M 192.47291,28.650246   L 187.62562,28.650246  "
     id="path147" />
  <path
     style="fill:none;stroke:#000000;stroke-width:1.3004926px;stroke-linecap:round;stroke-linejoin:round;stroke-miterlimit:4;stroke-dasharray:none;stroke-opacity:1;"
     d="  M 192.47291,30.817734   L 192.47291,55.369458  "
     id="path148" />
  <path
     style="fill:none;stroke:#000000;stroke-width:1.3004926px;stroke-linecap:round;stroke-linejoin:round;stroke-miterlimit:4;stroke-dasharray:none;stroke-opacity:1;"
     d="  M 192.27586,21.793103   L 149.12315,21.793103  "
     id="path149" />
  <path
     style="fill:none;stroke:#000000;stroke-width:1.3004926px;stroke-linecap:round;stroke-linejoin:round;stroke-miterlimit:4;stroke-dasharray:none;stroke-opacity:1;"
     d="  M 192.27586,36.295567   L 149.12315,36.295567  "
     id="path150" />
  <path
     style="fill:none;stroke:#000000;stroke-width:1.3004926px;stroke-linecap:round;stroke-linejoin:round;stroke-miterlimit:4;stroke-dasharray:none;stroke-opacity:1;"
     d="  M 96.236453,36.295567   L 139.38916,36.295567  "
     id="path151" />
  <path
     style="fill:none;stroke:#000000;stroke-width:1.3004926px;stroke-linecap:round;stroke-linejoin:round;stroke-miterlimit:4;stroke-dasharray:none;stroke-opacity:1;"
     d="  M 96.236453,21.793103   L 139.38916,21.793103  "
     id="path152" />
  <path
     style="fill:#000000;fill-rule:evenodd;fill-opacity:1;stroke:none;"
     d="  M 139.38916,9.2216749   L 136.03941,13.714286   L 139.38916,13.714286  z "
     id="path153" />
  <path
     style="fill:none;stroke:#000000;stroke-width:1.3004926px;stroke-linecap:round;stroke-linejoin:round;stroke-miterlimit:4;stroke-dasharray:none;stroke-opacity:1;"
     d="  M 139.38916,9.2216749   L 136.03941,13.714286   L 139.38916,13.714286   L 139.38916,9.2216749  z "
     id="path154" />
  <path
     style="fill:#000000;fill-rule:evenodd;fill-opacity:1;stroke:none;"
     d="  M 136.03941,13.714286   L 132.33498,17.891626   L 139.38916,17.891626  z "
     id="path155" />
  <path
     style="fill:none;stroke:#000000;stroke-width:1.3004926px;stroke-linecap:round;stroke-linejoin:round;stroke-miterlimit:4;stroke-dasharray:none;stroke-opacity:1;"
     d="  M 136.03941,13.714286   L 132.33498,17.891626   L 139.38916,17.891626   L 136.03941,13.714286  z "
     id="path156" />
  <path
     style="fill:#000000;fill-rule:evenodd;fill-opacity:1;stroke:none;"
     d="  M 136.03941,13.714286   L 139.38916,13.714286   L 139.38916,17.891626  z "
     id="path157" />
  <path
     style="fill:none;stroke:#000000;stroke-width:1.3004926px;stroke-linecap:round;stroke-linejoin:round;stroke-miterlimit:4;stroke-dasharray:none;stroke-opacity:1;"
     d="  M 136.03941,13.714286   L 139.38916,13.714286   L 139.38916,17.891626   L 136.03941,13.714286  z "
     id="path158" />
  <path
     style="fill:#000000;fill-rule:evenodd;fill-opacity:1;stroke:none;"
     d="  M 132.33498,17.891626   L 128.31527,21.793103   L 139.38916,21.793103  z "
     id="path159" />
  <path
     style="fill:none;stroke:#000000;stroke-width:1.3004926px;stroke-linecap:round;stroke-linejoin:round;stroke-miterlimit:4;stroke-dasharray:none;stroke-opacity:1;"
     d="  M 132.33498,17.891626   L 128.31527,21.793103   L 139.38916,21.793103   L 132.33498,17.891626  z "
     id="path160" />
  <path
     style="fill:#000000;fill-rule:evenodd;fill-opacity:1;stroke:none;"
     d="  M 132.33498,17.891626   L 139.38916,17.891626   L 139.38916,21.793103  z "
     id="path161" />
  <path
     style="fill:none;stroke:#000000;stroke-width:1.3004926px;stroke-linecap:round;stroke-linejoin:round;stroke-miterlimit:4;stroke-dasharray:none;stroke-opacity:1;"
     d="  M 132.33498,17.891626   L 139.38916,17.891626   L 139.38916,21.793103   L 132.33498,17.891626  z "
     id="path162" />
  <path
     style="fill:#000000;fill-rule:evenodd;fill-opacity:1;stroke:none;"
     d="  M 128.31527,21.793103   L 139.38916,21.793103   L 139.38916,21.793103  z "
     id="path163" />
  <path
     style="fill:none;stroke:#000000;stroke-width:1.3004926px;stroke-linecap:round;stroke-linejoin:round;stroke-miterlimit:4;stroke-dasharray:none;stroke-opacity:1;"
     d="  M 128.31527,21.793103   L 139.38916,21.793103   L 139.38916,21.793103   L 128.31527,21.793103  z "
     id="path164" />
  <path
     style="fill:#000000;fill-rule:evenodd;fill-opacity:1;stroke:none;"
     d="  M 149.12315,9.2216749   L 149.12315,13.714286   L 152.47291,13.714286  z "
     id="path165" />
  <path
     style="fill:none;stroke:#000000;stroke-width:1.3004926px;stroke-linecap:round;stroke-linejoin:round;stroke-miterlimit:4;stroke-dasharray:none;stroke-opacity:1;"
     d="  M 149.12315,9.2216749   L 149.12315,13.714286   L 152.47291,13.714286   L 149.12315,9.2216749  z "
     id="path166" />
  <path
     style="fill:#000000;fill-rule:evenodd;fill-opacity:1;stroke:none;"
     d="  M 149.12315,13.714286   L 149.12315,17.891626   L 156.13793,17.891626  z "
     id="path167" />
  <path
     style="fill:none;stroke:#000000;stroke-width:1.3004926px;stroke-linecap:round;stroke-linejoin:round;stroke-miterlimit:4;stroke-dasharray:none;stroke-opacity:1;"
     d="  M 149.12315,13.714286   L 149.12315,17.891626   L 156.13793,17.891626   L 149.12315,13.714286  z "
     id="path168" />
  <path
     style="fill:#000000;fill-rule:evenodd;fill-opacity:1;stroke:none;"
     d="  M 149.12315,13.714286   L 152.47291,13.714286   L 156.13793,17.891626  z "
     id="path169" />
  <path
     style="fill:none;stroke:#000000;stroke-width:1.3004926px;stroke-linecap:round;stroke-linejoin:round;stroke-miterlimit:4;stroke-dasharray:none;stroke-opacity:1;"
     d="  M 149.12315,13.714286   L 152.47291,13.714286   L 156.13793,17.891626   L 149.12315,13.714286  z "
     id="path170" />
  <path
     style="fill:#000000;fill-rule:evenodd;fill-opacity:1;stroke:none;"
     d="  M 149.12315,17.891626   L 149.12315,21.793103   L 160.15764,21.793103  z "
     id="path171" />
  <path
     style="fill:none;stroke:#000000;stroke-width:1.3004926px;stroke-linecap:round;stroke-linejoin:round;stroke-miterlimit:4;stroke-dasharray:none;stroke-opacity:1;"
     d="  M 149.12315,17.891626   L 149.12315,21.793103   L 160.15764,21.793103   L 149.12315,17.891626  z "
     id="path172" />
  <path
     style="fill:#000000;fill-rule:evenodd;fill-opacity:1;stroke:none;"
     d="  M 149.12315,17.891626   L 156.13793,17.891626   L 160.15764,21.793103  z "
     id="path173" />
  <path
     style="fill:none;stroke:#000000;stroke-width:1.3004926px;stroke-linecap:round;stroke-linejoin:round;stroke-miterlimit:4;stroke-dasharray:none;stroke-opacity:1;"
     d="  M 149.12315,17.891626   L 156.13793,17.891626   L 160.15764,21.793103   L 149.12315,17.891626  z "
     id="path174" />
  <path
     style="fill:#000000;fill-rule:evenodd;fill-opacity:1;stroke:none;"
     d="  M 149.12315,21.793103   L 160.15764,21.793103   L 160.15764,21.793103  z "
     id="path175" />
  <path
     style="fill:none;stroke:#000000;stroke-width:1.3004926px;stroke-linecap:round;stroke-linejoin:round;stroke-miterlimit:4;stroke-dasharray:none;stroke-opacity:1;"
     d="  M 149.12315,21.793103   L 160.15764,21.793103   L 160.15764,21.793103   L 149.12315,21.793103  z "
     id="path176" />
  <path
     style="fill:none;stroke:#000000;stroke-width:1.3004926px;stroke-linecap:round;stroke-linejoin:round;stroke-miterlimit:4;stroke-dasharray:none;stroke-opacity:1;"
     d="  M 149.12315,9.2216749   L 152.47291,13.714286   L 156.13793,17.891626   L 160.15764,21.793103  "
     id="path177" />
</svg>
