<?xml version="1.0" encoding="UTF-8" standalone="no"?>
<svg
   version="1.0"
   width="80.199997mm"
   height="71.32mm"
   id="svg323"
   sodipodi:docname="image410.emf"
   xmlns:inkscape="http://www.inkscape.org/namespaces/inkscape"
   xmlns:sodipodi="http://sodipodi.sourceforge.net/DTD/sodipodi-0.dtd"
   xmlns="http://www.w3.org/2000/svg"
   xmlns:svg="http://www.w3.org/2000/svg">
  <sodipodi:namedview
     id="namedview323"
     pagecolor="#ffffff"
     bordercolor="#000000"
     borderopacity="0.25"
     inkscape:showpageshadow="2"
     inkscape:pageopacity="0.0"
     inkscape:pagecheckerboard="0"
     inkscape:deskcolor="#d1d1d1"
     inkscape:document-units="mm" />
  <defs
     id="defs1">
    <pattern
       id="EMFhbasepattern"
       patternUnits="userSpaceOnUse"
       width="6"
       height="6"
       x="0"
       y="0" />
  </defs>
  <path
     style="fill:#000000;fill-rule:evenodd;fill-opacity:1;stroke:none;"
     d="  M 243.43023,50.849605   L 243.43023,49.046643   L 188.0281,50.849605   z "
     id="path1" />
  <path
     style="fill:#000000;fill-rule:evenodd;fill-opacity:1;stroke:none;"
     d="  M 243.43023,49.046643   L 188.0281,50.849605   L 188.0281,49.046643   z "
     id="path2" />
  <path
     style="fill:#000000;fill-rule:evenodd;fill-opacity:1;stroke:none;"
     d="  M 105.4453,50.849605   L 105.4453,49.046643   L 57.208613,50.849605   z "
     id="path3" />
  <path
     style="fill:#000000;fill-rule:evenodd;fill-opacity:1;stroke:none;"
     d="  M 105.4453,49.046643   L 57.208613,50.849605   L 57.208613,49.046643   z "
     id="path4" />
  <path
     style="fill:#000000;fill-rule:evenodd;fill-opacity:1;stroke:none;"
     d="  M 243.43023,101.65308   L 243.43023,99.850116   L 57.208613,101.65308   z "
     id="path5" />
  <path
     style="fill:#000000;fill-rule:evenodd;fill-opacity:1;stroke:none;"
     d="  M 243.43023,99.850116   L 57.208613,101.65308   L 57.208613,99.850116   z "
     id="path6" />
  <path
     style="fill:#000000;fill-rule:evenodd;fill-opacity:1;stroke:none;"
     d="  M 143.39416,65.914358   L 144.75519,67.156398   L 203.63997,0.40672405   z "
     id="path7" />
  <path
     style="fill:#000000;fill-rule:evenodd;fill-opacity:1;stroke:none;"
     d="  M 144.75519,67.156398   L 203.63997,0.40672405   L 204.96098,1.608699   z "
     id="path8" />
  <path
     style="fill:#000000;fill-rule:evenodd;fill-opacity:1;stroke:none;"
     d="  M 167.33236,71.162981   L 168.65337,72.364956   L 219.17179,14.710226   z "
     id="path9" />
  <path
     style="fill:#000000;fill-rule:evenodd;fill-opacity:1;stroke:none;"
     d="  M 168.65337,72.364956   L 219.17179,14.710226   L 220.53282,15.952266   z "
     id="path10" />
  <path
     style="fill:#000000;fill-rule:evenodd;fill-opacity:1;stroke:none;"
     d="  M 143.194,71.002718   L 144.6351,69.880875   L 144.91531,72.765615   z "
     id="path11" />
  <path
     style="fill:#000000;fill-rule:evenodd;fill-opacity:1;stroke:none;"
     d="  M 144.6351,69.880875   L 144.91531,72.765615   L 146.15626,71.483508   z "
     id="path12" />
  <path
     style="fill:#000000;fill-rule:evenodd;fill-opacity:1;stroke:none;"
     d="  M 145.75595,73.647063   L 146.91684,72.244759   L 148.27787,75.289762   z "
     id="path13" />
  <path
     style="fill:#000000;fill-rule:evenodd;fill-opacity:1;stroke:none;"
     d="  M 146.91684,72.244759   L 148.27787,75.289762   L 149.15854,73.727195   z "
     id="path14" />
  <path
     style="fill:#000000;fill-rule:evenodd;fill-opacity:1;stroke:none;"
     d="  M 149.35869,75.850684   L 150.11927,74.207984   L 152.16082,76.932461   z "
     id="path15" />
  <path
     style="fill:#000000;fill-rule:evenodd;fill-opacity:1;stroke:none;"
     d="  M 150.11927,74.207984   L 152.16082,76.932461   L 152.64119,75.169564   z "
     id="path16" />
  <path
     style="fill:#000000;fill-rule:evenodd;fill-opacity:1;stroke:none;"
     d="  M 153.36174,77.13279   L 153.72201,75.369894   L 155.80359,77.493383   z "
     id="path17" />
  <path
     style="fill:#000000;fill-rule:evenodd;fill-opacity:1;stroke:none;"
     d="  M 153.72201,75.369894   L 155.80359,77.493383   L 155.88366,75.69042   z "
     id="path18" />
  <path
     style="fill:#000000;fill-rule:evenodd;fill-opacity:1;stroke:none;"
     d="  M 155.80359,77.493383   L 155.88366,75.69042   L 155.88366,75.69042   z "
     id="path19" />
  <path
     style="fill:#000000;fill-rule:evenodd;fill-opacity:1;stroke:none;"
     d="  M 143.39416,65.914358   L 144.75519,67.156398   L 142.51349,67.516991   z "
     id="path20" />
  <path
     style="fill:#000000;fill-rule:evenodd;fill-opacity:1;stroke:none;"
     d="  M 144.75519,67.156398   L 142.51349,67.516991   L 144.27483,67.997781   z "
     id="path21" />
  <path
     style="fill:#000000;fill-rule:evenodd;fill-opacity:1;stroke:none;"
     d="  M 142.51349,67.516991   L 144.27483,67.997781   L 142.43343,69.360019   z "
     id="path22" />
  <path
     style="fill:#000000;fill-rule:evenodd;fill-opacity:1;stroke:none;"
     d="  M 144.27483,67.997781   L 142.43343,69.360019   L 144.2348,68.999426   z "
     id="path23" />
  <path
     style="fill:#000000;fill-rule:evenodd;fill-opacity:1;stroke:none;"
     d="  M 142.43343,69.360019   L 144.2348,68.999426   L 143.194,71.002718   z "
     id="path24" />
  <path
     style="fill:#000000;fill-rule:evenodd;fill-opacity:1;stroke:none;"
     d="  M 144.2348,68.999426   L 143.194,71.002718   L 144.6351,69.880875   z "
     id="path25" />
  <path
     style="fill:#000000;fill-rule:evenodd;fill-opacity:1;stroke:none;"
     d="  M 148.75824,67.156398   L 150.07924,65.914358   L 147.99766,66.355082   z "
     id="path26" />
  <path
     style="fill:#000000;fill-rule:evenodd;fill-opacity:1;stroke:none;"
     d="  M 150.07924,65.914358   L 147.99766,66.355082   L 149.35869,65.153107   z "
     id="path27" />
  <path
     style="fill:#000000;fill-rule:evenodd;fill-opacity:1;stroke:none;"
     d="  M 147.59735,65.914358   L 148.95839,64.672317   L 146.87681,65.113041   z "
     id="path28" />
  <path
     style="fill:#000000;fill-rule:evenodd;fill-opacity:1;stroke:none;"
     d="  M 148.95839,64.672317   L 146.87681,65.113041   L 148.19781,63.911066   z "
     id="path29" />
  <path
     style="fill:#000000;fill-rule:evenodd;fill-opacity:1;stroke:none;"
     d="  M 146.87681,65.113041   L 148.19781,63.911066   L 148.19781,63.911066   z "
     id="path30" />
  <path
     style="fill:#000000;fill-rule:evenodd;fill-opacity:1;stroke:none;"
     d="  M 124.82003,72.364956   L 126.14104,71.162981   L 72.980608,15.952266   z "
     id="path31" />
  <path
     style="fill:#000000;fill-rule:evenodd;fill-opacity:1;stroke:none;"
     d="  M 126.14104,71.162981   L 72.980608,15.952266   L 74.301612,14.710226   z "
     id="path32" />
  <path
     style="fill:none;stroke:#000000;stroke-width:0.96073061px;stroke-linecap:round;stroke-linejoin:round;stroke-miterlimit:4;stroke-dasharray:none;stroke-opacity:1;"
     d="  M 146.75671,152.17609   L 146.75671,42.475846  "
     id="path33" />
  <path
     style="fill:#000000;fill-rule:evenodd;fill-opacity:1;stroke:none;"
     d="  M 134.14712,49.046643   L 134.14712,50.849605   L 159.32627,49.046643   z "
     id="path34" />
  <path
     style="fill:#000000;fill-rule:evenodd;fill-opacity:1;stroke:none;"
     d="  M 134.14712,50.849605   L 159.32627,49.046643   L 159.32627,50.849605   z "
     id="path35" />
  <path
     style="fill:#000000;fill-rule:evenodd;fill-opacity:1;stroke:none;"
     d="  M 158.08533,76.451671   L 156.52414,77.333119   L 156.04378,73.687129   z "
     id="path36" />
  <path
     style="fill:#000000;fill-rule:evenodd;fill-opacity:1;stroke:none;"
     d="  M 156.52414,77.333119   L 156.04378,73.687129   L 154.7628,74.929169   z "
     id="path37" />
  <path
     style="fill:#000000;fill-rule:evenodd;fill-opacity:1;stroke:none;"
     d="  M 156.04378,73.687129   L 154.7628,74.929169   L 153.36174,71.523574   z "
     id="path38" />
  <path
     style="fill:#000000;fill-rule:evenodd;fill-opacity:1;stroke:none;"
     d="  M 154.7628,74.929169   L 153.36174,71.523574   L 152.40101,73.086141   z "
     id="path39" />
  <path
     style="fill:#000000;fill-rule:evenodd;fill-opacity:1;stroke:none;"
     d="  M 153.36174,71.523574   L 152.40101,73.086141   L 150.1593,70.201401   z "
     id="path40" />
  <path
     style="fill:#000000;fill-rule:evenodd;fill-opacity:1;stroke:none;"
     d="  M 152.40101,73.086141   L 150.1593,70.201401   L 149.67894,71.924232   z "
     id="path41" />
  <path
     style="fill:#000000;fill-rule:evenodd;fill-opacity:1;stroke:none;"
     d="  M 150.1593,70.201401   L 149.67894,71.924232   L 146.75671,69.720611   z "
     id="path42" />
  <path
     style="fill:#000000;fill-rule:evenodd;fill-opacity:1;stroke:none;"
     d="  M 149.67894,71.924232   L 146.75671,69.720611   L 146.75671,71.523574   z "
     id="path43" />
  <path
     style="fill:#000000;fill-rule:evenodd;fill-opacity:1;stroke:none;"
     d="  M 146.75671,69.720611   L 146.75671,71.523574   L 143.3141,70.201401   z "
     id="path44" />
  <path
     style="fill:#000000;fill-rule:evenodd;fill-opacity:1;stroke:none;"
     d="  M 146.75671,71.523574   L 143.3141,70.201401   L 143.79446,71.924232   z "
     id="path45" />
  <path
     style="fill:#000000;fill-rule:evenodd;fill-opacity:1;stroke:none;"
     d="  M 143.3141,70.201401   L 143.79446,71.924232   L 140.15169,71.523574   z "
     id="path46" />
  <path
     style="fill:#000000;fill-rule:evenodd;fill-opacity:1;stroke:none;"
     d="  M 143.79446,71.924232   L 140.15169,71.523574   L 141.07239,73.086141   z "
     id="path47" />
  <path
     style="fill:#000000;fill-rule:evenodd;fill-opacity:1;stroke:none;"
     d="  M 140.15169,71.523574   L 141.07239,73.086141   L 137.42962,73.687129   z "
     id="path48" />
  <path
     style="fill:#000000;fill-rule:evenodd;fill-opacity:1;stroke:none;"
     d="  M 141.07239,73.086141   L 137.42962,73.687129   L 138.75063,74.929169   z "
     id="path49" />
  <path
     style="fill:#000000;fill-rule:evenodd;fill-opacity:1;stroke:none;"
     d="  M 137.42962,73.687129   L 138.75063,74.929169   L 135.38807,76.451671   z "
     id="path50" />
  <path
     style="fill:#000000;fill-rule:evenodd;fill-opacity:1;stroke:none;"
     d="  M 138.75063,74.929169   L 135.38807,76.451671   L 136.98929,77.333119   z "
     id="path51" />
  <path
     style="fill:#000000;fill-rule:evenodd;fill-opacity:1;stroke:none;"
     d="  M 137.06935,76.892395   L 135.26798,76.892395   L 137.06935,140.15634   z "
     id="path52" />
  <path
     style="fill:#000000;fill-rule:evenodd;fill-opacity:1;stroke:none;"
     d="  M 135.26798,76.892395   L 137.06935,140.15634   L 135.26798,140.15634   z "
     id="path53" />
  <path
     style="fill:#000000;fill-rule:evenodd;fill-opacity:1;stroke:none;"
     d="  M 158.20542,76.892395   L 156.40405,76.892395   L 158.20542,140.15634   z "
     id="path54" />
  <path
     style="fill:#000000;fill-rule:evenodd;fill-opacity:1;stroke:none;"
     d="  M 156.40405,76.892395   L 158.20542,140.15634   L 156.40405,140.15634   z "
     id="path55" />
  <path
     style="fill:none;stroke:#000000;stroke-width:0.96073061px;stroke-linecap:round;stroke-linejoin:round;stroke-miterlimit:4;stroke-dasharray:none;stroke-opacity:1;"
     d="  M 300.79386,75.329828   L 237.18548,75.329828  "
     id="path56" />
  <path
     style="fill:none;stroke:#000000;stroke-width:0.96073061px;stroke-linecap:round;stroke-linejoin:round;stroke-miterlimit:4;stroke-dasharray:none;stroke-opacity:1;"
     d="  M 222.09401,75.329828   L 207.00253,75.329828  "
     id="path57" />
  <path
     style="fill:none;stroke:#000000;stroke-width:0.96073061px;stroke-linecap:round;stroke-linejoin:round;stroke-miterlimit:4;stroke-dasharray:none;stroke-opacity:1;"
     d="  M 191.91105,75.329828   L 116.45367,75.329828  "
     id="path58" />
  <path
     style="fill:none;stroke:#000000;stroke-width:0.96073061px;stroke-linecap:round;stroke-linejoin:round;stroke-miterlimit:4;stroke-dasharray:none;stroke-opacity:1;"
     d="  M 101.36219,75.329828   L 86.270715,75.329828  "
     id="path59" />
  <path
     style="fill:none;stroke:#000000;stroke-width:0.96073061px;stroke-linecap:round;stroke-linejoin:round;stroke-miterlimit:4;stroke-dasharray:none;stroke-opacity:1;"
     d="  M 71.179238,75.329828   L 7.5308335,75.329828  "
     id="path60" />
  <path
     style="fill:#000000;fill-rule:evenodd;fill-opacity:1;stroke:none;"
     d="  M 124.82003,72.405022   L 126.14104,71.122916   L 128.22262,75.089433   z "
     id="path61" />
  <path
     style="fill:#000000;fill-rule:evenodd;fill-opacity:1;stroke:none;"
     d="  M 126.14104,71.122916   L 128.22262,75.089433   L 129.14332,73.526865   z "
     id="path62" />
  <path
     style="fill:#000000;fill-rule:evenodd;fill-opacity:1;stroke:none;"
     d="  M 128.22262,75.089433   L 129.14332,73.526865   L 132.18563,76.812264   z "
     id="path63" />
  <path
     style="fill:#000000;fill-rule:evenodd;fill-opacity:1;stroke:none;"
     d="  M 129.14332,73.526865   L 132.18563,76.812264   L 132.70603,75.089433   z "
     id="path64" />
  <path
     style="fill:#000000;fill-rule:evenodd;fill-opacity:1;stroke:none;"
     d="  M 132.18563,76.812264   L 132.70603,75.089433   L 136.42886,77.493383   z "
     id="path65" />
  <path
     style="fill:#000000;fill-rule:evenodd;fill-opacity:1;stroke:none;"
     d="  M 132.70603,75.089433   L 136.42886,77.493383   L 136.50892,75.69042   z "
     id="path66" />
  <path
     style="fill:#000000;fill-rule:evenodd;fill-opacity:1;stroke:none;"
     d="  M 150.27939,71.002718   L 148.8383,69.880875   L 151.03997,69.360019   z "
     id="path67" />
  <path
     style="fill:#000000;fill-rule:evenodd;fill-opacity:1;stroke:none;"
     d="  M 148.8383,69.880875   L 151.03997,69.360019   L 149.27863,68.999426   z "
     id="path68" />
  <path
     style="fill:#000000;fill-rule:evenodd;fill-opacity:1;stroke:none;"
     d="  M 151.03997,69.360019   L 149.27863,68.999426   L 151.03997,69.039492   z "
     id="path69" />
  <path
     style="fill:#000000;fill-rule:evenodd;fill-opacity:1;stroke:none;"
     d="  M 149.27863,68.999426   L 151.03997,69.039492   L 149.2386,68.839163   z "
     id="path70" />
  <path
     style="fill:#000000;fill-rule:evenodd;fill-opacity:1;stroke:none;"
     d="  M 150.95991,67.837517   L 149.2386,68.158044   L 150.95991,67.516991   z "
     id="path71" />
  <path
     style="fill:#000000;fill-rule:evenodd;fill-opacity:1;stroke:none;"
     d="  M 149.2386,68.158044   L 150.95991,67.516991   L 149.2386,67.997781   z "
     id="path72" />
  <path
     style="fill:#000000;fill-rule:evenodd;fill-opacity:1;stroke:none;"
     d="  M 150.95991,67.516991   L 149.2386,67.997781   L 150.07924,65.914358   z "
     id="path73" />
  <path
     style="fill:#000000;fill-rule:evenodd;fill-opacity:1;stroke:none;"
     d="  M 149.2386,67.997781   L 150.07924,65.914358   L 148.75824,67.156398   z "
     id="path74" />
  <path
     style="fill:#000000;fill-rule:evenodd;fill-opacity:1;stroke:none;"
     d="  M 150.07924,65.914358   L 148.75824,67.156398   L 148.75824,67.156398   z "
     id="path75" />
  <path
     style="fill:none;stroke:#000000;stroke-width:0.96073061px;stroke-linecap:round;stroke-linejoin:round;stroke-miterlimit:4;stroke-dasharray:none;stroke-opacity:1;"
     d="  M 136.18868,140.15634   L 138.07011,141.47851   L 140.31181,142.15963   L 142.63358,142.15963   L 144.83525,141.47851   L 146.75671,140.15634  "
     id="path76" />
  <path
     style="fill:none;stroke:#000000;stroke-width:0.96073061px;stroke-linecap:round;stroke-linejoin:round;stroke-miterlimit:4;stroke-dasharray:none;stroke-opacity:1;"
     d="  M 146.75671,140.15634   L 148.63814,141.47851   L 150.87985,142.15963   L 153.20162,142.15963   L 155.40329,141.47851   L 157.32475,140.15634  "
     id="path77" />
  <path
     style="fill:none;stroke:#000000;stroke-width:0.96073061px;stroke-linecap:round;stroke-linejoin:round;stroke-miterlimit:4;stroke-dasharray:none;stroke-opacity:1;"
     d="  M 157.32475,140.15634   L 155.40329,138.7941   L 153.20162,138.11298   L 150.87985,138.11298   L 148.63814,138.7941   L 146.75671,140.15634  "
     id="path78" />
  <path
     style="fill:none;stroke:#000000;stroke-width:0.96073061px;stroke-linecap:round;stroke-linejoin:round;stroke-miterlimit:4;stroke-dasharray:none;stroke-opacity:1;"
     d="  M 212.0864,8.1794952   L 211.566,5.8957429   L 210.40512,3.8924513   L 208.72384,2.2898181   L 206.60223,1.3282382   L 204.32049,1.0077115  "
     id="path79" />
  <path
     style="fill:none;stroke:#000000;stroke-width:0.96073061px;stroke-linecap:round;stroke-linejoin:round;stroke-miterlimit:4;stroke-dasharray:none;stroke-opacity:1;"
     d="  M 219.8523,15.351279   L 219.37194,13.067527   L 218.21105,11.064235   L 216.48975,9.4616018   L 214.36813,8.5000219   L 212.0864,8.1794952  "
     id="path80" />
  <path
     style="fill:none;stroke:#000000;stroke-width:0.96073061px;stroke-linecap:round;stroke-linejoin:round;stroke-miterlimit:4;stroke-dasharray:none;stroke-opacity:1;"
     d="  M 212.0864,8.1794952   L 212.56676,10.423182   L 213.72765,12.466539   L 215.44895,14.029107   L 217.57057,15.030752   L 219.8523,15.351279  "
     id="path81" />
  <path
     style="fill:none;stroke:#000000;stroke-width:0.96073061px;stroke-linecap:round;stroke-linejoin:round;stroke-miterlimit:4;stroke-dasharray:none;stroke-opacity:1;"
     d="  M 81.387001,8.1794952   L 79.105266,8.5000219   L 76.983652,9.4616018   L 75.302373,11.064235   L 74.141491,13.067527   L 73.621095,15.351279  "
     id="path82" />
  <path
     style="fill:none;stroke:#000000;stroke-width:0.96073061px;stroke-linecap:round;stroke-linejoin:round;stroke-miterlimit:4;stroke-dasharray:none;stroke-opacity:1;"
     d="  M 81.467062,7.6185736   L 84.109071,7.7387711  "
     id="path83" />
  <path
     style="fill:none;stroke:#000000;stroke-width:0.96073061px;stroke-linecap:round;stroke-linejoin:round;stroke-miterlimit:4;stroke-dasharray:none;stroke-opacity:1;"
     d="  M 89.192937,1.0077115   L 86.871171,1.3282382   L 84.789588,2.2898181   L 83.068279,3.8924513   L 81.907397,5.8957429   L 81.387001,8.1794952  "
     id="path84" />
  <path
     style="fill:none;stroke:#000000;stroke-width:0.96073061px;stroke-linecap:round;stroke-linejoin:round;stroke-miterlimit:4;stroke-dasharray:none;stroke-opacity:1;"
     d="  M 81.387001,8.1794952   L 83.708766,7.8589686   L 85.790349,6.8573228   L 87.511659,5.2947554   L 88.672541,3.2914639   L 89.192937,1.0077115  "
     id="path85" />
  <path
     style="fill:none;stroke:#000000;stroke-width:0.96073061px;stroke-linecap:round;stroke-linejoin:round;stroke-miterlimit:4;stroke-dasharray:none;stroke-opacity:1;"
     d="  M 243.43023,75.329828   L 245.87209,72.164627   L 247.55337,68.558702   L 248.39401,64.632251   L 248.39401,60.665734   L 247.55337,56.739282   L 245.87209,53.133357   L 243.43023,49.968157  "
     id="path86" />
  <path
     style="fill:none;stroke:#000000;stroke-width:0.96073061px;stroke-linecap:round;stroke-linejoin:round;stroke-miterlimit:4;stroke-dasharray:none;stroke-opacity:1;"
     d="  M 243.43023,100.73156   L 245.87209,97.566364   L 247.55337,93.960439   L 248.39401,90.033988   L 248.39401,86.027405   L 247.55337,82.141019   L 245.87209,78.535094   L 243.43023,75.329828  "
     id="path87" />
  <path
     style="fill:none;stroke:#000000;stroke-width:0.96073061px;stroke-linecap:round;stroke-linejoin:round;stroke-miterlimit:4;stroke-dasharray:none;stroke-opacity:1;"
     d="  M 243.43023,75.329828   L 241.02841,78.535094   L 239.34713,82.141019   L 238.46646,86.027405   L 238.46646,90.033988   L 239.34713,93.960439   L 241.02841,97.566364   L 243.43023,100.73156  "
     id="path88" />
  <path
     style="fill:none;stroke:#000000;stroke-width:0.96073061px;stroke-linecap:round;stroke-linejoin:round;stroke-miterlimit:4;stroke-dasharray:none;stroke-opacity:1;"
     d="  M 57.208613,49.968157   L 54.766756,53.133357   L 53.085478,56.739282   L 52.244838,60.665734   L 52.244838,64.632251   L 53.085478,68.558702   L 54.766756,72.164627   L 57.208613,75.329828  "
     id="path89" />
  <path
     style="fill:none;stroke:#000000;stroke-width:0.96073061px;stroke-linecap:round;stroke-linejoin:round;stroke-miterlimit:4;stroke-dasharray:none;stroke-opacity:1;"
     d="  M 57.208613,75.329828   L 54.766756,78.535094   L 53.085478,82.141019   L 52.244838,86.027405   L 52.244838,90.033988   L 53.085478,93.960439   L 54.766756,97.566364   L 57.208613,100.73156  "
     id="path90" />
  <path
     style="fill:none;stroke:#000000;stroke-width:0.96073061px;stroke-linecap:round;stroke-linejoin:round;stroke-miterlimit:4;stroke-dasharray:none;stroke-opacity:1;"
     d="  M 57.208613,100.73156   L 59.61044,97.566364   L 61.291718,93.960439   L 62.172388,90.033988   L 62.172388,86.027405   L 61.291718,82.141019   L 59.61044,78.535094   L 57.208613,75.329828  "
     id="path91" />
  <path
     style="fill:#000000;fill-rule:evenodd;fill-opacity:1;stroke:none;"
     d="  M 236.30481,193.72436   L 236.30481,191.88133   L 50.043164,193.72436   z "
     id="path92" />
  <path
     style="fill:#000000;fill-rule:evenodd;fill-opacity:1;stroke:none;"
     d="  M 236.30481,191.88133   L 50.043164,193.72436   L 50.043164,191.88133   z "
     id="path93" />
  <path
     style="fill:#000000;fill-rule:evenodd;fill-opacity:1;stroke:none;"
     d="  M 236.30481,244.52783   L 236.30481,242.6848   L 50.043164,244.52783   z "
     id="path94" />
  <path
     style="fill:#000000;fill-rule:evenodd;fill-opacity:1;stroke:none;"
     d="  M 236.30481,242.6848   L 50.043164,244.52783   L 50.043164,242.6848   z "
     id="path95" />
  <path
     style="fill:none;stroke:#000000;stroke-width:0.96073061px;stroke-linecap:round;stroke-linejoin:round;stroke-miterlimit:4;stroke-dasharray:none;stroke-opacity:1;"
     d="  M 143.15397,267.44549   L 143.15397,159.34788  "
     id="path96" />
  <path
     style="fill:none;stroke:#000000;stroke-width:0.96073061px;stroke-linecap:round;stroke-linejoin:round;stroke-miterlimit:4;stroke-dasharray:none;stroke-opacity:1;"
     d="  M 293.66844,218.20458   L 230.02004,218.20458  "
     id="path97" />
  <path
     style="fill:none;stroke:#000000;stroke-width:0.96073061px;stroke-linecap:round;stroke-linejoin:round;stroke-miterlimit:4;stroke-dasharray:none;stroke-opacity:1;"
     d="  M 214.92856,218.20458   L 199.83708,218.20458  "
     id="path98" />
  <path
     style="fill:none;stroke:#000000;stroke-width:0.96073061px;stroke-linecap:round;stroke-linejoin:round;stroke-miterlimit:4;stroke-dasharray:none;stroke-opacity:1;"
     d="  M 184.7456,218.20458   L 109.28822,218.20458  "
     id="path99" />
  <path
     style="fill:none;stroke:#000000;stroke-width:0.96073061px;stroke-linecap:round;stroke-linejoin:round;stroke-miterlimit:4;stroke-dasharray:none;stroke-opacity:1;"
     d="  M 94.196742,218.20458   L 79.105266,218.20458  "
     id="path100" />
  <path
     style="fill:none;stroke:#000000;stroke-width:0.96073061px;stroke-linecap:round;stroke-linejoin:round;stroke-miterlimit:4;stroke-dasharray:none;stroke-opacity:1;"
     d="  M 64.013789,218.20458   L 0.4054147,218.20458  "
     id="path101" />
  <path
     style="fill:none;stroke:#000000;stroke-width:0.96073061px;stroke-linecap:round;stroke-linejoin:round;stroke-miterlimit:4;stroke-dasharray:none;stroke-opacity:1;"
     d="  M 236.30481,218.20458   L 238.70664,215.03938   L 240.38792,211.39339   L 241.26859,207.507   L 241.26859,203.50042   L 240.38792,199.61404   L 238.70664,195.96804   L 236.30481,192.80284  "
     id="path102" />
  <path
     style="fill:none;stroke:#000000;stroke-width:0.96073061px;stroke-linecap:round;stroke-linejoin:round;stroke-miterlimit:4;stroke-dasharray:none;stroke-opacity:1;"
     d="  M 236.30481,243.60632   L 238.70664,240.44112   L 240.38792,236.79513   L 241.26859,232.90874   L 241.26859,228.90216   L 240.38792,225.01577   L 238.70664,221.36978   L 236.30481,218.20458  "
     id="path103" />
  <path
     style="fill:none;stroke:#000000;stroke-width:0.96073061px;stroke-linecap:round;stroke-linejoin:round;stroke-miterlimit:4;stroke-dasharray:none;stroke-opacity:1;"
     d="  M 236.30481,218.20458   L 233.86296,221.36978   L 232.18168,225.01577   L 231.34104,228.90216   L 231.34104,232.90874   L 232.18168,236.79513   L 233.86296,240.44112   L 236.30481,243.60632  "
     id="path104" />
  <path
     style="fill:none;stroke:#000000;stroke-width:0.96073061px;stroke-linecap:round;stroke-linejoin:round;stroke-miterlimit:4;stroke-dasharray:none;stroke-opacity:1;"
     d="  M 50.043164,192.80284   L 47.641337,195.96804   L 45.960059,199.61404   L 45.079389,203.50042   L 45.079389,207.507   L 45.960059,211.39339   L 47.641337,215.03938   L 50.043164,218.20458  "
     id="path105" />
  <path
     style="fill:none;stroke:#000000;stroke-width:0.96073061px;stroke-linecap:round;stroke-linejoin:round;stroke-miterlimit:4;stroke-dasharray:none;stroke-opacity:1;"
     d="  M 50.043164,218.20458   L 47.641337,221.36978   L 45.960059,225.01577   L 45.079389,228.90216   L 45.079389,232.90874   L 45.960059,236.79513   L 47.641337,240.44112   L 50.043164,243.60632  "
     id="path106" />
  <path
     style="fill:none;stroke:#000000;stroke-width:0.96073061px;stroke-linecap:round;stroke-linejoin:round;stroke-miterlimit:4;stroke-dasharray:none;stroke-opacity:1;"
     d="  M 50.043164,243.60632   L 52.485021,240.44112   L 54.1663,236.79513   L 55.006939,232.90874   L 55.006939,228.90216   L 54.1663,225.01577   L 52.485021,221.36978   L 50.043164,218.20458  "
     id="path107" />
  <path
     style="fill:none;stroke:#000000;stroke-width:0.96073061px;stroke-linecap:round;stroke-linejoin:round;stroke-miterlimit:4;stroke-dasharray:none;stroke-opacity:1;"
     d="  M 124.3797,214.91918   L 124.57985,216.00096   L 125.14027,217.04267   L 126.06098,218.00425   L 127.30192,218.84563   L 128.78305,219.56682   L 130.54438,220.08767   L 132.42582,220.44827   L 134.42734,220.60853   L 136.42886,220.56846   L 138.35032,220.288   L 140.19172,219.84728   L 141.83297,219.20623   L 143.194,218.44498   L 144.27483,217.52346   L 145.03541,216.52182   L 145.39568,215.44004   L 145.39568,214.35826   L 145.03541,213.31655   L 144.27483,212.3149   L 143.194,211.39339   L 141.83297,210.59207   L 140.19172,209.99109   L 138.35032,209.55036   L 136.42886,209.2699   L 134.42734,209.22983   L 132.42582,209.3901   L 130.54438,209.75069   L 128.78305,210.27155   L 127.30192,210.99273   L 126.06098,211.83411   L 125.14027,212.79569   L 124.57985,213.83741   L 124.3797,214.91918   z "
     id="path108" />
  <path
     style="fill:none;stroke:#000000;stroke-width:0.96073061px;stroke-linecap:round;stroke-linejoin:round;stroke-miterlimit:4;stroke-dasharray:none;stroke-opacity:1;"
     d="  M 147.95763,220.288   L 148.47802,221.57011   L 148.75824,222.97241   L 148.87833,224.37472   L 148.71821,225.81709   L 148.39796,227.17933   L 147.87757,228.46143   L 147.15702,229.54321   L 146.31638,230.46472   L 145.31562,231.14584   L 144.27483,231.5465   L 143.15397,231.70677   L 142.07315,231.5465   L 141.03236,231.14584   L 140.0316,230.46472   L 139.19096,229.54321   L 138.47041,228.46143   L 137.95002,227.17933   L 137.58974,225.81709   L 137.46965,224.37472   L 137.58974,222.97241   L 137.86996,221.57011   L 138.39035,220.288  "
     id="path109" />
  <path
     style="fill:none;stroke:#000000;stroke-width:0.96073061px;stroke-linecap:round;stroke-linejoin:round;stroke-miterlimit:4;stroke-dasharray:none;stroke-opacity:1;"
     d="  M 143.15397,211.39339   L 144.55504,210.59207   L 146.19629,209.99109   L 147.99766,209.5103   L 149.95915,209.2699   L 151.96067,209.22983   L 153.92216,209.3901   L 155.84362,209.75069   L 157.56493,210.27155   L 159.08609,210.99273   L 160.287,211.83411   L 161.2077,212.79569   L 161.76813,213.83741   L 161.96828,214.91918   L 161.76813,216.00096   L 161.2077,217.04267   L 160.287,218.00425   L 159.08609,218.84563   L 157.56493,219.56682   L 155.84362,220.08767   L 153.92216,220.44827   L 151.96067,220.60853   L 149.95915,220.56846   L 147.99766,220.288   L 146.19629,219.84728   L 144.55504,219.24629   L 143.15397,218.44498  "
     id="path110" />
  <path
     style="fill:#000000;fill-rule:evenodd;fill-opacity:1;stroke:none;"
     d="  M 149.15854,222.41149   L 147.3972,222.89228   L 148.07772,219.68702   z "
     id="path111" />
  <path
     style="fill:#000000;fill-rule:evenodd;fill-opacity:1;stroke:none;"
     d="  M 147.3972,222.89228   L 148.07772,219.68702   L 146.43647,220.48833   z "
     id="path112" />
  <path
     style="fill:#000000;fill-rule:evenodd;fill-opacity:1;stroke:none;"
     d="  M 138.27026,219.68702   L 139.91151,220.48833   L 138.23023,219.72708   z "
     id="path113" />
  <path
     style="fill:#000000;fill-rule:evenodd;fill-opacity:1;stroke:none;"
     d="  M 139.91151,220.48833   L 138.23023,219.72708   L 139.87148,220.56846   z "
     id="path114" />
  <path
     style="fill:#000000;fill-rule:evenodd;fill-opacity:1;stroke:none;"
     d="  M 145.67589,231.46637   L 144.59507,229.98393   L 147.51729,229.66341   z "
     id="path115" />
  <path
     style="fill:#000000;fill-rule:evenodd;fill-opacity:1;stroke:none;"
     d="  M 144.59507,229.98393   L 147.51729,229.66341   L 146.11623,228.58163   z "
     id="path116" />
  <path
     style="fill:#000000;fill-rule:evenodd;fill-opacity:1;stroke:none;"
     d="  M 147.51729,229.66341   L 146.11623,228.58163   L 148.79827,227.37966   z "
     id="path117" />
  <path
     style="fill:#000000;fill-rule:evenodd;fill-opacity:1;stroke:none;"
     d="  M 146.11623,228.58163   L 148.79827,227.37966   L 147.11699,226.7386   z "
     id="path118" />
  <path
     style="fill:#000000;fill-rule:evenodd;fill-opacity:1;stroke:none;"
     d="  M 148.79827,227.37966   L 147.11699,226.7386   L 149.35869,224.85551   z "
     id="path119" />
  <path
     style="fill:#000000;fill-rule:evenodd;fill-opacity:1;stroke:none;"
     d="  M 147.11699,226.7386   L 149.35869,224.85551   L 147.55732,224.73531   z "
     id="path120" />
  <path
     style="fill:#000000;fill-rule:evenodd;fill-opacity:1;stroke:none;"
     d="  M 149.35869,224.85551   L 147.55732,224.73531   L 149.11851,222.25123   z "
     id="path121" />
  <path
     style="fill:#000000;fill-rule:evenodd;fill-opacity:1;stroke:none;"
     d="  M 147.55732,224.73531   L 149.11851,222.25123   L 147.35717,222.65189   z "
     id="path122" />
  <path
     style="fill:#000000;fill-rule:evenodd;fill-opacity:1;stroke:none;"
     d="  M 149.11851,222.25123   L 147.35717,222.65189   L 148.15778,219.80721   z "
     id="path123" />
  <path
     style="fill:#000000;fill-rule:evenodd;fill-opacity:1;stroke:none;"
     d="  M 147.35717,222.65189   L 148.15778,219.80721   L 146.59659,220.72873   z "
     id="path124" />
  <path
     style="fill:#000000;fill-rule:evenodd;fill-opacity:1;stroke:none;"
     d="  M 140.79218,231.5465   L 141.63282,229.94387   L 143.15397,232.14749   z "
     id="path125" />
  <path
     style="fill:#000000;fill-rule:evenodd;fill-opacity:1;stroke:none;"
     d="  M 141.63282,229.94387   L 143.15397,232.14749   L 143.15397,230.30446   z "
     id="path126" />
  <path
     style="fill:#000000;fill-rule:evenodd;fill-opacity:1;stroke:none;"
     d="  M 143.15397,232.14749   L 143.15397,230.30446   L 145.5558,231.5465   z "
     id="path127" />
  <path
     style="fill:#000000;fill-rule:evenodd;fill-opacity:1;stroke:none;"
     d="  M 143.15397,230.30446   L 145.5558,231.5465   L 144.71516,229.94387   z "
     id="path128" />
  <path
     style="fill:#000000;fill-rule:evenodd;fill-opacity:1;stroke:none;"
     d="  M 138.23023,219.72708   L 139.87148,220.56846   L 137.30953,222.81215   z "
     id="path129" />
  <path
     style="fill:#000000;fill-rule:evenodd;fill-opacity:1;stroke:none;"
     d="  M 139.87148,220.56846   L 137.30953,222.81215   L 139.1109,223.05255   z "
     id="path130" />
  <path
     style="fill:#000000;fill-rule:evenodd;fill-opacity:1;stroke:none;"
     d="  M 137.30953,222.81215   L 139.1109,223.05255   L 137.42962,226.01742   z "
     id="path131" />
  <path
     style="fill:#000000;fill-rule:evenodd;fill-opacity:1;stroke:none;"
     d="  M 139.1109,223.05255   L 137.42962,226.01742   L 139.19096,225.65683   z "
     id="path132" />
  <path
     style="fill:#000000;fill-rule:evenodd;fill-opacity:1;stroke:none;"
     d="  M 137.42962,226.01742   L 139.19096,225.65683   L 138.5905,228.98229   z "
     id="path133" />
  <path
     style="fill:#000000;fill-rule:evenodd;fill-opacity:1;stroke:none;"
     d="  M 139.19096,225.65683   L 138.5905,228.98229   L 140.11166,228.06077   z "
     id="path134" />
  <path
     style="fill:#000000;fill-rule:evenodd;fill-opacity:1;stroke:none;"
     d="  M 138.5905,228.98229   L 140.11166,228.06077   L 140.63206,231.4263   z "
     id="path135" />
  <path
     style="fill:#000000;fill-rule:evenodd;fill-opacity:1;stroke:none;"
     d="  M 140.11166,228.06077   L 140.63206,231.4263   L 141.79294,230.06407   z "
     id="path136" />
  <path
     style="fill:#000000;fill-rule:evenodd;fill-opacity:1;stroke:none;"
     d="  M 145.5558,212.27484   L 144.35489,213.63708   L 142.3934,210.11128   z "
     id="path137" />
  <path
     style="fill:#000000;fill-rule:evenodd;fill-opacity:1;stroke:none;"
     d="  M 144.35489,213.63708   L 142.3934,210.11128   L 141.55276,211.71392   z "
     id="path138" />
  <path
     style="fill:#000000;fill-rule:evenodd;fill-opacity:1;stroke:none;"
     d="  M 142.3934,210.11128   L 141.55276,211.71392   L 138.83069,208.74904   z "
     id="path139" />
  <path
     style="fill:#000000;fill-rule:evenodd;fill-opacity:1;stroke:none;"
     d="  M 141.55276,211.71392   L 138.83069,208.74904   L 138.39035,210.51194   z "
     id="path140" />
  <path
     style="fill:#000000;fill-rule:evenodd;fill-opacity:1;stroke:none;"
     d="  M 138.83069,208.74904   L 138.39035,210.51194   L 135.02779,208.22819   z "
     id="path141" />
  <path
     style="fill:#000000;fill-rule:evenodd;fill-opacity:1;stroke:none;"
     d="  M 138.39035,210.51194   L 135.02779,208.22819   L 135.02779,210.07122   z "
     id="path142" />
  <path
     style="fill:#000000;fill-rule:evenodd;fill-opacity:1;stroke:none;"
     d="  M 135.02779,208.22819   L 135.02779,210.07122   L 131.2249,208.62885   z "
     id="path143" />
  <path
     style="fill:#000000;fill-rule:evenodd;fill-opacity:1;stroke:none;"
     d="  M 135.02779,210.07122   L 131.2249,208.62885   L 131.62521,210.43181   z "
     id="path144" />
  <path
     style="fill:#000000;fill-rule:evenodd;fill-opacity:1;stroke:none;"
     d="  M 145.75595,217.28307   L 144.15474,216.44168   L 146.35641,214.91918   z "
     id="path145" />
  <path
     style="fill:#000000;fill-rule:evenodd;fill-opacity:1;stroke:none;"
     d="  M 144.15474,216.44168   L 146.35641,214.91918   L 144.55504,214.91918   z "
     id="path146" />
  <path
     style="fill:#000000;fill-rule:evenodd;fill-opacity:1;stroke:none;"
     d="  M 146.35641,214.91918   L 144.55504,214.91918   L 145.75595,212.51523   z "
     id="path147" />
  <path
     style="fill:#000000;fill-rule:evenodd;fill-opacity:1;stroke:none;"
     d="  M 144.55504,214.91918   L 145.75595,212.51523   L 144.15474,213.35662   z "
     id="path148" />
  <path
     style="fill:#000000;fill-rule:evenodd;fill-opacity:1;stroke:none;"
     d="  M 137.70983,221.32972   L 137.38959,219.52675   L 141.873,219.96748   z "
     id="path149" />
  <path
     style="fill:#000000;fill-rule:evenodd;fill-opacity:1;stroke:none;"
     d="  M 137.38959,219.52675   L 141.873,219.96748   L 141.11242,218.36484   z "
     id="path150" />
  <path
     style="fill:#000000;fill-rule:evenodd;fill-opacity:1;stroke:none;"
     d="  M 141.873,219.96748   L 141.11242,218.36484   L 145.5558,217.56353   z "
     id="path151" />
  <path
     style="fill:#000000;fill-rule:evenodd;fill-opacity:1;stroke:none;"
     d="  M 141.11242,218.36484   L 145.5558,217.56353   L 144.35489,216.20129   z "
     id="path152" />
  <path
     style="fill:#000000;fill-rule:evenodd;fill-opacity:1;stroke:none;"
     d="  M 131.2249,221.16945   L 131.62521,219.40656   L 134.46737,221.57011   z "
     id="path153" />
  <path
     style="fill:#000000;fill-rule:evenodd;fill-opacity:1;stroke:none;"
     d="  M 131.62521,219.40656   L 134.46737,221.57011   L 134.5074,219.76715   z "
     id="path154" />
  <path
     style="fill:#000000;fill-rule:evenodd;fill-opacity:1;stroke:none;"
     d="  M 134.46737,221.57011   L 134.5074,219.76715   L 137.70983,221.32972   z "
     id="path155" />
  <path
     style="fill:#000000;fill-rule:evenodd;fill-opacity:1;stroke:none;"
     d="  M 134.5074,219.76715   L 137.70983,221.32972   L 137.38959,219.52675   z "
     id="path156" />
  <path
     style="fill:#000000;fill-rule:evenodd;fill-opacity:1;stroke:none;"
     d="  M 138.43038,208.62885   L 138.03008,210.43181   L 134.62749,208.22819   z "
     id="path157" />
  <path
     style="fill:#000000;fill-rule:evenodd;fill-opacity:1;stroke:none;"
     d="  M 138.03008,210.43181   L 134.62749,208.22819   L 134.66752,210.07122   z "
     id="path158" />
  <path
     style="fill:#000000;fill-rule:evenodd;fill-opacity:1;stroke:none;"
     d="  M 134.62749,208.22819   L 134.66752,210.07122   L 130.8246,208.74904   z "
     id="path159" />
  <path
     style="fill:#000000;fill-rule:evenodd;fill-opacity:1;stroke:none;"
     d="  M 134.66752,210.07122   L 130.8246,208.74904   L 131.26493,210.51194   z "
     id="path160" />
  <path
     style="fill:#000000;fill-rule:evenodd;fill-opacity:1;stroke:none;"
     d="  M 130.8246,208.74904   L 131.26493,210.51194   L 127.26189,210.11128   z "
     id="path161" />
  <path
     style="fill:#000000;fill-rule:evenodd;fill-opacity:1;stroke:none;"
     d="  M 131.26493,210.51194   L 127.26189,210.11128   L 128.10253,211.71392   z "
     id="path162" />
  <path
     style="fill:#000000;fill-rule:evenodd;fill-opacity:1;stroke:none;"
     d="  M 127.26189,210.11128   L 128.10253,211.71392   L 124.09948,212.27484   z "
     id="path163" />
  <path
     style="fill:#000000;fill-rule:evenodd;fill-opacity:1;stroke:none;"
     d="  M 128.10253,211.71392   L 124.09948,212.27484   L 125.3004,213.63708   z "
     id="path164" />
  <path
     style="fill:#000000;fill-rule:evenodd;fill-opacity:1;stroke:none;"
     d="  M 123.89933,212.51523   L 125.50055,213.35662   L 123.29887,214.91918   z "
     id="path165" />
  <path
     style="fill:#000000;fill-rule:evenodd;fill-opacity:1;stroke:none;"
     d="  M 125.50055,213.35662   L 123.29887,214.91918   L 125.14027,214.91918   z "
     id="path166" />
  <path
     style="fill:#000000;fill-rule:evenodd;fill-opacity:1;stroke:none;"
     d="  M 123.29887,214.91918   L 125.14027,214.91918   L 123.89933,217.28307   z "
     id="path167" />
  <path
     style="fill:#000000;fill-rule:evenodd;fill-opacity:1;stroke:none;"
     d="  M 125.14027,214.91918   L 123.89933,217.28307   L 125.50055,216.44168   z "
     id="path168" />
  <path
     style="fill:#000000;fill-rule:evenodd;fill-opacity:1;stroke:none;"
     d="  M 124.09948,217.56353   L 125.3004,216.20129   L 127.78228,219.96748   z "
     id="path169" />
  <path
     style="fill:#000000;fill-rule:evenodd;fill-opacity:1;stroke:none;"
     d="  M 125.3004,216.20129   L 127.78228,219.96748   L 128.58289,218.36484   z "
     id="path170" />
  <path
     style="fill:#000000;fill-rule:evenodd;fill-opacity:1;stroke:none;"
     d="  M 127.78228,219.96748   L 128.58289,218.36484   L 131.98548,221.32972   z "
     id="path171" />
  <path
     style="fill:#000000;fill-rule:evenodd;fill-opacity:1;stroke:none;"
     d="  M 128.58289,218.36484   L 131.98548,221.32972   L 132.30572,219.52675   z "
     id="path172" />
  <path
     style="fill:#000000;fill-rule:evenodd;fill-opacity:1;stroke:none;"
     d="  M 131.98548,221.32972   L 132.30572,219.52675   L 135.22795,221.57011   z "
     id="path173" />
  <path
     style="fill:#000000;fill-rule:evenodd;fill-opacity:1;stroke:none;"
     d="  M 132.30572,219.52675   L 135.22795,221.57011   L 135.14789,219.76715   z "
     id="path174" />
  <path
     style="fill:#000000;fill-rule:evenodd;fill-opacity:1;stroke:none;"
     d="  M 135.22795,221.57011   L 135.14789,219.76715   L 138.43038,221.16945   z "
     id="path175" />
  <path
     style="fill:#000000;fill-rule:evenodd;fill-opacity:1;stroke:none;"
     d="  M 135.14789,219.76715   L 138.43038,221.16945   L 138.03008,219.40656   z "
     id="path176" />
  <path
     style="fill:#000000;fill-rule:evenodd;fill-opacity:1;stroke:none;"
     d="  M 155.12308,208.62885   L 154.72277,210.43181   L 151.92064,208.26825   z "
     id="path177" />
  <path
     style="fill:#000000;fill-rule:evenodd;fill-opacity:1;stroke:none;"
     d="  M 154.72277,210.43181   L 151.92064,208.26825   L 151.84058,210.07122   z "
     id="path178" />
  <path
     style="fill:#000000;fill-rule:evenodd;fill-opacity:1;stroke:none;"
     d="  M 151.92064,208.26825   L 151.84058,210.07122   L 148.67818,208.50865   z "
     id="path179" />
  <path
     style="fill:#000000;fill-rule:evenodd;fill-opacity:1;stroke:none;"
     d="  M 151.84058,210.07122   L 148.67818,208.50865   L 148.99842,210.27155   z "
     id="path180" />
  <path
     style="fill:#000000;fill-rule:evenodd;fill-opacity:1;stroke:none;"
     d="  M 148.67818,208.50865   L 148.99842,210.27155   L 145.5558,209.3901   z "
     id="path181" />
  <path
     style="fill:#000000;fill-rule:evenodd;fill-opacity:1;stroke:none;"
     d="  M 148.99842,210.27155   L 145.5558,209.3901   L 146.23632,211.07286   z "
     id="path182" />
  <path
     style="fill:#000000;fill-rule:evenodd;fill-opacity:1;stroke:none;"
     d="  M 145.5558,209.3901   L 146.23632,211.07286   L 142.67361,210.83247   z "
     id="path183" />
  <path
     style="fill:#000000;fill-rule:evenodd;fill-opacity:1;stroke:none;"
     d="  M 146.23632,211.07286   L 142.67361,210.83247   L 143.67437,212.35497   z "
     id="path184" />
  <path
     style="fill:#000000;fill-rule:evenodd;fill-opacity:1;stroke:none;"
     d="  M 142.67361,219.0059   L 143.67437,217.44333   L 145.5558,220.44827   z "
     id="path185" />
  <path
     style="fill:#000000;fill-rule:evenodd;fill-opacity:1;stroke:none;"
     d="  M 143.67437,217.44333   L 145.5558,220.44827   L 146.19629,218.7655   z "
     id="path186" />
  <path
     style="fill:#000000;fill-rule:evenodd;fill-opacity:1;stroke:none;"
     d="  M 145.5558,220.44827   L 146.19629,218.7655   L 148.63814,221.32972   z "
     id="path187" />
  <path
     style="fill:#000000;fill-rule:evenodd;fill-opacity:1;stroke:none;"
     d="  M 146.19629,218.7655   L 148.63814,221.32972   L 148.95839,219.52675   z "
     id="path188" />
  <path
     style="fill:#000000;fill-rule:evenodd;fill-opacity:1;stroke:none;"
     d="  M 148.63814,221.32972   L 148.95839,219.52675   L 151.88061,221.57011   z "
     id="path189" />
  <path
     style="fill:#000000;fill-rule:evenodd;fill-opacity:1;stroke:none;"
     d="  M 148.95839,219.52675   L 151.88061,221.57011   L 151.84058,219.76715   z "
     id="path190" />
  <path
     style="fill:#000000;fill-rule:evenodd;fill-opacity:1;stroke:none;"
     d="  M 151.88061,221.57011   L 151.84058,219.76715   L 155.12308,221.16945   z "
     id="path191" />
  <path
     style="fill:#000000;fill-rule:evenodd;fill-opacity:1;stroke:none;"
     d="  M 151.84058,219.76715   L 155.12308,221.16945   L 154.72277,219.40656   z "
     id="path192" />
  <path
     style="fill:#000000;fill-rule:evenodd;fill-opacity:1;stroke:none;"
     d="  M 162.2485,212.27484   L 161.04758,213.63708   L 159.08609,210.11128   z "
     id="path193" />
  <path
     style="fill:#000000;fill-rule:evenodd;fill-opacity:1;stroke:none;"
     d="  M 161.04758,213.63708   L 159.08609,210.11128   L 158.24545,211.71392   z "
     id="path194" />
  <path
     style="fill:#000000;fill-rule:evenodd;fill-opacity:1;stroke:none;"
     d="  M 159.08609,210.11128   L 158.24545,211.71392   L 155.52338,208.74904   z "
     id="path195" />
  <path
     style="fill:#000000;fill-rule:evenodd;fill-opacity:1;stroke:none;"
     d="  M 158.24545,211.71392   L 155.52338,208.74904   L 155.08305,210.51194   z "
     id="path196" />
  <path
     style="fill:#000000;fill-rule:evenodd;fill-opacity:1;stroke:none;"
     d="  M 155.52338,208.74904   L 155.08305,210.51194   L 151.72049,208.22819   z "
     id="path197" />
  <path
     style="fill:#000000;fill-rule:evenodd;fill-opacity:1;stroke:none;"
     d="  M 155.08305,210.51194   L 151.72049,208.22819   L 151.68046,210.07122   z "
     id="path198" />
  <path
     style="fill:#000000;fill-rule:evenodd;fill-opacity:1;stroke:none;"
     d="  M 151.72049,208.22819   L 151.68046,210.07122   L 147.9176,208.62885   z "
     id="path199" />
  <path
     style="fill:#000000;fill-rule:evenodd;fill-opacity:1;stroke:none;"
     d="  M 151.68046,210.07122   L 147.9176,208.62885   L 148.3179,210.43181   z "
     id="path200" />
  <path
     style="fill:#000000;fill-rule:evenodd;fill-opacity:1;stroke:none;"
     d="  M 162.44865,217.28307   L 160.84743,216.44168   L 163.0491,214.91918   z "
     id="path201" />
  <path
     style="fill:#000000;fill-rule:evenodd;fill-opacity:1;stroke:none;"
     d="  M 160.84743,216.44168   L 163.0491,214.91918   L 161.2077,214.91918   z "
     id="path202" />
  <path
     style="fill:#000000;fill-rule:evenodd;fill-opacity:1;stroke:none;"
     d="  M 163.0491,214.91918   L 161.2077,214.91918   L 162.44865,212.51523   z "
     id="path203" />
  <path
     style="fill:#000000;fill-rule:evenodd;fill-opacity:1;stroke:none;"
     d="  M 161.2077,214.91918   L 162.44865,212.51523   L 160.84743,213.35662   z "
     id="path204" />
  <path
     style="fill:#000000;fill-rule:evenodd;fill-opacity:1;stroke:none;"
     d="  M 154.3625,221.32972   L 154.04225,219.52675   L 158.56569,219.96748   z "
     id="path205" />
  <path
     style="fill:#000000;fill-rule:evenodd;fill-opacity:1;stroke:none;"
     d="  M 154.04225,219.52675   L 158.56569,219.96748   L 157.76509,218.36484   z "
     id="path206" />
  <path
     style="fill:#000000;fill-rule:evenodd;fill-opacity:1;stroke:none;"
     d="  M 158.56569,219.96748   L 157.76509,218.36484   L 162.2485,217.56353   z "
     id="path207" />
  <path
     style="fill:#000000;fill-rule:evenodd;fill-opacity:1;stroke:none;"
     d="  M 157.76509,218.36484   L 162.2485,217.56353   L 161.04758,216.20129   z "
     id="path208" />
  <path
     style="fill:#000000;fill-rule:evenodd;fill-opacity:1;stroke:none;"
     d="  M 147.9176,221.16945   L 148.3179,219.40656   L 151.12003,221.57011   z "
     id="path209" />
  <path
     style="fill:#000000;fill-rule:evenodd;fill-opacity:1;stroke:none;"
     d="  M 148.3179,219.40656   L 151.12003,221.57011   L 151.16006,219.76715   z "
     id="path210" />
  <path
     style="fill:#000000;fill-rule:evenodd;fill-opacity:1;stroke:none;"
     d="  M 151.12003,221.57011   L 151.16006,219.76715   L 154.3625,221.32972   z "
     id="path211" />
  <path
     style="fill:#000000;fill-rule:evenodd;fill-opacity:1;stroke:none;"
     d="  M 151.16006,219.76715   L 154.3625,221.32972   L 154.04225,219.52675   z "
     id="path212" />
  <path
     style="fill:none;stroke:#000000;stroke-width:0.96073061px;stroke-linecap:round;stroke-linejoin:round;stroke-miterlimit:4;stroke-dasharray:none;stroke-opacity:1;"
     d="  M 57.408765,41.233806   L 75.502526,41.233806  "
     id="path213" />
  <path
     style="fill:none;stroke:#000000;stroke-width:0.96073061px;stroke-linecap:round;stroke-linejoin:round;stroke-miterlimit:4;stroke-dasharray:none;stroke-opacity:1;"
     d="  M 94.076651,21.922075   L 75.502526,41.233806  "
     id="path214" />
  <path
     style="fill:none;stroke:#000000;stroke-width:0.96073061px;stroke-linecap:round;stroke-linejoin:round;stroke-miterlimit:4;stroke-dasharray:none;stroke-opacity:1;"
     d="  M 64.13388,24.005498   L 69.497959,24.005498   L 66.575737,29.574649   L 68.056863,29.574649   L 69.017594,30.295834   L 69.497959,30.976953   L 69.978325,33.100442   L 69.978325,34.46268   L 69.497959,36.586169   L 68.537229,37.948408   L 67.056102,38.669593   L 65.615006,38.669593   L 64.13388,37.948408   L 63.653515,37.267288   L 63.173149,35.864984  "
     id="path215" />
  <path
     style="fill:none;stroke:#000000;stroke-width:0.96073061px;stroke-linecap:round;stroke-linejoin:round;stroke-miterlimit:4;stroke-dasharray:none;stroke-opacity:1;"
     d="  M 231.82141,37.868276   L 213.68761,37.868276  "
     id="path216" />
  <path
     style="fill:none;stroke:#000000;stroke-width:0.96073061px;stroke-linecap:round;stroke-linejoin:round;stroke-miterlimit:4;stroke-dasharray:none;stroke-opacity:1;"
     d="  M 201.8386,18.837006   L 213.68761,37.868276  "
     id="path217" />
  <path
     style="fill:none;stroke:#000000;stroke-width:0.96073061px;stroke-linecap:round;stroke-linejoin:round;stroke-miterlimit:4;stroke-dasharray:none;stroke-opacity:1;"
     d="  M 225.17635,21.841944   L 220.33267,31.57794   L 227.61821,31.57794  "
     id="path218" />
  <path
     style="fill:none;stroke:#000000;stroke-width:0.96073061px;stroke-linecap:round;stroke-linejoin:round;stroke-miterlimit:4;stroke-dasharray:none;stroke-opacity:1;"
     d="  M 225.17635,21.841944   L 225.17635,36.465972  "
     id="path219" />
  <path
     style="fill:none;stroke:#000000;stroke-width:0.96073061px;stroke-linecap:round;stroke-linejoin:round;stroke-miterlimit:4;stroke-dasharray:none;stroke-opacity:1;"
     d="  M 195.67392,143.08115   L 177.58016,143.08115  "
     id="path220" />
  <path
     style="fill:none;stroke:#000000;stroke-width:0.96073061px;stroke-linecap:round;stroke-linejoin:round;stroke-miterlimit:4;stroke-dasharray:none;stroke-opacity:1;"
     d="  M 152.04073,124.04988   L 177.58016,143.08115  "
     id="path221" />
  <path
     style="fill:none;stroke:#000000;stroke-width:0.96073061px;stroke-linecap:round;stroke-linejoin:round;stroke-miterlimit:4;stroke-dasharray:none;stroke-opacity:1;"
     d="  M 184.90573,130.50048   L 184.90573,129.81936   L 185.38609,128.41705   L 185.90649,127.73593   L 186.86722,127.01475   L 188.82871,127.01475   L 189.78944,127.73593   L 190.26981,128.41705   L 190.75017,129.81936   L 190.75017,131.22166   L 190.26981,132.62397   L 189.30907,134.70739   L 184.42536,141.67884   L 191.27057,141.67884  "
     id="path222" />
  <path
     style="fill:none;stroke:#000000;stroke-width:0.96073061px;stroke-linecap:round;stroke-linejoin:round;stroke-miterlimit:4;stroke-dasharray:none;stroke-opacity:1;"
     d="  M 218.37118,89.753527   L 235.86448,124.13001  "
     id="path223" />
  <path
     style="fill:none;stroke:#000000;stroke-width:0.96073061px;stroke-linecap:round;stroke-linejoin:round;stroke-miterlimit:4;stroke-dasharray:none;stroke-opacity:1;"
     d="  M 235.86448,124.13001   L 253.95824,124.13001  "
     id="path224" />
  <path
     style="fill:none;stroke:#000000;stroke-width:0.96073061px;stroke-linecap:round;stroke-linejoin:round;stroke-miterlimit:4;stroke-dasharray:none;stroke-opacity:1;"
     d="  M 241.86905,108.82486   L 242.86981,108.10368   L 244.3109,106.02025   L 244.3109,120.68435  "
     id="path225" />
  <path
     style="fill:#000000;fill-rule:evenodd;fill-opacity:1;stroke:none;"
     d="  M 136.42886,77.493383   L 136.50892,75.69042   L 139.5112,77.252988   z "
     id="path226" />
  <path
     style="fill:#000000;fill-rule:evenodd;fill-opacity:1;stroke:none;"
     d="  M 136.50892,75.69042   L 139.5112,77.252988   L 139.23099,75.450025   z "
     id="path227" />
  <path
     style="fill:#000000;fill-rule:evenodd;fill-opacity:1;stroke:none;"
     d="  M 140.71212,77.052658   L 140.31181,75.289762   L 143.55428,76.091079   z "
     id="path228" />
  <path
     style="fill:#000000;fill-rule:evenodd;fill-opacity:1;stroke:none;"
     d="  M 140.31181,75.289762   L 143.55428,76.091079   L 142.83373,74.448379   z "
     id="path229" />
  <path
     style="fill:#000000;fill-rule:evenodd;fill-opacity:1;stroke:none;"
     d="  M 144.6351,75.610289   L 143.83449,73.96759   L 147.19705,74.007655   z "
     id="path230" />
  <path
     style="fill:#000000;fill-rule:evenodd;fill-opacity:1;stroke:none;"
     d="  M 143.83449,73.96759   L 147.19705,74.007655   L 146.11623,72.565285   z "
     id="path231" />
  <path
     style="fill:#000000;fill-rule:evenodd;fill-opacity:1;stroke:none;"
     d="  M 148.11775,73.206339   L 146.91684,71.8441   L 150.27939,71.002718   z "
     id="path232" />
  <path
     style="fill:#000000;fill-rule:evenodd;fill-opacity:1;stroke:none;"
     d="  M 146.91684,71.8441   L 150.27939,71.002718   L 148.8383,69.880875   z "
     id="path233" />
  <path
     style="fill:#000000;fill-rule:evenodd;fill-opacity:1;stroke:none;"
     d="  M 150.27939,71.002718   L 148.8383,69.880875   L 148.8383,69.880875   z "
     id="path234" />
  <path
     style="fill:#000000;fill-rule:evenodd;fill-opacity:1;stroke:none;"
     d="  M 155.80359,77.493383   L 155.88366,75.69042   L 159.3663,77.293053   z "
     id="path235" />
  <path
     style="fill:#000000;fill-rule:evenodd;fill-opacity:1;stroke:none;"
     d="  M 155.88366,75.69042   L 159.3663,77.293053   L 159.04606,75.490091   z "
     id="path236" />
  <path
     style="fill:#000000;fill-rule:evenodd;fill-opacity:1;stroke:none;"
     d="  M 159.3663,77.293053   L 159.04606,75.490091   L 162.76889,76.331474   z "
     id="path237" />
  <path
     style="fill:#000000;fill-rule:evenodd;fill-opacity:1;stroke:none;"
     d="  M 159.04606,75.490091   L 162.76889,76.331474   L 162.08837,74.648709   z "
     id="path238" />
  <path
     style="fill:#000000;fill-rule:evenodd;fill-opacity:1;stroke:none;"
     d="  M 162.76889,76.331474   L 162.08837,74.648709   L 165.9313,74.648709   z "
     id="path239" />
  <path
     style="fill:#000000;fill-rule:evenodd;fill-opacity:1;stroke:none;"
     d="  M 162.08837,74.648709   L 165.9313,74.648709   L 164.8905,73.166273   z "
     id="path240" />
  <path
     style="fill:#000000;fill-rule:evenodd;fill-opacity:1;stroke:none;"
     d="  M 165.9313,74.648709   L 164.8905,73.166273   L 168.65337,72.405022   z "
     id="path241" />
  <path
     style="fill:#000000;fill-rule:evenodd;fill-opacity:1;stroke:none;"
     d="  M 164.8905,73.166273   L 168.65337,72.405022   L 167.33236,71.122916   z "
     id="path242" />
  <path
     style="fill:#000000;fill-rule:evenodd;fill-opacity:1;stroke:none;"
     d="  M 146.87681,65.113041   L 148.19781,63.911066   L 88.51242,1.608699   z "
     id="path243" />
  <path
     style="fill:#000000;fill-rule:evenodd;fill-opacity:1;stroke:none;"
     d="  M 148.19781,63.911066   L 88.51242,1.608699   L 89.833424,0.40672405   z "
     id="path244" />
  <path
     style="fill:#000000;fill-rule:evenodd;fill-opacity:1;stroke:none;"
     d="  M 246.75276,55.256846   L 246.75276,54.335332   L 228.73906,55.256846   z "
     id="path245" />
  <path
     style="fill:#000000;fill-rule:evenodd;fill-opacity:1;stroke:none;"
     d="  M 246.75276,54.335332   L 228.73906,55.256846   L 228.73906,54.335332   z "
     id="path246" />
  <path
     style="fill:#000000;fill-rule:evenodd;fill-opacity:1;stroke:none;"
     d="  M 222.73449,55.256846   L 222.73449,54.335332   L 207.64302,55.256846   z "
     id="path247" />
  <path
     style="fill:#000000;fill-rule:evenodd;fill-opacity:1;stroke:none;"
     d="  M 222.73449,54.335332   L 207.64302,55.256846   L 207.64302,54.335332   z "
     id="path248" />
  <path
     style="fill:#000000;fill-rule:evenodd;fill-opacity:1;stroke:none;"
     d="  M 201.59842,55.256846   L 201.59842,54.335332   L 183.58472,55.256846   z "
     id="path249" />
  <path
     style="fill:#000000;fill-rule:evenodd;fill-opacity:1;stroke:none;"
     d="  M 201.59842,54.335332   L 183.58472,55.256846   L 183.58472,54.335332   z "
     id="path250" />
  <path
     style="fill:#000000;fill-rule:evenodd;fill-opacity:1;stroke:none;"
     d="  M 183.58472,55.256846   L 183.58472,54.335332   L 183.58472,54.335332   z "
     id="path251" />
  <path
     style="fill:#000000;fill-rule:evenodd;fill-opacity:1;stroke:none;"
     d="  M 246.75276,96.364389   L 246.75276,95.442875   L 237.82597,96.364389   z "
     id="path252" />
  <path
     style="fill:#000000;fill-rule:evenodd;fill-opacity:1;stroke:none;"
     d="  M 246.75276,95.442875   L 237.82597,96.364389   L 237.82597,95.442875   z "
     id="path253" />
  <path
     style="fill:#000000;fill-rule:evenodd;fill-opacity:1;stroke:none;"
     d="  M 231.82141,96.364389   L 231.82141,95.442875   L 216.72993,96.364389   z "
     id="path254" />
  <path
     style="fill:#000000;fill-rule:evenodd;fill-opacity:1;stroke:none;"
     d="  M 231.82141,95.442875   L 216.72993,96.364389   L 216.72993,95.442875   z "
     id="path255" />
  <path
     style="fill:#000000;fill-rule:evenodd;fill-opacity:1;stroke:none;"
     d="  M 210.68533,96.364389   L 210.68533,95.442875   L 195.59385,96.364389   z "
     id="path256" />
  <path
     style="fill:#000000;fill-rule:evenodd;fill-opacity:1;stroke:none;"
     d="  M 210.68533,95.442875   L 195.59385,96.364389   L 195.59385,95.442875   z "
     id="path257" />
  <path
     style="fill:#000000;fill-rule:evenodd;fill-opacity:1;stroke:none;"
     d="  M 189.54926,96.364389   L 189.54926,95.442875   L 174.45778,96.364389   z "
     id="path258" />
  <path
     style="fill:#000000;fill-rule:evenodd;fill-opacity:1;stroke:none;"
     d="  M 189.54926,95.442875   L 174.45778,96.364389   L 174.45778,95.442875   z "
     id="path259" />
  <path
     style="fill:#000000;fill-rule:evenodd;fill-opacity:1;stroke:none;"
     d="  M 168.41318,96.364389   L 168.41318,95.442875   L 153.32171,96.364389   z "
     id="path260" />
  <path
     style="fill:#000000;fill-rule:evenodd;fill-opacity:1;stroke:none;"
     d="  M 168.41318,95.442875   L 153.32171,96.364389   L 153.32171,95.442875   z "
     id="path261" />
  <path
     style="fill:#000000;fill-rule:evenodd;fill-opacity:1;stroke:none;"
     d="  M 147.27711,96.364389   L 147.27711,95.442875   L 132.18563,96.364389   z "
     id="path262" />
  <path
     style="fill:#000000;fill-rule:evenodd;fill-opacity:1;stroke:none;"
     d="  M 147.27711,95.442875   L 132.18563,96.364389   L 132.18563,95.442875   z "
     id="path263" />
  <path
     style="fill:#000000;fill-rule:evenodd;fill-opacity:1;stroke:none;"
     d="  M 126.18107,96.364389   L 126.18107,95.442875   L 111.08959,96.364389   z "
     id="path264" />
  <path
     style="fill:#000000;fill-rule:evenodd;fill-opacity:1;stroke:none;"
     d="  M 126.18107,95.442875   L 111.08959,96.364389   L 111.08959,95.442875   z "
     id="path265" />
  <path
     style="fill:#000000;fill-rule:evenodd;fill-opacity:1;stroke:none;"
     d="  M 105.04499,96.364389   L 105.04499,95.442875   L 89.953516,96.364389   z "
     id="path266" />
  <path
     style="fill:#000000;fill-rule:evenodd;fill-opacity:1;stroke:none;"
     d="  M 105.04499,95.442875   L 89.953516,96.364389   L 89.953516,95.442875   z "
     id="path267" />
  <path
     style="fill:#000000;fill-rule:evenodd;fill-opacity:1;stroke:none;"
     d="  M 83.908919,96.364389   L 83.908919,95.442875   L 68.817442,96.364389   z "
     id="path268" />
  <path
     style="fill:#000000;fill-rule:evenodd;fill-opacity:1;stroke:none;"
     d="  M 83.908919,95.442875   L 68.817442,96.364389   L 68.817442,95.442875   z "
     id="path269" />
  <path
     style="fill:#000000;fill-rule:evenodd;fill-opacity:1;stroke:none;"
     d="  M 62.772845,96.364389   L 62.772845,95.442875   L 53.886086,96.364389   z "
     id="path270" />
  <path
     style="fill:#000000;fill-rule:evenodd;fill-opacity:1;stroke:none;"
     d="  M 62.772845,95.442875   L 53.886086,96.364389   L 53.886086,95.442875   z "
     id="path271" />
  <path
     style="fill:#000000;fill-rule:evenodd;fill-opacity:1;stroke:none;"
     d="  M 53.886086,96.364389   L 53.886086,95.442875   L 53.886086,95.442875   z "
     id="path272" />
  <path
     style="fill:#000000;fill-rule:evenodd;fill-opacity:1;stroke:none;"
     d="  M 239.58731,198.09153   L 239.58731,197.21009   L 230.70055,198.09153   z "
     id="path273" />
  <path
     style="fill:#000000;fill-rule:evenodd;fill-opacity:1;stroke:none;"
     d="  M 239.58731,197.21009   L 230.70055,198.09153   L 230.70055,197.21009   z "
     id="path274" />
  <path
     style="fill:#000000;fill-rule:evenodd;fill-opacity:1;stroke:none;"
     d="  M 224.65596,198.09153   L 224.65596,197.21009   L 209.56448,198.09153   z "
     id="path275" />
  <path
     style="fill:#000000;fill-rule:evenodd;fill-opacity:1;stroke:none;"
     d="  M 224.65596,197.21009   L 209.56448,198.09153   L 209.56448,197.21009   z "
     id="path276" />
  <path
     style="fill:#000000;fill-rule:evenodd;fill-opacity:1;stroke:none;"
     d="  M 203.51988,198.09153   L 203.51988,197.21009   L 188.42841,198.09153   z "
     id="path277" />
  <path
     style="fill:#000000;fill-rule:evenodd;fill-opacity:1;stroke:none;"
     d="  M 203.51988,197.21009   L 188.42841,198.09153   L 188.42841,197.21009   z "
     id="path278" />
  <path
     style="fill:#000000;fill-rule:evenodd;fill-opacity:1;stroke:none;"
     d="  M 182.42384,198.09153   L 182.42384,197.21009   L 167.33236,198.09153   z "
     id="path279" />
  <path
     style="fill:#000000;fill-rule:evenodd;fill-opacity:1;stroke:none;"
     d="  M 182.42384,197.21009   L 167.33236,198.09153   L 167.33236,197.21009   z "
     id="path280" />
  <path
     style="fill:#000000;fill-rule:evenodd;fill-opacity:1;stroke:none;"
     d="  M 161.28776,198.09153   L 161.28776,197.21009   L 146.19629,198.09153   z "
     id="path281" />
  <path
     style="fill:#000000;fill-rule:evenodd;fill-opacity:1;stroke:none;"
     d="  M 161.28776,197.21009   L 146.19629,198.09153   L 146.19629,197.21009   z "
     id="path282" />
  <path
     style="fill:#000000;fill-rule:evenodd;fill-opacity:1;stroke:none;"
     d="  M 140.15169,198.09153   L 140.15169,197.21009   L 125.06021,198.09153   z "
     id="path283" />
  <path
     style="fill:#000000;fill-rule:evenodd;fill-opacity:1;stroke:none;"
     d="  M 140.15169,197.21009   L 125.06021,198.09153   L 125.06021,197.21009   z "
     id="path284" />
  <path
     style="fill:#000000;fill-rule:evenodd;fill-opacity:1;stroke:none;"
     d="  M 119.01562,198.09153   L 119.01562,197.21009   L 103.92414,198.09153   z "
     id="path285" />
  <path
     style="fill:#000000;fill-rule:evenodd;fill-opacity:1;stroke:none;"
     d="  M 119.01562,197.21009   L 103.92414,198.09153   L 103.92414,197.21009   z "
     id="path286" />
  <path
     style="fill:#000000;fill-rule:evenodd;fill-opacity:1;stroke:none;"
     d="  M 97.919574,198.09153   L 97.919574,197.21009   L 82.828097,198.09153   z "
     id="path287" />
  <path
     style="fill:#000000;fill-rule:evenodd;fill-opacity:1;stroke:none;"
     d="  M 97.919574,197.21009   L 82.828097,198.09153   L 82.828097,197.21009   z "
     id="path288" />
  <path
     style="fill:#000000;fill-rule:evenodd;fill-opacity:1;stroke:none;"
     d="  M 76.7835,198.09153   L 76.7835,197.21009   L 61.692023,198.09153   z "
     id="path289" />
  <path
     style="fill:#000000;fill-rule:evenodd;fill-opacity:1;stroke:none;"
     d="  M 76.7835,197.21009   L 61.692023,198.09153   L 61.692023,197.21009   z "
     id="path290" />
  <path
     style="fill:#000000;fill-rule:evenodd;fill-opacity:1;stroke:none;"
     d="  M 55.647426,198.09153   L 55.647426,197.21009   L 46.760668,198.09153   z "
     id="path291" />
  <path
     style="fill:#000000;fill-rule:evenodd;fill-opacity:1;stroke:none;"
     d="  M 55.647426,197.21009   L 46.760668,198.09153   L 46.760668,197.21009   z "
     id="path292" />
  <path
     style="fill:#000000;fill-rule:evenodd;fill-opacity:1;stroke:none;"
     d="  M 46.760668,198.09153   L 46.760668,197.21009   L 46.760668,197.21009   z "
     id="path293" />
  <path
     style="fill:#000000;fill-rule:evenodd;fill-opacity:1;stroke:none;"
     d="  M 239.58731,239.19908   L 239.58731,238.31763   L 230.70055,239.19908   z "
     id="path294" />
  <path
     style="fill:#000000;fill-rule:evenodd;fill-opacity:1;stroke:none;"
     d="  M 239.58731,238.31763   L 230.70055,239.19908   L 230.70055,238.31763   z "
     id="path295" />
  <path
     style="fill:#000000;fill-rule:evenodd;fill-opacity:1;stroke:none;"
     d="  M 224.65596,239.19908   L 224.65596,238.31763   L 209.56448,239.19908   z "
     id="path296" />
  <path
     style="fill:#000000;fill-rule:evenodd;fill-opacity:1;stroke:none;"
     d="  M 224.65596,238.31763   L 209.56448,239.19908   L 209.56448,238.31763   z "
     id="path297" />
  <path
     style="fill:#000000;fill-rule:evenodd;fill-opacity:1;stroke:none;"
     d="  M 203.51988,239.19908   L 203.51988,238.31763   L 188.42841,239.19908   z "
     id="path298" />
  <path
     style="fill:#000000;fill-rule:evenodd;fill-opacity:1;stroke:none;"
     d="  M 203.51988,238.31763   L 188.42841,239.19908   L 188.42841,238.31763   z "
     id="path299" />
  <path
     style="fill:#000000;fill-rule:evenodd;fill-opacity:1;stroke:none;"
     d="  M 182.42384,239.19908   L 182.42384,238.31763   L 167.33236,239.19908   z "
     id="path300" />
  <path
     style="fill:#000000;fill-rule:evenodd;fill-opacity:1;stroke:none;"
     d="  M 182.42384,238.31763   L 167.33236,239.19908   L 167.33236,238.31763   z "
     id="path301" />
  <path
     style="fill:#000000;fill-rule:evenodd;fill-opacity:1;stroke:none;"
     d="  M 161.28776,239.19908   L 161.28776,238.31763   L 146.19629,239.19908   z "
     id="path302" />
  <path
     style="fill:#000000;fill-rule:evenodd;fill-opacity:1;stroke:none;"
     d="  M 161.28776,238.31763   L 146.19629,239.19908   L 146.19629,238.31763   z "
     id="path303" />
  <path
     style="fill:#000000;fill-rule:evenodd;fill-opacity:1;stroke:none;"
     d="  M 140.15169,239.19908   L 140.15169,238.31763   L 125.06021,239.19908   z "
     id="path304" />
  <path
     style="fill:#000000;fill-rule:evenodd;fill-opacity:1;stroke:none;"
     d="  M 140.15169,238.31763   L 125.06021,239.19908   L 125.06021,238.31763   z "
     id="path305" />
  <path
     style="fill:#000000;fill-rule:evenodd;fill-opacity:1;stroke:none;"
     d="  M 119.01562,239.19908   L 119.01562,238.31763   L 103.92414,239.19908   z "
     id="path306" />
  <path
     style="fill:#000000;fill-rule:evenodd;fill-opacity:1;stroke:none;"
     d="  M 119.01562,238.31763   L 103.92414,239.19908   L 103.92414,238.31763   z "
     id="path307" />
  <path
     style="fill:#000000;fill-rule:evenodd;fill-opacity:1;stroke:none;"
     d="  M 97.919574,239.19908   L 97.919574,238.31763   L 82.828097,239.19908   z "
     id="path308" />
  <path
     style="fill:#000000;fill-rule:evenodd;fill-opacity:1;stroke:none;"
     d="  M 97.919574,238.31763   L 82.828097,239.19908   L 82.828097,238.31763   z "
     id="path309" />
  <path
     style="fill:#000000;fill-rule:evenodd;fill-opacity:1;stroke:none;"
     d="  M 76.7835,239.19908   L 76.7835,238.31763   L 61.692023,239.19908   z "
     id="path310" />
  <path
     style="fill:#000000;fill-rule:evenodd;fill-opacity:1;stroke:none;"
     d="  M 76.7835,238.31763   L 61.692023,239.19908   L 61.692023,238.31763   z "
     id="path311" />
  <path
     style="fill:#000000;fill-rule:evenodd;fill-opacity:1;stroke:none;"
     d="  M 55.647426,239.19908   L 55.647426,238.31763   L 46.760668,239.19908   z "
     id="path312" />
  <path
     style="fill:#000000;fill-rule:evenodd;fill-opacity:1;stroke:none;"
     d="  M 55.647426,238.31763   L 46.760668,239.19908   L 46.760668,238.31763   z "
     id="path313" />
  <path
     style="fill:#000000;fill-rule:evenodd;fill-opacity:1;stroke:none;"
     d="  M 46.760668,239.19908   L 46.760668,238.31763   L 46.760668,238.31763   z "
     id="path314" />
  <path
     style="fill:#000000;fill-rule:evenodd;fill-opacity:1;stroke:none;"
     d="  M 109.88868,55.256846   L 109.88868,54.335332   L 95.477717,55.256846   z "
     id="path315" />
  <path
     style="fill:#000000;fill-rule:evenodd;fill-opacity:1;stroke:none;"
     d="  M 109.88868,54.335332   L 95.477717,55.256846   L 95.477717,54.335332   z "
     id="path316" />
  <path
     style="fill:#000000;fill-rule:evenodd;fill-opacity:1;stroke:none;"
     d="  M 89.43312,55.256846   L 89.43312,54.335332   L 74.341643,55.256846   z "
     id="path317" />
  <path
     style="fill:#000000;fill-rule:evenodd;fill-opacity:1;stroke:none;"
     d="  M 89.43312,54.335332   L 74.341643,55.256846   L 74.341643,54.335332   z "
     id="path318" />
  <path
     style="fill:#000000;fill-rule:evenodd;fill-opacity:1;stroke:none;"
     d="  M 68.297046,55.256846   L 68.297046,54.335332   L 53.886086,55.256846   z "
     id="path319" />
  <path
     style="fill:#000000;fill-rule:evenodd;fill-opacity:1;stroke:none;"
     d="  M 68.297046,54.335332   L 53.886086,55.256846   L 53.886086,54.335332   z "
     id="path320" />
  <path
     style="fill:#000000;fill-rule:evenodd;fill-opacity:1;stroke:none;"
     d="  M 53.886086,55.256846   L 53.886086,54.335332   L 53.886086,54.335332   z "
     id="path321" />
  <path
     style="fill:#000000;fill-rule:evenodd;fill-opacity:1;stroke:none;"
     d="  M 154.88289,55.256846   L 154.88289,54.335332   L 138.5905,55.256846   z "
     id="path322" />
  <path
     style="fill:#000000;fill-rule:evenodd;fill-opacity:1;stroke:none;"
     d="  M 154.88289,54.335332   L 138.5905,55.256846   L 138.5905,54.335332   z "
     id="path323" />
</svg>
