<?xml version="1.0" encoding="UTF-8" standalone="no"?>
<svg
   version="1.0"
   width="30.719999mm"
   height="20.09mm"
   id="svg44"
   sodipodi:docname="image640.emf"
   xmlns:inkscape="http://www.inkscape.org/namespaces/inkscape"
   xmlns:sodipodi="http://sodipodi.sourceforge.net/DTD/sodipodi-0.dtd"
   xmlns="http://www.w3.org/2000/svg"
   xmlns:svg="http://www.w3.org/2000/svg">
  <sodipodi:namedview
     id="namedview44"
     pagecolor="#ffffff"
     bordercolor="#000000"
     borderopacity="0.25"
     inkscape:showpageshadow="2"
     inkscape:pageopacity="0.0"
     inkscape:pagecheckerboard="0"
     inkscape:deskcolor="#d1d1d1"
     inkscape:document-units="mm" />
  <defs
     id="defs1">
    <pattern
       id="EMFhbasepattern"
       patternUnits="userSpaceOnUse"
       width="6"
       height="6"
       x="0"
       y="0" />
  </defs>
  <path
     style="fill:none;stroke:#000000;stroke-width:0.87926507px;stroke-linecap:round;stroke-linejoin:round;stroke-miterlimit:4;stroke-dasharray:none;stroke-opacity:1;"
     d="  M 2.0967091,51.267918   L 78.119322,51.267918  "
     id="path1" />
  <path
     style="fill:none;stroke:#000000;stroke-width:0.87926507px;stroke-linecap:round;stroke-linejoin:round;stroke-miterlimit:4;stroke-dasharray:none;stroke-opacity:1;"
     d="  M 78.119322,51.267918   L 95.43408,35.373511  "
     id="path2" />
  <path
     style="fill:none;stroke:#000000;stroke-width:0.87926507px;stroke-linecap:round;stroke-linejoin:round;stroke-miterlimit:4;stroke-dasharray:none;stroke-opacity:1;"
     d="  M 114.71028,17.585302   L 114.71028,13.730063  "
     id="path3" />
  <path
     style="fill:none;stroke:#000000;stroke-width:0.87926507px;stroke-linecap:round;stroke-linejoin:round;stroke-miterlimit:4;stroke-dasharray:none;stroke-opacity:1;"
     d="  M 2.0967091,47.480315   L 78.119322,47.480315  "
     id="path4" />
  <path
     style="fill:none;stroke:#000000;stroke-width:0.87926507px;stroke-linecap:round;stroke-linejoin:round;stroke-miterlimit:4;stroke-dasharray:none;stroke-opacity:1;"
     d="  M 78.119322,47.480315   L 114.71028,13.730063  "
     id="path5" />
  <path
     style="fill:none;stroke:#000000;stroke-width:0.87926507px;stroke-linecap:round;stroke-linejoin:round;stroke-miterlimit:4;stroke-dasharray:none;stroke-opacity:1;"
     d="  M 2.0967091,51.267918   L 2.0967091,47.480315  "
     id="path6" />
  <path
     style="fill:none;stroke:#000000;stroke-width:0.87926507px;stroke-linecap:round;stroke-linejoin:round;stroke-miterlimit:4;stroke-dasharray:none;stroke-opacity:1;"
     d="  M 2.0967091,47.480315   L 9.1984656,42.001817  "
     id="path7" />
  <path
     style="fill:none;stroke:#000000;stroke-width:0.87926507px;stroke-linecap:round;stroke-linejoin:round;stroke-miterlimit:4;stroke-dasharray:none;stroke-opacity:1;"
     d="  M 9.1984656,42.001817   L 15.759136,36.99677  "
     id="path8" />
  <path
     style="fill:none;stroke:#000000;stroke-width:0.87926507px;stroke-linecap:round;stroke-linejoin:round;stroke-miterlimit:4;stroke-dasharray:none;stroke-opacity:1;"
     d="  M 15.759136,36.99677   L 19.952554,29.962649  "
     id="path9" />
  <path
     style="fill:none;stroke:#000000;stroke-width:0.87926507px;stroke-linecap:round;stroke-linejoin:round;stroke-miterlimit:4;stroke-dasharray:none;stroke-opacity:1;"
     d="  M 19.952554,29.962649   L 27.595397,24.754694  "
     id="path10" />
  <path
     style="fill:none;stroke:#000000;stroke-width:0.87926507px;stroke-linecap:round;stroke-linejoin:round;stroke-miterlimit:4;stroke-dasharray:none;stroke-opacity:1;"
     d="  M 27.595397,24.754694   L 28.542298,20.628912  "
     id="path11" />
  <path
     style="fill:none;stroke:#000000;stroke-width:0.87926507px;stroke-linecap:round;stroke-linejoin:round;stroke-miterlimit:4;stroke-dasharray:none;stroke-opacity:1;"
     d="  M 28.542298,20.628912   L 35.035332,13.730063  "
     id="path12" />
  <path
     style="fill:none;stroke:#000000;stroke-width:0.87926507px;stroke-linecap:round;stroke-linejoin:round;stroke-miterlimit:4;stroke-dasharray:none;stroke-opacity:1;"
     d="  M 114.71028,13.730063   L 73.925903,13.730063  "
     id="path13" />
  <path
     style="fill:none;stroke:#000000;stroke-width:0.87926507px;stroke-linecap:round;stroke-linejoin:round;stroke-miterlimit:4;stroke-dasharray:none;stroke-opacity:1;"
     d="  M 95.43408,69.597214   L 95.43408,35.373511  "
     id="path14" />
  <path
     style="fill:none;stroke:#000000;stroke-width:0.87926507px;stroke-linecap:round;stroke-linejoin:round;stroke-miterlimit:4;stroke-dasharray:none;stroke-opacity:1;"
     d="  M 99.695134,65.674339   L 99.695134,31.450636  "
     id="path15" />
  <path
     style="fill:none;stroke:#000000;stroke-width:0.87926507px;stroke-linecap:round;stroke-linejoin:round;stroke-miterlimit:4;stroke-dasharray:none;stroke-opacity:1;"
     d="  M 95.43408,69.597214   L 99.695134,65.674339  "
     id="path16" />
  <path
     style="fill:none;stroke:#000000;stroke-width:0.87926507px;stroke-linecap:round;stroke-linejoin:round;stroke-miterlimit:4;stroke-dasharray:none;stroke-opacity:1;"
     d="  M 95.43408,69.597214   L 83.259641,68.85322  "
     id="path17" />
  <path
     style="fill:none;stroke:#000000;stroke-width:0.87926507px;stroke-linecap:round;stroke-linejoin:round;stroke-miterlimit:4;stroke-dasharray:none;stroke-opacity:1;"
     d="  M 83.259641,68.85322   L 69.597214,70.341207  "
     id="path18" />
  <path
     style="fill:none;stroke:#000000;stroke-width:0.87926507px;stroke-linecap:round;stroke-linejoin:round;stroke-miterlimit:4;stroke-dasharray:none;stroke-opacity:1;"
     d="  M 69.597214,70.341207   L 59.992934,73.18191  "
     id="path19" />
  <path
     style="fill:none;stroke:#000000;stroke-width:0.87926507px;stroke-linecap:round;stroke-linejoin:round;stroke-miterlimit:4;stroke-dasharray:none;stroke-opacity:1;"
     d="  M 59.992934,73.18191   L 46.60105,71.42338  "
     id="path20" />
  <path
     style="fill:none;stroke:#000000;stroke-width:0.87926507px;stroke-linecap:round;stroke-linejoin:round;stroke-miterlimit:4;stroke-dasharray:none;stroke-opacity:1;"
     d="  M 46.60105,71.42338   L 37.537856,70.882294  "
     id="path21" />
  <path
     style="fill:none;stroke:#000000;stroke-width:0.87926507px;stroke-linecap:round;stroke-linejoin:round;stroke-miterlimit:4;stroke-dasharray:none;stroke-opacity:1;"
     d="  M 37.537856,70.882294   L 28.204119,70.1383  "
     id="path22" />
  <path
     style="fill:none;stroke:#000000;stroke-width:0.87926507px;stroke-linecap:round;stroke-linejoin:round;stroke-miterlimit:4;stroke-dasharray:none;stroke-opacity:1;"
     d="  M 28.204119,70.1383   L 17.382395,70.1383  "
     id="path23" />
  <path
     style="fill:none;stroke:#000000;stroke-width:0.87926507px;stroke-linecap:round;stroke-linejoin:round;stroke-miterlimit:4;stroke-dasharray:none;stroke-opacity:1;"
     d="  M 17.382395,70.1383   L 13.121341,69.326671  "
     id="path24" />
  <path
     style="fill:none;stroke:#000000;stroke-width:0.87926507px;stroke-linecap:round;stroke-linejoin:round;stroke-miterlimit:4;stroke-dasharray:none;stroke-opacity:1;"
     d="  M 13.121341,69.326671   L 12.039168,61.886735  "
     id="path25" />
  <path
     style="fill:none;stroke:#000000;stroke-width:0.87926507px;stroke-linecap:round;stroke-linejoin:round;stroke-miterlimit:4;stroke-dasharray:none;stroke-opacity:1;"
     d="  M 12.039168,61.886735   L 12.850797,56.746416  "
     id="path26" />
  <path
     style="fill:none;stroke:#000000;stroke-width:0.87926507px;stroke-linecap:round;stroke-linejoin:round;stroke-miterlimit:4;stroke-dasharray:none;stroke-opacity:1;"
     d="  M 12.850797,56.746416   L 12.850797,51.267918  "
     id="path27" />
  <path
     style="fill:none;stroke:#000000;stroke-width:0.87926507px;stroke-linecap:round;stroke-linejoin:round;stroke-miterlimit:4;stroke-dasharray:none;stroke-opacity:1;"
     d="  M 99.695134,31.450636   L 114.71028,17.585302  "
     id="path28" />
  <path
     style="fill:none;stroke:#000000;stroke-width:0.87926507px;stroke-linecap:round;stroke-linejoin:round;stroke-miterlimit:4;stroke-dasharray:none;stroke-opacity:1;"
     d="  M 68.515041,13.730063   L 35.035332,13.730063  "
     id="path29" />
  <path
     style="fill:none;stroke:#000000;stroke-width:0.87926507px;stroke-linecap:round;stroke-linejoin:round;stroke-miterlimit:4;stroke-dasharray:none;stroke-opacity:1;"
     d="  M 78.119322,47.480315   L 78.119322,51.267918  "
     id="path30" />
  <path
     style="fill:none;stroke:#000000;stroke-width:0.87926507px;stroke-linecap:round;stroke-linejoin:round;stroke-miterlimit:4;stroke-dasharray:none;stroke-opacity:1;"
     d="  M 55.055522,39.161114   L 55.055522,22.387442  "
     id="path31" />
  <path
     style="fill:none;stroke:#000000;stroke-width:0.87926507px;stroke-linecap:round;stroke-linejoin:round;stroke-miterlimit:4;stroke-dasharray:none;stroke-opacity:1;"
     d="  M 52.755906,17.179487   L 52.823541,17.247123   L 52.823541,17.247123   L 52.823541,17.382395   L 52.823541,17.382395   L 52.891177,17.45003   L 52.891177,17.517666   L 52.891177,17.585302   L 52.958813,17.652938   L 53.026449,17.720573   L 53.026449,17.720573   L 53.16172,17.855845   L 53.16172,17.855845   L 53.229356,17.923481   L 53.296992,17.991116   L 53.364627,17.991116   L 53.432263,18.126388   L 53.499899,18.126388   L 53.635171,18.194024   L 53.702806,18.26166   L 53.770442,18.26166   L 53.905714,18.329295   L 53.973349,18.396931   L 54.108621,18.396931   L 54.176257,18.464567   L 54.311528,18.532203   L 54.4468,18.599838   L 54.582071,18.599838   L 54.649707,18.667474   L 54.784979,18.667474   L 54.92025,18.667474   L 55.055522,18.73511   L 55.190793,18.73511   L 55.326065,18.802746   L 55.461337,18.870382   L 55.596608,18.870382   L 55.73188,18.870382   L 55.867151,18.938017   L 56.070059,18.938017   L 56.20533,18.938017   L 56.340602,18.938017   L 56.475873,19.005653   L 56.678781,19.005653   L 56.814052,19.005653   L 56.949324,19.005653   L 57.152231,19.005653   L 57.287503,19.005653   L 57.422774,19.005653   L 57.625681,19.005653   L 57.760953,19.005653   L 57.896225,19.005653   L 58.099132,19.005653   L 58.234403,19.005653   L 58.369675,19.005653   L 58.572582,19.005653   L 58.707854,19.005653   L 58.843125,19.005653   L 59.046033,19.005653   L 59.181304,18.938017   L 59.316576,18.938017   L 59.451847,18.938017   L 59.654755,18.938017   L 59.790026,18.870382   L 59.857662,18.870382   L 60.060569,18.870382   L 60.195841,18.802746   L 60.331112,18.73511   L 60.466384,18.73511   L 60.601656,18.667474   L 60.736927,18.667474   L 60.804563,18.667474   L 60.939834,18.599838   L 61.075106,18.599838   L 61.210378,18.532203   L 61.278013,18.464567   L 61.413285,18.396931   L 61.548556,18.396931   L 61.616192,18.329295   L 61.751464,18.26166   L 61.8191,18.26166   L 61.886735,18.194024   L 62.022007,18.126388   L 62.089643,18.126388   L 62.157278,17.991116   L 62.224914,17.991116   L 62.29255,17.923481   L 62.360186,17.855845   L 62.360186,17.855845   L 62.495457,17.720573   L 62.495457,17.720573   L 62.563093,17.652938   L 62.630729,17.585302   L 62.630729,17.517666   L 62.630729,17.45003   L 62.698365,17.382395   L 62.698365,17.382395   L 62.698365,17.247123   L 62.698365,17.247123   L 62.698365,17.179487   L 62.698365,17.111851   L 62.698365,17.044216   L 62.698365,16.97658   L 62.698365,16.908944   L 62.630729,16.841308   L 62.630729,16.841308   L 62.630729,16.706037   L 62.563093,16.706037   L 62.495457,16.638401   L 62.495457,16.570765   L 62.360186,16.503129   L 62.360186,16.435494   L 62.29255,16.435494   L 62.224914,16.367858   L 62.157278,16.300222   L 62.089643,16.232586   L 62.022007,16.164951   L 61.886735,16.164951   L 61.8191,16.097315   L 61.751464,16.029679   L 61.616192,15.962043   L 61.548556,15.962043   L 61.413285,15.894407   L 61.278013,15.894407   L 61.210378,15.826772   L 61.075106,15.826772   L 60.939834,15.759136   L 60.804563,15.6915   L 60.736927,15.6915   L 60.601656,15.623864   L 60.466384,15.623864   L 60.331112,15.556229   L 60.195841,15.488593   L 60.060569,15.488593   L 59.857662,15.488593   L 59.790026,15.420957   L 59.654755,15.420957   L 59.451847,15.420957   L 59.316576,15.420957   L 59.181304,15.353321   L 59.046033,15.353321   L 58.843125,15.353321   L 58.707854,15.353321   L 58.572582,15.353321   L 58.369675,15.353321   L 58.234403,15.285685   L 58.099132,15.285685   L 57.896225,15.285685   L 57.760953,15.285685   L 57.625681,15.285685   L 57.422774,15.285685   L 57.287503,15.285685   L 57.152231,15.353321   L 56.949324,15.353321   L 56.814052,15.353321   L 56.678781,15.353321   L 56.475873,15.353321   L 56.340602,15.353321   L 56.20533,15.420957   L 56.070059,15.420957   L 55.867151,15.420957   L 55.73188,15.420957   L 55.596608,15.488593   L 55.461337,15.488593   L 55.326065,15.488593   L 55.190793,15.556229   L 55.055522,15.623864   L 54.92025,15.623864   L 54.784979,15.6915   L 54.649707,15.6915   L 54.582071,15.759136   L 54.4468,15.826772   L 54.311528,15.826772   L 54.176257,15.894407   L 54.108621,15.894407   L 53.973349,15.962043   L 53.905714,15.962043   L 53.770442,16.029679   L 53.702806,16.097315   L 53.635171,16.164951   L 53.499899,16.164951   L 53.432263,16.232586   L 53.364627,16.300222   L 53.296992,16.367858   L 53.229356,16.435494   L 53.16172,16.435494   L 53.16172,16.503129   L 53.026449,16.570765   L 53.026449,16.638401   L 52.958813,16.706037   L 52.891177,16.706037   L 52.891177,16.841308   L 52.891177,16.841308   L 52.823541,16.908944   L 52.823541,16.97658   L 52.823541,17.044216   L 52.823541,17.111851   L 52.755906,17.179487   L 52.755906,17.179487   z "
     id="path32" />
  <path
     style="fill:none;stroke:#000000;stroke-width:0.87926507px;stroke-linecap:round;stroke-linejoin:round;stroke-miterlimit:4;stroke-dasharray:none;stroke-opacity:1;"
     d="  M 52.755906,20.831819   L 52.823541,20.899455   L 52.823541,20.967091   L 52.823541,20.967091   L 52.823541,21.034726   L 52.891177,21.102362   L 52.891177,21.169998   L 52.891177,21.237634   L 52.958813,21.30527   L 53.026449,21.372905   L 53.026449,21.440541   L 53.16172,21.440541   L 53.16172,21.508177   L 53.229356,21.575813   L 53.296992,21.643448   L 53.364627,21.711084   L 53.432263,21.711084   L 53.499899,21.77872   L 53.635171,21.846356   L 53.702806,21.913992   L 53.770442,21.913992   L 53.905714,21.981627   L 53.973349,22.049263   L 54.108621,22.049263   L 54.176257,22.116899   L 54.311528,22.184535   L 54.4468,22.184535   L 54.582071,22.25217   L 54.649707,22.25217   L 54.784979,22.319806   L 54.92025,22.387442   L 55.055522,22.387442   L 55.190793,22.455078   L 55.326065,22.455078   L 55.461337,22.455078   L 55.596608,22.522714   L 55.73188,22.522714   L 55.867151,22.522714   L 56.070059,22.590349   L 56.20533,22.590349   L 56.340602,22.657985   L 56.475873,22.657985   L 56.678781,22.657985   L 56.814052,22.657985   L 56.949324,22.657985   L 57.152231,22.657985   L 57.287503,22.657985   L 57.422774,22.657985   L 57.625681,22.657985   L 57.760953,22.725621   L 57.896225,22.657985   L 58.099132,22.657985   L 58.234403,22.657985   L 58.369675,22.657985   L 58.572582,22.657985   L 58.707854,22.657985   L 58.843125,22.657985   L 59.046033,22.657985   L 59.181304,22.657985   L 59.316576,22.590349   L 59.451847,22.590349   L 59.654755,22.522714   L 59.790026,22.522714   L 59.857662,22.522714   L 60.060569,22.455078   L 60.195841,22.455078   L 60.331112,22.455078   L 60.466384,22.387442   L 60.601656,22.387442   L 60.736927,22.319806   L 60.804563,22.25217   L 60.939834,22.25217   L 61.075106,22.184535   L 61.210378,22.184535   L 61.278013,22.116899   L 61.413285,22.049263   L 61.548556,22.049263   L 61.616192,21.981627   L 61.751464,21.913992   L 61.8191,21.913992   L 61.886735,21.846356   L 62.022007,21.77872   L 62.089643,21.711084   L 62.157278,21.711084   L 62.224914,21.643448   L 62.29255,21.575813   L 62.360186,21.508177   L 62.360186,21.440541   L 62.495457,21.440541   L 62.495457,21.372905   L 62.563093,21.30527   L 62.630729,21.237634   L 62.630729,21.169998   L 62.630729,21.102362   L 62.698365,21.034726   L 62.698365,20.967091   L 62.698365,20.967091   L 62.698365,20.899455   L 62.698365,20.831819  "
     id="path33" />
  <path
     style="fill:none;stroke:#000000;stroke-width:0.87926507px;stroke-linecap:round;stroke-linejoin:round;stroke-miterlimit:4;stroke-dasharray:none;stroke-opacity:1;"
     d="  M 52.755906,20.831819   L 52.755906,17.179487  "
     id="path34" />
  <path
     style="fill:none;stroke:#000000;stroke-width:0.87926507px;stroke-linecap:round;stroke-linejoin:round;stroke-miterlimit:4;stroke-dasharray:none;stroke-opacity:1;"
     d="  M 60.466384,39.161114   L 60.466384,22.387442  "
     id="path35" />
  <path
     style="fill:none;stroke:#000000;stroke-width:0.87926507px;stroke-linecap:round;stroke-linejoin:round;stroke-miterlimit:4;stroke-dasharray:none;stroke-opacity:1;"
     d="  M 62.698365,20.831819   L 62.698365,17.179487  "
     id="path36" />
  <path
     style="fill:none;stroke:#000000;stroke-width:0.87926507px;stroke-linecap:round;stroke-linejoin:round;stroke-miterlimit:4;stroke-dasharray:none;stroke-opacity:1;"
     d="  M 55.055522,39.161114   L 55.055522,39.161114   L 55.055522,39.22875   L 55.055522,39.296386   L 55.055522,39.296386   L 55.123158,39.364022   L 55.123158,39.431658   L 55.123158,39.431658   L 55.190793,39.499293   L 55.258429,39.566929   L 55.258429,39.634565   L 55.326065,39.634565   L 55.393701,39.702201   L 55.461337,39.702201   L 55.528972,39.769836   L 55.596608,39.837472   L 55.664244,39.837472   L 55.73188,39.905108   L 55.799515,39.905108   L 55.867151,39.972744   L 56.002423,39.972744   L 56.070059,39.972744   L 56.20533,40.04038   L 56.272966,40.108015   L 56.340602,40.108015   L 56.475873,40.108015   L 56.543509,40.108015   L 56.678781,40.175651   L 56.814052,40.175651   L 56.881688,40.175651   L 57.016959,40.175651   L 57.152231,40.243287   L 57.219867,40.243287   L 57.355138,40.243287   L 57.49041,40.243287   L 57.558046,40.243287   L 57.693317,40.243287   L 57.828589,40.243287   L 57.96386,40.243287   L 58.031496,40.243287   L 58.166768,40.243287   L 58.302039,40.243287   L 58.369675,40.243287   L 58.504946,40.175651   L 58.640218,40.175651   L 58.707854,40.175651   L 58.843125,40.175651   L 58.910761,40.108015   L 59.046033,40.108015   L 59.181304,40.108015   L 59.24894,40.108015   L 59.316576,40.04038   L 59.451847,39.972744   L 59.519483,39.972744   L 59.654755,39.972744   L 59.72239,39.905108   L 59.790026,39.905108   L 59.857662,39.837472   L 59.925298,39.837472   L 59.992934,39.769836   L 60.060569,39.702201   L 60.128205,39.702201   L 60.195841,39.634565   L 60.263477,39.634565   L 60.263477,39.566929   L 60.331112,39.499293   L 60.331112,39.431658   L 60.398748,39.431658   L 60.398748,39.364022   L 60.466384,39.296386   L 60.466384,39.296386   L 60.466384,39.22875   L 60.466384,39.161114   L 60.466384,39.161114  "
     id="path37" />
  <path
     style="fill:none;stroke:#000000;stroke-width:0.87926507px;stroke-linecap:round;stroke-linejoin:round;stroke-miterlimit:4;stroke-dasharray:none;stroke-opacity:1;"
     d="  M 68.515041,25.972138   L 68.515041,9.1984656  "
     id="path38" />
  <path
     style="fill:none;stroke:#000000;stroke-width:0.87926507px;stroke-linecap:round;stroke-linejoin:round;stroke-miterlimit:4;stroke-dasharray:none;stroke-opacity:1;"
     d="  M 66.283061,3.9905108   L 66.283061,4.0581466   L 66.283061,4.0581466   L 66.283061,4.1257824   L 66.283061,4.1934181   L 66.283061,4.2610539   L 66.350697,4.3286897   L 66.350697,4.3963255   L 66.418332,4.4639612   L 66.485968,4.531597   L 66.485968,4.531597   L 66.553604,4.5992328   L 66.62124,4.6668686   L 66.688875,4.7345043   L 66.756511,4.8021401   L 66.824147,4.8021401   L 66.891783,4.8697759   L 66.959419,4.9374117   L 67.09469,5.0050474   L 67.162326,5.0726832   L 67.229962,5.0726832   L 67.297597,5.140319   L 67.432869,5.140319   L 67.568141,5.2079548   L 67.635776,5.2755906   L 67.771048,5.3432263   L 67.906319,5.3432263   L 67.973955,5.4108621   L 68.109227,5.4784979   L 68.244498,5.4784979   L 68.37977,5.5461337   L 68.515041,5.5461337   L 68.650313,5.5461337   L 68.785584,5.6137694   L 68.920856,5.6137694   L 69.056128,5.6137694   L 69.191399,5.6814052   L 69.326671,5.749041   L 69.461942,5.749041   L 69.66485,5.749041   L 69.800121,5.749041   L 69.935393,5.8166768   L 70.070664,5.8166768   L 70.273572,5.8166768   L 70.408843,5.8166768   L 70.544115,5.8166768   L 70.747022,5.8166768   L 70.882294,5.8166768   L 71.017565,5.8166768   L 71.220472,5.8166768   L 71.355744,5.8166768   L 71.491016,5.8166768   L 71.693923,5.8166768   L 71.829194,5.8166768   L 71.964466,5.8166768   L 72.167373,5.8166768   L 72.302645,5.8166768   L 72.437916,5.8166768   L 72.640824,5.749041   L 72.776095,5.749041   L 72.911367,5.749041   L 73.046638,5.749041   L 73.18191,5.6814052   L 73.384817,5.6137694   L 73.452453,5.6137694   L 73.587725,5.6137694   L 73.790632,5.5461337   L 73.925903,5.5461337   L 74.061175,5.5461337   L 74.196447,5.4784979   L 74.331718,5.4784979   L 74.399354,5.4108621   L 74.534625,5.3432263   L 74.669897,5.3432263   L 74.805169,5.2755906   L 74.872804,5.2079548   L 74.94044,5.140319   L 75.075712,5.140319   L 75.143347,5.0726832   L 75.278619,5.0726832   L 75.346255,5.0050474   L 75.413891,4.9374117   L 75.481526,4.8697759   L 75.616798,4.8021401   L 75.684434,4.8021401   L 75.752069,4.7345043   L 75.819705,4.6668686   L 75.819705,4.5992328   L 75.887341,4.531597   L 75.954977,4.531597   L 75.954977,4.4639612   L 76.022613,4.3963255   L 76.090248,4.3286897   L 76.090248,4.2610539   L 76.090248,4.1934181   L 76.090248,4.1257824   L 76.157884,4.0581466   L 76.157884,4.0581466   L 76.157884,3.9905108   L 76.157884,3.922875   L 76.157884,3.8552392   L 76.090248,3.7876035   L 76.090248,3.7199677   L 76.090248,3.7199677   L 76.090248,3.5846961   L 76.022613,3.5846961   L 75.954977,3.5170604   L 75.954977,3.4494246   L 75.887341,3.3817888   L 75.819705,3.314153   L 75.819705,3.2465173   L 75.752069,3.2465173   L 75.684434,3.1112457   L 75.616798,3.1112457   L 75.481526,3.0436099   L 75.413891,2.9759742   L 75.346255,2.9759742   L 75.278619,2.9083384   L 75.143347,2.8407026   L 75.075712,2.7730668   L 74.94044,2.7730668   L 74.872804,2.7054311   L 74.805169,2.7054311   L 74.669897,2.6377953   L 74.534625,2.5701595   L 74.399354,2.5701595   L 74.331718,2.5025237   L 74.196447,2.5025237   L 74.061175,2.4348879   L 73.925903,2.3672522   L 73.790632,2.3672522   L 73.587725,2.2996164   L 73.452453,2.2996164   L 73.384817,2.2996164   L 73.18191,2.2319806   L 73.046638,2.2319806   L 72.911367,2.2319806   L 72.776095,2.2319806   L 72.640824,2.1643448   L 72.437916,2.1643448   L 72.302645,2.0967091   L 72.167373,2.0967091   L 71.964466,2.0967091   L 71.829194,2.0967091   L 71.693923,2.0967091   L 71.491016,2.0967091   L 71.355744,2.0967091   L 71.220472,2.0967091   L 71.017565,2.0967091   L 70.882294,2.0967091   L 70.747022,2.0967091   L 70.544115,2.0967091   L 70.408843,2.0967091   L 70.273572,2.0967091   L 70.070664,2.0967091   L 69.935393,2.1643448   L 69.800121,2.1643448   L 69.66485,2.2319806   L 69.461942,2.2319806   L 69.326671,2.2319806   L 69.191399,2.2319806   L 69.056128,2.2996164   L 68.920856,2.2996164   L 68.785584,2.2996164   L 68.650313,2.3672522   L 68.515041,2.3672522   L 68.37977,2.4348879   L 68.244498,2.5025237   L 68.109227,2.5025237   L 67.973955,2.5701595   L 67.906319,2.5701595   L 67.771048,2.6377953   L 67.635776,2.7054311   L 67.568141,2.7054311   L 67.432869,2.7730668   L 67.297597,2.7730668   L 67.229962,2.8407026   L 67.162326,2.9083384   L 67.09469,2.9759742   L 66.959419,2.9759742   L 66.891783,3.0436099   L 66.824147,3.1112457   L 66.756511,3.1112457   L 66.688875,3.2465173   L 66.62124,3.2465173   L 66.553604,3.314153   L 66.485968,3.3817888   L 66.485968,3.4494246   L 66.418332,3.5170604   L 66.350697,3.5846961   L 66.350697,3.5846961   L 66.283061,3.7199677   L 66.283061,3.7199677   L 66.283061,3.7876035   L 66.283061,3.8552392   L 66.283061,3.922875   L 66.283061,3.9905108   L 66.283061,3.9905108   z "
     id="path39" />
  <path
     style="fill:none;stroke:#000000;stroke-width:0.87926507px;stroke-linecap:round;stroke-linejoin:round;stroke-miterlimit:4;stroke-dasharray:none;stroke-opacity:1;"
     d="  M 66.283061,7.6428427   L 66.283061,7.6428427   L 66.283061,7.7781143   L 66.283061,7.7781143   L 66.283061,7.8457501   L 66.283061,7.9133858   L 66.350697,7.9810216   L 66.350697,8.0486574   L 66.418332,8.1162932   L 66.485968,8.1162932   L 66.485968,8.2515647   L 66.553604,8.2515647   L 66.62124,8.3192005   L 66.688875,8.3868363   L 66.756511,8.3868363   L 66.824147,8.5221078   L 66.891783,8.5221078   L 66.959419,8.5897436   L 67.09469,8.6573794   L 67.162326,8.6573794   L 67.229962,8.7250151   L 67.297597,8.7926509   L 67.432869,8.8602867   L 67.568141,8.8602867   L 67.635776,8.9279225   L 67.771048,8.9279225   L 67.906319,8.9955582   L 67.973955,9.063194   L 68.109227,9.063194   L 68.244498,9.1308298   L 68.37977,9.1308298   L 68.515041,9.1984656   L 68.650313,9.2661014   L 68.785584,9.2661014   L 68.920856,9.2661014   L 69.056128,9.3337371   L 69.191399,9.3337371   L 69.326671,9.3337371   L 69.461942,9.4013729   L 69.66485,9.4013729   L 69.800121,9.4013729   L 69.935393,9.4013729   L 70.070664,9.4013729   L 70.273572,9.4690087   L 70.408843,9.4690087   L 70.544115,9.4690087   L 70.747022,9.4690087   L 70.882294,9.5366445   L 71.017565,9.5366445   L 71.220472,9.5366445   L 71.355744,9.5366445   L 71.491016,9.5366445   L 71.693923,9.4690087   L 71.829194,9.4690087   L 71.964466,9.4690087   L 72.167373,9.4690087   L 72.302645,9.4013729   L 72.437916,9.4013729   L 72.640824,9.4013729   L 72.776095,9.4013729   L 72.911367,9.4013729   L 73.046638,9.3337371   L 73.18191,9.3337371   L 73.384817,9.3337371   L 73.452453,9.2661014   L 73.587725,9.2661014   L 73.790632,9.2661014   L 73.925903,9.1984656   L 74.061175,9.1308298   L 74.196447,9.1308298   L 74.331718,9.063194   L 74.399354,9.063194   L 74.534625,8.9955582   L 74.669897,8.9279225   L 74.805169,8.9279225   L 74.872804,8.8602867   L 74.94044,8.8602867   L 75.075712,8.7926509   L 75.143347,8.7250151   L 75.278619,8.6573794   L 75.346255,8.6573794   L 75.413891,8.5897436   L 75.481526,8.5221078   L 75.616798,8.5221078   L 75.684434,8.3868363   L 75.752069,8.3868363   L 75.819705,8.3192005   L 75.819705,8.2515647   L 75.887341,8.2515647   L 75.954977,8.1162932   L 75.954977,8.1162932   L 76.022613,8.0486574   L 76.090248,7.9810216   L 76.090248,7.9133858   L 76.090248,7.8457501   L 76.090248,7.7781143   L 76.157884,7.7781143   L 76.157884,7.6428427   L 76.157884,7.6428427  "
     id="path40" />
  <path
     style="fill:none;stroke:#000000;stroke-width:0.87926507px;stroke-linecap:round;stroke-linejoin:round;stroke-miterlimit:4;stroke-dasharray:none;stroke-opacity:1;"
     d="  M 66.283061,7.6428427   L 66.283061,3.9905108  "
     id="path41" />
  <path
     style="fill:none;stroke:#000000;stroke-width:0.87926507px;stroke-linecap:round;stroke-linejoin:round;stroke-miterlimit:4;stroke-dasharray:none;stroke-opacity:1;"
     d="  M 73.925903,25.972138   L 73.925903,9.1984656  "
     id="path42" />
  <path
     style="fill:none;stroke:#000000;stroke-width:0.87926507px;stroke-linecap:round;stroke-linejoin:round;stroke-miterlimit:4;stroke-dasharray:none;stroke-opacity:1;"
     d="  M 76.157884,7.6428427   L 76.157884,3.9905108  "
     id="path43" />
  <path
     style="fill:none;stroke:#000000;stroke-width:0.87926507px;stroke-linecap:round;stroke-linejoin:round;stroke-miterlimit:4;stroke-dasharray:none;stroke-opacity:1;"
     d="  M 68.515041,25.972138   L 68.515041,25.972138   L 68.515041,26.039774   L 68.515041,26.039774   L 68.515041,26.175045   L 68.515041,26.175045   L 68.582677,26.242681   L 68.650313,26.242681   L 68.650313,26.310317   L 68.650313,26.377953   L 68.717949,26.445589   L 68.785584,26.445589   L 68.85322,26.513224   L 68.85322,26.513224   L 68.988492,26.58086   L 68.988492,26.58086   L 69.123763,26.648496   L 69.191399,26.716132   L 69.259035,26.716132   L 69.326671,26.783767   L 69.461942,26.783767   L 69.529578,26.783767   L 69.597214,26.851403   L 69.66485,26.851403   L 69.800121,26.851403   L 69.935393,26.919039   L 70.003028,26.986675   L 70.1383,26.986675   L 70.205936,26.986675   L 70.341207,26.986675   L 70.408843,26.986675   L 70.544115,27.054311   L 70.679386,27.054311   L 70.747022,27.054311   L 70.882294,27.054311   L 71.017565,27.054311   L 71.152837,27.054311   L 71.220472,27.054311   L 71.355744,27.054311   L 71.491016,27.054311   L 71.558651,27.054311   L 71.693923,27.054311   L 71.829194,27.054311   L 71.964466,26.986675   L 72.032102,26.986675   L 72.167373,26.986675   L 72.302645,26.986675   L 72.437916,26.986675   L 72.505552,26.919039   L 72.573188,26.851403   L 72.70846,26.851403   L 72.776095,26.851403   L 72.911367,26.783767   L 72.979003,26.783767   L 73.046638,26.783767   L 73.114274,26.716132   L 73.249546,26.716132   L 73.317182,26.648496   L 73.384817,26.58086   L 73.452453,26.58086   L 73.520089,26.513224   L 73.587725,26.513224   L 73.587725,26.445589   L 73.65536,26.445589   L 73.722996,26.377953   L 73.722996,26.310317   L 73.790632,26.242681   L 73.858268,26.242681   L 73.858268,26.175045   L 73.858268,26.175045   L 73.925903,26.039774   L 73.925903,26.039774   L 73.925903,25.972138   L 73.925903,25.972138  "
     id="path44" />
</svg>
