<?xml version="1.0" encoding="UTF-8" standalone="no"?>
<svg
   version="1.0"
   width="64.839996mm"
   height="69.360001mm"
   id="svg85"
   sodipodi:docname="image130.emf"
   xmlns:inkscape="http://www.inkscape.org/namespaces/inkscape"
   xmlns:sodipodi="http://sodipodi.sourceforge.net/DTD/sodipodi-0.dtd"
   xmlns="http://www.w3.org/2000/svg"
   xmlns:svg="http://www.w3.org/2000/svg">
  <sodipodi:namedview
     id="namedview85"
     pagecolor="#ffffff"
     bordercolor="#000000"
     borderopacity="0.25"
     inkscape:showpageshadow="2"
     inkscape:pageopacity="0.0"
     inkscape:pagecheckerboard="0"
     inkscape:deskcolor="#d1d1d1"
     inkscape:document-units="mm" />
  <defs
     id="defs1">
    <pattern
       id="EMFhbasepattern"
       patternUnits="userSpaceOnUse"
       width="6"
       height="6"
       x="0"
       y="0" />
  </defs>
  <path
     style="fill:none;stroke:#000000;stroke-width:0.9608708px;stroke-linecap:round;stroke-linejoin:round;stroke-miterlimit:4;stroke-dasharray:none;stroke-opacity:1;"
     d="  M 83.681098,242.97312   L 83.681098,158.61946  "
     id="path1" />
  <path
     style="fill:none;stroke:#000000;stroke-width:0.9608708px;stroke-linecap:round;stroke-linejoin:round;stroke-miterlimit:4;stroke-dasharray:none;stroke-opacity:1;"
     d="  M 83.681098,142.51776   L 83.681098,126.41607  "
     id="path2" />
  <path
     style="fill:none;stroke:#000000;stroke-width:0.9608708px;stroke-linecap:round;stroke-linejoin:round;stroke-miterlimit:4;stroke-dasharray:none;stroke-opacity:1;"
     d="  M 83.681098,110.35443   L 83.681098,25.960717  "
     id="path3" />
  <path
     style="fill:none;stroke:#000000;stroke-width:0.9608708px;stroke-linecap:round;stroke-linejoin:round;stroke-miterlimit:4;stroke-dasharray:none;stroke-opacity:1;"
     d="  M 6.5311819,94.73338   L 6.5311819,45.066459  "
     id="path4" />
  <path
     style="fill:none;stroke:#000000;stroke-width:0.9608708px;stroke-linecap:round;stroke-linejoin:round;stroke-miterlimit:4;stroke-dasharray:none;stroke-opacity:1;"
     d="  M 77.235256,94.73338   L 77.235256,45.066459  "
     id="path5" />
  <path
     style="fill:none;stroke:#000000;stroke-width:0.9608708px;stroke-linecap:round;stroke-linejoin:round;stroke-miterlimit:4;stroke-dasharray:none;stroke-opacity:1;"
     d="  M 0.12537678,51.515148   L 83.681098,51.515148  "
     id="path6" />
  <path
     style="fill:#000000;fill-rule:evenodd;fill-opacity:1;stroke:none;"
     d="  M 12.216334,48.110561   L 9.9743022,45.827485   L 3.128098,57.202812   z "
     id="path7" />
  <path
     style="fill:#000000;fill-rule:evenodd;fill-opacity:1;stroke:none;"
     d="  M 9.9743022,45.827485   L 3.128098,57.202812   L 0.88606614,54.919736   z "
     id="path8" />
  <path
     style="fill:#000000;fill-rule:evenodd;fill-opacity:1;stroke:none;"
     d="  M 71.590141,54.919736   L 73.832172,57.202812   L 80.678377,45.827485   z "
     id="path9" />
  <path
     style="fill:#000000;fill-rule:evenodd;fill-opacity:1;stroke:none;"
     d="  M 73.832172,57.202812   L 80.678377,45.827485   L 82.920409,48.110561   z "
     id="path10" />
  <path
     style="fill:none;stroke:#000000;stroke-width:0.9608708px;stroke-linecap:round;stroke-linejoin:round;stroke-miterlimit:4;stroke-dasharray:none;stroke-opacity:1;"
     d="  M 33.355491,43.584463   L 33.355491,28.003469  "
     id="path11" />
  <path
     style="fill:none;stroke:#000000;stroke-width:0.9608708px;stroke-linecap:round;stroke-linejoin:round;stroke-miterlimit:4;stroke-dasharray:none;stroke-opacity:1;"
     d="  M 33.355491,35.413453   L 34.356398,33.931456   L 35.397341,33.170431   L 36.958756,33.170431   L 37.9997,33.931456   L 39.040643,35.413453   L 39.561115,37.656475   L 39.561115,39.138472   L 39.040643,41.34144   L 37.9997,42.823437   L 36.958756,43.584463   L 35.397341,43.584463   L 34.356398,42.823437   L 33.355491,41.34144  "
     id="path12" />
  <path
     style="fill:none;stroke:#000000;stroke-width:0.9608708px;stroke-linecap:round;stroke-linejoin:round;stroke-miterlimit:4;stroke-dasharray:none;stroke-opacity:1;"
     d="  M 43.724888,31.688434   L 43.724888,30.967463   L 44.24536,29.485466   L 44.765832,28.724441   L 45.806775,28.003469   L 47.888662,28.003469   L 48.929605,28.724441   L 49.450077,29.485466   L 49.930512,30.967463   L 49.930512,32.44946   L 49.450077,33.931456   L 48.409133,36.174479   L 43.204417,43.584463   L 50.450984,43.584463  "
     id="path13" />
  <path
     style="fill:none;stroke:#000000;stroke-width:0.9608708px;stroke-linecap:round;stroke-linejoin:round;stroke-miterlimit:4;stroke-dasharray:none;stroke-opacity:1;"
     d="  M 90.126939,94.73338   L 90.126939,45.066459  "
     id="path14" />
  <path
     style="fill:none;stroke:#000000;stroke-width:0.9608708px;stroke-linecap:round;stroke-linejoin:round;stroke-miterlimit:4;stroke-dasharray:none;stroke-opacity:1;"
     d="  M 160.83101,94.73338   L 160.83101,45.066459  "
     id="path15" />
  <path
     style="fill:none;stroke:#000000;stroke-width:0.9608708px;stroke-linecap:round;stroke-linejoin:round;stroke-miterlimit:4;stroke-dasharray:none;stroke-opacity:1;"
     d="  M 83.681098,51.515148   L 167.23682,51.515148  "
     id="path16" />
  <path
     style="fill:#000000;fill-rule:evenodd;fill-opacity:1;stroke:none;"
     d="  M 95.772055,48.110561   L 93.530023,45.827485   L 86.683819,57.202812   z "
     id="path17" />
  <path
     style="fill:#000000;fill-rule:evenodd;fill-opacity:1;stroke:none;"
     d="  M 93.530023,45.827485   L 86.683819,57.202812   L 84.441787,54.919736   z "
     id="path18" />
  <path
     style="fill:#000000;fill-rule:evenodd;fill-opacity:1;stroke:none;"
     d="  M 155.14586,54.919736   L 157.38789,57.202812   L 164.2341,45.827485   z "
     id="path19" />
  <path
     style="fill:#000000;fill-rule:evenodd;fill-opacity:1;stroke:none;"
     d="  M 157.38789,57.202812   L 164.2341,45.827485   L 166.47613,48.110561   z "
     id="path20" />
  <path
     style="fill:none;stroke:#000000;stroke-width:0.9608708px;stroke-linecap:round;stroke-linejoin:round;stroke-miterlimit:4;stroke-dasharray:none;stroke-opacity:1;"
     d="  M 116.91121,43.584463   L 116.91121,28.003469  "
     id="path21" />
  <path
     style="fill:none;stroke:#000000;stroke-width:0.9608708px;stroke-linecap:round;stroke-linejoin:round;stroke-miterlimit:4;stroke-dasharray:none;stroke-opacity:1;"
     d="  M 116.91121,35.413453   L 117.95216,33.931456   L 118.95306,33.170431   L 120.51448,33.170431   L 121.55542,33.931456   L 122.59636,35.413453   L 123.11684,37.656475   L 123.11684,39.138472   L 122.59636,41.34144   L 121.55542,42.823437   L 120.51448,43.584463   L 118.95306,43.584463   L 117.95216,42.823437   L 116.91121,41.34144  "
     id="path22" />
  <path
     style="fill:none;stroke:#000000;stroke-width:0.9608708px;stroke-linecap:round;stroke-linejoin:round;stroke-miterlimit:4;stroke-dasharray:none;stroke-opacity:1;"
     d="  M 127.28061,31.688434   L 127.28061,30.967463   L 127.80108,29.485466   L 128.32155,28.724441   L 129.3625,28.003469   L 131.44438,28.003469   L 132.48533,28.724441   L 133.0058,29.485466   L 133.52627,30.967463   L 133.52627,32.44946   L 133.0058,33.931456   L 131.96485,36.174479   L 126.76014,43.584463   L 134.04674,43.584463  "
     id="path23" />
  <path
     style="fill:none;stroke:#000000;stroke-width:0.9608708px;stroke-linecap:round;stroke-linejoin:round;stroke-miterlimit:4;stroke-dasharray:none;stroke-opacity:1;"
     d="  M 176.88556,110.79502   L 242.98547,110.79502  "
     id="path24" />
  <path
     style="fill:none;stroke:#000000;stroke-width:0.9608708px;stroke-linecap:round;stroke-linejoin:round;stroke-miterlimit:4;stroke-dasharray:none;stroke-opacity:1;"
     d="  M 106.18149,226.67115   L 242.98547,226.67115  "
     id="path25" />
  <path
     style="fill:none;stroke:#000000;stroke-width:0.9608708px;stroke-linecap:round;stroke-linejoin:round;stroke-miterlimit:4;stroke-dasharray:none;stroke-opacity:1;"
     d="  M 236.53962,104.38639   L 236.53962,233.07979  "
     id="path26" />
  <path
     style="fill:#000000;fill-rule:evenodd;fill-opacity:1;stroke:none;"
     d="  M 239.94271,116.48268   L 242.22478,114.23966   L 230.85447,107.39043   z "
     id="path27" />
  <path
     style="fill:#000000;fill-rule:evenodd;fill-opacity:1;stroke:none;"
     d="  M 242.22478,114.23966   L 230.85447,107.39043   L 233.13654,105.10736   z "
     id="path28" />
  <path
     style="fill:#000000;fill-rule:evenodd;fill-opacity:1;stroke:none;"
     d="  M 233.13654,220.98349   L 230.85447,223.22651   L 242.22478,230.07574   z "
     id="path29" />
  <path
     style="fill:#000000;fill-rule:evenodd;fill-opacity:1;stroke:none;"
     d="  M 230.85447,223.22651   L 242.22478,230.07574   L 239.94271,232.35881   z "
     id="path30" />
  <path
     style="fill:none;stroke:#000000;stroke-width:0.9608708px;stroke-linecap:round;stroke-linejoin:round;stroke-miterlimit:4;stroke-dasharray:none;stroke-opacity:1;"
     d="  M 228.65248,176.00288   L 213.07836,176.00288  "
     id="path31" />
  <path
     style="fill:none;stroke:#000000;stroke-width:0.9608708px;stroke-linecap:round;stroke-linejoin:round;stroke-miterlimit:4;stroke-dasharray:none;stroke-opacity:1;"
     d="  M 220.48507,176.00288   L 219.00373,174.96148   L 218.24304,173.92007   L 218.24304,172.35797   L 219.00373,171.31657   L 220.48507,170.27516   L 222.68707,169.75446   L 224.16841,169.75446   L 226.41044,170.27516   L 227.89179,171.31657   L 228.65248,172.35797   L 228.65248,173.92007   L 227.89179,174.96148   L 226.41044,176.00288  "
     id="path32" />
  <path
     style="fill:none;stroke:#000000;stroke-width:0.9608708px;stroke-linecap:round;stroke-linejoin:round;stroke-miterlimit:4;stroke-dasharray:none;stroke-opacity:1;"
     d="  M 216.04105,164.0668   L 215.28036,163.0254   L 213.07836,161.46329   L 228.65248,161.46329  "
     id="path33" />
  <path
     style="fill:#000000;fill-rule:evenodd;fill-opacity:1;stroke:none;"
     d="  M 5.5703112,115.96198   L 7.532089,115.96198   L 6.6112545,118.44533   z "
     id="path34" />
  <path
     style="fill:#000000;fill-rule:evenodd;fill-opacity:1;stroke:none;"
     d="  M 7.532089,115.96198   L 6.6112545,118.44533   L 7.9724881,117.08349   z "
     id="path35" />
  <path
     style="fill:#000000;fill-rule:evenodd;fill-opacity:1;stroke:none;"
     d="  M 6.6112545,118.44533   L 7.9724881,117.08349   L 9.1335403,119.48673   z "
     id="path36" />
  <path
     style="fill:#000000;fill-rule:evenodd;fill-opacity:1;stroke:none;"
     d="  M 7.9724881,117.08349   L 9.1335403,119.48673   L 9.1335403,117.56414   z "
     id="path37" />
  <path
     style="fill:#000000;fill-rule:evenodd;fill-opacity:1;stroke:none;"
     d="  M 70.509161,127.53758   L 68.587419,127.53758   L 67.586512,120.48808   z "
     id="path38" />
  <path
     style="fill:#000000;fill-rule:evenodd;fill-opacity:1;stroke:none;"
     d="  M 68.587419,127.53758   L 67.586512,120.48808   L 66.225279,121.84992   z "
     id="path39" />
  <path
     style="fill:#000000;fill-rule:evenodd;fill-opacity:1;stroke:none;"
     d="  M 67.586512,120.48808   L 66.225279,121.84992   L 60.540127,117.56414   z "
     id="path40" />
  <path
     style="fill:#000000;fill-rule:evenodd;fill-opacity:1;stroke:none;"
     d="  M 66.225279,121.84992   L 60.540127,117.56414   L 60.540127,119.48673   z "
     id="path41" />
  <path
     style="fill:#000000;fill-rule:evenodd;fill-opacity:1;stroke:none;"
     d="  M 68.587419,224.06764   L 70.509161,224.06764   L 69.628363,226.59104   z "
     id="path42" />
  <path
     style="fill:#000000;fill-rule:evenodd;fill-opacity:1;stroke:none;"
     d="  M 70.509161,224.06764   L 69.628363,226.59104   L 70.989596,225.22921   z "
     id="path43" />
  <path
     style="fill:#000000;fill-rule:evenodd;fill-opacity:1;stroke:none;"
     d="  M 69.628363,226.59104   L 70.989596,225.22921   L 72.110612,227.63245   z "
     id="path44" />
  <path
     style="fill:#000000;fill-rule:evenodd;fill-opacity:1;stroke:none;"
     d="  M 70.989596,225.22921   L 72.110612,227.63245   L 72.110612,225.70986   z "
     id="path45" />
  <path
     style="fill:#000000;fill-rule:evenodd;fill-opacity:1;stroke:none;"
     d="  M 6.5311819,109.83373   L 6.5311819,111.75632   L 77.235256,109.83373   z "
     id="path46" />
  <path
     style="fill:#000000;fill-rule:evenodd;fill-opacity:1;stroke:none;"
     d="  M 6.5311819,111.75632   L 77.235256,109.83373   L 77.235256,111.75632   z "
     id="path47" />
  <path
     style="fill:#000000;fill-rule:evenodd;fill-opacity:1;stroke:none;"
     d="  M 5.5703112,115.96198   L 7.532089,115.96198   L 5.5703112,110.79502   z "
     id="path48" />
  <path
     style="fill:#000000;fill-rule:evenodd;fill-opacity:1;stroke:none;"
     d="  M 7.532089,115.96198   L 5.5703112,110.79502   L 7.532089,110.79502   z "
     id="path49" />
  <path
     style="fill:#000000;fill-rule:evenodd;fill-opacity:1;stroke:none;"
     d="  M 60.540127,119.48673   L 60.540127,117.56414   L 9.1335403,119.48673   z "
     id="path50" />
  <path
     style="fill:#000000;fill-rule:evenodd;fill-opacity:1;stroke:none;"
     d="  M 60.540127,117.56414   L 9.1335403,119.48673   L 9.1335403,117.56414   z "
     id="path51" />
  <path
     style="fill:#000000;fill-rule:evenodd;fill-opacity:1;stroke:none;"
     d="  M 68.587419,224.06764   L 70.509161,224.06764   L 68.587419,127.53758   z "
     id="path52" />
  <path
     style="fill:#000000;fill-rule:evenodd;fill-opacity:1;stroke:none;"
     d="  M 70.509161,224.06764   L 68.587419,127.53758   L 70.509161,127.53758   z "
     id="path53" />
  <path
     style="fill:#000000;fill-rule:evenodd;fill-opacity:1;stroke:none;"
     d="  M 77.235256,227.63245   L 77.235256,225.70986   L 72.110612,227.63245   z "
     id="path54" />
  <path
     style="fill:#000000;fill-rule:evenodd;fill-opacity:1;stroke:none;"
     d="  M 77.235256,225.70986   L 72.110612,227.63245   L 72.110612,225.70986   z "
     id="path55" />
  <path
     style="fill:#000000;fill-rule:evenodd;fill-opacity:1;stroke:none;"
     d="  M 76.274386,226.67115   L 78.236164,226.67115   L 76.274386,110.79502   z "
     id="path56" />
  <path
     style="fill:#000000;fill-rule:evenodd;fill-opacity:1;stroke:none;"
     d="  M 78.236164,226.67115   L 76.274386,110.79502   L 78.236164,110.79502   z "
     id="path57" />
  <path
     style="fill:#000000;fill-rule:evenodd;fill-opacity:1;stroke:none;"
     d="  M 158.22866,119.48673   L 158.22866,117.56414   L 160.75094,118.44533   z "
     id="path58" />
  <path
     style="fill:#000000;fill-rule:evenodd;fill-opacity:1;stroke:none;"
     d="  M 158.22866,117.56414   L 160.75094,118.44533   L 159.38971,117.08349   z "
     id="path59" />
  <path
     style="fill:#000000;fill-rule:evenodd;fill-opacity:1;stroke:none;"
     d="  M 160.75094,118.44533   L 159.38971,117.08349   L 161.79188,115.96198   z "
     id="path60" />
  <path
     style="fill:#000000;fill-rule:evenodd;fill-opacity:1;stroke:none;"
     d="  M 159.38971,117.08349   L 161.79188,115.96198   L 159.83011,115.96198   z "
     id="path61" />
  <path
     style="fill:#000000;fill-rule:evenodd;fill-opacity:1;stroke:none;"
     d="  M 106.82207,117.56414   L 106.82207,119.48673   L 99.775683,120.48808   z "
     id="path62" />
  <path
     style="fill:#000000;fill-rule:evenodd;fill-opacity:1;stroke:none;"
     d="  M 106.82207,119.48673   L 99.775683,120.48808   L 101.13692,121.84992   z "
     id="path63" />
  <path
     style="fill:#000000;fill-rule:evenodd;fill-opacity:1;stroke:none;"
     d="  M 99.775683,120.48808   L 101.13692,121.84992   L 96.853035,127.53758   z "
     id="path64" />
  <path
     style="fill:#000000;fill-rule:evenodd;fill-opacity:1;stroke:none;"
     d="  M 101.13692,121.84992   L 96.853035,127.53758   L 98.774776,127.53758   z "
     id="path65" />
  <path
     style="fill:#000000;fill-rule:evenodd;fill-opacity:1;stroke:none;"
     d="  M 95.251583,227.63245   L 95.251583,225.70986   L 97.733833,226.59104   z "
     id="path66" />
  <path
     style="fill:#000000;fill-rule:evenodd;fill-opacity:1;stroke:none;"
     d="  M 95.251583,225.70986   L 97.733833,226.59104   L 96.372599,225.22921   z "
     id="path67" />
  <path
     style="fill:#000000;fill-rule:evenodd;fill-opacity:1;stroke:none;"
     d="  M 97.733833,226.59104   L 96.372599,225.22921   L 98.774776,224.06764   z "
     id="path68" />
  <path
     style="fill:#000000;fill-rule:evenodd;fill-opacity:1;stroke:none;"
     d="  M 96.372599,225.22921   L 98.774776,224.06764   L 96.853035,224.06764   z "
     id="path69" />
  <path
     style="fill:#000000;fill-rule:evenodd;fill-opacity:1;stroke:none;"
     d="  M 160.83101,111.75632   L 160.83101,109.83373   L 90.126939,111.75632   z "
     id="path70" />
  <path
     style="fill:#000000;fill-rule:evenodd;fill-opacity:1;stroke:none;"
     d="  M 160.83101,109.83373   L 90.126939,111.75632   L 90.126939,109.83373   z "
     id="path71" />
  <path
     style="fill:#000000;fill-rule:evenodd;fill-opacity:1;stroke:none;"
     d="  M 159.83011,115.96198   L 161.79188,115.96198   L 159.83011,110.79502   z "
     id="path72" />
  <path
     style="fill:#000000;fill-rule:evenodd;fill-opacity:1;stroke:none;"
     d="  M 161.79188,115.96198   L 159.83011,110.79502   L 161.79188,110.79502   z "
     id="path73" />
  <path
     style="fill:#000000;fill-rule:evenodd;fill-opacity:1;stroke:none;"
     d="  M 106.82207,117.56414   L 106.82207,119.48673   L 158.22866,117.56414   z "
     id="path74" />
  <path
     style="fill:#000000;fill-rule:evenodd;fill-opacity:1;stroke:none;"
     d="  M 106.82207,119.48673   L 158.22866,117.56414   L 158.22866,119.48673   z "
     id="path75" />
  <path
     style="fill:#000000;fill-rule:evenodd;fill-opacity:1;stroke:none;"
     d="  M 96.853035,224.06764   L 98.774776,224.06764   L 96.853035,127.53758   z "
     id="path76" />
  <path
     style="fill:#000000;fill-rule:evenodd;fill-opacity:1;stroke:none;"
     d="  M 98.774776,224.06764   L 96.853035,127.53758   L 98.774776,127.53758   z "
     id="path77" />
  <path
     style="fill:#000000;fill-rule:evenodd;fill-opacity:1;stroke:none;"
     d="  M 90.126939,225.70986   L 90.126939,227.63245   L 95.251583,225.70986   z "
     id="path78" />
  <path
     style="fill:#000000;fill-rule:evenodd;fill-opacity:1;stroke:none;"
     d="  M 90.126939,227.63245   L 95.251583,225.70986   L 95.251583,227.63245   z "
     id="path79" />
  <path
     style="fill:#000000;fill-rule:evenodd;fill-opacity:1;stroke:none;"
     d="  M 89.126032,226.67115   L 91.08781,226.67115   L 89.126032,110.79502   z "
     id="path80" />
  <path
     style="fill:#000000;fill-rule:evenodd;fill-opacity:1;stroke:none;"
     d="  M 91.08781,226.67115   L 89.126032,110.79502   L 91.08781,110.79502   z "
     id="path81" />
  <path
     style="fill:none;stroke:#000000;stroke-width:0.9608708px;stroke-linecap:round;stroke-linejoin:round;stroke-miterlimit:4;stroke-dasharray:none;stroke-opacity:1;"
     d="  M 80.878558,244.61533   L 84.001388,254.98931   L 87.084182,244.61533  "
     id="path82" />
  <path
     style="fill:none;stroke:#000000;stroke-width:0.9608708px;stroke-linecap:round;stroke-linejoin:round;stroke-miterlimit:4;stroke-dasharray:none;stroke-opacity:1;"
     d="  M 84.001388,254.98931   L 82.439973,259.47535   L 81.919501,260.19632   L 80.358086,260.19632  "
     id="path83" />
  <path
     style="fill:none;stroke:#000000;stroke-width:0.9608708px;stroke-linecap:round;stroke-linejoin:round;stroke-miterlimit:4;stroke-dasharray:none;stroke-opacity:1;"
     d="  M 80.878558,0.12590735   L 84.001388,10.539939   L 87.084182,0.12590735  "
     id="path84" />
  <path
     style="fill:none;stroke:#000000;stroke-width:0.9608708px;stroke-linecap:round;stroke-linejoin:round;stroke-miterlimit:4;stroke-dasharray:none;stroke-opacity:1;"
     d="  M 84.001388,10.539939   L 82.439973,14.985929   L 81.919501,15.706901   L 80.358086,15.706901  "
     id="path85" />
</svg>
