<?xml version="1.0" encoding="UTF-8" standalone="no"?>
<svg
   version="1.0"
   width="239.98443mm"
   height="199.50318mm"
   id="svg72"
   sodipodi:docname="image175.wmf"
   xmlns:inkscape="http://www.inkscape.org/namespaces/inkscape"
   xmlns:sodipodi="http://sodipodi.sourceforge.net/DTD/sodipodi-0.dtd"
   xmlns="http://www.w3.org/2000/svg"
   xmlns:svg="http://www.w3.org/2000/svg">
  <sodipodi:namedview
     id="namedview72"
     pagecolor="#ffffff"
     bordercolor="#000000"
     borderopacity="0.25"
     inkscape:showpageshadow="2"
     inkscape:pageopacity="0.0"
     inkscape:pagecheckerboard="0"
     inkscape:deskcolor="#d1d1d1"
     inkscape:document-units="mm" />
  <defs
     id="defs1">
    <pattern
       id="WMFhbasepattern"
       patternUnits="userSpaceOnUse"
       width="6"
       height="6"
       x="0"
       y="0" />
  </defs>
  <path
     style="fill:none;stroke:#000000;stroke-width:0.027777778px;stroke-linecap:round;stroke-linejoin:round;stroke-miterlimit:4;stroke-dasharray:none;stroke-opacity:1;"
     d="  M 186.47222,282.75   L 400.22222,282.75  "
     id="path1" />
  <path
     style="fill:none;stroke:#000000;stroke-width:0.027777778px;stroke-linecap:round;stroke-linejoin:round;stroke-miterlimit:4;stroke-dasharray:none;stroke-opacity:1;"
     d="  M 400.22222,93.222222   L 186.47222,93.222222  "
     id="path2" />
  <path
     style="fill:none;stroke:#000000;stroke-width:0.027777778px;stroke-linecap:round;stroke-linejoin:round;stroke-miterlimit:4;stroke-dasharray:none;stroke-opacity:1;"
     d="  M 186.47222,80.833333   L 186.47222,133.86111  "
     id="path3" />
  <path
     style="fill:none;stroke:#000000;stroke-width:0.027777778px;stroke-linecap:round;stroke-linejoin:round;stroke-miterlimit:4;stroke-dasharray:none;stroke-opacity:1;"
     d="  M 186.47222,146.25   L 186.47222,158.63889  "
     id="path4" />
  <path
     style="fill:none;stroke:#000000;stroke-width:0.027777778px;stroke-linecap:round;stroke-linejoin:round;stroke-miterlimit:4;stroke-dasharray:none;stroke-opacity:1;"
     d="  M 186.47222,171.02778   L 186.47222,232.97222  "
     id="path5" />
  <path
     style="fill:none;stroke:#000000;stroke-width:0.027777778px;stroke-linecap:round;stroke-linejoin:round;stroke-miterlimit:4;stroke-dasharray:none;stroke-opacity:1;"
     d="  M 186.47222,245.36111   L 186.47222,257.75  "
     id="path6" />
  <path
     style="fill:none;stroke:#000000;stroke-width:0.027777778px;stroke-linecap:round;stroke-linejoin:round;stroke-miterlimit:4;stroke-dasharray:none;stroke-opacity:1;"
     d="  M 186.47222,270.13889   L 186.47222,332.11111  "
     id="path7" />
  <path
     style="fill:none;stroke:#000000;stroke-width:0.027777778px;stroke-linecap:round;stroke-linejoin:round;stroke-miterlimit:4;stroke-dasharray:none;stroke-opacity:1;"
     d="  M 186.47222,344.5   L 186.47222,356.88889  "
     id="path8" />
  <path
     style="fill:none;stroke:#000000;stroke-width:0.027777778px;stroke-linecap:round;stroke-linejoin:round;stroke-miterlimit:4;stroke-dasharray:none;stroke-opacity:1;"
     d="  M 186.47222,369.27778   L 186.47222,422.30556  "
     id="path9" />
  <path
     style="fill:none;stroke:#000000;stroke-width:0.027777778px;stroke-linecap:round;stroke-linejoin:round;stroke-miterlimit:4;stroke-dasharray:none;stroke-opacity:1;"
     d="  M 385.02778,179.19444   L 385.02778,196.77778  "
     id="path10" />
  <path
     style="fill:none;stroke:#000000;stroke-width:0.027777778px;stroke-linecap:round;stroke-linejoin:round;stroke-miterlimit:4;stroke-dasharray:none;stroke-opacity:1;"
     d="  M 374.88889,188   L 395.13889,188  "
     id="path11" />
  <path
     style="fill:none;stroke:#000000;stroke-width:0.027777778px;stroke-linecap:round;stroke-linejoin:round;stroke-miterlimit:4;stroke-dasharray:none;stroke-opacity:1;"
     d="  M 400.22222,282.75   L 418.69444,280.94444   L 436.47222,275.52778   L 452.86111,266.77778   L 467.19444,255   L 479,240.63889   L 487.75,224.25   L 493.13889,206.47222   L 494.94444,188   L 493.13889,169.5   L 487.75,151.72222   L 479,135.33333   L 467.19444,120.97222   L 452.86111,109.19444   L 436.47222,100.44444   L 418.69444,95.055556   L 400.22222,93.222222  "
     id="path12" />
  <path
     style="fill:none;stroke:#000000;stroke-width:0.027777778px;stroke-linecap:round;stroke-linejoin:round;stroke-miterlimit:4;stroke-dasharray:none;stroke-opacity:1;"
     d="  M 419.16667,188   L 417.5,177.44444   L 412.63889,167.91667   L 405.08333,160.36111   L 395.55556,155.5   L 385.02778,153.83333   L 374.47222,155.5   L 364.94444,160.36111   L 357.38889,167.91667   L 352.52778,177.44444   L 350.86111,188   L 352.52778,198.55556   L 357.38889,208.05556   L 364.94444,215.61111   L 374.47222,220.47222   L 385.02778,222.13889   L 395.55556,220.47222   L 405.08333,215.61111   L 412.63889,208.05556   L 417.5,198.55556   L 419.16667,188  z "
     id="path13" />
  <path
     style="fill:none;stroke:#000000;stroke-width:0.027777778px;stroke-linecap:round;stroke-linejoin:round;stroke-miterlimit:4;stroke-dasharray:none;stroke-opacity:1;"
     d="  M 147.72222,188.75   L 186.47222,188.75  "
     id="path14" />
  <path
     style="fill:#000000;fill-rule:evenodd;fill-opacity:1;stroke:none;"
     d="  M 147.72222,186.13889   L 147.72222,191.33333   L 132.11111,188.75  z "
     id="path15" />
  <path
     style="fill:none;stroke:#000000;stroke-width:0.027777778px;stroke-linecap:round;stroke-linejoin:round;stroke-miterlimit:4;stroke-dasharray:none;stroke-opacity:1;"
     d="  M 147.72222,186.13889   L 147.72222,191.33333   L 132.11111,188.75   L 147.72222,186.13889  z "
     id="path16" />
  <path
     style="fill:none;stroke:#000000;stroke-width:0.027777778px;stroke-linecap:round;stroke-linejoin:round;stroke-miterlimit:4;stroke-dasharray:none;stroke-opacity:1;"
     d="  M 121.75,196.88889   L 121.75,181.13889   L 129.11111,196.88889   L 129.11111,181.13889  "
     id="path17" />
  <path
     style="fill:none;stroke:#000000;stroke-width:0.027777778px;stroke-linecap:round;stroke-linejoin:round;stroke-miterlimit:4;stroke-dasharray:none;stroke-opacity:1;"
     d="  M 377.77778,93.222222   L 381.41667,93.222222  "
     id="path18" />
  <path
     style="fill:none;stroke:#000000;stroke-width:0.027777778px;stroke-linecap:round;stroke-linejoin:round;stroke-miterlimit:4;stroke-dasharray:none;stroke-opacity:1;"
     d="  M 377.52778,153.83333   L 381.41667,153.83333  "
     id="path19" />
  <path
     style="fill:none;stroke:#000000;stroke-width:0.027777778px;stroke-linecap:round;stroke-linejoin:round;stroke-miterlimit:4;stroke-dasharray:none;stroke-opacity:1;"
     d="  M 385.33333,101.02778   L 385.33333,146.02778  "
     id="path20" />
  <path
     style="fill:#000000;fill-rule:evenodd;fill-opacity:1;stroke:none;"
     d="  M 384.02778,101.02778   L 386.61111,101.02778   L 385.33333,93.222222  z "
     id="path21" />
  <path
     style="fill:none;stroke:#000000;stroke-width:0.027777778px;stroke-linecap:round;stroke-linejoin:round;stroke-miterlimit:4;stroke-dasharray:none;stroke-opacity:1;"
     d="  M 384.02778,101.02778   L 386.61111,101.02778   L 385.33333,93.222222   L 384.02778,101.02778  z "
     id="path22" />
  <path
     style="fill:#000000;fill-rule:evenodd;fill-opacity:1;stroke:none;"
     d="  M 384.02778,146.02778   L 386.61111,146.02778   L 385.33333,153.83333  z "
     id="path23" />
  <path
     style="fill:none;stroke:#000000;stroke-width:0.027777778px;stroke-linecap:round;stroke-linejoin:round;stroke-miterlimit:4;stroke-dasharray:none;stroke-opacity:1;"
     d="  M 384.02778,146.02778   L 386.61111,146.02778   L 385.33333,153.83333   L 384.02778,146.02778  z "
     id="path24" />
  <path
     style="fill:none;stroke:#000000;stroke-width:0.027777778px;stroke-linecap:round;stroke-linejoin:round;stroke-miterlimit:4;stroke-dasharray:none;stroke-opacity:1;"
     d="  M 377.77778,282.75   L 381.41667,282.75  "
     id="path25" />
  <path
     style="fill:none;stroke:#000000;stroke-width:0.027777778px;stroke-linecap:round;stroke-linejoin:round;stroke-miterlimit:4;stroke-dasharray:none;stroke-opacity:1;"
     d="  M 377.52778,222.13889   L 381.41667,222.13889  "
     id="path26" />
  <path
     style="fill:none;stroke:#000000;stroke-width:0.027777778px;stroke-linecap:round;stroke-linejoin:round;stroke-miterlimit:4;stroke-dasharray:none;stroke-opacity:1;"
     d="  M 385.33333,274.94444   L 385.33333,229.94444  "
     id="path27" />
  <path
     style="fill:#000000;fill-rule:evenodd;fill-opacity:1;stroke:none;"
     d="  M 384.02778,274.94444   L 386.61111,274.94444   L 385.33333,282.75  z "
     id="path28" />
  <path
     style="fill:none;stroke:#000000;stroke-width:0.027777778px;stroke-linecap:round;stroke-linejoin:round;stroke-miterlimit:4;stroke-dasharray:none;stroke-opacity:1;"
     d="  M 384.02778,274.94444   L 386.61111,274.94444   L 385.33333,282.75   L 384.02778,274.94444  z "
     id="path29" />
  <path
     style="fill:#000000;fill-rule:evenodd;fill-opacity:1;stroke:none;"
     d="  M 384.02778,229.94444   L 386.61111,229.94444   L 385.33333,222.13889  z "
     id="path30" />
  <path
     style="fill:none;stroke:#000000;stroke-width:0.027777778px;stroke-linecap:round;stroke-linejoin:round;stroke-miterlimit:4;stroke-dasharray:none;stroke-opacity:1;"
     d="  M 384.02778,229.94444   L 386.61111,229.94444   L 385.33333,222.13889   L 384.02778,229.94444  z "
     id="path31" />
  <path
     style="fill:none;stroke:#000000;stroke-width:0.027777778px;stroke-linecap:round;stroke-linejoin:round;stroke-miterlimit:4;stroke-dasharray:none;stroke-opacity:1;"
     d="  M 318.36111,222.13889   L 267,222.13889  "
     id="path32" />
  <path
     style="fill:none;stroke:#000000;stroke-width:0.027777778px;stroke-linecap:round;stroke-linejoin:round;stroke-miterlimit:4;stroke-dasharray:none;stroke-opacity:1;"
     d="  M 318.36111,153.83333   L 267,153.83333  "
     id="path33" />
  <path
     style="fill:none;stroke:#000000;stroke-width:0.027777778px;stroke-linecap:round;stroke-linejoin:round;stroke-miterlimit:4;stroke-dasharray:none;stroke-opacity:1;"
     d="  M 270.91667,214.33333   L 270.91667,161.63889  "
     id="path34" />
  <path
     style="fill:#000000;fill-rule:evenodd;fill-opacity:1;stroke:none;"
     d="  M 269.61111,214.33333   L 272.22222,214.33333   L 270.91667,222.13889  z "
     id="path35" />
  <path
     style="fill:none;stroke:#000000;stroke-width:0.027777778px;stroke-linecap:round;stroke-linejoin:round;stroke-miterlimit:4;stroke-dasharray:none;stroke-opacity:1;"
     d="  M 269.61111,214.33333   L 272.22222,214.33333   L 270.91667,222.13889   L 269.61111,214.33333  z "
     id="path36" />
  <path
     style="fill:#000000;fill-rule:evenodd;fill-opacity:1;stroke:none;"
     d="  M 269.61111,161.63889   L 272.22222,161.63889   L 270.91667,153.83333  z "
     id="path37" />
  <path
     style="fill:none;stroke:#000000;stroke-width:0.027777778px;stroke-linecap:round;stroke-linejoin:round;stroke-miterlimit:4;stroke-dasharray:none;stroke-opacity:1;"
     d="  M 269.61111,161.63889   L 272.22222,161.63889   L 270.91667,153.83333   L 269.61111,161.63889  z "
     id="path38" />
  <path
     style="fill:none;stroke:#000000;stroke-width:0.027777778px;stroke-linecap:round;stroke-linejoin:round;stroke-miterlimit:4;stroke-dasharray:none;stroke-opacity:1;"
     d="  M 279.75,183.5   L 279.75,192.94444  "
     id="path39" />
  <path
     style="fill:none;stroke:#000000;stroke-width:0.027777778px;stroke-linecap:round;stroke-linejoin:round;stroke-miterlimit:4;stroke-dasharray:none;stroke-opacity:1;"
     d="  M 279.75,188   L 279.11111,187.08333   L 278.47222,186.63889   L 277.52778,186.63889   L 276.91667,187.08333   L 276.27778,188   L 275.97222,189.33333   L 275.97222,190.25   L 276.27778,191.58333   L 276.91667,192.5   L 277.52778,192.94444   L 278.47222,192.94444   L 279.11111,192.5   L 279.75,191.58333  "
     id="path40" />
  <path
     style="fill:none;stroke:#000000;stroke-width:0.027777778px;stroke-linecap:round;stroke-linejoin:round;stroke-miterlimit:4;stroke-dasharray:none;stroke-opacity:1;"
     d="  M 494.30556,182.61111   L 494.30556,184.08333  "
     id="path41" />
  <path
     style="fill:none;stroke:#000000;stroke-width:0.027777778px;stroke-linecap:round;stroke-linejoin:round;stroke-miterlimit:4;stroke-dasharray:none;stroke-opacity:1;"
     d="  M 419.16667,180.19444   L 419.16667,184.08333  "
     id="path42" />
  <path
     style="fill:none;stroke:#000000;stroke-width:0.027777778px;stroke-linecap:round;stroke-linejoin:round;stroke-miterlimit:4;stroke-dasharray:none;stroke-opacity:1;"
     d="  M 486.52778,188   L 426.97222,188  "
     id="path43" />
  <path
     style="fill:#000000;fill-rule:evenodd;fill-opacity:1;stroke:none;"
     d="  M 486.52778,186.69444   L 486.52778,189.27778   L 494.30556,188  z "
     id="path44" />
  <path
     style="fill:none;stroke:#000000;stroke-width:0.027777778px;stroke-linecap:round;stroke-linejoin:round;stroke-miterlimit:4;stroke-dasharray:none;stroke-opacity:1;"
     d="  M 486.52778,186.69444   L 486.52778,189.27778   L 494.30556,188   L 486.52778,186.69444  z "
     id="path45" />
  <path
     style="fill:#000000;fill-rule:evenodd;fill-opacity:1;stroke:none;"
     d="  M 426.97222,186.69444   L 426.97222,189.27778   L 419.16667,188  z "
     id="path46" />
  <path
     style="fill:none;stroke:#000000;stroke-width:0.027777778px;stroke-linecap:round;stroke-linejoin:round;stroke-miterlimit:4;stroke-dasharray:none;stroke-opacity:1;"
     d="  M 426.97222,186.69444   L 426.97222,189.27778   L 419.16667,188   L 426.97222,186.69444  z "
     id="path47" />
  <path
     style="fill:none;stroke:#000000;stroke-width:0.027777778px;stroke-linecap:round;stroke-linejoin:round;stroke-miterlimit:4;stroke-dasharray:none;stroke-opacity:1;"
     d="  M 458.63889,176.88889   L 458.63889,183.19444  "
     id="path48" />
  <path
     style="fill:none;stroke:#000000;stroke-width:0.027777778px;stroke-linecap:round;stroke-linejoin:round;stroke-miterlimit:4;stroke-dasharray:none;stroke-opacity:1;"
     d="  M 458.63889,178.22222   L 458,177.33333   L 457.36111,176.88889   L 456.41667,176.88889   L 455.80556,177.33333   L 455.16667,178.22222   L 454.86111,179.58333   L 454.86111,180.47222   L 455.16667,181.83333   L 455.80556,182.72222   L 456.41667,183.19444   L 457.36111,183.19444   L 458,182.72222   L 458.63889,181.83333  "
     id="path49" />
  <path
     style="fill:none;stroke:#000000;stroke-width:0.027777778px;stroke-linecap:round;stroke-linejoin:round;stroke-miterlimit:4;stroke-dasharray:none;stroke-opacity:1;"
     d="  M 283.22222,188.86111   L 282.75,189.08333   L 282.41667,189.75   L 282.27778,190.88889   L 282.27778,191.55556   L 282.41667,192.69444   L 282.75,193.36111   L 283.22222,193.58333   L 283.52778,193.58333   L 284,193.36111   L 284.30556,192.69444   L 284.47222,191.55556   L 284.47222,190.88889   L 284.30556,189.75   L 284,189.08333   L 283.52778,188.86111   L 283.22222,188.86111  z "
     id="path50" />
  <path
     style="fill:none;stroke:#000000;stroke-width:0.027777778px;stroke-linecap:round;stroke-linejoin:round;stroke-miterlimit:4;stroke-dasharray:none;stroke-opacity:1;"
     d="  M 390.36111,128.47222   L 390.36111,119.02778  "
     id="path51" />
  <path
     style="fill:none;stroke:#000000;stroke-width:0.027777778px;stroke-linecap:round;stroke-linejoin:round;stroke-miterlimit:4;stroke-dasharray:none;stroke-opacity:1;"
     d="  M 390.36111,123.52778   L 391,122.63889   L 391.63889,122.16667   L 392.58333,122.16667   L 393.22222,122.63889   L 393.83333,123.52778   L 394.16667,124.88889   L 394.16667,125.77778   L 393.83333,127.13889   L 393.22222,128.02778   L 392.58333,128.47222   L 391.63889,128.47222   L 391,128.02778   L 390.36111,127.13889  "
     id="path52" />
  <path
     style="fill:none;stroke:#000000;stroke-width:0.027777778px;stroke-linecap:round;stroke-linejoin:round;stroke-miterlimit:4;stroke-dasharray:none;stroke-opacity:1;"
     d="  M 390.36111,257.38889   L 390.36111,247.94444  "
     id="path53" />
  <path
     style="fill:none;stroke:#000000;stroke-width:0.027777778px;stroke-linecap:round;stroke-linejoin:round;stroke-miterlimit:4;stroke-dasharray:none;stroke-opacity:1;"
     d="  M 390.36111,252.44444   L 391,251.55556   L 391.63889,251.08333   L 392.58333,251.08333   L 393.22222,251.55556   L 393.83333,252.44444   L 394.16667,253.80556   L 394.16667,254.69444   L 393.83333,256.05556   L 393.22222,256.94444   L 392.58333,257.38889   L 391.63889,257.38889   L 391,256.94444   L 390.36111,256.05556  "
     id="path54" />
  <path
     style="fill:none;stroke:#000000;stroke-width:0.027777778px;stroke-linecap:round;stroke-linejoin:round;stroke-miterlimit:4;stroke-dasharray:none;stroke-opacity:1;"
     d="  M 186.47222,375.33333   L 494.94444,375.33333  "
     id="path55" />
  <path
     style="fill:none;stroke:#000000;stroke-width:0.027777778px;stroke-linecap:round;stroke-linejoin:round;stroke-miterlimit:4;stroke-dasharray:none;stroke-opacity:1;"
     d="  M 186.47222,409.47222   L 494.94444,409.47222  "
     id="path56" />
  <path
     style="fill:none;stroke:#000000;stroke-width:0.027777778px;stroke-linecap:round;stroke-linejoin:round;stroke-miterlimit:4;stroke-dasharray:none;stroke-opacity:1;"
     d="  M 350.88889,375.33333   L 350.88889,409.47222  "
     id="path57" />
  <path
     style="fill:none;stroke:#000000;stroke-width:0.027777778px;stroke-linecap:round;stroke-linejoin:round;stroke-miterlimit:4;stroke-dasharray:none;stroke-opacity:1;"
     d="  M 419.13889,375.33333   L 419.13889,409.47222  "
     id="path58" />
  <path
     style="fill:none;stroke:#000000;stroke-width:0.027777778px;stroke-linecap:round;stroke-linejoin:round;stroke-miterlimit:4;stroke-dasharray:none;stroke-opacity:1;"
     d="  M 494.94444,375.33333   L 494.94444,409.47222  "
     id="path59" />
  <path
     style="fill:none;stroke:#000000;stroke-width:0.027777778px;stroke-linecap:round;stroke-linejoin:round;stroke-miterlimit:4;stroke-dasharray:none;stroke-opacity:1;"
     d="  M 502.75,409.47222   L 528.80556,409.47222  "
     id="path60" />
  <path
     style="fill:none;stroke:#000000;stroke-width:0.027777778px;stroke-linecap:round;stroke-linejoin:round;stroke-miterlimit:4;stroke-dasharray:none;stroke-opacity:1;"
     d="  M 502.75,375.33333   L 528.80556,375.33333  "
     id="path61" />
  <path
     style="fill:none;stroke:#000000;stroke-width:0.027777778px;stroke-linecap:round;stroke-linejoin:round;stroke-miterlimit:4;stroke-dasharray:none;stroke-opacity:1;"
     d="  M 524.91667,401.66667   L 524.91667,383.13889  "
     id="path62" />
  <path
     style="fill:#000000;fill-rule:evenodd;fill-opacity:1;stroke:none;"
     d="  M 523.61111,401.66667   L 526.19444,401.66667   L 524.91667,409.47222  z "
     id="path63" />
  <path
     style="fill:none;stroke:#000000;stroke-width:0.027777778px;stroke-linecap:round;stroke-linejoin:round;stroke-miterlimit:4;stroke-dasharray:none;stroke-opacity:1;"
     d="  M 523.61111,401.66667   L 526.19444,401.66667   L 524.91667,409.47222   L 523.61111,401.66667  z "
     id="path64" />
  <path
     style="fill:#000000;fill-rule:evenodd;fill-opacity:1;stroke:none;"
     d="  M 523.61111,383.13889   L 526.19444,383.13889   L 524.91667,375.33333  z "
     id="path65" />
  <path
     style="fill:none;stroke:#000000;stroke-width:0.027777778px;stroke-linecap:round;stroke-linejoin:round;stroke-miterlimit:4;stroke-dasharray:none;stroke-opacity:1;"
     d="  M 523.61111,383.13889   L 526.19444,383.13889   L 524.91667,375.33333   L 523.61111,383.13889  z "
     id="path66" />
  <path
     style="fill:none;stroke:#000000;stroke-width:0.027777778px;stroke-linecap:round;stroke-linejoin:round;stroke-miterlimit:4;stroke-dasharray:none;stroke-opacity:1;"
     d="  M 514.69444,387.88889   L 514.69444,395.55556   L 515,396.88889   L 515.63889,397.36111   L 516.27778,397.36111  "
     id="path67" />
  <path
     style="fill:none;stroke:#000000;stroke-width:0.027777778px;stroke-linecap:round;stroke-linejoin:round;stroke-miterlimit:4;stroke-dasharray:none;stroke-opacity:1;"
     d="  M 513.75,391.05556   L 515.94444,391.05556  "
     id="path68" />
  <path
     style="fill:none;stroke:#000000;stroke-width:0.027777778px;stroke-linecap:round;stroke-linejoin:round;stroke-miterlimit:4;stroke-dasharray:none;stroke-opacity:1;"
     d="  M 147.72222,392.38889   L 186.47222,392.38889  "
     id="path69" />
  <path
     style="fill:#000000;fill-rule:evenodd;fill-opacity:1;stroke:none;"
     d="  M 147.72222,389.80556   L 147.72222,395   L 132.11111,392.38889  z "
     id="path70" />
  <path
     style="fill:none;stroke:#000000;stroke-width:0.027777778px;stroke-linecap:round;stroke-linejoin:round;stroke-miterlimit:4;stroke-dasharray:none;stroke-opacity:1;"
     d="  M 147.72222,389.80556   L 147.72222,395   L 132.11111,392.38889   L 147.72222,389.80556  z "
     id="path71" />
  <path
     style="fill:none;stroke:#000000;stroke-width:0.027777778px;stroke-linecap:round;stroke-linejoin:round;stroke-miterlimit:4;stroke-dasharray:none;stroke-opacity:1;"
     d="  M 121.75,400.55556   L 121.75,384.80556   L 129.11111,400.55556   L 129.11111,384.80556  "
     id="path72" />
</svg>
