<?xml version="1.0" encoding="UTF-8" standalone="no"?>
<svg
   version="1.0"
   width="80.150002mm"
   height="88.82mm"
   id="svg73"
   sodipodi:docname="image129.emf"
   xmlns:inkscape="http://www.inkscape.org/namespaces/inkscape"
   xmlns:sodipodi="http://sodipodi.sourceforge.net/DTD/sodipodi-0.dtd"
   xmlns="http://www.w3.org/2000/svg"
   xmlns:svg="http://www.w3.org/2000/svg">
  <sodipodi:namedview
     id="namedview73"
     pagecolor="#ffffff"
     bordercolor="#000000"
     borderopacity="0.25"
     inkscape:showpageshadow="2"
     inkscape:pageopacity="0.0"
     inkscape:pagecheckerboard="0"
     inkscape:deskcolor="#d1d1d1"
     inkscape:document-units="mm" />
  <defs
     id="defs1">
    <pattern
       id="EMFhbasepattern"
       patternUnits="userSpaceOnUse"
       width="6"
       height="6"
       x="0"
       y="0" />
  </defs>
  <path
     style="fill:none;stroke:#000000;stroke-width:0.95795584px;stroke-linecap:round;stroke-linejoin:round;stroke-miterlimit:4;stroke-dasharray:none;stroke-opacity:1;"
     d="  M 150.08174,306.87111   L 150.08174,201.96923  "
     id="path1" />
  <path
     style="fill:none;stroke:#000000;stroke-width:0.95795584px;stroke-linecap:round;stroke-linejoin:round;stroke-miterlimit:4;stroke-dasharray:none;stroke-opacity:1;"
     d="  M 150.08174,181.13283   L 150.08174,160.29642  "
     id="path2" />
  <path
     style="fill:none;stroke:#000000;stroke-width:0.95795584px;stroke-linecap:round;stroke-linejoin:round;stroke-miterlimit:4;stroke-dasharray:none;stroke-opacity:1;"
     d="  M 150.08174,139.42003   L 150.08174,34.558135  "
     id="path3" />
  <path
     style="fill:none;stroke:#000000;stroke-width:0.95795584px;stroke-linecap:round;stroke-linejoin:round;stroke-miterlimit:4;stroke-dasharray:none;stroke-opacity:1;"
     d="  M 8.7433358,127.982   L 8.7433358,52.635014  "
     id="path4" />
  <path
     style="fill:none;stroke:#000000;stroke-width:0.95795584px;stroke-linecap:round;stroke-linejoin:round;stroke-miterlimit:4;stroke-dasharray:none;stroke-opacity:1;"
     d="  M 141.73954,127.982   L 141.73954,52.635014  "
     id="path5" />
  <path
     style="fill:none;stroke:#000000;stroke-width:0.95795584px;stroke-linecap:round;stroke-linejoin:round;stroke-miterlimit:4;stroke-dasharray:none;stroke-opacity:1;"
     d="  M 0.40113691,60.953578   L 150.08174,60.953578  "
     id="path6" />
  <path
     style="fill:#000000;fill-rule:evenodd;fill-opacity:1;stroke:none;"
     d="  M 16.087664,56.554337   L 13.133967,53.594848   L 4.31279,68.312307   z "
     id="path7" />
  <path
     style="fill:#000000;fill-rule:evenodd;fill-opacity:1;stroke:none;"
     d="  M 13.133967,53.594848   L 4.31279,68.312307   L 1.3990076,65.392811   z "
     id="path8" />
  <path
     style="fill:#000000;fill-rule:evenodd;fill-opacity:1;stroke:none;"
     d="  M 134.39521,65.392811   L 137.34891,68.312307   L 146.17009,53.594848   z "
     id="path9" />
  <path
     style="fill:#000000;fill-rule:evenodd;fill-opacity:1;stroke:none;"
     d="  M 137.34891,68.312307   L 146.17009,53.594848   L 149.12378,56.554337   z "
     id="path10" />
  <path
     style="fill:none;stroke:#000000;stroke-width:0.95795584px;stroke-linecap:round;stroke-linejoin:round;stroke-miterlimit:4;stroke-dasharray:none;stroke-opacity:1;"
     d="  M 71.21004,50.715345   L 71.21004,30.47884  "
     id="path11" />
  <path
     style="fill:none;stroke:#000000;stroke-width:0.95795584px;stroke-linecap:round;stroke-linejoin:round;stroke-miterlimit:4;stroke-dasharray:none;stroke-opacity:1;"
     d="  M 71.21004,40.117175   L 72.567144,38.197507   L 73.884333,37.237673   L 75.91999,37.237673   L 77.277094,38.197507   L 78.594283,40.117175   L 79.272835,42.996678   L 79.272835,44.916347   L 78.594283,47.79585   L 77.277094,49.715518   L 75.91999,50.715345   L 73.884333,50.715345   L 72.567144,49.715518   L 71.21004,47.79585  "
     id="path12" />
  <path
     style="fill:none;stroke:#000000;stroke-width:0.95795584px;stroke-linecap:round;stroke-linejoin:round;stroke-miterlimit:4;stroke-dasharray:none;stroke-opacity:1;"
     d="  M 158.34411,127.982   L 158.34411,52.155097  "
     id="path13" />
  <path
     style="fill:none;stroke:#000000;stroke-width:0.95795584px;stroke-linecap:round;stroke-linejoin:round;stroke-miterlimit:4;stroke-dasharray:none;stroke-opacity:1;"
     d="  M 291.38023,127.982   L 291.38023,52.155097  "
     id="path14" />
  <path
     style="fill:none;stroke:#000000;stroke-width:0.95795584px;stroke-linecap:round;stroke-linejoin:round;stroke-miterlimit:4;stroke-dasharray:none;stroke-opacity:1;"
     d="  M 150.04182,60.47366   L 299.72242,60.47366  "
     id="path15" />
  <path
     style="fill:#000000;fill-rule:evenodd;fill-opacity:1;stroke:none;"
     d="  M 165.72835,56.034427   L 162.77465,53.114931   L 153.95348,67.83239   z "
     id="path16" />
  <path
     style="fill:#000000;fill-rule:evenodd;fill-opacity:1;stroke:none;"
     d="  M 162.77465,53.114931   L 153.95348,67.83239   L 150.99978,64.912894   z "
     id="path17" />
  <path
     style="fill:#000000;fill-rule:evenodd;fill-opacity:1;stroke:none;"
     d="  M 284.0359,64.912894   L 286.98959,67.83239   L 295.81077,53.114931   z "
     id="path18" />
  <path
     style="fill:#000000;fill-rule:evenodd;fill-opacity:1;stroke:none;"
     d="  M 286.98959,67.83239   L 295.81077,53.114931   L 298.72455,56.034427   z "
     id="path19" />
  <path
     style="fill:none;stroke:#000000;stroke-width:0.95795584px;stroke-linecap:round;stroke-linejoin:round;stroke-miterlimit:4;stroke-dasharray:none;stroke-opacity:1;"
     d="  M 220.85073,50.195435   L 220.85073,29.998923  "
     id="path20" />
  <path
     style="fill:none;stroke:#000000;stroke-width:0.95795584px;stroke-linecap:round;stroke-linejoin:round;stroke-miterlimit:4;stroke-dasharray:none;stroke-opacity:1;"
     d="  M 220.85073,39.637258   L 222.20783,37.71759   L 223.52502,36.757756   L 225.56068,36.757756   L 226.87787,37.71759   L 228.23497,39.637258   L 228.91352,42.516761   L 228.91352,44.43643   L 228.23497,47.315932   L 226.87787,49.235601   L 225.56068,50.195435   L 223.52502,50.195435   L 222.20783,49.235601   L 220.85073,47.315932  "
     id="path21" />
  <path
     style="fill:#000000;fill-rule:evenodd;fill-opacity:1;stroke:none;"
     d="  M 167.24511,283.47515   L 167.24511,280.99558   L 171.2366,281.79544   z "
     id="path22" />
  <path
     style="fill:#000000;fill-rule:evenodd;fill-opacity:1;stroke:none;"
     d="  M 167.24511,280.99558   L 171.2366,281.79544   L 169.48034,280.03575   z "
     id="path23" />
  <path
     style="fill:#000000;fill-rule:evenodd;fill-opacity:1;stroke:none;"
     d="  M 171.2366,281.79544   L 169.48034,280.03575   L 172.91302,277.79613   z "
     id="path24" />
  <path
     style="fill:#000000;fill-rule:evenodd;fill-opacity:1;stroke:none;"
     d="  M 169.48034,280.03575   L 172.91302,277.79613   L 170.4383,277.79613   z "
     id="path25" />
  <path
     style="fill:#000000;fill-rule:evenodd;fill-opacity:1;stroke:none;"
     d="  M 184.9673,160.93631   L 184.9673,163.41589   L 174.66927,165.17558   z "
     id="path26" />
  <path
     style="fill:#000000;fill-rule:evenodd;fill-opacity:1;stroke:none;"
     d="  M 184.9673,163.41589   L 174.66927,165.17558   L 176.42552,166.97527   z "
     id="path27" />
  <path
     style="fill:#000000;fill-rule:evenodd;fill-opacity:1;stroke:none;"
     d="  M 174.66927,165.17558   L 176.42552,166.97527   L 170.4383,175.4938   z "
     id="path28" />
  <path
     style="fill:#000000;fill-rule:evenodd;fill-opacity:1;stroke:none;"
     d="  M 176.42552,166.97527   L 170.4383,175.4938   L 172.91302,175.4938   z "
     id="path29" />
  <path
     style="fill:#000000;fill-rule:evenodd;fill-opacity:1;stroke:none;"
     d="  M 286.94968,163.41589   L 286.94968,160.93631   L 290.98108,161.73618   z "
     id="path30" />
  <path
     style="fill:#000000;fill-rule:evenodd;fill-opacity:1;stroke:none;"
     d="  M 286.94968,160.93631   L 290.98108,161.73618   L 289.22483,159.97648   z "
     id="path31" />
  <path
     style="fill:#000000;fill-rule:evenodd;fill-opacity:1;stroke:none;"
     d="  M 290.98108,161.73618   L 289.22483,159.97648   L 292.6575,157.73687   z "
     id="path32" />
  <path
     style="fill:#000000;fill-rule:evenodd;fill-opacity:1;stroke:none;"
     d="  M 289.22483,159.97648   L 292.6575,157.73687   L 290.14287,157.73687   z "
     id="path33" />
  <path
     style="fill:#000000;fill-rule:evenodd;fill-opacity:1;stroke:none;"
     d="  M 157.10675,282.23537   L 159.62138,282.23537   L 157.10675,148.81841   z "
     id="path34" />
  <path
     style="fill:#000000;fill-rule:evenodd;fill-opacity:1;stroke:none;"
     d="  M 159.62138,282.23537   L 157.10675,148.81841   L 159.62138,148.81841   z "
     id="path35" />
  <path
     style="fill:#000000;fill-rule:evenodd;fill-opacity:1;stroke:none;"
     d="  M 167.24511,283.47515   L 167.24511,280.99558   L 158.34411,283.47515   z "
     id="path36" />
  <path
     style="fill:#000000;fill-rule:evenodd;fill-opacity:1;stroke:none;"
     d="  M 167.24511,280.99558   L 158.34411,283.47515   L 158.34411,280.99558   z "
     id="path37" />
  <path
     style="fill:#000000;fill-rule:evenodd;fill-opacity:1;stroke:none;"
     d="  M 172.91302,175.4938   L 170.4383,175.4938   L 172.91302,277.79613   z "
     id="path38" />
  <path
     style="fill:#000000;fill-rule:evenodd;fill-opacity:1;stroke:none;"
     d="  M 170.4383,175.4938   L 172.91302,277.79613   L 170.4383,277.79613   z "
     id="path39" />
  <path
     style="fill:#000000;fill-rule:evenodd;fill-opacity:1;stroke:none;"
     d="  M 286.94968,163.41589   L 286.94968,160.93631   L 184.9673,163.41589   z "
     id="path40" />
  <path
     style="fill:#000000;fill-rule:evenodd;fill-opacity:1;stroke:none;"
     d="  M 286.94968,160.93631   L 184.9673,163.41589   L 184.9673,160.93631   z "
     id="path41" />
  <path
     style="fill:#000000;fill-rule:evenodd;fill-opacity:1;stroke:none;"
     d="  M 292.6575,148.81841   L 290.14287,148.81841   L 292.6575,157.73687   z "
     id="path42" />
  <path
     style="fill:#000000;fill-rule:evenodd;fill-opacity:1;stroke:none;"
     d="  M 290.14287,148.81841   L 292.6575,157.73687   L 290.14287,157.73687   z "
     id="path43" />
  <path
     style="fill:#000000;fill-rule:evenodd;fill-opacity:1;stroke:none;"
     d="  M 291.38023,150.09818   L 291.38023,147.57862   L 158.34411,150.09818   z "
     id="path44" />
  <path
     style="fill:#000000;fill-rule:evenodd;fill-opacity:1;stroke:none;"
     d="  M 291.38023,147.57862   L 158.34411,150.09818   L 158.34411,147.57862   z "
     id="path45" />
  <path
     style="fill:#000000;fill-rule:evenodd;fill-opacity:1;stroke:none;"
     d="  M 127.21054,277.79613   L 129.68526,277.79613   L 128.88697,281.79544   z "
     id="path46" />
  <path
     style="fill:#000000;fill-rule:evenodd;fill-opacity:1;stroke:none;"
     d="  M 129.68526,277.79613   L 128.88697,281.79544   L 130.64322,280.03575   z "
     id="path47" />
  <path
     style="fill:#000000;fill-rule:evenodd;fill-opacity:1;stroke:none;"
     d="  M 128.88697,281.79544   L 130.64322,280.03575   L 132.87845,283.47515   z "
     id="path48" />
  <path
     style="fill:#000000;fill-rule:evenodd;fill-opacity:1;stroke:none;"
     d="  M 130.64322,280.03575   L 132.87845,283.47515   L 132.87845,280.99558   z "
     id="path49" />
  <path
     style="fill:#000000;fill-rule:evenodd;fill-opacity:1;stroke:none;"
     d="  M 129.68526,175.4938   L 127.21054,175.4938   L 125.45429,165.17558   z "
     id="path50" />
  <path
     style="fill:#000000;fill-rule:evenodd;fill-opacity:1;stroke:none;"
     d="  M 127.21054,175.4938   L 125.45429,165.17558   L 123.65812,166.97527   z "
     id="path51" />
  <path
     style="fill:#000000;fill-rule:evenodd;fill-opacity:1;stroke:none;"
     d="  M 125.45429,165.17558   L 123.65812,166.97527   L 115.15626,160.93631   z "
     id="path52" />
  <path
     style="fill:#000000;fill-rule:evenodd;fill-opacity:1;stroke:none;"
     d="  M 123.65812,166.97527   L 115.15626,160.93631   L 115.15626,163.41589   z "
     id="path53" />
  <path
     style="fill:#000000;fill-rule:evenodd;fill-opacity:1;stroke:none;"
     d="  M 7.4660613,157.73687   L 9.9806954,157.73687   L 9.142484,161.73618   z "
     id="path54" />
  <path
     style="fill:#000000;fill-rule:evenodd;fill-opacity:1;stroke:none;"
     d="  M 9.9806954,157.73687   L 9.142484,161.73618   L 10.898736,159.97648   z "
     id="path55" />
  <path
     style="fill:#000000;fill-rule:evenodd;fill-opacity:1;stroke:none;"
     d="  M 9.142484,161.73618   L 10.898736,159.97648   L 13.173882,163.41589   z "
     id="path56" />
  <path
     style="fill:#000000;fill-rule:evenodd;fill-opacity:1;stroke:none;"
     d="  M 10.898736,159.97648   L 13.173882,163.41589   L 13.173882,160.93631   z "
     id="path57" />
  <path
     style="fill:#000000;fill-rule:evenodd;fill-opacity:1;stroke:none;"
     d="  M 140.50218,282.23537   L 143.01681,282.23537   L 140.50218,148.81841   z "
     id="path58" />
  <path
     style="fill:#000000;fill-rule:evenodd;fill-opacity:1;stroke:none;"
     d="  M 143.01681,282.23537   L 140.50218,148.81841   L 143.01681,148.81841   z "
     id="path59" />
  <path
     style="fill:#000000;fill-rule:evenodd;fill-opacity:1;stroke:none;"
     d="  M 132.87845,280.99558   L 132.87845,283.47515   L 141.73954,280.99558   z "
     id="path60" />
  <path
     style="fill:#000000;fill-rule:evenodd;fill-opacity:1;stroke:none;"
     d="  M 132.87845,283.47515   L 141.73954,280.99558   L 141.73954,283.47515   z "
     id="path61" />
  <path
     style="fill:#000000;fill-rule:evenodd;fill-opacity:1;stroke:none;"
     d="  M 129.68526,175.4938   L 127.21054,175.4938   L 129.68526,277.79613   z "
     id="path62" />
  <path
     style="fill:#000000;fill-rule:evenodd;fill-opacity:1;stroke:none;"
     d="  M 127.21054,175.4938   L 129.68526,277.79613   L 127.21054,277.79613   z "
     id="path63" />
  <path
     style="fill:#000000;fill-rule:evenodd;fill-opacity:1;stroke:none;"
     d="  M 13.173882,160.93631   L 13.173882,163.41589   L 115.15626,160.93631   z "
     id="path64" />
  <path
     style="fill:#000000;fill-rule:evenodd;fill-opacity:1;stroke:none;"
     d="  M 13.173882,163.41589   L 115.15626,160.93631   L 115.15626,163.41589   z "
     id="path65" />
  <path
     style="fill:#000000;fill-rule:evenodd;fill-opacity:1;stroke:none;"
     d="  M 9.9806954,148.81841   L 7.4660613,148.81841   L 9.9806954,157.73687   z "
     id="path66" />
  <path
     style="fill:#000000;fill-rule:evenodd;fill-opacity:1;stroke:none;"
     d="  M 7.4660613,148.81841   L 9.9806954,157.73687   L 7.4660613,157.73687   z "
     id="path67" />
  <path
     style="fill:#000000;fill-rule:evenodd;fill-opacity:1;stroke:none;"
     d="  M 8.7433358,147.57862   L 8.7433358,150.09818   L 141.73954,147.57862   z "
     id="path68" />
  <path
     style="fill:#000000;fill-rule:evenodd;fill-opacity:1;stroke:none;"
     d="  M 8.7433358,150.09818   L 141.73954,147.57862   L 141.73954,150.09818   z "
     id="path69" />
  <path
     style="fill:none;stroke:#000000;stroke-width:0.95795584px;stroke-linecap:round;stroke-linejoin:round;stroke-miterlimit:4;stroke-dasharray:none;stroke-opacity:1;"
     d="  M 146.44949,312.87008   L 150.48089,326.34775   L 154.51228,312.87008  "
     id="path70" />
  <path
     style="fill:none;stroke:#000000;stroke-width:0.95795584px;stroke-linecap:round;stroke-linejoin:round;stroke-miterlimit:4;stroke-dasharray:none;stroke-opacity:1;"
     d="  M 150.48089,326.34775   L 148.44523,332.10676   L 147.76668,333.06659   L 145.77094,333.06659  "
     id="path71" />
  <path
     style="fill:none;stroke:#000000;stroke-width:0.95795584px;stroke-linecap:round;stroke-linejoin:round;stroke-miterlimit:4;stroke-dasharray:none;stroke-opacity:1;"
     d="  M 146.44949,0.4040328   L 150.48089,13.881706   L 154.51228,0.4040328  "
     id="path72" />
  <path
     style="fill:none;stroke:#000000;stroke-width:0.95795584px;stroke-linecap:round;stroke-linejoin:round;stroke-miterlimit:4;stroke-dasharray:none;stroke-opacity:1;"
     d="  M 150.48089,13.881706   L 148.44523,19.680704   L 147.76668,20.640539   L 145.77094,20.640539  "
     id="path73" />
</svg>
