<?xml version="1.0" encoding="UTF-8" standalone="no"?>
<svg
   version="1.0"
   width="73.57mm"
   height="69.379997mm"
   id="svg91"
   sodipodi:docname="image229.emf"
   xmlns:inkscape="http://www.inkscape.org/namespaces/inkscape"
   xmlns:sodipodi="http://sodipodi.sourceforge.net/DTD/sodipodi-0.dtd"
   xmlns="http://www.w3.org/2000/svg"
   xmlns:svg="http://www.w3.org/2000/svg">
  <sodipodi:namedview
     id="namedview91"
     pagecolor="#ffffff"
     bordercolor="#000000"
     borderopacity="0.25"
     inkscape:showpageshadow="2"
     inkscape:pageopacity="0.0"
     inkscape:pagecheckerboard="0"
     inkscape:deskcolor="#d1d1d1"
     inkscape:document-units="mm" />
  <defs
     id="defs1">
    <pattern
       id="EMFhbasepattern"
       patternUnits="userSpaceOnUse"
       width="6"
       height="6"
       x="0"
       y="0" />
  </defs>
  <path
     style="fill:none;stroke:#000000;stroke-width:0.049957681px;stroke-linecap:round;stroke-linejoin:round;stroke-miterlimit:4;stroke-dasharray:none;stroke-opacity:1;"
     d="  M 261.27145,249.38018   L 261.27145,130.00528   L 275.40947,125.4911   L 247.13342,117.76684   L 261.27145,113.25266   L 261.27145,0.29792359  "
     id="path1" />
  <path
     style="fill:#000000;fill-rule:evenodd;fill-opacity:1;stroke:none;"
     d="  M 99.608395,232.17615   L 104.65412,244.21395   L 95.961485,234.48339   z "
     id="path2" />
  <path
     style="fill:none;stroke:#000000;stroke-width:0.049957681px;stroke-linecap:round;stroke-linejoin:round;stroke-miterlimit:4;stroke-dasharray:none;stroke-opacity:1;"
     d="  M 99.608395,232.17615   L 104.65412,244.21395   L 95.961485,234.48339   L 99.608395,232.17615   z "
     id="path3" />
  <path
     style="fill:none;stroke:#000000;stroke-width:0.049957681px;stroke-linecap:round;stroke-linejoin:round;stroke-miterlimit:4;stroke-dasharray:none;stroke-opacity:1;"
     d="  M 97.759961,233.32977   L 56.694748,168.02468  "
     id="path4" />
  <path
     style="fill:none;stroke:#000000;stroke-width:0.049957681px;stroke-linecap:round;stroke-linejoin:round;stroke-miterlimit:4;stroke-dasharray:none;stroke-opacity:1;"
     d="  M 56.694748,168.02468   L 0.29252786,168.02468  "
     id="path5" />
  <path
     style="fill:none;stroke:#000000;stroke-width:0.049957681px;stroke-linecap:round;stroke-linejoin:round;stroke-miterlimit:4;stroke-dasharray:none;stroke-opacity:1;"
     d="  M 17.228181,152.42569   L 18.227335,151.67332   L 19.825981,149.46639   L 19.825981,165.11554  "
     id="path6" />
  <path
     style="fill:none;stroke:#000000;stroke-width:0.049957681px;stroke-linecap:round;stroke-linejoin:round;stroke-miterlimit:4;stroke-dasharray:none;stroke-opacity:1;"
     d="  M 104.65412,28.085191   L 113.6465,18.404789  "
     id="path7" />
  <path
     style="fill:none;stroke:#000000;stroke-width:0.049957681px;stroke-linecap:round;stroke-linejoin:round;stroke-miterlimit:4;stroke-dasharray:none;stroke-opacity:1;"
     d="  M 104.65412,105.47825   L 104.65412,90.681778  "
     id="path8" />
  <path
     style="fill:none;stroke:#000000;stroke-width:0.049957681px;stroke-linecap:round;stroke-linejoin:round;stroke-miterlimit:4;stroke-dasharray:none;stroke-opacity:1;"
     d="  M 113.6465,105.47825   L 113.6465,90.681778  "
     id="path9" />
  <path
     style="fill:none;stroke:#000000;stroke-width:0.049957681px;stroke-linecap:round;stroke-linejoin:round;stroke-miterlimit:4;stroke-dasharray:none;stroke-opacity:1;"
     d="  M 104.65412,97.101941   L 98.20958,97.101941  "
     id="path10" />
  <path
     style="fill:none;stroke:#000000;stroke-width:0.049957681px;stroke-linecap:round;stroke-linejoin:round;stroke-miterlimit:4;stroke-dasharray:none;stroke-opacity:1;"
     d="  M 113.6465,97.101941   L 120.09104,97.101941  "
     id="path11" />
  <path
     style="fill:none;stroke:#000000;stroke-width:0.049957681px;stroke-linecap:round;stroke-linejoin:round;stroke-miterlimit:4;stroke-dasharray:none;stroke-opacity:1;"
     d="  M 92.964024,75.032631   L 92.964024,87.672327   L 93.513559,89.929415   L 94.56267,90.681778   L 95.561823,90.681778  "
     id="path12" />
  <path
     style="fill:none;stroke:#000000;stroke-width:0.049957681px;stroke-linecap:round;stroke-linejoin:round;stroke-miterlimit:4;stroke-dasharray:none;stroke-opacity:1;"
     d="  M 91.415336,80.249013   L 95.062247,80.249013  "
     id="path13" />
  <path
     style="fill:none;stroke:#000000;stroke-width:0.049957681px;stroke-linecap:round;stroke-linejoin:round;stroke-miterlimit:4;stroke-dasharray:none;stroke-opacity:1;"
     d="  M 104.65412,97.101941   L 113.6465,97.101941  "
     id="path14" />
  <path
     style="fill:#000000;fill-rule:evenodd;fill-opacity:1;stroke:none;"
     d="  M 98.958946,100.56281   L 101.257,102.8199   L 108.05124,91.434141   z "
     id="path15" />
  <path
     style="fill:#000000;fill-rule:evenodd;fill-opacity:1;stroke:none;"
     d="  M 101.257,102.8199   L 108.05124,91.434141   L 110.29934,93.691229   z "
     id="path16" />
  <path
     style="fill:none;stroke:#000000;stroke-width:0.049957681px;stroke-linecap:round;stroke-linejoin:round;stroke-miterlimit:4;stroke-dasharray:none;stroke-opacity:1;"
     d="  M 98.958946,100.56281   L 101.257,102.8199   L 110.29934,93.691229   L 108.05124,91.434141   L 98.958946,100.56281   z "
     id="path17" />
  <path
     style="fill:#000000;fill-rule:evenodd;fill-opacity:1;stroke:none;"
     d="  M 119.34168,93.691229   L 117.04363,91.434141   L 110.24938,102.8199   z "
     id="path18" />
  <path
     style="fill:#000000;fill-rule:evenodd;fill-opacity:1;stroke:none;"
     d="  M 117.04363,91.434141   L 110.24938,102.8199   L 107.95133,100.56281   z "
     id="path19" />
  <path
     style="fill:none;stroke:#000000;stroke-width:0.049957681px;stroke-linecap:round;stroke-linejoin:round;stroke-miterlimit:4;stroke-dasharray:none;stroke-opacity:1;"
     d="  M 119.34168,93.691229   L 117.04363,91.434141   L 107.95133,100.56281   L 110.24938,102.8199   L 119.34168,93.691229   z "
     id="path20" />
  <path
     style="fill:none;stroke:#000000;stroke-width:0.049957681px;stroke-linecap:round;stroke-linejoin:round;stroke-miterlimit:4;stroke-dasharray:none;stroke-opacity:1;"
     d="  M 104.65412,121.62897   L 104.70408,121.62897  "
     id="path21" />
  <path
     style="fill:none;stroke:#000000;stroke-width:0.049957681px;stroke-linecap:round;stroke-linejoin:round;stroke-miterlimit:4;stroke-dasharray:none;stroke-opacity:1;"
     d="  M 113.6465,121.62897   L 113.69646,121.62897  "
     id="path22" />
  <path
     style="fill:none;stroke:#000000;stroke-width:0.049957681px;stroke-linecap:round;stroke-linejoin:round;stroke-miterlimit:4;stroke-dasharray:none;stroke-opacity:1;"
     d="  M 113.6465,97.101941   L 113.69646,97.101941  "
     id="path23" />
  <path
     style="fill:none;stroke:#000000;stroke-width:0.049957681px;stroke-linecap:round;stroke-linejoin:round;stroke-miterlimit:4;stroke-dasharray:none;stroke-opacity:1;"
     d="  M 188.48311,224.85315   L 228.34934,224.85315  "
     id="path24" />
  <path
     style="fill:none;stroke:#000000;stroke-width:0.049957681px;stroke-linecap:round;stroke-linejoin:round;stroke-miterlimit:4;stroke-dasharray:none;stroke-opacity:1;"
     d="  M 182.03857,244.21395   L 228.34934,244.21395  "
     id="path25" />
  <path
     style="fill:none;stroke:#000000;stroke-width:0.049957681px;stroke-linecap:round;stroke-linejoin:round;stroke-miterlimit:4;stroke-dasharray:none;stroke-opacity:1;"
     d="  M 221.9048,224.85315   L 221.9048,218.43299  "
     id="path26" />
  <path
     style="fill:none;stroke:#000000;stroke-width:0.049957681px;stroke-linecap:round;stroke-linejoin:round;stroke-miterlimit:4;stroke-dasharray:none;stroke-opacity:1;"
     d="  M 221.9048,244.21395   L 221.9048,250.68427  "
     id="path27" />
  <path
     style="fill:none;stroke:#000000;stroke-width:0.049957681px;stroke-linecap:round;stroke-linejoin:round;stroke-miterlimit:4;stroke-dasharray:none;stroke-opacity:1;"
     d="  M 221.9048,224.85315   L 221.9048,244.21395  "
     id="path28" />
  <path
     style="fill:#000000;fill-rule:evenodd;fill-opacity:1;stroke:none;"
     d="  M 218.50767,219.18535   L 216.20962,221.44244   L 227.59997,228.31402   z "
     id="path29" />
  <path
     style="fill:#000000;fill-rule:evenodd;fill-opacity:1;stroke:none;"
     d="  M 216.20962,221.44244   L 227.59997,228.31402   L 225.30192,230.57111   z "
     id="path30" />
  <path
     style="fill:none;stroke:#000000;stroke-width:0.049957681px;stroke-linecap:round;stroke-linejoin:round;stroke-miterlimit:4;stroke-dasharray:none;stroke-opacity:1;"
     d="  M 218.50767,219.18535   L 216.20962,221.44244   L 225.30192,230.57111   L 227.59997,228.31402   L 218.50767,219.18535   z "
     id="path31" />
  <path
     style="fill:#000000;fill-rule:evenodd;fill-opacity:1;stroke:none;"
     d="  M 225.30192,249.93191   L 227.59997,247.67482   L 216.20962,240.80324   z "
     id="path32" />
  <path
     style="fill:#000000;fill-rule:evenodd;fill-opacity:1;stroke:none;"
     d="  M 227.59997,247.67482   L 216.20962,240.80324   L 218.50767,238.54615   z "
     id="path33" />
  <path
     style="fill:none;stroke:#000000;stroke-width:0.049957681px;stroke-linecap:round;stroke-linejoin:round;stroke-miterlimit:4;stroke-dasharray:none;stroke-opacity:1;"
     d="  M 225.30192,249.93191   L 227.59997,247.67482   L 218.50767,238.54615   L 216.20962,240.80324   L 225.30192,249.93191   z "
     id="path34" />
  <path
     style="fill:none;stroke:#000000;stroke-width:0.049957681px;stroke-linecap:round;stroke-linejoin:round;stroke-miterlimit:4;stroke-dasharray:none;stroke-opacity:1;"
     d="  M 203.62028,241.35497   L 202.87092,241.35497   L 201.37219,240.80324   L 200.67278,240.30167   L 199.92342,239.24836   L 199.92342,237.14174   L 200.67278,236.13859   L 201.37219,235.58686   L 202.87092,235.08528   L 204.36965,235.08528   L 205.81842,235.58686   L 208.06652,236.64017   L 215.46026,241.85655   L 215.46026,234.53355  "
     id="path35" />
  <path
     style="fill:none;stroke:#000000;stroke-width:0.049957681px;stroke-linecap:round;stroke-linejoin:round;stroke-miterlimit:4;stroke-dasharray:none;stroke-opacity:1;"
     d="  M 199.92342,229.8689   L 212.51275,229.8689   L 214.76085,229.31717   L 215.46026,228.31402   L 215.46026,227.26071  "
     id="path36" />
  <path
     style="fill:none;stroke:#000000;stroke-width:0.049957681px;stroke-linecap:round;stroke-linejoin:round;stroke-miterlimit:4;stroke-dasharray:none;stroke-opacity:1;"
     d="  M 205.11902,231.42378   L 205.11902,227.76229  "
     id="path37" />
  <path
     style="fill:none;stroke:#000000;stroke-width:0.049957681px;stroke-linecap:round;stroke-linejoin:round;stroke-miterlimit:4;stroke-dasharray:none;stroke-opacity:1;"
     d="  M 172.39674,224.85315   L 172.44669,224.85315  "
     id="path38" />
  <path
     style="fill:none;stroke:#000000;stroke-width:0.049957681px;stroke-linecap:round;stroke-linejoin:round;stroke-miterlimit:4;stroke-dasharray:none;stroke-opacity:1;"
     d="  M 165.95219,244.21395   L 166.00215,244.21395  "
     id="path39" />
  <path
     style="fill:none;stroke:#000000;stroke-width:0.049957681px;stroke-linecap:round;stroke-linejoin:round;stroke-miterlimit:4;stroke-dasharray:none;stroke-opacity:1;"
     d="  M 221.9048,244.21395   L 221.95475,244.21395  "
     id="path40" />
  <path
     style="fill:none;stroke:#000000;stroke-width:0.049957681px;stroke-linecap:round;stroke-linejoin:round;stroke-miterlimit:4;stroke-dasharray:none;stroke-opacity:1;"
     d="  M 212.46279,249.17955   L 207.36711,260.06373  "
     id="path41" />
  <path
     style="fill:none;stroke:#000000;stroke-width:0.049957681px;stroke-linecap:round;stroke-linejoin:round;stroke-miterlimit:4;stroke-dasharray:none;stroke-opacity:1;"
     d="  M 207.36711,260.06373   L 202.0716,250.13254  "
     id="path42" />
  <path
     style="fill:none;stroke:#000000;stroke-width:0.049957681px;stroke-linecap:round;stroke-linejoin:round;stroke-miterlimit:4;stroke-dasharray:none;stroke-opacity:1;"
     d="  M 205.46872,260.61546   L 200.17321,250.68427  "
     id="path43" />
  <path
     style="fill:none;stroke:#000000;stroke-width:0.049957681px;stroke-linecap:round;stroke-linejoin:round;stroke-miterlimit:4;stroke-dasharray:none;stroke-opacity:1;"
     d="  M 113.6465,234.63387   L 122.58893,224.85315  "
     id="path44" />
  <path
     style="fill:#000000;fill-rule:evenodd;fill-opacity:1;stroke:none;"
     d="  M 113.6465,18.404789   L 104.65412,28.085191   L 113.6465,28.085191   z "
     id="path45" />
  <path
     style="fill:none;stroke:#000000;stroke-width:0.049957681px;stroke-linecap:round;stroke-linejoin:round;stroke-miterlimit:4;stroke-dasharray:none;stroke-opacity:1;"
     d="  M 113.6465,18.404789   L 104.65412,28.085191   L 113.6465,28.085191   L 113.6465,18.404789   z "
     id="path46" />
  <path
     style="fill:#000000;fill-rule:evenodd;fill-opacity:1;stroke:none;"
     d="  M 104.65412,28.085191   L 113.6465,28.085191   L 113.6465,28.085191   z "
     id="path47" />
  <path
     style="fill:none;stroke:#000000;stroke-width:0.049957681px;stroke-linecap:round;stroke-linejoin:round;stroke-miterlimit:4;stroke-dasharray:none;stroke-opacity:1;"
     d="  M 104.65412,28.085191   L 113.6465,28.085191   L 113.6465,28.085191   L 104.65412,28.085191   z "
     id="path48" />
  <path
     style="fill:#000000;fill-rule:evenodd;fill-opacity:1;stroke:none;"
     d="  M 113.6465,224.85315   L 122.58893,224.85315   L 122.58893,224.85315   z "
     id="path49" />
  <path
     style="fill:none;stroke:#000000;stroke-width:0.049957681px;stroke-linecap:round;stroke-linejoin:round;stroke-miterlimit:4;stroke-dasharray:none;stroke-opacity:1;"
     d="  M 113.6465,224.85315   L 122.58893,224.85315   L 122.58893,224.85315   L 113.6465,224.85315   z "
     id="path50" />
  <path
     style="fill:#000000;fill-rule:evenodd;fill-opacity:1;stroke:none;"
     d="  M 113.6465,224.85315   L 122.58893,224.85315   L 113.6465,234.63387   z "
     id="path51" />
  <path
     style="fill:none;stroke:#000000;stroke-width:0.049957681px;stroke-linecap:round;stroke-linejoin:round;stroke-miterlimit:4;stroke-dasharray:none;stroke-opacity:1;"
     d="  M 113.6465,224.85315   L 122.58893,224.85315   L 113.6465,234.63387   L 113.6465,224.85315   z "
     id="path52" />
  <path
     style="fill:#000000;fill-rule:evenodd;fill-opacity:1;stroke:none;"
     d="  M 103.65497,244.21395   L 105.60332,244.21395   L 103.65497,28.085191   z "
     id="path53" />
  <path
     style="fill:#000000;fill-rule:evenodd;fill-opacity:1;stroke:none;"
     d="  M 105.60332,244.21395   L 103.65497,28.085191   L 105.60332,28.085191   z "
     id="path54" />
  <path
     style="fill:none;stroke:#000000;stroke-width:0.049957681px;stroke-linecap:round;stroke-linejoin:round;stroke-miterlimit:4;stroke-dasharray:none;stroke-opacity:1;"
     d="  M 103.65497,244.21395   L 105.60332,244.21395   L 105.60332,28.085191   L 103.65497,28.085191   L 103.65497,244.21395   z "
     id="path55" />
  <path
     style="fill:#000000;fill-rule:evenodd;fill-opacity:1;stroke:none;"
     d="  M 112.69731,244.21395   L 114.5957,244.21395   L 112.69731,18.404789   z "
     id="path56" />
  <path
     style="fill:#000000;fill-rule:evenodd;fill-opacity:1;stroke:none;"
     d="  M 114.5957,244.21395   L 112.69731,18.404789   L 114.5957,18.404789   z "
     id="path57" />
  <path
     style="fill:none;stroke:#000000;stroke-width:0.049957681px;stroke-linecap:round;stroke-linejoin:round;stroke-miterlimit:4;stroke-dasharray:none;stroke-opacity:1;"
     d="  M 112.69731,244.21395   L 114.5957,244.21395   L 114.5957,18.404789   L 112.69731,18.404789   L 112.69731,244.21395   z "
     id="path58" />
  <path
     style="fill:#000000;fill-rule:evenodd;fill-opacity:1;stroke:none;"
     d="  M 261.27145,225.8563   L 261.27145,223.90016   L 113.6465,225.8563   z "
     id="path59" />
  <path
     style="fill:#000000;fill-rule:evenodd;fill-opacity:1;stroke:none;"
     d="  M 261.27145,223.90016   L 113.6465,225.8563   L 113.6465,223.90016   z "
     id="path60" />
  <path
     style="fill:none;stroke:#000000;stroke-width:0.049957681px;stroke-linecap:round;stroke-linejoin:round;stroke-miterlimit:4;stroke-dasharray:none;stroke-opacity:1;"
     d="  M 261.27145,225.8563   L 261.27145,223.90016   L 113.6465,223.90016   L 113.6465,225.8563   L 261.27145,225.8563   z "
     id="path61" />
  <path
     style="fill:#000000;fill-rule:evenodd;fill-opacity:1;stroke:none;"
     d="  M 113.6465,223.90016   L 113.6465,225.8563   L 261.27145,223.90016   z "
     id="path62" />
  <path
     style="fill:#000000;fill-rule:evenodd;fill-opacity:1;stroke:none;"
     d="  M 113.6465,225.8563   L 261.27145,223.90016   L 261.27145,225.8563   z "
     id="path63" />
  <path
     style="fill:none;stroke:#000000;stroke-width:0.049957681px;stroke-linecap:round;stroke-linejoin:round;stroke-miterlimit:4;stroke-dasharray:none;stroke-opacity:1;"
     d="  M 113.6465,223.90016   L 113.6465,225.8563   L 261.27145,225.8563   L 261.27145,223.90016   L 113.6465,223.90016   z "
     id="path64" />
  <path
     style="fill:#000000;fill-rule:evenodd;fill-opacity:1;stroke:none;"
     d="  M 261.27145,216.1759   L 261.27145,214.21975   L 113.6465,216.1759   z "
     id="path65" />
  <path
     style="fill:#000000;fill-rule:evenodd;fill-opacity:1;stroke:none;"
     d="  M 261.27145,214.21975   L 113.6465,216.1759   L 113.6465,214.21975   z "
     id="path66" />
  <path
     style="fill:none;stroke:#000000;stroke-width:0.049957681px;stroke-linecap:round;stroke-linejoin:round;stroke-miterlimit:4;stroke-dasharray:none;stroke-opacity:1;"
     d="  M 261.27145,216.1759   L 261.27145,214.21975   L 113.6465,214.21975   L 113.6465,216.1759   L 261.27145,216.1759   z "
     id="path67" />
  <path
     style="fill:#000000;fill-rule:evenodd;fill-opacity:1;stroke:none;"
     d="  M 104.65412,27.08204   L 104.65412,29.038184   L 261.27145,27.08204   z "
     id="path68" />
  <path
     style="fill:#000000;fill-rule:evenodd;fill-opacity:1;stroke:none;"
     d="  M 104.65412,29.038184   L 261.27145,27.08204   L 261.27145,29.038184   z "
     id="path69" />
  <path
     style="fill:none;stroke:#000000;stroke-width:0.049957681px;stroke-linecap:round;stroke-linejoin:round;stroke-miterlimit:4;stroke-dasharray:none;stroke-opacity:1;"
     d="  M 104.65412,27.08204   L 104.65412,29.038184   L 261.27145,29.038184   L 261.27145,27.08204   L 104.65412,27.08204   z "
     id="path70" />
  <path
     style="fill:#000000;fill-rule:evenodd;fill-opacity:1;stroke:none;"
     d="  M 261.27145,19.357782   L 261.27145,17.401639   L 113.6465,19.357782   z "
     id="path71" />
  <path
     style="fill:#000000;fill-rule:evenodd;fill-opacity:1;stroke:none;"
     d="  M 261.27145,17.401639   L 113.6465,19.357782   L 113.6465,17.401639   z "
     id="path72" />
  <path
     style="fill:none;stroke:#000000;stroke-width:0.049957681px;stroke-linecap:round;stroke-linejoin:round;stroke-miterlimit:4;stroke-dasharray:none;stroke-opacity:1;"
     d="  M 261.27145,19.357782   L 261.27145,17.401639   L 113.6465,17.401639   L 113.6465,19.357782   L 261.27145,19.357782   z "
     id="path73" />
  <path
     style="fill:#000000;fill-rule:evenodd;fill-opacity:1;stroke:none;"
     d="  M 113.6465,245.2171   L 113.6465,243.26096   L 104.65412,245.2171   z "
     id="path74" />
  <path
     style="fill:#000000;fill-rule:evenodd;fill-opacity:1;stroke:none;"
     d="  M 113.6465,243.26096   L 104.65412,245.2171   L 104.65412,243.26096   z "
     id="path75" />
  <path
     style="fill:none;stroke:#000000;stroke-width:0.049957681px;stroke-linecap:round;stroke-linejoin:round;stroke-miterlimit:4;stroke-dasharray:none;stroke-opacity:1;"
     d="  M 113.6465,245.2171   L 113.6465,243.26096   L 104.65412,243.26096   L 104.65412,245.2171   L 113.6465,245.2171   z "
     id="path76" />
  <path
     style="fill:#000000;fill-rule:evenodd;fill-opacity:1;stroke:none;"
     d="  M 139.32475,245.2171   L 139.32475,243.26096   L 78.925916,245.2171   z "
     id="path77" />
  <path
     style="fill:#000000;fill-rule:evenodd;fill-opacity:1;stroke:none;"
     d="  M 139.32475,243.26096   L 78.925916,245.2171   L 78.925916,243.26096   z "
     id="path78" />
  <path
     style="fill:none;stroke:#000000;stroke-width:0.049957681px;stroke-linecap:round;stroke-linejoin:round;stroke-miterlimit:4;stroke-dasharray:none;stroke-opacity:1;"
     d="  M 139.32475,245.2171   L 139.32475,243.26096   L 78.925916,243.26096   L 78.925916,245.2171   L 139.32475,245.2171   z "
     id="path79" />
  <path
     style="fill:#000000;fill-rule:evenodd;fill-opacity:1;stroke:none;"
     d="  M 139.32475,245.2171   L 139.32475,243.26096   L 78.925916,245.2171   z "
     id="path80" />
  <path
     style="fill:#000000;fill-rule:evenodd;fill-opacity:1;stroke:none;"
     d="  M 139.32475,243.26096   L 78.925916,245.2171   L 78.925916,243.26096   z "
     id="path81" />
  <path
     style="fill:none;stroke:#000000;stroke-width:0.049957681px;stroke-linecap:round;stroke-linejoin:round;stroke-miterlimit:4;stroke-dasharray:none;stroke-opacity:1;"
     d="  M 139.32475,245.2171   L 139.32475,243.26096   L 78.925916,243.26096   L 78.925916,245.2171   L 139.32475,245.2171   z "
     id="path82" />
  <path
     style="fill:#000000;fill-rule:evenodd;fill-opacity:1;stroke:none;"
     d="  M 138.37556,257.15459   L 140.3239,257.15459   L 138.37556,244.21395   z "
     id="path83" />
  <path
     style="fill:#000000;fill-rule:evenodd;fill-opacity:1;stroke:none;"
     d="  M 140.3239,257.15459   L 138.37556,244.21395   L 140.3239,244.21395   z "
     id="path84" />
  <path
     style="fill:none;stroke:#000000;stroke-width:0.049957681px;stroke-linecap:round;stroke-linejoin:round;stroke-miterlimit:4;stroke-dasharray:none;stroke-opacity:1;"
     d="  M 138.37556,257.15459   L 140.3239,257.15459   L 140.3239,244.21395   L 138.37556,244.21395   L 138.37556,257.15459   z "
     id="path85" />
  <path
     style="fill:#000000;fill-rule:evenodd;fill-opacity:1;stroke:none;"
     d="  M 77.97672,257.15459   L 79.92507,257.15459   L 77.97672,244.21395   z "
     id="path86" />
  <path
     style="fill:#000000;fill-rule:evenodd;fill-opacity:1;stroke:none;"
     d="  M 79.92507,257.15459   L 77.97672,244.21395   L 79.92507,244.21395   z "
     id="path87" />
  <path
     style="fill:none;stroke:#000000;stroke-width:0.049957681px;stroke-linecap:round;stroke-linejoin:round;stroke-miterlimit:4;stroke-dasharray:none;stroke-opacity:1;"
     d="  M 77.97672,257.15459   L 79.92507,257.15459   L 79.92507,244.21395   L 77.97672,244.21395   L 77.97672,257.15459   z "
     id="path88" />
  <path
     style="fill:#000000;fill-rule:evenodd;fill-opacity:1;stroke:none;"
     d="  M 139.32475,258.10759   L 139.32475,256.2016   L 78.925916,258.10759   z "
     id="path89" />
  <path
     style="fill:#000000;fill-rule:evenodd;fill-opacity:1;stroke:none;"
     d="  M 139.32475,256.2016   L 78.925916,258.10759   L 78.925916,256.2016   z "
     id="path90" />
  <path
     style="fill:none;stroke:#000000;stroke-width:0.049957681px;stroke-linecap:round;stroke-linejoin:round;stroke-miterlimit:4;stroke-dasharray:none;stroke-opacity:1;"
     d="  M 139.32475,258.10759   L 139.32475,256.2016   L 78.925916,256.2016   L 78.925916,258.10759   L 139.32475,258.10759   z "
     id="path91" />
</svg>
