<?xml version="1.0" encoding="UTF-8" standalone="no"?>
<svg
   version="1.0"
   width="41.040001mm"
   height="35.84mm"
   id="svg254"
   sodipodi:docname="image390.emf"
   xmlns:inkscape="http://www.inkscape.org/namespaces/inkscape"
   xmlns:sodipodi="http://sodipodi.sourceforge.net/DTD/sodipodi-0.dtd"
   xmlns="http://www.w3.org/2000/svg"
   xmlns:svg="http://www.w3.org/2000/svg">
  <sodipodi:namedview
     id="namedview254"
     pagecolor="#ffffff"
     bordercolor="#000000"
     borderopacity="0.25"
     inkscape:showpageshadow="2"
     inkscape:pageopacity="0.0"
     inkscape:pagecheckerboard="0"
     inkscape:deskcolor="#d1d1d1"
     inkscape:document-units="mm" />
  <defs
     id="defs1">
    <pattern
       id="EMFhbasepattern"
       patternUnits="userSpaceOnUse"
       width="6"
       height="6"
       x="0"
       y="0" />
  </defs>
  <path
     style="fill:none;stroke:#000000;stroke-width:0.95890111px;stroke-linecap:round;stroke-linejoin:round;stroke-miterlimit:4;stroke-dasharray:none;stroke-opacity:1;"
     d="  M 76.355553,73.258952   L 54.101056,52.163439  "
     id="path1" />
  <path
     style="fill:none;stroke:#000000;stroke-width:0.95890111px;stroke-linecap:round;stroke-linejoin:round;stroke-miterlimit:4;stroke-dasharray:none;stroke-opacity:1;"
     d="  M 46.07026,44.557846   L 37.999509,36.952253  "
     id="path2" />
  <path
     style="fill:none;stroke:#000000;stroke-width:0.95890111px;stroke-linecap:round;stroke-linejoin:round;stroke-miterlimit:4;stroke-dasharray:none;stroke-opacity:1;"
     d="  M 29.968712,29.34666   L 7.7142151,8.2511471  "
     id="path3" />
  <path
     style="fill:none;stroke:#000000;stroke-width:0.95890111px;stroke-linecap:round;stroke-linejoin:round;stroke-miterlimit:4;stroke-dasharray:none;stroke-opacity:1;"
     d="  M 101.48675,68.855714   L 44.711816,68.855714  "
     id="path4" />
  <path
     style="fill:none;stroke:#000000;stroke-width:0.95890111px;stroke-linecap:round;stroke-linejoin:round;stroke-miterlimit:4;stroke-dasharray:none;stroke-opacity:1;"
     d="  M 76.355553,102.5605   L 76.355553,46.679406  "
     id="path5" />
  <path
     style="fill:none;stroke:#000000;stroke-width:0.95890111px;stroke-linecap:round;stroke-linejoin:round;stroke-miterlimit:4;stroke-dasharray:none;stroke-opacity:1;"
     d="  M 76.355553,73.258952   L 98.889729,51.923263  "
     id="path6" />
  <path
     style="fill:none;stroke:#000000;stroke-width:0.95890111px;stroke-linecap:round;stroke-linejoin:round;stroke-miterlimit:4;stroke-dasharray:none;stroke-opacity:1;"
     d="  M 106.92053,44.31767   L 114.95132,36.712077  "
     id="path7" />
  <path
     style="fill:none;stroke:#000000;stroke-width:0.95890111px;stroke-linecap:round;stroke-linejoin:round;stroke-miterlimit:4;stroke-dasharray:none;stroke-opacity:1;"
     d="  M 122.98212,29.106484   L 145.5163,7.7707938  "
     id="path8" />
  <path
     style="fill:#000000;fill-rule:evenodd;fill-opacity:1;stroke:none;"
     d="  M 85.545022,48.400672   L 86.463969,49.361379   L 136.96609,-0.31515239   z "
     id="path9" />
  <path
     style="fill:#000000;fill-rule:evenodd;fill-opacity:1;stroke:none;"
     d="  M 86.463969,49.361379   L 136.96609,-0.31515239   L 137.88504,0.68558353   z "
     id="path10" />
  <path
     style="fill:#000000;fill-rule:evenodd;fill-opacity:1;stroke:none;"
     d="  M 88.182,50.00185   L 88.66145,50.522232   L 95.134033,43.437022   z "
     id="path11" />
  <path
     style="fill:#000000;fill-rule:evenodd;fill-opacity:1;stroke:none;"
     d="  M 88.66145,50.522232   L 95.134033,43.437022   L 95.573529,43.957405   z "
     id="path12" />
  <path
     style="fill:#000000;fill-rule:evenodd;fill-opacity:1;stroke:none;"
     d="  M 98.33037,40.394785   L 98.809821,40.875138   L 106.36117,32.789192   z "
     id="path13" />
  <path
     style="fill:#000000;fill-rule:evenodd;fill-opacity:1;stroke:none;"
     d="  M 98.809821,40.875138   L 106.36117,32.789192   L 106.84062,33.269545   z "
     id="path14" />
  <path
     style="fill:#000000;fill-rule:evenodd;fill-opacity:1;stroke:none;"
     d="  M 109.59746,29.746955   L 110.03695,30.227308   L 117.62825,22.141362   z "
     id="path15" />
  <path
     style="fill:#000000;fill-rule:evenodd;fill-opacity:1;stroke:none;"
     d="  M 110.03695,30.227308   L 117.62825,22.141362   L 118.06775,22.621715   z "
     id="path16" />
  <path
     style="fill:#000000;fill-rule:evenodd;fill-opacity:1;stroke:none;"
     d="  M 120.82459,19.099124   L 121.30404,19.579478   L 128.85539,11.493531   z "
     id="path17" />
  <path
     style="fill:#000000;fill-rule:evenodd;fill-opacity:1;stroke:none;"
     d="  M 121.30404,19.579478   L 128.85539,11.493531   L 129.33484,11.973885   z "
     id="path18" />
  <path
     style="fill:#000000;fill-rule:evenodd;fill-opacity:1;stroke:none;"
     d="  M 132.09168,8.4512943   L 132.53118,8.9316475   L 139.00376,1.8864666   z "
     id="path19" />
  <path
     style="fill:#000000;fill-rule:evenodd;fill-opacity:1;stroke:none;"
     d="  M 132.53118,8.9316475   L 139.00376,1.8864666   L 139.48321,2.3668199   z "
     id="path20" />
  <path
     style="fill:#000000;fill-rule:evenodd;fill-opacity:1;stroke:none;"
     d="  M 139.00376,1.8864666   L 139.48321,2.3668199   L 139.48321,2.3668199   z "
     id="path21" />
  <path
     style="fill:#000000;fill-rule:evenodd;fill-opacity:1;stroke:none;"
     d="  M 97.970782,67.134449   L 98.889729,68.095155   L 152.14869,15.816711   z "
     id="path22" />
  <path
     style="fill:#000000;fill-rule:evenodd;fill-opacity:1;stroke:none;"
     d="  M 98.889729,68.095155   L 152.14869,15.816711   L 153.06764,16.777417   z "
     id="path23" />
  <path
     style="fill:#000000;fill-rule:evenodd;fill-opacity:1;stroke:none;"
     d="  M 97.771011,64.132241   L 98.250462,64.612594   L 105.68195,56.606707   z "
     id="path24" />
  <path
     style="fill:#000000;fill-rule:evenodd;fill-opacity:1;stroke:none;"
     d="  M 98.250462,64.612594   L 105.68195,56.606707   L 106.1614,57.127089   z "
     id="path25" />
  <path
     style="fill:#000000;fill-rule:evenodd;fill-opacity:1;stroke:none;"
     d="  M 108.91824,53.56447   L 109.35773,54.044823   L 116.94903,45.958877   z "
     id="path26" />
  <path
     style="fill:#000000;fill-rule:evenodd;fill-opacity:1;stroke:none;"
     d="  M 109.35773,54.044823   L 116.94903,45.958877   L 117.38853,46.43923   z "
     id="path27" />
  <path
     style="fill:#000000;fill-rule:evenodd;fill-opacity:1;stroke:none;"
     d="  M 120.14537,42.916639   L 120.62482,43.396993   L 128.17617,35.311046   z "
     id="path28" />
  <path
     style="fill:#000000;fill-rule:evenodd;fill-opacity:1;stroke:none;"
     d="  M 120.62482,43.396993   L 128.17617,35.311046   L 128.65562,35.7914   z "
     id="path29" />
  <path
     style="fill:#000000;fill-rule:evenodd;fill-opacity:1;stroke:none;"
     d="  M 131.41246,32.268809   L 131.85195,32.749162   L 139.44326,24.663216   z "
     id="path30" />
  <path
     style="fill:#000000;fill-rule:evenodd;fill-opacity:1;stroke:none;"
     d="  M 131.85195,32.749162   L 139.44326,24.663216   L 139.88275,25.143569   z "
     id="path31" />
  <path
     style="fill:#000000;fill-rule:evenodd;fill-opacity:1;stroke:none;"
     d="  M 142.63959,21.620979   L 143.11904,22.101332   L 150.55053,14.135474   z "
     id="path32" />
  <path
     style="fill:#000000;fill-rule:evenodd;fill-opacity:1;stroke:none;"
     d="  M 143.11904,22.101332   L 150.55053,14.135474   L 150.99002,14.615828   z "
     id="path33" />
  <path
     style="fill:#000000;fill-rule:evenodd;fill-opacity:1;stroke:none;"
     d="  M 150.55053,14.135474   L 150.99002,14.615828   L 150.99002,14.615828   z "
     id="path34" />
  <path
     style="fill:#000000;fill-rule:evenodd;fill-opacity:1;stroke:none;"
     d="  M 66.247137,49.361379   L 67.166084,48.400672   L 14.826065,0.68558353   z "
     id="path35" />
  <path
     style="fill:#000000;fill-rule:evenodd;fill-opacity:1;stroke:none;"
     d="  M 67.166084,48.400672   L 14.826065,0.68558353   L 15.745012,-0.31515239   z "
     id="path36" />
  <path
     style="fill:#000000;fill-rule:evenodd;fill-opacity:1;stroke:none;"
     d="  M 64.08961,50.522232   L 64.529106,50.00185   L 57.73689,44.517817   z "
     id="path37" />
  <path
     style="fill:#000000;fill-rule:evenodd;fill-opacity:1;stroke:none;"
     d="  M 64.529106,50.00185   L 57.73689,44.517817   L 58.21634,44.037464   z "
     id="path38" />
  <path
     style="fill:#000000;fill-rule:evenodd;fill-opacity:1;stroke:none;"
     d="  M 54.540553,41.47558   L 54.980049,40.995226   L 46.509756,33.869987   z "
     id="path39" />
  <path
     style="fill:#000000;fill-rule:evenodd;fill-opacity:1;stroke:none;"
     d="  M 54.980049,40.995226   L 46.509756,33.869987   L 46.949252,33.389633   z "
     id="path40" />
  <path
     style="fill:#000000;fill-rule:evenodd;fill-opacity:1;stroke:none;"
     d="  M 43.273465,30.827749   L 43.752915,30.347396   L 35.242668,23.222156   z "
     id="path41" />
  <path
     style="fill:#000000;fill-rule:evenodd;fill-opacity:1;stroke:none;"
     d="  M 43.752915,30.347396   L 35.242668,23.222156   L 35.722118,22.701774   z "
     id="path42" />
  <path
     style="fill:#000000;fill-rule:evenodd;fill-opacity:1;stroke:none;"
     d="  M 32.046331,20.13989   L 32.485827,19.659537   L 24.015534,12.534297   z "
     id="path43" />
  <path
     style="fill:#000000;fill-rule:evenodd;fill-opacity:1;stroke:none;"
     d="  M 32.485827,19.659537   L 24.015534,12.534297   L 24.45503,12.053944   z "
     id="path44" />
  <path
     style="fill:#000000;fill-rule:evenodd;fill-opacity:1;stroke:none;"
     d="  M 20.779243,9.4920596   L 21.258693,9.0117064   L 14.466477,3.5276735   z "
     id="path45" />
  <path
     style="fill:#000000;fill-rule:evenodd;fill-opacity:1;stroke:none;"
     d="  M 21.258693,9.0117064   L 14.466477,3.5276735   L 14.945928,3.0473203   z "
     id="path46" />
  <path
     style="fill:#000000;fill-rule:evenodd;fill-opacity:1;stroke:none;"
     d="  M 14.466477,3.5276735   L 14.945928,3.0473203   L 14.945928,3.0473203   z "
     id="path47" />
  <path
     style="fill:#000000;fill-rule:evenodd;fill-opacity:1;stroke:none;"
     d="  M 53.821377,68.095155   L 54.740324,67.134449   L -0.31658165,16.777417   z "
     id="path48" />
  <path
     style="fill:#000000;fill-rule:evenodd;fill-opacity:1;stroke:none;"
     d="  M 54.740324,67.134449   L -0.31658165,16.777417   L 0.56241104,15.816711   z "
     id="path49" />
  <path
     style="fill:#000000;fill-rule:evenodd;fill-opacity:1;stroke:none;"
     d="  M 54.500598,64.612594   L 54.940095,64.132241   L 45.950397,56.526648   z "
     id="path50" />
  <path
     style="fill:#000000;fill-rule:evenodd;fill-opacity:1;stroke:none;"
     d="  M 54.940095,64.132241   L 45.950397,56.526648   L 46.429847,56.046295   z "
     id="path51" />
  <path
     style="fill:#000000;fill-rule:evenodd;fill-opacity:1;stroke:none;"
     d="  M 42.75406,53.484411   L 43.193556,53.004057   L 34.723263,45.878818   z "
     id="path52" />
  <path
     style="fill:#000000;fill-rule:evenodd;fill-opacity:1;stroke:none;"
     d="  M 43.193556,53.004057   L 34.723263,45.878818   L 35.162759,45.398464   z "
     id="path53" />
  <path
     style="fill:#000000;fill-rule:evenodd;fill-opacity:1;stroke:none;"
     d="  M 31.486972,42.83658   L 31.966422,42.356227   L 23.456175,35.230987   z "
     id="path54" />
  <path
     style="fill:#000000;fill-rule:evenodd;fill-opacity:1;stroke:none;"
     d="  M 31.966422,42.356227   L 23.456175,35.230987   L 23.935626,34.750634   z "
     id="path55" />
  <path
     style="fill:#000000;fill-rule:evenodd;fill-opacity:1;stroke:none;"
     d="  M 20.259838,32.18875   L 20.699334,31.708397   L 12.229041,24.543128   z "
     id="path56" />
  <path
     style="fill:#000000;fill-rule:evenodd;fill-opacity:1;stroke:none;"
     d="  M 20.699334,31.708397   L 12.229041,24.543128   L 12.668538,24.062775   z "
     id="path57" />
  <path
     style="fill:#000000;fill-rule:evenodd;fill-opacity:1;stroke:none;"
     d="  M 8.99275,21.500891   L 9.4722005,21.020537   L 0.48250261,13.454974   z "
     id="path58" />
  <path
     style="fill:#000000;fill-rule:evenodd;fill-opacity:1;stroke:none;"
     d="  M 9.4722005,21.020537   L 0.48250261,13.454974   L 0.96195317,12.974621   z "
     id="path59" />
  <path
     style="fill:#000000;fill-rule:evenodd;fill-opacity:1;stroke:none;"
     d="  M 0.48250261,13.454974   L 0.96195317,12.974621   L 0.96195317,12.974621   z "
     id="path60" />
  <path
     style="fill:none;stroke:#000000;stroke-width:0.95890111px;stroke-linecap:round;stroke-linejoin:round;stroke-miterlimit:4;stroke-dasharray:none;stroke-opacity:1;"
     d="  M 152.58819,16.297064   L 152.34847,14.295592   L 151.62929,12.374179   L 150.43066,10.732972   L 148.8325,9.4520302   L 146.9946,8.611412   L 144.99689,8.2511471  "
     id="path61" />
  <path
     style="fill:none;stroke:#000000;stroke-width:0.95890111px;stroke-linecap:round;stroke-linejoin:round;stroke-miterlimit:4;stroke-dasharray:none;stroke-opacity:1;"
     d="  M 144.99689,8.2511471   L 144.75717,6.2096458   L 144.03799,4.3282623   L 142.83936,2.6870554   L 141.24119,1.4061134   L 139.4033,0.56549522   L 137.40559,0.16520085  "
     id="path62" />
  <path
     style="fill:none;stroke:#000000;stroke-width:0.95890111px;stroke-linecap:round;stroke-linejoin:round;stroke-miterlimit:4;stroke-dasharray:none;stroke-opacity:1;"
     d="  M 137.40559,0.16520085   L 137.68527,2.2067021   L 138.40445,4.0880857   L 139.60307,5.7292926   L 141.16129,7.0102345   L 142.99918,7.8908821   L 144.99689,8.2511471  "
     id="path63" />
  <path
     style="fill:none;stroke:#000000;stroke-width:0.95890111px;stroke-linecap:round;stroke-linejoin:round;stroke-miterlimit:4;stroke-dasharray:none;stroke-opacity:1;"
     d="  M 7.7142151,8.2511471   L 5.7165045,8.611412   L 3.8786107,9.4520302   L 2.3203964,10.732972   L 1.12177,12.374179   L 0.36263997,14.295592   L 0.1229147,16.297064  "
     id="path64" />
  <path
     style="fill:none;stroke:#000000;stroke-width:0.95890111px;stroke-linecap:round;stroke-linejoin:round;stroke-miterlimit:4;stroke-dasharray:none;stroke-opacity:1;"
     d="  M 15.305516,0.16520085   L 13.307805,0.56549522   L 11.469911,1.4061134   L 9.9116969,2.6870554   L 8.7130705,4.3282623   L 7.9539404,6.2096458   L 7.7142151,8.2511471  "
     id="path65" />
  <path
     style="fill:none;stroke:#000000;stroke-width:0.95890111px;stroke-linecap:round;stroke-linejoin:round;stroke-miterlimit:4;stroke-dasharray:none;stroke-opacity:1;"
     d="  M 7.7142151,8.2511471   L 9.7119258,7.8908821   L 11.54982,7.0102345   L 13.108034,5.7292926   L 14.30666,4.0880857   L 15.06579,2.2067021   L 15.305516,0.16520085  "
     id="path66" />
  <path
     style="fill:none;stroke:#000000;stroke-width:0.95890111px;stroke-linecap:round;stroke-linejoin:round;stroke-miterlimit:4;stroke-dasharray:none;stroke-opacity:1;"
     d="  M 54.260873,79.943868   L 54.260873,133.7034  "
     id="path67" />
  <path
     style="fill:none;stroke:#000000;stroke-width:0.95890111px;stroke-linecap:round;stroke-linejoin:round;stroke-miterlimit:4;stroke-dasharray:none;stroke-opacity:1;"
     d="  M 98.450233,79.943868   L 98.450233,133.7034  "
     id="path68" />
  <path
     style="fill:none;stroke:#000000;stroke-width:0.95890111px;stroke-linecap:round;stroke-linejoin:round;stroke-miterlimit:4;stroke-dasharray:none;stroke-opacity:1;"
     d="  M 49.825956,129.26013   L 102.88515,129.26013  "
     id="path69" />
  <path
     style="fill:#000000;fill-rule:evenodd;fill-opacity:1;stroke:none;"
     d="  M 58.176386,126.8984   L 56.618172,125.33725   L 51.903575,133.18302   z "
     id="path70" />
  <path
     style="fill:#000000;fill-rule:evenodd;fill-opacity:1;stroke:none;"
     d="  M 56.618172,125.33725   L 51.903575,133.18302   L 50.34536,131.62187   z "
     id="path71" />
  <path
     style="fill:#000000;fill-rule:evenodd;fill-opacity:1;stroke:none;"
     d="  M 94.574674,131.62187   L 96.132888,133.18302   L 100.80753,125.33725   z "
     id="path72" />
  <path
     style="fill:#000000;fill-rule:evenodd;fill-opacity:1;stroke:none;"
     d="  M 96.132888,133.18302   L 100.80753,125.33725   L 102.36575,126.8984   z "
     id="path73" />
  <path
     style="fill:none;stroke:#000000;stroke-width:0.95890111px;stroke-linecap:round;stroke-linejoin:round;stroke-miterlimit:4;stroke-dasharray:none;stroke-opacity:1;"
     d="  M 78.51308,113.04821   L 78.51308,123.81613  "
     id="path74" />
  <path
     style="fill:none;stroke:#000000;stroke-width:0.95890111px;stroke-linecap:round;stroke-linejoin:round;stroke-miterlimit:4;stroke-dasharray:none;stroke-opacity:1;"
     d="  M 78.51308,118.17198   L 77.793905,117.13122   L 77.074729,116.65086   L 75.995965,116.65086   L 75.276789,117.13122   L 74.557613,118.17198   L 74.23798,119.6931   L 74.23798,120.73386   L 74.557613,122.25498   L 75.276789,123.29575   L 75.995965,123.81613   L 77.074729,123.81613   L 77.793905,123.29575   L 78.51308,122.25498  "
     id="path75" />
  <path
     style="fill:none;stroke:#000000;stroke-width:0.95890111px;stroke-linecap:round;stroke-linejoin:round;stroke-miterlimit:4;stroke-dasharray:none;stroke-opacity:1;"
     d="  M 70.042787,40.955197   L 70.042787,24.42304  "
     id="path76" />
  <path
     style="fill:none;stroke:#000000;stroke-width:0.95890111px;stroke-linecap:round;stroke-linejoin:round;stroke-miterlimit:4;stroke-dasharray:none;stroke-opacity:1;"
     d="  M 82.668319,40.955197   L 82.668319,24.42304  "
     id="path77" />
  <path
     style="fill:none;stroke:#000000;stroke-width:0.95890111px;stroke-linecap:round;stroke-linejoin:round;stroke-miterlimit:4;stroke-dasharray:none;stroke-opacity:1;"
     d="  M 65.60787,28.826278   L 87.103236,28.826278  "
     id="path78" />
  <path
     style="fill:#000000;fill-rule:evenodd;fill-opacity:1;stroke:none;"
     d="  M 73.9583,26.50457   L 72.360132,24.903393   L 67.685489,32.749162   z "
     id="path79" />
  <path
     style="fill:#000000;fill-rule:evenodd;fill-opacity:1;stroke:none;"
     d="  M 72.360132,24.903393   L 67.685489,32.749162   L 66.127274,31.188014   z "
     id="path80" />
  <path
     style="fill:#000000;fill-rule:evenodd;fill-opacity:1;stroke:none;"
     d="  M 78.79276,31.188014   L 80.350974,32.749162   L 85.025617,24.903393   z "
     id="path81" />
  <path
     style="fill:#000000;fill-rule:evenodd;fill-opacity:1;stroke:none;"
     d="  M 80.350974,32.749162   L 85.025617,24.903393   L 86.583831,26.50457   z "
     id="path82" />
  <path
     style="fill:none;stroke:#000000;stroke-width:0.95890111px;stroke-linecap:round;stroke-linejoin:round;stroke-miterlimit:4;stroke-dasharray:none;stroke-opacity:1;"
     d="  M 144.67726,60.009209   L 131.41246,60.009209  "
     id="path83" />
  <path
     style="fill:none;stroke:#000000;stroke-width:0.95890111px;stroke-linecap:round;stroke-linejoin:round;stroke-miterlimit:4;stroke-dasharray:none;stroke-opacity:1;"
     d="  M 118.0278,38.513401   L 131.41246,60.009209  "
     id="path84" />
  <path
     style="fill:none;stroke:#000000;stroke-width:0.95890111px;stroke-linecap:round;stroke-linejoin:round;stroke-miterlimit:4;stroke-dasharray:none;stroke-opacity:1;"
     d="  M 8.0338488,60.009209   L 21.298648,60.009209  "
     id="path85" />
  <path
     style="fill:none;stroke:#000000;stroke-width:0.95890111px;stroke-linecap:round;stroke-linejoin:round;stroke-miterlimit:4;stroke-dasharray:none;stroke-opacity:1;"
     d="  M 34.683309,38.513401   L 21.298648,60.009209  "
     id="path86" />
  <path
     style="fill:none;stroke:#000000;stroke-width:0.95890111px;stroke-linecap:round;stroke-linejoin:round;stroke-miterlimit:4;stroke-dasharray:none;stroke-opacity:1;"
     d="  M 98.450233,68.855714   L 98.210507,65.373153   L 97.371469,61.970651   L 96.05298,58.768296   L 94.25504,55.806118   L 91.97765,53.164175   L 89.340672,50.922527   L 86.38406,49.081173   L 83.187723,47.760201   L 79.831569,46.959612   L 76.355553,46.679406   L 72.919491,46.959612   L 69.523382,47.760201   L 66.327045,49.081173   L 63.370434,50.922527   L 60.733456,53.164175   L 58.456066,55.806118   L 56.658126,58.768296   L 55.339637,61.970651   L 54.540553,65.373153   L 54.260873,68.855714   L 54.540553,72.298246   L 55.339637,75.700748   L 56.658126,78.903103   L 58.456066,81.865281   L 60.733456,84.507224   L 63.370434,86.788902   L 66.327045,88.590227   L 69.523382,89.911198   L 72.919491,90.751816   L 76.355553,90.991993   L 79.831569,90.751816   L 83.187723,89.911198   L 86.38406,88.590227   L 89.340672,86.788902   L 91.97765,84.507224   L 94.25504,81.865281   L 96.05298,78.903103   L 97.371469,75.700748   L 98.210507,72.298246   L 98.450233,68.855714   z "
     id="path87" />
  <path
     style="fill:none;stroke:#000000;stroke-width:0.95890111px;stroke-linecap:round;stroke-linejoin:round;stroke-miterlimit:4;stroke-dasharray:none;stroke-opacity:1;"
     d="  M 94.934262,68.855714   L 94.654582,65.61333   L 93.815544,62.491034   L 92.457101,59.528856   L 90.579253,56.886913   L 88.301863,54.565205   L 85.664884,52.723851   L 82.708273,51.322821   L 79.591844,50.482203   L 76.355553,50.201997   L 73.119262,50.482203   L 70.002833,51.322821   L 67.086175,52.723851   L 64.409243,54.565205   L 62.131853,56.886913   L 60.293959,59.528856   L 58.895562,62.491034   L 58.056523,65.61333   L 57.776844,68.855714   L 58.056523,72.058069   L 58.895562,75.220395   L 60.293959,78.142544   L 62.131853,80.824516   L 64.409243,83.106194   L 67.086175,84.987577   L 70.002833,86.348578   L 73.119262,87.189196   L 76.355553,87.469402   L 79.591844,87.189196   L 82.708273,86.348578   L 85.664884,84.987577   L 88.301863,83.106194   L 90.579253,80.824516   L 92.457101,78.142544   L 93.815544,75.220395   L 94.654582,72.058069   L 94.934262,68.855714   z "
     id="path88" />
  <path
     style="fill:#000000;fill-rule:evenodd;fill-opacity:1;stroke:none;"
     d="  M 76.355553,91.672493   L 76.355553,90.351522   L 79.911478,91.392287   z "
     id="path89" />
  <path
     style="fill:#000000;fill-rule:evenodd;fill-opacity:1;stroke:none;"
     d="  M 76.355553,90.351522   L 79.911478,91.392287   L 79.711707,90.071316   z "
     id="path90" />
  <path
     style="fill:#000000;fill-rule:evenodd;fill-opacity:1;stroke:none;"
     d="  M 79.911478,91.392287   L 79.711707,90.071316   L 83.387494,90.551669   z "
     id="path91" />
  <path
     style="fill:#000000;fill-rule:evenodd;fill-opacity:1;stroke:none;"
     d="  M 79.711707,90.071316   L 83.387494,90.551669   L 82.987952,89.310757   z "
     id="path92" />
  <path
     style="fill:#000000;fill-rule:evenodd;fill-opacity:1;stroke:none;"
     d="  M 83.387494,90.551669   L 82.987952,89.310757   L 86.703694,89.190668   z "
     id="path93" />
  <path
     style="fill:#000000;fill-rule:evenodd;fill-opacity:1;stroke:none;"
     d="  M 82.987952,89.310757   L 86.703694,89.190668   L 86.104381,87.989785   z "
     id="path94" />
  <path
     style="fill:#000000;fill-rule:evenodd;fill-opacity:1;stroke:none;"
     d="  M 86.703694,89.190668   L 86.104381,87.989785   L 89.740214,87.309285   z "
     id="path95" />
  <path
     style="fill:#000000;fill-rule:evenodd;fill-opacity:1;stroke:none;"
     d="  M 86.104381,87.989785   L 89.740214,87.309285   L 88.981084,86.22849   z "
     id="path96" />
  <path
     style="fill:#000000;fill-rule:evenodd;fill-opacity:1;stroke:none;"
     d="  M 89.740214,87.309285   L 88.981084,86.22849   L 92.457101,84.987577   z "
     id="path97" />
  <path
     style="fill:#000000;fill-rule:evenodd;fill-opacity:1;stroke:none;"
     d="  M 88.981084,86.22849   L 92.457101,84.987577   L 91.538154,84.026871   z "
     id="path98" />
  <path
     style="fill:#000000;fill-rule:evenodd;fill-opacity:1;stroke:none;"
     d="  M 92.457101,84.987577   L 91.538154,84.026871   L 94.774445,82.265576   z "
     id="path99" />
  <path
     style="fill:#000000;fill-rule:evenodd;fill-opacity:1;stroke:none;"
     d="  M 91.538154,84.026871   L 94.774445,82.265576   L 93.695681,81.464987   z "
     id="path100" />
  <path
     style="fill:#000000;fill-rule:evenodd;fill-opacity:1;stroke:none;"
     d="  M 94.774445,82.265576   L 93.695681,81.464987   L 96.652293,79.223338   z "
     id="path101" />
  <path
     style="fill:#000000;fill-rule:evenodd;fill-opacity:1;stroke:none;"
     d="  M 93.695681,81.464987   L 96.652293,79.223338   L 95.453667,78.622897   z "
     id="path102" />
  <path
     style="fill:#000000;fill-rule:evenodd;fill-opacity:1;stroke:none;"
     d="  M 96.652293,79.223338   L 95.453667,78.622897   L 98.010736,75.900895   z "
     id="path103" />
  <path
     style="fill:#000000;fill-rule:evenodd;fill-opacity:1;stroke:none;"
     d="  M 95.453667,78.622897   L 98.010736,75.900895   L 96.772156,75.500601   z "
     id="path104" />
  <path
     style="fill:#000000;fill-rule:evenodd;fill-opacity:1;stroke:none;"
     d="  M 98.010736,75.900895   L 96.772156,75.500601   L 98.849775,72.418334   z "
     id="path105" />
  <path
     style="fill:#000000;fill-rule:evenodd;fill-opacity:1;stroke:none;"
     d="  M 96.772156,75.500601   L 98.849775,72.418334   L 97.531286,72.218187   z "
     id="path106" />
  <path
     style="fill:#000000;fill-rule:evenodd;fill-opacity:1;stroke:none;"
     d="  M 98.849775,72.418334   L 97.531286,72.218187   L 99.129454,68.855714   z "
     id="path107" />
  <path
     style="fill:#000000;fill-rule:evenodd;fill-opacity:1;stroke:none;"
     d="  M 97.531286,72.218187   L 99.129454,68.855714   L 97.810965,68.855714   z "
     id="path108" />
  <path
     style="fill:#000000;fill-rule:evenodd;fill-opacity:1;stroke:none;"
     d="  M 99.129454,68.855714   L 97.810965,68.855714   L 98.849775,65.253065   z "
     id="path109" />
  <path
     style="fill:#000000;fill-rule:evenodd;fill-opacity:1;stroke:none;"
     d="  M 97.810965,68.855714   L 98.849775,65.253065   L 97.531286,65.493242   z "
     id="path110" />
  <path
     style="fill:#000000;fill-rule:evenodd;fill-opacity:1;stroke:none;"
     d="  M 98.849775,65.253065   L 97.531286,65.493242   L 98.010736,61.770504   z "
     id="path111" />
  <path
     style="fill:#000000;fill-rule:evenodd;fill-opacity:1;stroke:none;"
     d="  M 97.531286,65.493242   L 98.010736,61.770504   L 96.772156,62.210828   z "
     id="path112" />
  <path
     style="fill:#000000;fill-rule:evenodd;fill-opacity:1;stroke:none;"
     d="  M 98.010736,61.770504   L 96.772156,62.210828   L 96.652293,58.48809   z "
     id="path113" />
  <path
     style="fill:#000000;fill-rule:evenodd;fill-opacity:1;stroke:none;"
     d="  M 96.772156,62.210828   L 96.652293,58.48809   L 95.453667,59.088532   z "
     id="path114" />
  <path
     style="fill:#000000;fill-rule:evenodd;fill-opacity:1;stroke:none;"
     d="  M 96.652293,58.48809   L 95.453667,59.088532   L 94.774445,55.405824   z "
     id="path115" />
  <path
     style="fill:#000000;fill-rule:evenodd;fill-opacity:1;stroke:none;"
     d="  M 95.453667,59.088532   L 94.774445,55.405824   L 93.695681,56.206412   z "
     id="path116" />
  <path
     style="fill:#000000;fill-rule:evenodd;fill-opacity:1;stroke:none;"
     d="  M 94.774445,55.405824   L 93.695681,56.206412   L 92.457101,52.683822   z "
     id="path117" />
  <path
     style="fill:#000000;fill-rule:evenodd;fill-opacity:1;stroke:none;"
     d="  M 93.695681,56.206412   L 92.457101,52.683822   L 91.538154,53.644528   z "
     id="path118" />
  <path
     style="fill:#000000;fill-rule:evenodd;fill-opacity:1;stroke:none;"
     d="  M 92.457101,52.683822   L 91.538154,53.644528   L 89.740214,50.362115   z "
     id="path119" />
  <path
     style="fill:#000000;fill-rule:evenodd;fill-opacity:1;stroke:none;"
     d="  M 91.538154,53.644528   L 89.740214,50.362115   L 88.981084,51.442909   z "
     id="path120" />
  <path
     style="fill:#000000;fill-rule:evenodd;fill-opacity:1;stroke:none;"
     d="  M 89.740214,50.362115   L 88.981084,51.442909   L 86.703694,48.480731   z "
     id="path121" />
  <path
     style="fill:#000000;fill-rule:evenodd;fill-opacity:1;stroke:none;"
     d="  M 88.981084,51.442909   L 86.703694,48.480731   L 86.104381,49.681614   z "
     id="path122" />
  <path
     style="fill:#000000;fill-rule:evenodd;fill-opacity:1;stroke:none;"
     d="  M 86.703694,48.480731   L 86.104381,49.681614   L 83.387494,47.11973   z "
     id="path123" />
  <path
     style="fill:#000000;fill-rule:evenodd;fill-opacity:1;stroke:none;"
     d="  M 86.104381,49.681614   L 83.387494,47.11973   L 82.987952,48.400672   z "
     id="path124" />
  <path
     style="fill:#000000;fill-rule:evenodd;fill-opacity:1;stroke:none;"
     d="  M 83.387494,47.11973   L 82.987952,48.400672   L 79.911478,46.279112   z "
     id="path125" />
  <path
     style="fill:#000000;fill-rule:evenodd;fill-opacity:1;stroke:none;"
     d="  M 82.987952,48.400672   L 79.911478,46.279112   L 79.711707,47.600083   z "
     id="path126" />
  <path
     style="fill:#000000;fill-rule:evenodd;fill-opacity:1;stroke:none;"
     d="  M 79.911478,46.279112   L 79.711707,47.600083   L 76.355553,45.998906   z "
     id="path127" />
  <path
     style="fill:#000000;fill-rule:evenodd;fill-opacity:1;stroke:none;"
     d="  M 79.711707,47.600083   L 76.355553,45.998906   L 76.355553,47.319877   z "
     id="path128" />
  <path
     style="fill:#000000;fill-rule:evenodd;fill-opacity:1;stroke:none;"
     d="  M 76.355553,45.998906   L 76.355553,47.319877   L 72.799628,46.279112   z "
     id="path129" />
  <path
     style="fill:#000000;fill-rule:evenodd;fill-opacity:1;stroke:none;"
     d="  M 76.355553,47.319877   L 72.799628,46.279112   L 72.999399,47.600083   z "
     id="path130" />
  <path
     style="fill:#000000;fill-rule:evenodd;fill-opacity:1;stroke:none;"
     d="  M 72.799628,46.279112   L 72.999399,47.600083   L 69.323611,47.11973   z "
     id="path131" />
  <path
     style="fill:#000000;fill-rule:evenodd;fill-opacity:1;stroke:none;"
     d="  M 72.999399,47.600083   L 69.323611,47.11973   L 69.723154,48.400672   z "
     id="path132" />
  <path
     style="fill:#000000;fill-rule:evenodd;fill-opacity:1;stroke:none;"
     d="  M 69.323611,47.11973   L 69.723154,48.400672   L 66.007412,48.480731   z "
     id="path133" />
  <path
     style="fill:#000000;fill-rule:evenodd;fill-opacity:1;stroke:none;"
     d="  M 69.723154,48.400672   L 66.007412,48.480731   L 66.606725,49.681614   z "
     id="path134" />
  <path
     style="fill:#000000;fill-rule:evenodd;fill-opacity:1;stroke:none;"
     d="  M 66.007412,48.480731   L 66.606725,49.681614   L 62.970892,50.362115   z "
     id="path135" />
  <path
     style="fill:#000000;fill-rule:evenodd;fill-opacity:1;stroke:none;"
     d="  M 66.606725,49.681614   L 62.970892,50.362115   L 63.769976,51.442909   z "
     id="path136" />
  <path
     style="fill:#000000;fill-rule:evenodd;fill-opacity:1;stroke:none;"
     d="  M 62.970892,50.362115   L 63.769976,51.442909   L 60.254005,52.683822   z "
     id="path137" />
  <path
     style="fill:#000000;fill-rule:evenodd;fill-opacity:1;stroke:none;"
     d="  M 63.769976,51.442909   L 60.254005,52.683822   L 61.212906,53.644528   z "
     id="path138" />
  <path
     style="fill:#000000;fill-rule:evenodd;fill-opacity:1;stroke:none;"
     d="  M 60.254005,52.683822   L 61.212906,53.644528   L 57.936661,55.405824   z "
     id="path139" />
  <path
     style="fill:#000000;fill-rule:evenodd;fill-opacity:1;stroke:none;"
     d="  M 61.212906,53.644528   L 57.936661,55.405824   L 59.015424,56.206412   z "
     id="path140" />
  <path
     style="fill:#000000;fill-rule:evenodd;fill-opacity:1;stroke:none;"
     d="  M 57.936661,55.405824   L 59.015424,56.206412   L 56.058813,58.48809   z "
     id="path141" />
  <path
     style="fill:#000000;fill-rule:evenodd;fill-opacity:1;stroke:none;"
     d="  M 59.015424,56.206412   L 56.058813,58.48809   L 57.257439,59.088532   z "
     id="path142" />
  <path
     style="fill:#000000;fill-rule:evenodd;fill-opacity:1;stroke:none;"
     d="  M 56.058813,58.48809   L 57.257439,59.088532   L 54.700369,61.770504   z "
     id="path143" />
  <path
     style="fill:#000000;fill-rule:evenodd;fill-opacity:1;stroke:none;"
     d="  M 57.257439,59.088532   L 54.700369,61.770504   L 55.978904,62.210828   z "
     id="path144" />
  <path
     style="fill:#000000;fill-rule:evenodd;fill-opacity:1;stroke:none;"
     d="  M 54.700369,61.770504   L 55.978904,62.210828   L 53.861331,65.253065   z "
     id="path145" />
  <path
     style="fill:#000000;fill-rule:evenodd;fill-opacity:1;stroke:none;"
     d="  M 55.978904,62.210828   L 53.861331,65.253065   L 55.17982,65.493242   z "
     id="path146" />
  <path
     style="fill:#000000;fill-rule:evenodd;fill-opacity:1;stroke:none;"
     d="  M 53.861331,65.253065   L 55.17982,65.493242   L 53.581652,68.855714   z "
     id="path147" />
  <path
     style="fill:#000000;fill-rule:evenodd;fill-opacity:1;stroke:none;"
     d="  M 55.17982,65.493242   L 53.581652,68.855714   L 54.900141,68.855714   z "
     id="path148" />
  <path
     style="fill:#000000;fill-rule:evenodd;fill-opacity:1;stroke:none;"
     d="  M 53.581652,68.855714   L 54.900141,68.855714   L 53.861331,72.418334   z "
     id="path149" />
  <path
     style="fill:#000000;fill-rule:evenodd;fill-opacity:1;stroke:none;"
     d="  M 54.900141,68.855714   L 53.861331,72.418334   L 55.17982,72.218187   z "
     id="path150" />
  <path
     style="fill:#000000;fill-rule:evenodd;fill-opacity:1;stroke:none;"
     d="  M 53.861331,72.418334   L 55.17982,72.218187   L 54.700369,75.900895   z "
     id="path151" />
  <path
     style="fill:#000000;fill-rule:evenodd;fill-opacity:1;stroke:none;"
     d="  M 55.17982,72.218187   L 54.700369,75.900895   L 55.978904,75.500601   z "
     id="path152" />
  <path
     style="fill:#000000;fill-rule:evenodd;fill-opacity:1;stroke:none;"
     d="  M 54.700369,75.900895   L 55.978904,75.500601   L 56.058813,79.223338   z "
     id="path153" />
  <path
     style="fill:#000000;fill-rule:evenodd;fill-opacity:1;stroke:none;"
     d="  M 55.978904,75.500601   L 56.058813,79.223338   L 57.257439,78.622897   z "
     id="path154" />
  <path
     style="fill:#000000;fill-rule:evenodd;fill-opacity:1;stroke:none;"
     d="  M 56.058813,79.223338   L 57.257439,78.622897   L 57.936661,82.265576   z "
     id="path155" />
  <path
     style="fill:#000000;fill-rule:evenodd;fill-opacity:1;stroke:none;"
     d="  M 57.257439,78.622897   L 57.936661,82.265576   L 59.015424,81.464987   z "
     id="path156" />
  <path
     style="fill:#000000;fill-rule:evenodd;fill-opacity:1;stroke:none;"
     d="  M 57.936661,82.265576   L 59.015424,81.464987   L 60.254005,84.987577   z "
     id="path157" />
  <path
     style="fill:#000000;fill-rule:evenodd;fill-opacity:1;stroke:none;"
     d="  M 59.015424,81.464987   L 60.254005,84.987577   L 61.212906,84.026871   z "
     id="path158" />
  <path
     style="fill:#000000;fill-rule:evenodd;fill-opacity:1;stroke:none;"
     d="  M 60.254005,84.987577   L 61.212906,84.026871   L 62.970892,87.309285   z "
     id="path159" />
  <path
     style="fill:#000000;fill-rule:evenodd;fill-opacity:1;stroke:none;"
     d="  M 61.212906,84.026871   L 62.970892,87.309285   L 63.769976,86.22849   z "
     id="path160" />
  <path
     style="fill:#000000;fill-rule:evenodd;fill-opacity:1;stroke:none;"
     d="  M 62.970892,87.309285   L 63.769976,86.22849   L 66.007412,89.190668   z "
     id="path161" />
  <path
     style="fill:#000000;fill-rule:evenodd;fill-opacity:1;stroke:none;"
     d="  M 63.769976,86.22849   L 66.007412,89.190668   L 66.606725,87.989785   z "
     id="path162" />
  <path
     style="fill:#000000;fill-rule:evenodd;fill-opacity:1;stroke:none;"
     d="  M 66.007412,89.190668   L 66.606725,87.989785   L 69.323611,90.551669   z "
     id="path163" />
  <path
     style="fill:#000000;fill-rule:evenodd;fill-opacity:1;stroke:none;"
     d="  M 66.606725,87.989785   L 69.323611,90.551669   L 69.723154,89.310757   z "
     id="path164" />
  <path
     style="fill:#000000;fill-rule:evenodd;fill-opacity:1;stroke:none;"
     d="  M 69.323611,90.551669   L 69.723154,89.310757   L 72.799628,91.392287   z "
     id="path165" />
  <path
     style="fill:#000000;fill-rule:evenodd;fill-opacity:1;stroke:none;"
     d="  M 69.723154,89.310757   L 72.799628,91.392287   L 72.999399,90.071316   z "
     id="path166" />
  <path
     style="fill:#000000;fill-rule:evenodd;fill-opacity:1;stroke:none;"
     d="  M 72.799628,91.392287   L 72.999399,90.071316   L 76.355553,91.672493   z "
     id="path167" />
  <path
     style="fill:#000000;fill-rule:evenodd;fill-opacity:1;stroke:none;"
     d="  M 72.999399,90.071316   L 76.355553,91.672493   L 76.355553,90.351522   z "
     id="path168" />
  <path
     style="fill:#000000;fill-rule:evenodd;fill-opacity:1;stroke:none;"
     d="  M 76.355553,88.109873   L 76.355553,86.788902   L 79.352119,87.909726   z "
     id="path169" />
  <path
     style="fill:#000000;fill-rule:evenodd;fill-opacity:1;stroke:none;"
     d="  M 76.355553,86.788902   L 79.352119,87.909726   L 79.152348,86.588755   z "
     id="path170" />
  <path
     style="fill:#000000;fill-rule:evenodd;fill-opacity:1;stroke:none;"
     d="  M 79.352119,87.909726   L 79.152348,86.588755   L 82.308731,87.189196   z "
     id="path171" />
  <path
     style="fill:#000000;fill-rule:evenodd;fill-opacity:1;stroke:none;"
     d="  M 79.152348,86.588755   L 82.308731,87.189196   L 81.909188,85.908254   z "
     id="path172" />
  <path
     style="fill:#000000;fill-rule:evenodd;fill-opacity:1;stroke:none;"
     d="  M 82.308731,87.189196   L 81.909188,85.908254   L 85.105525,86.028343   z "
     id="path173" />
  <path
     style="fill:#000000;fill-rule:evenodd;fill-opacity:1;stroke:none;"
     d="  M 81.909188,85.908254   L 85.105525,86.028343   L 84.506212,84.82746   z "
     id="path174" />
  <path
     style="fill:#000000;fill-rule:evenodd;fill-opacity:1;stroke:none;"
     d="  M 85.105525,86.028343   L 84.506212,84.82746   L 87.662595,84.427165   z "
     id="path175" />
  <path
     style="fill:#000000;fill-rule:evenodd;fill-opacity:1;stroke:none;"
     d="  M 84.506212,84.82746   L 87.662595,84.427165   L 86.903465,83.3864   z "
     id="path176" />
  <path
     style="fill:#000000;fill-rule:evenodd;fill-opacity:1;stroke:none;"
     d="  M 87.662595,84.427165   L 86.903465,83.3864   L 89.979939,82.465723   z "
     id="path177" />
  <path
     style="fill:#000000;fill-rule:evenodd;fill-opacity:1;stroke:none;"
     d="  M 86.903465,83.3864   L 89.979939,82.465723   L 89.021038,81.545046   z "
     id="path178" />
  <path
     style="fill:#000000;fill-rule:evenodd;fill-opacity:1;stroke:none;"
     d="  M 89.979939,82.465723   L 89.021038,81.545046   L 91.937696,80.184045   z "
     id="path179" />
  <path
     style="fill:#000000;fill-rule:evenodd;fill-opacity:1;stroke:none;"
     d="  M 89.021038,81.545046   L 91.937696,80.184045   L 90.858932,79.383456   z "
     id="path180" />
  <path
     style="fill:#000000;fill-rule:evenodd;fill-opacity:1;stroke:none;"
     d="  M 91.937696,80.184045   L 90.858932,79.383456   L 93.49591,77.582132   z "
     id="path181" />
  <path
     style="fill:#000000;fill-rule:evenodd;fill-opacity:1;stroke:none;"
     d="  M 90.858932,79.383456   L 93.49591,77.582132   L 92.297284,76.98169   z "
     id="path182" />
  <path
     style="fill:#000000;fill-rule:evenodd;fill-opacity:1;stroke:none;"
     d="  M 93.49591,77.582132   L 92.297284,76.98169   L 94.654582,74.8201   z "
     id="path183" />
  <path
     style="fill:#000000;fill-rule:evenodd;fill-opacity:1;stroke:none;"
     d="  M 92.297284,76.98169   L 94.654582,74.8201   L 93.376048,74.379777   z "
     id="path184" />
  <path
     style="fill:#000000;fill-rule:evenodd;fill-opacity:1;stroke:none;"
     d="  M 94.654582,74.8201   L 93.376048,74.379777   L 95.373758,71.857922   z "
     id="path185" />
  <path
     style="fill:#000000;fill-rule:evenodd;fill-opacity:1;stroke:none;"
     d="  M 93.376048,74.379777   L 95.373758,71.857922   L 94.055269,71.657775   z "
     id="path186" />
  <path
     style="fill:#000000;fill-rule:evenodd;fill-opacity:1;stroke:none;"
     d="  M 95.373758,71.857922   L 94.055269,71.657775   L 95.613483,68.855714   z "
     id="path187" />
  <path
     style="fill:#000000;fill-rule:evenodd;fill-opacity:1;stroke:none;"
     d="  M 94.055269,71.657775   L 95.613483,68.855714   L 94.25504,68.855714   z "
     id="path188" />
  <path
     style="fill:#000000;fill-rule:evenodd;fill-opacity:1;stroke:none;"
     d="  M 95.613483,68.855714   L 94.25504,68.855714   L 95.373758,65.813477   z "
     id="path189" />
  <path
     style="fill:#000000;fill-rule:evenodd;fill-opacity:1;stroke:none;"
     d="  M 94.25504,68.855714   L 95.373758,65.813477   L 94.055269,66.013624   z "
     id="path190" />
  <path
     style="fill:#000000;fill-rule:evenodd;fill-opacity:1;stroke:none;"
     d="  M 95.373758,65.813477   L 94.055269,66.013624   L 94.654582,62.891328   z "
     id="path191" />
  <path
     style="fill:#000000;fill-rule:evenodd;fill-opacity:1;stroke:none;"
     d="  M 94.055269,66.013624   L 94.654582,62.891328   L 93.376048,63.291623   z "
     id="path192" />
  <path
     style="fill:#000000;fill-rule:evenodd;fill-opacity:1;stroke:none;"
     d="  M 94.654582,62.891328   L 93.376048,63.291623   L 93.49591,60.089268   z "
     id="path193" />
  <path
     style="fill:#000000;fill-rule:evenodd;fill-opacity:1;stroke:none;"
     d="  M 93.376048,63.291623   L 93.49591,60.089268   L 92.297284,60.689709   z "
     id="path194" />
  <path
     style="fill:#000000;fill-rule:evenodd;fill-opacity:1;stroke:none;"
     d="  M 93.49591,60.089268   L 92.297284,60.689709   L 91.937696,57.487354   z "
     id="path195" />
  <path
     style="fill:#000000;fill-rule:evenodd;fill-opacity:1;stroke:none;"
     d="  M 92.297284,60.689709   L 91.937696,57.487354   L 90.858932,58.287943   z "
     id="path196" />
  <path
     style="fill:#000000;fill-rule:evenodd;fill-opacity:1;stroke:none;"
     d="  M 91.937696,57.487354   L 90.858932,58.287943   L 89.979939,55.205676   z "
     id="path197" />
  <path
     style="fill:#000000;fill-rule:evenodd;fill-opacity:1;stroke:none;"
     d="  M 90.858932,58.287943   L 89.979939,55.205676   L 89.021038,56.126353   z "
     id="path198" />
  <path
     style="fill:#000000;fill-rule:evenodd;fill-opacity:1;stroke:none;"
     d="  M 89.979939,55.205676   L 89.021038,56.126353   L 87.662595,53.244234   z "
     id="path199" />
  <path
     style="fill:#000000;fill-rule:evenodd;fill-opacity:1;stroke:none;"
     d="  M 89.021038,56.126353   L 87.662595,53.244234   L 86.903465,54.325029   z "
     id="path200" />
  <path
     style="fill:#000000;fill-rule:evenodd;fill-opacity:1;stroke:none;"
     d="  M 87.662595,53.244234   L 86.903465,54.325029   L 85.105525,51.643057   z "
     id="path201" />
  <path
     style="fill:#000000;fill-rule:evenodd;fill-opacity:1;stroke:none;"
     d="  M 86.903465,54.325029   L 85.105525,51.643057   L 84.506212,52.84394   z "
     id="path202" />
  <path
     style="fill:#000000;fill-rule:evenodd;fill-opacity:1;stroke:none;"
     d="  M 85.105525,51.643057   L 84.506212,52.84394   L 82.308731,50.482203   z "
     id="path203" />
  <path
     style="fill:#000000;fill-rule:evenodd;fill-opacity:1;stroke:none;"
     d="  M 84.506212,52.84394   L 82.308731,50.482203   L 81.909188,51.763145   z "
     id="path204" />
  <path
     style="fill:#000000;fill-rule:evenodd;fill-opacity:1;stroke:none;"
     d="  M 82.308731,50.482203   L 81.909188,51.763145   L 79.352119,49.801702   z "
     id="path205" />
  <path
     style="fill:#000000;fill-rule:evenodd;fill-opacity:1;stroke:none;"
     d="  M 81.909188,51.763145   L 79.352119,49.801702   L 79.152348,51.122674   z "
     id="path206" />
  <path
     style="fill:#000000;fill-rule:evenodd;fill-opacity:1;stroke:none;"
     d="  M 79.352119,49.801702   L 79.152348,51.122674   L 76.355553,49.561526   z "
     id="path207" />
  <path
     style="fill:#000000;fill-rule:evenodd;fill-opacity:1;stroke:none;"
     d="  M 79.152348,51.122674   L 76.355553,49.561526   L 76.355553,50.882497   z "
     id="path208" />
  <path
     style="fill:#000000;fill-rule:evenodd;fill-opacity:1;stroke:none;"
     d="  M 76.355553,49.561526   L 76.355553,50.882497   L 73.358987,49.801702   z "
     id="path209" />
  <path
     style="fill:#000000;fill-rule:evenodd;fill-opacity:1;stroke:none;"
     d="  M 76.355553,50.882497   L 73.358987,49.801702   L 73.558758,51.122674   z "
     id="path210" />
  <path
     style="fill:#000000;fill-rule:evenodd;fill-opacity:1;stroke:none;"
     d="  M 73.358987,49.801702   L 73.558758,51.122674   L 70.402375,50.482203   z "
     id="path211" />
  <path
     style="fill:#000000;fill-rule:evenodd;fill-opacity:1;stroke:none;"
     d="  M 73.558758,51.122674   L 70.402375,50.482203   L 70.841871,51.763145   z "
     id="path212" />
  <path
     style="fill:#000000;fill-rule:evenodd;fill-opacity:1;stroke:none;"
     d="  M 70.402375,50.482203   L 70.841871,51.763145   L 67.645534,51.643057   z "
     id="path213" />
  <path
     style="fill:#000000;fill-rule:evenodd;fill-opacity:1;stroke:none;"
     d="  M 70.841871,51.763145   L 67.645534,51.643057   L 68.244848,52.84394   z "
     id="path214" />
  <path
     style="fill:#000000;fill-rule:evenodd;fill-opacity:1;stroke:none;"
     d="  M 67.645534,51.643057   L 68.244848,52.84394   L 65.048511,53.244234   z "
     id="path215" />
  <path
     style="fill:#000000;fill-rule:evenodd;fill-opacity:1;stroke:none;"
     d="  M 68.244848,52.84394   L 65.048511,53.244234   L 65.847595,54.325029   z "
     id="path216" />
  <path
     style="fill:#000000;fill-rule:evenodd;fill-opacity:1;stroke:none;"
     d="  M 65.048511,53.244234   L 65.847595,54.325029   L 62.77112,55.205676   z "
     id="path217" />
  <path
     style="fill:#000000;fill-rule:evenodd;fill-opacity:1;stroke:none;"
     d="  M 65.847595,54.325029   L 62.77112,55.205676   L 63.690067,56.126353   z "
     id="path218" />
  <path
     style="fill:#000000;fill-rule:evenodd;fill-opacity:1;stroke:none;"
     d="  M 62.77112,55.205676   L 63.690067,56.126353   L 60.813364,57.487354   z "
     id="path219" />
  <path
     style="fill:#000000;fill-rule:evenodd;fill-opacity:1;stroke:none;"
     d="  M 63.690067,56.126353   L 60.813364,57.487354   L 61.892128,58.287943   z "
     id="path220" />
  <path
     style="fill:#000000;fill-rule:evenodd;fill-opacity:1;stroke:none;"
     d="  M 60.813364,57.487354   L 61.892128,58.287943   L 59.215196,60.089268   z "
     id="path221" />
  <path
     style="fill:#000000;fill-rule:evenodd;fill-opacity:1;stroke:none;"
     d="  M 61.892128,58.287943   L 59.215196,60.089268   L 60.413822,60.689709   z "
     id="path222" />
  <path
     style="fill:#000000;fill-rule:evenodd;fill-opacity:1;stroke:none;"
     d="  M 59.215196,60.089268   L 60.413822,60.689709   L 58.056523,62.891328   z "
     id="path223" />
  <path
     style="fill:#000000;fill-rule:evenodd;fill-opacity:1;stroke:none;"
     d="  M 60.413822,60.689709   L 58.056523,62.891328   L 59.335058,63.291623   z "
     id="path224" />
  <path
     style="fill:#000000;fill-rule:evenodd;fill-opacity:1;stroke:none;"
     d="  M 58.056523,62.891328   L 59.335058,63.291623   L 57.377302,65.813477   z "
     id="path225" />
  <path
     style="fill:#000000;fill-rule:evenodd;fill-opacity:1;stroke:none;"
     d="  M 59.335058,63.291623   L 57.377302,65.813477   L 58.655837,66.013624   z "
     id="path226" />
  <path
     style="fill:#000000;fill-rule:evenodd;fill-opacity:1;stroke:none;"
     d="  M 57.377302,65.813477   L 58.655837,66.013624   L 57.137576,68.855714   z "
     id="path227" />
  <path
     style="fill:#000000;fill-rule:evenodd;fill-opacity:1;stroke:none;"
     d="  M 58.655837,66.013624   L 57.137576,68.855714   L 58.456066,68.855714   z "
     id="path228" />
  <path
     style="fill:#000000;fill-rule:evenodd;fill-opacity:1;stroke:none;"
     d="  M 57.137576,68.855714   L 58.456066,68.855714   L 57.377302,71.857922   z "
     id="path229" />
  <path
     style="fill:#000000;fill-rule:evenodd;fill-opacity:1;stroke:none;"
     d="  M 58.456066,68.855714   L 57.377302,71.857922   L 58.655837,71.657775   z "
     id="path230" />
  <path
     style="fill:#000000;fill-rule:evenodd;fill-opacity:1;stroke:none;"
     d="  M 57.377302,71.857922   L 58.655837,71.657775   L 58.056523,74.8201   z "
     id="path231" />
  <path
     style="fill:#000000;fill-rule:evenodd;fill-opacity:1;stroke:none;"
     d="  M 58.655837,71.657775   L 58.056523,74.8201   L 59.335058,74.379777   z "
     id="path232" />
  <path
     style="fill:#000000;fill-rule:evenodd;fill-opacity:1;stroke:none;"
     d="  M 58.056523,74.8201   L 59.335058,74.379777   L 59.215196,77.582132   z "
     id="path233" />
  <path
     style="fill:#000000;fill-rule:evenodd;fill-opacity:1;stroke:none;"
     d="  M 59.335058,74.379777   L 59.215196,77.582132   L 60.413822,76.98169   z "
     id="path234" />
  <path
     style="fill:#000000;fill-rule:evenodd;fill-opacity:1;stroke:none;"
     d="  M 59.215196,77.582132   L 60.413822,76.98169   L 60.813364,80.184045   z "
     id="path235" />
  <path
     style="fill:#000000;fill-rule:evenodd;fill-opacity:1;stroke:none;"
     d="  M 60.413822,76.98169   L 60.813364,80.184045   L 61.892128,79.383456   z "
     id="path236" />
  <path
     style="fill:#000000;fill-rule:evenodd;fill-opacity:1;stroke:none;"
     d="  M 60.813364,80.184045   L 61.892128,79.383456   L 62.77112,82.465723   z "
     id="path237" />
  <path
     style="fill:#000000;fill-rule:evenodd;fill-opacity:1;stroke:none;"
     d="  M 61.892128,79.383456   L 62.77112,82.465723   L 63.690067,81.545046   z "
     id="path238" />
  <path
     style="fill:#000000;fill-rule:evenodd;fill-opacity:1;stroke:none;"
     d="  M 62.77112,82.465723   L 63.690067,81.545046   L 65.048511,84.427165   z "
     id="path239" />
  <path
     style="fill:#000000;fill-rule:evenodd;fill-opacity:1;stroke:none;"
     d="  M 63.690067,81.545046   L 65.048511,84.427165   L 65.847595,83.3864   z "
     id="path240" />
  <path
     style="fill:#000000;fill-rule:evenodd;fill-opacity:1;stroke:none;"
     d="  M 65.048511,84.427165   L 65.847595,83.3864   L 67.645534,86.028343   z "
     id="path241" />
  <path
     style="fill:#000000;fill-rule:evenodd;fill-opacity:1;stroke:none;"
     d="  M 65.847595,83.3864   L 67.645534,86.028343   L 68.244848,84.82746   z "
     id="path242" />
  <path
     style="fill:#000000;fill-rule:evenodd;fill-opacity:1;stroke:none;"
     d="  M 67.645534,86.028343   L 68.244848,84.82746   L 70.402375,87.189196   z "
     id="path243" />
  <path
     style="fill:#000000;fill-rule:evenodd;fill-opacity:1;stroke:none;"
     d="  M 68.244848,84.82746   L 70.402375,87.189196   L 70.841871,85.908254   z "
     id="path244" />
  <path
     style="fill:#000000;fill-rule:evenodd;fill-opacity:1;stroke:none;"
     d="  M 70.402375,87.189196   L 70.841871,85.908254   L 73.358987,87.909726   z "
     id="path245" />
  <path
     style="fill:#000000;fill-rule:evenodd;fill-opacity:1;stroke:none;"
     d="  M 70.841871,85.908254   L 73.358987,87.909726   L 73.558758,86.588755   z "
     id="path246" />
  <path
     style="fill:#000000;fill-rule:evenodd;fill-opacity:1;stroke:none;"
     d="  M 73.358987,87.909726   L 73.558758,86.588755   L 76.355553,88.109873   z "
     id="path247" />
  <path
     style="fill:#000000;fill-rule:evenodd;fill-opacity:1;stroke:none;"
     d="  M 73.558758,86.588755   L 76.355553,88.109873   L 76.355553,86.788902   z "
     id="path248" />
  <path
     style="fill:none;stroke:#000000;stroke-width:0.95890111px;stroke-linecap:round;stroke-linejoin:round;stroke-miterlimit:4;stroke-dasharray:none;stroke-opacity:1;"
     d="  M 76.51537,10.332678   L 76.51537,18.498683   L 76.155782,20.019801   L 75.796194,20.540184   L 75.077018,21.060567   L 73.998254,21.060567   L 73.279078,20.540184  "
     id="path249" />
  <path
     style="fill:none;stroke:#000000;stroke-width:0.95890111px;stroke-linecap:round;stroke-linejoin:round;stroke-miterlimit:4;stroke-dasharray:none;stroke-opacity:1;"
     d="  M 76.51537,11.853796   L 75.796194,10.813031   L 75.077018,10.332678   L 73.998254,10.332678   L 73.279078,10.813031   L 72.599857,11.853796   L 72.240269,13.374915   L 72.240269,14.41568   L 72.599857,15.936799   L 73.279078,16.977564   L 73.998254,17.457918   L 75.077018,17.457918   L 75.796194,16.977564   L 76.51537,15.936799  "
     id="path250" />
  <path
     style="fill:none;stroke:#000000;stroke-width:0.95890111px;stroke-linecap:round;stroke-linejoin:round;stroke-miterlimit:4;stroke-dasharray:none;stroke-opacity:1;"
     d="  M 79.55189,12.614356   L 79.55189,16.977564   L 79.711707,17.738124   L 80.071295,17.9783   L 80.430883,17.9783  "
     id="path251" />
  <path
     style="fill:none;stroke:#000000;stroke-width:0.95890111px;stroke-linecap:round;stroke-linejoin:round;stroke-miterlimit:4;stroke-dasharray:none;stroke-opacity:1;"
     d="  M 78.992531,14.41568   L 80.271066,14.41568  "
     id="path252" />
  <path
     style="fill:none;stroke:#000000;stroke-width:0.95890111px;stroke-linecap:round;stroke-linejoin:round;stroke-miterlimit:4;stroke-dasharray:none;stroke-opacity:1;"
     d="  M 13.427668,50.802438   L 13.427668,50.322085   L 13.787256,49.28132   L 14.146843,48.760937   L 14.826065,48.240554   L 16.264417,48.240554   L 16.983593,48.760937   L 17.34318,49.28132   L 17.702768,50.322085   L 17.702768,51.322821   L 17.34318,52.363586   L 16.624005,53.884705   L 13.06808,59.008473   L 18.062356,59.008473  "
     id="path253" />
  <path
     style="fill:none;stroke:#000000;stroke-width:0.95890111px;stroke-linecap:round;stroke-linejoin:round;stroke-miterlimit:4;stroke-dasharray:none;stroke-opacity:1;"
     d="  M 136.80628,50.802438   L 136.80628,50.322085   L 137.16586,49.28132   L 137.52545,48.760937   L 138.24463,48.240554   L 139.68298,48.240554   L 140.3622,48.760937   L 140.72179,49.28132   L 141.08138,50.322085   L 141.08138,51.322821   L 140.72179,52.363586   L 140.00261,53.884705   L 136.44669,59.008473   L 141.44097,59.008473  "
     id="path254" />
</svg>
