<?xml version="1.0" encoding="UTF-8" standalone="no"?>
<svg
   version="1.0"
   width="95.115577mm"
   height="57.290241mm"
   id="svg161"
   sodipodi:docname="image838.wmf"
   xmlns:inkscape="http://www.inkscape.org/namespaces/inkscape"
   xmlns:sodipodi="http://sodipodi.sourceforge.net/DTD/sodipodi-0.dtd"
   xmlns="http://www.w3.org/2000/svg"
   xmlns:svg="http://www.w3.org/2000/svg">
  <sodipodi:namedview
     id="namedview161"
     pagecolor="#ffffff"
     bordercolor="#000000"
     borderopacity="0.25"
     inkscape:showpageshadow="2"
     inkscape:pageopacity="0.0"
     inkscape:pagecheckerboard="0"
     inkscape:deskcolor="#d1d1d1"
     inkscape:document-units="mm" />
  <defs
     id="defs1">
    <pattern
       id="WMFhbasepattern"
       patternUnits="userSpaceOnUse"
       width="6"
       height="6"
       x="0"
       y="0" />
  </defs>
  <path
     style="fill:none;stroke:#000000;stroke-width:0.010985238px;stroke-linecap:round;stroke-linejoin:round;stroke-miterlimit:4;stroke-dasharray:none;stroke-opacity:1;"
     d="  M 200.51356,77.171301   L 195.59217,77.171301  "
     id="path1" />
  <path
     style="fill:none;stroke:#000000;stroke-width:0.010985238px;stroke-linecap:round;stroke-linejoin:round;stroke-miterlimit:4;stroke-dasharray:none;stroke-opacity:1;"
     d="  M 200.51356,116.58634   L 195.59217,116.58634  "
     id="path2" />
  <path
     style="fill:none;stroke:#000000;stroke-width:0.010985238px;stroke-linecap:round;stroke-linejoin:round;stroke-miterlimit:4;stroke-dasharray:none;stroke-opacity:1;"
     d="  M 200.51356,116.58634   L 200.51356,77.171301  "
     id="path3" />
  <path
     style="fill:none;stroke:#000000;stroke-width:0.010985238px;stroke-linecap:round;stroke-linejoin:round;stroke-miterlimit:4;stroke-dasharray:none;stroke-opacity:1;"
     d="  M 147.32303,116.58634   L 147.32303,77.171301  "
     id="path4" />
  <path
     style="fill:none;stroke:#000000;stroke-width:0.010985238px;stroke-linecap:round;stroke-linejoin:round;stroke-miterlimit:4;stroke-dasharray:none;stroke-opacity:1;"
     d="  M 195.59217,116.58634   L 195.59217,77.171301  "
     id="path5" />
  <path
     style="fill:none;stroke:#000000;stroke-width:0.010985238px;stroke-linecap:round;stroke-linejoin:round;stroke-miterlimit:4;stroke-dasharray:none;stroke-opacity:1;"
     d="  M 142.40165,116.58634   L 142.40165,77.171301  "
     id="path6" />
  <path
     style="fill:none;stroke:#000000;stroke-width:0.010985238px;stroke-linecap:round;stroke-linejoin:round;stroke-miterlimit:4;stroke-dasharray:none;stroke-opacity:1;"
     d="  M 171.4576,122.18881   L 171.4576,111.63199  "
     id="path7" />
  <path
     style="fill:none;stroke:#000000;stroke-width:0.010985238px;stroke-linecap:round;stroke-linejoin:round;stroke-miterlimit:4;stroke-dasharray:none;stroke-opacity:1;"
     d="  M 171.4576,109.9183   L 171.4576,108.21559  "
     id="path8" />
  <path
     style="fill:none;stroke:#000000;stroke-width:0.010985238px;stroke-linecap:round;stroke-linejoin:round;stroke-miterlimit:4;stroke-dasharray:none;stroke-opacity:1;"
     d="  M 171.4576,106.51287   L 171.4576,97.977343  "
     id="path9" />
  <path
     style="fill:none;stroke:#000000;stroke-width:0.010985238px;stroke-linecap:round;stroke-linejoin:round;stroke-miterlimit:4;stroke-dasharray:none;stroke-opacity:1;"
     d="  M 171.4576,96.263646   L 171.4576,94.560934  "
     id="path10" />
  <path
     style="fill:none;stroke:#000000;stroke-width:0.010985238px;stroke-linecap:round;stroke-linejoin:round;stroke-miterlimit:4;stroke-dasharray:none;stroke-opacity:1;"
     d="  M 171.4576,92.858222   L 171.4576,84.322691  "
     id="path11" />
  <path
     style="fill:none;stroke:#000000;stroke-width:0.010985238px;stroke-linecap:round;stroke-linejoin:round;stroke-miterlimit:4;stroke-dasharray:none;stroke-opacity:1;"
     d="  M 171.4576,82.608994   L 171.4576,80.906282  "
     id="path12" />
  <path
     style="fill:none;stroke:#000000;stroke-width:0.010985238px;stroke-linecap:round;stroke-linejoin:round;stroke-miterlimit:4;stroke-dasharray:none;stroke-opacity:1;"
     d="  M 171.4576,79.20357   L 171.4576,68.635771  "
     id="path13" />
  <path
     style="fill:none;stroke:#000000;stroke-width:0.010985238px;stroke-linecap:round;stroke-linejoin:round;stroke-miterlimit:4;stroke-dasharray:none;stroke-opacity:1;"
     d="  M 142.40165,116.58634   L 147.32303,116.58634  "
     id="path14" />
  <path
     style="fill:none;stroke:#000000;stroke-width:0.010985238px;stroke-linecap:round;stroke-linejoin:round;stroke-miterlimit:4;stroke-dasharray:none;stroke-opacity:1;"
     d="  M 147.32303,95.395812   L 195.59217,95.395812  "
     id="path15" />
  <path
     style="fill:none;stroke:#000000;stroke-width:0.010985238px;stroke-linecap:round;stroke-linejoin:round;stroke-miterlimit:4;stroke-dasharray:none;stroke-opacity:1;"
     d="  M 147.32303,98.350841   L 195.59217,98.350841  "
     id="path16" />
  <path
     style="fill:none;stroke:#000000;stroke-width:0.010985238px;stroke-linecap:round;stroke-linejoin:round;stroke-miterlimit:4;stroke-dasharray:none;stroke-opacity:1;"
     d="  M 147.32303,96.878819   L 153.49674,96.878819  "
     id="path17" />
  <path
     style="fill:none;stroke:#000000;stroke-width:0.010985238px;stroke-linecap:round;stroke-linejoin:round;stroke-miterlimit:4;stroke-dasharray:none;stroke-opacity:1;"
     d="  M 155.19945,96.878819   L 156.90216,96.878819  "
     id="path18" />
  <path
     style="fill:none;stroke:#000000;stroke-width:0.010985238px;stroke-linecap:round;stroke-linejoin:round;stroke-miterlimit:4;stroke-dasharray:none;stroke-opacity:1;"
     d="  M 158.61586,96.878819   L 167.14041,96.878819  "
     id="path19" />
  <path
     style="fill:none;stroke:#000000;stroke-width:0.010985238px;stroke-linecap:round;stroke-linejoin:round;stroke-miterlimit:4;stroke-dasharray:none;stroke-opacity:1;"
     d="  M 168.84312,96.878819   L 170.55681,96.878819  "
     id="path20" />
  <path
     style="fill:none;stroke:#000000;stroke-width:0.010985238px;stroke-linecap:round;stroke-linejoin:round;stroke-miterlimit:4;stroke-dasharray:none;stroke-opacity:1;"
     d="  M 172.25953,96.878819   L 180.78407,96.878819  "
     id="path21" />
  <path
     style="fill:none;stroke:#000000;stroke-width:0.010985238px;stroke-linecap:round;stroke-linejoin:round;stroke-miterlimit:4;stroke-dasharray:none;stroke-opacity:1;"
     d="  M 182.49777,96.878819   L 184.20048,96.878819  "
     id="path22" />
  <path
     style="fill:none;stroke:#000000;stroke-width:0.010985238px;stroke-linecap:round;stroke-linejoin:round;stroke-miterlimit:4;stroke-dasharray:none;stroke-opacity:1;"
     d="  M 185.90319,96.878819   L 194.43872,96.878819  "
     id="path23" />
  <path
     style="fill:none;stroke:#000000;stroke-width:0.010985238px;stroke-linecap:round;stroke-linejoin:round;stroke-miterlimit:4;stroke-dasharray:none;stroke-opacity:1;"
     d="  M 196.14143,96.878819   L 197.84415,96.878819  "
     id="path24" />
  <path
     style="fill:none;stroke:#000000;stroke-width:0.010985238px;stroke-linecap:round;stroke-linejoin:round;stroke-miterlimit:4;stroke-dasharray:none;stroke-opacity:1;"
     d="  M 199.55784,96.878819   L 208.08239,96.878819  "
     id="path25" />
  <path
     style="fill:none;stroke:#000000;stroke-width:0.010985238px;stroke-linecap:round;stroke-linejoin:round;stroke-miterlimit:4;stroke-dasharray:none;stroke-opacity:1;"
     d="  M 209.7851,96.878819   L 211.4988,96.878819  "
     id="path26" />
  <path
     style="fill:none;stroke:#000000;stroke-width:0.010985238px;stroke-linecap:round;stroke-linejoin:round;stroke-miterlimit:4;stroke-dasharray:none;stroke-opacity:1;"
     d="  M 213.20151,96.878819   L 221.72606,96.878819  "
     id="path27" />
  <path
     style="fill:none;stroke:#000000;stroke-width:0.010985238px;stroke-linecap:round;stroke-linejoin:round;stroke-miterlimit:4;stroke-dasharray:none;stroke-opacity:1;"
     d="  M 223.43975,96.878819   L 225.14246,96.878819  "
     id="path28" />
  <path
     style="fill:none;stroke:#000000;stroke-width:0.010985238px;stroke-linecap:round;stroke-linejoin:round;stroke-miterlimit:4;stroke-dasharray:none;stroke-opacity:1;"
     d="  M 226.84518,96.878819   L 235.38071,96.878819  "
     id="path29" />
  <path
     style="fill:none;stroke:#000000;stroke-width:0.010985238px;stroke-linecap:round;stroke-linejoin:round;stroke-miterlimit:4;stroke-dasharray:none;stroke-opacity:1;"
     d="  M 237.08342,96.878819   L 238.78613,96.878819  "
     id="path30" />
  <path
     style="fill:none;stroke:#000000;stroke-width:0.010985238px;stroke-linecap:round;stroke-linejoin:round;stroke-miterlimit:4;stroke-dasharray:none;stroke-opacity:1;"
     d="  M 240.48884,96.878819   L 249.02437,96.878819  "
     id="path31" />
  <path
     style="fill:none;stroke:#000000;stroke-width:0.010985238px;stroke-linecap:round;stroke-linejoin:round;stroke-miterlimit:4;stroke-dasharray:none;stroke-opacity:1;"
     d="  M 250.72709,96.878819   L 252.44078,96.878819  "
     id="path32" />
  <path
     style="fill:none;stroke:#000000;stroke-width:0.010985238px;stroke-linecap:round;stroke-linejoin:round;stroke-miterlimit:4;stroke-dasharray:none;stroke-opacity:1;"
     d="  M 254.14349,96.878819   L 260.30621,96.878819  "
     id="path33" />
  <path
     style="fill:none;stroke:#000000;stroke-width:0.010985238px;stroke-linecap:round;stroke-linejoin:round;stroke-miterlimit:4;stroke-dasharray:none;stroke-opacity:1;"
     d="  M 200.51356,95.395812   L 203.97391,95.395812  "
     id="path34" />
  <path
     style="fill:none;stroke:#000000;stroke-width:0.010985238px;stroke-linecap:round;stroke-linejoin:round;stroke-miterlimit:4;stroke-dasharray:none;stroke-opacity:1;"
     d="  M 205.67662,95.395812   L 209.09303,95.395812  "
     id="path35" />
  <path
     style="fill:none;stroke:#000000;stroke-width:0.010985238px;stroke-linecap:round;stroke-linejoin:round;stroke-miterlimit:4;stroke-dasharray:none;stroke-opacity:1;"
     d="  M 210.79574,95.395812   L 214.21215,95.395812  "
     id="path36" />
  <path
     style="fill:none;stroke:#000000;stroke-width:0.010985238px;stroke-linecap:round;stroke-linejoin:round;stroke-miterlimit:4;stroke-dasharray:none;stroke-opacity:1;"
     d="  M 215.91486,95.395812   L 219.32029,95.395812  "
     id="path37" />
  <path
     style="fill:none;stroke:#000000;stroke-width:0.010985238px;stroke-linecap:round;stroke-linejoin:round;stroke-miterlimit:4;stroke-dasharray:none;stroke-opacity:1;"
     d="  M 221.03399,95.395812   L 224.43941,95.395812  "
     id="path38" />
  <path
     style="fill:none;stroke:#000000;stroke-width:0.010985238px;stroke-linecap:round;stroke-linejoin:round;stroke-miterlimit:4;stroke-dasharray:none;stroke-opacity:1;"
     d="  M 226.15311,95.395812   L 229.55853,95.395812  "
     id="path39" />
  <path
     style="fill:none;stroke:#000000;stroke-width:0.010985238px;stroke-linecap:round;stroke-linejoin:round;stroke-miterlimit:4;stroke-dasharray:none;stroke-opacity:1;"
     d="  M 231.26124,95.395812   L 234.67765,95.395812  "
     id="path40" />
  <path
     style="fill:none;stroke:#000000;stroke-width:0.010985238px;stroke-linecap:round;stroke-linejoin:round;stroke-miterlimit:4;stroke-dasharray:none;stroke-opacity:1;"
     d="  M 236.38036,95.395812   L 239.79677,95.395812  "
     id="path41" />
  <path
     style="fill:none;stroke:#000000;stroke-width:0.010985238px;stroke-linecap:round;stroke-linejoin:round;stroke-miterlimit:4;stroke-dasharray:none;stroke-opacity:1;"
     d="  M 241.49949,95.395812   L 244.91589,95.395812  "
     id="path42" />
  <path
     style="fill:none;stroke:#000000;stroke-width:0.010985238px;stroke-linecap:round;stroke-linejoin:round;stroke-miterlimit:4;stroke-dasharray:none;stroke-opacity:1;"
     d="  M 246.61861,95.395812   L 250.03502,95.395812  "
     id="path43" />
  <path
     style="fill:none;stroke:#000000;stroke-width:0.010985238px;stroke-linecap:round;stroke-linejoin:round;stroke-miterlimit:4;stroke-dasharray:none;stroke-opacity:1;"
     d="  M 251.73773,95.395812   L 255.15414,95.395812  "
     id="path44" />
  <path
     style="fill:none;stroke:#000000;stroke-width:0.010985238px;stroke-linecap:round;stroke-linejoin:round;stroke-miterlimit:4;stroke-dasharray:none;stroke-opacity:1;"
     d="  M 256.85685,95.395812   L 260.30621,95.395812  "
     id="path45" />
  <path
     style="fill:none;stroke:#000000;stroke-width:0.010985238px;stroke-linecap:round;stroke-linejoin:round;stroke-miterlimit:4;stroke-dasharray:none;stroke-opacity:1;"
     d="  M 200.51356,98.350841   L 203.97391,98.350841  "
     id="path46" />
  <path
     style="fill:none;stroke:#000000;stroke-width:0.010985238px;stroke-linecap:round;stroke-linejoin:round;stroke-miterlimit:4;stroke-dasharray:none;stroke-opacity:1;"
     d="  M 205.67662,98.350841   L 209.09303,98.350841  "
     id="path47" />
  <path
     style="fill:none;stroke:#000000;stroke-width:0.010985238px;stroke-linecap:round;stroke-linejoin:round;stroke-miterlimit:4;stroke-dasharray:none;stroke-opacity:1;"
     d="  M 210.79574,98.350841   L 214.21215,98.350841  "
     id="path48" />
  <path
     style="fill:none;stroke:#000000;stroke-width:0.010985238px;stroke-linecap:round;stroke-linejoin:round;stroke-miterlimit:4;stroke-dasharray:none;stroke-opacity:1;"
     d="  M 215.91486,98.350841   L 219.32029,98.350841  "
     id="path49" />
  <path
     style="fill:none;stroke:#000000;stroke-width:0.010985238px;stroke-linecap:round;stroke-linejoin:round;stroke-miterlimit:4;stroke-dasharray:none;stroke-opacity:1;"
     d="  M 221.03399,98.350841   L 224.43941,98.350841  "
     id="path50" />
  <path
     style="fill:none;stroke:#000000;stroke-width:0.010985238px;stroke-linecap:round;stroke-linejoin:round;stroke-miterlimit:4;stroke-dasharray:none;stroke-opacity:1;"
     d="  M 226.15311,98.350841   L 229.55853,98.350841  "
     id="path51" />
  <path
     style="fill:none;stroke:#000000;stroke-width:0.010985238px;stroke-linecap:round;stroke-linejoin:round;stroke-miterlimit:4;stroke-dasharray:none;stroke-opacity:1;"
     d="  M 231.26124,98.350841   L 234.67765,98.350841  "
     id="path52" />
  <path
     style="fill:none;stroke:#000000;stroke-width:0.010985238px;stroke-linecap:round;stroke-linejoin:round;stroke-miterlimit:4;stroke-dasharray:none;stroke-opacity:1;"
     d="  M 236.38036,98.350841   L 239.79677,98.350841  "
     id="path53" />
  <path
     style="fill:none;stroke:#000000;stroke-width:0.010985238px;stroke-linecap:round;stroke-linejoin:round;stroke-miterlimit:4;stroke-dasharray:none;stroke-opacity:1;"
     d="  M 241.49949,98.350841   L 244.91589,98.350841  "
     id="path54" />
  <path
     style="fill:none;stroke:#000000;stroke-width:0.010985238px;stroke-linecap:round;stroke-linejoin:round;stroke-miterlimit:4;stroke-dasharray:none;stroke-opacity:1;"
     d="  M 246.61861,98.350841   L 250.03502,98.350841  "
     id="path55" />
  <path
     style="fill:none;stroke:#000000;stroke-width:0.010985238px;stroke-linecap:round;stroke-linejoin:round;stroke-miterlimit:4;stroke-dasharray:none;stroke-opacity:1;"
     d="  M 251.73773,98.350841   L 255.15414,98.350841  "
     id="path56" />
  <path
     style="fill:none;stroke:#000000;stroke-width:0.010985238px;stroke-linecap:round;stroke-linejoin:round;stroke-miterlimit:4;stroke-dasharray:none;stroke-opacity:1;"
     d="  M 256.85685,98.350841   L 260.30621,98.350841  "
     id="path57" />
  <path
     style="fill:none;stroke:#000000;stroke-width:0.010985238px;stroke-linecap:round;stroke-linejoin:round;stroke-miterlimit:4;stroke-dasharray:none;stroke-opacity:1;"
     d="  M 142.40165,77.171301   L 147.32303,77.171301  "
     id="path58" />
  <path
     style="fill:none;stroke:#000000;stroke-width:0.010985238px;stroke-linecap:round;stroke-linejoin:round;stroke-miterlimit:4;stroke-dasharray:none;stroke-opacity:1;"
     d="  M 200.51356,109.19327   L 218.56231,109.19327  "
     id="path59" />
  <path
     style="fill:none;stroke:#000000;stroke-width:0.010985238px;stroke-linecap:round;stroke-linejoin:round;stroke-miterlimit:4;stroke-dasharray:none;stroke-opacity:1;"
     d="  M 246.14624,109.19327   L 260.30621,109.19327  "
     id="path60" />
  <path
     style="fill:none;stroke:#000000;stroke-width:0.010985238px;stroke-linecap:round;stroke-linejoin:round;stroke-miterlimit:4;stroke-dasharray:none;stroke-opacity:1;"
     d="  M 200.51356,84.553381   L 218.56231,84.553381  "
     id="path61" />
  <path
     style="fill:none;stroke:#000000;stroke-width:0.010985238px;stroke-linecap:round;stroke-linejoin:round;stroke-miterlimit:4;stroke-dasharray:none;stroke-opacity:1;"
     d="  M 246.14624,84.553381   L 260.30621,84.553381  "
     id="path62" />
  <path
     style="fill:none;stroke:#000000;stroke-width:0.010985238px;stroke-linecap:round;stroke-linejoin:round;stroke-miterlimit:4;stroke-dasharray:none;stroke-opacity:1;"
     d="  M 147.32303,77.171301   L 195.59217,77.171301  "
     id="path63" />
  <path
     style="fill:none;stroke:#000000;stroke-width:0.010985238px;stroke-linecap:round;stroke-linejoin:round;stroke-miterlimit:4;stroke-dasharray:none;stroke-opacity:1;"
     d="  M 147.32303,116.58634   L 195.59217,116.58634  "
     id="path64" />
  <path
     style="fill:none;stroke:#000000;stroke-width:0.010985238px;stroke-linecap:round;stroke-linejoin:round;stroke-miterlimit:4;stroke-dasharray:none;stroke-opacity:1;"
     d="  M 192.12084,95.395812   L 195.59217,92.133196  "
     id="path65" />
  <path
     style="fill:none;stroke:#000000;stroke-width:0.010985238px;stroke-linecap:round;stroke-linejoin:round;stroke-miterlimit:4;stroke-dasharray:none;stroke-opacity:1;"
     d="  M 150.79437,95.395812   L 147.32303,92.133196  "
     id="path66" />
  <path
     style="fill:none;stroke:#000000;stroke-width:0.010985238px;stroke-linecap:round;stroke-linejoin:round;stroke-miterlimit:4;stroke-dasharray:none;stroke-opacity:1;"
     d="  M 192.12084,98.350841   L 195.59217,101.61346  "
     id="path67" />
  <path
     style="fill:none;stroke:#000000;stroke-width:0.010985238px;stroke-linecap:round;stroke-linejoin:round;stroke-miterlimit:4;stroke-dasharray:none;stroke-opacity:1;"
     d="  M 150.79437,98.350841   L 147.32303,101.61346  "
     id="path68" />
  <path
     style="fill:none;stroke:#000000;stroke-width:0.010985238px;stroke-linecap:round;stroke-linejoin:round;stroke-miterlimit:4;stroke-dasharray:none;stroke-opacity:1;"
     d="  M 218.56231,84.553381   L 225.46104,86.256093   L 228.9104,86.805355   L 232.34878,87.02506   L 235.79815,86.805355   L 239.24751,86.256093   L 246.14624,84.553381  "
     id="path69" />
  <path
     style="fill:none;stroke:#000000;stroke-width:0.010985238px;stroke-linecap:round;stroke-linejoin:round;stroke-miterlimit:4;stroke-dasharray:none;stroke-opacity:1;"
     d="  M 218.56231,109.19327   L 225.46104,107.50154   L 228.9104,106.9413   L 232.34878,106.73258   L 235.79815,106.9413   L 239.24751,107.50154   L 246.14624,109.19327  "
     id="path70" />
  <path
     style="fill:none;stroke:#000000;stroke-width:0.010985238px;stroke-linecap:round;stroke-linejoin:round;stroke-miterlimit:4;stroke-dasharray:none;stroke-opacity:1;"
     d="  M 260.6138,111.74185   L 260.6138,98.713354  "
     id="path71" />
  <path
     style="fill:none;stroke:#000000;stroke-width:0.010985238px;stroke-linecap:round;stroke-linejoin:round;stroke-miterlimit:4;stroke-dasharray:none;stroke-opacity:1;"
     d="  M 260.6138,98.713354   L 263.08548,97.790594  "
     id="path72" />
  <path
     style="fill:none;stroke:#000000;stroke-width:0.010985238px;stroke-linecap:round;stroke-linejoin:round;stroke-miterlimit:4;stroke-dasharray:none;stroke-opacity:1;"
     d="  M 260.6138,95.923103   L 260.6138,81.960865  "
     id="path73" />
  <path
     style="fill:none;stroke:#000000;stroke-width:0.010985238px;stroke-linecap:round;stroke-linejoin:round;stroke-miterlimit:4;stroke-dasharray:none;stroke-opacity:1;"
     d="  M 257.83453,97.043598   L 260.6138,95.923103  "
     id="path74" />
  <path
     style="fill:none;stroke:#000000;stroke-width:0.010985238px;stroke-linecap:round;stroke-linejoin:round;stroke-miterlimit:4;stroke-dasharray:none;stroke-opacity:1;"
     d="  M 263.08548,97.790594   L 257.83453,97.043598  "
     id="path75" />
  <path
     style="fill:none;stroke:#000000;stroke-width:0.010985238px;stroke-linecap:round;stroke-linejoin:round;stroke-miterlimit:4;stroke-dasharray:none;stroke-opacity:1;"
     d="  M 200.51356,76.270512   L 200.51356,72.041195  "
     id="path76" />
  <path
     style="fill:none;stroke:#000000;stroke-width:0.010985238px;stroke-linecap:round;stroke-linejoin:round;stroke-miterlimit:4;stroke-dasharray:none;stroke-opacity:1;"
     d="  M 218.56231,83.663577   L 218.56231,72.041195  "
     id="path77" />
  <path
     style="fill:none;stroke:#000000;stroke-width:0.010985238px;stroke-linecap:round;stroke-linejoin:round;stroke-miterlimit:4;stroke-dasharray:none;stroke-opacity:1;"
     d="  M 200.51356,72.941984   L 218.56231,72.941984  "
     id="path78" />
  <path
     style="fill:#000000;fill-rule:evenodd;fill-opacity:1;stroke:none;"
     d="  M 201.51322,72.140062   L 201.31548,71.953313   L 199.71164,73.930656  z "
     id="path79" />
  <path
     style="fill:#000000;fill-rule:evenodd;fill-opacity:1;stroke:none;"
     d="  M 201.31548,71.953313   L 199.71164,73.930656   L 199.52489,73.743907  z "
     id="path80" />
  <path
     style="fill:#000000;fill-rule:evenodd;fill-opacity:1;stroke:none;"
     d="  M 217.57364,73.743907   L 217.76038,73.930656   L 219.36423,71.953313  z "
     id="path81" />
  <path
     style="fill:#000000;fill-rule:evenodd;fill-opacity:1;stroke:none;"
     d="  M 217.76038,73.930656   L 219.36423,71.953313   L 219.55098,72.140062  z "
     id="path82" />
  <path
     style="fill:none;stroke:#000000;stroke-width:0.010985238px;stroke-linecap:round;stroke-linejoin:round;stroke-miterlimit:4;stroke-dasharray:none;stroke-opacity:1;"
     d="  M 218.56231,83.663577   L 218.56231,72.041195  "
     id="path83" />
  <path
     style="fill:none;stroke:#000000;stroke-width:0.010985238px;stroke-linecap:round;stroke-linejoin:round;stroke-miterlimit:4;stroke-dasharray:none;stroke-opacity:1;"
     d="  M 246.14624,83.663577   L 246.14624,72.041195  "
     id="path84" />
  <path
     style="fill:none;stroke:#000000;stroke-width:0.010985238px;stroke-linecap:round;stroke-linejoin:round;stroke-miterlimit:4;stroke-dasharray:none;stroke-opacity:1;"
     d="  M 218.56231,72.941984   L 246.14624,72.941984  "
     id="path85" />
  <path
     style="fill:#000000;fill-rule:evenodd;fill-opacity:1;stroke:none;"
     d="  M 219.55098,72.140062   L 219.36423,71.953313   L 217.76038,73.930656  z "
     id="path86" />
  <path
     style="fill:#000000;fill-rule:evenodd;fill-opacity:1;stroke:none;"
     d="  M 219.36423,71.953313   L 217.76038,73.930656   L 217.57364,73.743907  z "
     id="path87" />
  <path
     style="fill:#000000;fill-rule:evenodd;fill-opacity:1;stroke:none;"
     d="  M 245.15757,73.743907   L 245.34432,73.930656   L 246.94816,71.953313  z "
     id="path88" />
  <path
     style="fill:#000000;fill-rule:evenodd;fill-opacity:1;stroke:none;"
     d="  M 245.34432,73.930656   L 246.94816,71.953313   L 247.13491,72.140062  z "
     id="path89" />
  <path
     style="fill:none;stroke:#000000;stroke-width:0.010985238px;stroke-linecap:round;stroke-linejoin:round;stroke-miterlimit:4;stroke-dasharray:none;stroke-opacity:1;"
     d="  M 261.207,84.553381   L 272.13732,84.553381  "
     id="path90" />
  <path
     style="fill:none;stroke:#000000;stroke-width:0.010985238px;stroke-linecap:round;stroke-linejoin:round;stroke-miterlimit:4;stroke-dasharray:none;stroke-opacity:1;"
     d="  M 261.207,109.19327   L 272.13732,109.19327  "
     id="path91" />
  <path
     style="fill:none;stroke:#000000;stroke-width:0.010985238px;stroke-linecap:round;stroke-linejoin:round;stroke-miterlimit:4;stroke-dasharray:none;stroke-opacity:1;"
     d="  M 271.23653,84.553381   L 271.23653,109.19327  "
     id="path92" />
  <path
     style="fill:#000000;fill-rule:evenodd;fill-opacity:1;stroke:none;"
     d="  M 272.03845,85.553038   L 272.2252,85.355304   L 270.24785,83.762444  z "
     id="path93" />
  <path
     style="fill:#000000;fill-rule:evenodd;fill-opacity:1;stroke:none;"
     d="  M 272.2252,85.355304   L 270.24785,83.762444   L 270.4346,83.56471  z "
     id="path94" />
  <path
     style="fill:#000000;fill-rule:evenodd;fill-opacity:1;stroke:none;"
     d="  M 270.4346,108.2046   L 270.24785,108.39135   L 272.2252,109.99519  z "
     id="path95" />
  <path
     style="fill:#000000;fill-rule:evenodd;fill-opacity:1;stroke:none;"
     d="  M 270.24785,108.39135   L 272.2252,109.99519   L 272.03845,110.19293  z "
     id="path96" />
  <path
     style="fill:none;stroke:#000000;stroke-width:0.010985238px;stroke-linecap:round;stroke-linejoin:round;stroke-miterlimit:4;stroke-dasharray:none;stroke-opacity:1;"
     d="  M 208.95022,66.262959   L 208.58771,67.888774   L 208.40096,68.811535   L 208.40096,69.2839   L 208.58771,69.51459   L 209.13697,69.51459   L 209.51047,69.05321   L 209.69722,68.580844  "
     id="path97" />
  <path
     style="fill:none;stroke:#000000;stroke-width:0.010985238px;stroke-linecap:round;stroke-linejoin:round;stroke-miterlimit:4;stroke-dasharray:none;stroke-opacity:1;"
     d="  M 209.13697,66.262959   L 208.77446,67.888774   L 208.58771,68.811535   L 208.58771,69.2839   L 208.77446,69.51459  "
     id="path98" />
  <path
     style="fill:none;stroke:#000000;stroke-width:0.010985238px;stroke-linecap:round;stroke-linejoin:round;stroke-miterlimit:4;stroke-dasharray:none;stroke-opacity:1;"
     d="  M 208.58771,67.888774   L 208.58771,67.196704   L 208.40096,66.493649   L 208.02746,66.262959   L 207.65396,66.262959   L 207.1047,66.493649   L 206.7312,67.196704   L 206.54446,67.888774   L 206.54446,68.580844   L 206.7312,69.05321   L 206.91795,69.2839   L 207.28047,69.51459   L 207.65396,69.51459   L 208.02746,69.2839   L 208.40096,68.580844   L 208.58771,67.888774  z "
     id="path99" />
  <path
     style="fill:none;stroke:#000000;stroke-width:0.010985238px;stroke-linecap:round;stroke-linejoin:round;stroke-miterlimit:4;stroke-dasharray:none;stroke-opacity:1;"
     d="  M 207.65396,66.262959   L 207.28047,66.493649   L 206.91795,67.196704   L 206.7312,67.888774   L 206.7312,68.811535   L 206.91795,69.2839  "
     id="path100" />
  <path
     style="fill:none;stroke:#000000;stroke-width:0.010985238px;stroke-linecap:round;stroke-linejoin:round;stroke-miterlimit:4;stroke-dasharray:none;stroke-opacity:1;"
     d="  M 229.34981,64.637144   L 228.6138,67.658084   L 228.6138,68.350154   L 228.80055,69.05321   L 228.9873,69.2839  "
     id="path101" />
  <path
     style="fill:none;stroke:#000000;stroke-width:0.010985238px;stroke-linecap:round;stroke-linejoin:round;stroke-miterlimit:4;stroke-dasharray:none;stroke-opacity:1;"
     d="  M 229.53656,64.637144   L 228.80055,67.658084   L 228.9873,66.955029   L 229.34981,66.493649   L 229.72331,66.262959   L 230.09681,66.262959   L 230.47031,66.493649   L 230.65705,66.724339   L 230.83282,67.196704   L 230.83282,67.888774   L 230.65705,68.580844   L 230.28356,69.2839   L 229.72331,69.51459   L 229.34981,69.51459   L 228.9873,69.2839   L 228.80055,68.580844   L 228.80055,67.658084  "
     id="path102" />
  <path
     style="fill:none;stroke:#000000;stroke-width:0.010985238px;stroke-linecap:round;stroke-linejoin:round;stroke-miterlimit:4;stroke-dasharray:none;stroke-opacity:1;"
     d="  M 230.47031,66.493649   L 230.65705,66.955029   L 230.65705,67.888774   L 230.47031,68.580844   L 230.09681,69.2839   L 229.72331,69.51459  "
     id="path103" />
  <path
     style="fill:none;stroke:#000000;stroke-width:0.010985238px;stroke-linecap:round;stroke-linejoin:round;stroke-miterlimit:4;stroke-dasharray:none;stroke-opacity:1;"
     d="  M 228.80055,64.637144   L 229.53656,64.637144  "
     id="path104" />
  <path
     style="fill:none;stroke:#000000;stroke-width:0.010985238px;stroke-linecap:round;stroke-linejoin:round;stroke-miterlimit:4;stroke-dasharray:none;stroke-opacity:1;"
     d="  M 273.63131,94.571919   L 272.88431,97.581874   L 272.88431,98.28493   L 273.07106,98.977   L 273.25781,99.20769  "
     id="path105" />
  <path
     style="fill:none;stroke:#000000;stroke-width:0.010985238px;stroke-linecap:round;stroke-linejoin:round;stroke-miterlimit:4;stroke-dasharray:none;stroke-opacity:1;"
     d="  M 273.81806,94.571919   L 273.07106,97.581874   L 273.25781,96.889804   L 273.63131,96.428424   L 273.99382,96.197734   L 274.36732,96.197734   L 274.74082,96.428424   L 274.92757,96.659114   L 275.11432,97.120494   L 275.11432,97.82355   L 274.92757,98.51562   L 274.55407,99.20769   L 273.99382,99.43838   L 273.63131,99.43838   L 273.25781,99.20769   L 273.07106,98.51562   L 273.07106,97.581874  "
     id="path106" />
  <path
     style="fill:none;stroke:#000000;stroke-width:0.010985238px;stroke-linecap:round;stroke-linejoin:round;stroke-miterlimit:4;stroke-dasharray:none;stroke-opacity:1;"
     d="  M 274.74082,96.428424   L 274.92757,96.889804   L 274.92757,97.82355   L 274.74082,98.51562   L 274.36732,99.20769   L 273.99382,99.43838  "
     id="path107" />
  <path
     style="fill:none;stroke:#000000;stroke-width:0.010985238px;stroke-linecap:round;stroke-linejoin:round;stroke-miterlimit:4;stroke-dasharray:none;stroke-opacity:1;"
     d="  M 273.07106,94.571919   L 273.81806,94.571919  "
     id="path108" />
  <path
     style="fill:none;stroke:#000000;stroke-width:0.010985238px;stroke-linecap:round;stroke-linejoin:round;stroke-miterlimit:4;stroke-dasharray:none;stroke-opacity:1;"
     d="  M 276.35565,97.032612   L 276.11397,97.032612   L 275.86131,97.164435   L 275.72949,97.537933   L 275.72949,99.66907  "
     id="path109" />
  <path
     style="fill:none;stroke:#000000;stroke-width:0.010985238px;stroke-linecap:round;stroke-linejoin:round;stroke-miterlimit:4;stroke-dasharray:none;stroke-opacity:1;"
     d="  M 275.35599,97.911432   L 276.23481,97.911432  "
     id="path110" />
  <path
     style="fill:none;stroke:#000000;stroke-width:0.010985238px;stroke-linecap:round;stroke-linejoin:round;stroke-miterlimit:4;stroke-dasharray:none;stroke-opacity:1;"
     d="  M 219.4631,84.553381   L 233.24957,84.553381  "
     id="path111" />
  <path
     style="fill:none;stroke:#000000;stroke-width:0.010985238px;stroke-linecap:round;stroke-linejoin:round;stroke-miterlimit:4;stroke-dasharray:none;stroke-opacity:1;"
     d="  M 232.34878,84.553381   L 232.34878,87.02506  "
     id="path112" />
  <path
     style="fill:#000000;fill-rule:evenodd;fill-opacity:1;stroke:none;"
     d="  M 233.1507,85.553038   L 233.34844,85.355304   L 231.36011,83.762444  z "
     id="path113" />
  <path
     style="fill:#000000;fill-rule:evenodd;fill-opacity:1;stroke:none;"
     d="  M 233.34844,85.355304   L 231.36011,83.762444   L 231.55784,83.56471  z "
     id="path114" />
  <path
     style="fill:#000000;fill-rule:evenodd;fill-opacity:1;stroke:none;"
     d="  M 231.55784,86.036389   L 231.36011,86.223138   L 233.34844,87.826982  z "
     id="path115" />
  <path
     style="fill:#000000;fill-rule:evenodd;fill-opacity:1;stroke:none;"
     d="  M 231.36011,86.223138   L 233.34844,87.826982   L 233.1507,88.013732  z "
     id="path116" />
  <path
     style="fill:none;stroke:#000000;stroke-width:0.010985238px;stroke-linecap:round;stroke-linejoin:round;stroke-miterlimit:4;stroke-dasharray:none;stroke-opacity:1;"
     d="  M 235.11706,80.082389   L 235.11706,80.313079   L 235.30381,80.313079   L 235.30381,80.082389   L 235.11706,79.610024   L 234.74356,79.379334   L 234.1943,79.379334   L 233.63405,79.610024   L 233.26056,80.313079   L 233.07381,81.005149   L 233.07381,81.697219   L 233.26056,82.169585   L 233.44731,82.400275   L 233.8208,82.630965   L 234.1943,82.630965   L 234.74356,82.400275   L 235.11706,81.697219  "
     id="path117" />
  <path
     style="fill:none;stroke:#000000;stroke-width:0.010985238px;stroke-linecap:round;stroke-linejoin:round;stroke-miterlimit:4;stroke-dasharray:none;stroke-opacity:1;"
     d="  M 234.1943,79.379334   L 233.8208,79.610024   L 233.44731,80.313079   L 233.26056,81.005149   L 233.26056,81.938895   L 233.44731,82.400275  "
     id="path118" />
  <path
     style="fill:none;stroke:#000000;stroke-width:0.010985238px;stroke-linecap:round;stroke-linejoin:round;stroke-miterlimit:4;stroke-dasharray:none;stroke-opacity:1;"
     d="  M 228.30621,79.357364   L 227.98764,79.511157   L 227.77892,79.961552   L 227.66907,80.719533   L 227.66907,81.169928   L 227.77892,81.916924   L 227.98764,82.367319   L 228.30621,82.521112   L 228.51493,82.521112   L 228.8335,82.367319   L 229.04222,81.916924   L 229.14109,81.169928   L 229.14109,80.719533   L 229.04222,79.961552   L 228.8335,79.511157   L 228.51493,79.357364   L 228.30621,79.357364  z "
     id="path119" />
  <path
     style="fill:none;stroke:#000000;stroke-width:0.010985238px;stroke-linecap:round;stroke-linejoin:round;stroke-miterlimit:4;stroke-dasharray:none;stroke-opacity:1;"
     d="  M 229.98696,82.224511   L 229.8771,82.367319   L 229.98696,82.521112   L 230.09681,82.367319   L 229.98696,82.224511  z "
     id="path120" />
  <path
     style="fill:none;stroke:#000000;stroke-width:0.010985238px;stroke-linecap:round;stroke-linejoin:round;stroke-miterlimit:4;stroke-dasharray:none;stroke-opacity:1;"
     d="  M 232.09612,79.357364   L 231.04154,79.357364   L 230.93169,80.719533   L 231.04154,80.56574   L 231.36011,80.411946   L 231.6677,80.411946   L 231.98627,80.56574   L 232.19499,80.862341   L 232.30484,81.312736   L 232.30484,81.620323   L 232.19499,82.070717   L 231.98627,82.367319   L 231.6677,82.521112   L 231.36011,82.521112   L 231.04154,82.367319   L 230.93169,82.224511   L 230.83282,81.916924  "
     id="path121" />
  <path
     style="fill:none;stroke:#000000;stroke-width:0.010985238px;stroke-linecap:round;stroke-linejoin:round;stroke-miterlimit:4;stroke-dasharray:none;stroke-opacity:1;"
     d="  M 219.4631,109.19327   L 233.75489,109.19327  "
     id="path122" />
  <path
     style="fill:none;stroke:#000000;stroke-width:0.010985238px;stroke-linecap:round;stroke-linejoin:round;stroke-miterlimit:4;stroke-dasharray:none;stroke-opacity:1;"
     d="  M 233.24957,106.73258   L 233.75489,106.73258  "
     id="path123" />
  <path
     style="fill:none;stroke:#000000;stroke-width:0.010985238px;stroke-linecap:round;stroke-linejoin:round;stroke-miterlimit:4;stroke-dasharray:none;stroke-opacity:1;"
     d="  M 232.86509,109.19327   L 232.86509,106.73258  "
     id="path124" />
  <path
     style="fill:#000000;fill-rule:evenodd;fill-opacity:1;stroke:none;"
     d="  M 232.06317,108.2046   L 231.87642,108.39135   L 233.85376,109.99519  z "
     id="path125" />
  <path
     style="fill:#000000;fill-rule:evenodd;fill-opacity:1;stroke:none;"
     d="  M 231.87642,108.39135   L 233.85376,109.99519   L 233.66701,110.19293  z "
     id="path126" />
  <path
     style="fill:#000000;fill-rule:evenodd;fill-opacity:1;stroke:none;"
     d="  M 233.66701,107.72125   L 233.85376,107.5345   L 231.87642,105.93066  z "
     id="path127" />
  <path
     style="fill:#000000;fill-rule:evenodd;fill-opacity:1;stroke:none;"
     d="  M 233.85376,107.5345   L 231.87642,105.93066   L 232.06317,105.74391  z "
     id="path128" />
  <path
     style="fill:none;stroke:#000000;stroke-width:0.010985238px;stroke-linecap:round;stroke-linejoin:round;stroke-miterlimit:4;stroke-dasharray:none;stroke-opacity:1;"
     d="  M 234.63371,111.63199   L 234.63371,111.86268   L 234.82046,111.86268   L 234.82046,111.63199   L 234.63371,111.17061   L 234.26021,110.93992   L 233.69997,110.93992   L 233.1507,111.17061   L 232.77721,111.86268   L 232.59046,112.56574   L 232.59046,113.25781   L 232.77721,113.71919   L 232.96395,113.96087   L 233.33745,114.19156   L 233.69997,114.19156   L 234.26021,113.96087   L 234.63371,113.25781  "
     id="path129" />
  <path
     style="fill:none;stroke:#000000;stroke-width:0.010985238px;stroke-linecap:round;stroke-linejoin:round;stroke-miterlimit:4;stroke-dasharray:none;stroke-opacity:1;"
     d="  M 233.69997,110.93992   L 233.33745,111.17061   L 232.96395,111.86268   L 232.77721,112.56574   L 232.77721,113.4885   L 232.96395,113.96087  "
     id="path130" />
  <path
     style="fill:none;stroke:#000000;stroke-width:0.010985238px;stroke-linecap:round;stroke-linejoin:round;stroke-miterlimit:4;stroke-dasharray:none;stroke-opacity:1;"
     d="  M 227.81188,110.91795   L 227.50429,111.07175   L 227.29557,111.52214   L 227.18572,112.26914   L 227.18572,112.71953   L 227.29557,113.47751   L 227.50429,113.92791   L 227.81188,114.0817   L 228.03158,114.0817   L 228.33917,113.92791   L 228.55887,113.47751   L 228.65774,112.71953   L 228.65774,112.26914   L 228.55887,111.52214   L 228.33917,111.07175   L 228.03158,110.91795   L 227.81188,110.91795  z "
     id="path131" />
  <path
     style="fill:none;stroke:#000000;stroke-width:0.010985238px;stroke-linecap:round;stroke-linejoin:round;stroke-miterlimit:4;stroke-dasharray:none;stroke-opacity:1;"
     d="  M 229.5036,113.77412   L 229.39375,113.92791   L 229.5036,114.0817   L 229.60247,113.92791   L 229.5036,113.77412  z "
     id="path132" />
  <path
     style="fill:none;stroke:#000000;stroke-width:0.010985238px;stroke-linecap:round;stroke-linejoin:round;stroke-miterlimit:4;stroke-dasharray:none;stroke-opacity:1;"
     d="  M 231.61277,110.91795   L 230.55819,110.91795   L 230.44834,112.26914   L 230.55819,112.12633   L 230.86577,111.97254   L 231.18435,111.97254   L 231.50292,112.12633   L 231.71164,112.42293   L 231.82149,112.87333   L 231.82149,113.18091   L 231.71164,113.63131   L 231.50292,113.92791   L 231.18435,114.0817   L 230.86577,114.0817   L 230.55819,113.92791   L 230.44834,113.77412   L 230.34947,113.47751  "
     id="path133" />
  <path
     style="fill:none;stroke:#000000;stroke-width:0.010985238px;stroke-linecap:round;stroke-linejoin:round;stroke-miterlimit:4;stroke-dasharray:none;stroke-opacity:1;"
     d="  M 237.87436,75.49056   L 239.59904,86.179197  "
     id="path134" />
  <path
     style="fill:none;stroke:#000000;stroke-width:0.010985238px;stroke-linecap:round;stroke-linejoin:round;stroke-miterlimit:4;stroke-dasharray:none;stroke-opacity:1;"
     d="  M 239.59904,86.179197   L 239.79677,84.74013  "
     id="path135" />
  <path
     style="fill:none;stroke:#000000;stroke-width:0.010985238px;stroke-linecap:round;stroke-linejoin:round;stroke-miterlimit:4;stroke-dasharray:none;stroke-opacity:1;"
     d="  M 239.79677,84.74013   L 239.69791,85.465156  "
     id="path136" />
  <path
     style="fill:none;stroke:#000000;stroke-width:0.010985238px;stroke-linecap:round;stroke-linejoin:round;stroke-miterlimit:4;stroke-dasharray:none;stroke-opacity:1;"
     d="  M 239.59904,86.179197   L 238.95091,84.882939  "
     id="path137" />
  <path
     style="fill:none;stroke:#000000;stroke-width:0.010985238px;stroke-linecap:round;stroke-linejoin:round;stroke-miterlimit:4;stroke-dasharray:none;stroke-opacity:1;"
     d="  M 240.42293,77.270168   L 240.5987,76.808788   L 240.97219,76.336423   L 241.53244,76.336423   L 241.71919,76.578098   L 241.71919,77.039478   L 241.53244,77.962238   L 241.15894,79.588054  "
     id="path138" />
  <path
     style="fill:none;stroke:#000000;stroke-width:0.010985238px;stroke-linecap:round;stroke-linejoin:round;stroke-miterlimit:4;stroke-dasharray:none;stroke-opacity:1;"
     d="  M 241.34569,76.336423   L 241.53244,76.578098   L 241.53244,77.039478   L 241.34569,77.962238   L 240.97219,79.588054  "
     id="path139" />
  <path
     style="fill:none;stroke:#000000;stroke-width:0.010985238px;stroke-linecap:round;stroke-linejoin:round;stroke-miterlimit:4;stroke-dasharray:none;stroke-opacity:1;"
     d="  M 241.53244,77.962238   L 241.90594,77.039478   L 242.27944,76.578098   L 242.64195,76.336423   L 243.01545,76.336423   L 243.2022,76.578098   L 243.2022,76.808788   L 243.01545,77.039478   L 242.8287,76.808788   L 243.01545,76.578098  "
     id="path140" />
  <path
     style="fill:none;stroke:#000000;stroke-width:0.010985238px;stroke-linecap:round;stroke-linejoin:round;stroke-miterlimit:4;stroke-dasharray:none;stroke-opacity:1;"
     d="  M 242.74082,120.91452   L 242.92757,120.45314   L 243.30106,119.98078   L 243.85033,119.98078   L 244.03708,120.22245   L 244.03708,120.68383   L 243.85033,121.60659   L 243.48781,123.23241  "
     id="path141" />
  <path
     style="fill:none;stroke:#000000;stroke-width:0.010985238px;stroke-linecap:round;stroke-linejoin:round;stroke-miterlimit:4;stroke-dasharray:none;stroke-opacity:1;"
     d="  M 243.66358,119.98078   L 243.85033,120.22245   L 243.85033,120.68383   L 243.66358,121.60659   L 243.30106,123.23241  "
     id="path142" />
  <path
     style="fill:none;stroke:#000000;stroke-width:0.010985238px;stroke-linecap:round;stroke-linejoin:round;stroke-miterlimit:4;stroke-dasharray:none;stroke-opacity:1;"
     d="  M 243.85033,121.60659   L 244.22382,120.68383   L 244.59732,120.22245   L 244.97082,119.98078   L 245.33333,119.98078   L 245.52008,120.22245   L 245.52008,120.45314   L 245.33333,120.68383   L 245.15757,120.45314   L 245.33333,120.22245  "
     id="path143" />
  <path
     style="fill:none;stroke:#000000;stroke-width:0.010985238px;stroke-linecap:round;stroke-linejoin:round;stroke-miterlimit:4;stroke-dasharray:none;stroke-opacity:1;"
     d="  M 246.6955,121.1562   L 249.35393,121.1562  "
     id="path144" />
  <path
     style="fill:none;stroke:#000000;stroke-width:0.010985238px;stroke-linecap:round;stroke-linejoin:round;stroke-miterlimit:4;stroke-dasharray:none;stroke-opacity:1;"
     d="  M 246.6955,122.26571   L 249.35393,122.26571  "
     id="path145" />
  <path
     style="fill:none;stroke:#000000;stroke-width:0.010985238px;stroke-linecap:round;stroke-linejoin:round;stroke-miterlimit:4;stroke-dasharray:none;stroke-opacity:1;"
     d="  M 250.4964,121.94713   L 270.00618,121.94713  "
     id="path146" />
  <path
     style="fill:none;stroke:#000000;stroke-width:0.010985238px;stroke-linecap:round;stroke-linejoin:round;stroke-miterlimit:4;stroke-dasharray:none;stroke-opacity:1;"
     d="  M 252.90216,116.60831   L 251.36423,119.29969   L 253.67113,119.29969  "
     id="path147" />
  <path
     style="fill:none;stroke:#000000;stroke-width:0.010985238px;stroke-linecap:round;stroke-linejoin:round;stroke-miterlimit:4;stroke-dasharray:none;stroke-opacity:1;"
     d="  M 252.90216,116.60831   L 252.90216,120.63989  "
     id="path148" />
  <path
     style="fill:none;stroke:#000000;stroke-width:0.010985238px;stroke-linecap:round;stroke-linejoin:round;stroke-miterlimit:4;stroke-dasharray:none;stroke-opacity:1;"
     d="  M 257.14246,115.48781   L 257.14246,115.33402   L 257.2633,115.02643   L 257.39513,114.87264   L 257.6368,114.71885   L 258.13114,114.71885   L 258.37281,114.87264   L 258.49365,115.02643   L 258.61449,115.33402   L 258.61449,115.64161   L 258.49365,115.94919   L 258.25197,116.41057   L 257.02163,117.94851   L 258.74631,117.94851  "
     id="path149" />
  <path
     style="fill:none;stroke:#000000;stroke-width:0.010985238px;stroke-linecap:round;stroke-linejoin:round;stroke-miterlimit:4;stroke-dasharray:none;stroke-opacity:1;"
     d="  M 267.33677,115.80639   L 267.33677,115.65259   L 267.4576,115.34501   L 267.57844,115.19121   L 267.8311,115.03742   L 268.31445,115.03742   L 268.56711,115.19121   L 268.68795,115.34501   L 268.80879,115.65259   L 268.80879,115.96018   L 268.68795,116.26777   L 268.43529,116.72915   L 267.21593,118.25609   L 268.92963,118.25609  "
     id="path150" />
  <path
     style="fill:none;stroke:#000000;stroke-width:0.010985238px;stroke-linecap:round;stroke-linejoin:round;stroke-miterlimit:4;stroke-dasharray:none;stroke-opacity:1;"
     d="  M 261.31686,116.56437   L 261.31686,120.01373  "
     id="path151" />
  <path
     style="fill:none;stroke:#000000;stroke-width:0.010985238px;stroke-linecap:round;stroke-linejoin:round;stroke-miterlimit:4;stroke-dasharray:none;stroke-opacity:1;"
     d="  M 259.9437,118.28905   L 262.701,118.28905  "
     id="path152" />
  <path
     style="fill:none;stroke:#000000;stroke-width:0.010985238px;stroke-linecap:round;stroke-linejoin:round;stroke-miterlimit:4;stroke-dasharray:none;stroke-opacity:1;"
     d="  M 257.50498,123.0896   L 257.0436,123.28733   L 256.8898,123.67182   L 256.8898,124.0563   L 257.0436,124.44078   L 257.35118,124.62753   L 257.96636,124.82527   L 258.42774,125.01202   L 258.72434,125.3965   L 258.87813,125.78098   L 258.87813,126.3632   L 258.72434,126.7367   L 258.58153,126.93443   L 258.12015,127.12118   L 257.50498,127.12118   L 257.0436,126.93443   L 256.8898,126.7367   L 256.73601,126.3632   L 256.73601,125.78098   L 256.8898,125.3965   L 257.19739,125.01202   L 257.65877,124.82527   L 258.27394,124.62753   L 258.58153,124.44078   L 258.72434,124.0563   L 258.72434,123.67182   L 258.58153,123.28733   L 258.12015,123.0896   L 257.50498,123.0896  z "
     id="path153" />
  <path
     style="fill:none;stroke:#000000;stroke-width:0.010985238px;stroke-linecap:round;stroke-linejoin:round;stroke-miterlimit:4;stroke-dasharray:none;stroke-opacity:1;"
     d="  M 261.69035,124.31995   L 261.69035,124.55064   L 261.8771,124.55064   L 261.8771,124.31995   L 261.69035,123.84758   L 261.31686,123.61689   L 260.76759,123.61689   L 260.20735,123.84758   L 259.83385,124.55064   L 259.6471,125.24271   L 259.6471,125.93478   L 259.83385,126.40714   L 260.0206,126.63783   L 260.3941,126.86852   L 260.76759,126.86852   L 261.31686,126.63783   L 261.69035,125.93478  "
     id="path154" />
  <path
     style="fill:none;stroke:#000000;stroke-width:0.010985238px;stroke-linecap:round;stroke-linejoin:round;stroke-miterlimit:4;stroke-dasharray:none;stroke-opacity:1;"
     d="  M 260.76759,123.61689   L 260.3941,123.84758   L 260.0206,124.55064   L 259.83385,125.24271   L 259.83385,126.17645   L 260.0206,126.63783  "
     id="path155" />
  <path
     style="fill:none;stroke:#000000;stroke-width:0.010985238px;stroke-linecap:round;stroke-linejoin:round;stroke-miterlimit:4;stroke-dasharray:none;stroke-opacity:1;"
     d="  M 256.18675,117.93752   L 256.18675,118.16821   L 256.3735,118.16821   L 256.3735,117.93752   L 256.18675,117.46516   L 255.81325,117.23447   L 255.26399,117.23447   L 254.70374,117.46516   L 254.33024,118.16821   L 254.14349,118.86028   L 254.14349,119.56334   L 254.33024,120.02472   L 254.51699,120.25541   L 254.89049,120.4861   L 255.26399,120.4861   L 255.81325,120.25541   L 256.18675,119.56334  "
     id="path156" />
  <path
     style="fill:none;stroke:#000000;stroke-width:0.010985238px;stroke-linecap:round;stroke-linejoin:round;stroke-miterlimit:4;stroke-dasharray:none;stroke-opacity:1;"
     d="  M 255.26399,117.23447   L 254.89049,117.46516   L 254.51699,118.16821   L 254.33024,118.86028   L 254.33024,119.79403   L 254.51699,120.25541  "
     id="path157" />
  <path
     style="fill:none;stroke:#000000;stroke-width:0.010985238px;stroke-linecap:round;stroke-linejoin:round;stroke-miterlimit:4;stroke-dasharray:none;stroke-opacity:1;"
     d="  M 264.76622,116.03708   L 264.01922,119.05802   L 264.01922,119.75009   L 264.20597,120.45314   L 264.39272,120.68383  "
     id="path158" />
  <path
     style="fill:none;stroke:#000000;stroke-width:0.010985238px;stroke-linecap:round;stroke-linejoin:round;stroke-miterlimit:4;stroke-dasharray:none;stroke-opacity:1;"
     d="  M 264.94198,116.03708   L 264.20597,119.05802   L 264.39272,118.36595   L 264.76622,117.89358   L 265.12873,117.66289   L 265.50223,117.66289   L 265.87573,117.89358   L 266.06248,118.12427   L 266.24923,118.59664   L 266.24923,119.28871   L 266.06248,119.98078   L 265.68898,120.68383   L 265.12873,120.91452   L 264.76622,120.91452   L 264.39272,120.68383   L 264.20597,119.98078   L 264.20597,119.05802  "
     id="path159" />
  <path
     style="fill:none;stroke:#000000;stroke-width:0.010985238px;stroke-linecap:round;stroke-linejoin:round;stroke-miterlimit:4;stroke-dasharray:none;stroke-opacity:1;"
     d="  M 265.87573,117.89358   L 266.06248,118.36595   L 266.06248,119.28871   L 265.87573,119.98078   L 265.50223,120.68383   L 265.12873,120.91452  "
     id="path160" />
  <path
     style="fill:none;stroke:#000000;stroke-width:0.010985238px;stroke-linecap:round;stroke-linejoin:round;stroke-miterlimit:4;stroke-dasharray:none;stroke-opacity:1;"
     d="  M 264.20597,116.03708   L 264.94198,116.03708  "
     id="path161" />
</svg>
