<?xml version="1.0" encoding="UTF-8" standalone="no"?>
<svg
   version="1.0"
   width="308.78mm"
   height="161.94mm"
   id="svg141"
   sodipodi:docname="image163.emf"
   xmlns:inkscape="http://www.inkscape.org/namespaces/inkscape"
   xmlns:sodipodi="http://sodipodi.sourceforge.net/DTD/sodipodi-0.dtd"
   xmlns="http://www.w3.org/2000/svg"
   xmlns:svg="http://www.w3.org/2000/svg">
  <sodipodi:namedview
     id="namedview141"
     pagecolor="#ffffff"
     bordercolor="#000000"
     borderopacity="0.25"
     inkscape:showpageshadow="2"
     inkscape:pageopacity="0.0"
     inkscape:pagecheckerboard="0"
     inkscape:deskcolor="#d1d1d1"
     inkscape:document-units="mm" />
  <defs
     id="defs1">
    <pattern
       id="EMFhbasepattern"
       patternUnits="userSpaceOnUse"
       width="6"
       height="6"
       x="0"
       y="0" />
  </defs>
  <path
     style="fill:none;stroke:#000000;stroke-width:0.035747141px;stroke-linecap:round;stroke-linejoin:round;stroke-miterlimit:4;stroke-dasharray:none;stroke-opacity:1;"
     d="  M 8.6238753,149.25123   L 8.6238753,185.88784  "
     id="path1" />
  <path
     style="fill:none;stroke:#000000;stroke-width:0.035747141px;stroke-linecap:round;stroke-linejoin:round;stroke-miterlimit:4;stroke-dasharray:none;stroke-opacity:1;"
     d="  M 89.984368,149.25123   L 89.984368,185.88784  "
     id="path2" />
  <path
     style="fill:none;stroke:#000000;stroke-width:0.035747141px;stroke-linecap:round;stroke-linejoin:round;stroke-miterlimit:4;stroke-dasharray:none;stroke-opacity:1;"
     d="  M 0.6522629,177.9404   L 97.920233,177.9404  "
     id="path3" />
  <path
     style="fill:#000000;fill-rule:evenodd;fill-opacity:1;stroke:none;"
     d="  M 15.630315,173.77067   L 12.842038,170.95521   L 4.4057127,184.96123   z "
     id="path4" />
  <path
     style="fill:#000000;fill-rule:evenodd;fill-opacity:1;stroke:none;"
     d="  M 12.842038,170.95521   L 4.4057127,184.96123   L 1.5816886,182.14577   z "
     id="path5" />
  <path
     style="fill:#000000;fill-rule:evenodd;fill-opacity:1;stroke:none;"
     d="  M 82.942181,182.14577   L 85.766205,184.96123   L 94.202531,170.95521   z "
     id="path6" />
  <path
     style="fill:#000000;fill-rule:evenodd;fill-opacity:1;stroke:none;"
     d="  M 85.766205,184.96123   L 94.202531,170.95521   L 96.990808,173.77067   z "
     id="path7" />
  <path
     style="fill:none;stroke:#000000;stroke-width:0.035747141px;stroke-linecap:round;stroke-linejoin:round;stroke-miterlimit:4;stroke-dasharray:none;stroke-opacity:1;"
     d="  M 45.765155,168.21103   L 45.765155,149.00176  "
     id="path8" />
  <path
     style="fill:none;stroke:#000000;stroke-width:0.035747141px;stroke-linecap:round;stroke-linejoin:round;stroke-miterlimit:4;stroke-dasharray:none;stroke-opacity:1;"
     d="  M 45.765155,159.05188   L 47.6955,156.3077   L 48.982397,155.38109   L 50.912743,155.38109   L 52.19964,156.3077   L 52.843089,159.05188   L 52.843089,168.21103  "
     id="path9" />
  <path
     style="fill:none;stroke:#000000;stroke-width:0.035747141px;stroke-linecap:round;stroke-linejoin:round;stroke-miterlimit:4;stroke-dasharray:none;stroke-opacity:1;"
     d="  M 165.37509,149.25123   L 165.37509,185.88784  "
     id="path10" />
  <path
     style="fill:none;stroke:#000000;stroke-width:0.035747141px;stroke-linecap:round;stroke-linejoin:round;stroke-miterlimit:4;stroke-dasharray:none;stroke-opacity:1;"
     d="  M 246.73558,149.25123   L 246.73558,185.88784  "
     id="path11" />
  <path
     style="fill:none;stroke:#000000;stroke-width:0.035747141px;stroke-linecap:round;stroke-linejoin:round;stroke-miterlimit:4;stroke-dasharray:none;stroke-opacity:1;"
     d="  M 157.40348,177.9404   L 254.67145,177.9404  "
     id="path12" />
  <path
     style="fill:#000000;fill-rule:evenodd;fill-opacity:1;stroke:none;"
     d="  M 172.38153,173.77067   L 169.59325,170.95521   L 161.15693,184.96123   z "
     id="path13" />
  <path
     style="fill:#000000;fill-rule:evenodd;fill-opacity:1;stroke:none;"
     d="  M 169.59325,170.95521   L 161.15693,184.96123   L 158.3329,182.14577   z "
     id="path14" />
  <path
     style="fill:#000000;fill-rule:evenodd;fill-opacity:1;stroke:none;"
     d="  M 239.69339,182.14577   L 242.51742,184.96123   L 250.95374,170.95521   z "
     id="path15" />
  <path
     style="fill:#000000;fill-rule:evenodd;fill-opacity:1;stroke:none;"
     d="  M 242.51742,184.96123   L 250.95374,170.95521   L 253.74202,173.77067   z "
     id="path16" />
  <path
     style="fill:none;stroke:#000000;stroke-width:0.035747141px;stroke-linecap:round;stroke-linejoin:round;stroke-miterlimit:4;stroke-dasharray:none;stroke-opacity:1;"
     d="  M 202.51637,168.21103   L 202.51637,149.00176  "
     id="path17" />
  <path
     style="fill:none;stroke:#000000;stroke-width:0.035747141px;stroke-linecap:round;stroke-linejoin:round;stroke-miterlimit:4;stroke-dasharray:none;stroke-opacity:1;"
     d="  M 202.51637,159.05188   L 204.44671,156.3077   L 205.73361,155.38109   L 207.66396,155.38109   L 208.95085,156.3077   L 209.55855,159.05188   L 209.55855,168.21103  "
     id="path18" />
  <path
     style="fill:none;stroke:#000000;stroke-width:0.035747141px;stroke-linecap:round;stroke-linejoin:round;stroke-miterlimit:4;stroke-dasharray:none;stroke-opacity:1;"
     d="  M 8.6238753,149.25123   L 8.6238753,230.47188  "
     id="path19" />
  <path
     style="fill:none;stroke:#000000;stroke-width:0.035747141px;stroke-linecap:round;stroke-linejoin:round;stroke-miterlimit:4;stroke-dasharray:none;stroke-opacity:1;"
     d="  M 246.73558,149.25123   L 246.73558,230.47188  "
     id="path20" />
  <path
     style="fill:none;stroke:#000000;stroke-width:0.035747141px;stroke-linecap:round;stroke-linejoin:round;stroke-miterlimit:4;stroke-dasharray:none;stroke-opacity:1;"
     d="  M 0.6522629,222.52444   L 254.67145,222.52444  "
     id="path21" />
  <path
     style="fill:#000000;fill-rule:evenodd;fill-opacity:1;stroke:none;"
     d="  M 15.630315,218.31907   L 12.842038,215.53925   L 4.4057127,229.54527   z "
     id="path22" />
  <path
     style="fill:#000000;fill-rule:evenodd;fill-opacity:1;stroke:none;"
     d="  M 12.842038,215.53925   L 4.4057127,229.54527   L 1.5816886,226.72981   z "
     id="path23" />
  <path
     style="fill:#000000;fill-rule:evenodd;fill-opacity:1;stroke:none;"
     d="  M 239.69339,226.72981   L 242.51742,229.54527   L 250.95374,215.53925   z "
     id="path24" />
  <path
     style="fill:#000000;fill-rule:evenodd;fill-opacity:1;stroke:none;"
     d="  M 242.51742,229.54527   L 250.95374,215.53925   L 253.74202,218.31907   z "
     id="path25" />
  <path
     style="fill:none;stroke:#000000;stroke-width:0.035747141px;stroke-linecap:round;stroke-linejoin:round;stroke-miterlimit:4;stroke-dasharray:none;stroke-opacity:1;"
     d="  M 109.71679,212.79507   L 109.71679,193.5858  "
     id="path26" />
  <path
     style="fill:none;stroke:#000000;stroke-width:0.035747141px;stroke-linecap:round;stroke-linejoin:round;stroke-miterlimit:4;stroke-dasharray:none;stroke-opacity:1;"
     d="  M 109.71679,203.63592   L 111.61139,200.89174   L 112.89829,199.96513   L 114.82863,199.96513   L 116.11553,200.89174   L 116.75898,203.63592   L 116.75898,212.79507  "
     id="path27" />
  <path
     style="fill:none;stroke:#000000;stroke-width:0.035747141px;stroke-linecap:round;stroke-linejoin:round;stroke-miterlimit:4;stroke-dasharray:none;stroke-opacity:1;"
     d="  M 121.90656,201.81835   L 133.45289,201.81835  "
     id="path28" />
  <path
     style="fill:none;stroke:#000000;stroke-width:0.035747141px;stroke-linecap:round;stroke-linejoin:round;stroke-miterlimit:4;stroke-dasharray:none;stroke-opacity:1;"
     d="  M 121.90656,207.30671   L 133.45289,207.30671  "
     id="path29" />
  <path
     style="fill:none;stroke:#000000;stroke-width:0.035747141px;stroke-linecap:round;stroke-linejoin:round;stroke-miterlimit:4;stroke-dasharray:none;stroke-opacity:1;"
     d="  M 138.56473,212.79507   L 138.56473,193.5858  "
     id="path30" />
  <path
     style="fill:none;stroke:#000000;stroke-width:0.035747141px;stroke-linecap:round;stroke-linejoin:round;stroke-miterlimit:4;stroke-dasharray:none;stroke-opacity:1;"
     d="  M 138.56473,203.63592   L 140.49508,200.89174   L 141.78198,199.96513   L 143.71232,199.96513   L 144.99922,200.89174   L 145.64267,203.63592   L 145.64267,212.79507  "
     id="path31" />
  <path
     style="fill:none;stroke:#000000;stroke-width:0.035747141px;stroke-linecap:round;stroke-linejoin:round;stroke-miterlimit:4;stroke-dasharray:none;stroke-opacity:1;"
     d="  M 56.739527,164.61152   L 60.600218,164.61152   L 60.600218,163.68491   L 60.278494,162.79395   L 59.95677,162.33064   L 59.313321,161.86734   L 58.348148,161.86734   L 57.7047,162.33064   L 57.061251,163.25725   L 56.739527,164.61152   L 56.739527,165.53813   L 57.061251,166.8924   L 57.7047,167.81901   L 58.348148,168.28231   L 59.313321,168.28231   L 59.95677,167.81901   L 60.600218,166.8924  "
     id="path32" />
  <path
     style="fill:none;stroke:#000000;stroke-width:0.035747141px;stroke-linecap:round;stroke-linejoin:round;stroke-miterlimit:4;stroke-dasharray:none;stroke-opacity:1;"
     d="  M 63.781714,160.51307   L 64.425162,160.04976   L 65.390335,158.65985   L 65.390335,168.28231  "
     id="path33" />
  <path
     style="fill:none;stroke:#000000;stroke-width:0.035747141px;stroke-linecap:round;stroke-linejoin:round;stroke-miterlimit:4;stroke-dasharray:none;stroke-opacity:1;"
     d="  M 211.13143,165.35993   L 214.99212,165.35993   L 214.99212,164.43333   L 214.6704,163.50672   L 214.34867,163.07906   L 213.70522,162.61575   L 212.74005,162.61575   L 212.0966,163.07906   L 211.45315,163.97002   L 211.13143,165.35993   L 211.13143,166.2509   L 211.45315,167.64081   L 212.0966,168.56742   L 212.74005,168.99508   L 213.70522,168.99508   L 214.34867,168.56742   L 214.99212,167.64081  "
     id="path34" />
  <path
     style="fill:none;stroke:#000000;stroke-width:0.035747141px;stroke-linecap:round;stroke-linejoin:round;stroke-miterlimit:4;stroke-dasharray:none;stroke-opacity:1;"
     d="  M 217.24419,161.68914   L 217.24419,161.22584   L 217.56591,160.33487   L 217.88764,159.87157   L 218.53109,159.40827   L 219.78224,159.40827   L 220.42568,159.87157   L 220.74741,160.33487   L 221.06913,161.22584   L 221.06913,162.15245   L 220.74741,163.07906   L 220.10396,164.43333   L 216.92247,168.99508   L 221.39086,168.99508  "
     id="path35" />
  <path
     style="fill:none;stroke:#000000;stroke-width:0.035747141px;stroke-linecap:round;stroke-linejoin:round;stroke-miterlimit:4;stroke-dasharray:none;stroke-opacity:1;"
     d="  M 122.04955,208.01948   L 121.4061,207.12852   L 120.76266,206.66521   L 119.79748,206.66521   L 119.15403,207.12852   L 118.51059,208.01948   L 118.18886,209.40939   L 118.18886,210.336   L 118.51059,211.69027   L 119.15403,212.61688   L 119.79748,213.08018   L 120.76266,213.08018   L 121.4061,212.61688   L 122.04955,211.69027  "
     id="path36" />
  <path
     style="fill:none;stroke:#000000;stroke-width:0.035747141px;stroke-linecap:round;stroke-linejoin:round;stroke-miterlimit:4;stroke-dasharray:none;stroke-opacity:1;"
     d="  M 148.18071,206.66521   L 149.46761,213.04454   L 150.75451,206.66521   L 152.0414,213.04454   L 153.29255,206.66521  "
     id="path37" />
  <path
     style="fill:none;stroke:#000000;stroke-width:0.035747141px;stroke-linecap:round;stroke-linejoin:round;stroke-miterlimit:4;stroke-dasharray:none;stroke-opacity:1;"
     d="  M 410.60047,149.25123   L 410.60047,185.88784  "
     id="path38" />
  <path
     style="fill:none;stroke:#000000;stroke-width:0.035747141px;stroke-linecap:round;stroke-linejoin:round;stroke-miterlimit:4;stroke-dasharray:none;stroke-opacity:1;"
     d="  M 451.28072,149.25123   L 451.28072,185.88784  "
     id="path39" />
  <path
     style="fill:none;stroke:#000000;stroke-width:0.035747141px;stroke-linecap:round;stroke-linejoin:round;stroke-miterlimit:4;stroke-dasharray:none;stroke-opacity:1;"
     d="  M 402.62886,177.9404   L 459.21659,177.9404  "
     id="path40" />
  <path
     style="fill:#000000;fill-rule:evenodd;fill-opacity:1;stroke:none;"
     d="  M 417.60691,173.77067   L 414.81864,170.95521   L 406.38231,184.96123   z "
     id="path41" />
  <path
     style="fill:#000000;fill-rule:evenodd;fill-opacity:1;stroke:none;"
     d="  M 414.81864,170.95521   L 406.38231,184.96123   L 403.55829,182.14577   z "
     id="path42" />
  <path
     style="fill:#000000;fill-rule:evenodd;fill-opacity:1;stroke:none;"
     d="  M 444.23853,182.14577   L 447.06256,184.96123   L 455.49888,170.95521   z "
     id="path43" />
  <path
     style="fill:#000000;fill-rule:evenodd;fill-opacity:1;stroke:none;"
     d="  M 447.06256,184.96123   L 455.49888,170.95521   L 458.28716,173.77067   z "
     id="path44" />
  <path
     style="fill:none;stroke:#000000;stroke-width:0.035747141px;stroke-linecap:round;stroke-linejoin:round;stroke-miterlimit:4;stroke-dasharray:none;stroke-opacity:1;"
     d="  M 427.40163,168.21103   L 427.40163,149.00176  "
     id="path45" />
  <path
     style="fill:none;stroke:#000000;stroke-width:0.035747141px;stroke-linecap:round;stroke-linejoin:round;stroke-miterlimit:4;stroke-dasharray:none;stroke-opacity:1;"
     d="  M 427.40163,159.05188   L 429.33198,156.3077   L 430.61887,155.38109   L 432.54922,155.38109   L 433.83612,156.3077   L 434.47956,159.05188   L 434.47956,168.21103  "
     id="path46" />
  <path
     style="fill:none;stroke:#000000;stroke-width:0.035747141px;stroke-linecap:round;stroke-linejoin:round;stroke-miterlimit:4;stroke-dasharray:none;stroke-opacity:1;"
     d="  M 437.69681,164.61152   L 441.5575,164.61152   L 441.5575,163.68491   L 441.23577,162.79395   L 440.91405,162.33064   L 440.2706,161.86734   L 439.30543,161.86734   L 438.66198,162.33064   L 438.01853,163.25725   L 437.69681,164.61152   L 437.69681,165.53813   L 438.01853,166.8924   L 438.66198,167.81901   L 439.30543,168.28231   L 440.2706,168.28231   L 440.91405,167.81901   L 441.5575,166.8924  "
     id="path47" />
  <path
     style="fill:none;stroke:#000000;stroke-width:0.035747141px;stroke-linecap:round;stroke-linejoin:round;stroke-miterlimit:4;stroke-dasharray:none;stroke-opacity:1;"
     d="  M 444.73899,160.51307   L 445.38244,160.04976   L 446.34762,158.65985   L 446.34762,168.28231  "
     id="path48" />
  <path
     style="fill:none;stroke:#000000;stroke-width:0.035747141px;stroke-linecap:round;stroke-linejoin:round;stroke-miterlimit:4;stroke-dasharray:none;stroke-opacity:1;"
     d="  M 552.08766,165.35993   L 555.94835,165.35993   L 555.94835,164.43333   L 555.62662,163.50672   L 555.3049,163.07906   L 554.66145,162.61575   L 553.69628,162.61575   L 553.05283,163.07906   L 552.40938,163.97002   L 552.08766,165.35993   L 552.08766,166.2509   L 552.40938,167.64081   L 553.05283,168.56742   L 553.69628,168.99508   L 554.66145,168.99508   L 555.3049,168.56742   L 555.94835,167.64081  "
     id="path49" />
  <path
     style="fill:none;stroke:#000000;stroke-width:0.035747141px;stroke-linecap:round;stroke-linejoin:round;stroke-miterlimit:4;stroke-dasharray:none;stroke-opacity:1;"
     d="  M 558.20042,161.68914   L 558.20042,161.22584   L 558.52214,160.33487   L 558.84387,159.87157   L 559.48732,159.40827   L 560.73847,159.40827   L 561.38191,159.87157   L 561.70364,160.33487   L 562.02536,161.22584   L 562.02536,162.15245   L 561.70364,163.07906   L 561.06019,164.43333   L 557.87869,168.99508   L 562.34709,168.99508  "
     id="path50" />
  <path
     style="fill:none;stroke:#000000;stroke-width:0.035747141px;stroke-linecap:round;stroke-linejoin:round;stroke-miterlimit:4;stroke-dasharray:none;stroke-opacity:1;"
     d="  M 506.33132,149.25123   L 506.33132,185.88784  "
     id="path51" />
  <path
     style="fill:none;stroke:#000000;stroke-width:0.035747141px;stroke-linecap:round;stroke-linejoin:round;stroke-miterlimit:4;stroke-dasharray:none;stroke-opacity:1;"
     d="  M 587.69181,149.25123   L 587.69181,185.88784  "
     id="path52" />
  <path
     style="fill:none;stroke:#000000;stroke-width:0.035747141px;stroke-linecap:round;stroke-linejoin:round;stroke-miterlimit:4;stroke-dasharray:none;stroke-opacity:1;"
     d="  M 498.35971,177.9404   L 595.62768,177.9404  "
     id="path53" />
  <path
     style="fill:#000000;fill-rule:evenodd;fill-opacity:1;stroke:none;"
     d="  M 513.33776,173.77067   L 510.54948,170.95521   L 502.11315,184.96123   z "
     id="path54" />
  <path
     style="fill:#000000;fill-rule:evenodd;fill-opacity:1;stroke:none;"
     d="  M 510.54948,170.95521   L 502.11315,184.96123   L 499.28913,182.14577   z "
     id="path55" />
  <path
     style="fill:#000000;fill-rule:evenodd;fill-opacity:1;stroke:none;"
     d="  M 580.64962,182.14577   L 583.47365,184.96123   L 591.90997,170.95521   z "
     id="path56" />
  <path
     style="fill:#000000;fill-rule:evenodd;fill-opacity:1;stroke:none;"
     d="  M 583.47365,184.96123   L 591.90997,170.95521   L 594.69825,173.77067   z "
     id="path57" />
  <path
     style="fill:none;stroke:#000000;stroke-width:0.035747141px;stroke-linecap:round;stroke-linejoin:round;stroke-miterlimit:4;stroke-dasharray:none;stroke-opacity:1;"
     d="  M 543.4726,168.21103   L 543.4726,149.00176  "
     id="path58" />
  <path
     style="fill:none;stroke:#000000;stroke-width:0.035747141px;stroke-linecap:round;stroke-linejoin:round;stroke-miterlimit:4;stroke-dasharray:none;stroke-opacity:1;"
     d="  M 543.4726,159.05188   L 545.40294,156.3077   L 546.68984,155.38109   L 548.62019,155.38109   L 549.87134,156.3077   L 550.51478,159.05188   L 550.51478,168.21103  "
     id="path59" />
  <path
     style="fill:none;stroke:#000000;stroke-width:0.035747141px;stroke-linecap:round;stroke-linejoin:round;stroke-miterlimit:4;stroke-dasharray:none;stroke-opacity:1;"
     d="  M 410.60047,149.25123   L 410.60047,230.50752  "
     id="path60" />
  <path
     style="fill:none;stroke:#000000;stroke-width:0.035747141px;stroke-linecap:round;stroke-linejoin:round;stroke-miterlimit:4;stroke-dasharray:none;stroke-opacity:1;"
     d="  M 587.69181,155.23854   L 587.69181,230.50752  "
     id="path61" />
  <path
     style="fill:none;stroke:#000000;stroke-width:0.035747141px;stroke-linecap:round;stroke-linejoin:round;stroke-miterlimit:4;stroke-dasharray:none;stroke-opacity:1;"
     d="  M 402.62886,222.59572   L 595.62768,222.59572  "
     id="path62" />
  <path
     style="fill:#000000;fill-rule:evenodd;fill-opacity:1;stroke:none;"
     d="  M 417.60691,218.39035   L 414.81864,215.57489   L 406.38231,229.58091   z "
     id="path63" />
  <path
     style="fill:#000000;fill-rule:evenodd;fill-opacity:1;stroke:none;"
     d="  M 414.81864,215.57489   L 406.38231,229.58091   L 403.55829,226.80109   z "
     id="path64" />
  <path
     style="fill:#000000;fill-rule:evenodd;fill-opacity:1;stroke:none;"
     d="  M 580.64962,226.80109   L 583.47365,229.58091   L 591.90997,215.57489   z "
     id="path65" />
  <path
     style="fill:#000000;fill-rule:evenodd;fill-opacity:1;stroke:none;"
     d="  M 583.47365,229.58091   L 591.90997,215.57489   L 594.69825,218.39035   z "
     id="path66" />
  <path
     style="fill:none;stroke:#000000;stroke-width:0.035747141px;stroke-linecap:round;stroke-linejoin:round;stroke-miterlimit:4;stroke-dasharray:none;stroke-opacity:1;"
     d="  M 489.17269,212.83071   L 489.17269,193.62144  "
     id="path67" />
  <path
     style="fill:none;stroke:#000000;stroke-width:0.035747141px;stroke-linecap:round;stroke-linejoin:round;stroke-miterlimit:4;stroke-dasharray:none;stroke-opacity:1;"
     d="  M 489.17269,203.67156   L 491.10304,200.92738   L 492.38993,200.03641   L 494.32028,200.03641   L 495.60718,200.92738   L 496.25062,203.67156   L 496.25062,212.83071  "
     id="path68" />
  <path
     style="fill:none;stroke:#000000;stroke-width:0.035747141px;stroke-linecap:round;stroke-linejoin:round;stroke-miterlimit:4;stroke-dasharray:none;stroke-opacity:1;"
     d="  M 509.08385,202.78059   L 507.79695,200.92738   L 506.51005,200.03641   L 504.57971,200.03641   L 503.29281,200.92738   L 502.04166,202.78059   L 501.39821,205.52477   L 501.39821,207.34235   L 502.04166,210.08653   L 503.29281,211.9041   L 504.57971,212.83071   L 506.51005,212.83071   L 507.79695,211.9041   L 509.08385,210.08653  "
     id="path69" />
  <path
     style="fill:none;stroke:#000000;stroke-width:0.035747141px;stroke-linecap:round;stroke-linejoin:round;stroke-miterlimit:4;stroke-dasharray:none;stroke-opacity:1;"
     d="  M 410.60047,149.25123   L 410.60047,273.91548  "
     id="path70" />
  <path
     style="fill:none;stroke:#000000;stroke-width:0.035747141px;stroke-linecap:round;stroke-linejoin:round;stroke-miterlimit:4;stroke-dasharray:none;stroke-opacity:1;"
     d="  M 648.71218,201.67579   L 648.71218,273.91548  "
     id="path71" />
  <path
     style="fill:none;stroke:#000000;stroke-width:0.035747141px;stroke-linecap:round;stroke-linejoin:round;stroke-miterlimit:4;stroke-dasharray:none;stroke-opacity:1;"
     d="  M 402.62886,265.96804   L 656.64804,265.96804  "
     id="path72" />
  <path
     style="fill:#000000;fill-rule:evenodd;fill-opacity:1;stroke:none;"
     d="  M 417.60691,261.79831   L 414.81864,258.98286   L 406.38231,272.98887   z "
     id="path73" />
  <path
     style="fill:#000000;fill-rule:evenodd;fill-opacity:1;stroke:none;"
     d="  M 414.81864,258.98286   L 406.38231,272.98887   L 403.55829,270.17341   z "
     id="path74" />
  <path
     style="fill:#000000;fill-rule:evenodd;fill-opacity:1;stroke:none;"
     d="  M 641.66999,270.17341   L 644.49402,272.98887   L 652.93034,258.98286   z "
     id="path75" />
  <path
     style="fill:#000000;fill-rule:evenodd;fill-opacity:1;stroke:none;"
     d="  M 644.49402,272.98887   L 652.93034,258.98286   L 655.71862,261.79831   z "
     id="path76" />
  <path
     style="fill:none;stroke:#000000;stroke-width:0.035747141px;stroke-linecap:round;stroke-linejoin:round;stroke-miterlimit:4;stroke-dasharray:none;stroke-opacity:1;"
     d="  M 518.41385,256.23867   L 518.41385,237.0294  "
     id="path77" />
  <path
     style="fill:none;stroke:#000000;stroke-width:0.035747141px;stroke-linecap:round;stroke-linejoin:round;stroke-miterlimit:4;stroke-dasharray:none;stroke-opacity:1;"
     d="  M 518.41385,247.07952   L 520.3442,244.33534   L 521.63109,243.40873   L 523.56144,243.40873   L 524.84834,244.33534   L 525.49179,247.07952   L 525.49179,256.23867  "
     id="path78" />
  <path
     style="fill:none;stroke:#000000;stroke-width:0.035747141px;stroke-linecap:round;stroke-linejoin:round;stroke-miterlimit:4;stroke-dasharray:none;stroke-opacity:1;"
     d="  M 530.60363,243.40873   L 533.17742,256.23867   L 535.75121,243.40873   L 538.32501,256.23867   L 540.86306,243.40873  "
     id="path79" />
  <path
     style="fill:none;stroke:#000000;stroke-width:0.035747141px;stroke-linecap:round;stroke-linejoin:round;stroke-miterlimit:4;stroke-dasharray:none;stroke-opacity:1;"
     d="  M 516.73374,306.84566   L 515.9473,305.74086   L 515.16086,304.24403   L 514.37442,302.17699   L 513.98121,300.10994   L 513.98121,296.72426   L 514.37442,294.47902   L 515.05362,292.62581   L 515.9473,290.73696   L 516.62649,289.81035  "
     id="path80" />
  <path
     style="fill:none;stroke:#000000;stroke-width:0.035747141px;stroke-linecap:round;stroke-linejoin:round;stroke-miterlimit:4;stroke-dasharray:none;stroke-opacity:1;"
     d="  M 515.84006,290.91515   L 515.16086,292.804   L 514.76764,294.47902   L 514.37442,297.29448   L 514.37442,299.53972   L 514.76764,301.96315   L 515.05362,303.10359   L 515.9473,305.52703  "
     id="path81" />
  <path
     style="fill:none;stroke:#000000;stroke-width:0.035747141px;stroke-linecap:round;stroke-linejoin:round;stroke-miterlimit:4;stroke-dasharray:none;stroke-opacity:1;"
     d="  M 525.42029,305.7765   L 525.42029,286.56723  "
     id="path82" />
  <path
     style="fill:none;stroke:#000000;stroke-width:0.035747141px;stroke-linecap:round;stroke-linejoin:round;stroke-miterlimit:4;stroke-dasharray:none;stroke-opacity:1;"
     d="  M 525.42029,295.69074   L 526.70719,293.87316   L 527.99408,292.94656   L 529.92443,292.94656   L 531.17558,293.87316   L 532.46248,295.69074   L 533.10593,298.43492   L 533.10593,300.28813   L 532.46248,303.03231   L 531.17558,304.84989   L 529.92443,305.7765   L 527.99408,305.7765   L 526.70719,304.84989   L 525.42029,303.03231  "
     id="path83" />
  <path
     style="fill:none;stroke:#000000;stroke-width:0.035747141px;stroke-linecap:round;stroke-linejoin:round;stroke-miterlimit:4;stroke-dasharray:none;stroke-opacity:1;"
     d="  M 542.8649,306.84566   L 543.65133,305.74086   L 544.58076,303.28179   L 544.97398,302.17699   L 545.51018,299.53972   L 545.51018,297.11629   L 545.22421,294.69285   L 544.43777,292.41198   L 543.65133,291.12898   L 542.8649,289.81035  "
     id="path84" />
  <path
     style="fill:none;stroke:#000000;stroke-width:0.035747141px;stroke-linecap:round;stroke-linejoin:round;stroke-miterlimit:4;stroke-dasharray:none;stroke-opacity:1;"
     d="  M 543.65133,291.12898   L 544.43777,292.9822   L 544.83099,294.47902   L 545.08122,297.29448   L 545.08122,299.36153   L 544.83099,301.03655   L 544.43777,302.9254   L 543.65133,305.74086  "
     id="path85" />
  <path
     style="fill:none;stroke:#000000;stroke-width:0.035747141px;stroke-linecap:round;stroke-linejoin:round;stroke-miterlimit:4;stroke-dasharray:none;stroke-opacity:1;"
     d="  M 123.80116,302.64029   L 123.01473,301.49985   L 122.22829,300.00302   L 121.44185,297.97162   L 121.04863,295.90457   L 121.04863,292.51889   L 121.44185,290.27365   L 122.12105,288.42044   L 123.01473,286.53159   L 123.69392,285.60498  "
     id="path86" />
  <path
     style="fill:none;stroke:#000000;stroke-width:0.035747141px;stroke-linecap:round;stroke-linejoin:round;stroke-miterlimit:4;stroke-dasharray:none;stroke-opacity:1;"
     d="  M 122.90748,286.70978   L 122.22829,288.59863   L 121.83507,290.27365   L 121.44185,293.08911   L 121.44185,295.33435   L 121.83507,297.75778   L 122.12105,298.89822   L 123.01473,301.32166  "
     id="path87" />
  <path
     style="fill:none;stroke:#000000;stroke-width:0.035747141px;stroke-linecap:round;stroke-linejoin:round;stroke-miterlimit:4;stroke-dasharray:none;stroke-opacity:1;"
     d="  M 140.17335,288.74119   L 140.17335,301.57113  "
     id="path88" />
  <path
     style="fill:none;stroke:#000000;stroke-width:0.035747141px;stroke-linecap:round;stroke-linejoin:round;stroke-miterlimit:4;stroke-dasharray:none;stroke-opacity:1;"
     d="  M 140.17335,291.48537   L 138.88646,289.66779   L 137.63531,288.74119   L 135.70496,288.74119   L 134.41806,289.66779   L 133.13117,291.48537   L 132.48772,294.22955   L 132.48772,296.08276   L 133.13117,298.82695   L 134.41806,300.64452   L 135.70496,301.57113   L 137.63531,301.57113   L 138.88646,300.64452   L 140.17335,298.82695  "
     id="path89" />
  <path
     style="fill:none;stroke:#000000;stroke-width:0.035747141px;stroke-linecap:round;stroke-linejoin:round;stroke-miterlimit:4;stroke-dasharray:none;stroke-opacity:1;"
     d="  M 149.93232,302.64029   L 150.71876,301.49985   L 151.64819,299.07642   L 152.0414,297.97162   L 152.57761,295.33435   L 152.57761,292.91092   L 152.29163,290.45185   L 151.5052,288.20661   L 150.71876,286.92361   L 149.93232,285.60498  "
     id="path90" />
  <path
     style="fill:none;stroke:#000000;stroke-width:0.035747141px;stroke-linecap:round;stroke-linejoin:round;stroke-miterlimit:4;stroke-dasharray:none;stroke-opacity:1;"
     d="  M 150.71876,286.92361   L 151.5052,288.77683   L 151.89842,290.27365   L 152.18439,293.08911   L 152.18439,295.15616   L 151.89842,296.83118   L 151.5052,298.72003   L 150.71876,301.49985  "
     id="path91" />
  <path
     style="fill:#000000;fill-rule:evenodd;fill-opacity:1;stroke:none;"
     d="  M 647.99724,182.82291   L 649.42712,180.93405   L 409.88553,1.52873   z "
     id="path92" />
  <path
     style="fill:#000000;fill-rule:evenodd;fill-opacity:1;stroke:none;"
     d="  M 649.42712,180.93405   L 409.88553,1.52873   L 411.31542,-0.36012228   z "
     id="path93" />
  <path
     style="fill:#000000;fill-rule:evenodd;fill-opacity:1;stroke:none;"
     d="  M 505.11591,129.4361   L 507.51097,129.4361   L 505.11591,73.44767   z "
     id="path94" />
  <path
     style="fill:#000000;fill-rule:evenodd;fill-opacity:1;stroke:none;"
     d="  M 507.51097,129.4361   L 505.11591,73.44767   L 507.51097,73.44767   z "
     id="path95" />
  <path
     style="fill:#000000;fill-rule:evenodd;fill-opacity:1;stroke:none;"
     d="  M 525.45604,129.4361   L 527.8511,129.4361   L 525.45604,88.950514   z "
     id="path96" />
  <path
     style="fill:#000000;fill-rule:evenodd;fill-opacity:1;stroke:none;"
     d="  M 527.8511,129.4361   L 525.45604,88.950514   L 527.8511,88.950514   z "
     id="path97" />
  <path
     style="fill:#000000;fill-rule:evenodd;fill-opacity:1;stroke:none;"
     d="  M 545.79616,129.4361   L 548.19122,129.4361   L 545.79616,104.41772   z "
     id="path98" />
  <path
     style="fill:#000000;fill-rule:evenodd;fill-opacity:1;stroke:none;"
     d="  M 548.19122,129.4361   L 545.79616,104.41772   L 548.19122,104.41772   z "
     id="path99" />
  <path
     style="fill:#000000;fill-rule:evenodd;fill-opacity:1;stroke:none;"
     d="  M 566.13628,129.4361   L 568.53134,129.4361   L 566.13628,119.92056   z "
     id="path100" />
  <path
     style="fill:#000000;fill-rule:evenodd;fill-opacity:1;stroke:none;"
     d="  M 568.53134,129.4361   L 566.13628,119.92056   L 568.53134,119.92056   z "
     id="path101" />
  <path
     style="fill:#000000;fill-rule:evenodd;fill-opacity:1;stroke:none;"
     d="  M 586.47641,135.42341   L 588.87147,135.42341   L 586.47641,129.4361   z "
     id="path102" />
  <path
     style="fill:#000000;fill-rule:evenodd;fill-opacity:1;stroke:none;"
     d="  M 588.87147,135.42341   L 586.47641,129.4361   L 588.87147,129.4361   z "
     id="path103" />
  <path
     style="fill:#000000;fill-rule:evenodd;fill-opacity:1;stroke:none;"
     d="  M 606.81653,150.89061   L 609.21159,150.89061   L 606.81653,129.4361   z "
     id="path104" />
  <path
     style="fill:#000000;fill-rule:evenodd;fill-opacity:1;stroke:none;"
     d="  M 609.21159,150.89061   L 606.81653,129.4361   L 609.21159,129.4361   z "
     id="path105" />
  <path
     style="fill:#000000;fill-rule:evenodd;fill-opacity:1;stroke:none;"
     d="  M 627.15665,166.39346   L 629.55171,166.39346   L 627.15665,129.4361   z "
     id="path106" />
  <path
     style="fill:#000000;fill-rule:evenodd;fill-opacity:1;stroke:none;"
     d="  M 629.55171,166.39346   L 627.15665,129.4361   L 629.55171,129.4361   z "
     id="path107" />
  <path
     style="fill:#000000;fill-rule:evenodd;fill-opacity:1;stroke:none;"
     d="  M 647.53252,181.86066   L 649.89184,181.86066   L 647.53252,129.4361   z "
     id="path108" />
  <path
     style="fill:#000000;fill-rule:evenodd;fill-opacity:1;stroke:none;"
     d="  M 649.89184,181.86066   L 647.53252,129.4361   L 649.89184,129.4361   z "
     id="path109" />
  <path
     style="fill:#000000;fill-rule:evenodd;fill-opacity:1;stroke:none;"
     d="  M 410.60047,128.22439   L 410.60047,130.61218   L 648.71218,128.22439   z "
     id="path110" />
  <path
     style="fill:#000000;fill-rule:evenodd;fill-opacity:1;stroke:none;"
     d="  M 410.60047,130.61218   L 648.71218,128.22439   L 648.71218,130.61218   z "
     id="path111" />
  <path
     style="fill:#000000;fill-rule:evenodd;fill-opacity:1;stroke:none;"
     d="  M 452.46038,31.536534   L 450.06532,31.536534   L 452.46038,129.4361   z "
     id="path112" />
  <path
     style="fill:#000000;fill-rule:evenodd;fill-opacity:1;stroke:none;"
     d="  M 450.06532,31.536534   L 452.46038,129.4361   L 450.06532,129.4361   z "
     id="path113" />
  <path
     style="fill:#000000;fill-rule:evenodd;fill-opacity:1;stroke:none;"
     d="  M 432.12025,16.069328   L 429.72519,16.069328   L 432.12025,129.4361   z "
     id="path114" />
  <path
     style="fill:#000000;fill-rule:evenodd;fill-opacity:1;stroke:none;"
     d="  M 429.72519,16.069328   L 432.12025,129.4361   L 429.72519,129.4361   z "
     id="path115" />
  <path
     style="fill:#000000;fill-rule:evenodd;fill-opacity:1;stroke:none;"
     d="  M 411.78013,0.56648448   L 409.38507,0.56648448   L 411.78013,129.4361   z "
     id="path116" />
  <path
     style="fill:#000000;fill-rule:evenodd;fill-opacity:1;stroke:none;"
     d="  M 409.38507,0.56648448   L 411.78013,129.4361   L 409.38507,129.4361   z "
     id="path117" />
  <path
     style="fill:#000000;fill-rule:evenodd;fill-opacity:1;stroke:none;"
     d="  M 246.4496,59.013988   L 247.02156,56.697471   L 8.3378982,1.7425623   z "
     id="path118" />
  <path
     style="fill:#000000;fill-rule:evenodd;fill-opacity:1;stroke:none;"
     d="  M 247.02156,56.697471   L 8.3378982,1.7425623   L 8.9098524,-0.57395461   z "
     id="path119" />
  <path
     style="fill:#000000;fill-rule:evenodd;fill-opacity:1;stroke:none;"
     d="  M 164.15969,129.4361   L 166.55474,129.4361   L 164.15969,38.272252   z "
     id="path120" />
  <path
     style="fill:#000000;fill-rule:evenodd;fill-opacity:1;stroke:none;"
     d="  M 166.55474,129.4361   L 164.15969,38.272252   L 166.55474,38.272252   z "
     id="path121" />
  <path
     style="fill:#000000;fill-rule:evenodd;fill-opacity:1;stroke:none;"
     d="  M 184.49981,129.4361   L 186.89487,129.4361   L 184.49981,43.154757   z "
     id="path122" />
  <path
     style="fill:#000000;fill-rule:evenodd;fill-opacity:1;stroke:none;"
     d="  M 186.89487,129.4361   L 184.49981,43.154757   L 186.89487,43.154757   z "
     id="path123" />
  <path
     style="fill:#000000;fill-rule:evenodd;fill-opacity:1;stroke:none;"
     d="  M 204.83993,129.4361   L 207.23499,129.4361   L 204.83993,48.0729   z "
     id="path124" />
  <path
     style="fill:#000000;fill-rule:evenodd;fill-opacity:1;stroke:none;"
     d="  M 207.23499,129.4361   L 204.83993,48.0729   L 207.23499,48.0729   z "
     id="path125" />
  <path
     style="fill:#000000;fill-rule:evenodd;fill-opacity:1;stroke:none;"
     d="  M 225.18005,129.4361   L 227.57511,129.4361   L 225.18005,52.955405   z "
     id="path126" />
  <path
     style="fill:#000000;fill-rule:evenodd;fill-opacity:1;stroke:none;"
     d="  M 227.57511,129.4361   L 225.18005,52.955405   L 227.57511,52.955405   z "
     id="path127" />
  <path
     style="fill:#000000;fill-rule:evenodd;fill-opacity:1;stroke:none;"
     d="  M 245.52018,129.4361   L 247.91524,129.4361   L 245.52018,57.83791   z "
     id="path128" />
  <path
     style="fill:#000000;fill-rule:evenodd;fill-opacity:1;stroke:none;"
     d="  M 247.91524,129.4361   L 245.52018,57.83791   L 247.91524,57.83791   z "
     id="path129" />
  <path
     style="fill:#000000;fill-rule:evenodd;fill-opacity:1;stroke:none;"
     d="  M 8.6238753,128.22439   L 8.6238753,130.61218   L 246.73558,128.22439   z "
     id="path130" />
  <path
     style="fill:#000000;fill-rule:evenodd;fill-opacity:1;stroke:none;"
     d="  M 8.6238753,130.61218   L 246.73558,128.22439   L 246.73558,130.61218   z "
     id="path131" />
  <path
     style="fill:#000000;fill-rule:evenodd;fill-opacity:1;stroke:none;"
     d="  M 91.164024,20.132143   L 88.768965,20.132143   L 91.164024,129.4361   z "
     id="path132" />
  <path
     style="fill:#000000;fill-rule:evenodd;fill-opacity:1;stroke:none;"
     d="  M 88.768965,20.132143   L 91.164024,129.4361   L 88.768965,129.4361   z "
     id="path133" />
  <path
     style="fill:#000000;fill-rule:evenodd;fill-opacity:1;stroke:none;"
     d="  M 70.8239,15.249638   L 68.428842,15.249638   L 70.8239,129.4361   z "
     id="path134" />
  <path
     style="fill:#000000;fill-rule:evenodd;fill-opacity:1;stroke:none;"
     d="  M 68.428842,15.249638   L 70.8239,129.4361   L 68.428842,129.4361   z "
     id="path135" />
  <path
     style="fill:#000000;fill-rule:evenodd;fill-opacity:1;stroke:none;"
     d="  M 50.483777,10.367133   L 48.088719,10.367133   L 50.483777,129.4361   z "
     id="path136" />
  <path
     style="fill:#000000;fill-rule:evenodd;fill-opacity:1;stroke:none;"
     d="  M 48.088719,10.367133   L 50.483777,129.4361   L 48.088719,129.4361   z "
     id="path137" />
  <path
     style="fill:#000000;fill-rule:evenodd;fill-opacity:1;stroke:none;"
     d="  M 30.143654,5.0569634   L 27.748596,5.0569634   L 30.143654,129.4361   z "
     id="path138" />
  <path
     style="fill:#000000;fill-rule:evenodd;fill-opacity:1;stroke:none;"
     d="  M 27.748596,5.0569634   L 30.143654,129.4361   L 27.748596,129.4361   z "
     id="path139" />
  <path
     style="fill:#000000;fill-rule:evenodd;fill-opacity:1;stroke:none;"
     d="  M 9.803531,0.56648448   L 7.4084725,0.56648448   L 9.803531,129.4361   z "
     id="path140" />
  <path
     style="fill:#000000;fill-rule:evenodd;fill-opacity:1;stroke:none;"
     d="  M 7.4084725,0.56648448   L 9.803531,129.4361   L 7.4084725,129.4361   z "
     id="path141" />
</svg>
