<?xml version="1.0" encoding="UTF-8" standalone="no"?>
<svg
   version="1.0"
   width="95.040001mm"
   height="74.910004mm"
   id="svg179"
   sodipodi:docname="image273.emf"
   xmlns:inkscape="http://www.inkscape.org/namespaces/inkscape"
   xmlns:sodipodi="http://sodipodi.sourceforge.net/DTD/sodipodi-0.dtd"
   xmlns="http://www.w3.org/2000/svg"
   xmlns:svg="http://www.w3.org/2000/svg">
  <sodipodi:namedview
     id="namedview179"
     pagecolor="#ffffff"
     bordercolor="#000000"
     borderopacity="0.25"
     inkscape:showpageshadow="2"
     inkscape:pageopacity="0.0"
     inkscape:pagecheckerboard="0"
     inkscape:deskcolor="#d1d1d1"
     inkscape:document-units="mm" />
  <defs
     id="defs1">
    <pattern
       id="EMFhbasepattern"
       patternUnits="userSpaceOnUse"
       width="6"
       height="6"
       x="0"
       y="0" />
  </defs>
  <path
     style="fill:#000000;fill-rule:evenodd;fill-opacity:1;stroke:none;"
     d="  M 290.64005,161.8481   L 290.64005,159.44987   L 176.81226,161.8481   z "
     id="path1" />
  <path
     style="fill:#000000;fill-rule:evenodd;fill-opacity:1;stroke:none;"
     d="  M 290.64005,159.44987   L 176.81226,161.8481   L 176.81226,159.44987   z "
     id="path2" />
  <path
     style="fill:#000000;fill-rule:evenodd;fill-opacity:1;stroke:none;"
     d="  M 122.95912,161.8481   L 122.95912,159.44987   L 17.013255,161.8481   z "
     id="path3" />
  <path
     style="fill:#000000;fill-rule:evenodd;fill-opacity:1;stroke:none;"
     d="  M 122.95912,159.44987   L 17.013255,161.8481   L 17.013255,159.44987   z "
     id="path4" />
  <path
     style="fill:#000000;fill-rule:evenodd;fill-opacity:1;stroke:none;"
     d="  M 290.64005,169.16273   L 290.64005,167.96361   L 273.79594,169.16273   z "
     id="path5" />
  <path
     style="fill:#000000;fill-rule:evenodd;fill-opacity:1;stroke:none;"
     d="  M 290.64005,167.96361   L 273.79594,169.16273   L 273.79594,167.96361   z "
     id="path6" />
  <path
     style="fill:#000000;fill-rule:evenodd;fill-opacity:1;stroke:none;"
     d="  M 265.874,169.16273   L 265.874,167.96361   L 246.06917,169.16273   z "
     id="path7" />
  <path
     style="fill:#000000;fill-rule:evenodd;fill-opacity:1;stroke:none;"
     d="  M 265.874,167.96361   L 246.06917,169.16273   L 246.06917,167.96361   z "
     id="path8" />
  <path
     style="fill:#000000;fill-rule:evenodd;fill-opacity:1;stroke:none;"
     d="  M 238.14724,169.16273   L 238.14724,167.96361   L 218.3424,169.16273   z "
     id="path9" />
  <path
     style="fill:#000000;fill-rule:evenodd;fill-opacity:1;stroke:none;"
     d="  M 238.14724,167.96361   L 218.3424,169.16273   L 218.3424,167.96361   z "
     id="path10" />
  <path
     style="fill:#000000;fill-rule:evenodd;fill-opacity:1;stroke:none;"
     d="  M 210.42047,169.16273   L 210.42047,167.96361   L 190.61563,169.16273   z "
     id="path11" />
  <path
     style="fill:#000000;fill-rule:evenodd;fill-opacity:1;stroke:none;"
     d="  M 210.42047,167.96361   L 190.61563,169.16273   L 190.61563,167.96361   z "
     id="path12" />
  <path
     style="fill:#000000;fill-rule:evenodd;fill-opacity:1;stroke:none;"
     d="  M 182.6937,169.16273   L 182.6937,167.96361   L 165.84959,169.16273   z "
     id="path13" />
  <path
     style="fill:#000000;fill-rule:evenodd;fill-opacity:1;stroke:none;"
     d="  M 182.6937,167.96361   L 165.84959,169.16273   L 165.84959,167.96361   z "
     id="path14" />
  <path
     style="fill:#000000;fill-rule:evenodd;fill-opacity:1;stroke:none;"
     d="  M 165.84959,169.16273   L 165.84959,167.96361   L 165.84959,167.96361   z "
     id="path15" />
  <path
     style="fill:none;stroke:#000000;stroke-width:0.9602344px;stroke-linecap:round;stroke-linejoin:round;stroke-miterlimit:4;stroke-dasharray:none;stroke-opacity:1;"
     d="  M 290.64005,192.3457   L 181.69345,192.3457  "
     id="path16" />
  <path
     style="fill:none;stroke:#000000;stroke-width:0.9602344px;stroke-linecap:round;stroke-linejoin:round;stroke-miterlimit:4;stroke-dasharray:none;stroke-opacity:1;"
     d="  M 161.88862,192.3457   L 142.08379,192.3457  "
     id="path17" />
  <path
     style="fill:none;stroke:#000000;stroke-width:0.9602344px;stroke-linecap:round;stroke-linejoin:round;stroke-miterlimit:4;stroke-dasharray:none;stroke-opacity:1;"
     d="  M 122.27895,192.3457   L 13.332356,192.3457  "
     id="path18" />
  <path
     style="fill:none;stroke:#000000;stroke-width:0.9602344px;stroke-linecap:round;stroke-linejoin:round;stroke-miterlimit:4;stroke-dasharray:none;stroke-opacity:1;"
     d="  M 290.64005,154.85324   L 290.64005,182.03328   L 308.08431,187.58919   L 273.2358,197.10221   L 290.64005,202.61815   L 290.64005,230.67754  "
     id="path19" />
  <path
     style="fill:#000000;fill-rule:evenodd;fill-opacity:1;stroke:none;"
     d="  M 290.64005,225.20156   L 290.64005,222.8433   L 17.013255,225.20156   z "
     id="path20" />
  <path
     style="fill:#000000;fill-rule:evenodd;fill-opacity:1;stroke:none;"
     d="  M 290.64005,222.8433   L 17.013255,225.20156   L 17.013255,222.8433   z "
     id="path21" />
  <path
     style="fill:#000000;fill-rule:evenodd;fill-opacity:1;stroke:none;"
     d="  M 290.64005,216.68782   L 290.64005,215.4887   L 268.7147,216.68782   z "
     id="path22" />
  <path
     style="fill:#000000;fill-rule:evenodd;fill-opacity:1;stroke:none;"
     d="  M 290.64005,215.4887   L 268.7147,216.68782   L 268.7147,215.4887   z "
     id="path23" />
  <path
     style="fill:#000000;fill-rule:evenodd;fill-opacity:1;stroke:none;"
     d="  M 260.79276,216.68782   L 260.79276,215.4887   L 240.98793,216.68782   z "
     id="path24" />
  <path
     style="fill:#000000;fill-rule:evenodd;fill-opacity:1;stroke:none;"
     d="  M 260.79276,215.4887   L 240.98793,216.68782   L 240.98793,215.4887   z "
     id="path25" />
  <path
     style="fill:#000000;fill-rule:evenodd;fill-opacity:1;stroke:none;"
     d="  M 233.06599,216.68782   L 233.06599,215.4887   L 213.26116,216.68782   z "
     id="path26" />
  <path
     style="fill:#000000;fill-rule:evenodd;fill-opacity:1;stroke:none;"
     d="  M 233.06599,215.4887   L 213.26116,216.68782   L 213.26116,215.4887   z "
     id="path27" />
  <path
     style="fill:#000000;fill-rule:evenodd;fill-opacity:1;stroke:none;"
     d="  M 205.33923,216.68782   L 205.33923,215.4887   L 185.53439,216.68782   z "
     id="path28" />
  <path
     style="fill:#000000;fill-rule:evenodd;fill-opacity:1;stroke:none;"
     d="  M 205.33923,215.4887   L 185.53439,216.68782   L 185.53439,215.4887   z "
     id="path29" />
  <path
     style="fill:#000000;fill-rule:evenodd;fill-opacity:1;stroke:none;"
     d="  M 177.61246,216.68782   L 177.61246,215.4887   L 157.80762,216.68782   z "
     id="path30" />
  <path
     style="fill:#000000;fill-rule:evenodd;fill-opacity:1;stroke:none;"
     d="  M 177.61246,215.4887   L 157.80762,216.68782   L 157.80762,215.4887   z "
     id="path31" />
  <path
     style="fill:#000000;fill-rule:evenodd;fill-opacity:1;stroke:none;"
     d="  M 149.88569,216.68782   L 149.88569,215.4887   L 130.08086,216.68782   z "
     id="path32" />
  <path
     style="fill:#000000;fill-rule:evenodd;fill-opacity:1;stroke:none;"
     d="  M 149.88569,215.4887   L 130.08086,216.68782   L 130.08086,215.4887   z "
     id="path33" />
  <path
     style="fill:#000000;fill-rule:evenodd;fill-opacity:1;stroke:none;"
     d="  M 122.15892,216.68782   L 122.15892,215.4887   L 102.35409,216.68782   z "
     id="path34" />
  <path
     style="fill:#000000;fill-rule:evenodd;fill-opacity:1;stroke:none;"
     d="  M 122.15892,215.4887   L 102.35409,216.68782   L 102.35409,215.4887   z "
     id="path35" />
  <path
     style="fill:#000000;fill-rule:evenodd;fill-opacity:1;stroke:none;"
     d="  M 94.432153,216.68782   L 94.432153,215.4887   L 74.627319,216.68782   z "
     id="path36" />
  <path
     style="fill:#000000;fill-rule:evenodd;fill-opacity:1;stroke:none;"
     d="  M 94.432153,215.4887   L 74.627319,216.68782   L 74.627319,215.4887   z "
     id="path37" />
  <path
     style="fill:#000000;fill-rule:evenodd;fill-opacity:1;stroke:none;"
     d="  M 66.705385,216.68782   L 66.705385,215.4887   L 46.900551,216.68782   z "
     id="path38" />
  <path
     style="fill:#000000;fill-rule:evenodd;fill-opacity:1;stroke:none;"
     d="  M 66.705385,215.4887   L 46.900551,216.68782   L 46.900551,215.4887   z "
     id="path39" />
  <path
     style="fill:#000000;fill-rule:evenodd;fill-opacity:1;stroke:none;"
     d="  M 38.978617,216.68782   L 38.978617,215.4887   L 17.013255,216.68782   z "
     id="path40" />
  <path
     style="fill:#000000;fill-rule:evenodd;fill-opacity:1;stroke:none;"
     d="  M 38.978617,215.4887   L 17.013255,216.68782   L 17.013255,215.4887   z "
     id="path41" />
  <path
     style="fill:#000000;fill-rule:evenodd;fill-opacity:1;stroke:none;"
     d="  M 17.013255,216.68782   L 17.013255,215.4887   L 17.013255,215.4887   z "
     id="path42" />
  <path
     style="fill:none;stroke:#000000;stroke-width:0.9602344px;stroke-linecap:round;stroke-linejoin:round;stroke-miterlimit:4;stroke-dasharray:none;stroke-opacity:1;"
     d="  M 17.013255,138.86499   L 17.013255,182.43298   L 34.457513,187.9889   L -0.39099365,197.46194   L 17.013255,203.01786   L 17.013255,242.62876  "
     id="path43" />
  <path
     style="fill:none;stroke:#000000;stroke-width:0.9602344px;stroke-linecap:round;stroke-linejoin:round;stroke-miterlimit:4;stroke-dasharray:none;stroke-opacity:1;"
     d="  M 142.60391,168.56317   L 244.86888,57.484768  "
     id="path44" />
  <path
     style="fill:#000000;fill-rule:evenodd;fill-opacity:1;stroke:none;"
     d="  M 122.0789,159.84957   L 123.83933,161.4484   L 229.42511,43.255221   z "
     id="path45" />
  <path
     style="fill:#000000;fill-rule:evenodd;fill-opacity:1;stroke:none;"
     d="  M 123.83933,161.4484   L 229.42511,43.255221   L 231.18554,44.854047   z "
     id="path46" />
  <path
     style="fill:#000000;fill-rule:evenodd;fill-opacity:1;stroke:none;"
     d="  M 127.28017,164.4462   L 128.16039,165.24561   L 140.64343,149.89688   z "
     id="path47" />
  <path
     style="fill:#000000;fill-rule:evenodd;fill-opacity:1;stroke:none;"
     d="  M 128.16039,165.24561   L 140.64343,149.89688   L 141.52365,150.6963   z "
     id="path48" />
  <path
     style="fill:#000000;fill-rule:evenodd;fill-opacity:1;stroke:none;"
     d="  M 146.00474,144.06117   L 146.88496,144.90055   L 159.44802,129.51186   z "
     id="path49" />
  <path
     style="fill:#000000;fill-rule:evenodd;fill-opacity:1;stroke:none;"
     d="  M 146.88496,144.90055   L 159.44802,129.51186   L 160.32824,130.31127   z "
     id="path50" />
  <path
     style="fill:#000000;fill-rule:evenodd;fill-opacity:1;stroke:none;"
     d="  M 164.80933,123.67614   L 165.68955,124.47556   L 178.2126,109.12683   z "
     id="path51" />
  <path
     style="fill:#000000;fill-rule:evenodd;fill-opacity:1;stroke:none;"
     d="  M 165.68955,124.47556   L 178.2126,109.12683   L 179.09282,109.92625   z "
     id="path52" />
  <path
     style="fill:#000000;fill-rule:evenodd;fill-opacity:1;stroke:none;"
     d="  M 183.57391,103.29112   L 184.45413,104.09053   L 197.01719,88.701836   z "
     id="path53" />
  <path
     style="fill:#000000;fill-rule:evenodd;fill-opacity:1;stroke:none;"
     d="  M 184.45413,104.09053   L 197.01719,88.701836   L 197.8574,89.501249   z "
     id="path54" />
  <path
     style="fill:#000000;fill-rule:evenodd;fill-opacity:1;stroke:none;"
     d="  M 202.3785,82.906094   L 203.25872,83.705507   L 215.78178,68.316811   z "
     id="path55" />
  <path
     style="fill:#000000;fill-rule:evenodd;fill-opacity:1;stroke:none;"
     d="  M 203.25872,83.705507   L 215.78178,68.316811   L 216.66199,69.116224   z "
     id="path56" />
  <path
     style="fill:#000000;fill-rule:evenodd;fill-opacity:1;stroke:none;"
     d="  M 221.14308,62.481098   L 222.0233,63.280511   L 234.54636,47.971756   z "
     id="path57" />
  <path
     style="fill:#000000;fill-rule:evenodd;fill-opacity:1;stroke:none;"
     d="  M 222.0233,63.280511   L 234.54636,47.971756   L 235.38656,48.771169   z "
     id="path58" />
  <path
     style="fill:#000000;fill-rule:evenodd;fill-opacity:1;stroke:none;"
     d="  M 234.54636,47.971756   L 235.38656,48.771169   L 235.38656,48.771169   z "
     id="path59" />
  <path
     style="fill:#000000;fill-rule:evenodd;fill-opacity:1;stroke:none;"
     d="  M 175.93205,159.84957   L 177.69248,161.4484   L 258.55222,70.075519   z "
     id="path60" />
  <path
     style="fill:#000000;fill-rule:evenodd;fill-opacity:1;stroke:none;"
     d="  M 177.69248,161.4484   L 258.55222,70.075519   L 260.31265,71.714315   z "
     id="path61" />
  <path
     style="fill:#000000;fill-rule:evenodd;fill-opacity:1;stroke:none;"
     d="  M 158.08769,170.72159   L 158.96791,171.56097   L 165.96962,162.16787   z "
     id="path62" />
  <path
     style="fill:#000000;fill-rule:evenodd;fill-opacity:1;stroke:none;"
     d="  M 158.96791,171.56097   L 165.96962,162.16787   L 166.84983,162.96728   z "
     id="path63" />
  <path
     style="fill:#000000;fill-rule:evenodd;fill-opacity:1;stroke:none;"
     d="  M 171.33092,156.33216   L 172.21114,157.17154   L 184.7342,141.78284   z "
     id="path64" />
  <path
     style="fill:#000000;fill-rule:evenodd;fill-opacity:1;stroke:none;"
     d="  M 172.21114,157.17154   L 184.7342,141.78284   L 185.61441,142.58226   z "
     id="path65" />
  <path
     style="fill:#000000;fill-rule:evenodd;fill-opacity:1;stroke:none;"
     d="  M 190.13552,135.94713   L 190.97572,136.74654   L 203.53879,121.39782   z "
     id="path66" />
  <path
     style="fill:#000000;fill-rule:evenodd;fill-opacity:1;stroke:none;"
     d="  M 190.97572,136.74654   L 203.53879,121.39782   L 204.419,122.19723   z "
     id="path67" />
  <path
     style="fill:#000000;fill-rule:evenodd;fill-opacity:1;stroke:none;"
     d="  M 208.9001,115.5621   L 209.78031,116.36152   L 222.30337,100.97282   z "
     id="path68" />
  <path
     style="fill:#000000;fill-rule:evenodd;fill-opacity:1;stroke:none;"
     d="  M 209.78031,116.36152   L 222.30337,100.97282   L 223.18358,101.77223   z "
     id="path69" />
  <path
     style="fill:#000000;fill-rule:evenodd;fill-opacity:1;stroke:none;"
     d="  M 227.66468,95.17708   L 228.54489,95.976492   L 241.10796,80.587797   z "
     id="path70" />
  <path
     style="fill:#000000;fill-rule:evenodd;fill-opacity:1;stroke:none;"
     d="  M 228.54489,95.976492   L 241.10796,80.587797   L 241.94816,81.38721   z "
     id="path71" />
  <path
     style="fill:#000000;fill-rule:evenodd;fill-opacity:1;stroke:none;"
     d="  M 246.46927,74.752084   L 247.34948,75.551497   L 254.35119,66.198367   z "
     id="path72" />
  <path
     style="fill:#000000;fill-rule:evenodd;fill-opacity:1;stroke:none;"
     d="  M 247.34948,75.551497   L 254.35119,66.198367   L 255.23141,66.99778   z "
     id="path73" />
  <path
     style="fill:#000000;fill-rule:evenodd;fill-opacity:1;stroke:none;"
     d="  M 254.35119,66.198367   L 255.23141,66.99778   L 255.23141,66.99778   z "
     id="path74" />
  <path
     style="fill:none;stroke:#000000;stroke-width:0.9602344px;stroke-linecap:round;stroke-linejoin:round;stroke-miterlimit:4;stroke-dasharray:none;stroke-opacity:1;"
     d="  M 130.00084,235.9137   L 130.00084,279.00204  "
     id="path75" />
  <path
     style="fill:none;stroke:#000000;stroke-width:0.9602344px;stroke-linecap:round;stroke-linejoin:round;stroke-miterlimit:4;stroke-dasharray:none;stroke-opacity:1;"
     d="  M 121.03865,180.43445   L 121.03865,279.00204  "
     id="path76" />
  <path
     style="fill:none;stroke:#000000;stroke-width:0.9602344px;stroke-linecap:round;stroke-linejoin:round;stroke-miterlimit:4;stroke-dasharray:none;stroke-opacity:1;"
     d="  M 130.00084,271.08786   L 137.92277,271.08786  "
     id="path77" />
  <path
     style="fill:none;stroke:#000000;stroke-width:0.9602344px;stroke-linecap:round;stroke-linejoin:round;stroke-miterlimit:4;stroke-dasharray:none;stroke-opacity:1;"
     d="  M 121.03865,271.08786   L 113.11671,271.08786  "
     id="path78" />
  <path
     style="fill:none;stroke:#000000;stroke-width:0.9602344px;stroke-linecap:round;stroke-linejoin:round;stroke-miterlimit:4;stroke-dasharray:none;stroke-opacity:1;"
     d="  M 130.00084,271.08786   L 121.03865,271.08786  "
     id="path79" />
  <path
     style="fill:#000000;fill-rule:evenodd;fill-opacity:1;stroke:none;"
     d="  M 137.00254,266.89094   L 134.20186,264.093   L 125.79981,278.08272   z "
     id="path80" />
  <path
     style="fill:#000000;fill-rule:evenodd;fill-opacity:1;stroke:none;"
     d="  M 134.20186,264.093   L 125.79981,278.08272   L 122.99913,275.28477   z "
     id="path81" />
  <path
     style="fill:#000000;fill-rule:evenodd;fill-opacity:1;stroke:none;"
     d="  M 114.03694,275.28477   L 116.83762,278.08272   L 125.23967,264.093   z "
     id="path82" />
  <path
     style="fill:#000000;fill-rule:evenodd;fill-opacity:1;stroke:none;"
     d="  M 116.83762,278.08272   L 125.23967,264.093   L 128.04036,266.89094   z "
     id="path83" />
  <path
     style="fill:none;stroke:#000000;stroke-width:0.9602344px;stroke-linecap:round;stroke-linejoin:round;stroke-miterlimit:4;stroke-dasharray:none;stroke-opacity:1;"
     d="  M 176.81226,180.43445   L 176.81226,279.00204  "
     id="path84" />
  <path
     style="fill:none;stroke:#000000;stroke-width:0.9602344px;stroke-linecap:round;stroke-linejoin:round;stroke-miterlimit:4;stroke-dasharray:none;stroke-opacity:1;"
     d="  M 165.68955,235.9137   L 165.68955,279.00204  "
     id="path85" />
  <path
     style="fill:none;stroke:#000000;stroke-width:0.9602344px;stroke-linecap:round;stroke-linejoin:round;stroke-miterlimit:4;stroke-dasharray:none;stroke-opacity:1;"
     d="  M 176.81226,271.08786   L 184.7342,271.08786  "
     id="path86" />
  <path
     style="fill:none;stroke:#000000;stroke-width:0.9602344px;stroke-linecap:round;stroke-linejoin:round;stroke-miterlimit:4;stroke-dasharray:none;stroke-opacity:1;"
     d="  M 165.68955,271.08786   L 157.7276,271.08786  "
     id="path87" />
  <path
     style="fill:none;stroke:#000000;stroke-width:0.9602344px;stroke-linecap:round;stroke-linejoin:round;stroke-miterlimit:4;stroke-dasharray:none;stroke-opacity:1;"
     d="  M 176.81226,271.08786   L 165.68955,271.08786  "
     id="path88" />
  <path
     style="fill:#000000;fill-rule:evenodd;fill-opacity:1;stroke:none;"
     d="  M 183.81397,266.89094   L 181.01329,264.05302   L 172.61124,278.08272   z "
     id="path89" />
  <path
     style="fill:#000000;fill-rule:evenodd;fill-opacity:1;stroke:none;"
     d="  M 181.01329,264.05302   L 172.61124,278.08272   L 169.81055,275.28477   z "
     id="path90" />
  <path
     style="fill:#000000;fill-rule:evenodd;fill-opacity:1;stroke:none;"
     d="  M 158.68784,275.28477   L 161.48852,278.08272   L 169.89057,264.05302   z "
     id="path91" />
  <path
     style="fill:#000000;fill-rule:evenodd;fill-opacity:1;stroke:none;"
     d="  M 161.48852,278.08272   L 169.89057,264.05302   L 172.69126,266.89094   z "
     id="path92" />
  <path
     style="fill:none;stroke:#000000;stroke-width:0.9602344px;stroke-linecap:round;stroke-linejoin:round;stroke-miterlimit:4;stroke-dasharray:none;stroke-opacity:1;"
     d="  M 275.75642,85.903892   L 252.43072,64.439659   L 236.54684,73.512994   L 253.19091,41.456542   L 237.30703,50.489907   L 213.98134,29.025674  "
     id="path93" />
  <path
     style="fill:#000000;fill-rule:evenodd;fill-opacity:1;stroke:none;"
     d="  M 122.11891,161.4484   L 123.79932,159.8096   L 127.28017,166.00505   z "
     id="path94" />
  <path
     style="fill:#000000;fill-rule:evenodd;fill-opacity:1;stroke:none;"
     d="  M 123.79932,159.8096   L 127.28017,166.00505   L 128.68051,164.08646   z "
     id="path95" />
  <path
     style="fill:#000000;fill-rule:evenodd;fill-opacity:1;stroke:none;"
     d="  M 127.28017,166.00505   L 128.68051,164.08646   L 133.20162,169.52247   z "
     id="path96" />
  <path
     style="fill:#000000;fill-rule:evenodd;fill-opacity:1;stroke:none;"
     d="  M 128.68051,164.08646   L 133.20162,169.52247   L 134.24187,167.40402   z "
     id="path97" />
  <path
     style="fill:#000000;fill-rule:evenodd;fill-opacity:1;stroke:none;"
     d="  M 133.20162,169.52247   L 134.24187,167.40402   L 139.64319,171.96067   z "
     id="path98" />
  <path
     style="fill:#000000;fill-rule:evenodd;fill-opacity:1;stroke:none;"
     d="  M 134.24187,167.40402   L 139.64319,171.96067   L 140.28335,169.68235   z "
     id="path99" />
  <path
     style="fill:#000000;fill-rule:evenodd;fill-opacity:1;stroke:none;"
     d="  M 139.64319,171.96067   L 140.28335,169.68235   L 146.44485,173.19976   z "
     id="path100" />
  <path
     style="fill:#000000;fill-rule:evenodd;fill-opacity:1;stroke:none;"
     d="  M 140.28335,169.68235   L 146.44485,173.19976   L 146.6449,170.8415   z "
     id="path101" />
  <path
     style="fill:#000000;fill-rule:evenodd;fill-opacity:1;stroke:none;"
     d="  M 146.44485,173.19976   L 146.6449,170.8415   L 153.32653,173.19976   z "
     id="path102" />
  <path
     style="fill:#000000;fill-rule:evenodd;fill-opacity:1;stroke:none;"
     d="  M 146.6449,170.8415   L 153.32653,173.19976   L 153.12648,170.8415   z "
     id="path103" />
  <path
     style="fill:#000000;fill-rule:evenodd;fill-opacity:1;stroke:none;"
     d="  M 153.32653,173.19976   L 153.12648,170.8415   L 160.12819,171.96067   z "
     id="path104" />
  <path
     style="fill:#000000;fill-rule:evenodd;fill-opacity:1;stroke:none;"
     d="  M 153.12648,170.8415   L 160.12819,171.96067   L 159.48803,169.68235   z "
     id="path105" />
  <path
     style="fill:#000000;fill-rule:evenodd;fill-opacity:1;stroke:none;"
     d="  M 160.12819,171.96067   L 159.48803,169.68235   L 166.56976,169.52247   z "
     id="path106" />
  <path
     style="fill:#000000;fill-rule:evenodd;fill-opacity:1;stroke:none;"
     d="  M 159.48803,169.68235   L 166.56976,169.52247   L 165.52951,167.40402   z "
     id="path107" />
  <path
     style="fill:#000000;fill-rule:evenodd;fill-opacity:1;stroke:none;"
     d="  M 166.56976,169.52247   L 165.52951,167.40402   L 172.49121,166.00505   z "
     id="path108" />
  <path
     style="fill:#000000;fill-rule:evenodd;fill-opacity:1;stroke:none;"
     d="  M 165.52951,167.40402   L 172.49121,166.00505   L 171.09087,164.08646   z "
     id="path109" />
  <path
     style="fill:#000000;fill-rule:evenodd;fill-opacity:1;stroke:none;"
     d="  M 172.49121,166.00505   L 171.09087,164.08646   L 177.65247,161.4484   z "
     id="path110" />
  <path
     style="fill:#000000;fill-rule:evenodd;fill-opacity:1;stroke:none;"
     d="  M 171.09087,164.08646   L 177.65247,161.4484   L 175.93205,159.8096   z "
     id="path111" />
  <path
     style="fill:none;stroke:#000000;stroke-width:0.9602344px;stroke-linecap:round;stroke-linejoin:round;stroke-miterlimit:4;stroke-dasharray:none;stroke-opacity:1;"
     d="  M 310.48489,160.64898   L 355.37585,160.64898  "
     id="path112" />
  <path
     style="fill:none;stroke:#000000;stroke-width:0.9602344px;stroke-linecap:round;stroke-linejoin:round;stroke-miterlimit:4;stroke-dasharray:none;stroke-opacity:1;"
     d="  M 310.48489,224.00245   L 355.37585,224.00245  "
     id="path113" />
  <path
     style="fill:none;stroke:#000000;stroke-width:0.9602344px;stroke-linecap:round;stroke-linejoin:round;stroke-miterlimit:4;stroke-dasharray:none;stroke-opacity:1;"
     d="  M 347.45392,152.7348   L 347.45392,231.9566  "
     id="path114" />
  <path
     style="fill:#000000;fill-rule:evenodd;fill-opacity:1;stroke:none;"
     d="  M 351.65494,167.64385   L 354.45563,164.8459   L 340.45221,156.45207   z "
     id="path115" />
  <path
     style="fill:#000000;fill-rule:evenodd;fill-opacity:1;stroke:none;"
     d="  M 354.45563,164.8459   L 340.45221,156.45207   L 343.25289,153.65412   z "
     id="path116" />
  <path
     style="fill:#000000;fill-rule:evenodd;fill-opacity:1;stroke:none;"
     d="  M 343.25289,217.00758   L 340.45221,219.80553   L 354.45563,228.19936   z "
     id="path117" />
  <path
     style="fill:#000000;fill-rule:evenodd;fill-opacity:1;stroke:none;"
     d="  M 340.45221,219.80553   L 354.45563,228.19936   L 351.65494,231.03728   z "
     id="path118" />
  <path
     style="fill:none;stroke:#000000;stroke-width:0.9602344px;stroke-linecap:round;stroke-linejoin:round;stroke-miterlimit:4;stroke-dasharray:none;stroke-opacity:1;"
     d="  M 318.52686,188.50852   L 337.73154,188.50852  "
     id="path119" />
  <path
     style="fill:none;stroke:#000000;stroke-width:0.9602344px;stroke-linecap:round;stroke-linejoin:round;stroke-miterlimit:4;stroke-dasharray:none;stroke-opacity:1;"
     d="  M 327.64908,188.50852   L 325.84864,189.78758   L 324.92842,191.06664   L 324.92842,192.98523   L 325.84864,194.26429   L 327.64908,195.54335   L 330.40976,196.18288   L 332.25021,196.18288   L 334.97087,195.54335   L 336.81132,194.26429   L 337.73154,192.98523   L 337.73154,191.06664   L 336.81132,189.78758   L 334.97087,188.50852  "
     id="path120" />
  <path
     style="fill:#000000;fill-rule:evenodd;fill-opacity:1;stroke:none;"
     d="  M 127.68027,167.72379   L 126.51999,167.72379   L 127.68027,187.94893   z "
     id="path121" />
  <path
     style="fill:#000000;fill-rule:evenodd;fill-opacity:1;stroke:none;"
     d="  M 126.51999,167.72379   L 127.68027,187.94893   L 126.51999,187.94893   z "
     id="path122" />
  <path
     style="fill:#000000;fill-rule:evenodd;fill-opacity:1;stroke:none;"
     d="  M 127.68027,195.86312   L 126.51999,195.86312   L 127.68027,216.08826   z "
     id="path123" />
  <path
     style="fill:#000000;fill-rule:evenodd;fill-opacity:1;stroke:none;"
     d="  M 126.51999,195.86312   L 127.68027,216.08826   L 126.51999,216.08826   z "
     id="path124" />
  <path
     style="fill:#000000;fill-rule:evenodd;fill-opacity:1;stroke:none;"
     d="  M 127.68027,216.08826   L 126.51999,216.08826   L 126.51999,216.08826   z "
     id="path125" />
  <path
     style="fill:#000000;fill-rule:evenodd;fill-opacity:1;stroke:none;"
     d="  M 134.04182,167.68382   L 132.84153,167.68382   L 134.04182,187.94893   z "
     id="path126" />
  <path
     style="fill:#000000;fill-rule:evenodd;fill-opacity:1;stroke:none;"
     d="  M 132.84153,167.68382   L 134.04182,187.94893   L 132.84153,187.94893   z "
     id="path127" />
  <path
     style="fill:#000000;fill-rule:evenodd;fill-opacity:1;stroke:none;"
     d="  M 134.04182,195.86312   L 132.84153,195.86312   L 134.04182,216.08826   z "
     id="path128" />
  <path
     style="fill:#000000;fill-rule:evenodd;fill-opacity:1;stroke:none;"
     d="  M 132.84153,195.86312   L 134.04182,216.08826   L 132.84153,216.08826   z "
     id="path129" />
  <path
     style="fill:#000000;fill-rule:evenodd;fill-opacity:1;stroke:none;"
     d="  M 134.04182,216.08826   L 132.84153,216.08826   L 132.84153,216.08826   z "
     id="path130" />
  <path
     style="fill:#000000;fill-rule:evenodd;fill-opacity:1;stroke:none;"
     d="  M 162.56879,170.162   L 161.36849,170.162   L 162.56879,189.14805   z "
     id="path131" />
  <path
     style="fill:#000000;fill-rule:evenodd;fill-opacity:1;stroke:none;"
     d="  M 161.36849,170.162   L 162.56879,189.14805   L 161.36849,189.14805   z "
     id="path132" />
  <path
     style="fill:#000000;fill-rule:evenodd;fill-opacity:1;stroke:none;"
     d="  M 162.56879,197.06224   L 161.36849,197.06224   L 162.56879,216.08826   z "
     id="path133" />
  <path
     style="fill:#000000;fill-rule:evenodd;fill-opacity:1;stroke:none;"
     d="  M 161.36849,197.06224   L 162.56879,216.08826   L 161.36849,216.08826   z "
     id="path134" />
  <path
     style="fill:#000000;fill-rule:evenodd;fill-opacity:1;stroke:none;"
     d="  M 162.56879,216.08826   L 161.36849,216.08826   L 161.36849,216.08826   z "
     id="path135" />
  <path
     style="fill:#000000;fill-rule:evenodd;fill-opacity:1;stroke:none;"
     d="  M 168.89033,167.68382   L 167.73005,167.68382   L 168.89033,187.94893   z "
     id="path136" />
  <path
     style="fill:#000000;fill-rule:evenodd;fill-opacity:1;stroke:none;"
     d="  M 167.73005,167.68382   L 168.89033,187.94893   L 167.73005,187.94893   z "
     id="path137" />
  <path
     style="fill:#000000;fill-rule:evenodd;fill-opacity:1;stroke:none;"
     d="  M 168.89033,195.86312   L 167.73005,195.86312   L 168.89033,216.08826   z "
     id="path138" />
  <path
     style="fill:#000000;fill-rule:evenodd;fill-opacity:1;stroke:none;"
     d="  M 167.73005,195.86312   L 168.89033,216.08826   L 167.73005,216.08826   z "
     id="path139" />
  <path
     style="fill:#000000;fill-rule:evenodd;fill-opacity:1;stroke:none;"
     d="  M 168.89033,216.08826   L 167.73005,216.08826   L 167.73005,216.08826   z "
     id="path140" />
  <path
     style="fill:none;stroke:#000000;stroke-width:0.9602344px;stroke-linecap:round;stroke-linejoin:round;stroke-miterlimit:4;stroke-dasharray:none;stroke-opacity:1;"
     d="  M 243.70859,29.505322   L 271.27532,-0.39271532  "
     id="path141" />
  <path
     style="fill:none;stroke:#000000;stroke-width:0.9602344px;stroke-linecap:round;stroke-linejoin:round;stroke-miterlimit:4;stroke-dasharray:none;stroke-opacity:1;"
     d="  M 272.87571,56.32562   L 300.40243,26.427583  "
     id="path142" />
  <path
     style="fill:none;stroke:#000000;stroke-width:0.9602344px;stroke-linecap:round;stroke-linejoin:round;stroke-miterlimit:4;stroke-dasharray:none;stroke-opacity:1;"
     d="  M 260.07259,0.0469617   L 300.88255,37.619361  "
     id="path143" />
  <path
     style="fill:#000000;fill-rule:evenodd;fill-opacity:1;stroke:none;"
     d="  M 273.87596,7.081794   L 273.71592,3.1247008   L 258.0721,7.7213242   z "
     id="path144" />
  <path
     style="fill:#000000;fill-rule:evenodd;fill-opacity:1;stroke:none;"
     d="  M 273.71592,3.1247008   L 258.0721,7.7213242   L 257.91206,3.764231   z "
     id="path145" />
  <path
     style="fill:#000000;fill-rule:evenodd;fill-opacity:1;stroke:none;"
     d="  M 287.03917,30.584529   L 287.19921,34.541622   L 302.88304,29.944999   z "
     id="path146" />
  <path
     style="fill:#000000;fill-rule:evenodd;fill-opacity:1;stroke:none;"
     d="  M 287.19921,34.541622   L 302.88304,29.944999   L 303.04308,33.902092   z "
     id="path147" />
  <path
     style="fill:none;stroke:#000000;stroke-width:0.9602344px;stroke-linecap:round;stroke-linejoin:round;stroke-miterlimit:4;stroke-dasharray:none;stroke-opacity:1;"
     d="  M 73.066938,87.262893   L 74.34725,86.343569   L 76.267719,83.585595   L 76.267719,102.7715  "
     id="path148" />
  <path
     style="fill:none;stroke:#000000;stroke-width:0.9602344px;stroke-linecap:round;stroke-linejoin:round;stroke-miterlimit:4;stroke-dasharray:none;stroke-opacity:1;"
     d="  M 122.95912,160.64898   L 89.670991,108.20751  "
     id="path149" />
  <path
     style="fill:none;stroke:#000000;stroke-width:0.9602344px;stroke-linecap:round;stroke-linejoin:round;stroke-miterlimit:4;stroke-dasharray:none;stroke-opacity:1;"
     d="  M 89.670991,108.20751   L 65.90519,108.20751  "
     id="path150" />
  <path
     style="fill:none;stroke:#000000;stroke-width:0.9602344px;stroke-linecap:round;stroke-linejoin:round;stroke-miterlimit:4;stroke-dasharray:none;stroke-opacity:1;"
     d="  M 252.23067,120.07879   L 253.51099,119.15946   L 255.43145,116.40149   L 255.43145,135.62737  "
     id="path151" />
  <path
     style="fill:none;stroke:#000000;stroke-width:0.9602344px;stroke-linecap:round;stroke-linejoin:round;stroke-miterlimit:4;stroke-dasharray:none;stroke-opacity:1;"
     d="  M 176.81226,160.64898   L 238.66736,140.46381  "
     id="path152" />
  <path
     style="fill:none;stroke:#000000;stroke-width:0.9602344px;stroke-linecap:round;stroke-linejoin:round;stroke-miterlimit:4;stroke-dasharray:none;stroke-opacity:1;"
     d="  M 238.66736,140.46381   L 262.43316,140.46381  "
     id="path153" />
  <path
     style="fill:none;stroke:#000000;stroke-width:0.9602344px;stroke-linecap:round;stroke-linejoin:round;stroke-miterlimit:4;stroke-dasharray:none;stroke-opacity:1;"
     d="  M 65.585112,245.10694   L 63.704653,245.9863   L 62.42434,248.74427   L 61.784184,253.30092   L 61.784184,256.0589   L 62.42434,260.61555   L 63.704653,263.37352   L 65.585112,264.29285   L 66.865424,264.29285   L 68.785893,263.37352   L 70.066205,260.61555   L 70.706362,256.0589   L 70.706362,253.30092   L 70.066205,248.74427   L 68.785893,245.9863   L 66.865424,245.10694   L 65.585112,245.10694   z "
     id="path154" />
  <path
     style="fill:none;stroke:#000000;stroke-width:0.9602344px;stroke-linecap:round;stroke-linejoin:round;stroke-miterlimit:4;stroke-dasharray:none;stroke-opacity:1;"
     d="  M 75.187456,262.4542   L 74.547299,263.37352   L 75.187456,264.29285   L 75.827612,263.37352  "
     id="path155" />
  <path
     style="fill:none;stroke:#000000;stroke-width:0.9602344px;stroke-linecap:round;stroke-linejoin:round;stroke-miterlimit:4;stroke-dasharray:none;stroke-opacity:1;"
     d="  M 83.509487,248.74427   L 84.7898,247.82495   L 86.710268,245.10694   L 86.710268,264.29285  "
     id="path156" />
  <path
     style="fill:none;stroke:#000000;stroke-width:0.9602344px;stroke-linecap:round;stroke-linejoin:round;stroke-miterlimit:4;stroke-dasharray:none;stroke-opacity:1;"
     d="  M 101.43386,245.10694   L 101.43386,264.29285  "
     id="path157" />
  <path
     style="fill:none;stroke:#000000;stroke-width:0.9602344px;stroke-linecap:round;stroke-linejoin:round;stroke-miterlimit:4;stroke-dasharray:none;stroke-opacity:1;"
     d="  M 101.43386,254.22025   L 100.15355,252.42157   L 98.873237,251.50224   L 96.952769,251.50224   L 95.672456,252.42157   L 94.392144,254.22025   L 93.751987,256.97822   L 93.751987,258.81687   L 94.392144,261.53487   L 95.672456,263.37352   L 96.952769,264.29285   L 98.873237,264.29285   L 100.15355,263.37352   L 101.43386,261.53487  "
     id="path158" />
  <path
     style="fill:none;stroke:#000000;stroke-width:0.9602344px;stroke-linecap:round;stroke-linejoin:round;stroke-miterlimit:4;stroke-dasharray:none;stroke-opacity:1;"
     d="  M 105.83494,256.61849   L 106.47509,256.17881   L 107.43533,254.81981   L 107.43533,264.41276  "
     id="path159" />
  <path
     style="fill:none;stroke:#000000;stroke-width:0.9602344px;stroke-linecap:round;stroke-linejoin:round;stroke-miterlimit:4;stroke-dasharray:none;stroke-opacity:1;"
     d="  M 197.41729,245.027   L 195.49682,245.94633   L 194.21651,248.7043   L 193.61636,253.26095   L 193.61636,255.97896   L 194.21651,260.57558   L 195.49682,263.29358   L 197.41729,264.21291   L 198.69761,264.21291   L 200.61807,263.29358   L 201.89839,260.57558   L 202.53854,255.97896   L 202.53854,253.26095   L 201.89839,248.7043   L 200.61807,245.94633   L 198.69761,245.027   L 197.41729,245.027   z "
     id="path160" />
  <path
     style="fill:none;stroke:#000000;stroke-width:0.9602344px;stroke-linecap:round;stroke-linejoin:round;stroke-miterlimit:4;stroke-dasharray:none;stroke-opacity:1;"
     d="  M 207.01964,262.41423   L 206.37948,263.29358   L 207.01964,264.21291   L 207.65979,263.29358  "
     id="path161" />
  <path
     style="fill:none;stroke:#000000;stroke-width:0.9602344px;stroke-linecap:round;stroke-linejoin:round;stroke-miterlimit:4;stroke-dasharray:none;stroke-opacity:1;"
     d="  M 215.34167,248.7043   L 216.62198,247.78497   L 218.54245,245.027   L 218.54245,264.21291  "
     id="path162" />
  <path
     style="fill:none;stroke:#000000;stroke-width:0.9602344px;stroke-linecap:round;stroke-linejoin:round;stroke-miterlimit:4;stroke-dasharray:none;stroke-opacity:1;"
     d="  M 233.26604,245.027   L 233.26604,264.21291  "
     id="path163" />
  <path
     style="fill:none;stroke:#000000;stroke-width:0.9602344px;stroke-linecap:round;stroke-linejoin:round;stroke-miterlimit:4;stroke-dasharray:none;stroke-opacity:1;"
     d="  M 233.26604,254.18028   L 231.98573,252.34163   L 230.70542,251.4223   L 228.78495,251.4223   L 227.50464,252.34163   L 226.22432,254.18028   L 225.58417,256.89828   L 225.58417,258.73693   L 226.22432,261.4949   L 227.50464,263.29358   L 228.78495,264.21291   L 230.70542,264.21291   L 231.98573,263.29358   L 233.26604,261.4949  "
     id="path164" />
  <path
     style="fill:none;stroke:#000000;stroke-width:0.9602344px;stroke-linecap:round;stroke-linejoin:round;stroke-miterlimit:4;stroke-dasharray:none;stroke-opacity:1;"
     d="  M 237.66712,256.57852   L 238.30727,256.09887   L 239.26751,254.73987   L 239.26751,264.33282  "
     id="path165" />
  <path
     style="fill:none;stroke:#000000;stroke-width:0.9602344px;stroke-linecap:round;stroke-linejoin:round;stroke-miterlimit:4;stroke-dasharray:none;stroke-opacity:1;"
     d="  M 303.68323,0.96628637   L 289.55979,13.996714  "
     id="path166" />
  <path
     style="fill:none;stroke:#000000;stroke-width:0.9602344px;stroke-linecap:round;stroke-linejoin:round;stroke-miterlimit:4;stroke-dasharray:none;stroke-opacity:1;"
     d="  M 296.96159,7.1617352   L 297.44171,5.0033208   L 297.24166,3.4444659   L 295.96135,2.005523   L 294.40097,1.6857579   L 292.20043,2.005523   L 289.75983,3.3645246   L 288.3995,4.6036144   L 286.79911,6.961882   L 286.31899,9.1202965   L 286.51904,10.679151   L 287.83937,12.078124   L 289.35974,12.437859   L 291.60028,12.118094  "
     id="path167" />
  <path
     style="fill:none;stroke:#000000;stroke-width:0.9602344px;stroke-linecap:round;stroke-linejoin:round;stroke-miterlimit:4;stroke-dasharray:none;stroke-opacity:1;"
     d="  M 298.52197,13.557037   L 299.28216,13.71692   L 300.92256,13.517067   L 293.88084,20.032281  "
     id="path168" />
  <path
     style="fill:#000000;fill-rule:evenodd;fill-opacity:1;stroke:none;"
     d="  M 133.92179,169.16273   L 133.92179,167.96361   L 121.03865,169.16273   z "
     id="path169" />
  <path
     style="fill:#000000;fill-rule:evenodd;fill-opacity:1;stroke:none;"
     d="  M 133.92179,167.96361   L 121.03865,169.16273   L 121.03865,167.96361   z "
     id="path170" />
  <path
     style="fill:#000000;fill-rule:evenodd;fill-opacity:1;stroke:none;"
     d="  M 113.11671,169.16273   L 113.11671,167.96361   L 93.31188,169.16273   z "
     id="path171" />
  <path
     style="fill:#000000;fill-rule:evenodd;fill-opacity:1;stroke:none;"
     d="  M 113.11671,167.96361   L 93.31188,169.16273   L 93.31188,167.96361   z "
     id="path172" />
  <path
     style="fill:#000000;fill-rule:evenodd;fill-opacity:1;stroke:none;"
     d="  M 85.389946,169.16273   L 85.389946,167.96361   L 65.585112,169.16273   z "
     id="path173" />
  <path
     style="fill:#000000;fill-rule:evenodd;fill-opacity:1;stroke:none;"
     d="  M 85.389946,167.96361   L 65.585112,169.16273   L 65.585112,167.96361   z "
     id="path174" />
  <path
     style="fill:#000000;fill-rule:evenodd;fill-opacity:1;stroke:none;"
     d="  M 57.663178,169.16273   L 57.663178,167.96361   L 37.858343,169.16273   z "
     id="path175" />
  <path
     style="fill:#000000;fill-rule:evenodd;fill-opacity:1;stroke:none;"
     d="  M 57.663178,167.96361   L 37.858343,169.16273   L 37.858343,167.96361   z "
     id="path176" />
  <path
     style="fill:#000000;fill-rule:evenodd;fill-opacity:1;stroke:none;"
     d="  M 29.936409,169.16273   L 29.936409,167.96361   L 17.013255,169.16273   z "
     id="path177" />
  <path
     style="fill:#000000;fill-rule:evenodd;fill-opacity:1;stroke:none;"
     d="  M 29.936409,167.96361   L 17.013255,169.16273   L 17.013255,167.96361   z "
     id="path178" />
  <path
     style="fill:#000000;fill-rule:evenodd;fill-opacity:1;stroke:none;"
     d="  M 17.013255,169.16273   L 17.013255,167.96361   L 17.013255,167.96361   z "
     id="path179" />
</svg>
