<?xml version="1.0" encoding="UTF-8" standalone="no"?>
<svg
   version="1.0"
   width="120.9056mm"
   height="31.484373mm"
   id="svg132"
   sodipodi:docname="image1175.wmf"
   xmlns:inkscape="http://www.inkscape.org/namespaces/inkscape"
   xmlns:sodipodi="http://sodipodi.sourceforge.net/DTD/sodipodi-0.dtd"
   xmlns="http://www.w3.org/2000/svg"
   xmlns:svg="http://www.w3.org/2000/svg">
  <sodipodi:namedview
     id="namedview132"
     pagecolor="#ffffff"
     bordercolor="#000000"
     borderopacity="0.25"
     inkscape:showpageshadow="2"
     inkscape:pageopacity="0.0"
     inkscape:pagecheckerboard="0"
     inkscape:deskcolor="#d1d1d1"
     inkscape:document-units="mm" />
  <defs
     id="defs1">
    <pattern
       id="WMFhbasepattern"
       patternUnits="userSpaceOnUse"
       width="6"
       height="6"
       x="0"
       y="0" />
  </defs>
  <path
     style="fill:none;stroke:#000000;stroke-width:1.2501973px;stroke-linecap:round;stroke-linejoin:round;stroke-miterlimit:4;stroke-dasharray:none;stroke-opacity:1;"
     d="  M 53.64483,59.479084   L 2.2352013,59.479084  "
     id="path1" />
  <path
     style="fill:none;stroke:#000000;stroke-width:1.2501973px;stroke-linecap:round;stroke-linejoin:round;stroke-miterlimit:4;stroke-dasharray:none;stroke-opacity:1;"
     d="  M 53.64483,59.479084   L 40.953433,55.652723  "
     id="path2" />
  <path
     style="fill:none;stroke:#000000;stroke-width:1.2501973px;stroke-linecap:round;stroke-linejoin:round;stroke-miterlimit:4;stroke-dasharray:none;stroke-opacity:1;"
     d="  M 40.953433,55.652723   L 44.438832,59.479084  "
     id="path3" />
  <path
     style="fill:none;stroke:#000000;stroke-width:1.2501973px;stroke-linecap:round;stroke-linejoin:round;stroke-miterlimit:4;stroke-dasharray:none;stroke-opacity:1;"
     d="  M 40.953433,63.343331   L 44.438832,59.479084  "
     id="path4" />
  <path
     style="fill:none;stroke:#000000;stroke-width:1.2501973px;stroke-linecap:round;stroke-linejoin:round;stroke-miterlimit:4;stroke-dasharray:none;stroke-opacity:1;"
     d="  M 53.64483,59.479084   L 40.953433,63.343331  "
     id="path5" />
  <path
     style="fill:#000000;fill-rule:evenodd;fill-opacity:1;stroke:none;"
     d="  M 40.953433,55.652723   L 44.438832,59.479084   L 53.64483,59.479084  z "
     id="path6" />
  <path
     style="fill:none;stroke:#000000;stroke-width:1.2501973px;stroke-linecap:round;stroke-linejoin:round;stroke-miterlimit:4;stroke-dasharray:none;stroke-opacity:1;"
     d="  M 40.953433,55.652723   L 44.438832,59.479084   L 53.64483,59.479084   L 40.953433,55.652723  z "
     id="path7" />
  <path
     style="fill:#000000;fill-rule:evenodd;fill-opacity:1;stroke:none;"
     d="  M 44.438832,59.479084   L 53.64483,59.479084   L 53.64483,59.479084  z "
     id="path8" />
  <path
     style="fill:none;stroke:#000000;stroke-width:1.2501973px;stroke-linecap:round;stroke-linejoin:round;stroke-miterlimit:4;stroke-dasharray:none;stroke-opacity:1;"
     d="  M 44.438832,59.479084   L 53.64483,59.479084   L 53.64483,59.479084   L 44.438832,59.479084  z "
     id="path9" />
  <path
     style="fill:#000000;fill-rule:evenodd;fill-opacity:1;stroke:none;"
     d="  M 44.438832,59.479084   L 53.64483,59.479084   L 53.64483,59.479084  z "
     id="path10" />
  <path
     style="fill:none;stroke:#000000;stroke-width:1.2501973px;stroke-linecap:round;stroke-linejoin:round;stroke-miterlimit:4;stroke-dasharray:none;stroke-opacity:1;"
     d="  M 44.438832,59.479084   L 53.64483,59.479084   L 53.64483,59.479084   L 44.438832,59.479084  z "
     id="path11" />
  <path
     style="fill:#000000;fill-rule:evenodd;fill-opacity:1;stroke:none;"
     d="  M 44.438832,59.479084   L 53.64483,59.479084   L 40.953433,63.343331  z "
     id="path12" />
  <path
     style="fill:none;stroke:#000000;stroke-width:1.2501973px;stroke-linecap:round;stroke-linejoin:round;stroke-miterlimit:4;stroke-dasharray:none;stroke-opacity:1;"
     d="  M 44.438832,59.479084   L 53.64483,59.479084   L 40.953433,63.343331   L 44.438832,59.479084  z "
     id="path13" />
  <path
     style="fill:#000000;fill-rule:evenodd;fill-opacity:1;stroke:none;"
     d="  M 14.926598,55.652723   L 2.2352013,59.479084   L 11.479084,59.479084  z "
     id="path14" />
  <path
     style="fill:none;stroke:#000000;stroke-width:1.2501973px;stroke-linecap:round;stroke-linejoin:round;stroke-miterlimit:4;stroke-dasharray:none;stroke-opacity:1;"
     d="  M 14.926598,55.652723   L 2.2352013,59.479084   L 11.479084,59.479084   L 14.926598,55.652723  z "
     id="path15" />
  <path
     style="fill:#000000;fill-rule:evenodd;fill-opacity:1;stroke:none;"
     d="  M 2.2352013,59.479084   L 11.479084,59.479084   L 11.479084,59.479084  z "
     id="path16" />
  <path
     style="fill:none;stroke:#000000;stroke-width:1.2501973px;stroke-linecap:round;stroke-linejoin:round;stroke-miterlimit:4;stroke-dasharray:none;stroke-opacity:1;"
     d="  M 2.2352013,59.479084   L 11.479084,59.479084   L 11.479084,59.479084   L 2.2352013,59.479084  z "
     id="path17" />
  <path
     style="fill:#000000;fill-rule:evenodd;fill-opacity:1;stroke:none;"
     d="  M 2.2352013,59.479084   L 11.479084,59.479084   L 11.479084,59.479084  z "
     id="path18" />
  <path
     style="fill:none;stroke:#000000;stroke-width:1.2501973px;stroke-linecap:round;stroke-linejoin:round;stroke-miterlimit:4;stroke-dasharray:none;stroke-opacity:1;"
     d="  M 2.2352013,59.479084   L 11.479084,59.479084   L 11.479084,59.479084   L 2.2352013,59.479084  z "
     id="path19" />
  <path
     style="fill:#000000;fill-rule:evenodd;fill-opacity:1;stroke:none;"
     d="  M 2.2352013,59.479084   L 11.479084,59.479084   L 14.926598,63.343331  z "
     id="path20" />
  <path
     style="fill:none;stroke:#000000;stroke-width:1.2501973px;stroke-linecap:round;stroke-linejoin:round;stroke-miterlimit:4;stroke-dasharray:none;stroke-opacity:1;"
     d="  M 2.2352013,59.479084   L 11.479084,59.479084   L 14.926598,63.343331   L 2.2352013,59.479084  z "
     id="path21" />
  <path
     style="fill:none;stroke:#000000;stroke-width:1.2501973px;stroke-linecap:round;stroke-linejoin:round;stroke-miterlimit:4;stroke-dasharray:none;stroke-opacity:1;"
     d="  M 2.2352013,59.479084   L 14.926598,63.343331  "
     id="path22" />
  <path
     style="fill:none;stroke:#000000;stroke-width:1.2501973px;stroke-linecap:round;stroke-linejoin:round;stroke-miterlimit:4;stroke-dasharray:none;stroke-opacity:1;"
     d="  M 14.926598,63.343331   L 11.479084,59.479084  "
     id="path23" />
  <path
     style="fill:none;stroke:#000000;stroke-width:1.2501973px;stroke-linecap:round;stroke-linejoin:round;stroke-miterlimit:4;stroke-dasharray:none;stroke-opacity:1;"
     d="  M 14.926598,55.652723   L 11.479084,59.479084  "
     id="path24" />
  <path
     style="fill:none;stroke:#000000;stroke-width:1.2501973px;stroke-linecap:round;stroke-linejoin:round;stroke-miterlimit:4;stroke-dasharray:none;stroke-opacity:1;"
     d="  M 2.2352013,59.479084   L 14.926598,55.652723  "
     id="path25" />
  <path
     style="fill:none;stroke:#000000;stroke-width:1.2501973px;stroke-linecap:round;stroke-linejoin:round;stroke-miterlimit:4;stroke-dasharray:none;stroke-opacity:1;"
     d="  M 269.28493,59.479084   L 281.93844,55.652723  "
     id="path26" />
  <path
     style="fill:none;stroke:#000000;stroke-width:1.2501973px;stroke-linecap:round;stroke-linejoin:round;stroke-miterlimit:4;stroke-dasharray:none;stroke-opacity:1;"
     d="  M 281.93844,55.652723   L 278.49092,59.479084  "
     id="path27" />
  <path
     style="fill:none;stroke:#000000;stroke-width:1.2501973px;stroke-linecap:round;stroke-linejoin:round;stroke-miterlimit:4;stroke-dasharray:none;stroke-opacity:1;"
     d="  M 281.93844,63.343331   L 278.49092,59.479084  "
     id="path28" />
  <path
     style="fill:none;stroke:#000000;stroke-width:1.2501973px;stroke-linecap:round;stroke-linejoin:round;stroke-miterlimit:4;stroke-dasharray:none;stroke-opacity:1;"
     d="  M 269.28493,59.479084   L 281.93844,63.343331  "
     id="path29" />
  <path
     style="fill:#000000;fill-rule:evenodd;fill-opacity:1;stroke:none;"
     d="  M 281.93844,55.652723   L 269.28493,59.479084   L 278.49092,59.479084  z "
     id="path30" />
  <path
     style="fill:none;stroke:#000000;stroke-width:1.2501973px;stroke-linecap:round;stroke-linejoin:round;stroke-miterlimit:4;stroke-dasharray:none;stroke-opacity:1;"
     d="  M 281.93844,55.652723   L 269.28493,59.479084   L 278.49092,59.479084   L 281.93844,55.652723  z "
     id="path31" />
  <path
     style="fill:#000000;fill-rule:evenodd;fill-opacity:1;stroke:none;"
     d="  M 269.28493,59.479084   L 278.49092,59.479084   L 278.49092,59.479084  z "
     id="path32" />
  <path
     style="fill:none;stroke:#000000;stroke-width:1.2501973px;stroke-linecap:round;stroke-linejoin:round;stroke-miterlimit:4;stroke-dasharray:none;stroke-opacity:1;"
     d="  M 269.28493,59.479084   L 278.49092,59.479084   L 278.49092,59.479084   L 269.28493,59.479084  z "
     id="path33" />
  <path
     style="fill:#000000;fill-rule:evenodd;fill-opacity:1;stroke:none;"
     d="  M 269.28493,59.479084   L 278.49092,59.479084   L 278.49092,59.479084  z "
     id="path34" />
  <path
     style="fill:none;stroke:#000000;stroke-width:1.2501973px;stroke-linecap:round;stroke-linejoin:round;stroke-miterlimit:4;stroke-dasharray:none;stroke-opacity:1;"
     d="  M 269.28493,59.479084   L 278.49092,59.479084   L 278.49092,59.479084   L 269.28493,59.479084  z "
     id="path35" />
  <path
     style="fill:#000000;fill-rule:evenodd;fill-opacity:1;stroke:none;"
     d="  M 269.28493,59.479084   L 278.49092,59.479084   L 281.93844,63.343331  z "
     id="path36" />
  <path
     style="fill:none;stroke:#000000;stroke-width:1.2501973px;stroke-linecap:round;stroke-linejoin:round;stroke-miterlimit:4;stroke-dasharray:none;stroke-opacity:1;"
     d="  M 269.28493,59.479084   L 278.49092,59.479084   L 281.93844,63.343331   L 269.28493,59.479084  z "
     id="path37" />
  <path
     style="fill:#000000;fill-rule:evenodd;fill-opacity:1;stroke:none;"
     d="  M 308.00316,55.652723   L 311.45067,59.479084   L 320.65667,59.479084  z "
     id="path38" />
  <path
     style="fill:none;stroke:#000000;stroke-width:1.2501973px;stroke-linecap:round;stroke-linejoin:round;stroke-miterlimit:4;stroke-dasharray:none;stroke-opacity:1;"
     d="  M 308.00316,55.652723   L 311.45067,59.479084   L 320.65667,59.479084   L 308.00316,55.652723  z "
     id="path39" />
  <path
     style="fill:#000000;fill-rule:evenodd;fill-opacity:1;stroke:none;"
     d="  M 311.45067,59.479084   L 320.65667,59.479084   L 320.65667,59.479084  z "
     id="path40" />
  <path
     style="fill:none;stroke:#000000;stroke-width:1.2501973px;stroke-linecap:round;stroke-linejoin:round;stroke-miterlimit:4;stroke-dasharray:none;stroke-opacity:1;"
     d="  M 311.45067,59.479084   L 320.65667,59.479084   L 320.65667,59.479084   L 311.45067,59.479084  z "
     id="path41" />
  <path
     style="fill:#000000;fill-rule:evenodd;fill-opacity:1;stroke:none;"
     d="  M 311.45067,59.479084   L 320.65667,59.479084   L 320.65667,59.479084  z "
     id="path42" />
  <path
     style="fill:none;stroke:#000000;stroke-width:1.2501973px;stroke-linecap:round;stroke-linejoin:round;stroke-miterlimit:4;stroke-dasharray:none;stroke-opacity:1;"
     d="  M 311.45067,59.479084   L 320.65667,59.479084   L 320.65667,59.479084   L 311.45067,59.479084  z "
     id="path43" />
  <path
     style="fill:#000000;fill-rule:evenodd;fill-opacity:1;stroke:none;"
     d="  M 311.45067,59.479084   L 320.65667,59.479084   L 308.00316,63.343331  z "
     id="path44" />
  <path
     style="fill:none;stroke:#000000;stroke-width:1.2501973px;stroke-linecap:round;stroke-linejoin:round;stroke-miterlimit:4;stroke-dasharray:none;stroke-opacity:1;"
     d="  M 311.45067,59.479084   L 320.65667,59.479084   L 308.00316,63.343331   L 311.45067,59.479084  z "
     id="path45" />
  <path
     style="fill:none;stroke:#000000;stroke-width:1.2501973px;stroke-linecap:round;stroke-linejoin:round;stroke-miterlimit:4;stroke-dasharray:none;stroke-opacity:1;"
     d="  M 320.65667,59.479084   L 308.00316,63.343331  "
     id="path46" />
  <path
     style="fill:none;stroke:#000000;stroke-width:1.2501973px;stroke-linecap:round;stroke-linejoin:round;stroke-miterlimit:4;stroke-dasharray:none;stroke-opacity:1;"
     d="  M 308.00316,63.343331   L 311.45067,59.479084  "
     id="path47" />
  <path
     style="fill:none;stroke:#000000;stroke-width:1.2501973px;stroke-linecap:round;stroke-linejoin:round;stroke-miterlimit:4;stroke-dasharray:none;stroke-opacity:1;"
     d="  M 308.00316,55.652723   L 311.45067,59.479084  "
     id="path48" />
  <path
     style="fill:none;stroke:#000000;stroke-width:1.2501973px;stroke-linecap:round;stroke-linejoin:round;stroke-miterlimit:4;stroke-dasharray:none;stroke-opacity:1;"
     d="  M 320.65667,59.479084   L 308.00316,55.652723  "
     id="path49" />
  <path
     style="fill:none;stroke:#000000;stroke-width:1.2501973px;stroke-linecap:round;stroke-linejoin:round;stroke-miterlimit:4;stroke-dasharray:none;stroke-opacity:1;"
     d="  M 320.65667,59.479084   L 269.28493,59.479084  "
     id="path50" />
  <path
     style="fill:none;stroke:#000000;stroke-width:1.2501973px;stroke-linecap:round;stroke-linejoin:round;stroke-miterlimit:4;stroke-dasharray:none;stroke-opacity:1;"
     d="  M 68.874507,11.782163   L 255.53275,11.782163  "
     id="path51" />
  <path
     style="fill:none;stroke:#000000;stroke-width:1.2501973px;stroke-linecap:round;stroke-linejoin:round;stroke-miterlimit:4;stroke-dasharray:none;stroke-opacity:1;"
     d="  M 68.874507,107.17601   L 255.53275,107.17601  "
     id="path52" />
  <path
     style="fill:none;stroke:#000000;stroke-width:1.2501973px;stroke-linecap:round;stroke-linejoin:round;stroke-miterlimit:4;stroke-dasharray:none;stroke-opacity:1;"
     d="  M 68.874507,21.480663   L 72.018942,21.480663  "
     id="path53" />
  <path
     style="fill:none;stroke:#000000;stroke-width:1.2501973px;stroke-linecap:round;stroke-linejoin:round;stroke-miterlimit:4;stroke-dasharray:none;stroke-opacity:1;"
     d="  M 77.853197,21.480663   L 81.717443,21.480663  "
     id="path54" />
  <path
     style="fill:none;stroke:#000000;stroke-width:1.2501973px;stroke-linecap:round;stroke-linejoin:round;stroke-miterlimit:4;stroke-dasharray:none;stroke-opacity:1;"
     d="  M 87.551697,21.480663   L 91.415943,21.480663  "
     id="path55" />
  <path
     style="fill:none;stroke:#000000;stroke-width:1.2501973px;stroke-linecap:round;stroke-linejoin:round;stroke-miterlimit:4;stroke-dasharray:none;stroke-opacity:1;"
     d="  M 97.250197,21.480663   L 101.11444,21.480663  "
     id="path56" />
  <path
     style="fill:none;stroke:#000000;stroke-width:1.2501973px;stroke-linecap:round;stroke-linejoin:round;stroke-miterlimit:4;stroke-dasharray:none;stroke-opacity:1;"
     d="  M 106.91081,21.480663   L 110.81294,21.480663  "
     id="path57" />
  <path
     style="fill:none;stroke:#000000;stroke-width:1.2501973px;stroke-linecap:round;stroke-linejoin:round;stroke-miterlimit:4;stroke-dasharray:none;stroke-opacity:1;"
     d="  M 116.60931,21.480663   L 120.51144,21.480663  "
     id="path58" />
  <path
     style="fill:none;stroke:#000000;stroke-width:1.2501973px;stroke-linecap:round;stroke-linejoin:round;stroke-miterlimit:4;stroke-dasharray:none;stroke-opacity:1;"
     d="  M 126.30781,21.480663   L 130.20994,21.480663  "
     id="path59" />
  <path
     style="fill:none;stroke:#000000;stroke-width:1.2501973px;stroke-linecap:round;stroke-linejoin:round;stroke-miterlimit:4;stroke-dasharray:none;stroke-opacity:1;"
     d="  M 136.00631,21.480663   L 139.90845,21.480663  "
     id="path60" />
  <path
     style="fill:none;stroke:#000000;stroke-width:1.2501973px;stroke-linecap:round;stroke-linejoin:round;stroke-miterlimit:4;stroke-dasharray:none;stroke-opacity:1;"
     d="  M 145.70481,21.480663   L 149.56906,21.480663  "
     id="path61" />
  <path
     style="fill:none;stroke:#000000;stroke-width:1.2501973px;stroke-linecap:round;stroke-linejoin:round;stroke-miterlimit:4;stroke-dasharray:none;stroke-opacity:1;"
     d="  M 155.40331,21.480663   L 159.26756,21.480663  "
     id="path62" />
  <path
     style="fill:none;stroke:#000000;stroke-width:1.2501973px;stroke-linecap:round;stroke-linejoin:round;stroke-miterlimit:4;stroke-dasharray:none;stroke-opacity:1;"
     d="  M 165.10182,21.480663   L 168.96606,21.480663  "
     id="path63" />
  <path
     style="fill:none;stroke:#000000;stroke-width:1.2501973px;stroke-linecap:round;stroke-linejoin:round;stroke-miterlimit:4;stroke-dasharray:none;stroke-opacity:1;"
     d="  M 174.80032,21.480663   L 178.66456,21.480663  "
     id="path64" />
  <path
     style="fill:none;stroke:#000000;stroke-width:1.2501973px;stroke-linecap:round;stroke-linejoin:round;stroke-miterlimit:4;stroke-dasharray:none;stroke-opacity:1;"
     d="  M 184.49882,21.480663   L 188.36306,21.480663  "
     id="path65" />
  <path
     style="fill:none;stroke:#000000;stroke-width:1.2501973px;stroke-linecap:round;stroke-linejoin:round;stroke-miterlimit:4;stroke-dasharray:none;stroke-opacity:1;"
     d="  M 194.19732,21.480663   L 198.06156,21.480663  "
     id="path66" />
  <path
     style="fill:none;stroke:#000000;stroke-width:1.2501973px;stroke-linecap:round;stroke-linejoin:round;stroke-miterlimit:4;stroke-dasharray:none;stroke-opacity:1;"
     d="  M 203.89582,21.480663   L 207.76006,21.480663  "
     id="path67" />
  <path
     style="fill:none;stroke:#000000;stroke-width:1.2501973px;stroke-linecap:round;stroke-linejoin:round;stroke-miterlimit:4;stroke-dasharray:none;stroke-opacity:1;"
     d="  M 213.55643,21.480663   L 217.45856,21.480663  "
     id="path68" />
  <path
     style="fill:none;stroke:#000000;stroke-width:1.2501973px;stroke-linecap:round;stroke-linejoin:round;stroke-miterlimit:4;stroke-dasharray:none;stroke-opacity:1;"
     d="  M 223.25493,21.480663   L 227.15706,21.480663  "
     id="path69" />
  <path
     style="fill:none;stroke:#000000;stroke-width:1.2501973px;stroke-linecap:round;stroke-linejoin:round;stroke-miterlimit:4;stroke-dasharray:none;stroke-opacity:1;"
     d="  M 232.95343,21.480663   L 236.85556,21.480663  "
     id="path70" />
  <path
     style="fill:none;stroke:#000000;stroke-width:1.2501973px;stroke-linecap:round;stroke-linejoin:round;stroke-miterlimit:4;stroke-dasharray:none;stroke-opacity:1;"
     d="  M 242.65193,21.480663   L 246.55406,21.480663  "
     id="path71" />
  <path
     style="fill:none;stroke:#000000;stroke-width:1.2501973px;stroke-linecap:round;stroke-linejoin:round;stroke-miterlimit:4;stroke-dasharray:none;stroke-opacity:1;"
     d="  M 252.35043,21.480663   L 255.53275,21.480663  "
     id="path72" />
  <path
     style="fill:none;stroke:#000000;stroke-width:1.2501973px;stroke-linecap:round;stroke-linejoin:round;stroke-miterlimit:4;stroke-dasharray:none;stroke-opacity:1;"
     d="  M 68.874507,97.477506   L 72.018942,97.477506  "
     id="path73" />
  <path
     style="fill:none;stroke:#000000;stroke-width:1.2501973px;stroke-linecap:round;stroke-linejoin:round;stroke-miterlimit:4;stroke-dasharray:none;stroke-opacity:1;"
     d="  M 77.853197,97.477506   L 81.717443,97.477506  "
     id="path74" />
  <path
     style="fill:none;stroke:#000000;stroke-width:1.2501973px;stroke-linecap:round;stroke-linejoin:round;stroke-miterlimit:4;stroke-dasharray:none;stroke-opacity:1;"
     d="  M 87.551697,97.477506   L 91.415943,97.477506  "
     id="path75" />
  <path
     style="fill:none;stroke:#000000;stroke-width:1.2501973px;stroke-linecap:round;stroke-linejoin:round;stroke-miterlimit:4;stroke-dasharray:none;stroke-opacity:1;"
     d="  M 97.250197,97.477506   L 101.11444,97.477506  "
     id="path76" />
  <path
     style="fill:none;stroke:#000000;stroke-width:1.2501973px;stroke-linecap:round;stroke-linejoin:round;stroke-miterlimit:4;stroke-dasharray:none;stroke-opacity:1;"
     d="  M 106.91081,97.477506   L 110.81294,97.477506  "
     id="path77" />
  <path
     style="fill:none;stroke:#000000;stroke-width:1.2501973px;stroke-linecap:round;stroke-linejoin:round;stroke-miterlimit:4;stroke-dasharray:none;stroke-opacity:1;"
     d="  M 116.60931,97.477506   L 120.51144,97.477506  "
     id="path78" />
  <path
     style="fill:none;stroke:#000000;stroke-width:1.2501973px;stroke-linecap:round;stroke-linejoin:round;stroke-miterlimit:4;stroke-dasharray:none;stroke-opacity:1;"
     d="  M 126.30781,97.477506   L 130.20994,97.477506  "
     id="path79" />
  <path
     style="fill:none;stroke:#000000;stroke-width:1.2501973px;stroke-linecap:round;stroke-linejoin:round;stroke-miterlimit:4;stroke-dasharray:none;stroke-opacity:1;"
     d="  M 136.00631,97.477506   L 139.90845,97.477506  "
     id="path80" />
  <path
     style="fill:none;stroke:#000000;stroke-width:1.2501973px;stroke-linecap:round;stroke-linejoin:round;stroke-miterlimit:4;stroke-dasharray:none;stroke-opacity:1;"
     d="  M 145.70481,97.477506   L 149.56906,97.477506  "
     id="path81" />
  <path
     style="fill:none;stroke:#000000;stroke-width:1.2501973px;stroke-linecap:round;stroke-linejoin:round;stroke-miterlimit:4;stroke-dasharray:none;stroke-opacity:1;"
     d="  M 155.40331,97.477506   L 159.26756,97.477506  "
     id="path82" />
  <path
     style="fill:none;stroke:#000000;stroke-width:1.2501973px;stroke-linecap:round;stroke-linejoin:round;stroke-miterlimit:4;stroke-dasharray:none;stroke-opacity:1;"
     d="  M 165.10182,97.477506   L 168.96606,97.477506  "
     id="path83" />
  <path
     style="fill:none;stroke:#000000;stroke-width:1.2501973px;stroke-linecap:round;stroke-linejoin:round;stroke-miterlimit:4;stroke-dasharray:none;stroke-opacity:1;"
     d="  M 174.80032,97.477506   L 178.66456,97.477506  "
     id="path84" />
  <path
     style="fill:none;stroke:#000000;stroke-width:1.2501973px;stroke-linecap:round;stroke-linejoin:round;stroke-miterlimit:4;stroke-dasharray:none;stroke-opacity:1;"
     d="  M 184.49882,97.477506   L 188.36306,97.477506  "
     id="path85" />
  <path
     style="fill:none;stroke:#000000;stroke-width:1.2501973px;stroke-linecap:round;stroke-linejoin:round;stroke-miterlimit:4;stroke-dasharray:none;stroke-opacity:1;"
     d="  M 194.19732,97.477506   L 198.06156,97.477506  "
     id="path86" />
  <path
     style="fill:none;stroke:#000000;stroke-width:1.2501973px;stroke-linecap:round;stroke-linejoin:round;stroke-miterlimit:4;stroke-dasharray:none;stroke-opacity:1;"
     d="  M 203.89582,97.477506   L 207.76006,97.477506  "
     id="path87" />
  <path
     style="fill:none;stroke:#000000;stroke-width:1.2501973px;stroke-linecap:round;stroke-linejoin:round;stroke-miterlimit:4;stroke-dasharray:none;stroke-opacity:1;"
     d="  M 213.55643,97.477506   L 217.45856,97.477506  "
     id="path88" />
  <path
     style="fill:none;stroke:#000000;stroke-width:1.2501973px;stroke-linecap:round;stroke-linejoin:round;stroke-miterlimit:4;stroke-dasharray:none;stroke-opacity:1;"
     d="  M 223.25493,97.477506   L 227.15706,97.477506  "
     id="path89" />
  <path
     style="fill:none;stroke:#000000;stroke-width:1.2501973px;stroke-linecap:round;stroke-linejoin:round;stroke-miterlimit:4;stroke-dasharray:none;stroke-opacity:1;"
     d="  M 232.95343,97.477506   L 236.85556,97.477506  "
     id="path90" />
  <path
     style="fill:none;stroke:#000000;stroke-width:1.2501973px;stroke-linecap:round;stroke-linejoin:round;stroke-miterlimit:4;stroke-dasharray:none;stroke-opacity:1;"
     d="  M 242.65193,97.477506   L 246.55406,97.477506  "
     id="path91" />
  <path
     style="fill:none;stroke:#000000;stroke-width:1.2501973px;stroke-linecap:round;stroke-linejoin:round;stroke-miterlimit:4;stroke-dasharray:none;stroke-opacity:1;"
     d="  M 252.35043,97.477506   L 255.53275,97.477506  "
     id="path92" />
  <path
     style="fill:none;stroke:#000000;stroke-width:1.2501973px;stroke-linecap:round;stroke-linejoin:round;stroke-miterlimit:4;stroke-dasharray:none;stroke-opacity:1;"
     d="  M 158.96448,107.17601   L 158.96448,11.782163  "
     id="path93" />
  <path
     style="fill:none;stroke:#000000;stroke-width:1.2501973px;stroke-linecap:round;stroke-linejoin:round;stroke-miterlimit:4;stroke-dasharray:none;stroke-opacity:1;"
     d="  M 165.40489,107.17601   L 165.40489,11.782163  "
     id="path94" />
  <path
     style="fill:#000000;fill-rule:evenodd;fill-opacity:1;stroke:none;"
     d="  M 158.96448,21.480663   L 165.40489,21.480663   L 165.40489,21.480663  z "
     id="path95" />
  <path
     style="fill:none;stroke:#000000;stroke-width:1.2501973px;stroke-linecap:round;stroke-linejoin:round;stroke-miterlimit:4;stroke-dasharray:none;stroke-opacity:1;"
     d="  M 158.96448,21.480663   L 165.40489,21.480663   L 165.40489,21.480663   L 158.96448,21.480663  z "
     id="path96" />
  <path
     style="fill:#000000;fill-rule:evenodd;fill-opacity:1;stroke:none;"
     d="  M 158.96448,21.480663   L 158.96448,97.477506   L 165.40489,97.477506  z "
     id="path97" />
  <path
     style="fill:none;stroke:#000000;stroke-width:1.2501973px;stroke-linecap:round;stroke-linejoin:round;stroke-miterlimit:4;stroke-dasharray:none;stroke-opacity:1;"
     d="  M 158.96448,21.480663   L 158.96448,97.477506   L 165.40489,97.477506   L 158.96448,21.480663  z "
     id="path98" />
  <path
     style="fill:#000000;fill-rule:evenodd;fill-opacity:1;stroke:none;"
     d="  M 158.96448,21.480663   L 165.40489,21.480663   L 165.40489,97.477506  z "
     id="path99" />
  <path
     style="fill:none;stroke:#000000;stroke-width:1.2501973px;stroke-linecap:round;stroke-linejoin:round;stroke-miterlimit:4;stroke-dasharray:none;stroke-opacity:1;"
     d="  M 158.96448,21.480663   L 165.40489,21.480663   L 165.40489,97.477506   L 158.96448,21.480663  z "
     id="path100" />
  <path
     style="fill:#000000;fill-rule:evenodd;fill-opacity:1;stroke:none;"
     d="  M 158.96448,97.477506   L 165.40489,97.477506   L 165.40489,97.477506  z "
     id="path101" />
  <path
     style="fill:none;stroke:#000000;stroke-width:1.2501973px;stroke-linecap:round;stroke-linejoin:round;stroke-miterlimit:4;stroke-dasharray:none;stroke-opacity:1;"
     d="  M 158.96448,97.477506   L 165.40489,97.477506   L 165.40489,97.477506   L 158.96448,97.477506  z "
     id="path102" />
  <path
     style="fill:#000000;fill-rule:evenodd;fill-opacity:1;stroke:none;"
     d="  M 158.96448,11.782163   L 165.40489,11.782163   L 165.40489,11.782163  z "
     id="path103" />
  <path
     style="fill:none;stroke:#000000;stroke-width:1.2501973px;stroke-linecap:round;stroke-linejoin:round;stroke-miterlimit:4;stroke-dasharray:none;stroke-opacity:1;"
     d="  M 158.96448,11.782163   L 165.40489,11.782163   L 165.40489,11.782163   L 158.96448,11.782163  z "
     id="path104" />
  <path
     style="fill:#000000;fill-rule:evenodd;fill-opacity:1;stroke:none;"
     d="  M 158.96448,11.782163   L 158.96448,21.480663   L 165.40489,21.480663  z "
     id="path105" />
  <path
     style="fill:none;stroke:#000000;stroke-width:1.2501973px;stroke-linecap:round;stroke-linejoin:round;stroke-miterlimit:4;stroke-dasharray:none;stroke-opacity:1;"
     d="  M 158.96448,11.782163   L 158.96448,21.480663   L 165.40489,21.480663   L 158.96448,11.782163  z "
     id="path106" />
  <path
     style="fill:#000000;fill-rule:evenodd;fill-opacity:1;stroke:none;"
     d="  M 158.96448,11.782163   L 165.40489,11.782163   L 165.40489,21.480663  z "
     id="path107" />
  <path
     style="fill:none;stroke:#000000;stroke-width:1.2501973px;stroke-linecap:round;stroke-linejoin:round;stroke-miterlimit:4;stroke-dasharray:none;stroke-opacity:1;"
     d="  M 158.96448,11.782163   L 165.40489,11.782163   L 165.40489,21.480663   L 158.96448,11.782163  z "
     id="path108" />
  <path
     style="fill:#000000;fill-rule:evenodd;fill-opacity:1;stroke:none;"
     d="  M 158.96448,21.480663   L 165.40489,21.480663   L 165.40489,21.480663  z "
     id="path109" />
  <path
     style="fill:none;stroke:#000000;stroke-width:1.2501973px;stroke-linecap:round;stroke-linejoin:round;stroke-miterlimit:4;stroke-dasharray:none;stroke-opacity:1;"
     d="  M 158.96448,21.480663   L 165.40489,21.480663   L 165.40489,21.480663   L 158.96448,21.480663  z "
     id="path110" />
  <path
     style="fill:#000000;fill-rule:evenodd;fill-opacity:1;stroke:none;"
     d="  M 158.96448,97.477506   L 165.40489,97.477506   L 165.40489,97.477506  z "
     id="path111" />
  <path
     style="fill:none;stroke:#000000;stroke-width:1.2501973px;stroke-linecap:round;stroke-linejoin:round;stroke-miterlimit:4;stroke-dasharray:none;stroke-opacity:1;"
     d="  M 158.96448,97.477506   L 165.40489,97.477506   L 165.40489,97.477506   L 158.96448,97.477506  z "
     id="path112" />
  <path
     style="fill:#000000;fill-rule:evenodd;fill-opacity:1;stroke:none;"
     d="  M 158.96448,97.477506   L 158.96448,107.17601   L 165.40489,107.17601  z "
     id="path113" />
  <path
     style="fill:none;stroke:#000000;stroke-width:1.2501973px;stroke-linecap:round;stroke-linejoin:round;stroke-miterlimit:4;stroke-dasharray:none;stroke-opacity:1;"
     d="  M 158.96448,97.477506   L 158.96448,107.17601   L 165.40489,107.17601   L 158.96448,97.477506  z "
     id="path114" />
  <path
     style="fill:#000000;fill-rule:evenodd;fill-opacity:1;stroke:none;"
     d="  M 158.96448,97.477506   L 165.40489,97.477506   L 165.40489,107.17601  z "
     id="path115" />
  <path
     style="fill:none;stroke:#000000;stroke-width:1.2501973px;stroke-linecap:round;stroke-linejoin:round;stroke-miterlimit:4;stroke-dasharray:none;stroke-opacity:1;"
     d="  M 158.96448,97.477506   L 165.40489,97.477506   L 165.40489,107.17601   L 158.96448,97.477506  z "
     id="path116" />
  <path
     style="fill:#000000;fill-rule:evenodd;fill-opacity:1;stroke:none;"
     d="  M 158.96448,107.17601   L 165.40489,107.17601   L 165.40489,107.17601  z "
     id="path117" />
  <path
     style="fill:none;stroke:#000000;stroke-width:1.2501973px;stroke-linecap:round;stroke-linejoin:round;stroke-miterlimit:4;stroke-dasharray:none;stroke-opacity:1;"
     d="  M 158.96448,107.17601   L 165.40489,107.17601   L 165.40489,107.17601   L 158.96448,107.17601  z "
     id="path118" />
  <path
     style="fill:none;stroke:#000000;stroke-width:1.2501973px;stroke-linecap:round;stroke-linejoin:round;stroke-miterlimit:4;stroke-dasharray:none;stroke-opacity:1;"
     d="  M 454.69298,59.479084   L 454.46567,54.819258   L 453.78374,50.197316   L 452.6472,45.651144   L 451.09392,41.218627   L 449.08603,37.013418   L 446.6614,32.997632   L 443.89582,29.209155   L 440.75138,25.761642   L 437.26598,22.617206   L 433.51539,19.813733   L 429.49961,17.426993   L 425.2944,15.4191   L 420.89976,13.82794   L 416.35359,12.691397   L 411.73165,12.009471   L 407.03394,11.782163   L 402.37411,12.009471   L 397.75217,12.691397   L 393.206,13.82794   L 388.81137,15.4191   L 384.56827,17.426993   L 380.55249,19.813733   L 376.80189,22.617206   L 373.35438,25.761642   L 370.20994,29.209155   L 367.40647,32.997632   L 365.01973,37.013418   L 363.01184,41.218627   L 361.42068,45.651144   L 360.28414,50.197316   L 359.60221,54.819258   L 359.3749,59.479084   L 359.60221,64.176796   L 360.28414,68.798737   L 361.42068,73.344909   L 363.01184,77.739542   L 365.01973,81.982636   L 367.40647,85.998421   L 370.20994,89.749013   L 373.35438,93.234412   L 376.80189,96.378848   L 380.55249,99.144436   L 384.56827,101.56906   L 388.81137,103.57695   L 393.206,105.13023   L 397.75217,106.26677   L 402.37411,106.9487   L 407.03394,107.17601   L 411.73165,106.9487   L 416.35359,106.26677   L 420.89976,105.13023   L 425.2944,103.57695   L 429.49961,101.56906   L 433.51539,99.144436   L 437.26598,96.378848   L 440.75138,93.234412   L 443.89582,89.749013   L 446.6614,85.998421   L 449.08603,81.982636   L 451.09392,77.739542   L 452.6472,73.344909   L 453.78374,68.798737   L 454.46567,64.176796   L 454.69298,59.479084  z "
     id="path119" />
  <path
     style="fill:none;stroke:#000000;stroke-width:1.2501973px;stroke-linecap:round;stroke-linejoin:round;stroke-miterlimit:4;stroke-dasharray:none;stroke-opacity:1;"
     d="  M 445.03236,59.479084   L 444.76717,55.235991   L 444.04736,51.030781   L 442.87293,46.939227   L 441.24388,42.999211   L 439.19811,39.286504   L 436.7356,35.801105   L 433.89424,32.618785   L 430.71192,29.777427   L 427.2644,27.314917   L 423.51381,25.26914   L 419.5738,23.640095   L 415.48224,22.427782   L 411.31492,21.745856   L 407.03394,21.480663   L 402.79084,21.745856   L 398.58564,22.427782   L 394.49408,23.640095   L 390.59195,25.26914   L 386.84136,27.314917   L 383.39384,29.777427   L 380.21152,32.618785   L 377.37017,35.801105   L 374.90766,39.286504   L 372.82399,42.999211   L 371.19495,46.939227   L 370.02052,51.030781   L 369.3386,55.235991   L 369.0734,59.479084   L 369.3386,63.760063   L 370.02052,67.927388   L 371.19495,72.056827   L 372.82399,75.958958   L 374.90766,79.70955   L 377.37017,83.194949   L 380.21152,86.377269   L 383.39384,89.180742   L 386.84136,91.681137   L 390.59195,93.726914   L 394.49408,95.355959   L 398.58564,96.530387   L 402.79084,97.250197   L 407.03394,97.477506   L 411.31492,97.250197   L 415.48224,96.530387   L 419.5738,95.355959   L 423.51381,93.726914   L 427.2644,91.681137   L 430.71192,89.180742   L 433.89424,86.377269   L 436.7356,83.194949   L 439.19811,79.70955   L 441.24388,75.958958   L 442.87293,72.056827   L 444.04736,67.927388   L 444.76717,63.760063   L 445.03236,59.479084  z "
     id="path120" />
  <path
     style="fill:none;stroke:#000000;stroke-width:1.2501973px;stroke-linecap:round;stroke-linejoin:round;stroke-miterlimit:4;stroke-dasharray:none;stroke-opacity:1;"
     d="  M 68.874507,2.2352013   L 68.874507,57.092344  "
     id="path121" />
  <path
     style="fill:none;stroke:#000000;stroke-width:1.2501973px;stroke-linecap:round;stroke-linejoin:round;stroke-miterlimit:4;stroke-dasharray:none;stroke-opacity:1;"
     d="  M 68.874507,59.479084   L 74.254144,59.479084  "
     id="path122" />
  <path
     style="fill:none;stroke:#000000;stroke-width:1.2501973px;stroke-linecap:round;stroke-linejoin:round;stroke-miterlimit:4;stroke-dasharray:none;stroke-opacity:1;"
     d="  M 74.254144,59.479084   L 68.874507,57.092344  "
     id="path123" />
  <path
     style="fill:none;stroke:#000000;stroke-width:1.2501973px;stroke-linecap:round;stroke-linejoin:round;stroke-miterlimit:4;stroke-dasharray:none;stroke-opacity:1;"
     d="  M 63.456985,59.479084   L 68.874507,61.90371  "
     id="path124" />
  <path
     style="fill:none;stroke:#000000;stroke-width:1.2501973px;stroke-linecap:round;stroke-linejoin:round;stroke-miterlimit:4;stroke-dasharray:none;stroke-opacity:1;"
     d="  M 68.874507,59.479084   L 63.456985,59.479084  "
     id="path125" />
  <path
     style="fill:none;stroke:#000000;stroke-width:1.2501973px;stroke-linecap:round;stroke-linejoin:round;stroke-miterlimit:4;stroke-dasharray:none;stroke-opacity:1;"
     d="  M 68.874507,61.90371   L 68.874507,116.72297  "
     id="path126" />
  <path
     style="fill:none;stroke:#000000;stroke-width:1.2501973px;stroke-linecap:round;stroke-linejoin:round;stroke-miterlimit:4;stroke-dasharray:none;stroke-opacity:1;"
     d="  M 255.53275,61.90371   L 255.53275,116.72297  "
     id="path127" />
  <path
     style="fill:none;stroke:#000000;stroke-width:1.2501973px;stroke-linecap:round;stroke-linejoin:round;stroke-miterlimit:4;stroke-dasharray:none;stroke-opacity:1;"
     d="  M 255.53275,59.479084   L 250.11523,59.479084  "
     id="path128" />
  <path
     style="fill:none;stroke:#000000;stroke-width:1.2501973px;stroke-linecap:round;stroke-linejoin:round;stroke-miterlimit:4;stroke-dasharray:none;stroke-opacity:1;"
     d="  M 250.11523,59.479084   L 255.53275,61.90371  "
     id="path129" />
  <path
     style="fill:none;stroke:#000000;stroke-width:1.2501973px;stroke-linecap:round;stroke-linejoin:round;stroke-miterlimit:4;stroke-dasharray:none;stroke-opacity:1;"
     d="  M 260.95028,59.479084   L 255.53275,57.092344  "
     id="path130" />
  <path
     style="fill:none;stroke:#000000;stroke-width:1.2501973px;stroke-linecap:round;stroke-linejoin:round;stroke-miterlimit:4;stroke-dasharray:none;stroke-opacity:1;"
     d="  M 255.53275,59.479084   L 260.95028,59.479084  "
     id="path131" />
  <path
     style="fill:none;stroke:#000000;stroke-width:1.2501973px;stroke-linecap:round;stroke-linejoin:round;stroke-miterlimit:4;stroke-dasharray:none;stroke-opacity:1;"
     d="  M 255.53275,2.2352013   L 255.53275,57.092344  "
     id="path132" />
</svg>
