<?xml version="1.0" encoding="UTF-8" standalone="no"?>
<svg
   version="1.0"
   width="116.63mm"
   height="63.669998mm"
   id="svg57"
   sodipodi:docname="image141.emf"
   xmlns:inkscape="http://www.inkscape.org/namespaces/inkscape"
   xmlns:sodipodi="http://sodipodi.sourceforge.net/DTD/sodipodi-0.dtd"
   xmlns="http://www.w3.org/2000/svg"
   xmlns:svg="http://www.w3.org/2000/svg">
  <sodipodi:namedview
     id="namedview57"
     pagecolor="#ffffff"
     bordercolor="#000000"
     borderopacity="0.25"
     inkscape:showpageshadow="2"
     inkscape:pageopacity="0.0"
     inkscape:pagecheckerboard="0"
     inkscape:deskcolor="#d1d1d1"
     inkscape:document-units="mm" />
  <defs
     id="defs1">
    <pattern
       id="EMFhbasepattern"
       patternUnits="userSpaceOnUse"
       width="6"
       height="6"
       x="0"
       y="0" />
  </defs>
  <path
     style="fill:none;stroke:#000000;stroke-width:0.96052659px;stroke-linecap:round;stroke-linejoin:round;stroke-miterlimit:4;stroke-dasharray:none;stroke-opacity:1;"
     d="  M 142.728,175.36389   L 142.728,162.4668   L 148.7313,175.36389   L 148.7313,162.4668  "
     id="path1" />
  <path
     style="fill:none;stroke:#000000;stroke-width:0.96052659px;stroke-linecap:round;stroke-linejoin:round;stroke-miterlimit:4;stroke-dasharray:none;stroke-opacity:1;"
     d="  M 152.13316,170.07688   L 152.53338,169.79651   L 153.21375,168.87529   L 153.21375,175.32384  "
     id="path2" />
  <path
     style="fill:none;stroke:#000000;stroke-width:0.96052659px;stroke-linecap:round;stroke-linejoin:round;stroke-miterlimit:4;stroke-dasharray:none;stroke-opacity:1;"
     d="  M 212.44623,175.36389   L 212.44623,162.4668   L 218.48954,175.36389   L 218.48954,162.4668  "
     id="path3" />
  <path
     style="fill:none;stroke:#000000;stroke-width:0.96052659px;stroke-linecap:round;stroke-linejoin:round;stroke-miterlimit:4;stroke-dasharray:none;stroke-opacity:1;"
     d="  M 221.09097,170.39731   L 221.09097,170.07688   L 221.3311,169.47609   L 221.53121,169.15566   L 221.97145,168.87529   L 222.81191,168.87529   L 223.25215,169.15566   L 223.45226,169.47609   L 223.69239,170.07688   L 223.69239,170.71773   L 223.45226,171.31853   L 223.05204,172.23975   L 220.89086,175.32384   L 223.8925,175.32384  "
     id="path4" />
  <path
     style="fill:none;stroke:#000000;stroke-width:0.96052659px;stroke-linecap:round;stroke-linejoin:round;stroke-miterlimit:4;stroke-dasharray:none;stroke-opacity:1;"
     d="  M 372.85417,83.522146   L 391.90461,106.55268  "
     id="path5" />
  <path
     style="fill:none;stroke:#000000;stroke-width:0.96052659px;stroke-linecap:round;stroke-linejoin:round;stroke-miterlimit:4;stroke-dasharray:none;stroke-opacity:1;"
     d="  M 391.90461,106.55268   L 425.88324,106.55268  "
     id="path6" />
  <path
     style="fill:none;stroke:#000000;stroke-width:0.96052659px;stroke-linecap:round;stroke-linejoin:round;stroke-miterlimit:4;stroke-dasharray:none;stroke-opacity:1;"
     d="  M 406.39255,92.413934   L 407.27304,91.813137   L 408.55374,89.930642   L 408.55374,102.86779  "
     id="path7" />
  <path
     style="fill:none;stroke:#000000;stroke-width:0.96052659px;stroke-linecap:round;stroke-linejoin:round;stroke-miterlimit:4;stroke-dasharray:none;stroke-opacity:1;"
     d="  M 358.12609,155.81798   L 402.71053,196.63209  "
     id="path8" />
  <path
     style="fill:none;stroke:#000000;stroke-width:0.96052659px;stroke-linecap:round;stroke-linejoin:round;stroke-miterlimit:4;stroke-dasharray:none;stroke-opacity:1;"
     d="  M 402.71053,196.63209   L 436.72918,196.63209  "
     id="path9" />
  <path
     style="fill:none;stroke:#000000;stroke-width:0.96052659px;stroke-linecap:round;stroke-linejoin:round;stroke-miterlimit:4;stroke-dasharray:none;stroke-opacity:1;"
     d="  M 415.71767,183.13419   L 415.71767,182.49334   L 416.15791,181.29175   L 416.59815,180.6509   L 417.43861,180.05011   L 419.15955,180.05011   L 420.04004,180.6509   L 420.44025,181.29175   L 420.8805,182.49334   L 420.8805,183.73499   L 420.44025,184.97664   L 419.59979,186.81908   L 415.27742,192.98725   L 421.32074,192.98725  "
     id="path10" />
  <path
     style="fill:none;stroke:#000000;stroke-width:0.96052659px;stroke-linecap:round;stroke-linejoin:round;stroke-miterlimit:4;stroke-dasharray:none;stroke-opacity:1;"
     d="  M 157.57614,18.315708   L 302.73573,18.315708  "
     id="path11" />
  <path
     style="fill:none;stroke:#000000;stroke-width:0.96052659px;stroke-linecap:round;stroke-linejoin:round;stroke-miterlimit:4;stroke-dasharray:none;stroke-opacity:1;"
     d="  M 289.3684,49.116538   L 307.21818,7.9820096  "
     id="path12" />
  <path
     style="fill:none;stroke:#000000;stroke-width:0.96052659px;stroke-linecap:round;stroke-linejoin:round;stroke-miterlimit:4;stroke-dasharray:none;stroke-opacity:1;"
     d="  M 144.20882,49.116538   L 162.0586,7.9820096  "
     id="path13" />
  <path
     style="fill:#000000;fill-rule:evenodd;fill-opacity:1;stroke:none;"
     d="  M 307.41829,21.159478   L 305.53726,23.041973   L 299.89417,13.589443   z "
     id="path14" />
  <path
     style="fill:#000000;fill-rule:evenodd;fill-opacity:1;stroke:none;"
     d="  M 305.53726,23.041973   L 299.89417,13.589443   L 298.01314,15.471938   z "
     id="path15" />
  <path
     style="fill:#000000;fill-rule:evenodd;fill-opacity:1;stroke:none;"
     d="  M 162.25871,21.159478   L 160.37768,23.041973   L 154.73459,13.589443   z "
     id="path16" />
  <path
     style="fill:#000000;fill-rule:evenodd;fill-opacity:1;stroke:none;"
     d="  M 160.37768,23.041973   L 154.73459,13.589443   L 152.85356,15.471938   z "
     id="path17" />
  <path
     style="fill:none;stroke:#000000;stroke-width:0.96052659px;stroke-linecap:round;stroke-linejoin:round;stroke-miterlimit:4;stroke-dasharray:none;stroke-opacity:1;"
     d="  M 236.53943,12.748328   L 236.53943,6.2997796  "
     id="path18" />
  <path
     style="fill:none;stroke:#000000;stroke-width:0.96052659px;stroke-linecap:round;stroke-linejoin:round;stroke-miterlimit:4;stroke-dasharray:none;stroke-opacity:1;"
     d="  M 230.97638,12.948593   L 230.97638,0.011443741  "
     id="path19" />
  <path
     style="fill:#000000;fill-rule:evenodd;fill-opacity:1;stroke:none;"
     d="  M 49.196727,155.41745   L 47.835981,156.25857   L 98.623825,235.44354   z "
     id="path20" />
  <path
     style="fill:#000000;fill-rule:evenodd;fill-opacity:1;stroke:none;"
     d="  M 47.835981,156.25857   L 98.623825,235.44354   L 97.263079,236.28465   z "
     id="path21" />
  <path
     style="fill:#000000;fill-rule:evenodd;fill-opacity:1;stroke:none;"
     d="  M 2.8112973,192.98725   L 3.8518678,194.2289   L 47.996069,155.21719   z "
     id="path22" />
  <path
     style="fill:#000000;fill-rule:evenodd;fill-opacity:1;stroke:none;"
     d="  M 3.8518678,194.2289   L 47.996069,155.21719   L 48.996618,156.45883   z "
     id="path23" />
  <path
     style="fill:#000000;fill-rule:evenodd;fill-opacity:1;stroke:none;"
     d="  M 339.51589,155.41745   L 338.15514,156.25857   L 368.89199,202.96048   z "
     id="path24" />
  <path
     style="fill:#000000;fill-rule:evenodd;fill-opacity:1;stroke:none;"
     d="  M 338.15514,156.25857   L 368.89199,202.96048   L 367.53125,203.80159   z "
     id="path25" />
  <path
     style="fill:#000000;fill-rule:evenodd;fill-opacity:1;stroke:none;"
     d="  M 242.62277,235.24327   L 243.62332,236.48492   L 338.31523,155.21719   z "
     id="path26" />
  <path
     style="fill:#000000;fill-rule:evenodd;fill-opacity:1;stroke:none;"
     d="  M 243.62332,236.48492   L 338.31523,155.21719   L 339.31578,156.45883   z "
     id="path27" />
  <path
     style="fill:#000000;fill-rule:evenodd;fill-opacity:1;stroke:none;"
     d="  M 194.35631,155.41745   L 192.99556,156.25857   L 243.78341,235.44354   z "
     id="path28" />
  <path
     style="fill:#000000;fill-rule:evenodd;fill-opacity:1;stroke:none;"
     d="  M 192.99556,156.25857   L 243.78341,235.44354   L 242.42266,236.28465   z "
     id="path29" />
  <path
     style="fill:#000000;fill-rule:evenodd;fill-opacity:1;stroke:none;"
     d="  M 97.463188,235.24327   L 98.463737,236.48492   L 193.15565,155.21719   z "
     id="path30" />
  <path
     style="fill:#000000;fill-rule:evenodd;fill-opacity:1;stroke:none;"
     d="  M 98.463737,236.48492   L 193.15565,155.21719   L 194.1562,156.45883   z "
     id="path31" />
  <path
     style="fill:#000000;fill-rule:evenodd;fill-opacity:1;stroke:none;"
     d="  M 243.90347,155.81798   L 242.30259,155.81798   L 243.90347,235.84407   z "
     id="path32" />
  <path
     style="fill:#000000;fill-rule:evenodd;fill-opacity:1;stroke:none;"
     d="  M 242.30259,155.81798   L 243.90347,235.84407   L 242.30259,235.84407   z "
     id="path33" />
  <path
     style="fill:#000000;fill-rule:evenodd;fill-opacity:1;stroke:none;"
     d="  M 98.743891,155.81798   L 97.143013,155.81798   L 98.743891,235.84407   z "
     id="path34" />
  <path
     style="fill:#000000;fill-rule:evenodd;fill-opacity:1;stroke:none;"
     d="  M 97.143013,155.81798   L 98.743891,235.84407   L 97.143013,235.84407   z "
     id="path35" />
  <path
     style="fill:#000000;fill-rule:evenodd;fill-opacity:1;stroke:none;"
     d="  M 289.96873,48.595848   L 288.76807,49.677281   L 377.05647,142.56041   z "
     id="path36" />
  <path
     style="fill:#000000;fill-rule:evenodd;fill-opacity:1;stroke:none;"
     d="  M 288.76807,49.677281   L 377.05647,142.56041   L 375.89583,143.64184   z "
     id="path37" />
  <path
     style="fill:#000000;fill-rule:evenodd;fill-opacity:1;stroke:none;"
     d="  M 242.74284,155.13708   L 243.50325,156.53894   L 385.26097,75.67174   z "
     id="path38" />
  <path
     style="fill:#000000;fill-rule:evenodd;fill-opacity:1;stroke:none;"
     d="  M 243.50325,156.53894   L 385.26097,75.67174   L 386.02139,77.073598   z "
     id="path39" />
  <path
     style="fill:#000000;fill-rule:evenodd;fill-opacity:1;stroke:none;"
     d="  M 144.60904,49.837494   L 143.8086,48.435635   L 9.0947421,125.37763   z "
     id="path40" />
  <path
     style="fill:#000000;fill-rule:evenodd;fill-opacity:1;stroke:none;"
     d="  M 143.8086,48.435635   L 9.0947421,125.37763   L 8.2943033,123.97577   z "
     id="path41" />
  <path
     style="fill:#000000;fill-rule:evenodd;fill-opacity:1;stroke:none;"
     d="  M 97.383145,156.37873   L 98.543781,155.29729   L 12.816783,65.137776   z "
     id="path42" />
  <path
     style="fill:#000000;fill-rule:evenodd;fill-opacity:1;stroke:none;"
     d="  M 98.543781,155.29729   L 12.816783,65.137776   L 13.977419,64.056342   z "
     id="path43" />
  <path
     style="fill:#000000;fill-rule:evenodd;fill-opacity:1;stroke:none;"
     d="  M 97.583254,155.13708   L 98.343671,156.53894   L 288.96818,48.435635   z "
     id="path44" />
  <path
     style="fill:#000000;fill-rule:evenodd;fill-opacity:1;stroke:none;"
     d="  M 98.343671,156.53894   L 288.96818,48.435635   L 289.76862,49.837494   z "
     id="path45" />
  <path
     style="fill:#000000;fill-rule:evenodd;fill-opacity:1;stroke:none;"
     d="  M 144.80914,48.595848   L 143.60849,49.677281   L 243.70336,155.29729   z "
     id="path46" />
  <path
     style="fill:#000000;fill-rule:evenodd;fill-opacity:1;stroke:none;"
     d="  M 143.60849,49.677281   L 243.70336,155.29729   L 242.54273,156.37873   z "
     id="path47" />
  <path
     style="fill:#000000;fill-rule:evenodd;fill-opacity:1;stroke:none;"
     d="  M 242.38264,155.49756   L 243.86345,156.13841   L 288.648,48.836166   z "
     id="path48" />
  <path
     style="fill:#000000;fill-rule:evenodd;fill-opacity:1;stroke:none;"
     d="  M 243.86345,156.13841   L 288.648,48.836166   L 290.08879,49.436963   z "
     id="path49" />
  <path
     style="fill:#000000;fill-rule:evenodd;fill-opacity:1;stroke:none;"
     d="  M 97.223057,155.49756   L 98.703869,156.13841   L 143.48842,48.836166   z "
     id="path50" />
  <path
     style="fill:#000000;fill-rule:evenodd;fill-opacity:1;stroke:none;"
     d="  M 98.703869,156.13841   L 143.48842,48.836166   L 144.92921,49.436963   z "
     id="path51" />
  <path
     style="fill:#000000;fill-rule:evenodd;fill-opacity:1;stroke:none;"
     d="  M 0.0097614491,235.043   L 0.0097614491,236.64513   L 345.47916,235.043   z "
     id="path52" />
  <path
     style="fill:#000000;fill-rule:evenodd;fill-opacity:1;stroke:none;"
     d="  M 0.0097614491,236.64513   L 345.47916,235.043   L 345.47916,236.64513   z "
     id="path53" />
  <path
     style="fill:#000000;fill-rule:evenodd;fill-opacity:1;stroke:none;"
     d="  M 6.2531843,155.01692   L 6.2531843,156.61904   L 374.7352,155.01692   z "
     id="path54" />
  <path
     style="fill:#000000;fill-rule:evenodd;fill-opacity:1;stroke:none;"
     d="  M 6.2531843,156.61904   L 374.7352,155.01692   L 374.7352,156.61904   z "
     id="path55" />
  <path
     style="fill:#000000;fill-rule:evenodd;fill-opacity:1;stroke:none;"
     d="  M 14.577748,48.315476   L 14.577748,49.9176   L 389.38323,48.315476   z "
     id="path56" />
  <path
     style="fill:#000000;fill-rule:evenodd;fill-opacity:1;stroke:none;"
     d="  M 14.577748,49.9176   L 389.38323,48.315476   L 389.38323,49.9176   z "
     id="path57" />
</svg>
