<?xml version="1.0" encoding="UTF-8" standalone="no"?>
<svg
   version="1.0"
   width="84.239998mm"
   height="62.200001mm"
   id="svg43"
   sodipodi:docname="image235.emf"
   xmlns:inkscape="http://www.inkscape.org/namespaces/inkscape"
   xmlns:sodipodi="http://sodipodi.sourceforge.net/DTD/sodipodi-0.dtd"
   xmlns="http://www.w3.org/2000/svg"
   xmlns:svg="http://www.w3.org/2000/svg">
  <sodipodi:namedview
     id="namedview43"
     pagecolor="#ffffff"
     bordercolor="#000000"
     borderopacity="0.25"
     inkscape:showpageshadow="2"
     inkscape:pageopacity="0.0"
     inkscape:pagecheckerboard="0"
     inkscape:deskcolor="#d1d1d1"
     inkscape:document-units="mm" />
  <defs
     id="defs1">
    <pattern
       id="EMFhbasepattern"
       patternUnits="userSpaceOnUse"
       width="6"
       height="6"
       x="0"
       y="0" />
  </defs>
  <path
     style="fill:none;stroke:#000000;stroke-width:0.04993799px;stroke-linecap:round;stroke-linejoin:round;stroke-miterlimit:4;stroke-dasharray:none;stroke-opacity:1;"
     d="  M 71.953011,67.241968   L 71.953011,14.327073  "
     id="path1" />
  <path
     style="fill:none;stroke:#000000;stroke-width:0.04993799px;stroke-linecap:round;stroke-linejoin:round;stroke-miterlimit:4;stroke-dasharray:none;stroke-opacity:1;"
     d="  M 244.58864,68.995776   L 244.58864,14.327073  "
     id="path2" />
  <path
     style="fill:none;stroke:#000000;stroke-width:0.04993799px;stroke-linecap:round;stroke-linejoin:round;stroke-miterlimit:4;stroke-dasharray:none;stroke-opacity:1;"
     d="  M 66.26008,20.039476   L 250.28157,20.039476  "
     id="path3" />
  <path
     style="fill:#000000;fill-rule:evenodd;fill-opacity:1;stroke:none;"
     d="  M 76.996748,16.982839   L 74.94929,14.978487   L 68.956732,25.100465   z "
     id="path4" />
  <path
     style="fill:#000000;fill-rule:evenodd;fill-opacity:1;stroke:none;"
     d="  M 74.94929,14.978487   L 68.956732,25.100465   L 66.909274,23.046004   z "
     id="path5" />
  <path
     style="fill:none;stroke:#000000;stroke-width:0.04993799px;stroke-linecap:round;stroke-linejoin:round;stroke-miterlimit:4;stroke-dasharray:none;stroke-opacity:1;"
     d="  M 76.996748,16.982839   L 74.94929,14.978487   L 66.909274,23.046004   L 68.956732,25.100465   L 76.996748,16.982839   z "
     id="path6" />
  <path
     style="fill:#000000;fill-rule:evenodd;fill-opacity:1;stroke:none;"
     d="  M 239.5449,23.046004   L 241.59236,25.100465   L 247.63486,14.978487   z "
     id="path7" />
  <path
     style="fill:#000000;fill-rule:evenodd;fill-opacity:1;stroke:none;"
     d="  M 241.59236,25.100465   L 247.63486,14.978487   L 249.63238,16.982839   z "
     id="path8" />
  <path
     style="fill:none;stroke:#000000;stroke-width:0.04993799px;stroke-linecap:round;stroke-linejoin:round;stroke-miterlimit:4;stroke-dasharray:none;stroke-opacity:1;"
     d="  M 239.5449,23.046004   L 241.59236,25.100465   L 249.63238,16.982839   L 247.63486,14.978487   L 239.5449,23.046004   z "
     id="path9" />
  <path
     style="fill:none;stroke:#000000;stroke-width:0.04993799px;stroke-linecap:round;stroke-linejoin:round;stroke-miterlimit:4;stroke-dasharray:none;stroke-opacity:1;"
     d="  M 155.49927,14.327073   L 155.49927,0.49704336  "
     id="path10" />
  <path
     style="fill:none;stroke:#000000;stroke-width:0.04993799px;stroke-linecap:round;stroke-linejoin:round;stroke-miterlimit:4;stroke-dasharray:none;stroke-opacity:1;"
     d="  M 155.49927,7.0612964   L 156.44809,5.7584676   L 157.34697,5.1070531   L 158.74524,5.1070531   L 159.64412,5.7584676   L 160.59294,7.0612964   L 161.04238,9.0656485   L 161.04238,10.368477   L 160.59294,12.322721   L 159.64412,13.675658   L 158.74524,14.327073   L 157.34697,14.327073   L 156.44809,13.675658   L 155.49927,12.322721  "
     id="path11" />
  <path
     style="fill:none;stroke:#000000;stroke-width:0.04993799px;stroke-linecap:round;stroke-linejoin:round;stroke-miterlimit:4;stroke-dasharray:none;stroke-opacity:1;"
     d="  M 71.953011,81.522976   L 72.002949,81.522976  "
     id="path12" />
  <path
     style="fill:none;stroke:#000000;stroke-width:0.04993799px;stroke-linecap:round;stroke-linejoin:round;stroke-miterlimit:4;stroke-dasharray:none;stroke-opacity:1;"
     d="  M 244.58864,83.276784   L 244.63858,83.276784  "
     id="path13" />
  <path
     style="fill:none;stroke:#000000;stroke-width:0.04993799px;stroke-linecap:round;stroke-linejoin:round;stroke-miterlimit:4;stroke-dasharray:none;stroke-opacity:1;"
     d="  M 244.58864,20.039476   L 244.63858,20.039476  "
     id="path14" />
  <path
     style="fill:none;stroke:#000000;stroke-width:0.04993799px;stroke-linecap:round;stroke-linejoin:round;stroke-miterlimit:4;stroke-dasharray:none;stroke-opacity:1;"
     d="  M 71.953011,81.522976   L 244.58864,81.522976  "
     id="path15" />
  <path
     style="fill:#000000;fill-rule:evenodd;fill-opacity:1;stroke:none;"
     d="  M 86.484966,149.21997   L 86.484966,150.92367   L 230.50613,149.21997   z "
     id="path16" />
  <path
     style="fill:#000000;fill-rule:evenodd;fill-opacity:1;stroke:none;"
     d="  M 86.484966,150.92367   L 230.50613,149.21997   L 230.50613,150.92367   z "
     id="path17" />
  <path
     style="fill:none;stroke:#000000;stroke-width:0.04993799px;stroke-linecap:round;stroke-linejoin:round;stroke-miterlimit:4;stroke-dasharray:none;stroke-opacity:1;"
     d="  M 86.484966,149.21997   L 86.484966,150.92367   L 230.50613,150.92367   L 230.50613,149.21997   L 86.484966,149.21997   z "
     id="path18" />
  <path
     style="fill:#000000;fill-rule:evenodd;fill-opacity:1;stroke:none;"
     d="  M 86.484966,120.65795   L 86.484966,122.36165   L 230.50613,120.65795   z "
     id="path19" />
  <path
     style="fill:#000000;fill-rule:evenodd;fill-opacity:1;stroke:none;"
     d="  M 86.484966,122.36165   L 230.50613,120.65795   L 230.50613,122.36165   z "
     id="path20" />
  <path
     style="fill:none;stroke:#000000;stroke-width:0.04993799px;stroke-linecap:round;stroke-linejoin:round;stroke-miterlimit:4;stroke-dasharray:none;stroke-opacity:1;"
     d="  M 86.484966,120.65795   L 86.484966,122.36165   L 230.50613,122.36165   L 230.50613,120.65795   L 86.484966,120.65795   z "
     id="path21" />
  <path
     style="fill:#000000;fill-rule:evenodd;fill-opacity:1;stroke:none;"
     d="  M 86.484966,92.095933   L 86.484966,93.799633   L 230.50613,92.095933   z "
     id="path22" />
  <path
     style="fill:#000000;fill-rule:evenodd;fill-opacity:1;stroke:none;"
     d="  M 86.484966,93.799633   L 230.50613,92.095933   L 230.50613,93.799633   z "
     id="path23" />
  <path
     style="fill:none;stroke:#000000;stroke-width:0.04993799px;stroke-linecap:round;stroke-linejoin:round;stroke-miterlimit:4;stroke-dasharray:none;stroke-opacity:1;"
     d="  M 86.484966,92.095933   L 86.484966,93.799633   L 230.50613,93.799633   L 230.50613,92.095933   L 86.484966,92.095933   z "
     id="path24" />
  <path
     style="fill:none;stroke:#000000;stroke-width:0.04993799px;stroke-linecap:round;stroke-linejoin:round;stroke-miterlimit:4;stroke-dasharray:none;stroke-opacity:1;"
     d="  M 71.953011,232.95178   L 244.58864,232.95178  "
     id="path25" />
  <path
     style="fill:#000000;fill-rule:evenodd;fill-opacity:1;stroke:none;"
     d="  M 86.484966,192.06299   L 86.484966,193.76669   L 230.50613,192.06299   z "
     id="path26" />
  <path
     style="fill:#000000;fill-rule:evenodd;fill-opacity:1;stroke:none;"
     d="  M 86.484966,193.76669   L 230.50613,192.06299   L 230.50613,193.76669   z "
     id="path27" />
  <path
     style="fill:none;stroke:#000000;stroke-width:0.04993799px;stroke-linecap:round;stroke-linejoin:round;stroke-miterlimit:4;stroke-dasharray:none;stroke-opacity:1;"
     d="  M 86.484966,192.06299   L 86.484966,193.76669   L 230.50613,193.76669   L 230.50613,192.06299   L 86.484966,192.06299   z "
     id="path28" />
  <path
     style="fill:#000000;fill-rule:evenodd;fill-opacity:1;stroke:none;"
     d="  M 86.484966,220.62501   L 86.484966,222.32871   L 230.50613,220.62501   z "
     id="path29" />
  <path
     style="fill:#000000;fill-rule:evenodd;fill-opacity:1;stroke:none;"
     d="  M 86.484966,222.32871   L 230.50613,220.62501   L 230.50613,222.32871   z "
     id="path30" />
  <path
     style="fill:none;stroke:#000000;stroke-width:0.04993799px;stroke-linecap:round;stroke-linejoin:round;stroke-miterlimit:4;stroke-dasharray:none;stroke-opacity:1;"
     d="  M 86.484966,220.62501   L 86.484966,222.32871   L 230.50613,222.32871   L 230.50613,220.62501   L 86.484966,220.62501   z "
     id="path31" />
  <path
     style="fill:none;stroke:#000000;stroke-width:0.04993799px;stroke-linecap:round;stroke-linejoin:round;stroke-miterlimit:4;stroke-dasharray:none;stroke-opacity:1;"
     d="  M 71.953011,81.522976   L 71.953011,167.20903   L 148.35813,167.20903   L 152.35317,154.68183   L 159.14474,179.78634   L 163.13978,167.20903   L 244.58864,167.20903   L 244.58864,81.522976  "
     id="path32" />
  <path
     style="fill:none;stroke:#000000;stroke-width:0.04993799px;stroke-linecap:round;stroke-linejoin:round;stroke-miterlimit:4;stroke-dasharray:none;stroke-opacity:1;"
     d="  M 71.953011,232.95178   L 71.953011,175.77763   L 148.35813,175.77763   L 152.35317,163.20032   L 159.14474,188.35494   L 163.13978,175.77763   L 244.58864,175.77763   L 244.58864,232.95178  "
     id="path33" />
  <path
     style="fill:#000000;fill-rule:evenodd;fill-opacity:1;stroke:none;"
     d="  M 238.14664,127.67318   L 230.25644,136.14157   L 235.00055,125.56861   z "
     id="path34" />
  <path
     style="fill:none;stroke:#000000;stroke-width:0.04993799px;stroke-linecap:round;stroke-linejoin:round;stroke-miterlimit:4;stroke-dasharray:none;stroke-opacity:1;"
     d="  M 238.14664,127.67318   L 230.25644,136.14157   L 235.00055,125.56861   L 238.14664,127.67318   z "
     id="path35" />
  <path
     style="fill:none;stroke:#000000;stroke-width:0.04993799px;stroke-linecap:round;stroke-linejoin:round;stroke-miterlimit:4;stroke-dasharray:none;stroke-opacity:1;"
     d="  M 236.59856,126.6209   L 259.96954,91.344301  "
     id="path36" />
  <path
     style="fill:none;stroke:#000000;stroke-width:0.04993799px;stroke-linecap:round;stroke-linejoin:round;stroke-miterlimit:4;stroke-dasharray:none;stroke-opacity:1;"
     d="  M 259.96954,91.344301   L 315.35077,91.344301  "
     id="path37" />
  <path
     style="fill:none;stroke:#000000;stroke-width:0.04993799px;stroke-linecap:round;stroke-linejoin:round;stroke-miterlimit:4;stroke-dasharray:none;stroke-opacity:1;"
     d="  M 284.98847,78.165686   L 284.98847,77.514272   L 285.48785,76.211443   L 285.9373,75.560029   L 286.83618,74.858505   L 288.68389,74.858505   L 289.58277,75.560029   L 290.08215,76.211443   L 290.53159,77.514272   L 290.53159,78.817101   L 290.08215,80.170038   L 289.13333,82.124282   L 284.53903,88.738644   L 290.98103,88.738644  "
     id="path38" />
  <path
     style="fill:#000000;fill-rule:evenodd;fill-opacity:1;stroke:none;"
     d="  M 98.270331,84.078525   L 105.31159,93.298545   L 95.673556,86.884618   z "
     id="path39" />
  <path
     style="fill:none;stroke:#000000;stroke-width:0.04993799px;stroke-linecap:round;stroke-linejoin:round;stroke-miterlimit:4;stroke-dasharray:none;stroke-opacity:1;"
     d="  M 98.270331,84.078525   L 105.31159,93.298545   L 95.673556,86.884618   L 98.270331,84.078525   z "
     id="path40" />
  <path
     style="fill:none;stroke:#000000;stroke-width:0.04993799px;stroke-linecap:round;stroke-linejoin:round;stroke-miterlimit:4;stroke-dasharray:none;stroke-opacity:1;"
     d="  M 96.971944,85.481571   L 57.620808,48.501276  "
     id="path41" />
  <path
     style="fill:none;stroke:#000000;stroke-width:0.04993799px;stroke-linecap:round;stroke-linejoin:round;stroke-miterlimit:4;stroke-dasharray:none;stroke-opacity:1;"
     d="  M 57.620808,48.501276   L 0.49174817,48.501276  "
     id="path42" />
  <path
     style="fill:none;stroke:#000000;stroke-width:0.04993799px;stroke-linecap:round;stroke-linejoin:round;stroke-miterlimit:4;stroke-dasharray:none;stroke-opacity:1;"
     d="  M 28.457022,34.671246   L 29.355906,34.019832   L 30.75417,32.01548   L 30.75417,45.895618  "
     id="path43" />
</svg>
