<?xml version="1.0" encoding="UTF-8" standalone="no"?>
<svg
   version="1.0"
   width="81.099998mm"
   height="49.939999mm"
   id="svg165"
   sodipodi:docname="image286.emf"
   xmlns:inkscape="http://www.inkscape.org/namespaces/inkscape"
   xmlns:sodipodi="http://sodipodi.sourceforge.net/DTD/sodipodi-0.dtd"
   xmlns="http://www.w3.org/2000/svg"
   xmlns:svg="http://www.w3.org/2000/svg">
  <sodipodi:namedview
     id="namedview165"
     pagecolor="#ffffff"
     bordercolor="#000000"
     borderopacity="0.25"
     inkscape:showpageshadow="2"
     inkscape:pageopacity="0.0"
     inkscape:pagecheckerboard="0"
     inkscape:deskcolor="#d1d1d1"
     inkscape:document-units="mm" />
  <defs
     id="defs1">
    <pattern
       id="EMFhbasepattern"
       patternUnits="userSpaceOnUse"
       width="6"
       height="6"
       x="0"
       y="0" />
  </defs>
  <path
     style="fill:#000000;fill-rule:evenodd;fill-opacity:1;stroke:none;"
     d="  M 219.16583,109.83887   L 219.16583,108.43438   L 25.089224,109.83887   z "
     id="path1" />
  <path
     style="fill:#000000;fill-rule:evenodd;fill-opacity:1;stroke:none;"
     d="  M 219.16583,108.43438   L 25.089224,109.83887   L 25.089224,108.43438   z "
     id="path2" />
  <path
     style="fill:#000000;fill-rule:evenodd;fill-opacity:1;stroke:none;"
     d="  M 163.19528,105.14386   L 163.19528,103.69925   L 62.136212,105.14386   z "
     id="path3" />
  <path
     style="fill:#000000;fill-rule:evenodd;fill-opacity:1;stroke:none;"
     d="  M 163.19528,103.69925   L 62.136212,105.14386   L 62.136212,103.69925   z "
     id="path4" />
  <path
     style="fill:none;stroke:#000000;stroke-width:0.96018112px;stroke-linecap:round;stroke-linejoin:round;stroke-miterlimit:4;stroke-dasharray:none;stroke-opacity:1;"
     d="  M 300.22112,128.05712   L 264.33435,128.05712  "
     id="path5" />
  <path
     style="fill:none;stroke:#000000;stroke-width:0.96018112px;stroke-linecap:round;stroke-linejoin:round;stroke-miterlimit:4;stroke-dasharray:none;stroke-opacity:1;"
     d="  M 252.57214,128.05712   L 240.80992,128.05712  "
     id="path6" />
  <path
     style="fill:none;stroke:#000000;stroke-width:0.96018112px;stroke-linecap:round;stroke-linejoin:round;stroke-miterlimit:4;stroke-dasharray:none;stroke-opacity:1;"
     d="  M 229.0477,128.05712   L 170.1966,128.05712  "
     id="path7" />
  <path
     style="fill:none;stroke:#000000;stroke-width:0.96018112px;stroke-linecap:round;stroke-linejoin:round;stroke-miterlimit:4;stroke-dasharray:none;stroke-opacity:1;"
     d="  M 158.43438,128.05712   L 146.67216,128.05712  "
     id="path8" />
  <path
     style="fill:none;stroke:#000000;stroke-width:0.96018112px;stroke-linecap:round;stroke-linejoin:round;stroke-miterlimit:4;stroke-dasharray:none;stroke-opacity:1;"
     d="  M 134.90994,128.05712   L 76.098846,128.05712  "
     id="path9" />
  <path
     style="fill:none;stroke:#000000;stroke-width:0.96018112px;stroke-linecap:round;stroke-linejoin:round;stroke-miterlimit:4;stroke-dasharray:none;stroke-opacity:1;"
     d="  M 64.336627,128.05712   L 52.574409,128.05712  "
     id="path10" />
  <path
     style="fill:none;stroke:#000000;stroke-width:0.96018112px;stroke-linecap:round;stroke-linejoin:round;stroke-miterlimit:4;stroke-dasharray:none;stroke-opacity:1;"
     d="  M 40.81219,128.05712   L 4.9254203,128.05712  "
     id="path11" />
  <path
     style="fill:#000000;fill-rule:evenodd;fill-opacity:1;stroke:none;"
     d="  M 293.49986,147.63972   L 293.49986,146.23523   L 255.85275,147.63972   z "
     id="path12" />
  <path
     style="fill:#000000;fill-rule:evenodd;fill-opacity:1;stroke:none;"
     d="  M 293.49986,146.23523   L 255.85275,147.63972   L 255.85275,146.23523   z "
     id="path13" />
  <path
     style="fill:#000000;fill-rule:evenodd;fill-opacity:1;stroke:none;"
     d="  M 288.77897,142.90458   L 288.77897,141.50009   L 260.53364,142.90458   z "
     id="path14" />
  <path
     style="fill:#000000;fill-rule:evenodd;fill-opacity:1;stroke:none;"
     d="  M 288.77897,141.50009   L 260.53364,142.90458   L 260.53364,141.50009   z "
     id="path15" />
  <path
     style="fill:#000000;fill-rule:evenodd;fill-opacity:1;stroke:none;"
     d="  M 293.49986,109.83887   L 293.49986,108.43438   L 255.85275,109.83887   z "
     id="path16" />
  <path
     style="fill:#000000;fill-rule:evenodd;fill-opacity:1;stroke:none;"
     d="  M 293.49986,108.43438   L 255.85275,109.83887   L 255.85275,108.43438   z "
     id="path17" />
  <path
     style="fill:#000000;fill-rule:evenodd;fill-opacity:1;stroke:none;"
     d="  M 288.77897,105.14386   L 288.77897,103.69925   L 260.53364,105.14386   z "
     id="path18" />
  <path
     style="fill:#000000;fill-rule:evenodd;fill-opacity:1;stroke:none;"
     d="  M 288.77897,103.69925   L 260.53364,105.14386   L 260.53364,103.69925   z "
     id="path19" />
  <path
     style="fill:#000000;fill-rule:evenodd;fill-opacity:1;stroke:none;"
     d="  M 288.77897,114.57401   L 288.77897,113.16952   L 260.53364,114.57401   z "
     id="path20" />
  <path
     style="fill:#000000;fill-rule:evenodd;fill-opacity:1;stroke:none;"
     d="  M 288.77897,113.16952   L 260.53364,114.57401   L 260.53364,113.16952   z "
     id="path21" />
  <path
     style="fill:none;stroke:#000000;stroke-width:0.96018112px;stroke-linecap:round;stroke-linejoin:round;stroke-miterlimit:4;stroke-dasharray:none;stroke-opacity:1;"
     d="  M 219.16583,105.70566   L 219.16583,121.87736   L 229.52779,125.20801   L 208.80388,130.8661   L 219.16583,134.19674   L 219.16583,150.89011  "
     id="path22" />
  <path
     style="fill:#000000;fill-rule:evenodd;fill-opacity:1;stroke:none;"
     d="  M 219.16583,147.63972   L 219.16583,146.23523   L 25.089224,147.63972   z "
     id="path23" />
  <path
     style="fill:#000000;fill-rule:evenodd;fill-opacity:1;stroke:none;"
     d="  M 219.16583,146.23523   L 25.089224,147.63972   L 25.089224,146.23523   z "
     id="path24" />
  <path
     style="fill:none;stroke:#000000;stroke-width:0.96018112px;stroke-linecap:round;stroke-linejoin:round;stroke-miterlimit:4;stroke-dasharray:none;stroke-opacity:1;"
     d="  M 25.089224,96.155127   L 25.089224,122.11813   L 35.411171,125.44878   L 14.727269,131.10687   L 25.089224,134.39738   L 25.089224,158.03295  "
     id="path25" />
  <path
     style="fill:none;stroke:#000000;stroke-width:0.96018112px;stroke-linecap:round;stroke-linejoin:round;stroke-miterlimit:4;stroke-dasharray:none;stroke-opacity:1;"
     d="  M 112.66574,128.05712   L 137.59045,100.85014  "
     id="path26" />
  <path
     style="fill:none;stroke:#000000;stroke-width:0.96018112px;stroke-linecap:round;stroke-linejoin:round;stroke-miterlimit:4;stroke-dasharray:none;stroke-opacity:1;"
     d="  M 145.55195,92.182427   L 153.51345,83.474589  "
     id="path27" />
  <path
     style="fill:none;stroke:#000000;stroke-width:0.96018112px;stroke-linecap:round;stroke-linejoin:round;stroke-miterlimit:4;stroke-dasharray:none;stroke-opacity:1;"
     d="  M 161.51496,74.806879   L 186.43966,47.5999  "
     id="path28" />
  <path
     style="fill:#000000;fill-rule:evenodd;fill-opacity:1;stroke:none;"
     d="  M 117.82672,103.94002   L 118.86691,104.90309   L 177.23792,39.132832   z "
     id="path29" />
  <path
     style="fill:#000000;fill-rule:evenodd;fill-opacity:1;stroke:none;"
     d="  M 118.86691,104.90309   L 177.23792,39.132832   L 178.27812,40.095911   z "
     id="path30" />
  <path
     style="fill:#000000;fill-rule:evenodd;fill-opacity:1;stroke:none;"
     d="  M 149.79275,103.94002   L 150.83294,104.90309   L 194.56119,55.144018   z "
     id="path31" />
  <path
     style="fill:#000000;fill-rule:evenodd;fill-opacity:1;stroke:none;"
     d="  M 150.83294,104.90309   L 194.56119,55.144018   L 195.60139,56.107097   z "
     id="path32" />
  <path
     style="fill:none;stroke:#000000;stroke-width:0.96018112px;stroke-linecap:round;stroke-linejoin:round;stroke-miterlimit:4;stroke-dasharray:none;stroke-opacity:1;"
     d="  M 204.76312,64.574166   L 190.92051,51.773242   L 181.47872,57.190561   L 191.36059,38.049368   L 181.91881,43.466687   L 168.0762,30.665763  "
     id="path33" />
  <path
     style="fill:none;stroke:#000000;stroke-width:0.96018112px;stroke-linecap:round;stroke-linejoin:round;stroke-miterlimit:4;stroke-dasharray:none;stroke-opacity:1;"
     d="  M 112.66574,128.05712   L 74.89862,86.885493  "
     id="path34" />
  <path
     style="fill:none;stroke:#000000;stroke-width:0.96018112px;stroke-linecap:round;stroke-linejoin:round;stroke-miterlimit:4;stroke-dasharray:none;stroke-opacity:1;"
     d="  M 66.937118,78.177655   L 58.975616,69.469817  "
     id="path35" />
  <path
     style="fill:none;stroke:#000000;stroke-width:0.96018112px;stroke-linecap:round;stroke-linejoin:round;stroke-miterlimit:4;stroke-dasharray:none;stroke-opacity:1;"
     d="  M 51.014114,60.802107   L 13.24699,19.630484  "
     id="path36" />
  <path
     style="fill:#000000;fill-rule:evenodd;fill-opacity:1;stroke:none;"
     d="  M 106.46457,104.90309   L 107.50477,103.94002   L 47.053367,40.095911   z "
     id="path37" />
  <path
     style="fill:#000000;fill-rule:evenodd;fill-opacity:1;stroke:none;"
     d="  M 107.50477,103.94002   L 47.053367,40.095911   L 48.093563,39.132832   z "
     id="path38" />
  <path
     style="fill:#000000;fill-rule:evenodd;fill-opacity:1;stroke:none;"
     d="  M 74.498544,104.90309   L 75.538741,103.94002   L 29.730099,56.107097   z "
     id="path39" />
  <path
     style="fill:#000000;fill-rule:evenodd;fill-opacity:1;stroke:none;"
     d="  M 75.538741,103.94002   L 29.730099,56.107097   L 30.770296,55.144018   z "
     id="path40" />
  <path
     style="fill:none;stroke:#000000;stroke-width:0.96018112px;stroke-linecap:round;stroke-linejoin:round;stroke-miterlimit:4;stroke-dasharray:none;stroke-opacity:1;"
     d="  M 20.568371,64.574166   L 34.410982,51.773242   L 43.852763,57.190561   L 33.970899,38.049368   L 43.41268,43.466687   L 57.255292,30.665763  "
     id="path41" />
  <path
     style="fill:#000000;fill-rule:evenodd;fill-opacity:1;stroke:none;"
     d="  M 61.456084,109.15669   L 62.856348,109.15669   L 61.456084,104.42155   z "
     id="path42" />
  <path
     style="fill:#000000;fill-rule:evenodd;fill-opacity:1;stroke:none;"
     d="  M 62.856348,109.15669   L 61.456084,104.42155   L 62.856348,104.42155   z "
     id="path43" />
  <path
     style="fill:#000000;fill-rule:evenodd;fill-opacity:1;stroke:none;"
     d="  M 162.47514,109.15669   L 163.8754,109.15669   L 162.47514,104.42155   z "
     id="path44" />
  <path
     style="fill:#000000;fill-rule:evenodd;fill-opacity:1;stroke:none;"
     d="  M 163.8754,109.15669   L 162.47514,104.42155   L 163.8754,104.42155   z "
     id="path45" />
  <path
     style="fill:none;stroke:#000000;stroke-width:0.96018112px;stroke-linecap:round;stroke-linejoin:round;stroke-miterlimit:4;stroke-dasharray:none;stroke-opacity:1;"
     d="  M 62.136212,120.95441   L 62.136212,186.7648  "
     id="path46" />
  <path
     style="fill:none;stroke:#000000;stroke-width:0.96018112px;stroke-linecap:round;stroke-linejoin:round;stroke-miterlimit:4;stroke-dasharray:none;stroke-opacity:1;"
     d="  M 163.19528,120.95441   L 163.19528,186.7648  "
     id="path47" />
  <path
     style="fill:none;stroke:#000000;stroke-width:0.96018112px;stroke-linecap:round;stroke-linejoin:round;stroke-miterlimit:4;stroke-dasharray:none;stroke-opacity:1;"
     d="  M 57.455329,182.02966   L 167.87616,182.02966  "
     id="path48" />
  <path
     style="fill:#000000;fill-rule:evenodd;fill-opacity:1;stroke:none;"
     d="  M 66.296997,179.54171   L 64.656688,177.85632   L 59.655744,186.203   z "
     id="path49" />
  <path
     style="fill:#000000;fill-rule:evenodd;fill-opacity:1;stroke:none;"
     d="  M 64.656688,177.85632   L 59.655744,186.203   L 57.975427,184.51762   z "
     id="path50" />
  <path
     style="fill:#000000;fill-rule:evenodd;fill-opacity:1;stroke:none;"
     d="  M 159.03449,184.51762   L 160.6748,186.203   L 165.67574,177.85632   z "
     id="path51" />
  <path
     style="fill:#000000;fill-rule:evenodd;fill-opacity:1;stroke:none;"
     d="  M 160.6748,186.203   L 165.67574,177.85632   L 167.35606,179.54171   z "
     id="path52" />
  <path
     style="fill:none;stroke:#000000;stroke-width:0.96018112px;stroke-linecap:round;stroke-linejoin:round;stroke-miterlimit:4;stroke-dasharray:none;stroke-opacity:1;"
     d="  M 56.175088,83.875872   L 59.215661,87.206519  "
     id="path53" />
  <path
     style="fill:none;stroke:#000000;stroke-width:0.96018112px;stroke-linecap:round;stroke-linejoin:round;stroke-miterlimit:4;stroke-dasharray:none;stroke-opacity:1;"
     d="  M 73.458348,67.864685   L 76.498922,71.195333  "
     id="path54" />
  <path
     style="fill:none;stroke:#000000;stroke-width:0.96018112px;stroke-linecap:round;stroke-linejoin:round;stroke-miterlimit:4;stroke-dasharray:none;stroke-opacity:1;"
     d="  M 52.574409,86.925621   L 76.778975,64.493909  "
     id="path55" />
  <path
     style="fill:#000000;fill-rule:evenodd;fill-opacity:1;stroke:none;"
     d="  M 57.375314,79.020349   L 55.054877,78.940092   L 57.015246,88.490625   z "
     id="path56" />
  <path
     style="fill:#000000;fill-rule:evenodd;fill-opacity:1;stroke:none;"
     d="  M 55.054877,78.940092   L 57.015246,88.490625   L 54.654801,88.37024   z "
     id="path57" />
  <path
     style="fill:#000000;fill-rule:evenodd;fill-opacity:1;stroke:none;"
     d="  M 71.978069,72.399182   L 74.298507,72.479438   L 72.338137,62.928906   z "
     id="path58" />
  <path
     style="fill:#000000;fill-rule:evenodd;fill-opacity:1;stroke:none;"
     d="  M 74.298507,72.479438   L 72.338137,62.928906   L 74.698582,63.049291   z "
     id="path59" />
  <path
     style="fill:none;stroke:#000000;stroke-width:0.96018112px;stroke-linecap:round;stroke-linejoin:round;stroke-miterlimit:4;stroke-dasharray:none;stroke-opacity:1;"
     d="  M 169.1564,83.875872   L 166.11583,87.206519  "
     id="path60" />
  <path
     style="fill:none;stroke:#000000;stroke-width:0.96018112px;stroke-linecap:round;stroke-linejoin:round;stroke-miterlimit:4;stroke-dasharray:none;stroke-opacity:1;"
     d="  M 151.87314,67.864685   L 148.79256,71.195333  "
     id="path61" />
  <path
     style="fill:none;stroke:#000000;stroke-width:0.96018112px;stroke-linecap:round;stroke-linejoin:round;stroke-miterlimit:4;stroke-dasharray:none;stroke-opacity:1;"
     d="  M 172.75708,86.925621   L 148.55251,64.493909  "
     id="path62" />
  <path
     style="fill:#000000;fill-rule:evenodd;fill-opacity:1;stroke:none;"
     d="  M 164.55553,82.712151   L 164.63555,85.07972   L 173.95731,82.350997   z "
     id="path63" />
  <path
     style="fill:#000000;fill-rule:evenodd;fill-opacity:1;stroke:none;"
     d="  M 164.63555,85.07972   L 173.95731,82.350997   L 174.07733,84.678437   z "
     id="path64" />
  <path
     style="fill:#000000;fill-rule:evenodd;fill-opacity:1;stroke:none;"
     d="  M 156.75406,68.707379   L 156.63404,66.33981   L 147.35229,69.068534   z "
     id="path65" />
  <path
     style="fill:#000000;fill-rule:evenodd;fill-opacity:1;stroke:none;"
     d="  M 156.63404,66.33981   L 147.35229,69.068534   L 147.23226,66.741093   z "
     id="path66" />
  <path
     style="fill:#000000;fill-rule:evenodd;fill-opacity:1;stroke:none;"
     d="  M 20.848424,25.609599   L 26.089413,33.635256   L 18.527986,27.736398   z "
     id="path67" />
  <path
     style="fill:none;stroke:#000000;stroke-width:0.96018112px;stroke-linecap:round;stroke-linejoin:round;stroke-miterlimit:4;stroke-dasharray:none;stroke-opacity:1;"
     d="  M 19.688205,26.652935   L 0.40456754,5.6257122  "
     id="path68" />
  <path
     style="fill:none;stroke:#000000;stroke-width:0.96018112px;stroke-linecap:round;stroke-linejoin:round;stroke-miterlimit:4;stroke-dasharray:none;stroke-opacity:1;"
     d="  M 17.527798,12.447521   L 9.1662203,4.7027616   L 21.128477,8.5149489   L 12.7669,0.77018951  "
     id="path69" />
  <path
     style="fill:none;stroke:#000000;stroke-width:0.96018112px;stroke-linecap:round;stroke-linejoin:round;stroke-miterlimit:4;stroke-dasharray:none;stroke-opacity:1;"
     d="  M 20.728401,2.937117   L 20.768409,2.4957058   L 20.568371,1.4924987   L 24.769164,5.3849425  "
     id="path70" />
  <path
     style="fill:#000000;fill-rule:evenodd;fill-opacity:1;stroke:none;"
     d="  M 205.52326,27.736398   L 198.00184,33.635256   L 203.24283,25.609599   z "
     id="path71" />
  <path
     style="fill:none;stroke:#000000;stroke-width:0.96018112px;stroke-linecap:round;stroke-linejoin:round;stroke-miterlimit:4;stroke-dasharray:none;stroke-opacity:1;"
     d="  M 204.36304,26.652935   L 223.68669,5.6257122  "
     id="path72" />
  <path
     style="fill:none;stroke:#000000;stroke-width:0.96018112px;stroke-linecap:round;stroke-linejoin:round;stroke-miterlimit:4;stroke-dasharray:none;stroke-opacity:1;"
     d="  M 201.00241,8.1537943   L 209.36398,0.40903492   L 204.60309,12.086366   L 212.96466,4.341607  "
     id="path73" />
  <path
     style="fill:none;stroke:#000000;stroke-width:0.96018112px;stroke-linecap:round;stroke-linejoin:round;stroke-miterlimit:4;stroke-dasharray:none;stroke-opacity:1;"
     d="  M 209.56402,11.885725   L 209.76406,11.685084   L 210.32417,11.484442   L 210.64423,11.444314   L 211.08431,11.52457   L 211.60441,12.086366   L 211.64441,12.567906   L 211.60441,12.888932   L 211.32435,13.370472   L 210.92428,13.771754   L 210.40418,13.972396   L 209.52402,14.253294   L 206.2434,14.694705   L 208.04374,16.660991  "
     id="path74" />
  <path
     style="fill:none;stroke:#000000;stroke-width:0.96018112px;stroke-linecap:round;stroke-linejoin:round;stroke-miterlimit:4;stroke-dasharray:none;stroke-opacity:1;"
     d="  M 174.95749,104.42155   L 203.32285,104.42155  "
     id="path75" />
  <path
     style="fill:none;stroke:#000000;stroke-width:0.96018112px;stroke-linecap:round;stroke-linejoin:round;stroke-miterlimit:4;stroke-dasharray:none;stroke-opacity:1;"
     d="  M 174.95749,109.15669   L 203.32285,109.15669  "
     id="path76" />
  <path
     style="fill:none;stroke:#000000;stroke-width:0.96018112px;stroke-linecap:round;stroke-linejoin:round;stroke-miterlimit:4;stroke-dasharray:none;stroke-opacity:1;"
     d="  M 198.60195,104.42155   L 198.60195,99.686417  "
     id="path77" />
  <path
     style="fill:none;stroke:#000000;stroke-width:0.96018112px;stroke-linecap:round;stroke-linejoin:round;stroke-miterlimit:4;stroke-dasharray:none;stroke-opacity:1;"
     d="  M 198.60195,109.15669   L 198.60195,113.8517  "
     id="path78" />
  <path
     style="fill:none;stroke:#000000;stroke-width:0.96018112px;stroke-linecap:round;stroke-linejoin:round;stroke-miterlimit:4;stroke-dasharray:none;stroke-opacity:1;"
     d="  M 198.60195,104.42155   L 198.60195,109.15669  "
     id="path79" />
  <path
     style="fill:#000000;fill-rule:evenodd;fill-opacity:1;stroke:none;"
     d="  M 196.12149,100.24821   L 194.44117,101.89347   L 202.76274,106.90951   z "
     id="path80" />
  <path
     style="fill:#000000;fill-rule:evenodd;fill-opacity:1;stroke:none;"
     d="  M 194.44117,101.89347   L 202.76274,106.90951   L 201.08242,108.5949   z "
     id="path81" />
  <path
     style="fill:#000000;fill-rule:evenodd;fill-opacity:1;stroke:none;"
     d="  M 201.08242,113.33003   L 202.76274,111.64465   L 194.44117,106.62861   z "
     id="path82" />
  <path
     style="fill:#000000;fill-rule:evenodd;fill-opacity:1;stroke:none;"
     d="  M 202.76274,111.64465   L 194.44117,106.62861   L 196.12149,104.98335   z "
     id="path83" />
  <path
     style="fill:none;stroke:#000000;stroke-width:0.96018112px;stroke-linecap:round;stroke-linejoin:round;stroke-miterlimit:4;stroke-dasharray:none;stroke-opacity:1;"
     d="  M 274.6563,152.73601   L 274.6563,113.16952  "
     id="path84" />
  <path
     style="fill:none;stroke:#000000;stroke-width:0.96018112px;stroke-linecap:round;stroke-linejoin:round;stroke-miterlimit:4;stroke-dasharray:none;stroke-opacity:1;"
     d="  M 274.6563,101.3718   L 274.6563,89.53396  "
     id="path85" />
  <path
     style="fill:none;stroke:#000000;stroke-width:0.96018112px;stroke-linecap:round;stroke-linejoin:round;stroke-miterlimit:4;stroke-dasharray:none;stroke-opacity:1;"
     d="  M 274.6563,77.736244   L 274.6563,38.209881  "
     id="path86" />
  <path
     style="fill:#000000;fill-rule:evenodd;fill-opacity:1;stroke:none;"
     d="  M 285.73839,104.42155   L 287.13866,104.42155   L 285.73839,38.209881   z "
     id="path87" />
  <path
     style="fill:#000000;fill-rule:evenodd;fill-opacity:1;stroke:none;"
     d="  M 287.13866,104.42155   L 285.73839,38.209881   L 287.13866,38.209881   z "
     id="path88" />
  <path
     style="fill:#000000;fill-rule:evenodd;fill-opacity:1;stroke:none;"
     d="  M 262.17395,104.42155   L 263.61422,104.42155   L 262.17395,38.209881   z "
     id="path89" />
  <path
     style="fill:#000000;fill-rule:evenodd;fill-opacity:1;stroke:none;"
     d="  M 263.61422,104.42155   L 262.17395,38.209881   L 263.61422,38.209881   z "
     id="path90" />
  <path
     style="fill:#000000;fill-rule:evenodd;fill-opacity:1;stroke:none;"
     d="  M 292.77972,146.91741   L 294.17998,146.91741   L 292.77972,109.15669   z "
     id="path91" />
  <path
     style="fill:#000000;fill-rule:evenodd;fill-opacity:1;stroke:none;"
     d="  M 294.17998,146.91741   L 292.77972,109.15669   L 294.17998,109.15669   z "
     id="path92" />
  <path
     style="fill:#000000;fill-rule:evenodd;fill-opacity:1;stroke:none;"
     d="  M 288.05883,142.2224   L 289.4991,142.2224   L 288.05883,113.8517   z "
     id="path93" />
  <path
     style="fill:#000000;fill-rule:evenodd;fill-opacity:1;stroke:none;"
     d="  M 289.4991,142.2224   L 288.05883,113.8517   L 289.4991,113.8517   z "
     id="path94" />
  <path
     style="fill:#000000;fill-rule:evenodd;fill-opacity:1;stroke:none;"
     d="  M 288.05883,109.15669   L 289.4991,109.15669   L 288.05883,104.42155   z "
     id="path95" />
  <path
     style="fill:#000000;fill-rule:evenodd;fill-opacity:1;stroke:none;"
     d="  M 289.4991,109.15669   L 288.05883,104.42155   L 289.4991,104.42155   z "
     id="path96" />
  <path
     style="fill:#000000;fill-rule:evenodd;fill-opacity:1;stroke:none;"
     d="  M 255.13262,146.91741   L 256.53288,146.91741   L 255.13262,109.15669   z "
     id="path97" />
  <path
     style="fill:#000000;fill-rule:evenodd;fill-opacity:1;stroke:none;"
     d="  M 256.53288,146.91741   L 255.13262,109.15669   L 256.53288,109.15669   z "
     id="path98" />
  <path
     style="fill:#000000;fill-rule:evenodd;fill-opacity:1;stroke:none;"
     d="  M 259.85351,142.2224   L 261.25377,142.2224   L 259.85351,113.8517   z "
     id="path99" />
  <path
     style="fill:#000000;fill-rule:evenodd;fill-opacity:1;stroke:none;"
     d="  M 261.25377,142.2224   L 259.85351,113.8517   L 261.25377,113.8517   z "
     id="path100" />
  <path
     style="fill:#000000;fill-rule:evenodd;fill-opacity:1;stroke:none;"
     d="  M 259.85351,109.15669   L 261.25377,109.15669   L 259.85351,104.42155   z "
     id="path101" />
  <path
     style="fill:#000000;fill-rule:evenodd;fill-opacity:1;stroke:none;"
     d="  M 261.25377,109.15669   L 259.85351,104.42155   L 261.25377,104.42155   z "
     id="path102" />
  <path
     style="fill:none;stroke:#000000;stroke-width:0.96018112px;stroke-linecap:round;stroke-linejoin:round;stroke-miterlimit:4;stroke-dasharray:none;stroke-opacity:1;"
     d="  M 249.7316,38.209881   L 268.53515,38.209881   L 271.81577,27.816655   L 277.49684,48.603107   L 280.77746,38.209881   L 299.62101,38.209881  "
     id="path103" />
  <path
     style="fill:none;stroke:#000000;stroke-width:0.96018112px;stroke-linecap:round;stroke-linejoin:round;stroke-miterlimit:4;stroke-dasharray:none;stroke-opacity:1;"
     d="  M 260.53364,92.623838   L 260.53364,70.111869  "
     id="path104" />
  <path
     style="fill:none;stroke:#000000;stroke-width:0.96018112px;stroke-linecap:round;stroke-linejoin:round;stroke-miterlimit:4;stroke-dasharray:none;stroke-opacity:1;"
     d="  M 288.77897,92.623838   L 288.77897,70.111869  "
     id="path105" />
  <path
     style="fill:none;stroke:#000000;stroke-width:0.96018112px;stroke-linecap:round;stroke-linejoin:round;stroke-miterlimit:4;stroke-dasharray:none;stroke-opacity:1;"
     d="  M 255.85275,74.806879   L 293.49986,74.806879  "
     id="path106" />
  <path
     style="fill:#000000;fill-rule:evenodd;fill-opacity:1;stroke:none;"
     d="  M 264.69442,72.318925   L 263.05411,70.633537   L 258.05317,78.980221   z "
     id="path107" />
  <path
     style="fill:#000000;fill-rule:evenodd;fill-opacity:1;stroke:none;"
     d="  M 263.05411,70.633537   L 258.05317,78.980221   L 256.37285,77.334961   z "
     id="path108" />
  <path
     style="fill:#000000;fill-rule:evenodd;fill-opacity:1;stroke:none;"
     d="  M 284.61818,77.334961   L 286.2985,78.980221   L 291.25943,70.633537   z "
     id="path109" />
  <path
     style="fill:#000000;fill-rule:evenodd;fill-opacity:1;stroke:none;"
     d="  M 286.2985,78.980221   L 291.25943,70.633537   L 292.93975,72.318925   z "
     id="path110" />
  <path
     style="fill:none;stroke:#000000;stroke-width:0.96018112px;stroke-linecap:round;stroke-linejoin:round;stroke-miterlimit:4;stroke-dasharray:none;stroke-opacity:1;"
     d="  M 288.77897,125.68955   L 288.77897,125.89019  "
     id="path111" />
  <path
     style="fill:none;stroke:#000000;stroke-width:0.96018112px;stroke-linecap:round;stroke-linejoin:round;stroke-miterlimit:4;stroke-dasharray:none;stroke-opacity:1;"
     d="  M 293.49986,125.60929   L 293.49986,125.89019  "
     id="path112" />
  <path
     style="fill:none;stroke:#000000;stroke-width:0.96018112px;stroke-linecap:round;stroke-linejoin:round;stroke-miterlimit:4;stroke-dasharray:none;stroke-opacity:1;"
     d="  M 288.77897,121.19518   L 284.05807,121.19518  "
     id="path113" />
  <path
     style="fill:none;stroke:#000000;stroke-width:0.96018112px;stroke-linecap:round;stroke-linejoin:round;stroke-miterlimit:4;stroke-dasharray:none;stroke-opacity:1;"
     d="  M 293.49986,121.19518   L 298.18074,121.19518  "
     id="path114" />
  <path
     style="fill:none;stroke:#000000;stroke-width:0.96018112px;stroke-linecap:round;stroke-linejoin:round;stroke-miterlimit:4;stroke-dasharray:none;stroke-opacity:1;"
     d="  M 302.10148,107.95284   L 302.10148,117.22248   L 302.50155,118.86774   L 303.2617,119.42953   L 304.02184,119.42953  "
     id="path115" />
  <path
     style="fill:none;stroke:#000000;stroke-width:0.96018112px;stroke-linecap:round;stroke-linejoin:round;stroke-miterlimit:4;stroke-dasharray:none;stroke-opacity:1;"
     d="  M 300.98127,111.76503   L 303.62177,111.76503  "
     id="path116" />
  <path
     style="fill:none;stroke:#000000;stroke-width:0.96018112px;stroke-linecap:round;stroke-linejoin:round;stroke-miterlimit:4;stroke-dasharray:none;stroke-opacity:1;"
     d="  M 288.77897,121.19518   L 293.49986,121.19518  "
     id="path117" />
  <path
     style="fill:#000000;fill-rule:evenodd;fill-opacity:1;stroke:none;"
     d="  M 284.61818,123.68313   L 286.2985,125.36852   L 291.25943,117.02184   z "
     id="path118" />
  <path
     style="fill:#000000;fill-rule:evenodd;fill-opacity:1;stroke:none;"
     d="  M 286.2985,125.36852   L 291.25943,117.02184   L 292.93975,118.6671   z "
     id="path119" />
  <path
     style="fill:#000000;fill-rule:evenodd;fill-opacity:1;stroke:none;"
     d="  M 297.66064,118.6671   L 295.98032,117.02184   L 290.97938,125.36852   z "
     id="path120" />
  <path
     style="fill:#000000;fill-rule:evenodd;fill-opacity:1;stroke:none;"
     d="  M 295.98032,117.02184   L 290.97938,125.36852   L 289.33907,123.68313   z "
     id="path121" />
  <path
     style="fill:none;stroke:#000000;stroke-width:0.96018112px;stroke-linecap:round;stroke-linejoin:round;stroke-miterlimit:4;stroke-dasharray:none;stroke-opacity:1;"
     d="  M 255.85275,158.75525   L 255.85275,186.60429  "
     id="path122" />
  <path
     style="fill:none;stroke:#000000;stroke-width:0.96018112px;stroke-linecap:round;stroke-linejoin:round;stroke-miterlimit:4;stroke-dasharray:none;stroke-opacity:1;"
     d="  M 293.49986,158.75525   L 293.49986,186.60429  "
     id="path123" />
  <path
     style="fill:none;stroke:#000000;stroke-width:0.96018112px;stroke-linecap:round;stroke-linejoin:round;stroke-miterlimit:4;stroke-dasharray:none;stroke-opacity:1;"
     d="  M 251.13186,181.86915   L 298.18074,181.86915  "
     id="path124" />
  <path
     style="fill:#000000;fill-rule:evenodd;fill-opacity:1;stroke:none;"
     d="  M 260.01354,179.38119   L 258.33322,177.69581   L 253.33228,186.04249   z "
     id="path125" />
  <path
     style="fill:#000000;fill-rule:evenodd;fill-opacity:1;stroke:none;"
     d="  M 258.33322,177.69581   L 253.33228,186.04249   L 251.69197,184.39723   z "
     id="path126" />
  <path
     style="fill:#000000;fill-rule:evenodd;fill-opacity:1;stroke:none;"
     d="  M 289.33907,184.39723   L 290.97938,186.04249   L 295.98032,177.69581   z "
     id="path127" />
  <path
     style="fill:#000000;fill-rule:evenodd;fill-opacity:1;stroke:none;"
     d="  M 290.97938,186.04249   L 295.98032,177.69581   L 297.66064,179.38119   z "
     id="path128" />
  <path
     style="fill:none;stroke:#000000;stroke-width:0.96018112px;stroke-linecap:round;stroke-linejoin:round;stroke-miterlimit:4;stroke-dasharray:none;stroke-opacity:1;"
     d="  M 272.37587,176.05055   L 272.37587,164.61398  "
     id="path129" />
  <path
     style="fill:none;stroke:#000000;stroke-width:0.96018112px;stroke-linecap:round;stroke-linejoin:round;stroke-miterlimit:4;stroke-dasharray:none;stroke-opacity:1;"
     d="  M 272.37587,170.07143   L 273.13601,168.98797   L 273.89616,168.42617   L 275.05638,168.42617   L 275.81652,168.98797   L 276.57666,170.07143   L 276.93673,171.71669   L 276.93673,172.80016   L 276.57666,174.40529   L 275.81652,175.52888   L 275.05638,176.05055   L 273.89616,176.05055   L 273.13601,175.52888   L 272.37587,174.40529  "
     id="path130" />
  <path
     style="fill:none;stroke:#000000;stroke-width:0.96018112px;stroke-linecap:round;stroke-linejoin:round;stroke-miterlimit:4;stroke-dasharray:none;stroke-opacity:1;"
     d="  M 72.61819,52.736321   L 81.539873,45.593486  "
     id="path131" />
  <path
     style="fill:none;stroke:#000000;stroke-width:0.96018112px;stroke-linecap:round;stroke-linejoin:round;stroke-miterlimit:4;stroke-dasharray:none;stroke-opacity:1;"
     d="  M 76.85899,49.325417   L 78.859367,49.205032   L 79.739533,49.48593   L 80.459669,50.368752   L 80.499676,51.291703   L 79.45948,52.615936   L 75.21868,56.026841  "
     id="path132" />
  <path
     style="fill:none;stroke:#000000;stroke-width:0.96018112px;stroke-linecap:round;stroke-linejoin:round;stroke-miterlimit:4;stroke-dasharray:none;stroke-opacity:1;"
     d="  M 80.779729,56.468252   L 81.219812,56.588637   L 82.220001,56.50838   L 77.739156,60.079797  "
     id="path133" />
  <path
     style="fill:none;stroke:#000000;stroke-width:0.96018112px;stroke-linecap:round;stroke-linejoin:round;stroke-miterlimit:4;stroke-dasharray:none;stroke-opacity:1;"
     d="  M 93.142061,59.036462   L 93.022039,60.119926   L 92.862008,60.48108   L 92.541948,60.802107  "
     id="path134" />
  <path
     style="fill:none;stroke:#000000;stroke-width:0.96018112px;stroke-linecap:round;stroke-linejoin:round;stroke-miterlimit:4;stroke-dasharray:none;stroke-opacity:1;"
     d="  M 92.301903,57.431331   L 92.18188,57.993127   L 91.981842,58.073383   L 89.781427,60.160054   L 88.821246,61.123133   L 87.981088,61.845442   L 87.300959,62.60788   L 86.620831,63.370317   L 86.060725,64.092626   L 85.50062,64.975448   L 85.100544,65.898399   L 84.780484,66.741093   L 84.620454,67.664044   L 84.620454,68.185711   L 84.740476,68.466609   L 87.220944,66.259554   L 84.780484,68.22584  "
     id="path135" />
  <path
     style="fill:none;stroke:#000000;stroke-width:0.96018112px;stroke-linecap:round;stroke-linejoin:round;stroke-miterlimit:4;stroke-dasharray:none;stroke-opacity:1;"
     d="  M 89.90145,62.648008   L 89.461367,63.009162   L 88.501186,63.370317   L 87.380974,63.7716   L 86.420793,64.01237   L 85.300582,64.213011   L 84.060348,64.413652   L 83.020152,64.534037   L 81.539873,64.654422  "
     id="path136" />
  <path
     style="fill:none;stroke:#000000;stroke-width:0.96018112px;stroke-linecap:round;stroke-linejoin:round;stroke-miterlimit:4;stroke-dasharray:none;stroke-opacity:1;"
     d="  M 80.739722,61.684929   L 80.899752,61.845442   L 84.580446,63.490702  "
     id="path137" />
  <path
     style="fill:none;stroke:#000000;stroke-width:0.96018112px;stroke-linecap:round;stroke-linejoin:round;stroke-miterlimit:4;stroke-dasharray:none;stroke-opacity:1;"
     d="  M 86.340778,58.715436   L 85.82068,59.31736   L 84.660461,60.360695   L 83.260197,61.444159   L 84.02034,60.96262   L 85.460612,62.086212   L 85.34059,61.88557   L 87.901073,60.320567   L 87.701035,60.601465   L 85.900695,59.237103  "
     id="path138" />
  <path
     style="fill:none;stroke:#000000;stroke-width:0.96018112px;stroke-linecap:round;stroke-linejoin:round;stroke-miterlimit:4;stroke-dasharray:none;stroke-opacity:1;"
     d="  M 86.740854,57.070176   L 86.700846,57.391202   L 86.900884,57.431331   L 92.221888,61.805314   L 92.02185,61.564544   L 91.741797,61.363903  "
     id="path139" />
  <path
     style="fill:none;stroke:#000000;stroke-width:0.96018112px;stroke-linecap:round;stroke-linejoin:round;stroke-miterlimit:4;stroke-dasharray:none;stroke-opacity:1;"
     d="  M 97.382861,65.577373   L 88.501186,72.720208  "
     id="path140" />
  <path
     style="fill:none;stroke:#000000;stroke-width:0.96018112px;stroke-linecap:round;stroke-linejoin:round;stroke-miterlimit:4;stroke-dasharray:none;stroke-opacity:1;"
     d="  M 93.142061,68.988277   L 93.542137,67.704172   L 93.462122,66.781221   L 92.781993,65.858271   L 91.86182,65.617501   L 90.541571,65.697758   L 89.021284,66.420067   L 88.181125,67.102248   L 87.140929,68.426481   L 86.780861,69.710586   L 86.820869,70.633537   L 87.541005,71.516359   L 88.421171,71.797257   L 89.74142,71.717001  "
     id="path141" />
  <path
     style="fill:none;stroke:#000000;stroke-width:0.96018112px;stroke-linecap:round;stroke-linejoin:round;stroke-miterlimit:4;stroke-dasharray:none;stroke-opacity:1;"
     d="  M 93.822189,72.840593   L 94.262272,73.001106   L 95.262461,72.920849   L 90.781616,76.492267  "
     id="path142" />
  <path
     style="fill:none;stroke:#000000;stroke-width:0.96018112px;stroke-linecap:round;stroke-linejoin:round;stroke-miterlimit:4;stroke-dasharray:none;stroke-opacity:1;"
     d="  M 133.98977,69.068534   L 126.26831,60.641594  "
     id="path143" />
  <path
     style="fill:none;stroke:#000000;stroke-width:0.96018112px;stroke-linecap:round;stroke-linejoin:round;stroke-miterlimit:4;stroke-dasharray:none;stroke-opacity:1;"
     d="  M 130.30907,65.055705   L 130.02902,63.049291   L 130.22906,62.166468   L 131.06922,61.363903   L 131.98939,61.243518   L 133.38965,62.206597   L 137.07035,66.219425  "
     id="path144" />
  <path
     style="fill:none;stroke:#000000;stroke-width:0.96018112px;stroke-linecap:round;stroke-linejoin:round;stroke-miterlimit:4;stroke-dasharray:none;stroke-opacity:1;"
     d="  M 136.87031,61.20339   L 136.67027,61.002748   L 136.47023,60.48108   L 136.43023,60.160054   L 136.51024,59.678515   L 137.07035,59.156847   L 137.51043,59.116719   L 137.8705,59.196975   L 138.35059,59.477873   L 138.71066,59.879156   L 138.9507,60.400824   L 139.23076,61.243518   L 139.67084,64.534037   L 141.63121,62.728264  "
     id="path145" />
  <path
     style="fill:none;stroke:#000000;stroke-width:0.96018112px;stroke-linecap:round;stroke-linejoin:round;stroke-miterlimit:4;stroke-dasharray:none;stroke-opacity:1;"
     d="  M 138.79067,48.041311   L 139.91088,48.08144   L 140.23094,48.241953   L 140.59101,48.522851  "
     id="path146" />
  <path
     style="fill:none;stroke:#000000;stroke-width:0.96018112px;stroke-linecap:round;stroke-linejoin:round;stroke-miterlimit:4;stroke-dasharray:none;stroke-opacity:1;"
     d="  M 137.27039,49.00439   L 137.83049,49.084647   L 137.95051,49.285288   L 140.15093,51.371959   L 141.15112,52.214653   L 141.95127,53.017219   L 142.75142,53.619143   L 143.55157,54.261196   L 144.31171,54.782864   L 145.23189,55.304531   L 146.19207,55.625558   L 147.03223,55.906456   L 147.9524,55.946584   L 148.4725,55.946584   L 148.79256,55.826199   L 146.39211,53.45863   L 148.51251,55.745943  "
     id="path147" />
  <path
     style="fill:none;stroke:#000000;stroke-width:0.96018112px;stroke-linecap:round;stroke-linejoin:round;stroke-miterlimit:4;stroke-dasharray:none;stroke-opacity:1;"
     d="  M 142.59139,51.050933   L 142.99146,51.452216   L 143.43155,52.415295   L 143.91164,53.498758   L 144.2317,54.421709   L 144.51175,55.505173   L 144.7918,56.74915   L 144.99184,57.792485   L 145.19188,59.277232  "
     id="path148" />
  <path
     style="fill:none;stroke:#000000;stroke-width:0.96018112px;stroke-linecap:round;stroke-linejoin:round;stroke-miterlimit:4;stroke-dasharray:none;stroke-opacity:1;"
     d="  M 142.31134,60.280439   L 142.47137,60.119926   L 143.83162,56.307739  "
     id="path149" />
  <path
     style="fill:none;stroke:#000000;stroke-width:0.96018112px;stroke-linecap:round;stroke-linejoin:round;stroke-miterlimit:4;stroke-dasharray:none;stroke-opacity:1;"
     d="  M 138.9507,54.903248   L 139.59082,55.34466   L 140.71103,56.468252   L 141.91126,57.752357   L 141.35116,57.070176   L 142.35134,55.505173   L 142.19131,55.665686   L 140.43098,53.177732   L 140.75104,53.378374   L 139.51081,55.264403  "
     id="path150" />
  <path
     style="fill:none;stroke:#000000;stroke-width:0.96018112px;stroke-linecap:round;stroke-linejoin:round;stroke-miterlimit:4;stroke-dasharray:none;stroke-opacity:1;"
     d="  M 137.31039,54.582222   L 137.63045,54.582222   L 137.67046,54.421709   L 141.5912,48.803749   L 141.35116,49.00439   L 141.23113,49.285288  "
     id="path151" />
  <path
     style="fill:none;stroke:#000000;stroke-width:0.96018112px;stroke-linecap:round;stroke-linejoin:round;stroke-miterlimit:4;stroke-dasharray:none;stroke-opacity:1;"
     d="  M 144.99184,43.306174   L 152.7133,51.733114  "
     id="path152" />
  <path
     style="fill:none;stroke:#000000;stroke-width:0.96018112px;stroke-linecap:round;stroke-linejoin:round;stroke-miterlimit:4;stroke-dasharray:none;stroke-opacity:1;"
     d="  M 148.67254,47.319002   L 147.39229,47.038104   L 146.47212,47.158489   L 145.63196,47.920927   L 145.43192,48.843877   L 145.59196,50.168111   L 146.43211,51.652857   L 147.15225,52.415295   L 148.55251,53.378374   L 149.83276,53.659272   L 150.75293,53.538887   L 151.59309,52.776449   L 151.79312,51.853499   L 151.63309,50.529265  "
     id="path153" />
  <path
     style="fill:none;stroke:#000000;stroke-width:0.96018112px;stroke-linecap:round;stroke-linejoin:round;stroke-miterlimit:4;stroke-dasharray:none;stroke-opacity:1;"
     d="  M 152.23321,46.997976   L 152.07318,46.797335   L 151.83313,46.275667   L 151.79312,45.914512   L 151.87314,45.473101   L 152.43325,44.951433   L 152.91334,44.911305   L 153.2334,44.951433   L 153.75349,45.232331   L 154.11356,45.633614   L 154.35361,46.155282   L 154.59365,47.038104   L 155.03374,50.328624   L 156.99411,48.522851  "
     id="path154" />
  <path
     style="fill:none;stroke:#000000;stroke-width:0.96018112px;stroke-linecap:round;stroke-linejoin:round;stroke-miterlimit:4;stroke-dasharray:none;stroke-opacity:1;"
     d="  M 112.82577,179.58184   L 112.82577,168.14527  "
     id="path155" />
  <path
     style="fill:none;stroke:#000000;stroke-width:0.96018112px;stroke-linecap:round;stroke-linejoin:round;stroke-miterlimit:4;stroke-dasharray:none;stroke-opacity:1;"
     d="  M 115.86635,176.29132   L 115.86635,182.02966  "
     id="path156" />
  <path
     style="fill:none;stroke:#000000;stroke-width:0.96018112px;stroke-linecap:round;stroke-linejoin:round;stroke-miterlimit:4;stroke-dasharray:none;stroke-opacity:1;"
     d="  M 115.86635,177.13401   L 116.22642,176.57221   L 116.62649,176.29132   L 117.1866,176.29132   L 117.54666,176.57221   L 117.94674,177.13401   L 118.14678,177.93658   L 118.14678,178.49837   L 117.94674,179.30094   L 117.54666,179.86273   L 117.1866,180.14363   L 116.62649,180.14363   L 116.22642,179.86273   L 115.86635,179.30094  "
     id="path157" />
  <path
     style="fill:none;stroke:#000000;stroke-width:0.96018112px;stroke-linecap:round;stroke-linejoin:round;stroke-miterlimit:4;stroke-dasharray:none;stroke-opacity:1;"
     d="  M 187.67989,89.253062   L 187.67989,98.522696   L 188.07997,100.16796   L 188.84011,100.68962   L 189.60026,100.68962  "
     id="path158" />
  <path
     style="fill:none;stroke:#000000;stroke-width:0.96018112px;stroke-linecap:round;stroke-linejoin:round;stroke-miterlimit:4;stroke-dasharray:none;stroke-opacity:1;"
     d="  M 186.55968,93.065249   L 189.20018,93.065249  "
     id="path159" />
  <path
     style="fill:none;stroke:#000000;stroke-width:0.96018112px;stroke-linecap:round;stroke-linejoin:round;stroke-miterlimit:4;stroke-dasharray:none;stroke-opacity:1;"
     d="  M 191.88069,97.439233   L 191.88069,103.13745  "
     id="path160" />
  <path
     style="fill:none;stroke:#000000;stroke-width:0.96018112px;stroke-linecap:round;stroke-linejoin:round;stroke-miterlimit:4;stroke-dasharray:none;stroke-opacity:1;"
     d="  M 191.88069,98.241798   L 192.24075,97.680002   L 192.64083,97.439233   L 193.20094,97.439233   L 193.561,97.680002   L 193.96108,98.241798   L 194.16112,99.044364   L 194.16112,99.60616   L 193.96108,100.40873   L 193.561,100.97052   L 193.20094,101.25142   L 192.64083,101.25142   L 192.24075,100.97052   L 191.88069,100.40873  "
     id="path161" />
  <path
     style="fill:none;stroke:#000000;stroke-width:0.96018112px;stroke-linecap:round;stroke-linejoin:round;stroke-miterlimit:4;stroke-dasharray:none;stroke-opacity:1;"
     d="  M 275.57647,72.359053   L 275.57647,60.922492  "
     id="path162" />
  <path
     style="fill:none;stroke:#000000;stroke-width:0.96018112px;stroke-linecap:round;stroke-linejoin:round;stroke-miterlimit:4;stroke-dasharray:none;stroke-opacity:1;"
     d="  M 275.57647,66.379939   L 276.33662,65.296475   L 277.09676,64.734679   L 278.21697,64.734679   L 278.97712,65.296475   L 279.73726,66.379939   L 280.13734,68.025198   L 280.13734,69.108662   L 279.73726,70.713794   L 278.97712,71.837386   L 278.21697,72.359053   L 277.09676,72.359053   L 276.33662,71.837386   L 275.57647,70.713794  "
     id="path163" />
  <path
     style="fill:none;stroke:#000000;stroke-width:0.96018112px;stroke-linecap:round;stroke-linejoin:round;stroke-miterlimit:4;stroke-dasharray:none;stroke-opacity:1;"
     d="  M 282.77783,69.108662   L 282.77783,74.806879  "
     id="path164" />
  <path
     style="fill:none;stroke:#000000;stroke-width:0.96018112px;stroke-linecap:round;stroke-linejoin:round;stroke-miterlimit:4;stroke-dasharray:none;stroke-opacity:1;"
     d="  M 282.77783,69.911228   L 283.17791,69.38956   L 283.53798,69.108662   L 284.09808,69.108662   L 284.49816,69.38956   L 284.85823,69.911228   L 285.05826,70.713794   L 285.05826,71.27559   L 284.85823,72.078155   L 284.49816,72.639951   L 284.09808,72.920849   L 283.53798,72.920849   L 283.17791,72.639951   L 282.77783,72.078155  "
     id="path165" />
</svg>
