<?xml version="1.0" encoding="UTF-8" standalone="no"?>
<svg
   version="1.0"
   width="139.81mm"
   height="80.779999mm"
   id="svg172"
   sodipodi:docname="image287.emf"
   xmlns:inkscape="http://www.inkscape.org/namespaces/inkscape"
   xmlns:sodipodi="http://sodipodi.sourceforge.net/DTD/sodipodi-0.dtd"
   xmlns="http://www.w3.org/2000/svg"
   xmlns:svg="http://www.w3.org/2000/svg">
  <sodipodi:namedview
     id="namedview172"
     pagecolor="#ffffff"
     bordercolor="#000000"
     borderopacity="0.25"
     inkscape:showpageshadow="2"
     inkscape:pageopacity="0.0"
     inkscape:pagecheckerboard="0"
     inkscape:deskcolor="#d1d1d1"
     inkscape:document-units="mm" />
  <defs
     id="defs1">
    <pattern
       id="EMFhbasepattern"
       patternUnits="userSpaceOnUse"
       width="6"
       height="6"
       x="0"
       y="0" />
  </defs>
  <path
     style="fill:#000000;fill-rule:evenodd;fill-opacity:1;stroke:none;"
     d="  M 339.74257,169.89366   L 339.74257,167.73209   L 38.711126,169.89366   z "
     id="path1" />
  <path
     style="fill:#000000;fill-rule:evenodd;fill-opacity:1;stroke:none;"
     d="  M 339.74257,167.73209   L 38.711126,169.89366   L 38.711126,167.73209   z "
     id="path2" />
  <path
     style="fill:none;stroke:#000000;stroke-width:0.9595902px;stroke-linecap:round;stroke-linejoin:round;stroke-miterlimit:4;stroke-dasharray:none;stroke-opacity:1;"
     d="  M 514.1081,198.07415   L 434.14225,198.07415  "
     id="path3" />
  <path
     style="fill:none;stroke:#000000;stroke-width:0.9595902px;stroke-linecap:round;stroke-linejoin:round;stroke-miterlimit:4;stroke-dasharray:none;stroke-opacity:1;"
     d="  M 415.91004,198.07415   L 397.67783,198.07415  "
     id="path4" />
  <path
     style="fill:none;stroke:#000000;stroke-width:0.9595902px;stroke-linecap:round;stroke-linejoin:round;stroke-miterlimit:4;stroke-dasharray:none;stroke-opacity:1;"
     d="  M 379.40563,198.07415   L 288.1646,198.07415  "
     id="path5" />
  <path
     style="fill:none;stroke:#000000;stroke-width:0.9595902px;stroke-linecap:round;stroke-linejoin:round;stroke-miterlimit:4;stroke-dasharray:none;stroke-opacity:1;"
     d="  M 269.93238,198.07415   L 251.66018,198.07415  "
     id="path6" />
  <path
     style="fill:none;stroke:#000000;stroke-width:0.9595902px;stroke-linecap:round;stroke-linejoin:round;stroke-miterlimit:4;stroke-dasharray:none;stroke-opacity:1;"
     d="  M 233.42797,198.07415   L 142.18694,198.07415  "
     id="path7" />
  <path
     style="fill:none;stroke:#000000;stroke-width:0.9595902px;stroke-linecap:round;stroke-linejoin:round;stroke-miterlimit:4;stroke-dasharray:none;stroke-opacity:1;"
     d="  M 123.91474,198.07415   L 105.68253,198.07415  "
     id="path8" />
  <path
     style="fill:none;stroke:#000000;stroke-width:0.9595902px;stroke-linecap:round;stroke-linejoin:round;stroke-miterlimit:4;stroke-dasharray:none;stroke-opacity:1;"
     d="  M 87.410329,198.07415   L 7.4444786,198.07415  "
     id="path9" />
  <path
     style="fill:#000000;fill-rule:evenodd;fill-opacity:1;stroke:none;"
     d="  M 503.39268,228.41621   L 503.39268,226.21461   L 433.30261,228.41621   z "
     id="path10" />
  <path
     style="fill:#000000;fill-rule:evenodd;fill-opacity:1;stroke:none;"
     d="  M 503.39268,226.21461   L 433.30261,228.41621   L 433.30261,226.21461   z "
     id="path11" />
  <path
     style="fill:#000000;fill-rule:evenodd;fill-opacity:1;stroke:none;"
     d="  M 490.2383,221.09089   L 490.2383,218.92932   L 446.457,221.09089   z "
     id="path12" />
  <path
     style="fill:#000000;fill-rule:evenodd;fill-opacity:1;stroke:none;"
     d="  M 490.2383,218.92932   L 446.457,221.09089   L 446.457,218.92932   z "
     id="path13" />
  <path
     style="fill:#000000;fill-rule:evenodd;fill-opacity:1;stroke:none;"
     d="  M 503.39268,169.89366   L 503.39268,167.73209   L 433.30261,169.89366   z "
     id="path14" />
  <path
     style="fill:#000000;fill-rule:evenodd;fill-opacity:1;stroke:none;"
     d="  M 503.39268,167.73209   L 433.30261,169.89366   L 433.30261,167.73209   z "
     id="path15" />
  <path
     style="fill:#000000;fill-rule:evenodd;fill-opacity:1;stroke:none;"
     d="  M 490.2383,177.21899   L 490.2383,175.01739   L 446.457,177.21899   z "
     id="path16" />
  <path
     style="fill:#000000;fill-rule:evenodd;fill-opacity:1;stroke:none;"
     d="  M 490.2383,175.01739   L 446.457,177.21899   L 446.457,175.01739   z "
     id="path17" />
  <path
     style="fill:none;stroke:#000000;stroke-width:0.9595902px;stroke-linecap:round;stroke-linejoin:round;stroke-miterlimit:4;stroke-dasharray:none;stroke-opacity:1;"
     d="  M 339.74257,163.48901   L 339.74257,188.54723   L 355.8157,193.67095   L 323.70942,202.43733   L 339.74257,207.56105   L 339.74257,233.45988  "
     id="path18" />
  <path
     style="fill:#000000;fill-rule:evenodd;fill-opacity:1;stroke:none;"
     d="  M 339.74257,228.41621   L 339.74257,226.21461   L 38.711126,228.41621   z "
     id="path19" />
  <path
     style="fill:#000000;fill-rule:evenodd;fill-opacity:1;stroke:none;"
     d="  M 339.74257,226.21461   L 38.711126,228.41621   L 38.711126,226.21461   z "
     id="path20" />
  <path
     style="fill:none;stroke:#000000;stroke-width:0.9595902px;stroke-linecap:round;stroke-linejoin:round;stroke-miterlimit:4;stroke-dasharray:none;stroke-opacity:1;"
     d="  M 38.711126,148.67824   L 38.711126,188.90749   L 54.784262,194.03121   L 22.677973,202.83762   L 38.711126,207.96134   L 38.711126,244.50791  "
     id="path21" />
  <path
     style="fill:none;stroke:#000000;stroke-width:0.9595902px;stroke-linecap:round;stroke-linejoin:round;stroke-miterlimit:4;stroke-dasharray:none;stroke-opacity:1;"
     d="  M 174.57311,198.07415   L 213.23659,156.00357  "
     id="path22" />
  <path
     style="fill:none;stroke:#000000;stroke-width:0.9595902px;stroke-linecap:round;stroke-linejoin:round;stroke-miterlimit:4;stroke-dasharray:none;stroke-opacity:1;"
     d="  M 225.59132,142.55379   L 237.94604,129.06398  "
     id="path23" />
  <path
     style="fill:none;stroke:#000000;stroke-width:0.9595902px;stroke-linecap:round;stroke-linejoin:round;stroke-miterlimit:4;stroke-dasharray:none;stroke-opacity:1;"
     d="  M 250.34075,115.6142   L 289.00424,73.543612  "
     id="path24" />
  <path
     style="fill:#000000;fill-rule:evenodd;fill-opacity:1;stroke:none;"
     d="  M 175.85256,168.05233   L 177.45188,169.5334   L 274.77032,60.414066   z "
     id="path25" />
  <path
     style="fill:#000000;fill-rule:evenodd;fill-opacity:1;stroke:none;"
     d="  M 177.45188,169.5334   L 274.77032,60.414066   L 276.36963,61.895143   z "
     id="path26" />
  <path
     style="fill:#000000;fill-rule:evenodd;fill-opacity:1;stroke:none;"
     d="  M 225.47137,168.05233   L 227.07069,169.5334   L 301.59886,85.192081   z "
     id="path27" />
  <path
     style="fill:#000000;fill-rule:evenodd;fill-opacity:1;stroke:none;"
     d="  M 227.07069,169.5334   L 301.59886,85.192081   L 303.19818,86.673158   z "
     id="path28" />
  <path
     style="fill:none;stroke:#000000;stroke-width:0.9595902px;stroke-linecap:round;stroke-linejoin:round;stroke-miterlimit:4;stroke-dasharray:none;stroke-opacity:1;"
     d="  M 317.4321,99.802704   L 295.96127,79.988298   L 281.32752,88.35438   L 296.64098,58.732843   L 282.00722,67.098926   L 260.53639,47.28452  "
     id="path29" />
  <path
     style="fill:none;stroke:#000000;stroke-width:0.9595902px;stroke-linecap:round;stroke-linejoin:round;stroke-miterlimit:4;stroke-dasharray:none;stroke-opacity:1;"
     d="  M 174.57311,198.07415   L 128.43281,147.83763  "
     id="path30" />
  <path
     style="fill:none;stroke:#000000;stroke-width:0.9595902px;stroke-linecap:round;stroke-linejoin:round;stroke-miterlimit:4;stroke-dasharray:none;stroke-opacity:1;"
     d="  M 116.07809,134.38785   L 103.72336,120.93807  "
     id="path31" />
  <path
     style="fill:none;stroke:#000000;stroke-width:0.9595902px;stroke-linecap:round;stroke-linejoin:round;stroke-miterlimit:4;stroke-dasharray:none;stroke-opacity:1;"
     d="  M 91.368638,107.48829   L 45.228343,57.251767  "
     id="path32" />
  <path
     style="fill:#000000;fill-rule:evenodd;fill-opacity:1;stroke:none;"
     d="  M 171.69433,169.5334   L 173.29365,168.05233   L 72.776578,61.895143   z "
     id="path33" />
  <path
     style="fill:#000000;fill-rule:evenodd;fill-opacity:1;stroke:none;"
     d="  M 173.29365,168.05233   L 72.776578,61.895143   L 74.415878,60.414066   z "
     id="path34" />
  <path
     style="fill:#000000;fill-rule:evenodd;fill-opacity:1;stroke:none;"
     d="  M 122.07552,169.5334   L 123.71482,168.05233   L 45.948035,86.673158   z "
     id="path35" />
  <path
     style="fill:#000000;fill-rule:evenodd;fill-opacity:1;stroke:none;"
     d="  M 123.71482,168.05233   L 45.948035,86.673158   L 47.547352,85.192081   z "
     id="path36" />
  <path
     style="fill:none;stroke:#000000;stroke-width:0.9595902px;stroke-linecap:round;stroke-linejoin:round;stroke-miterlimit:4;stroke-dasharray:none;stroke-opacity:1;"
     d="  M 31.714114,99.802704   L 53.184945,79.988298   L 67.818695,88.35438   L 52.505235,58.732843   L 67.138986,67.098926   L 88.649799,47.28452  "
     id="path37" />
  <path
     style="fill:#000000;fill-rule:evenodd;fill-opacity:1;stroke:none;"
     d="  M 95.127033,227.33543   L 97.326094,227.33543   L 95.127033,168.81288   z "
     id="path38" />
  <path
     style="fill:#000000;fill-rule:evenodd;fill-opacity:1;stroke:none;"
     d="  M 97.326094,227.33543   L 95.127033,168.81288   L 97.326094,168.81288   z "
     id="path39" />
  <path
     style="fill:#000000;fill-rule:evenodd;fill-opacity:1;stroke:none;"
     d="  M 251.8601,227.33543   L 254.05916,227.33543   L 251.8601,168.81288   z "
     id="path40" />
  <path
     style="fill:#000000;fill-rule:evenodd;fill-opacity:1;stroke:none;"
     d="  M 254.05916,227.33543   L 251.8601,168.81288   L 254.05916,168.81288   z "
     id="path41" />
  <path
     style="fill:none;stroke:#000000;stroke-width:0.9595902px;stroke-linecap:round;stroke-linejoin:round;stroke-miterlimit:4;stroke-dasharray:none;stroke-opacity:1;"
     d="  M 96.206572,245.62873   L 96.206572,288.98025  "
     id="path42" />
  <path
     style="fill:none;stroke:#000000;stroke-width:0.9595902px;stroke-linecap:round;stroke-linejoin:round;stroke-miterlimit:4;stroke-dasharray:none;stroke-opacity:1;"
     d="  M 252.93964,245.62873   L 252.93964,288.98025  "
     id="path43" />
  <path
     style="fill:none;stroke:#000000;stroke-width:0.9595902px;stroke-linecap:round;stroke-linejoin:round;stroke-miterlimit:4;stroke-dasharray:none;stroke-opacity:1;"
     d="  M 88.92968,281.65492   L 260.25651,281.65492  "
     id="path44" />
  <path
     style="fill:#000000;fill-rule:evenodd;fill-opacity:1;stroke:none;"
     d="  M 102.68381,277.7721   L 100.08492,275.21024   L 92.328228,288.13964   z "
     id="path45" />
  <path
     style="fill:#000000;fill-rule:evenodd;fill-opacity:1;stroke:none;"
     d="  M 100.08492,275.21024   L 92.328228,288.13964   L 89.769321,285.53775   z "
     id="path46" />
  <path
     style="fill:#000000;fill-rule:evenodd;fill-opacity:1;stroke:none;"
     d="  M 246.50239,285.53775   L 249.06129,288.13964   L 256.81798,275.21024   z "
     id="path47" />
  <path
     style="fill:#000000;fill-rule:evenodd;fill-opacity:1;stroke:none;"
     d="  M 249.06129,288.13964   L 256.81798,275.21024   L 259.41687,277.7721   z "
     id="path48" />
  <path
     style="fill:none;stroke:#000000;stroke-width:0.9595902px;stroke-linecap:round;stroke-linejoin:round;stroke-miterlimit:4;stroke-dasharray:none;stroke-opacity:1;"
     d="  M 86.930534,129.66442   L 91.648519,134.82817  "
     id="path49" />
  <path
     style="fill:none;stroke:#000000;stroke-width:0.9595902px;stroke-linecap:round;stroke-linejoin:round;stroke-miterlimit:4;stroke-dasharray:none;stroke-opacity:1;"
     d="  M 113.79906,104.8864   L 118.51704,110.05015  "
     id="path50" />
  <path
     style="fill:none;stroke:#000000;stroke-width:0.9595902px;stroke-linecap:round;stroke-linejoin:round;stroke-miterlimit:4;stroke-dasharray:none;stroke-opacity:1;"
     d="  M 81.332924,134.38785   L 118.91687,99.722646  "
     id="path51" />
  <path
     style="fill:#000000;fill-rule:evenodd;fill-opacity:1;stroke:none;"
     d="  M 88.849714,122.219   L 85.211268,122.05889   L 88.24997,136.82962   z "
     id="path52" />
  <path
     style="fill:#000000;fill-rule:evenodd;fill-opacity:1;stroke:none;"
     d="  M 85.211268,122.05889   L 88.24997,136.82962   L 84.571541,136.66951   z "
     id="path53" />
  <path
     style="fill:#000000;fill-rule:evenodd;fill-opacity:1;stroke:none;"
     d="  M 111.44007,111.89149   L 115.07851,112.05161   L 112.03981,97.28087   z "
     id="path54" />
  <path
     style="fill:#000000;fill-rule:evenodd;fill-opacity:1;stroke:none;"
     d="  M 115.07851,112.05161   L 112.03981,97.28087   L 115.67826,97.440987   z "
     id="path55" />
  <path
     style="fill:none;stroke:#000000;stroke-width:0.9595902px;stroke-linecap:round;stroke-linejoin:round;stroke-miterlimit:4;stroke-dasharray:none;stroke-opacity:1;"
     d="  M 262.21568,129.66442   L 257.49769,134.82817  "
     id="path56" />
  <path
     style="fill:none;stroke:#000000;stroke-width:0.9595902px;stroke-linecap:round;stroke-linejoin:round;stroke-miterlimit:4;stroke-dasharray:none;stroke-opacity:1;"
     d="  M 235.38713,104.8864   L 230.62917,110.05015  "
     id="path57" />
  <path
     style="fill:none;stroke:#000000;stroke-width:0.9595902px;stroke-linecap:round;stroke-linejoin:round;stroke-miterlimit:4;stroke-dasharray:none;stroke-opacity:1;"
     d="  M 267.81329,134.38785   L 230.22934,99.722646  "
     id="path58" />
  <path
     style="fill:#000000;fill-rule:evenodd;fill-opacity:1;stroke:none;"
     d="  M 255.05873,127.90313   L 255.21867,131.58581   L 269.6525,127.3027   z "
     id="path59" />
  <path
     style="fill:#000000;fill-rule:evenodd;fill-opacity:1;stroke:none;"
     d="  M 255.21867,131.58581   L 269.6525,127.3027   L 269.81243,130.94535   z "
     id="path60" />
  <path
     style="fill:#000000;fill-rule:evenodd;fill-opacity:1;stroke:none;"
     d="  M 242.94391,106.20736   L 242.82396,102.52468   L 228.39012,106.8078   z "
     id="path61" />
  <path
     style="fill:#000000;fill-rule:evenodd;fill-opacity:1;stroke:none;"
     d="  M 242.82396,102.52468   L 228.39012,106.8078   L 228.23019,103.12512   z "
     id="path62" />
  <path
     style="fill:#000000;fill-rule:evenodd;fill-opacity:1;stroke:none;"
     d="  M 32.153926,39.478845   L 40.27046,51.887867   L 28.595446,42.761231   z "
     id="path63" />
  <path
     style="fill:none;stroke:#000000;stroke-width:0.9595902px;stroke-linecap:round;stroke-linejoin:round;stroke-miterlimit:4;stroke-dasharray:none;stroke-opacity:1;"
     d="  M 30.354695,41.120038   L 0.44746675,8.5363473  "
     id="path64" />
  <path
     style="fill:#000000;fill-rule:evenodd;fill-opacity:1;stroke:none;"
     d="  M 318.63158,42.761231   L 306.95657,51.887867   L 315.03312,39.478845   z "
     id="path65" />
  <path
     style="fill:none;stroke:#000000;stroke-width:0.9595902px;stroke-linecap:round;stroke-linejoin:round;stroke-miterlimit:4;stroke-dasharray:none;stroke-opacity:1;"
     d="  M 316.83235,41.120038   L 346.77956,8.5363473  "
     id="path66" />
  <path
     style="fill:none;stroke:#000000;stroke-width:0.9595902px;stroke-linecap:round;stroke-linejoin:round;stroke-miterlimit:4;stroke-dasharray:none;stroke-opacity:1;"
     d="  M 468.36764,236.30195   L 468.36764,175.05742  "
     id="path67" />
  <path
     style="fill:none;stroke:#000000;stroke-width:0.9595902px;stroke-linecap:round;stroke-linejoin:round;stroke-miterlimit:4;stroke-dasharray:none;stroke-opacity:1;"
     d="  M 468.36764,156.76412   L 468.36764,138.47082  "
     id="path68" />
  <path
     style="fill:none;stroke:#000000;stroke-width:0.9595902px;stroke-linecap:round;stroke-linejoin:round;stroke-miterlimit:4;stroke-dasharray:none;stroke-opacity:1;"
     d="  M 468.36764,120.17752   L 468.36764,58.973018  "
     id="path69" />
  <path
     style="fill:#000000;fill-rule:evenodd;fill-opacity:1;stroke:none;"
     d="  M 485.52031,168.81288   L 487.71937,168.81288   L 485.52031,58.973018   z "
     id="path70" />
  <path
     style="fill:#000000;fill-rule:evenodd;fill-opacity:1;stroke:none;"
     d="  M 487.71937,168.81288   L 485.52031,58.973018   L 487.71937,58.973018   z "
     id="path71" />
  <path
     style="fill:#000000;fill-rule:evenodd;fill-opacity:1;stroke:none;"
     d="  M 449.0159,168.81288   L 451.21496,168.81288   L 449.0159,58.973018   z "
     id="path72" />
  <path
     style="fill:#000000;fill-rule:evenodd;fill-opacity:1;stroke:none;"
     d="  M 451.21496,168.81288   L 449.0159,58.973018   L 451.21496,58.973018   z "
     id="path73" />
  <path
     style="fill:#000000;fill-rule:evenodd;fill-opacity:1;stroke:none;"
     d="  M 496.47563,227.33543   L 498.63471,227.33543   L 496.47563,168.81288   z "
     id="path74" />
  <path
     style="fill:#000000;fill-rule:evenodd;fill-opacity:1;stroke:none;"
     d="  M 498.63471,227.33543   L 496.47563,168.81288   L 498.63471,168.81288   z "
     id="path75" />
  <path
     style="fill:#000000;fill-rule:evenodd;fill-opacity:1;stroke:none;"
     d="  M 502.31314,227.33543   L 504.47222,227.33543   L 502.31314,168.81288   z "
     id="path76" />
  <path
     style="fill:#000000;fill-rule:evenodd;fill-opacity:1;stroke:none;"
     d="  M 504.47222,227.33543   L 502.31314,168.81288   L 504.47222,168.81288   z "
     id="path77" />
  <path
     style="fill:#000000;fill-rule:evenodd;fill-opacity:1;stroke:none;"
     d="  M 489.15876,220.0101   L 491.35782,220.0101   L 489.15876,176.1382   z "
     id="path78" />
  <path
     style="fill:#000000;fill-rule:evenodd;fill-opacity:1;stroke:none;"
     d="  M 491.35782,220.0101   L 489.15876,176.1382   L 491.35782,176.1382   z "
     id="path79" />
  <path
     style="fill:#000000;fill-rule:evenodd;fill-opacity:1;stroke:none;"
     d="  M 438.06058,227.33543   L 440.25964,227.33543   L 438.06058,168.81288   z "
     id="path80" />
  <path
     style="fill:#000000;fill-rule:evenodd;fill-opacity:1;stroke:none;"
     d="  M 440.25964,227.33543   L 438.06058,168.81288   L 440.25964,168.81288   z "
     id="path81" />
  <path
     style="fill:#000000;fill-rule:evenodd;fill-opacity:1;stroke:none;"
     d="  M 432.22307,227.33543   L 434.42214,227.33543   L 432.22307,168.81288   z "
     id="path82" />
  <path
     style="fill:#000000;fill-rule:evenodd;fill-opacity:1;stroke:none;"
     d="  M 434.42214,227.33543   L 432.22307,168.81288   L 434.42214,168.81288   z "
     id="path83" />
  <path
     style="fill:#000000;fill-rule:evenodd;fill-opacity:1;stroke:none;"
     d="  M 445.37746,220.0101   L 447.53653,220.0101   L 445.37746,176.1382   z "
     id="path84" />
  <path
     style="fill:#000000;fill-rule:evenodd;fill-opacity:1;stroke:none;"
     d="  M 447.53653,220.0101   L 445.37746,176.1382   L 447.53653,176.1382   z "
     id="path85" />
  <path
     style="fill:none;stroke:#000000;stroke-width:0.9595902px;stroke-linecap:round;stroke-linejoin:round;stroke-miterlimit:4;stroke-dasharray:none;stroke-opacity:1;"
     d="  M 429.66417,58.973018   L 458.8517,58.973018   L 463.96952,42.881318   L 472.72578,75.064718   L 477.84359,58.973018   L 507.03113,58.973018  "
     id="path86" />
  <path
     style="fill:none;stroke:#000000;stroke-width:0.9595902px;stroke-linecap:round;stroke-linejoin:round;stroke-miterlimit:4;stroke-dasharray:none;stroke-opacity:1;"
     d="  M 490.2383,194.39148   L 490.2383,194.75174  "
     id="path87" />
  <path
     style="fill:none;stroke:#000000;stroke-width:0.9595902px;stroke-linecap:round;stroke-linejoin:round;stroke-miterlimit:4;stroke-dasharray:none;stroke-opacity:1;"
     d="  M 497.55517,194.31142   L 497.55517,194.75174  "
     id="path88" />
  <path
     style="fill:none;stroke:#000000;stroke-width:0.9595902px;stroke-linecap:round;stroke-linejoin:round;stroke-miterlimit:4;stroke-dasharray:none;stroke-opacity:1;"
     d="  M 490.2383,187.46644   L 482.96141,187.46644  "
     id="path89" />
  <path
     style="fill:none;stroke:#000000;stroke-width:0.9595902px;stroke-linecap:round;stroke-linejoin:round;stroke-miterlimit:4;stroke-dasharray:none;stroke-opacity:1;"
     d="  M 497.55517,187.46644   L 504.87205,187.46644  "
     id="path90" />
  <path
     style="fill:none;stroke:#000000;stroke-width:0.9595902px;stroke-linecap:round;stroke-linejoin:round;stroke-miterlimit:4;stroke-dasharray:none;stroke-opacity:1;"
     d="  M 510.94945,166.97154   L 510.94945,181.34199   L 511.5492,183.86382   L 512.7087,184.70443   L 513.90819,184.70443  "
     id="path91" />
  <path
     style="fill:none;stroke:#000000;stroke-width:0.9595902px;stroke-linecap:round;stroke-linejoin:round;stroke-miterlimit:4;stroke-dasharray:none;stroke-opacity:1;"
     d="  M 509.1902,172.89585   L 513.30845,172.89585  "
     id="path92" />
  <path
     style="fill:none;stroke:#000000;stroke-width:0.9595902px;stroke-linecap:round;stroke-linejoin:round;stroke-miterlimit:4;stroke-dasharray:none;stroke-opacity:1;"
     d="  M 490.2383,187.46644   L 497.55517,187.46644  "
     id="path93" />
  <path
     style="fill:#000000;fill-rule:evenodd;fill-opacity:1;stroke:none;"
     d="  M 483.80105,191.34926   L 486.39994,193.91113   L 494.11664,180.98173   z "
     id="path94" />
  <path
     style="fill:#000000;fill-rule:evenodd;fill-opacity:1;stroke:none;"
     d="  M 486.39994,193.91113   L 494.11664,180.98173   L 496.71553,183.58362   z "
     id="path95" />
  <path
     style="fill:#000000;fill-rule:evenodd;fill-opacity:1;stroke:none;"
     d="  M 503.99242,183.58362   L 501.43352,180.98173   L 493.67683,193.91113   z "
     id="path96" />
  <path
     style="fill:#000000;fill-rule:evenodd;fill-opacity:1;stroke:none;"
     d="  M 501.43352,180.98173   L 493.67683,193.91113   L 491.11792,191.34926   z "
     id="path97" />
  <path
     style="fill:none;stroke:#000000;stroke-width:0.9595902px;stroke-linecap:round;stroke-linejoin:round;stroke-miterlimit:4;stroke-dasharray:none;stroke-opacity:1;"
     d="  M 439.14012,245.62873   L 439.14012,288.74007  "
     id="path98" />
  <path
     style="fill:none;stroke:#000000;stroke-width:0.9595902px;stroke-linecap:round;stroke-linejoin:round;stroke-miterlimit:4;stroke-dasharray:none;stroke-opacity:1;"
     d="  M 497.55517,245.62873   L 497.55517,288.74007  "
     id="path99" />
  <path
     style="fill:none;stroke:#000000;stroke-width:0.9595902px;stroke-linecap:round;stroke-linejoin:round;stroke-miterlimit:4;stroke-dasharray:none;stroke-opacity:1;"
     d="  M 431.86323,281.41475   L 504.87205,281.41475  "
     id="path100" />
  <path
     style="fill:#000000;fill-rule:evenodd;fill-opacity:1;stroke:none;"
     d="  M 445.61735,277.53192   L 443.01846,274.97006   L 435.30176,287.89946   z "
     id="path101" />
  <path
     style="fill:#000000;fill-rule:evenodd;fill-opacity:1;stroke:none;"
     d="  M 443.01846,274.97006   L 435.30176,287.89946   L 432.70287,285.29757   z "
     id="path102" />
  <path
     style="fill:#000000;fill-rule:evenodd;fill-opacity:1;stroke:none;"
     d="  M 491.11792,285.29757   L 493.67683,287.89946   L 501.43352,274.97006   z "
     id="path103" />
  <path
     style="fill:#000000;fill-rule:evenodd;fill-opacity:1;stroke:none;"
     d="  M 493.67683,287.89946   L 501.43352,274.97006   L 503.99242,277.53192   z "
     id="path104" />
  <path
     style="fill:none;stroke:#000000;stroke-width:0.9595902px;stroke-linecap:round;stroke-linejoin:round;stroke-miterlimit:4;stroke-dasharray:none;stroke-opacity:1;"
     d="  M 464.80916,272.4082   L 464.80916,254.67531  "
     id="path105" />
  <path
     style="fill:none;stroke:#000000;stroke-width:0.9595902px;stroke-linecap:round;stroke-linejoin:round;stroke-miterlimit:4;stroke-dasharray:none;stroke-opacity:1;"
     d="  M 464.80916,263.12145   L 466.00865,261.44022   L 467.16815,260.59961   L 468.9274,260.59961   L 470.12689,261.44022   L 471.28639,263.12145   L 471.88614,265.68331   L 471.88614,267.36453   L 471.28639,269.88637   L 470.12689,271.56759   L 468.9274,272.4082   L 467.16815,272.4082   L 466.00865,271.56759   L 464.80916,269.88637  "
     id="path106" />
  <path
     style="fill:none;stroke:#000000;stroke-width:0.9595902px;stroke-linecap:round;stroke-linejoin:round;stroke-miterlimit:4;stroke-dasharray:none;stroke-opacity:1;"
     d="  M 433.30261,245.62873   L 433.30261,288.74007  "
     id="path107" />
  <path
     style="fill:none;stroke:#000000;stroke-width:0.9595902px;stroke-linecap:round;stroke-linejoin:round;stroke-miterlimit:4;stroke-dasharray:none;stroke-opacity:1;"
     d="  M 439.14012,245.62873   L 439.14012,288.74007  "
     id="path108" />
  <path
     style="fill:none;stroke:#000000;stroke-width:0.9595902px;stroke-linecap:round;stroke-linejoin:round;stroke-miterlimit:4;stroke-dasharray:none;stroke-opacity:1;"
     d="  M 433.30261,281.41475   L 426.02572,281.41475  "
     id="path109" />
  <path
     style="fill:none;stroke:#000000;stroke-width:0.9595902px;stroke-linecap:round;stroke-linejoin:round;stroke-miterlimit:4;stroke-dasharray:none;stroke-opacity:1;"
     d="  M 439.14012,281.41475   L 446.457,281.41475  "
     id="path110" />
  <path
     style="fill:none;stroke:#000000;stroke-width:0.9595902px;stroke-linecap:round;stroke-linejoin:round;stroke-miterlimit:4;stroke-dasharray:none;stroke-opacity:1;"
     d="  M 433.30261,281.41475   L 439.14012,281.41475  "
     id="path111" />
  <path
     style="fill:#000000;fill-rule:evenodd;fill-opacity:1;stroke:none;"
     d="  M 426.86536,285.29757   L 429.46425,287.89946   L 437.18096,274.97006   z "
     id="path112" />
  <path
     style="fill:#000000;fill-rule:evenodd;fill-opacity:1;stroke:none;"
     d="  M 429.46425,287.89946   L 437.18096,274.97006   L 439.77985,277.53192   z "
     id="path113" />
  <path
     style="fill:#000000;fill-rule:evenodd;fill-opacity:1;stroke:none;"
     d="  M 445.61735,277.53192   L 443.01846,274.97006   L 435.30176,287.89946   z "
     id="path114" />
  <path
     style="fill:#000000;fill-rule:evenodd;fill-opacity:1;stroke:none;"
     d="  M 443.01846,274.97006   L 435.30176,287.89946   L 432.70287,285.29757   z "
     id="path115" />
  <path
     style="fill:none;stroke:#000000;stroke-width:0.9595902px;stroke-linecap:round;stroke-linejoin:round;stroke-miterlimit:4;stroke-dasharray:none;stroke-opacity:1;"
     d="  M 497.55517,245.62873   L 497.55517,288.74007  "
     id="path116" />
  <path
     style="fill:none;stroke:#000000;stroke-width:0.9595902px;stroke-linecap:round;stroke-linejoin:round;stroke-miterlimit:4;stroke-dasharray:none;stroke-opacity:1;"
     d="  M 503.39268,245.62873   L 503.39268,288.74007  "
     id="path117" />
  <path
     style="fill:none;stroke:#000000;stroke-width:0.9595902px;stroke-linecap:round;stroke-linejoin:round;stroke-miterlimit:4;stroke-dasharray:none;stroke-opacity:1;"
     d="  M 497.55517,281.41475   L 490.2383,281.41475  "
     id="path118" />
  <path
     style="fill:none;stroke:#000000;stroke-width:0.9595902px;stroke-linecap:round;stroke-linejoin:round;stroke-miterlimit:4;stroke-dasharray:none;stroke-opacity:1;"
     d="  M 503.39268,281.41475   L 510.70956,281.41475  "
     id="path119" />
  <path
     style="fill:none;stroke:#000000;stroke-width:0.9595902px;stroke-linecap:round;stroke-linejoin:round;stroke-miterlimit:4;stroke-dasharray:none;stroke-opacity:1;"
     d="  M 497.55517,281.41475   L 503.39268,281.41475  "
     id="path120" />
  <path
     style="fill:#000000;fill-rule:evenodd;fill-opacity:1;stroke:none;"
     d="  M 491.11792,285.29757   L 493.67683,287.89946   L 501.43352,274.97006   z "
     id="path121" />
  <path
     style="fill:#000000;fill-rule:evenodd;fill-opacity:1;stroke:none;"
     d="  M 493.67683,287.89946   L 501.43352,274.97006   L 503.99242,277.53192   z "
     id="path122" />
  <path
     style="fill:#000000;fill-rule:evenodd;fill-opacity:1;stroke:none;"
     d="  M 509.82993,277.53192   L 507.27102,274.97006   L 499.51434,287.89946   z "
     id="path123" />
  <path
     style="fill:#000000;fill-rule:evenodd;fill-opacity:1;stroke:none;"
     d="  M 507.27102,274.97006   L 499.51434,287.89946   L 496.95543,285.29757   z "
     id="path124" />
  <path
     style="fill:none;stroke:#000000;stroke-width:0.9595902px;stroke-linecap:round;stroke-linejoin:round;stroke-miterlimit:4;stroke-dasharray:none;stroke-opacity:1;"
     d="  M 358.01477,168.81288   L 395.1589,168.81288  "
     id="path125" />
  <path
     style="fill:none;stroke:#000000;stroke-width:0.9595902px;stroke-linecap:round;stroke-linejoin:round;stroke-miterlimit:4;stroke-dasharray:none;stroke-opacity:1;"
     d="  M 358.01477,227.33543   L 395.1589,227.33543  "
     id="path126" />
  <path
     style="fill:none;stroke:#000000;stroke-width:0.9595902px;stroke-linecap:round;stroke-linejoin:round;stroke-miterlimit:4;stroke-dasharray:none;stroke-opacity:1;"
     d="  M 387.88201,161.48755   L 387.88201,234.62073  "
     id="path127" />
  <path
     style="fill:#000000;fill-rule:evenodd;fill-opacity:1;stroke:none;"
     d="  M 391.76035,175.25756   L 394.31926,172.6957   L 381.40478,164.93006   z "
     id="path128" />
  <path
     style="fill:#000000;fill-rule:evenodd;fill-opacity:1;stroke:none;"
     d="  M 394.31926,172.6957   L 381.40478,164.93006   L 384.00367,162.32816   z "
     id="path129" />
  <path
     style="fill:#000000;fill-rule:evenodd;fill-opacity:1;stroke:none;"
     d="  M 384.00367,220.85071   L 381.40478,223.45261   L 394.31926,231.21825   z "
     id="path130" />
  <path
     style="fill:#000000;fill-rule:evenodd;fill-opacity:1;stroke:none;"
     d="  M 381.40478,223.45261   L 394.31926,231.21825   L 391.76035,233.78011   z "
     id="path131" />
  <path
     style="fill:none;stroke:#000000;stroke-width:0.9595902px;stroke-linecap:round;stroke-linejoin:round;stroke-miterlimit:4;stroke-dasharray:none;stroke-opacity:1;"
     d="  M 378.88585,201.31651   L 361.2134,201.31651  "
     id="path132" />
  <path
     style="fill:none;stroke:#000000;stroke-width:0.9595902px;stroke-linecap:round;stroke-linejoin:round;stroke-miterlimit:4;stroke-dasharray:none;stroke-opacity:1;"
     d="  M 370.44946,201.31651   L 367.93053,199.55523   L 367.09089,198.35436   L 367.09089,196.59308   L 367.93053,195.3922   L 370.44946,194.8318   L 378.88585,194.8318  "
     id="path133" />
  <path
     style="fill:none;stroke:#000000;stroke-width:0.9595902px;stroke-linecap:round;stroke-linejoin:round;stroke-miterlimit:4;stroke-dasharray:none;stroke-opacity:1;"
     d="  M 27.036112,19.104031   L 14.001678,7.0952996   L 32.633721,13.019607   L 19.599288,1.0108758  "
     id="path134" />
  <path
     style="fill:none;stroke:#000000;stroke-width:0.9595902px;stroke-linecap:round;stroke-linejoin:round;stroke-miterlimit:4;stroke-dasharray:none;stroke-opacity:1;"
     d="  M 31.954012,4.4133496   L 32.07396,3.6928258   L 31.714114,2.1717198   L 38.231331,8.1760854  "
     id="path135" />
  <path
     style="fill:none;stroke:#000000;stroke-width:0.9595902px;stroke-linecap:round;stroke-linejoin:round;stroke-miterlimit:4;stroke-dasharray:none;stroke-opacity:1;"
     d="  M 311.59459,12.459199   L 324.58904,0.45046836   L 317.1922,18.543623   L 330.18665,6.5348921  "
     id="path136" />
  <path
     style="fill:none;stroke:#000000;stroke-width:0.9595902px;stroke-linecap:round;stroke-linejoin:round;stroke-miterlimit:4;stroke-dasharray:none;stroke-opacity:1;"
     d="  M 324.9089,18.22339   L 325.22877,17.943187   L 326.02843,17.582925   L 326.5482,17.542896   L 327.2679,17.662983   L 328.06755,18.543623   L 328.14752,19.264147   L 328.02757,19.784525   L 327.62774,20.545078   L 326.98802,21.145515   L 326.18836,21.505777   L 324.82894,21.906068   L 319.75111,22.586563   L 322.54991,25.628775  "
     id="path137" />
  <path
     style="fill:none;stroke:#000000;stroke-width:0.9595902px;stroke-linecap:round;stroke-linejoin:round;stroke-miterlimit:4;stroke-dasharray:none;stroke-opacity:1;"
     d="  M 112.43964,81.469374   L 126.27373,70.421342  "
     id="path138" />
  <path
     style="fill:none;stroke:#000000;stroke-width:0.9595902px;stroke-linecap:round;stroke-linejoin:round;stroke-miterlimit:4;stroke-dasharray:none;stroke-opacity:1;"
     d="  M 119.03682,76.225562   L 122.11551,76.025416   L 123.51491,76.425707   L 124.59445,77.826726   L 124.67441,79.267774   L 123.0751,81.309258   L 116.47792,86.553071  "
     id="path139" />
  <path
     style="fill:none;stroke:#000000;stroke-width:0.9595902px;stroke-linecap:round;stroke-linejoin:round;stroke-miterlimit:4;stroke-dasharray:none;stroke-opacity:1;"
     d="  M 125.11423,87.233565   L 125.79394,87.433711   L 127.35327,87.353653   L 120.43622,92.877669  "
     id="path140" />
  <path
     style="fill:none;stroke:#000000;stroke-width:0.9595902px;stroke-linecap:round;stroke-linejoin:round;stroke-miterlimit:4;stroke-dasharray:none;stroke-opacity:1;"
     d="  M 144.30603,91.236476   L 144.10612,92.957727   L 143.86622,93.438076   L 143.38642,93.958455  "
     id="path141" />
  <path
     style="fill:none;stroke:#000000;stroke-width:0.9595902px;stroke-linecap:round;stroke-linejoin:round;stroke-miterlimit:4;stroke-dasharray:none;stroke-opacity:1;"
     d="  M 142.98659,88.754671   L 142.82666,89.635312   L 142.46682,89.755399   L 139.06827,92.957727   L 137.5889,94.438804   L 136.30945,95.599648   L 135.26989,96.760492   L 134.19035,97.921336   L 133.35071,99.08218   L 132.4311,100.40314   L 131.79138,101.84419   L 131.31158,103.16515   L 131.11167,104.56617   L 131.07168,105.36675   L 131.23161,105.8471   L 135.14994,102.44462   L 131.35156,105.44681  "
     id="path142" />
  <path
     style="fill:none;stroke:#000000;stroke-width:0.9595902px;stroke-linecap:round;stroke-linejoin:round;stroke-miterlimit:4;stroke-dasharray:none;stroke-opacity:1;"
     d="  M 139.26818,96.800521   L 138.58847,97.360929   L 137.06912,97.961365   L 135.34986,98.561802   L 133.91047,98.922064   L 132.15122,99.242296   L 130.19206,99.562529   L 128.59274,99.762675   L 126.27373,99.922791  "
     id="path143" />
  <path
     style="fill:none;stroke:#000000;stroke-width:0.9595902px;stroke-linecap:round;stroke-linejoin:round;stroke-miterlimit:4;stroke-dasharray:none;stroke-opacity:1;"
     d="  M 125.07424,95.319444   L 125.27416,95.599648   L 131.0317,98.121482  "
     id="path144" />
  <path
     style="fill:none;stroke:#000000;stroke-width:0.9595902px;stroke-linecap:round;stroke-linejoin:round;stroke-miterlimit:4;stroke-dasharray:none;stroke-opacity:1;"
     d="  M 133.75054,90.716097   L 132.95088,91.636767   L 131.15165,93.237931   L 128.99257,94.999211   L 130.11209,94.198629   L 132.39112,95.95991   L 132.1912,95.679706   L 136.1895,93.237931   L 135.86963,93.638222   L 133.07083,91.556709  "
     id="path145" />
  <path
     style="fill:none;stroke:#000000;stroke-width:0.9595902px;stroke-linecap:round;stroke-linejoin:round;stroke-miterlimit:4;stroke-dasharray:none;stroke-opacity:1;"
     d="  M 134.39027,88.194264   L 134.35028,88.674613   L 134.63016,88.754671   L 142.82666,95.51959   L 142.54678,95.119299   L 142.10697,94.839095  "
     id="path146" />
  <path
     style="fill:none;stroke:#000000;stroke-width:0.9595902px;stroke-linecap:round;stroke-linejoin:round;stroke-miterlimit:4;stroke-dasharray:none;stroke-opacity:1;"
     d="  M 150.90321,101.36384   L 137.06912,112.41187  "
     id="path147" />
  <path
     style="fill:none;stroke:#000000;stroke-width:0.9595902px;stroke-linecap:round;stroke-linejoin:round;stroke-miterlimit:4;stroke-dasharray:none;stroke-opacity:1;"
     d="  M 144.30603,106.64768   L 144.90577,104.64623   L 144.82581,103.20518   L 143.70629,101.84419   L 142.34687,101.4439   L 140.26776,101.56398   L 137.94875,102.6848   L 136.62931,103.72556   L 134.99001,105.76704   L 134.43025,107.72847   L 134.51021,109.20954   L 135.58975,110.57053   L 136.98916,110.97082   L 139.06827,110.85074  "
     id="path148" />
  <path
     style="fill:none;stroke:#000000;stroke-width:0.9595902px;stroke-linecap:round;stroke-linejoin:round;stroke-miterlimit:4;stroke-dasharray:none;stroke-opacity:1;"
     d="  M 145.3056,112.65205   L 146.0253,112.85219   L 147.54465,112.7321   L 140.6276,118.25612  "
     id="path149" />
  <path
     style="fill:none;stroke:#000000;stroke-width:0.9595902px;stroke-linecap:round;stroke-linejoin:round;stroke-miterlimit:4;stroke-dasharray:none;stroke-opacity:1;"
     d="  M 207.63898,106.76777   L 195.68409,93.71828  "
     id="path150" />
  <path
     style="fill:none;stroke:#000000;stroke-width:0.9595902px;stroke-linecap:round;stroke-linejoin:round;stroke-miterlimit:4;stroke-dasharray:none;stroke-opacity:1;"
     d="  M 201.96141,100.52323   L 201.56158,97.481016   L 201.84146,96.039968   L 203.12091,94.839095   L 204.5603,94.678979   L 206.71938,96.120026   L 212.43694,102.36457  "
     id="path151" />
  <path
     style="fill:none;stroke:#000000;stroke-width:0.9595902px;stroke-linecap:round;stroke-linejoin:round;stroke-miterlimit:4;stroke-dasharray:none;stroke-opacity:1;"
     d="  M 212.11707,94.59892   L 211.83719,94.278688   L 211.47735,93.478106   L 211.39738,92.957727   L 211.55731,92.237203   L 212.43694,91.436621   L 213.15663,91.356563   L 213.63642,91.47665   L 214.43608,91.876941   L 214.99584,92.517407   L 215.35569,93.317989   L 215.7955,94.678979   L 216.47521,99.762675   L 219.51391,96.960638  "
     id="path152" />
  <path
     style="fill:none;stroke:#000000;stroke-width:0.9595902px;stroke-linecap:round;stroke-linejoin:round;stroke-miterlimit:4;stroke-dasharray:none;stroke-opacity:1;"
     d="  M 215.11579,74.224107   L 216.83506,74.264136   L 217.35484,74.50431   L 217.9146,74.94463  "
     id="path153" />
  <path
     style="fill:none;stroke:#000000;stroke-width:0.9595902px;stroke-linecap:round;stroke-linejoin:round;stroke-miterlimit:4;stroke-dasharray:none;stroke-opacity:1;"
     d="  M 212.71682,75.705183   L 213.63642,75.825271   L 213.79635,76.145504   L 217.1949,79.347832   L 218.79422,80.708821   L 220.03369,81.869665   L 221.27316,82.870393   L 222.51263,83.831092   L 223.71212,84.631674   L 225.11152,85.432256   L 226.55091,85.952634   L 227.91033,86.352925   L 229.30973,86.473012   L 230.10939,86.432983   L 230.58918,86.232838   L 226.91075,82.590189   L 230.18935,86.15278  "
     id="path154" />
  <path
     style="fill:none;stroke:#000000;stroke-width:0.9595902px;stroke-linecap:round;stroke-linejoin:round;stroke-miterlimit:4;stroke-dasharray:none;stroke-opacity:1;"
     d="  M 221.03326,78.867483   L 221.59303,79.507948   L 222.31272,80.948996   L 223.03241,82.630218   L 223.51221,84.071266   L 223.95202,85.792518   L 224.39183,87.713915   L 224.71169,89.315079   L 225.03156,91.596738  "
     id="path155" />
  <path
     style="fill:none;stroke:#000000;stroke-width:0.9595902px;stroke-linecap:round;stroke-linejoin:round;stroke-miterlimit:4;stroke-dasharray:none;stroke-opacity:1;"
     d="  M 220.55347,93.157873   L 220.79337,92.917698   L 222.91246,86.993391  "
     id="path156" />
  <path
     style="fill:none;stroke:#000000;stroke-width:0.9595902px;stroke-linecap:round;stroke-linejoin:round;stroke-miterlimit:4;stroke-dasharray:none;stroke-opacity:1;"
     d="  M 215.35569,84.831819   L 216.31528,85.552343   L 218.07453,87.233565   L 219.91374,89.27505   L 219.0741,88.154235   L 220.67342,85.792518   L 220.39354,86.032692   L 217.6747,82.189898   L 218.11451,82.470102   L 216.23531,85.392227  "
     id="path157" />
  <path
     style="fill:none;stroke:#000000;stroke-width:0.9595902px;stroke-linecap:round;stroke-linejoin:round;stroke-miterlimit:4;stroke-dasharray:none;stroke-opacity:1;"
     d="  M 212.79678,84.35147   L 213.27658,84.35147   L 213.35654,84.071266   L 219.47393,75.384951   L 219.11408,75.705183   L 218.87419,76.145504  "
     id="path158" />
  <path
     style="fill:none;stroke:#000000;stroke-width:0.9595902px;stroke-linecap:round;stroke-linejoin:round;stroke-miterlimit:4;stroke-dasharray:none;stroke-opacity:1;"
     d="  M 224.75168,66.898781   L 236.70657,79.948268  "
     id="path159" />
  <path
     style="fill:none;stroke:#000000;stroke-width:0.9595902px;stroke-linecap:round;stroke-linejoin:round;stroke-miterlimit:4;stroke-dasharray:none;stroke-opacity:1;"
     d="  M 230.42925,73.103292   L 228.43011,72.662972   L 226.99072,72.863117   L 225.71127,74.06399   L 225.3914,75.465009   L 225.67128,77.506493   L 226.95074,79.788152   L 228.11024,81.029054   L 230.22934,82.470102   L 232.22848,82.910422   L 233.66787,82.750306   L 234.98731,81.549433   L 235.26719,80.108385   L 235.02729,78.066901  "
     id="path160" />
  <path
     style="fill:none;stroke:#000000;stroke-width:0.9595902px;stroke-linecap:round;stroke-linejoin:round;stroke-miterlimit:4;stroke-dasharray:none;stroke-opacity:1;"
     d="  M 235.98688,72.582913   L 235.707,72.262681   L 235.34715,71.462098   L 235.26719,70.94172   L 235.42712,70.221196   L 236.30674,69.420614   L 237.02643,69.340556   L 237.50623,69.460643   L 238.30589,69.860934   L 238.86565,70.5014   L 239.2255,71.301982   L 239.62532,72.662972   L 240.34502,77.746668   L 243.34374,74.94463  "
     id="path161" />
  <path
     style="fill:none;stroke:#000000;stroke-width:0.9595902px;stroke-linecap:round;stroke-linejoin:round;stroke-miterlimit:4;stroke-dasharray:none;stroke-opacity:1;"
     d="  M 174.813,277.85216   L 174.813,260.15929  "
     id="path162" />
  <path
     style="fill:none;stroke:#000000;stroke-width:0.9595902px;stroke-linecap:round;stroke-linejoin:round;stroke-miterlimit:4;stroke-dasharray:none;stroke-opacity:1;"
     d="  M 179.53099,272.80849   L 179.53099,281.65492  "
     id="path163" />
  <path
     style="fill:none;stroke:#000000;stroke-width:0.9595902px;stroke-linecap:round;stroke-linejoin:round;stroke-miterlimit:4;stroke-dasharray:none;stroke-opacity:1;"
     d="  M 179.53099,274.04939   L 180.13073,273.20878   L 180.69049,272.80849   L 181.57012,272.80849   L 182.16986,273.20878   L 182.7696,274.04939   L 183.04949,275.33032   L 183.04949,276.17094   L 182.7696,277.45187   L 182.16986,278.29248   L 181.57012,278.69277   L 180.69049,278.69277   L 180.13073,278.29248   L 179.53099,277.45187  "
     id="path164" />
  <path
     style="fill:none;stroke:#000000;stroke-width:0.9595902px;stroke-linecap:round;stroke-linejoin:round;stroke-miterlimit:4;stroke-dasharray:none;stroke-opacity:1;"
     d="  M 414.67057,278.97297   L 414.67057,293.30339   L 415.23033,295.82523   L 416.42982,296.66584   L 417.58932,296.66584  "
     id="path165" />
  <path
     style="fill:none;stroke:#000000;stroke-width:0.9595902px;stroke-linecap:round;stroke-linejoin:round;stroke-miterlimit:4;stroke-dasharray:none;stroke-opacity:1;"
     d="  M 412.87134,284.85725   L 417.02956,284.85725  "
     id="path166" />
  <path
     style="fill:none;stroke:#000000;stroke-width:0.9595902px;stroke-linecap:round;stroke-linejoin:round;stroke-miterlimit:4;stroke-dasharray:none;stroke-opacity:1;"
     d="  M 421.1478,291.62217   L 421.1478,300.4686  "
     id="path167" />
  <path
     style="fill:none;stroke:#000000;stroke-width:0.9595902px;stroke-linecap:round;stroke-linejoin:round;stroke-miterlimit:4;stroke-dasharray:none;stroke-opacity:1;"
     d="  M 421.1478,292.86307   L 421.74755,292.02246   L 422.30731,291.62217   L 423.22692,291.62217   L 423.78668,292.02246   L 424.38642,292.86307   L 424.6663,294.144   L 424.6663,294.98461   L 424.38642,296.26555   L 423.78668,297.10616   L 423.22692,297.50645   L 422.30731,297.50645   L 421.74755,297.10616   L 421.1478,296.26555  "
     id="path168" />
  <path
     style="fill:none;stroke:#000000;stroke-width:0.9595902px;stroke-linecap:round;stroke-linejoin:round;stroke-miterlimit:4;stroke-dasharray:none;stroke-opacity:1;"
     d="  M 513.38841,279.25318   L 513.38841,293.5836   L 513.98816,296.10543   L 515.14766,296.94604   L 516.34715,296.94604  "
     id="path169" />
  <path
     style="fill:none;stroke:#000000;stroke-width:0.9595902px;stroke-linecap:round;stroke-linejoin:round;stroke-miterlimit:4;stroke-dasharray:none;stroke-opacity:1;"
     d="  M 511.62916,285.13745   L 515.7474,285.13745  "
     id="path170" />
  <path
     style="fill:none;stroke:#000000;stroke-width:0.9595902px;stroke-linecap:round;stroke-linejoin:round;stroke-miterlimit:4;stroke-dasharray:none;stroke-opacity:1;"
     d="  M 519.86565,291.90237   L 519.86565,300.7488  "
     id="path171" />
  <path
     style="fill:none;stroke:#000000;stroke-width:0.9595902px;stroke-linecap:round;stroke-linejoin:round;stroke-miterlimit:4;stroke-dasharray:none;stroke-opacity:1;"
     d="  M 519.86565,293.1833   L 520.46539,292.30266   L 521.06513,291.90237   L 521.94476,291.90237   L 522.5445,292.30266   L 523.10426,293.1833   L 523.42413,294.42421   L 523.42413,295.26482   L 523.10426,296.54575   L 522.5445,297.38636   L 521.94476,297.78665   L 521.06513,297.78665   L 520.46539,297.38636   L 519.86565,296.54575  "
     id="path172" />
</svg>
