<?xml version="1.0" encoding="UTF-8" standalone="no"?>
<svg
   version="1.0"
   width="30.83mm"
   height="27.66mm"
   id="svg159"
   sodipodi:docname="image1159.emf"
   xmlns:inkscape="http://www.inkscape.org/namespaces/inkscape"
   xmlns:sodipodi="http://sodipodi.sourceforge.net/DTD/sodipodi-0.dtd"
   xmlns="http://www.w3.org/2000/svg"
   xmlns:svg="http://www.w3.org/2000/svg">
  <sodipodi:namedview
     id="namedview159"
     pagecolor="#ffffff"
     bordercolor="#000000"
     borderopacity="0.25"
     inkscape:showpageshadow="2"
     inkscape:pageopacity="0.0"
     inkscape:pagecheckerboard="0"
     inkscape:deskcolor="#d1d1d1"
     inkscape:document-units="mm" />
  <defs
     id="defs1">
    <pattern
       id="EMFhbasepattern"
       patternUnits="userSpaceOnUse"
       width="6"
       height="6"
       x="0"
       y="0" />
  </defs>
  <path
     style="fill:none;stroke:#000000;stroke-width:0.035628594px;stroke-linecap:round;stroke-linejoin:round;stroke-miterlimit:4;stroke-dasharray:none;stroke-opacity:1;"
     d="  M 64.682988,15.722951   L 90.798747,15.722951  "
     id="path1" />
  <path
     style="fill:none;stroke:#000000;stroke-width:0.035628594px;stroke-linecap:round;stroke-linejoin:round;stroke-miterlimit:4;stroke-dasharray:none;stroke-opacity:1;"
     d="  M 90.798747,15.722951   L 90.798747,24.648307  "
     id="path2" />
  <path
     style="fill:none;stroke:#000000;stroke-width:0.035628594px;stroke-linecap:round;stroke-linejoin:round;stroke-miterlimit:4;stroke-dasharray:none;stroke-opacity:1;"
     d="  M 90.798747,24.648307   L 64.682988,24.648307  "
     id="path3" />
  <path
     style="fill:none;stroke:#000000;stroke-width:0.035628594px;stroke-linecap:round;stroke-linejoin:round;stroke-miterlimit:4;stroke-dasharray:none;stroke-opacity:1;"
     d="  M 53.566866,-0.37136506   L 60.799471,-0.37136506  "
     id="path4" />
  <path
     style="fill:none;stroke:#000000;stroke-width:0.035628594px;stroke-linecap:round;stroke-linejoin:round;stroke-miterlimit:4;stroke-dasharray:none;stroke-opacity:1;"
     d="  M 60.799471,-0.37136506   L 60.799471,40.742622  "
     id="path5" />
  <path
     style="fill:none;stroke:#000000;stroke-width:0.035628594px;stroke-linecap:round;stroke-linejoin:round;stroke-miterlimit:4;stroke-dasharray:none;stroke-opacity:1;"
     d="  M 53.566866,40.742622   L 53.566866,-0.37136506  "
     id="path6" />
  <path
     style="fill:none;stroke:#000000;stroke-width:0.035628594px;stroke-linecap:round;stroke-linejoin:round;stroke-miterlimit:4;stroke-dasharray:none;stroke-opacity:1;"
     d="  M 64.682988,15.758796   L 64.682988,15.507882   L 64.61173,15.185279   L 64.433587,14.826831   L 64.184187,14.468383   L 63.827901,14.07409   L 63.400358,13.679797   L 62.901558,13.285504   L 62.367129,12.927056   L 61.8327,12.640298   L 61.298271,12.35354   L 60.799471,12.174316  "
     id="path7" />
  <path
     style="fill:none;stroke:#000000;stroke-width:0.035628594px;stroke-linecap:round;stroke-linejoin:round;stroke-miterlimit:4;stroke-dasharray:none;stroke-opacity:1;"
     d="  M 64.682988,15.758796   L 60.799471,18.662225  "
     id="path8" />
  <path
     style="fill:none;stroke:#000000;stroke-width:0.035628594px;stroke-linecap:round;stroke-linejoin:round;stroke-miterlimit:4;stroke-dasharray:none;stroke-opacity:1;"
     d="  M 97.105008,20.203551   L 109.53939,20.203551  "
     id="path9" />
  <path
     style="fill:#000000;fill-rule:evenodd;fill-opacity:1;stroke:none;"
     d="  M 109.53939,17.586881   L 109.53939,20.203551   L 114.70553,20.203551   z "
     id="path10" />
  <path
     style="fill:#000000;fill-rule:evenodd;fill-opacity:1;stroke:none;"
     d="  M 109.53939,20.203551   L 114.70553,20.203551   L 109.53939,22.784377   z "
     id="path11" />
  <path
     style="fill:none;stroke:#000000;stroke-width:0.035628594px;stroke-linecap:round;stroke-linejoin:round;stroke-miterlimit:4;stroke-dasharray:none;stroke-opacity:1;"
     d="  M 114.70553,20.203551   L 109.53939,17.586881  "
     id="path12" />
  <path
     style="fill:none;stroke:#000000;stroke-width:0.035628594px;stroke-linecap:round;stroke-linejoin:round;stroke-miterlimit:4;stroke-dasharray:none;stroke-opacity:1;"
     d="  M 114.70553,20.203551   L 109.53939,22.784377  "
     id="path13" />
  <path
     style="fill:none;stroke:#000000;stroke-width:0.035628594px;stroke-linecap:round;stroke-linejoin:round;stroke-miterlimit:4;stroke-dasharray:none;stroke-opacity:1;"
     d="  M 109.53939,22.784377   L 109.53939,17.586881  "
     id="path14" />
  <path
     style="fill:none;stroke:#000000;stroke-width:0.035628594px;stroke-linecap:round;stroke-linejoin:round;stroke-miterlimit:4;stroke-dasharray:none;stroke-opacity:1;"
     d="  M 60.799471,40.742622   L 53.566866,40.742622  "
     id="path15" />
  <path
     style="fill:none;stroke:#000000;stroke-width:0.035628594px;stroke-linecap:round;stroke-linejoin:round;stroke-miterlimit:4;stroke-dasharray:none;stroke-opacity:1;"
     d="  M 64.682988,24.648307   L 64.682988,24.89922   L 64.61173,25.221823   L 64.433587,25.544427   L 64.184187,25.938719   L 63.827901,26.333012   L 63.400358,26.727305   L 62.901558,27.121598   L 62.367129,27.444201   L 61.8327,27.766804   L 61.298271,28.017718   L 60.799471,28.232787  "
     id="path16" />
  <path
     style="fill:none;stroke:#000000;stroke-width:0.035628594px;stroke-linecap:round;stroke-linejoin:round;stroke-miterlimit:4;stroke-dasharray:none;stroke-opacity:1;"
     d="  M 64.682988,24.648307   L 60.799471,21.709033  "
     id="path17" />
  <path
     style="fill:#000000;fill-rule:evenodd;fill-opacity:1;stroke:none;"
     d="  M 60.799471,12.174316   L 60.799471,12.35354   L 61.298271,12.35354   z "
     id="path18" />
  <path
     style="fill:#000000;fill-rule:evenodd;fill-opacity:1;stroke:none;"
     d="  M 60.799471,12.35354   L 60.799471,12.640298   L 61.8327,12.640298   z "
     id="path19" />
  <path
     style="fill:#000000;fill-rule:evenodd;fill-opacity:1;stroke:none;"
     d="  M 60.799471,12.35354   L 61.298271,12.35354   L 61.8327,12.640298   z "
     id="path20" />
  <path
     style="fill:#000000;fill-rule:evenodd;fill-opacity:1;stroke:none;"
     d="  M 60.799471,12.640298   L 60.799471,12.927056   L 62.367129,12.927056   z "
     id="path21" />
  <path
     style="fill:#000000;fill-rule:evenodd;fill-opacity:1;stroke:none;"
     d="  M 60.799471,12.640298   L 61.8327,12.640298   L 62.367129,12.927056   z "
     id="path22" />
  <path
     style="fill:#000000;fill-rule:evenodd;fill-opacity:1;stroke:none;"
     d="  M 60.799471,12.927056   L 60.799471,13.285504   L 62.901558,13.285504   z "
     id="path23" />
  <path
     style="fill:#000000;fill-rule:evenodd;fill-opacity:1;stroke:none;"
     d="  M 60.799471,12.927056   L 62.367129,12.927056   L 62.901558,13.285504   z "
     id="path24" />
  <path
     style="fill:#000000;fill-rule:evenodd;fill-opacity:1;stroke:none;"
     d="  M 60.799471,13.285504   L 60.799471,13.679797   L 63.400358,13.679797   z "
     id="path25" />
  <path
     style="fill:#000000;fill-rule:evenodd;fill-opacity:1;stroke:none;"
     d="  M 60.799471,13.285504   L 62.901558,13.285504   L 63.400358,13.679797   z "
     id="path26" />
  <path
     style="fill:#000000;fill-rule:evenodd;fill-opacity:1;stroke:none;"
     d="  M 60.799471,13.679797   L 60.799471,14.07409   L 63.827901,14.07409   z "
     id="path27" />
  <path
     style="fill:#000000;fill-rule:evenodd;fill-opacity:1;stroke:none;"
     d="  M 60.799471,13.679797   L 63.400358,13.679797   L 63.827901,14.07409   z "
     id="path28" />
  <path
     style="fill:#000000;fill-rule:evenodd;fill-opacity:1;stroke:none;"
     d="  M 60.799471,14.07409   L 60.799471,14.468383   L 64.184187,14.468383   z "
     id="path29" />
  <path
     style="fill:#000000;fill-rule:evenodd;fill-opacity:1;stroke:none;"
     d="  M 60.799471,14.07409   L 63.827901,14.07409   L 64.184187,14.468383   z "
     id="path30" />
  <path
     style="fill:#000000;fill-rule:evenodd;fill-opacity:1;stroke:none;"
     d="  M 60.799471,14.468383   L 60.799471,14.826831   L 64.433587,14.826831   z "
     id="path31" />
  <path
     style="fill:#000000;fill-rule:evenodd;fill-opacity:1;stroke:none;"
     d="  M 60.799471,14.468383   L 64.184187,14.468383   L 64.433587,14.826831   z "
     id="path32" />
  <path
     style="fill:#000000;fill-rule:evenodd;fill-opacity:1;stroke:none;"
     d="  M 60.799471,14.826831   L 60.799471,15.185279   L 64.61173,15.185279   z "
     id="path33" />
  <path
     style="fill:#000000;fill-rule:evenodd;fill-opacity:1;stroke:none;"
     d="  M 60.799471,14.826831   L 64.433587,14.826831   L 64.61173,15.185279   z "
     id="path34" />
  <path
     style="fill:#000000;fill-rule:evenodd;fill-opacity:1;stroke:none;"
     d="  M 60.799471,15.185279   L 60.799471,15.507882   L 64.682988,15.507882   z "
     id="path35" />
  <path
     style="fill:#000000;fill-rule:evenodd;fill-opacity:1;stroke:none;"
     d="  M 60.799471,15.185279   L 64.61173,15.185279   L 64.682988,15.507882   z "
     id="path36" />
  <path
     style="fill:#000000;fill-rule:evenodd;fill-opacity:1;stroke:none;"
     d="  M 60.799471,15.507882   L 60.799471,15.758796   L 64.682988,15.758796   z "
     id="path37" />
  <path
     style="fill:#000000;fill-rule:evenodd;fill-opacity:1;stroke:none;"
     d="  M 60.799471,15.507882   L 64.682988,15.507882   L 64.682988,15.758796   z "
     id="path38" />
  <path
     style="fill:#000000;fill-rule:evenodd;fill-opacity:1;stroke:none;"
     d="  M 60.799471,15.758796   L 64.682988,15.758796   L 60.799471,18.662225   z "
     id="path39" />
  <path
     style="fill:#000000;fill-rule:evenodd;fill-opacity:1;stroke:none;"
     d="  M 60.799471,21.709033   L 60.799471,24.648307   L 64.682988,24.648307   z "
     id="path40" />
  <path
     style="fill:#000000;fill-rule:evenodd;fill-opacity:1;stroke:none;"
     d="  M 60.799471,24.648307   L 60.799471,24.89922   L 64.682988,24.89922   z "
     id="path41" />
  <path
     style="fill:#000000;fill-rule:evenodd;fill-opacity:1;stroke:none;"
     d="  M 60.799471,24.648307   L 64.682988,24.648307   L 64.682988,24.89922   z "
     id="path42" />
  <path
     style="fill:#000000;fill-rule:evenodd;fill-opacity:1;stroke:none;"
     d="  M 60.799471,24.89922   L 60.799471,25.221823   L 64.61173,25.221823   z "
     id="path43" />
  <path
     style="fill:#000000;fill-rule:evenodd;fill-opacity:1;stroke:none;"
     d="  M 60.799471,24.89922   L 64.682988,24.89922   L 64.61173,25.221823   z "
     id="path44" />
  <path
     style="fill:#000000;fill-rule:evenodd;fill-opacity:1;stroke:none;"
     d="  M 60.799471,25.221823   L 60.799471,25.544427   L 64.433587,25.544427   z "
     id="path45" />
  <path
     style="fill:#000000;fill-rule:evenodd;fill-opacity:1;stroke:none;"
     d="  M 60.799471,25.221823   L 64.61173,25.221823   L 64.433587,25.544427   z "
     id="path46" />
  <path
     style="fill:#000000;fill-rule:evenodd;fill-opacity:1;stroke:none;"
     d="  M 60.799471,25.544427   L 60.799471,25.938719   L 64.184187,25.938719   z "
     id="path47" />
  <path
     style="fill:#000000;fill-rule:evenodd;fill-opacity:1;stroke:none;"
     d="  M 60.799471,25.544427   L 64.433587,25.544427   L 64.184187,25.938719   z "
     id="path48" />
  <path
     style="fill:#000000;fill-rule:evenodd;fill-opacity:1;stroke:none;"
     d="  M 60.799471,25.938719   L 60.799471,26.333012   L 63.827901,26.333012   z "
     id="path49" />
  <path
     style="fill:#000000;fill-rule:evenodd;fill-opacity:1;stroke:none;"
     d="  M 60.799471,25.938719   L 64.184187,25.938719   L 63.827901,26.333012   z "
     id="path50" />
  <path
     style="fill:#000000;fill-rule:evenodd;fill-opacity:1;stroke:none;"
     d="  M 60.799471,26.333012   L 60.799471,26.727305   L 63.400358,26.727305   z "
     id="path51" />
  <path
     style="fill:#000000;fill-rule:evenodd;fill-opacity:1;stroke:none;"
     d="  M 60.799471,26.333012   L 63.827901,26.333012   L 63.400358,26.727305   z "
     id="path52" />
  <path
     style="fill:#000000;fill-rule:evenodd;fill-opacity:1;stroke:none;"
     d="  M 60.799471,26.727305   L 60.799471,27.121598   L 62.901558,27.121598   z "
     id="path53" />
  <path
     style="fill:#000000;fill-rule:evenodd;fill-opacity:1;stroke:none;"
     d="  M 60.799471,26.727305   L 63.400358,26.727305   L 62.901558,27.121598   z "
     id="path54" />
  <path
     style="fill:#000000;fill-rule:evenodd;fill-opacity:1;stroke:none;"
     d="  M 60.799471,27.121598   L 60.799471,27.444201   L 62.367129,27.444201   z "
     id="path55" />
  <path
     style="fill:#000000;fill-rule:evenodd;fill-opacity:1;stroke:none;"
     d="  M 60.799471,27.121598   L 62.901558,27.121598   L 62.367129,27.444201   z "
     id="path56" />
  <path
     style="fill:#000000;fill-rule:evenodd;fill-opacity:1;stroke:none;"
     d="  M 60.799471,27.444201   L 60.799471,27.766804   L 61.8327,27.766804   z "
     id="path57" />
  <path
     style="fill:#000000;fill-rule:evenodd;fill-opacity:1;stroke:none;"
     d="  M 60.799471,27.444201   L 62.367129,27.444201   L 61.8327,27.766804   z "
     id="path58" />
  <path
     style="fill:#000000;fill-rule:evenodd;fill-opacity:1;stroke:none;"
     d="  M 60.799471,27.766804   L 60.799471,28.017718   L 61.298271,28.017718   z "
     id="path59" />
  <path
     style="fill:#000000;fill-rule:evenodd;fill-opacity:1;stroke:none;"
     d="  M 60.799471,27.766804   L 61.8327,27.766804   L 61.298271,28.017718   z "
     id="path60" />
  <path
     style="fill:#000000;fill-rule:evenodd;fill-opacity:1;stroke:none;"
     d="  M 60.799471,28.017718   L 61.298271,28.017718   L 60.799471,28.232787   z "
     id="path61" />
  <path
     style="fill:none;stroke:#000000;stroke-width:0.035628594px;stroke-linecap:round;stroke-linejoin:round;stroke-miterlimit:4;stroke-dasharray:none;stroke-opacity:1;"
     d="  M 60.799471,103.36349   L 53.566866,103.36349  "
     id="path62" />
  <path
     style="fill:none;stroke:#000000;stroke-width:0.035628594px;stroke-linecap:round;stroke-linejoin:round;stroke-miterlimit:4;stroke-dasharray:none;stroke-opacity:1;"
     d="  M 109.53939,85.405245   L 109.53939,80.207749  "
     id="path63" />
  <path
     style="fill:none;stroke:#000000;stroke-width:0.035628594px;stroke-linecap:round;stroke-linejoin:round;stroke-miterlimit:4;stroke-dasharray:none;stroke-opacity:1;"
     d="  M 114.70553,82.82442   L 109.53939,85.405245  "
     id="path64" />
  <path
     style="fill:none;stroke:#000000;stroke-width:0.035628594px;stroke-linecap:round;stroke-linejoin:round;stroke-miterlimit:4;stroke-dasharray:none;stroke-opacity:1;"
     d="  M 114.70553,82.82442   L 109.53939,80.207749  "
     id="path65" />
  <path
     style="fill:#000000;fill-rule:evenodd;fill-opacity:1;stroke:none;"
     d="  M 109.53939,80.207749   L 109.53939,82.82442   L 114.70553,82.82442   z "
     id="path66" />
  <path
     style="fill:#000000;fill-rule:evenodd;fill-opacity:1;stroke:none;"
     d="  M 109.53939,82.82442   L 114.70553,82.82442   L 109.53939,85.405245   z "
     id="path67" />
  <path
     style="fill:none;stroke:#000000;stroke-width:0.035628594px;stroke-linecap:round;stroke-linejoin:round;stroke-miterlimit:4;stroke-dasharray:none;stroke-opacity:1;"
     d="  M 97.105008,82.82442   L 109.53939,82.82442  "
     id="path68" />
  <path
     style="fill:none;stroke:#000000;stroke-width:0.035628594px;stroke-linecap:round;stroke-linejoin:round;stroke-miterlimit:4;stroke-dasharray:none;stroke-opacity:1;"
     d="  M 53.566866,103.36349   L 53.566866,62.249504  "
     id="path69" />
  <path
     style="fill:none;stroke:#000000;stroke-width:0.035628594px;stroke-linecap:round;stroke-linejoin:round;stroke-miterlimit:4;stroke-dasharray:none;stroke-opacity:1;"
     d="  M 60.799471,62.249504   L 60.799471,103.36349  "
     id="path70" />
  <path
     style="fill:none;stroke:#000000;stroke-width:0.035628594px;stroke-linecap:round;stroke-linejoin:round;stroke-miterlimit:4;stroke-dasharray:none;stroke-opacity:1;"
     d="  M 53.566866,62.249504   L 60.799471,62.249504  "
     id="path71" />
  <path
     style="fill:none;stroke:#000000;stroke-width:0.035628594px;stroke-linecap:round;stroke-linejoin:round;stroke-miterlimit:4;stroke-dasharray:none;stroke-opacity:1;"
     d="  M 90.798747,87.269175   L 60.799471,87.269175  "
     id="path72" />
  <path
     style="fill:none;stroke:#000000;stroke-width:0.035628594px;stroke-linecap:round;stroke-linejoin:round;stroke-miterlimit:4;stroke-dasharray:none;stroke-opacity:1;"
     d="  M 90.798747,78.343819   L 90.798747,87.269175  "
     id="path73" />
  <path
     style="fill:none;stroke:#000000;stroke-width:0.035628594px;stroke-linecap:round;stroke-linejoin:round;stroke-miterlimit:4;stroke-dasharray:none;stroke-opacity:1;"
     d="  M 60.799471,78.343819   L 90.798747,78.343819  "
     id="path74" />
  <path
     style="fill:none;stroke:#000000;stroke-width:0.035628594px;stroke-linecap:round;stroke-linejoin:round;stroke-miterlimit:4;stroke-dasharray:none;stroke-opacity:1;"
     d="  M 60.799471,72.931254   L 66.14376,78.343819  "
     id="path75" />
  <path
     style="fill:none;stroke:#000000;stroke-width:0.035628594px;stroke-linecap:round;stroke-linejoin:round;stroke-miterlimit:4;stroke-dasharray:none;stroke-opacity:1;"
     d="  M 60.799471,92.717585   L 66.14376,87.269175  "
     id="path76" />
  <path
     style="fill:#000000;fill-rule:evenodd;fill-opacity:1;stroke:none;"
     d="  M 60.799471,72.931254   L 60.799471,78.343819   L 66.14376,78.343819   z "
     id="path77" />
  <path
     style="fill:#000000;fill-rule:evenodd;fill-opacity:1;stroke:none;"
     d="  M 60.799471,78.343819   L 66.14376,78.343819   L 66.14376,78.343819   z "
     id="path78" />
  <path
     style="fill:#000000;fill-rule:evenodd;fill-opacity:1;stroke:none;"
     d="  M 60.799471,87.269175   L 66.14376,87.269175   L 66.14376,87.269175   z "
     id="path79" />
  <path
     style="fill:#000000;fill-rule:evenodd;fill-opacity:1;stroke:none;"
     d="  M 60.799471,87.269175   L 66.14376,87.269175   L 60.799471,92.717585   z "
     id="path80" />
  <path
     style="fill:none;stroke:#000000;stroke-width:0.035628594px;stroke-linecap:round;stroke-linejoin:round;stroke-miterlimit:4;stroke-dasharray:none;stroke-opacity:1;"
     d="  M 49.68335,15.722951   L 23.567591,15.722951  "
     id="path81" />
  <path
     style="fill:none;stroke:#000000;stroke-width:0.035628594px;stroke-linecap:round;stroke-linejoin:round;stroke-miterlimit:4;stroke-dasharray:none;stroke-opacity:1;"
     d="  M 23.567591,15.722951   L 23.567591,24.648307  "
     id="path82" />
  <path
     style="fill:none;stroke:#000000;stroke-width:0.035628594px;stroke-linecap:round;stroke-linejoin:round;stroke-miterlimit:4;stroke-dasharray:none;stroke-opacity:1;"
     d="  M 23.567591,24.648307   L 49.68335,24.648307  "
     id="path83" />
  <path
     style="fill:none;stroke:#000000;stroke-width:0.035628594px;stroke-linecap:round;stroke-linejoin:round;stroke-miterlimit:4;stroke-dasharray:none;stroke-opacity:1;"
     d="  M 49.68335,15.758796   L 49.647721,15.507882   L 49.718978,15.185279   L 49.897121,14.826831   L 50.18215,14.468383   L 50.538436,14.07409   L 50.965979,13.679797   L 51.464779,13.285504   L 51.96358,12.927056   L 52.498009,12.640298   L 53.032437,12.35354   L 53.566866,12.174316  "
     id="path84" />
  <path
     style="fill:none;stroke:#000000;stroke-width:0.035628594px;stroke-linecap:round;stroke-linejoin:round;stroke-miterlimit:4;stroke-dasharray:none;stroke-opacity:1;"
     d="  M 49.68335,15.758796   L 53.566866,18.662225  "
     id="path85" />
  <path
     style="fill:none;stroke:#000000;stroke-width:0.035628594px;stroke-linecap:round;stroke-linejoin:round;stroke-miterlimit:4;stroke-dasharray:none;stroke-opacity:1;"
     d="  M 17.261329,20.203551   L 4.7913217,20.203551  "
     id="path86" />
  <path
     style="fill:#000000;fill-rule:evenodd;fill-opacity:1;stroke:none;"
     d="  M 4.7913217,17.586881   L -0.37482439,20.203551   L 4.7913217,20.203551   z "
     id="path87" />
  <path
     style="fill:#000000;fill-rule:evenodd;fill-opacity:1;stroke:none;"
     d="  M -0.37482439,20.203551   L 4.7913217,20.203551   L 4.7913217,22.784377   z "
     id="path88" />
  <path
     style="fill:none;stroke:#000000;stroke-width:0.035628594px;stroke-linecap:round;stroke-linejoin:round;stroke-miterlimit:4;stroke-dasharray:none;stroke-opacity:1;"
     d="  M -0.37482439,20.203551   L 4.7913217,17.586881  "
     id="path89" />
  <path
     style="fill:none;stroke:#000000;stroke-width:0.035628594px;stroke-linecap:round;stroke-linejoin:round;stroke-miterlimit:4;stroke-dasharray:none;stroke-opacity:1;"
     d="  M -0.37482439,20.203551   L 4.7913217,22.784377  "
     id="path90" />
  <path
     style="fill:none;stroke:#000000;stroke-width:0.035628594px;stroke-linecap:round;stroke-linejoin:round;stroke-miterlimit:4;stroke-dasharray:none;stroke-opacity:1;"
     d="  M 4.7913217,22.784377   L 4.7913217,17.586881  "
     id="path91" />
  <path
     style="fill:none;stroke:#000000;stroke-width:0.035628594px;stroke-linecap:round;stroke-linejoin:round;stroke-miterlimit:4;stroke-dasharray:none;stroke-opacity:1;"
     d="  M 49.68335,24.648307   L 49.647721,24.89922   L 49.718978,25.221823   L 49.897121,25.544427   L 50.18215,25.938719   L 50.538436,26.333012   L 50.965979,26.727305   L 51.464779,27.121598   L 51.96358,27.444201   L 52.498009,27.766804   L 53.032437,28.017718   L 53.566866,28.232787  "
     id="path92" />
  <path
     style="fill:none;stroke:#000000;stroke-width:0.035628594px;stroke-linecap:round;stroke-linejoin:round;stroke-miterlimit:4;stroke-dasharray:none;stroke-opacity:1;"
     d="  M 49.68335,24.648307   L 53.566866,21.709033  "
     id="path93" />
  <path
     style="fill:#000000;fill-rule:evenodd;fill-opacity:1;stroke:none;"
     d="  M 53.566866,12.174316   L 53.032437,12.35354   L 53.566866,12.35354   z "
     id="path94" />
  <path
     style="fill:#000000;fill-rule:evenodd;fill-opacity:1;stroke:none;"
     d="  M 53.032437,12.35354   L 52.498009,12.640298   L 53.566866,12.640298   z "
     id="path95" />
  <path
     style="fill:#000000;fill-rule:evenodd;fill-opacity:1;stroke:none;"
     d="  M 53.032437,12.35354   L 53.566866,12.35354   L 53.566866,12.640298   z "
     id="path96" />
  <path
     style="fill:#000000;fill-rule:evenodd;fill-opacity:1;stroke:none;"
     d="  M 52.498009,12.640298   L 51.96358,12.927056   L 53.566866,12.927056   z "
     id="path97" />
  <path
     style="fill:#000000;fill-rule:evenodd;fill-opacity:1;stroke:none;"
     d="  M 52.498009,12.640298   L 53.566866,12.640298   L 53.566866,12.927056   z "
     id="path98" />
  <path
     style="fill:#000000;fill-rule:evenodd;fill-opacity:1;stroke:none;"
     d="  M 51.96358,12.927056   L 51.464779,13.285504   L 53.566866,13.285504   z "
     id="path99" />
  <path
     style="fill:#000000;fill-rule:evenodd;fill-opacity:1;stroke:none;"
     d="  M 51.96358,12.927056   L 53.566866,12.927056   L 53.566866,13.285504   z "
     id="path100" />
  <path
     style="fill:#000000;fill-rule:evenodd;fill-opacity:1;stroke:none;"
     d="  M 51.464779,13.285504   L 50.965979,13.679797   L 53.566866,13.679797   z "
     id="path101" />
  <path
     style="fill:#000000;fill-rule:evenodd;fill-opacity:1;stroke:none;"
     d="  M 51.464779,13.285504   L 53.566866,13.285504   L 53.566866,13.679797   z "
     id="path102" />
  <path
     style="fill:#000000;fill-rule:evenodd;fill-opacity:1;stroke:none;"
     d="  M 50.965979,13.679797   L 50.538436,14.07409   L 53.566866,14.07409   z "
     id="path103" />
  <path
     style="fill:#000000;fill-rule:evenodd;fill-opacity:1;stroke:none;"
     d="  M 50.965979,13.679797   L 53.566866,13.679797   L 53.566866,14.07409   z "
     id="path104" />
  <path
     style="fill:#000000;fill-rule:evenodd;fill-opacity:1;stroke:none;"
     d="  M 50.538436,14.07409   L 50.18215,14.468383   L 53.566866,14.468383   z "
     id="path105" />
  <path
     style="fill:#000000;fill-rule:evenodd;fill-opacity:1;stroke:none;"
     d="  M 50.538436,14.07409   L 53.566866,14.07409   L 53.566866,14.468383   z "
     id="path106" />
  <path
     style="fill:#000000;fill-rule:evenodd;fill-opacity:1;stroke:none;"
     d="  M 50.18215,14.468383   L 49.897121,14.826831   L 53.566866,14.826831   z "
     id="path107" />
  <path
     style="fill:#000000;fill-rule:evenodd;fill-opacity:1;stroke:none;"
     d="  M 50.18215,14.468383   L 53.566866,14.468383   L 53.566866,14.826831   z "
     id="path108" />
  <path
     style="fill:#000000;fill-rule:evenodd;fill-opacity:1;stroke:none;"
     d="  M 49.897121,14.826831   L 49.718978,15.185279   L 53.566866,15.185279   z "
     id="path109" />
  <path
     style="fill:#000000;fill-rule:evenodd;fill-opacity:1;stroke:none;"
     d="  M 49.897121,14.826831   L 53.566866,14.826831   L 53.566866,15.185279   z "
     id="path110" />
  <path
     style="fill:#000000;fill-rule:evenodd;fill-opacity:1;stroke:none;"
     d="  M 49.718978,15.185279   L 49.647721,15.507882   L 53.566866,15.507882   z "
     id="path111" />
  <path
     style="fill:#000000;fill-rule:evenodd;fill-opacity:1;stroke:none;"
     d="  M 49.718978,15.185279   L 53.566866,15.185279   L 53.566866,15.507882   z "
     id="path112" />
  <path
     style="fill:#000000;fill-rule:evenodd;fill-opacity:1;stroke:none;"
     d="  M 49.647721,15.507882   L 49.68335,15.758796   L 53.566866,15.758796   z "
     id="path113" />
  <path
     style="fill:#000000;fill-rule:evenodd;fill-opacity:1;stroke:none;"
     d="  M 49.647721,15.507882   L 53.566866,15.507882   L 53.566866,15.758796   z "
     id="path114" />
  <path
     style="fill:#000000;fill-rule:evenodd;fill-opacity:1;stroke:none;"
     d="  M 49.68335,15.758796   L 53.566866,15.758796   L 53.566866,18.662225   z "
     id="path115" />
  <path
     style="fill:#000000;fill-rule:evenodd;fill-opacity:1;stroke:none;"
     d="  M 53.566866,21.709033   L 49.68335,24.648307   L 53.566866,24.648307   z "
     id="path116" />
  <path
     style="fill:#000000;fill-rule:evenodd;fill-opacity:1;stroke:none;"
     d="  M 49.68335,24.648307   L 49.647721,24.89922   L 53.566866,24.89922   z "
     id="path117" />
  <path
     style="fill:#000000;fill-rule:evenodd;fill-opacity:1;stroke:none;"
     d="  M 49.68335,24.648307   L 53.566866,24.648307   L 53.566866,24.89922   z "
     id="path118" />
  <path
     style="fill:#000000;fill-rule:evenodd;fill-opacity:1;stroke:none;"
     d="  M 49.647721,24.89922   L 49.718978,25.221823   L 53.566866,25.221823   z "
     id="path119" />
  <path
     style="fill:#000000;fill-rule:evenodd;fill-opacity:1;stroke:none;"
     d="  M 49.647721,24.89922   L 53.566866,24.89922   L 53.566866,25.221823   z "
     id="path120" />
  <path
     style="fill:#000000;fill-rule:evenodd;fill-opacity:1;stroke:none;"
     d="  M 49.718978,25.221823   L 49.897121,25.544427   L 53.566866,25.544427   z "
     id="path121" />
  <path
     style="fill:#000000;fill-rule:evenodd;fill-opacity:1;stroke:none;"
     d="  M 49.718978,25.221823   L 53.566866,25.221823   L 53.566866,25.544427   z "
     id="path122" />
  <path
     style="fill:#000000;fill-rule:evenodd;fill-opacity:1;stroke:none;"
     d="  M 49.897121,25.544427   L 50.18215,25.938719   L 53.566866,25.938719   z "
     id="path123" />
  <path
     style="fill:#000000;fill-rule:evenodd;fill-opacity:1;stroke:none;"
     d="  M 49.897121,25.544427   L 53.566866,25.544427   L 53.566866,25.938719   z "
     id="path124" />
  <path
     style="fill:#000000;fill-rule:evenodd;fill-opacity:1;stroke:none;"
     d="  M 50.18215,25.938719   L 50.538436,26.333012   L 53.566866,26.333012   z "
     id="path125" />
  <path
     style="fill:#000000;fill-rule:evenodd;fill-opacity:1;stroke:none;"
     d="  M 50.18215,25.938719   L 53.566866,25.938719   L 53.566866,26.333012   z "
     id="path126" />
  <path
     style="fill:#000000;fill-rule:evenodd;fill-opacity:1;stroke:none;"
     d="  M 50.538436,26.333012   L 50.965979,26.727305   L 53.566866,26.727305   z "
     id="path127" />
  <path
     style="fill:#000000;fill-rule:evenodd;fill-opacity:1;stroke:none;"
     d="  M 50.538436,26.333012   L 53.566866,26.333012   L 53.566866,26.727305   z "
     id="path128" />
  <path
     style="fill:#000000;fill-rule:evenodd;fill-opacity:1;stroke:none;"
     d="  M 50.965979,26.727305   L 51.464779,27.121598   L 53.566866,27.121598   z "
     id="path129" />
  <path
     style="fill:#000000;fill-rule:evenodd;fill-opacity:1;stroke:none;"
     d="  M 50.965979,26.727305   L 53.566866,26.727305   L 53.566866,27.121598   z "
     id="path130" />
  <path
     style="fill:#000000;fill-rule:evenodd;fill-opacity:1;stroke:none;"
     d="  M 51.464779,27.121598   L 51.96358,27.444201   L 53.566866,27.444201   z "
     id="path131" />
  <path
     style="fill:#000000;fill-rule:evenodd;fill-opacity:1;stroke:none;"
     d="  M 51.464779,27.121598   L 53.566866,27.121598   L 53.566866,27.444201   z "
     id="path132" />
  <path
     style="fill:#000000;fill-rule:evenodd;fill-opacity:1;stroke:none;"
     d="  M 51.96358,27.444201   L 52.498009,27.766804   L 53.566866,27.766804   z "
     id="path133" />
  <path
     style="fill:#000000;fill-rule:evenodd;fill-opacity:1;stroke:none;"
     d="  M 51.96358,27.444201   L 53.566866,27.444201   L 53.566866,27.766804   z "
     id="path134" />
  <path
     style="fill:#000000;fill-rule:evenodd;fill-opacity:1;stroke:none;"
     d="  M 52.498009,27.766804   L 53.032437,28.017718   L 53.566866,28.017718   z "
     id="path135" />
  <path
     style="fill:#000000;fill-rule:evenodd;fill-opacity:1;stroke:none;"
     d="  M 52.498009,27.766804   L 53.566866,27.766804   L 53.566866,28.017718   z "
     id="path136" />
  <path
     style="fill:#000000;fill-rule:evenodd;fill-opacity:1;stroke:none;"
     d="  M 53.032437,28.017718   L 53.566866,28.017718   L 53.566866,28.232787   z "
     id="path137" />
  <path
     style="fill:none;stroke:#000000;stroke-width:0.035628594px;stroke-linecap:round;stroke-linejoin:round;stroke-miterlimit:4;stroke-dasharray:none;stroke-opacity:1;"
     d="  M 4.7913217,85.405245   L 4.7913217,80.207749  "
     id="path138" />
  <path
     style="fill:none;stroke:#000000;stroke-width:0.035628594px;stroke-linecap:round;stroke-linejoin:round;stroke-miterlimit:4;stroke-dasharray:none;stroke-opacity:1;"
     d="  M -0.37482439,82.82442   L 4.7913217,85.405245  "
     id="path139" />
  <path
     style="fill:none;stroke:#000000;stroke-width:0.035628594px;stroke-linecap:round;stroke-linejoin:round;stroke-miterlimit:4;stroke-dasharray:none;stroke-opacity:1;"
     d="  M -0.37482439,82.82442   L 4.7913217,80.207749  "
     id="path140" />
  <path
     style="fill:#000000;fill-rule:evenodd;fill-opacity:1;stroke:none;"
     d="  M 4.7913217,80.207749   L -0.37482439,82.82442   L 4.7913217,82.82442   z "
     id="path141" />
  <path
     style="fill:#000000;fill-rule:evenodd;fill-opacity:1;stroke:none;"
     d="  M -0.37482439,82.82442   L 4.7913217,82.82442   L 4.7913217,85.405245   z "
     id="path142" />
  <path
     style="fill:none;stroke:#000000;stroke-width:0.035628594px;stroke-linecap:round;stroke-linejoin:round;stroke-miterlimit:4;stroke-dasharray:none;stroke-opacity:1;"
     d="  M 17.261329,82.82442   L 4.7913217,82.82442  "
     id="path143" />
  <path
     style="fill:none;stroke:#000000;stroke-width:0.035628594px;stroke-linecap:round;stroke-linejoin:round;stroke-miterlimit:4;stroke-dasharray:none;stroke-opacity:1;"
     d="  M 23.567591,87.269175   L 53.566866,87.269175  "
     id="path144" />
  <path
     style="fill:none;stroke:#000000;stroke-width:0.035628594px;stroke-linecap:round;stroke-linejoin:round;stroke-miterlimit:4;stroke-dasharray:none;stroke-opacity:1;"
     d="  M 23.567591,78.343819   L 23.567591,87.269175  "
     id="path145" />
  <path
     style="fill:none;stroke:#000000;stroke-width:0.035628594px;stroke-linecap:round;stroke-linejoin:round;stroke-miterlimit:4;stroke-dasharray:none;stroke-opacity:1;"
     d="  M 53.566866,78.343819   L 23.567591,78.343819  "
     id="path146" />
  <path
     style="fill:none;stroke:#000000;stroke-width:0.035628594px;stroke-linecap:round;stroke-linejoin:round;stroke-miterlimit:4;stroke-dasharray:none;stroke-opacity:1;"
     d="  M 53.566866,72.931254   L 48.222577,78.343819  "
     id="path147" />
  <path
     style="fill:none;stroke:#000000;stroke-width:0.035628594px;stroke-linecap:round;stroke-linejoin:round;stroke-miterlimit:4;stroke-dasharray:none;stroke-opacity:1;"
     d="  M 53.566866,92.717585   L 48.222577,87.269175  "
     id="path148" />
  <path
     style="fill:#000000;fill-rule:evenodd;fill-opacity:1;stroke:none;"
     d="  M 53.566866,72.931254   L 48.222577,78.343819   L 53.566866,78.343819   z "
     id="path149" />
  <path
     style="fill:#000000;fill-rule:evenodd;fill-opacity:1;stroke:none;"
     d="  M 48.222577,78.343819   L 53.566866,78.343819   L 53.566866,78.343819   z "
     id="path150" />
  <path
     style="fill:#000000;fill-rule:evenodd;fill-opacity:1;stroke:none;"
     d="  M 48.222577,87.269175   L 53.566866,87.269175   L 53.566866,87.269175   z "
     id="path151" />
  <path
     style="fill:#000000;fill-rule:evenodd;fill-opacity:1;stroke:none;"
     d="  M 48.222577,87.269175   L 53.566866,87.269175   L 53.566866,92.717585   z "
     id="path152" />
  <path
     style="fill:#000000;fill-rule:evenodd;fill-opacity:1;stroke:none;"
     d="  M 76.582938,8.8049042   L 78.863168,8.8049042   L 77.723053,15.722951   z "
     id="path153" />
  <text
     xml:space="preserve"
     style="font-size:13.562500px;font-style:normal;font-variant:normal;font-weight:400;font-stretch:Condensed;line-height:125.000000%;letter-spacing:0px;word-spacing:0px;fill:#000000;fill-opacity:1;stroke:none;font-family:Times New Roman;text-align:start;text-anchor:start;"
     transform="matrix(1.000000,-0.000000,0.000000,1.000000,83.494885,13.608108)"
     x="0.000000"
     y="0.000000"
     id="text154"><tspan
       sodipodi:role="line"
       x="0.000000"
       y="0.000000"
       id="tspan154"><tspan
         dx="0.000000"
         dy="0.000000"
         style="fill:#000000;font-size:13.562500px;font-style:normal;font-variant:normal;font-weight:400;font-stretch:Condensed;font-family:Times New Roman;"
         id="tspan153">t</tspan></tspan></text>
  <path
     style="fill:none;stroke:#000000;stroke-width:0.035628594px;stroke-linecap:round;stroke-linejoin:round;stroke-miterlimit:4;stroke-dasharray:none;stroke-opacity:1;"
     d="  M 71.773078,15.722951   L 83.387999,15.722951  "
     id="path154" />
  <path
     style="fill:#000000;fill-rule:evenodd;fill-opacity:1;stroke:none;"
     d="  M 76.582938,31.566353   L 78.863168,31.566353   L 77.723053,24.648307   z "
     id="path155" />
  <path
     style="fill:none;stroke:#000000;stroke-width:0.035628594px;stroke-linecap:round;stroke-linejoin:round;stroke-miterlimit:4;stroke-dasharray:none;stroke-opacity:1;"
     d="  M 77.723053,4.682752   L 77.723053,36.082798  "
     id="path156" />
  <path
     style="fill:#000000;fill-rule:evenodd;fill-opacity:1;stroke:none;"
     d="  M 74.658994,71.425773   L 76.939224,71.425773   L 75.799109,78.343819   z "
     id="path157" />
  <text
     xml:space="preserve"
     style="font-size:13.562500px;font-style:normal;font-variant:normal;font-weight:400;font-stretch:Condensed;line-height:125.000000%;letter-spacing:0px;word-spacing:0px;fill:#000000;fill-opacity:1;stroke:none;font-family:Times New Roman;text-align:start;text-anchor:start;"
     transform="matrix(1.000000,-0.000000,0.000000,1.000000,81.535312,76.228976)"
     x="0.000000"
     y="0.000000"
     id="text158"><tspan
       sodipodi:role="line"
       x="0.000000"
       y="0.000000"
       id="tspan158"><tspan
         dx="0.000000"
         dy="0.000000"
         style="fill:#000000;font-size:13.562500px;font-style:normal;font-variant:normal;font-weight:400;font-stretch:Condensed;font-family:Times New Roman;"
         id="tspan157">t</tspan></tspan></text>
  <path
     style="fill:#000000;fill-rule:evenodd;fill-opacity:1;stroke:none;"
     d="  M 74.658994,94.187222   L 76.939224,94.187222   L 75.799109,87.269175   z "
     id="path158" />
  <path
     style="fill:none;stroke:#000000;stroke-width:0.035628594px;stroke-linecap:round;stroke-linejoin:round;stroke-miterlimit:4;stroke-dasharray:none;stroke-opacity:1;"
     d="  M 75.799109,67.303621   L 75.799109,98.703667  "
     id="path159" />
</svg>
