<?xml version="1.0" encoding="UTF-8" standalone="no"?>
<svg
   version="1.0"
   width="78.300003mm"
   height="75.519997mm"
   id="svg327"
   sodipodi:docname="image408.emf"
   xmlns:inkscape="http://www.inkscape.org/namespaces/inkscape"
   xmlns:sodipodi="http://sodipodi.sourceforge.net/DTD/sodipodi-0.dtd"
   xmlns="http://www.w3.org/2000/svg"
   xmlns:svg="http://www.w3.org/2000/svg">
  <sodipodi:namedview
     id="namedview327"
     pagecolor="#ffffff"
     bordercolor="#000000"
     borderopacity="0.25"
     inkscape:showpageshadow="2"
     inkscape:pageopacity="0.0"
     inkscape:pagecheckerboard="0"
     inkscape:deskcolor="#d1d1d1"
     inkscape:document-units="mm" />
  <defs
     id="defs1">
    <pattern
       id="EMFhbasepattern"
       patternUnits="userSpaceOnUse"
       width="6"
       height="6"
       x="0"
       y="0" />
  </defs>
  <path
     style="fill:#000000;fill-rule:evenodd;fill-opacity:1;stroke:none;"
     d="  M 236.00472,66.564466   L 236.00472,64.766588   L 180.66329,66.564466   z "
     id="path1" />
  <path
     style="fill:#000000;fill-rule:evenodd;fill-opacity:1;stroke:none;"
     d="  M 236.00472,64.766588   L 180.66329,66.564466   L 180.66329,64.766588   z "
     id="path2" />
  <path
     style="fill:#000000;fill-rule:evenodd;fill-opacity:1;stroke:none;"
     d="  M 105.28859,66.564466   L 105.28859,64.766588   L 49.947164,66.564466   z "
     id="path3" />
  <path
     style="fill:#000000;fill-rule:evenodd;fill-opacity:1;stroke:none;"
     d="  M 105.28859,64.766588   L 49.947164,66.564466   L 49.947164,64.766588   z "
     id="path4" />
  <path
     style="fill:#000000;fill-rule:evenodd;fill-opacity:1;stroke:none;"
     d="  M 236.00472,117.22468   L 236.00472,115.38685   L 49.947164,117.22468   z "
     id="path5" />
  <path
     style="fill:#000000;fill-rule:evenodd;fill-opacity:1;stroke:none;"
     d="  M 236.00472,115.38685   L 49.947164,117.22468   L 49.947164,115.38685   z "
     id="path6" />
  <path
     style="fill:none;stroke:#000000;stroke-width:0.95967793px;stroke-linecap:round;stroke-linejoin:round;stroke-miterlimit:4;stroke-dasharray:none;stroke-opacity:1;"
     d="  M 142.95595,90.975659   L 169.38708,62.289511  "
     id="path7" />
  <path
     style="fill:none;stroke:#000000;stroke-width:0.95967793px;stroke-linecap:round;stroke-linejoin:round;stroke-miterlimit:4;stroke-dasharray:none;stroke-opacity:1;"
     d="  M 179.58365,51.222571   L 189.78023,40.115679  "
     id="path8" />
  <path
     style="fill:none;stroke:#000000;stroke-width:0.95967793px;stroke-linecap:round;stroke-linejoin:round;stroke-miterlimit:4;stroke-dasharray:none;stroke-opacity:1;"
     d="  M 200.0168,29.048739   L 226.40794,0.36259098  "
     id="path9" />
  <path
     style="fill:#000000;fill-rule:evenodd;fill-opacity:1;stroke:none;"
     d="  M 148.31415,68.282439   L 149.67369,69.481025   L 208.49395,2.9195735   z "
     id="path10" />
  <path
     style="fill:#000000;fill-rule:evenodd;fill-opacity:1;stroke:none;"
     d="  M 149.67369,69.481025   L 208.49395,2.9195735   L 209.81351,4.1581119   z "
     id="path11" />
  <path
     style="fill:#000000;fill-rule:evenodd;fill-opacity:1;stroke:none;"
     d="  M 172.22612,73.47631   L 173.54568,74.714848   L 224.00874,17.222694   z "
     id="path12" />
  <path
     style="fill:#000000;fill-rule:evenodd;fill-opacity:1;stroke:none;"
     d="  M 173.54568,74.714848   L 224.00874,17.222694   L 225.36829,18.461233   z "
     id="path13" />
  <path
     style="fill:#000000;fill-rule:evenodd;fill-opacity:1;stroke:none;"
     d="  M 148.11422,73.356451   L 149.55373,72.237771   L 150.63337,75.913434   z "
     id="path14" />
  <path
     style="fill:#000000;fill-rule:evenodd;fill-opacity:1;stroke:none;"
     d="  M 149.55373,72.237771   L 150.63337,75.913434   L 151.79298,74.515084   z "
     id="path15" />
  <path
     style="fill:#000000;fill-rule:evenodd;fill-opacity:1;stroke:none;"
     d="  M 150.63337,75.913434   L 151.79298,74.515084   L 153.63236,77.911076   z "
     id="path16" />
  <path
     style="fill:#000000;fill-rule:evenodd;fill-opacity:1;stroke:none;"
     d="  M 151.79298,74.515084   L 153.63236,77.911076   L 154.47208,76.312962   z "
     id="path17" />
  <path
     style="fill:#000000;fill-rule:evenodd;fill-opacity:1;stroke:none;"
     d="  M 153.63236,77.911076   L 154.47208,76.312962   L 156.99124,79.22952   z "
     id="path18" />
  <path
     style="fill:#000000;fill-rule:evenodd;fill-opacity:1;stroke:none;"
     d="  M 154.47208,76.312962   L 156.99124,79.22952   L 157.43109,77.471595   z "
     id="path19" />
  <path
     style="fill:#000000;fill-rule:evenodd;fill-opacity:1;stroke:none;"
     d="  M 156.99124,79.22952   L 157.43109,77.471595   L 160.51006,79.78886   z "
     id="path20" />
  <path
     style="fill:#000000;fill-rule:evenodd;fill-opacity:1;stroke:none;"
     d="  M 157.43109,77.471595   L 160.51006,79.78886   L 160.63002,77.990982   z "
     id="path21" />
  <path
     style="fill:#000000;fill-rule:evenodd;fill-opacity:1;stroke:none;"
     d="  M 160.51006,79.78886   L 160.63002,77.990982   L 164.10885,79.629049   z "
     id="path22" />
  <path
     style="fill:#000000;fill-rule:evenodd;fill-opacity:1;stroke:none;"
     d="  M 160.63002,77.990982   L 164.10885,79.629049   L 163.82894,77.831171   z "
     id="path23" />
  <path
     style="fill:#000000;fill-rule:evenodd;fill-opacity:1;stroke:none;"
     d="  M 164.10885,79.629049   L 163.82894,77.831171   L 167.58768,78.670181   z "
     id="path24" />
  <path
     style="fill:#000000;fill-rule:evenodd;fill-opacity:1;stroke:none;"
     d="  M 163.82894,77.831171   L 167.58768,78.670181   L 166.90791,76.992161   z "
     id="path25" />
  <path
     style="fill:#000000;fill-rule:evenodd;fill-opacity:1;stroke:none;"
     d="  M 167.58768,78.670181   L 166.90791,76.992161   L 170.78661,77.032114   z "
     id="path26" />
  <path
     style="fill:#000000;fill-rule:evenodd;fill-opacity:1;stroke:none;"
     d="  M 166.90791,76.992161   L 170.78661,77.032114   L 169.78694,75.513905   z "
     id="path27" />
  <path
     style="fill:#000000;fill-rule:evenodd;fill-opacity:1;stroke:none;"
     d="  M 170.78661,77.032114   L 169.78694,75.513905   L 173.54568,74.714848   z "
     id="path28" />
  <path
     style="fill:#000000;fill-rule:evenodd;fill-opacity:1;stroke:none;"
     d="  M 169.78694,75.513905   L 173.54568,74.714848   L 172.22612,73.47631   z "
     id="path29" />
  <path
     style="fill:#000000;fill-rule:evenodd;fill-opacity:1;stroke:none;"
     d="  M 148.31415,68.282439   L 149.67369,69.481025   L 147.43444,69.880553   z "
     id="path30" />
  <path
     style="fill:#000000;fill-rule:evenodd;fill-opacity:1;stroke:none;"
     d="  M 149.67369,69.481025   L 147.43444,69.880553   L 149.19385,70.359987   z "
     id="path31" />
  <path
     style="fill:#000000;fill-rule:evenodd;fill-opacity:1;stroke:none;"
     d="  M 147.43444,69.880553   L 149.19385,70.359987   L 147.35447,71.678431   z "
     id="path32" />
  <path
     style="fill:#000000;fill-rule:evenodd;fill-opacity:1;stroke:none;"
     d="  M 149.19385,70.359987   L 147.35447,71.678431   L 149.15387,71.318856   z "
     id="path33" />
  <path
     style="fill:#000000;fill-rule:evenodd;fill-opacity:1;stroke:none;"
     d="  M 147.35447,71.678431   L 149.15387,71.318856   L 148.11422,73.356451   z "
     id="path34" />
  <path
     style="fill:#000000;fill-rule:evenodd;fill-opacity:1;stroke:none;"
     d="  M 149.15387,71.318856   L 148.11422,73.356451   L 149.55373,72.237771   z "
     id="path35" />
  <path
     style="fill:none;stroke:#000000;stroke-width:0.95967793px;stroke-linecap:round;stroke-linejoin:round;stroke-miterlimit:4;stroke-dasharray:none;stroke-opacity:1;"
     d="  M 142.95595,90.975659   L 62.50295,3.598772  "
     id="path36" />
  <path
     style="fill:#000000;fill-rule:evenodd;fill-opacity:1;stroke:none;"
     d="  M 136.27819,69.481025   L 137.59775,68.282439   L 76.098387,4.1581119   z "
     id="path37" />
  <path
     style="fill:#000000;fill-rule:evenodd;fill-opacity:1;stroke:none;"
     d="  M 137.59775,68.282439   L 76.098387,4.1581119   L 77.45793,2.9195735   z "
     id="path38" />
  <path
     style="fill:#000000;fill-rule:evenodd;fill-opacity:1;stroke:none;"
     d="  M 112.4062,74.714848   L 113.72576,73.47631   L 60.583594,18.461233   z "
     id="path39" />
  <path
     style="fill:#000000;fill-rule:evenodd;fill-opacity:1;stroke:none;"
     d="  M 113.72576,73.47631   L 60.583594,18.461233   L 61.903151,17.222694   z "
     id="path40" />
  <path
     style="fill:none;stroke:#000000;stroke-width:0.95967793px;stroke-linecap:round;stroke-linejoin:round;stroke-miterlimit:4;stroke-dasharray:none;stroke-opacity:1;"
     d="  M 142.95595,175.03646   L 142.95595,64.806541  "
     id="path41" />
  <path
     style="fill:#000000;fill-rule:evenodd;fill-opacity:1;stroke:none;"
     d="  M 133.95897,64.766588   L 133.95897,66.564466   L 151.99291,64.766588   z "
     id="path42" />
  <path
     style="fill:#000000;fill-rule:evenodd;fill-opacity:1;stroke:none;"
     d="  M 133.95897,66.564466   L 151.99291,64.766588   L 151.99291,66.564466   z "
     id="path43" />
  <path
     style="fill:#000000;fill-rule:evenodd;fill-opacity:1;stroke:none;"
     d="  M 154.31214,102.84166   L 152.71267,103.68067   L 152.27282,100.04496   z "
     id="path44" />
  <path
     style="fill:#000000;fill-rule:evenodd;fill-opacity:1;stroke:none;"
     d="  M 152.71267,103.68067   L 152.27282,100.04496   L 150.95326,101.32345   z "
     id="path45" />
  <path
     style="fill:#000000;fill-rule:evenodd;fill-opacity:1;stroke:none;"
     d="  M 152.27282,100.04496   L 150.95326,101.32345   L 149.55373,97.927455   z "
     id="path46" />
  <path
     style="fill:#000000;fill-rule:evenodd;fill-opacity:1;stroke:none;"
     d="  M 150.95326,101.32345   L 149.55373,97.927455   L 148.63404,99.485616   z "
     id="path47" />
  <path
     style="fill:#000000;fill-rule:evenodd;fill-opacity:1;stroke:none;"
     d="  M 149.55373,97.927455   L 148.63404,99.485616   L 146.39479,96.569058   z "
     id="path48" />
  <path
     style="fill:#000000;fill-rule:evenodd;fill-opacity:1;stroke:none;"
     d="  M 148.63404,99.485616   L 146.39479,96.569058   L 145.91495,98.326984   z "
     id="path49" />
  <path
     style="fill:#000000;fill-rule:evenodd;fill-opacity:1;stroke:none;"
     d="  M 146.39479,96.569058   L 145.91495,98.326984   L 142.95595,96.089624   z "
     id="path50" />
  <path
     style="fill:#000000;fill-rule:evenodd;fill-opacity:1;stroke:none;"
     d="  M 145.91495,98.326984   L 142.95595,96.089624   L 142.95595,97.927455   z "
     id="path51" />
  <path
     style="fill:#000000;fill-rule:evenodd;fill-opacity:1;stroke:none;"
     d="  M 142.95595,96.089624   L 142.95595,97.927455   L 139.55709,96.569058   z "
     id="path52" />
  <path
     style="fill:#000000;fill-rule:evenodd;fill-opacity:1;stroke:none;"
     d="  M 142.95595,97.927455   L 139.55709,96.569058   L 140.03693,98.326984   z "
     id="path53" />
  <path
     style="fill:#000000;fill-rule:evenodd;fill-opacity:1;stroke:none;"
     d="  M 139.55709,96.569058   L 140.03693,98.326984   L 136.39815,97.927455   z "
     id="path54" />
  <path
     style="fill:#000000;fill-rule:evenodd;fill-opacity:1;stroke:none;"
     d="  M 140.03693,98.326984   L 136.39815,97.927455   L 137.31784,99.485616   z "
     id="path55" />
  <path
     style="fill:#000000;fill-rule:evenodd;fill-opacity:1;stroke:none;"
     d="  M 136.39815,97.927455   L 137.31784,99.485616   L 133.67906,100.04496   z "
     id="path56" />
  <path
     style="fill:#000000;fill-rule:evenodd;fill-opacity:1;stroke:none;"
     d="  M 137.31784,99.485616   L 133.67906,100.04496   L 134.95863,101.32345   z "
     id="path57" />
  <path
     style="fill:#000000;fill-rule:evenodd;fill-opacity:1;stroke:none;"
     d="  M 133.67906,100.04496   L 134.95863,101.32345   L 131.63975,102.84166   z "
     id="path58" />
  <path
     style="fill:#000000;fill-rule:evenodd;fill-opacity:1;stroke:none;"
     d="  M 134.95863,101.32345   L 131.63975,102.84166   L 133.19922,103.68067   z "
     id="path59" />
  <path
     style="fill:#000000;fill-rule:evenodd;fill-opacity:1;stroke:none;"
     d="  M 133.31918,103.24118   L 131.51979,103.24118   L 133.31918,166.32674   z "
     id="path60" />
  <path
     style="fill:#000000;fill-rule:evenodd;fill-opacity:1;stroke:none;"
     d="  M 131.51979,103.24118   L 133.31918,166.32674   L 131.51979,166.32674   z "
     id="path61" />
  <path
     style="fill:#000000;fill-rule:evenodd;fill-opacity:1;stroke:none;"
     d="  M 154.4321,103.24118   L 152.6327,103.24118   L 154.4321,166.32674   z "
     id="path62" />
  <path
     style="fill:#000000;fill-rule:evenodd;fill-opacity:1;stroke:none;"
     d="  M 152.6327,103.24118   L 154.4321,166.32674   L 152.6327,166.32674   z "
     id="path63" />
  <path
     style="fill:none;stroke:#000000;stroke-width:0.95967793px;stroke-linecap:round;stroke-linejoin:round;stroke-miterlimit:4;stroke-dasharray:none;stroke-opacity:1;"
     d="  M 293.30549,90.975659   L 229.72682,90.975659  "
     id="path64" />
  <path
     style="fill:none;stroke:#000000;stroke-width:0.95967793px;stroke-linecap:round;stroke-linejoin:round;stroke-miterlimit:4;stroke-dasharray:none;stroke-opacity:1;"
     d="  M 214.65188,90.975659   L 199.57694,90.975659  "
     id="path65" />
  <path
     style="fill:none;stroke:#000000;stroke-width:0.95967793px;stroke-linecap:round;stroke-linejoin:round;stroke-miterlimit:4;stroke-dasharray:none;stroke-opacity:1;"
     d="  M 184.502,90.975659   L 109.1273,90.975659  "
     id="path66" />
  <path
     style="fill:none;stroke:#000000;stroke-width:0.95967793px;stroke-linecap:round;stroke-linejoin:round;stroke-miterlimit:4;stroke-dasharray:none;stroke-opacity:1;"
     d="  M 94.052361,90.975659   L 78.97742,90.975659  "
     id="path67" />
  <path
     style="fill:none;stroke:#000000;stroke-width:0.95967793px;stroke-linecap:round;stroke-linejoin:round;stroke-miterlimit:4;stroke-dasharray:none;stroke-opacity:1;"
     d="  M 63.90248,90.975659   L 0.36380517,90.975659  "
     id="path68" />
  <path
     style="fill:#000000;fill-rule:evenodd;fill-opacity:1;stroke:none;"
     d="  M 112.4062,74.714848   L 113.68577,73.47631   L 115.16527,77.032114   z "
     id="path69" />
  <path
     style="fill:#000000;fill-rule:evenodd;fill-opacity:1;stroke:none;"
     d="  M 113.68577,73.47631   L 115.16527,77.032114   L 116.16494,75.513905   z "
     id="path70" />
  <path
     style="fill:#000000;fill-rule:evenodd;fill-opacity:1;stroke:none;"
     d="  M 115.16527,77.032114   L 116.16494,75.513905   L 118.3642,78.670181   z "
     id="path71" />
  <path
     style="fill:#000000;fill-rule:evenodd;fill-opacity:1;stroke:none;"
     d="  M 116.16494,75.513905   L 118.3642,78.670181   L 119.04397,76.992161   z "
     id="path72" />
  <path
     style="fill:#000000;fill-rule:evenodd;fill-opacity:1;stroke:none;"
     d="  M 118.3642,78.670181   L 119.04397,76.992161   L 121.84303,79.629049   z "
     id="path73" />
  <path
     style="fill:#000000;fill-rule:evenodd;fill-opacity:1;stroke:none;"
     d="  M 119.04397,76.992161   L 121.84303,79.629049   L 122.12294,77.831171   z "
     id="path74" />
  <path
     style="fill:#000000;fill-rule:evenodd;fill-opacity:1;stroke:none;"
     d="  M 121.84303,79.629049   L 122.12294,77.831171   L 125.44183,79.78886   z "
     id="path75" />
  <path
     style="fill:#000000;fill-rule:evenodd;fill-opacity:1;stroke:none;"
     d="  M 122.12294,77.831171   L 125.44183,79.78886   L 125.32187,77.990982   z "
     id="path76" />
  <path
     style="fill:#000000;fill-rule:evenodd;fill-opacity:1;stroke:none;"
     d="  M 125.44183,79.78886   L 125.32187,77.990982   L 128.96064,79.22952   z "
     id="path77" />
  <path
     style="fill:#000000;fill-rule:evenodd;fill-opacity:1;stroke:none;"
     d="  M 125.32187,77.990982   L 128.96064,79.22952   L 128.48081,77.471595   z "
     id="path78" />
  <path
     style="fill:#000000;fill-rule:evenodd;fill-opacity:1;stroke:none;"
     d="  M 128.96064,79.22952   L 128.48081,77.471595   L 132.31952,77.911076   z "
     id="path79" />
  <path
     style="fill:#000000;fill-rule:evenodd;fill-opacity:1;stroke:none;"
     d="  M 128.48081,77.471595   L 132.31952,77.911076   L 131.4798,76.312962   z "
     id="path80" />
  <path
     style="fill:#000000;fill-rule:evenodd;fill-opacity:1;stroke:none;"
     d="  M 132.31952,77.911076   L 131.4798,76.312962   L 135.31851,75.913434   z "
     id="path81" />
  <path
     style="fill:#000000;fill-rule:evenodd;fill-opacity:1;stroke:none;"
     d="  M 131.4798,76.312962   L 135.31851,75.913434   L 134.1589,74.515084   z "
     id="path82" />
  <path
     style="fill:#000000;fill-rule:evenodd;fill-opacity:1;stroke:none;"
     d="  M 135.31851,75.913434   L 134.1589,74.515084   L 137.79768,73.356451   z "
     id="path83" />
  <path
     style="fill:#000000;fill-rule:evenodd;fill-opacity:1;stroke:none;"
     d="  M 134.1589,74.515084   L 137.79768,73.356451   L 136.39815,72.237771   z "
     id="path84" />
  <path
     style="fill:#000000;fill-rule:evenodd;fill-opacity:1;stroke:none;"
     d="  M 137.79768,73.356451   L 136.39815,72.237771   L 138.55742,71.678431   z "
     id="path85" />
  <path
     style="fill:#000000;fill-rule:evenodd;fill-opacity:1;stroke:none;"
     d="  M 136.39815,72.237771   L 138.55742,71.678431   L 136.79801,71.318856   z "
     id="path86" />
  <path
     style="fill:#000000;fill-rule:evenodd;fill-opacity:1;stroke:none;"
     d="  M 138.55742,71.678431   L 136.79801,71.318856   L 138.51744,69.880553   z "
     id="path87" />
  <path
     style="fill:#000000;fill-rule:evenodd;fill-opacity:1;stroke:none;"
     d="  M 136.79801,71.318856   L 138.51744,69.880553   L 136.75803,70.359987   z "
     id="path88" />
  <path
     style="fill:#000000;fill-rule:evenodd;fill-opacity:1;stroke:none;"
     d="  M 138.51744,69.880553   L 136.75803,70.359987   L 137.59775,68.282439   z "
     id="path89" />
  <path
     style="fill:#000000;fill-rule:evenodd;fill-opacity:1;stroke:none;"
     d="  M 136.75803,70.359987   L 137.59775,68.282439   L 136.27819,69.481025   z "
     id="path90" />
  <path
     style="fill:none;stroke:#000000;stroke-width:0.95967793px;stroke-linecap:round;stroke-linejoin:round;stroke-miterlimit:4;stroke-dasharray:none;stroke-opacity:1;"
     d="  M 132.43948,166.32674   L 134.31885,167.64518   L 136.51811,168.32438   L 138.83733,168.32438   L 141.07658,167.64518   L 142.95595,166.32674  "
     id="path91" />
  <path
     style="fill:none;stroke:#000000;stroke-width:0.95967793px;stroke-linecap:round;stroke-linejoin:round;stroke-miterlimit:4;stroke-dasharray:none;stroke-opacity:1;"
     d="  M 142.95595,166.32674   L 144.8753,167.64518   L 147.07457,168.32438   L 149.39379,168.32438   L 151.63304,167.64518   L 153.5124,166.32674  "
     id="path92" />
  <path
     style="fill:none;stroke:#000000;stroke-width:0.95967793px;stroke-linecap:round;stroke-linejoin:round;stroke-miterlimit:4;stroke-dasharray:none;stroke-opacity:1;"
     d="  M 153.5124,166.32674   L 151.63304,165.00829   L 149.39379,164.28914   L 147.07457,164.28914   L 144.8753,165.00829   L 142.95595,166.32674  "
     id="path93" />
  <path
     style="fill:none;stroke:#000000;stroke-width:0.95967793px;stroke-linecap:round;stroke-linejoin:round;stroke-miterlimit:4;stroke-dasharray:none;stroke-opacity:1;"
     d="  M 216.93112,10.670427   L 216.41129,8.433067   L 215.25168,6.3954716   L 213.57225,4.8373104   L 211.45296,3.8384891   L 209.17372,3.5188663  "
     id="path94" />
  <path
     style="fill:none;stroke:#000000;stroke-width:0.95967793px;stroke-linecap:round;stroke-linejoin:round;stroke-miterlimit:4;stroke-dasharray:none;stroke-opacity:1;"
     d="  M 224.68852,17.821987   L 224.20868,15.584628   L 223.04907,13.547032   L 221.32964,11.988871   L 219.21035,10.99005   L 216.93112,10.670427  "
     id="path95" />
  <path
     style="fill:none;stroke:#000000;stroke-width:0.95967793px;stroke-linecap:round;stroke-linejoin:round;stroke-miterlimit:4;stroke-dasharray:none;stroke-opacity:1;"
     d="  M 216.93112,10.670427   L 217.41096,12.947739   L 218.57057,14.945382   L 220.28999,16.543496   L 222.40928,17.502364   L 224.68852,17.821987  "
     id="path96" />
  <path
     style="fill:none;stroke:#000000;stroke-width:0.95967793px;stroke-linecap:round;stroke-linejoin:round;stroke-miterlimit:4;stroke-dasharray:none;stroke-opacity:1;"
     d="  M 69.020762,10.670427   L 66.70154,10.99005   L 64.622238,11.988871   L 62.902815,13.547032   L 61.743205,15.584628   L 61.263366,17.821987  "
     id="path97" />
  <path
     style="fill:none;stroke:#000000;stroke-width:0.95967793px;stroke-linecap:round;stroke-linejoin:round;stroke-miterlimit:4;stroke-dasharray:none;stroke-opacity:1;"
     d="  M 76.778158,3.5188663   L 74.498923,3.8384891   L 72.379635,4.8373104   L 70.660212,6.3954716   L 69.500601,8.433067   L 69.020762,10.670427  "
     id="path98" />
  <path
     style="fill:none;stroke:#000000;stroke-width:0.95967793px;stroke-linecap:round;stroke-linejoin:round;stroke-miterlimit:4;stroke-dasharray:none;stroke-opacity:1;"
     d="  M 69.020762,10.670427   L 71.299997,10.350804   L 73.419286,9.3919355   L 75.138709,7.7938214   L 76.29832,5.7961788   L 76.778158,3.5188663  "
     id="path99" />
  <path
     style="fill:none;stroke:#000000;stroke-width:0.95967793px;stroke-linecap:round;stroke-linejoin:round;stroke-miterlimit:4;stroke-dasharray:none;stroke-opacity:1;"
     d="  M 236.00472,90.975659   L 238.40391,87.819384   L 240.08335,84.183674   L 240.96305,80.308247   L 240.96305,76.312962   L 240.08335,72.437536   L 238.40391,68.801826   L 236.00472,65.645551  "
     id="path100" />
  <path
     style="fill:none;stroke:#000000;stroke-width:0.95967793px;stroke-linecap:round;stroke-linejoin:round;stroke-miterlimit:4;stroke-dasharray:none;stroke-opacity:1;"
     d="  M 236.00472,116.30577   L 238.40391,113.14949   L 240.08335,109.51378   L 240.96305,105.63836   L 240.96305,101.64307   L 240.08335,97.767644   L 238.40391,94.131934   L 236.00472,90.975659  "
     id="path101" />
  <path
     style="fill:none;stroke:#000000;stroke-width:0.95967793px;stroke-linecap:round;stroke-linejoin:round;stroke-miterlimit:4;stroke-dasharray:none;stroke-opacity:1;"
     d="  M 236.00472,90.975659   L 233.56554,94.131934   L 231.8861,97.767644   L 231.04638,101.64307   L 231.04638,105.63836   L 231.8861,109.51378   L 233.56554,113.14949   L 236.00472,116.30577  "
     id="path102" />
  <path
     style="fill:none;stroke:#000000;stroke-width:0.95967793px;stroke-linecap:round;stroke-linejoin:round;stroke-miterlimit:4;stroke-dasharray:none;stroke-opacity:1;"
     d="  M 49.947164,65.645551   L 47.547969,68.801826   L 45.868533,72.437536   L 44.988828,76.312962   L 44.988828,80.308247   L 45.868533,84.183674   L 47.547969,87.819384   L 49.947164,90.975659  "
     id="path103" />
  <path
     style="fill:none;stroke:#000000;stroke-width:0.95967793px;stroke-linecap:round;stroke-linejoin:round;stroke-miterlimit:4;stroke-dasharray:none;stroke-opacity:1;"
     d="  M 49.947164,90.975659   L 47.547969,94.131934   L 45.868533,97.767644   L 44.988828,101.64307   L 44.988828,105.63836   L 45.868533,109.51378   L 47.547969,113.14949   L 49.947164,116.30577  "
     id="path104" />
  <path
     style="fill:none;stroke:#000000;stroke-width:0.95967793px;stroke-linecap:round;stroke-linejoin:round;stroke-miterlimit:4;stroke-dasharray:none;stroke-opacity:1;"
     d="  M 49.947164,116.30577   L 52.386345,113.14949   L 54.065781,109.51378   L 54.9055,105.63836   L 54.9055,101.64307   L 54.065781,97.767644   L 52.386345,94.131934   L 49.947164,90.975659  "
     id="path105" />
  <path
     style="fill:#000000;fill-rule:evenodd;fill-opacity:1;stroke:none;"
     d="  M 236.00472,208.99638   L 236.00472,207.1985   L 49.947164,208.99638   z "
     id="path106" />
  <path
     style="fill:#000000;fill-rule:evenodd;fill-opacity:1;stroke:none;"
     d="  M 236.00472,207.1985   L 49.947164,208.99638   L 49.947164,207.1985   z "
     id="path107" />
  <path
     style="fill:#000000;fill-rule:evenodd;fill-opacity:1;stroke:none;"
     d="  M 236.00472,259.6566   L 236.00472,257.85872   L 49.947164,259.6566   z "
     id="path108" />
  <path
     style="fill:#000000;fill-rule:evenodd;fill-opacity:1;stroke:none;"
     d="  M 236.00472,257.85872   L 49.947164,259.6566   L 49.947164,257.85872   z "
     id="path109" />
  <path
     style="fill:none;stroke:#000000;stroke-width:0.95967793px;stroke-linecap:round;stroke-linejoin:round;stroke-miterlimit:4;stroke-dasharray:none;stroke-opacity:1;"
     d="  M 142.95595,282.54958   L 142.95595,192.65567  "
     id="path110" />
  <path
     style="fill:none;stroke:#000000;stroke-width:0.95967793px;stroke-linecap:round;stroke-linejoin:round;stroke-miterlimit:4;stroke-dasharray:none;stroke-opacity:1;"
     d="  M 293.30549,233.44753   L 229.72682,233.44753  "
     id="path111" />
  <path
     style="fill:none;stroke:#000000;stroke-width:0.95967793px;stroke-linecap:round;stroke-linejoin:round;stroke-miterlimit:4;stroke-dasharray:none;stroke-opacity:1;"
     d="  M 214.65188,233.44753   L 199.57694,233.44753  "
     id="path112" />
  <path
     style="fill:none;stroke:#000000;stroke-width:0.95967793px;stroke-linecap:round;stroke-linejoin:round;stroke-miterlimit:4;stroke-dasharray:none;stroke-opacity:1;"
     d="  M 184.502,233.44753   L 109.1273,233.44753  "
     id="path113" />
  <path
     style="fill:none;stroke:#000000;stroke-width:0.95967793px;stroke-linecap:round;stroke-linejoin:round;stroke-miterlimit:4;stroke-dasharray:none;stroke-opacity:1;"
     d="  M 94.052361,233.44753   L 78.97742,233.44753  "
     id="path114" />
  <path
     style="fill:none;stroke:#000000;stroke-width:0.95967793px;stroke-linecap:round;stroke-linejoin:round;stroke-miterlimit:4;stroke-dasharray:none;stroke-opacity:1;"
     d="  M 63.90248,233.44753   L 0.36380517,233.44753  "
     id="path115" />
  <path
     style="fill:none;stroke:#000000;stroke-width:0.95967793px;stroke-linecap:round;stroke-linejoin:round;stroke-miterlimit:4;stroke-dasharray:none;stroke-opacity:1;"
     d="  M 236.00472,233.44753   L 238.40391,230.2513   L 240.08335,226.65554   L 240.96305,222.78012   L 240.96305,218.78483   L 240.08335,214.86945   L 238.40391,211.2737   L 236.00472,208.11742  "
     id="path116" />
  <path
     style="fill:none;stroke:#000000;stroke-width:0.95967793px;stroke-linecap:round;stroke-linejoin:round;stroke-miterlimit:4;stroke-dasharray:none;stroke-opacity:1;"
     d="  M 236.00472,258.77764   L 238.40391,255.58141   L 240.08335,251.98565   L 240.96305,248.07027   L 240.96305,244.11494   L 240.08335,240.19956   L 238.40391,236.6038   L 236.00472,233.44753  "
     id="path117" />
  <path
     style="fill:none;stroke:#000000;stroke-width:0.95967793px;stroke-linecap:round;stroke-linejoin:round;stroke-miterlimit:4;stroke-dasharray:none;stroke-opacity:1;"
     d="  M 236.00472,233.44753   L 233.56554,236.6038   L 231.8861,240.19956   L 231.04638,244.11494   L 231.04638,248.07027   L 231.8861,251.98565   L 233.56554,255.58141   L 236.00472,258.77764  "
     id="path118" />
  <path
     style="fill:none;stroke:#000000;stroke-width:0.95967793px;stroke-linecap:round;stroke-linejoin:round;stroke-miterlimit:4;stroke-dasharray:none;stroke-opacity:1;"
     d="  M 49.947164,208.11742   L 47.547969,211.2737   L 45.868533,214.86945   L 44.988828,218.78483   L 44.988828,222.78012   L 45.868533,226.65554   L 47.547969,230.2513   L 49.947164,233.44753  "
     id="path119" />
  <path
     style="fill:none;stroke:#000000;stroke-width:0.95967793px;stroke-linecap:round;stroke-linejoin:round;stroke-miterlimit:4;stroke-dasharray:none;stroke-opacity:1;"
     d="  M 49.947164,233.44753   L 47.547969,236.6038   L 45.868533,240.19956   L 44.988828,244.11494   L 44.988828,248.07027   L 45.868533,251.98565   L 47.547969,255.58141   L 49.947164,258.77764  "
     id="path120" />
  <path
     style="fill:none;stroke:#000000;stroke-width:0.95967793px;stroke-linecap:round;stroke-linejoin:round;stroke-miterlimit:4;stroke-dasharray:none;stroke-opacity:1;"
     d="  M 49.947164,258.77764   L 52.386345,255.58141   L 54.065781,251.98565   L 54.9055,248.07027   L 54.9055,244.11494   L 54.065781,240.19956   L 52.386345,236.6038   L 49.947164,233.44753  "
     id="path121" />
  <path
     style="fill:none;stroke:#000000;stroke-width:0.95967793px;stroke-linecap:round;stroke-linejoin:round;stroke-miterlimit:4;stroke-dasharray:none;stroke-opacity:1;"
     d="  M 171.46638,221.182   L 171.26645,222.26073   L 170.70663,223.2995   L 169.78694,224.25837   L 168.54736,225.09738   L 167.02787,225.81653   L 165.30845,226.37587   L 163.42908,226.6955   L 161.42975,226.85531   L 159.43042,226.81536   L 157.47108,226.57564   L 155.67168,226.0962   L 154.03223,225.49691   L 152.67269,224.69785   L 151.59305,223.77894   L 150.8333,222.78012   L 150.47342,221.74134   L 150.47342,220.66262   L 150.8333,219.58389   L 151.59305,218.58507   L 152.67269,217.66615   L 154.03223,216.90705   L 155.67168,216.2678   L 157.47108,215.82832   L 159.43042,215.54865   L 161.42975,215.5087   L 163.42908,215.66851   L 165.30845,216.02809   L 167.02787,216.54747   L 168.54736,217.26662   L 169.78694,218.10563   L 170.70663,219.0645   L 171.26645,220.10328   L 171.46638,221.182   z "
     id="path122" />
  <path
     style="fill:none;stroke:#000000;stroke-width:0.95967793px;stroke-linecap:round;stroke-linejoin:round;stroke-miterlimit:4;stroke-dasharray:none;stroke-opacity:1;"
     d="  M 114.4855,221.182   L 114.68544,222.26073   L 115.24525,223.2995   L 116.16494,224.25837   L 117.40452,225.09738   L 118.92401,225.81653   L 120.64344,226.37587   L 122.52281,226.6955   L 124.52213,226.85531   L 126.52146,226.81536   L 128.44082,226.57564   L 130.2802,226.0962   L 131.91965,225.49691   L 133.2792,224.69785   L 134.35883,223.77894   L 135.11858,222.78012   L 135.47846,221.74134   L 135.47846,220.66262   L 135.11858,219.58389   L 134.35883,218.58507   L 133.2792,217.66615   L 131.91965,216.90705   L 130.2802,216.2678   L 128.44082,215.82832   L 126.52146,215.54865   L 124.52213,215.5087   L 122.52281,215.66851   L 120.64344,216.02809   L 118.92401,216.54747   L 117.40452,217.26662   L 116.16494,218.10563   L 115.24525,219.0645   L 114.68544,220.10328   L 114.4855,221.182   z "
     id="path123" />
  <path
     style="fill:none;stroke:#000000;stroke-width:0.95967793px;stroke-linecap:round;stroke-linejoin:round;stroke-miterlimit:4;stroke-dasharray:none;stroke-opacity:1;"
     d="  M 142.95595,250.02796   L 141.9163,249.86815   L 140.87665,249.50857   L 139.91697,248.86933   L 139.03726,247.99037   L 138.35749,246.91164   L 137.79768,245.71305   L 137.4378,244.39461   L 137.31784,242.99626   L 137.35783,241.59791   L 137.59775,240.23951   L 138.0376,238.96102   L 138.67738,237.80239   L 139.47712,236.84352   L 140.35682,236.08442   L 141.35648,235.56503   L 142.43612,235.28536   L 143.51576,235.28536   L 144.55541,235.56503   L 145.59506,236.08442   L 146.47477,236.84352   L 147.2745,237.80239   L 147.8743,238.96102   L 148.35414,240.23951   L 148.59406,241.59791   L 148.63404,242.99626   L 148.4741,244.39461   L 148.1542,245.71305   L 147.59439,246.91164   L 146.87463,247.99037   L 146.03491,248.86933   L 145.07524,249.50857   L 144.03559,249.86815   L 142.95595,250.02796   z "
     id="path124" />
  <path
     style="fill:#000000;fill-rule:evenodd;fill-opacity:1;stroke:none;"
     d="  M 135.6384,218.54511   L 134.47879,219.90351   L 132.47946,216.38766   z "
     id="path125" />
  <path
     style="fill:#000000;fill-rule:evenodd;fill-opacity:1;stroke:none;"
     d="  M 134.47879,219.90351   L 132.47946,216.38766   L 131.63975,217.98577   z "
     id="path126" />
  <path
     style="fill:#000000;fill-rule:evenodd;fill-opacity:1;stroke:none;"
     d="  M 132.47946,216.38766   L 131.63975,217.98577   L 128.92066,215.02926   z "
     id="path127" />
  <path
     style="fill:#000000;fill-rule:evenodd;fill-opacity:1;stroke:none;"
     d="  M 131.63975,217.98577   L 128.92066,215.02926   L 128.48081,216.78719   z "
     id="path128" />
  <path
     style="fill:#000000;fill-rule:evenodd;fill-opacity:1;stroke:none;"
     d="  M 128.92066,215.02926   L 128.48081,216.78719   L 125.12193,214.54983   z "
     id="path129" />
  <path
     style="fill:#000000;fill-rule:evenodd;fill-opacity:1;stroke:none;"
     d="  M 128.48081,216.78719   L 125.12193,214.54983   L 125.12193,216.34771   z "
     id="path130" />
  <path
     style="fill:#000000;fill-rule:evenodd;fill-opacity:1;stroke:none;"
     d="  M 125.12193,214.54983   L 125.12193,216.34771   L 121.32321,214.94936   z "
     id="path131" />
  <path
     style="fill:#000000;fill-rule:evenodd;fill-opacity:1;stroke:none;"
     d="  M 125.12193,216.34771   L 121.32321,214.94936   L 121.72307,216.70728   z "
     id="path132" />
  <path
     style="fill:#000000;fill-rule:evenodd;fill-opacity:1;stroke:none;"
     d="  M 135.83834,223.57917   L 134.23887,222.74016   L 136.43814,221.182   z "
     id="path133" />
  <path
     style="fill:#000000;fill-rule:evenodd;fill-opacity:1;stroke:none;"
     d="  M 134.23887,222.74016   L 136.43814,221.182   L 134.63874,221.182   z "
     id="path134" />
  <path
     style="fill:#000000;fill-rule:evenodd;fill-opacity:1;stroke:none;"
     d="  M 136.43814,221.182   L 134.63874,221.182   L 135.83834,218.82478   z "
     id="path135" />
  <path
     style="fill:#000000;fill-rule:evenodd;fill-opacity:1;stroke:none;"
     d="  M 134.63874,221.182   L 135.83834,218.82478   L 134.23887,219.66379   z "
     id="path136" />
  <path
     style="fill:#000000;fill-rule:evenodd;fill-opacity:1;stroke:none;"
     d="  M 127.80103,227.57446   L 127.48114,225.81653   L 131.95964,226.25602   z "
     id="path137" />
  <path
     style="fill:#000000;fill-rule:evenodd;fill-opacity:1;stroke:none;"
     d="  M 127.48114,225.81653   L 131.95964,226.25602   L 131.19989,224.61795   z "
     id="path138" />
  <path
     style="fill:#000000;fill-rule:evenodd;fill-opacity:1;stroke:none;"
     d="  M 131.95964,226.25602   L 131.19989,224.61795   L 135.6384,223.81889   z "
     id="path139" />
  <path
     style="fill:#000000;fill-rule:evenodd;fill-opacity:1;stroke:none;"
     d="  M 131.19989,224.61795   L 135.6384,223.81889   L 134.47879,222.46049   z "
     id="path140" />
  <path
     style="fill:#000000;fill-rule:evenodd;fill-opacity:1;stroke:none;"
     d="  M 121.32321,227.4546   L 121.72307,225.65672   L 124.56212,227.85413   z "
     id="path141" />
  <path
     style="fill:#000000;fill-rule:evenodd;fill-opacity:1;stroke:none;"
     d="  M 121.72307,225.65672   L 124.56212,227.85413   L 124.60211,226.0163   z "
     id="path142" />
  <path
     style="fill:#000000;fill-rule:evenodd;fill-opacity:1;stroke:none;"
     d="  M 124.56212,227.85413   L 124.60211,226.0163   L 127.80103,227.57446   z "
     id="path143" />
  <path
     style="fill:#000000;fill-rule:evenodd;fill-opacity:1;stroke:none;"
     d="  M 124.60211,226.0163   L 127.80103,227.57446   L 127.48114,225.81653   z "
     id="path144" />
  <path
     style="fill:#000000;fill-rule:evenodd;fill-opacity:1;stroke:none;"
     d="  M 128.52079,214.94936   L 128.12093,216.70728   L 124.72207,214.54983   z "
     id="path145" />
  <path
     style="fill:#000000;fill-rule:evenodd;fill-opacity:1;stroke:none;"
     d="  M 128.12093,216.70728   L 124.72207,214.54983   L 124.76205,216.34771   z "
     id="path146" />
  <path
     style="fill:#000000;fill-rule:evenodd;fill-opacity:1;stroke:none;"
     d="  M 124.72207,214.54983   L 124.76205,216.34771   L 120.92334,215.02926   z "
     id="path147" />
  <path
     style="fill:#000000;fill-rule:evenodd;fill-opacity:1;stroke:none;"
     d="  M 124.76205,216.34771   L 120.92334,215.02926   L 121.40318,216.78719   z "
     id="path148" />
  <path
     style="fill:#000000;fill-rule:evenodd;fill-opacity:1;stroke:none;"
     d="  M 120.92334,215.02926   L 121.40318,216.78719   L 117.36454,216.38766   z "
     id="path149" />
  <path
     style="fill:#000000;fill-rule:evenodd;fill-opacity:1;stroke:none;"
     d="  M 121.40318,216.78719   L 117.36454,216.38766   L 118.20425,217.98577   z "
     id="path150" />
  <path
     style="fill:#000000;fill-rule:evenodd;fill-opacity:1;stroke:none;"
     d="  M 117.36454,216.38766   L 118.20425,217.98577   L 114.2056,218.54511   z "
     id="path151" />
  <path
     style="fill:#000000;fill-rule:evenodd;fill-opacity:1;stroke:none;"
     d="  M 118.20425,217.98577   L 114.2056,218.54511   L 115.40519,219.90351   z "
     id="path152" />
  <path
     style="fill:#000000;fill-rule:evenodd;fill-opacity:1;stroke:none;"
     d="  M 114.00566,218.82478   L 115.60513,219.66379   L 113.40587,221.182   z "
     id="path153" />
  <path
     style="fill:#000000;fill-rule:evenodd;fill-opacity:1;stroke:none;"
     d="  M 115.60513,219.66379   L 113.40587,221.182   L 115.24525,221.182   z "
     id="path154" />
  <path
     style="fill:#000000;fill-rule:evenodd;fill-opacity:1;stroke:none;"
     d="  M 113.40587,221.182   L 115.24525,221.182   L 114.00566,223.57917   z "
     id="path155" />
  <path
     style="fill:#000000;fill-rule:evenodd;fill-opacity:1;stroke:none;"
     d="  M 115.24525,221.182   L 114.00566,223.57917   L 115.60513,222.74016   z "
     id="path156" />
  <path
     style="fill:#000000;fill-rule:evenodd;fill-opacity:1;stroke:none;"
     d="  M 114.2056,223.81889   L 115.40519,222.46049   L 117.88436,226.25602   z "
     id="path157" />
  <path
     style="fill:#000000;fill-rule:evenodd;fill-opacity:1;stroke:none;"
     d="  M 115.40519,222.46049   L 117.88436,226.25602   L 118.68409,224.61795   z "
     id="path158" />
  <path
     style="fill:#000000;fill-rule:evenodd;fill-opacity:1;stroke:none;"
     d="  M 117.88436,226.25602   L 118.68409,224.61795   L 122.08295,227.57446   z "
     id="path159" />
  <path
     style="fill:#000000;fill-rule:evenodd;fill-opacity:1;stroke:none;"
     d="  M 118.68409,224.61795   L 122.08295,227.57446   L 122.40285,225.81653   z "
     id="path160" />
  <path
     style="fill:#000000;fill-rule:evenodd;fill-opacity:1;stroke:none;"
     d="  M 122.08295,227.57446   L 122.40285,225.81653   L 125.32187,227.85413   z "
     id="path161" />
  <path
     style="fill:#000000;fill-rule:evenodd;fill-opacity:1;stroke:none;"
     d="  M 122.40285,225.81653   L 125.32187,227.85413   L 125.28188,226.0163   z "
     id="path162" />
  <path
     style="fill:#000000;fill-rule:evenodd;fill-opacity:1;stroke:none;"
     d="  M 125.32187,227.85413   L 125.28188,226.0163   L 128.52079,227.4546   z "
     id="path163" />
  <path
     style="fill:#000000;fill-rule:evenodd;fill-opacity:1;stroke:none;"
     d="  M 125.28188,226.0163   L 128.52079,227.4546   L 128.12093,225.65672   z "
     id="path164" />
  <path
     style="fill:#000000;fill-rule:evenodd;fill-opacity:1;stroke:none;"
     d="  M 171.74628,218.54511   L 170.54669,219.90351   L 168.58734,216.38766   z "
     id="path165" />
  <path
     style="fill:#000000;fill-rule:evenodd;fill-opacity:1;stroke:none;"
     d="  M 170.54669,219.90351   L 168.58734,216.38766   L 167.74763,217.98577   z "
     id="path166" />
  <path
     style="fill:#000000;fill-rule:evenodd;fill-opacity:1;stroke:none;"
     d="  M 168.58734,216.38766   L 167.74763,217.98577   L 164.98855,215.02926   z "
     id="path167" />
  <path
     style="fill:#000000;fill-rule:evenodd;fill-opacity:1;stroke:none;"
     d="  M 167.74763,217.98577   L 164.98855,215.02926   L 164.5487,216.78719   z "
     id="path168" />
  <path
     style="fill:#000000;fill-rule:evenodd;fill-opacity:1;stroke:none;"
     d="  M 164.98855,215.02926   L 164.5487,216.78719   L 161.22981,214.54983   z "
     id="path169" />
  <path
     style="fill:#000000;fill-rule:evenodd;fill-opacity:1;stroke:none;"
     d="  M 164.5487,216.78719   L 161.22981,214.54983   L 161.18983,216.34771   z "
     id="path170" />
  <path
     style="fill:#000000;fill-rule:evenodd;fill-opacity:1;stroke:none;"
     d="  M 161.22981,214.54983   L 161.18983,216.34771   L 157.43109,214.94936   z "
     id="path171" />
  <path
     style="fill:#000000;fill-rule:evenodd;fill-opacity:1;stroke:none;"
     d="  M 161.18983,216.34771   L 157.43109,214.94936   L 157.83096,216.70728   z "
     id="path172" />
  <path
     style="fill:#000000;fill-rule:evenodd;fill-opacity:1;stroke:none;"
     d="  M 171.94622,223.57917   L 170.34675,222.74016   L 172.50603,221.182   z "
     id="path173" />
  <path
     style="fill:#000000;fill-rule:evenodd;fill-opacity:1;stroke:none;"
     d="  M 170.34675,222.74016   L 172.50603,221.182   L 170.70663,221.182   z "
     id="path174" />
  <path
     style="fill:#000000;fill-rule:evenodd;fill-opacity:1;stroke:none;"
     d="  M 172.50603,221.182   L 170.70663,221.182   L 171.94622,218.82478   z "
     id="path175" />
  <path
     style="fill:#000000;fill-rule:evenodd;fill-opacity:1;stroke:none;"
     d="  M 170.70663,221.182   L 171.94622,218.82478   L 170.34675,219.66379   z "
     id="path176" />
  <path
     style="fill:#000000;fill-rule:evenodd;fill-opacity:1;stroke:none;"
     d="  M 163.86893,227.57446   L 163.54904,225.81653   L 168.06752,226.25602   z "
     id="path177" />
  <path
     style="fill:#000000;fill-rule:evenodd;fill-opacity:1;stroke:none;"
     d="  M 163.54904,225.81653   L 168.06752,226.25602   L 167.26779,224.61795   z "
     id="path178" />
  <path
     style="fill:#000000;fill-rule:evenodd;fill-opacity:1;stroke:none;"
     d="  M 168.06752,226.25602   L 167.26779,224.61795   L 171.74628,223.81889   z "
     id="path179" />
  <path
     style="fill:#000000;fill-rule:evenodd;fill-opacity:1;stroke:none;"
     d="  M 167.26779,224.61795   L 171.74628,223.81889   L 170.54669,222.46049   z "
     id="path180" />
  <path
     style="fill:#000000;fill-rule:evenodd;fill-opacity:1;stroke:none;"
     d="  M 157.43109,227.4546   L 157.83096,225.65672   L 160.63002,227.85413   z "
     id="path181" />
  <path
     style="fill:#000000;fill-rule:evenodd;fill-opacity:1;stroke:none;"
     d="  M 157.83096,225.65672   L 160.63002,227.85413   L 160.67,226.0163   z "
     id="path182" />
  <path
     style="fill:#000000;fill-rule:evenodd;fill-opacity:1;stroke:none;"
     d="  M 160.63002,227.85413   L 160.67,226.0163   L 163.86893,227.57446   z "
     id="path183" />
  <path
     style="fill:#000000;fill-rule:evenodd;fill-opacity:1;stroke:none;"
     d="  M 160.67,226.0163   L 163.86893,227.57446   L 163.54904,225.81653   z "
     id="path184" />
  <path
     style="fill:#000000;fill-rule:evenodd;fill-opacity:1;stroke:none;"
     d="  M 164.58869,214.94936   L 164.18882,216.70728   L 160.78996,214.54983   z "
     id="path185" />
  <path
     style="fill:#000000;fill-rule:evenodd;fill-opacity:1;stroke:none;"
     d="  M 164.18882,216.70728   L 160.78996,214.54983   L 160.82995,216.34771   z "
     id="path186" />
  <path
     style="fill:#000000;fill-rule:evenodd;fill-opacity:1;stroke:none;"
     d="  M 160.78996,214.54983   L 160.82995,216.34771   L 157.03122,215.02926   z "
     id="path187" />
  <path
     style="fill:#000000;fill-rule:evenodd;fill-opacity:1;stroke:none;"
     d="  M 160.82995,216.34771   L 157.03122,215.02926   L 157.47108,216.78719   z "
     id="path188" />
  <path
     style="fill:#000000;fill-rule:evenodd;fill-opacity:1;stroke:none;"
     d="  M 157.03122,215.02926   L 157.47108,216.78719   L 153.43243,216.38766   z "
     id="path189" />
  <path
     style="fill:#000000;fill-rule:evenodd;fill-opacity:1;stroke:none;"
     d="  M 157.47108,216.78719   L 153.43243,216.38766   L 154.27215,217.98577   z "
     id="path190" />
  <path
     style="fill:#000000;fill-rule:evenodd;fill-opacity:1;stroke:none;"
     d="  M 153.43243,216.38766   L 154.27215,217.98577   L 150.31348,218.54511   z "
     id="path191" />
  <path
     style="fill:#000000;fill-rule:evenodd;fill-opacity:1;stroke:none;"
     d="  M 154.27215,217.98577   L 150.31348,218.54511   L 151.47309,219.90351   z "
     id="path192" />
  <path
     style="fill:#000000;fill-rule:evenodd;fill-opacity:1;stroke:none;"
     d="  M 150.07356,218.82478   L 151.67302,219.66379   L 149.51375,221.182   z "
     id="path193" />
  <path
     style="fill:#000000;fill-rule:evenodd;fill-opacity:1;stroke:none;"
     d="  M 151.67302,219.66379   L 149.51375,221.182   L 151.31314,221.182   z "
     id="path194" />
  <path
     style="fill:#000000;fill-rule:evenodd;fill-opacity:1;stroke:none;"
     d="  M 149.51375,221.182   L 151.31314,221.182   L 150.07356,223.57917   z "
     id="path195" />
  <path
     style="fill:#000000;fill-rule:evenodd;fill-opacity:1;stroke:none;"
     d="  M 151.31314,221.182   L 150.07356,223.57917   L 151.67302,222.74016   z "
     id="path196" />
  <path
     style="fill:#000000;fill-rule:evenodd;fill-opacity:1;stroke:none;"
     d="  M 150.31348,223.81889   L 151.47309,222.46049   L 153.95226,226.25602   z "
     id="path197" />
  <path
     style="fill:#000000;fill-rule:evenodd;fill-opacity:1;stroke:none;"
     d="  M 151.47309,222.46049   L 153.95226,226.25602   L 154.75199,224.61795   z "
     id="path198" />
  <path
     style="fill:#000000;fill-rule:evenodd;fill-opacity:1;stroke:none;"
     d="  M 153.95226,226.25602   L 154.75199,224.61795   L 158.15085,227.57446   z "
     id="path199" />
  <path
     style="fill:#000000;fill-rule:evenodd;fill-opacity:1;stroke:none;"
     d="  M 154.75199,224.61795   L 158.15085,227.57446   L 158.47074,225.81653   z "
     id="path200" />
  <path
     style="fill:#000000;fill-rule:evenodd;fill-opacity:1;stroke:none;"
     d="  M 158.15085,227.57446   L 158.47074,225.81653   L 161.38976,227.85413   z "
     id="path201" />
  <path
     style="fill:#000000;fill-rule:evenodd;fill-opacity:1;stroke:none;"
     d="  M 158.47074,225.81653   L 161.38976,227.85413   L 161.34977,226.0163   z "
     id="path202" />
  <path
     style="fill:#000000;fill-rule:evenodd;fill-opacity:1;stroke:none;"
     d="  M 161.38976,227.85413   L 161.34977,226.0163   L 164.58869,227.4546   z "
     id="path203" />
  <path
     style="fill:#000000;fill-rule:evenodd;fill-opacity:1;stroke:none;"
     d="  M 161.34977,226.0163   L 164.58869,227.4546   L 164.18882,225.65672   z "
     id="path204" />
  <path
     style="fill:#000000;fill-rule:evenodd;fill-opacity:1;stroke:none;"
     d="  M 145.59506,250.14782   L 144.23552,248.94924   L 147.59439,247.27122   z "
     id="path205" />
  <path
     style="fill:#000000;fill-rule:evenodd;fill-opacity:1;stroke:none;"
     d="  M 144.23552,248.94924   L 147.59439,247.27122   L 146.03491,246.39225   z "
     id="path206" />
  <path
     style="fill:#000000;fill-rule:evenodd;fill-opacity:1;stroke:none;"
     d="  M 147.59439,247.27122   L 146.03491,246.39225   L 148.95393,244.07499   z "
     id="path207" />
  <path
     style="fill:#000000;fill-rule:evenodd;fill-opacity:1;stroke:none;"
     d="  M 146.03491,246.39225   L 148.95393,244.07499   L 147.19452,243.5556   z "
     id="path208" />
  <path
     style="fill:#000000;fill-rule:evenodd;fill-opacity:1;stroke:none;"
     d="  M 140.59674,250.34758   L 141.43646,248.74947   L 142.95595,250.90692   z "
     id="path209" />
  <path
     style="fill:#000000;fill-rule:evenodd;fill-opacity:1;stroke:none;"
     d="  M 141.43646,248.74947   L 142.95595,250.90692   L 142.95595,249.10905   z "
     id="path210" />
  <path
     style="fill:#000000;fill-rule:evenodd;fill-opacity:1;stroke:none;"
     d="  M 142.95595,250.90692   L 142.95595,249.10905   L 145.35514,250.34758   z "
     id="path211" />
  <path
     style="fill:#000000;fill-rule:evenodd;fill-opacity:1;stroke:none;"
     d="  M 142.95595,249.10905   L 145.35514,250.34758   L 144.51542,248.74947   z "
     id="path212" />
  <path
     style="fill:#000000;fill-rule:evenodd;fill-opacity:1;stroke:none;"
     d="  M 138.0376,246.71188   L 139.67705,245.91282   L 140.31683,250.14782   z "
     id="path213" />
  <path
     style="fill:#000000;fill-rule:evenodd;fill-opacity:1;stroke:none;"
     d="  M 139.67705,245.91282   L 140.31683,250.14782   L 141.71636,248.94924   z "
     id="path214" />
  <path
     style="fill:#000000;fill-rule:evenodd;fill-opacity:1;stroke:none;"
     d="  M 147.91428,246.63197   L 146.39479,245.71305   L 148.91395,244.2348   z "
     id="path215" />
  <path
     style="fill:#000000;fill-rule:evenodd;fill-opacity:1;stroke:none;"
     d="  M 146.39479,245.71305   L 148.91395,244.2348   L 147.15454,243.79532   z "
     id="path216" />
  <path
     style="fill:#000000;fill-rule:evenodd;fill-opacity:1;stroke:none;"
     d="  M 148.91395,244.2348   L 147.15454,243.79532   L 149.15387,241.63786   z "
     id="path217" />
  <path
     style="fill:#000000;fill-rule:evenodd;fill-opacity:1;stroke:none;"
     d="  M 147.15454,243.79532   L 149.15387,241.63786   L 147.31448,241.75772   z "
     id="path218" />
  <path
     style="fill:#000000;fill-rule:evenodd;fill-opacity:1;stroke:none;"
     d="  M 149.15387,241.63786   L 147.31448,241.75772   L 148.59406,239.08088   z "
     id="path219" />
  <path
     style="fill:#000000;fill-rule:evenodd;fill-opacity:1;stroke:none;"
     d="  M 147.31448,241.75772   L 148.59406,239.08088   L 146.91462,239.72013   z "
     id="path220" />
  <path
     style="fill:#000000;fill-rule:evenodd;fill-opacity:1;stroke:none;"
     d="  M 148.59406,239.08088   L 146.91462,239.72013   L 147.31448,236.80357   z "
     id="path221" />
  <path
     style="fill:#000000;fill-rule:evenodd;fill-opacity:1;stroke:none;"
     d="  M 146.91462,239.72013   L 147.31448,236.80357   L 145.91495,237.92225   z "
     id="path222" />
  <path
     style="fill:#000000;fill-rule:evenodd;fill-opacity:1;stroke:none;"
     d="  M 147.31448,236.80357   L 145.91495,237.92225   L 145.43512,235.00569   z "
     id="path223" />
  <path
     style="fill:#000000;fill-rule:evenodd;fill-opacity:1;stroke:none;"
     d="  M 145.91495,237.92225   L 145.43512,235.00569   L 144.39546,236.48395   z "
     id="path224" />
  <path
     style="fill:#000000;fill-rule:evenodd;fill-opacity:1;stroke:none;"
     d="  M 145.35514,234.96574   L 144.51542,236.56385   L 142.95595,234.36644   z "
     id="path225" />
  <path
     style="fill:#000000;fill-rule:evenodd;fill-opacity:1;stroke:none;"
     d="  M 144.51542,236.56385   L 142.95595,234.36644   L 142.95595,236.16432   z "
     id="path226" />
  <path
     style="fill:#000000;fill-rule:evenodd;fill-opacity:1;stroke:none;"
     d="  M 142.95595,234.36644   L 142.95595,236.16432   L 140.59674,234.96574   z "
     id="path227" />
  <path
     style="fill:#000000;fill-rule:evenodd;fill-opacity:1;stroke:none;"
     d="  M 142.95595,236.16432   L 140.59674,234.96574   L 141.43646,236.56385   z "
     id="path228" />
  <path
     style="fill:#000000;fill-rule:evenodd;fill-opacity:1;stroke:none;"
     d="  M 140.43679,235.04564   L 141.5964,236.44399   L 138.35749,237.48277   z "
     id="path229" />
  <path
     style="fill:#000000;fill-rule:evenodd;fill-opacity:1;stroke:none;"
     d="  M 141.5964,236.44399   L 138.35749,237.48277   L 139.91697,238.40168   z "
     id="path230" />
  <path
     style="fill:#000000;fill-rule:evenodd;fill-opacity:1;stroke:none;"
     d="  M 138.35749,237.48277   L 139.91697,238.40168   L 137.23787,240.47923   z "
     id="path231" />
  <path
     style="fill:#000000;fill-rule:evenodd;fill-opacity:1;stroke:none;"
     d="  M 139.91697,238.40168   L 137.23787,240.47923   L 138.99728,240.83881   z "
     id="path232" />
  <path
     style="fill:#000000;fill-rule:evenodd;fill-opacity:1;stroke:none;"
     d="  M 137.23787,240.47923   L 138.99728,240.83881   L 137.11791,243.67546   z "
     id="path233" />
  <path
     style="fill:#000000;fill-rule:evenodd;fill-opacity:1;stroke:none;"
     d="  M 138.99728,240.83881   L 137.11791,243.67546   L 138.9173,243.43574   z "
     id="path234" />
  <path
     style="fill:#000000;fill-rule:evenodd;fill-opacity:1;stroke:none;"
     d="  M 137.11791,243.67546   L 138.9173,243.43574   L 138.0376,246.71188   z "
     id="path235" />
  <path
     style="fill:#000000;fill-rule:evenodd;fill-opacity:1;stroke:none;"
     d="  M 138.9173,243.43574   L 138.0376,246.71188   L 139.67705,245.91282   z "
     id="path236" />
  <path
     style="fill:none;stroke:#000000;stroke-width:0.95967793px;stroke-linecap:round;stroke-linejoin:round;stroke-miterlimit:4;stroke-dasharray:none;stroke-opacity:1;"
     d="  M 232.60586,53.619742   L 214.53192,53.619742  "
     id="path237" />
  <path
     style="fill:none;stroke:#000000;stroke-width:0.95967793px;stroke-linecap:round;stroke-linejoin:round;stroke-miterlimit:4;stroke-dasharray:none;stroke-opacity:1;"
     d="  M 202.6959,34.642138   L 214.53192,53.619742  "
     id="path238" />
  <path
     style="fill:none;stroke:#000000;stroke-width:0.95967793px;stroke-linecap:round;stroke-linejoin:round;stroke-miterlimit:4;stroke-dasharray:none;stroke-opacity:1;"
     d="  M 221.84947,41.074547   L 221.84947,40.395349   L 222.36929,38.996999   L 222.84913,38.3178   L 223.80881,37.598649   L 225.76815,37.598649   L 226.72783,38.3178   L 227.20767,38.996999   L 227.7275,40.395349   L 227.7275,41.793698   L 227.20767,43.192048   L 226.24799,45.269596   L 221.36963,52.221393   L 228.20733,52.221393  "
     id="path239" />
  <path
     style="fill:none;stroke:#000000;stroke-width:0.95967793px;stroke-linecap:round;stroke-linejoin:round;stroke-miterlimit:4;stroke-dasharray:none;stroke-opacity:1;"
     d="  M 57.024788,53.539837   L 75.098722,53.539837  "
     id="path240" />
  <path
     style="fill:none;stroke:#000000;stroke-width:0.95967793px;stroke-linecap:round;stroke-linejoin:round;stroke-miterlimit:4;stroke-dasharray:none;stroke-opacity:1;"
     d="  M 85.935085,36.200299   L 75.098722,53.539837  "
     id="path241" />
  <path
     style="fill:none;stroke:#000000;stroke-width:0.95967793px;stroke-linecap:round;stroke-linejoin:round;stroke-miterlimit:4;stroke-dasharray:none;stroke-opacity:1;"
     d="  M 64.342332,41.034594   L 64.342332,40.315443   L 64.862158,38.957046   L 65.341997,38.237895   L 66.301675,37.558696   L 68.261017,37.558696   L 69.220695,38.237895   L 69.700534,38.957046   L 70.220359,40.315443   L 70.220359,41.713793   L 69.700534,43.112142   L 68.740856,45.189691   L 63.862493,52.141487   L 70.700198,52.141487  "
     id="path242" />
  <path
     style="fill:none;stroke:#000000;stroke-width:0.95967793px;stroke-linecap:round;stroke-linejoin:round;stroke-miterlimit:4;stroke-dasharray:none;stroke-opacity:1;"
     d="  M 194.49865,173.67806   L 176.38473,173.67806  "
     id="path243" />
  <path
     style="fill:none;stroke:#000000;stroke-width:0.95967793px;stroke-linecap:round;stroke-linejoin:round;stroke-miterlimit:4;stroke-dasharray:none;stroke-opacity:1;"
     d="  M 150.87329,154.70046   L 176.38473,173.67806  "
     id="path244" />
  <path
     style="fill:none;stroke:#000000;stroke-width:0.95967793px;stroke-linecap:round;stroke-linejoin:round;stroke-miterlimit:4;stroke-dasharray:none;stroke-opacity:1;"
     d="  M 183.74226,161.13287   L 183.74226,160.45367   L 184.2221,159.05532   L 184.70194,158.37612   L 185.7016,157.65697   L 187.62096,157.65697   L 188.62062,158.37612   L 189.10046,159.05532   L 189.5803,160.45367   L 189.5803,161.85202   L 189.10046,163.25037   L 188.14078,165.32792   L 183.26242,172.27971   L 190.06014,172.27971  "
     id="path245" />
  <path
     style="fill:none;stroke:#000000;stroke-width:0.95967793px;stroke-linecap:round;stroke-linejoin:round;stroke-miterlimit:4;stroke-dasharray:none;stroke-opacity:1;"
     d="  M 214.49194,105.35869   L 230.28664,135.64295  "
     id="path246" />
  <path
     style="fill:none;stroke:#000000;stroke-width:0.95967793px;stroke-linecap:round;stroke-linejoin:round;stroke-miterlimit:4;stroke-dasharray:none;stroke-opacity:1;"
     d="  M 230.28664,135.64295   L 248.40056,135.64295  "
     id="path247" />
  <path
     style="fill:none;stroke:#000000;stroke-width:0.95967793px;stroke-linecap:round;stroke-linejoin:round;stroke-miterlimit:4;stroke-dasharray:none;stroke-opacity:1;"
     d="  M 238.52387,119.90152   L 239.48355,119.22233   L 240.96305,117.10482   L 240.96305,131.72757  "
     id="path248" />
  <path
     style="fill:#000000;fill-rule:evenodd;fill-opacity:1;stroke:none;"
     d="  M 239.28362,70.919327   L 239.28362,70.040365   L 221.32964,70.919327   z "
     id="path249" />
  <path
     style="fill:#000000;fill-rule:evenodd;fill-opacity:1;stroke:none;"
     d="  M 239.28362,70.040365   L 221.32964,70.919327   L 221.32964,70.040365   z "
     id="path250" />
  <path
     style="fill:#000000;fill-rule:evenodd;fill-opacity:1;stroke:none;"
     d="  M 215.29167,70.919327   L 215.29167,70.040365   L 200.21673,70.919327   z "
     id="path251" />
  <path
     style="fill:#000000;fill-rule:evenodd;fill-opacity:1;stroke:none;"
     d="  M 215.29167,70.040365   L 200.21673,70.919327   L 200.21673,70.040365   z "
     id="path252" />
  <path
     style="fill:#000000;fill-rule:evenodd;fill-opacity:1;stroke:none;"
     d="  M 194.17876,70.919327   L 194.17876,70.040365   L 176.22478,70.919327   z "
     id="path253" />
  <path
     style="fill:#000000;fill-rule:evenodd;fill-opacity:1;stroke:none;"
     d="  M 194.17876,70.040365   L 176.22478,70.919327   L 176.22478,70.040365   z "
     id="path254" />
  <path
     style="fill:#000000;fill-rule:evenodd;fill-opacity:1;stroke:none;"
     d="  M 176.22478,70.919327   L 176.22478,70.040365   L 176.22478,70.040365   z "
     id="path255" />
  <path
     style="fill:#000000;fill-rule:evenodd;fill-opacity:1;stroke:none;"
     d="  M 239.28362,111.95091   L 239.28362,111.03199   L 230.4066,111.95091   z "
     id="path256" />
  <path
     style="fill:#000000;fill-rule:evenodd;fill-opacity:1;stroke:none;"
     d="  M 239.28362,111.03199   L 230.4066,111.95091   L 230.4066,111.03199   z "
     id="path257" />
  <path
     style="fill:#000000;fill-rule:evenodd;fill-opacity:1;stroke:none;"
     d="  M 224.36862,111.95091   L 224.36862,111.03199   L 209.29368,111.95091   z "
     id="path258" />
  <path
     style="fill:#000000;fill-rule:evenodd;fill-opacity:1;stroke:none;"
     d="  M 224.36862,111.03199   L 209.29368,111.95091   L 209.29368,111.03199   z "
     id="path259" />
  <path
     style="fill:#000000;fill-rule:evenodd;fill-opacity:1;stroke:none;"
     d="  M 203.25571,111.95091   L 203.25571,111.03199   L 188.18077,111.95091   z "
     id="path260" />
  <path
     style="fill:#000000;fill-rule:evenodd;fill-opacity:1;stroke:none;"
     d="  M 203.25571,111.03199   L 188.18077,111.95091   L 188.18077,111.03199   z "
     id="path261" />
  <path
     style="fill:#000000;fill-rule:evenodd;fill-opacity:1;stroke:none;"
     d="  M 182.18278,111.95091   L 182.18278,111.03199   L 167.10784,111.95091   z "
     id="path262" />
  <path
     style="fill:#000000;fill-rule:evenodd;fill-opacity:1;stroke:none;"
     d="  M 182.18278,111.03199   L 167.10784,111.95091   L 167.10784,111.03199   z "
     id="path263" />
  <path
     style="fill:#000000;fill-rule:evenodd;fill-opacity:1;stroke:none;"
     d="  M 161.06987,111.95091   L 161.06987,111.03199   L 145.99493,111.95091   z "
     id="path264" />
  <path
     style="fill:#000000;fill-rule:evenodd;fill-opacity:1;stroke:none;"
     d="  M 161.06987,111.03199   L 145.99493,111.95091   L 145.99493,111.03199   z "
     id="path265" />
  <path
     style="fill:#000000;fill-rule:evenodd;fill-opacity:1;stroke:none;"
     d="  M 139.95695,111.95091   L 139.95695,111.03199   L 124.88201,111.95091   z "
     id="path266" />
  <path
     style="fill:#000000;fill-rule:evenodd;fill-opacity:1;stroke:none;"
     d="  M 139.95695,111.03199   L 124.88201,111.95091   L 124.88201,111.03199   z "
     id="path267" />
  <path
     style="fill:#000000;fill-rule:evenodd;fill-opacity:1;stroke:none;"
     d="  M 118.84404,111.95091   L 118.84404,111.03199   L 103.7691,111.95091   z "
     id="path268" />
  <path
     style="fill:#000000;fill-rule:evenodd;fill-opacity:1;stroke:none;"
     d="  M 118.84404,111.03199   L 103.7691,111.95091   L 103.7691,111.03199   z "
     id="path269" />
  <path
     style="fill:#000000;fill-rule:evenodd;fill-opacity:1;stroke:none;"
     d="  M 97.731126,111.95091   L 97.731126,111.03199   L 82.656186,111.95091   z "
     id="path270" />
  <path
     style="fill:#000000;fill-rule:evenodd;fill-opacity:1;stroke:none;"
     d="  M 97.731126,111.03199   L 82.656186,111.95091   L 82.656186,111.03199   z "
     id="path271" />
  <path
     style="fill:#000000;fill-rule:evenodd;fill-opacity:1;stroke:none;"
     d="  M 76.658199,111.95091   L 76.658199,111.03199   L 61.583258,111.95091   z "
     id="path272" />
  <path
     style="fill:#000000;fill-rule:evenodd;fill-opacity:1;stroke:none;"
     d="  M 76.658199,111.03199   L 61.583258,111.95091   L 61.583258,111.03199   z "
     id="path273" />
  <path
     style="fill:#000000;fill-rule:evenodd;fill-opacity:1;stroke:none;"
     d="  M 55.545285,111.95091   L 55.545285,111.03199   L 46.628278,111.95091   z "
     id="path274" />
  <path
     style="fill:#000000;fill-rule:evenodd;fill-opacity:1;stroke:none;"
     d="  M 55.545285,111.03199   L 46.628278,111.95091   L 46.628278,111.03199   z "
     id="path275" />
  <path
     style="fill:#000000;fill-rule:evenodd;fill-opacity:1;stroke:none;"
     d="  M 46.628278,111.95091   L 46.628278,111.03199   L 46.628278,111.03199   z "
     id="path276" />
  <path
     style="fill:#000000;fill-rule:evenodd;fill-opacity:1;stroke:none;"
     d="  M 239.28362,213.3912   L 239.28362,212.47228   L 230.4066,213.3912   z "
     id="path277" />
  <path
     style="fill:#000000;fill-rule:evenodd;fill-opacity:1;stroke:none;"
     d="  M 239.28362,212.47228   L 230.4066,213.3912   L 230.4066,212.47228   z "
     id="path278" />
  <path
     style="fill:#000000;fill-rule:evenodd;fill-opacity:1;stroke:none;"
     d="  M 224.36862,213.3912   L 224.36862,212.47228   L 209.29368,213.3912   z "
     id="path279" />
  <path
     style="fill:#000000;fill-rule:evenodd;fill-opacity:1;stroke:none;"
     d="  M 224.36862,212.47228   L 209.29368,213.3912   L 209.29368,212.47228   z "
     id="path280" />
  <path
     style="fill:#000000;fill-rule:evenodd;fill-opacity:1;stroke:none;"
     d="  M 203.25571,213.3912   L 203.25571,212.47228   L 188.18077,213.3912   z "
     id="path281" />
  <path
     style="fill:#000000;fill-rule:evenodd;fill-opacity:1;stroke:none;"
     d="  M 203.25571,212.47228   L 188.18077,213.3912   L 188.18077,212.47228   z "
     id="path282" />
  <path
     style="fill:#000000;fill-rule:evenodd;fill-opacity:1;stroke:none;"
     d="  M 182.18278,213.3912   L 182.18278,212.47228   L 167.10784,213.3912   z "
     id="path283" />
  <path
     style="fill:#000000;fill-rule:evenodd;fill-opacity:1;stroke:none;"
     d="  M 182.18278,212.47228   L 167.10784,213.3912   L 167.10784,212.47228   z "
     id="path284" />
  <path
     style="fill:#000000;fill-rule:evenodd;fill-opacity:1;stroke:none;"
     d="  M 161.06987,213.3912   L 161.06987,212.47228   L 145.99493,213.3912   z "
     id="path285" />
  <path
     style="fill:#000000;fill-rule:evenodd;fill-opacity:1;stroke:none;"
     d="  M 161.06987,212.47228   L 145.99493,213.3912   L 145.99493,212.47228   z "
     id="path286" />
  <path
     style="fill:#000000;fill-rule:evenodd;fill-opacity:1;stroke:none;"
     d="  M 139.95695,213.3912   L 139.95695,212.47228   L 124.88201,213.3912   z "
     id="path287" />
  <path
     style="fill:#000000;fill-rule:evenodd;fill-opacity:1;stroke:none;"
     d="  M 139.95695,212.47228   L 124.88201,213.3912   L 124.88201,212.47228   z "
     id="path288" />
  <path
     style="fill:#000000;fill-rule:evenodd;fill-opacity:1;stroke:none;"
     d="  M 118.84404,213.3912   L 118.84404,212.47228   L 103.7691,213.3912   z "
     id="path289" />
  <path
     style="fill:#000000;fill-rule:evenodd;fill-opacity:1;stroke:none;"
     d="  M 118.84404,212.47228   L 103.7691,213.3912   L 103.7691,212.47228   z "
     id="path290" />
  <path
     style="fill:#000000;fill-rule:evenodd;fill-opacity:1;stroke:none;"
     d="  M 97.731126,213.3912   L 97.731126,212.47228   L 82.656186,213.3912   z "
     id="path291" />
  <path
     style="fill:#000000;fill-rule:evenodd;fill-opacity:1;stroke:none;"
     d="  M 97.731126,212.47228   L 82.656186,213.3912   L 82.656186,212.47228   z "
     id="path292" />
  <path
     style="fill:#000000;fill-rule:evenodd;fill-opacity:1;stroke:none;"
     d="  M 76.658199,213.3912   L 76.658199,212.47228   L 61.583258,213.3912   z "
     id="path293" />
  <path
     style="fill:#000000;fill-rule:evenodd;fill-opacity:1;stroke:none;"
     d="  M 76.658199,212.47228   L 61.583258,213.3912   L 61.583258,212.47228   z "
     id="path294" />
  <path
     style="fill:#000000;fill-rule:evenodd;fill-opacity:1;stroke:none;"
     d="  M 55.545285,213.3912   L 55.545285,212.47228   L 46.628278,213.3912   z "
     id="path295" />
  <path
     style="fill:#000000;fill-rule:evenodd;fill-opacity:1;stroke:none;"
     d="  M 55.545285,212.47228   L 46.628278,213.3912   L 46.628278,212.47228   z "
     id="path296" />
  <path
     style="fill:#000000;fill-rule:evenodd;fill-opacity:1;stroke:none;"
     d="  M 46.628278,213.3912   L 46.628278,212.47228   L 46.628278,212.47228   z "
     id="path297" />
  <path
     style="fill:#000000;fill-rule:evenodd;fill-opacity:1;stroke:none;"
     d="  M 239.28362,254.38282   L 239.28362,253.46391   L 230.4066,254.38282   z "
     id="path298" />
  <path
     style="fill:#000000;fill-rule:evenodd;fill-opacity:1;stroke:none;"
     d="  M 239.28362,253.46391   L 230.4066,254.38282   L 230.4066,253.46391   z "
     id="path299" />
  <path
     style="fill:#000000;fill-rule:evenodd;fill-opacity:1;stroke:none;"
     d="  M 224.36862,254.38282   L 224.36862,253.46391   L 209.29368,254.38282   z "
     id="path300" />
  <path
     style="fill:#000000;fill-rule:evenodd;fill-opacity:1;stroke:none;"
     d="  M 224.36862,253.46391   L 209.29368,254.38282   L 209.29368,253.46391   z "
     id="path301" />
  <path
     style="fill:#000000;fill-rule:evenodd;fill-opacity:1;stroke:none;"
     d="  M 203.25571,254.38282   L 203.25571,253.46391   L 188.18077,254.38282   z "
     id="path302" />
  <path
     style="fill:#000000;fill-rule:evenodd;fill-opacity:1;stroke:none;"
     d="  M 203.25571,253.46391   L 188.18077,254.38282   L 188.18077,253.46391   z "
     id="path303" />
  <path
     style="fill:#000000;fill-rule:evenodd;fill-opacity:1;stroke:none;"
     d="  M 182.18278,254.38282   L 182.18278,253.46391   L 167.10784,254.38282   z "
     id="path304" />
  <path
     style="fill:#000000;fill-rule:evenodd;fill-opacity:1;stroke:none;"
     d="  M 182.18278,253.46391   L 167.10784,254.38282   L 167.10784,253.46391   z "
     id="path305" />
  <path
     style="fill:#000000;fill-rule:evenodd;fill-opacity:1;stroke:none;"
     d="  M 161.06987,254.38282   L 161.06987,253.46391   L 145.99493,254.38282   z "
     id="path306" />
  <path
     style="fill:#000000;fill-rule:evenodd;fill-opacity:1;stroke:none;"
     d="  M 161.06987,253.46391   L 145.99493,254.38282   L 145.99493,253.46391   z "
     id="path307" />
  <path
     style="fill:#000000;fill-rule:evenodd;fill-opacity:1;stroke:none;"
     d="  M 139.95695,254.38282   L 139.95695,253.46391   L 124.88201,254.38282   z "
     id="path308" />
  <path
     style="fill:#000000;fill-rule:evenodd;fill-opacity:1;stroke:none;"
     d="  M 139.95695,253.46391   L 124.88201,254.38282   L 124.88201,253.46391   z "
     id="path309" />
  <path
     style="fill:#000000;fill-rule:evenodd;fill-opacity:1;stroke:none;"
     d="  M 118.84404,254.38282   L 118.84404,253.46391   L 103.7691,254.38282   z "
     id="path310" />
  <path
     style="fill:#000000;fill-rule:evenodd;fill-opacity:1;stroke:none;"
     d="  M 118.84404,253.46391   L 103.7691,254.38282   L 103.7691,253.46391   z "
     id="path311" />
  <path
     style="fill:#000000;fill-rule:evenodd;fill-opacity:1;stroke:none;"
     d="  M 97.731126,254.38282   L 97.731126,253.46391   L 82.656186,254.38282   z "
     id="path312" />
  <path
     style="fill:#000000;fill-rule:evenodd;fill-opacity:1;stroke:none;"
     d="  M 97.731126,253.46391   L 82.656186,254.38282   L 82.656186,253.46391   z "
     id="path313" />
  <path
     style="fill:#000000;fill-rule:evenodd;fill-opacity:1;stroke:none;"
     d="  M 76.658199,254.38282   L 76.658199,253.46391   L 61.583258,254.38282   z "
     id="path314" />
  <path
     style="fill:#000000;fill-rule:evenodd;fill-opacity:1;stroke:none;"
     d="  M 76.658199,253.46391   L 61.583258,254.38282   L 61.583258,253.46391   z "
     id="path315" />
  <path
     style="fill:#000000;fill-rule:evenodd;fill-opacity:1;stroke:none;"
     d="  M 55.545285,254.38282   L 55.545285,253.46391   L 46.628278,254.38282   z "
     id="path316" />
  <path
     style="fill:#000000;fill-rule:evenodd;fill-opacity:1;stroke:none;"
     d="  M 55.545285,253.46391   L 46.628278,254.38282   L 46.628278,253.46391   z "
     id="path317" />
  <path
     style="fill:#000000;fill-rule:evenodd;fill-opacity:1;stroke:none;"
     d="  M 46.628278,254.38282   L 46.628278,253.46391   L 46.628278,253.46391   z "
     id="path318" />
  <path
     style="fill:#000000;fill-rule:evenodd;fill-opacity:1;stroke:none;"
     d="  M 109.7271,70.919327   L 109.7271,70.040365   L 91.733139,70.919327   z "
     id="path319" />
  <path
     style="fill:#000000;fill-rule:evenodd;fill-opacity:1;stroke:none;"
     d="  M 109.7271,70.040365   L 91.733139,70.919327   L 91.733139,70.040365   z "
     id="path320" />
  <path
     style="fill:#000000;fill-rule:evenodd;fill-opacity:1;stroke:none;"
     d="  M 85.735152,70.919327   L 85.735152,70.040365   L 70.660212,70.919327   z "
     id="path321" />
  <path
     style="fill:#000000;fill-rule:evenodd;fill-opacity:1;stroke:none;"
     d="  M 85.735152,70.040365   L 70.660212,70.919327   L 70.660212,70.040365   z "
     id="path322" />
  <path
     style="fill:#000000;fill-rule:evenodd;fill-opacity:1;stroke:none;"
     d="  M 64.622238,70.919327   L 64.622238,70.040365   L 46.628278,70.919327   z "
     id="path323" />
  <path
     style="fill:#000000;fill-rule:evenodd;fill-opacity:1;stroke:none;"
     d="  M 64.622238,70.040365   L 46.628278,70.919327   L 46.628278,70.040365   z "
     id="path324" />
  <path
     style="fill:#000000;fill-rule:evenodd;fill-opacity:1;stroke:none;"
     d="  M 46.628278,70.919327   L 46.628278,70.040365   L 46.628278,70.040365   z "
     id="path325" />
  <path
     style="fill:#000000;fill-rule:evenodd;fill-opacity:1;stroke:none;"
     d="  M 148.23418,70.919327   L 148.23418,70.040365   L 137.71771,70.919327   z "
     id="path326" />
  <path
     style="fill:#000000;fill-rule:evenodd;fill-opacity:1;stroke:none;"
     d="  M 148.23418,70.040365   L 137.71771,70.919327   L 137.71771,70.040365   z "
     id="path327" />
</svg>
