<?xml version="1.0" encoding="UTF-8" standalone="no"?>
<svg
   version="1.0"
   width="404.03mm"
   height="173.31mm"
   id="svg117"
   sodipodi:docname="image228.emf"
   xmlns:inkscape="http://www.inkscape.org/namespaces/inkscape"
   xmlns:sodipodi="http://sodipodi.sourceforge.net/DTD/sodipodi-0.dtd"
   xmlns="http://www.w3.org/2000/svg"
   xmlns:svg="http://www.w3.org/2000/svg">
  <sodipodi:namedview
     id="namedview117"
     pagecolor="#ffffff"
     bordercolor="#000000"
     borderopacity="0.25"
     inkscape:showpageshadow="2"
     inkscape:pageopacity="0.0"
     inkscape:pagecheckerboard="0"
     inkscape:deskcolor="#d1d1d1"
     inkscape:document-units="mm" />
  <defs
     id="defs1">
    <pattern
       id="EMFhbasepattern"
       patternUnits="userSpaceOnUse"
       width="6"
       height="6"
       x="0"
       y="0" />
  </defs>
  <path
     style="fill:none;stroke:#000000;stroke-width:0.047653235px;stroke-linecap:round;stroke-linejoin:round;stroke-miterlimit:4;stroke-dasharray:none;stroke-opacity:1;"
     d="  M 124.87867,130.64775   L 124.87867,69.799138   L 132.55084,67.376593   L 117.2065,63.196517   L 124.87867,60.773972   L 124.87867,-0.027143355  "
     id="path1" />
  <path
     style="fill:none;stroke:#000000;stroke-width:0.047653235px;stroke-linecap:round;stroke-linejoin:round;stroke-miterlimit:4;stroke-dasharray:none;stroke-opacity:1;"
     d="  M 398.59884,134.11532   L 398.59884,69.799138   L 406.27101,67.376593   L 390.92667,63.196517   L 398.59884,60.773972   L 398.59884,-0.027143355  "
     id="path2" />
  <path
     style="fill:#000000;fill-rule:evenodd;fill-opacity:1;stroke:none;"
     d="  M 310.86924,124.85265   L 313.63313,131.36027   L 308.91546,126.08767   z "
     id="path3" />
  <path
     style="fill:none;stroke:#000000;stroke-width:0.047653235px;stroke-linecap:round;stroke-linejoin:round;stroke-miterlimit:4;stroke-dasharray:none;stroke-opacity:1;"
     d="  M 309.91617,125.47016   L 287.61446,90.319514   L 243.43991,90.319514  "
     id="path4" />
  <path
     style="fill:none;stroke:#000000;stroke-width:0.047653235px;stroke-linecap:round;stroke-linejoin:round;stroke-miterlimit:4;stroke-dasharray:none;stroke-opacity:1;"
     d="  M 255.30557,78.6343   L 255.30557,79.109309   L 254.82904,80.581836   L 254.30485,81.721857   L 253.87597,82.719375   L 253.39944,83.289385  "
     id="path5" />
  <path
     style="fill:none;stroke:#000000;stroke-width:0.047653235px;stroke-linecap:round;stroke-linejoin:round;stroke-miterlimit:4;stroke-dasharray:none;stroke-opacity:1;"
     d="  M 254.87669,81.38935   L 257.25935,80.676837   L 257.06874,80.344331   L 257.02109,81.151846   L 256.78282,83.621891   L 256.68751,84.524408   L 256.59221,85.284422   L 256.4969,85.616928   L 256.40159,85.759431   L 255.87741,84.951916   L 256.44925,85.616928  "
     id="path6" />
  <path
     style="fill:none;stroke:#000000;stroke-width:0.047653235px;stroke-linecap:round;stroke-linejoin:round;stroke-miterlimit:4;stroke-dasharray:none;stroke-opacity:1;"
     d="  M 254.54312,82.576872   L 254.59077,84.856914   L 254.68608,86.234439   L 254.73373,86.80445   L 254.82904,87.231958   L 255.11496,87.421961   L 255.54384,87.659466   L 255.92506,87.659466   L 256.78282,87.659466   L 257.06874,87.659466   L 257.307,87.469462   L 257.44996,87.421961   L 257.307,85.664429   L 257.307,87.469462  "
     id="path7" />
  <path
     style="fill:none;stroke:#000000;stroke-width:0.047653235px;stroke-linecap:round;stroke-linejoin:round;stroke-miterlimit:4;stroke-dasharray:none;stroke-opacity:1;"
     d="  M 254.59077,83.146883   L 256.06802,82.624373   L 255.87741,82.291867   L 255.68679,84.286904   L 255.87741,84.191902   L 255.82975,84.191902   L 254.68608,84.61941  "
     id="path8" />
  <path
     style="fill:none;stroke:#000000;stroke-width:0.047653235px;stroke-linecap:round;stroke-linejoin:round;stroke-miterlimit:4;stroke-dasharray:none;stroke-opacity:1;"
     d="  M 257.87884,80.81934   L 258.0218,81.38935   L 258.06946,84.999417   L 258.0218,84.666911   L 258.06946,84.0969  "
     id="path9" />
  <path
     style="fill:none;stroke:#000000;stroke-width:0.047653235px;stroke-linecap:round;stroke-linejoin:round;stroke-miterlimit:4;stroke-dasharray:none;stroke-opacity:1;"
     d="  M 258.97487,78.539298   L 259.07017,79.20431   L 259.07017,86.994453   L 259.07017,87.706966   L 258.97487,88.039473   L 258.97487,88.324478   L 258.87956,88.371979   L 258.06946,87.231958   L 258.92721,88.229476  "
     id="path10" />
  <path
     style="fill:none;stroke:#000000;stroke-width:0.047653235px;stroke-linecap:round;stroke-linejoin:round;stroke-miterlimit:4;stroke-dasharray:none;stroke-opacity:1;"
     d="  M 261.45284,79.346813   L 265.78928,78.6343   L 265.59867,78.539298   L 265.21744,78.681801  "
     id="path11" />
  <path
     style="fill:none;stroke:#000000;stroke-width:0.047653235px;stroke-linecap:round;stroke-linejoin:round;stroke-miterlimit:4;stroke-dasharray:none;stroke-opacity:1;"
     d="  M 263.64488,79.014307   L 263.74019,87.089455   L 263.64488,88.371979   L 263.59723,87.801968   L 263.64488,87.136956  "
     id="path12" />
  <path
     style="fill:none;stroke:#000000;stroke-width:0.047653235px;stroke-linecap:round;stroke-linejoin:round;stroke-miterlimit:4;stroke-dasharray:none;stroke-opacity:1;"
     d="  M 260.59508,83.764394   L 266.64704,82.719375   L 266.36112,82.624373   L 265.97989,82.861878  "
     id="path13" />
  <path
     style="fill:none;stroke:#000000;stroke-width:0.047653235px;stroke-linecap:round;stroke-linejoin:round;stroke-miterlimit:4;stroke-dasharray:none;stroke-opacity:1;"
     d="  M 265.45571,79.821822   L 265.45571,80.439333   L 264.59795,82.481871  "
     id="path14" />
  <path
     style="fill:none;stroke:#000000;stroke-width:0.047653235px;stroke-linecap:round;stroke-linejoin:round;stroke-miterlimit:4;stroke-dasharray:none;stroke-opacity:1;"
     d="  M 261.88172,80.439333   L 262.4059,81.721857   L 262.45355,82.291867  "
     id="path15" />
  <path
     style="fill:none;stroke:#000000;stroke-width:0.047653235px;stroke-linecap:round;stroke-linejoin:round;stroke-miterlimit:4;stroke-dasharray:none;stroke-opacity:1;"
     d="  M 268.02898,80.106827   L 270.26868,79.774321  "
     id="path16" />
  <path
     style="fill:none;stroke:#000000;stroke-width:0.047653235px;stroke-linecap:round;stroke-linejoin:round;stroke-miterlimit:4;stroke-dasharray:none;stroke-opacity:1;"
     d="  M 269.12501,80.011825   L 269.26797,80.581836   L 269.26797,85.901933   L 269.07735,86.519445   L 269.0297,86.661947   L 268.07664,85.331923   L 269.07735,86.519445  "
     id="path17" />
  <path
     style="fill:none;stroke:#000000;stroke-width:0.047653235px;stroke-linecap:round;stroke-linejoin:round;stroke-miterlimit:4;stroke-dasharray:none;stroke-opacity:1;"
     d="  M 270.50695,79.20431   L 273.79502,78.681801   L 273.55676,78.681801   L 273.03257,78.776803  "
     id="path18" />
  <path
     style="fill:none;stroke:#000000;stroke-width:0.047653235px;stroke-linecap:round;stroke-linejoin:round;stroke-miterlimit:4;stroke-dasharray:none;stroke-opacity:1;"
     d="  M 271.84124,79.20431   L 271.88889,79.774321   L 271.55532,81.056844  "
     id="path19" />
  <path
     style="fill:none;stroke:#000000;stroke-width:0.047653235px;stroke-linecap:round;stroke-linejoin:round;stroke-miterlimit:4;stroke-dasharray:none;stroke-opacity:1;"
     d="  M 270.64991,80.724338   L 270.74522,81.34185   L 270.74522,85.331923   L 270.69756,84.856914   L 270.74522,83.954398  "
     id="path20" />
  <path
     style="fill:none;stroke:#000000;stroke-width:0.047653235px;stroke-linecap:round;stroke-linejoin:round;stroke-miterlimit:4;stroke-dasharray:none;stroke-opacity:1;"
     d="  M 270.74522,81.151846   L 273.27084,80.81934   L 273.12788,80.581836   L 273.03257,81.151846   L 272.93727,84.856914   L 272.93727,85.426925   L 272.88961,84.951916   L 272.93727,84.191902  "
     id="path21" />
  <path
     style="fill:none;stroke:#000000;stroke-width:0.047653235px;stroke-linecap:round;stroke-linejoin:round;stroke-miterlimit:4;stroke-dasharray:none;stroke-opacity:1;"
     d="  M 271.84124,82.054363   L 271.84124,82.386869   L 271.84124,82.719375   L 271.74593,84.761912   L 271.60297,85.331923   L 271.46002,86.091937   L 271.22175,86.566945   L 270.88818,87.136956   L 270.4593,87.659466   L 269.83981,88.134474  "
     id="path22" />
  <path
     style="fill:none;stroke:#000000;stroke-width:0.047653235px;stroke-linecap:round;stroke-linejoin:round;stroke-miterlimit:4;stroke-dasharray:none;stroke-opacity:1;"
     d="  M 272.07951,85.664429   L 272.98492,86.756949   L 273.27084,87.326959   L 273.4138,87.801968  "
     id="path23" />
  <path
     style="fill:none;stroke:#000000;stroke-width:0.047653235px;stroke-linecap:round;stroke-linejoin:round;stroke-miterlimit:4;stroke-dasharray:none;stroke-opacity:1;"
     d="  M 275.98707,78.919305   L 276.13003,79.346813   L 276.13003,82.291867  "
     id="path24" />
  <path
     style="fill:none;stroke:#000000;stroke-width:0.047653235px;stroke-linecap:round;stroke-linejoin:round;stroke-miterlimit:4;stroke-dasharray:none;stroke-opacity:1;"
     d="  M 277.0831,78.444296   L 277.22606,78.919305   L 277.22606,82.386869  "
     id="path25" />
  <path
     style="fill:none;stroke:#000000;stroke-width:0.047653235px;stroke-linecap:round;stroke-linejoin:round;stroke-miterlimit:4;stroke-dasharray:none;stroke-opacity:1;"
     d="  M 278.08381,79.679319   L 280.27586,79.346813   L 280.08525,79.109309   L 279.79933,79.916823   L 279.41811,80.81934   L 278.98923,81.579354   L 278.65565,82.149364   L 278.08381,82.719375  "
     id="path26" />
  <path
     style="fill:none;stroke:#000000;stroke-width:0.047653235px;stroke-linecap:round;stroke-linejoin:round;stroke-miterlimit:4;stroke-dasharray:none;stroke-opacity:1;"
     d="  M 278.22677,80.344331   L 278.41739,80.439333   L 280.18056,82.956879   L 281.37189,82.956879   L 280.27586,82.814377   L 279.89464,82.576872  "
     id="path27" />
  <path
     style="fill:none;stroke:#000000;stroke-width:0.047653235px;stroke-linecap:round;stroke-linejoin:round;stroke-miterlimit:4;stroke-dasharray:none;stroke-opacity:1;"
     d="  M 277.84555,81.91186   L 277.70259,82.149364   L 276.70187,83.716893   L 276.41595,83.859396   L 278.65565,83.289385  "
     id="path28" />
  <path
     style="fill:none;stroke:#000000;stroke-width:0.047653235px;stroke-linecap:round;stroke-linejoin:round;stroke-miterlimit:4;stroke-dasharray:none;stroke-opacity:1;"
     d="  M 279.08453,82.719375   L 277.60728,84.381905   L 276.55891,85.284422   L 276.22534,85.331923   L 279.51341,84.61941  "
     id="path29" />
  <path
     style="fill:none;stroke:#000000;stroke-width:0.047653235px;stroke-linecap:round;stroke-linejoin:round;stroke-miterlimit:4;stroke-dasharray:none;stroke-opacity:1;"
     d="  M 278.79861,83.954398   L 279.75168,84.761912   L 279.98994,85.284422  "
     id="path30" />
  <path
     style="fill:none;stroke:#000000;stroke-width:0.047653235px;stroke-linecap:round;stroke-linejoin:round;stroke-miterlimit:4;stroke-dasharray:none;stroke-opacity:1;"
     d="  M 278.13147,85.094418   L 278.22677,85.426925   L 278.17912,88.229476   L 278.13147,88.46698   L 277.32136,87.421961   L 278.13147,88.324478   L 278.17912,88.134474  "
     id="path31" />
  <path
     style="fill:none;stroke:#000000;stroke-width:0.047653235px;stroke-linecap:round;stroke-linejoin:round;stroke-miterlimit:4;stroke-dasharray:none;stroke-opacity:1;"
     d="  M 278.89392,85.901933   L 279.79933,86.756949   L 280.18056,87.231958   L 280.37117,87.469462   L 280.46648,87.801968  "
     id="path32" />
  <path
     style="fill:none;stroke:#000000;stroke-width:0.047653235px;stroke-linecap:round;stroke-linejoin:round;stroke-miterlimit:4;stroke-dasharray:none;stroke-opacity:1;"
     d="  M 277.13075,85.854432   L 277.0831,86.186939   L 276.51126,86.899452   L 276.03473,87.469462   L 275.51054,87.991972   L 275.12931,88.371979  "
     id="path33" />
  <path
     style="fill:none;stroke:#000000;stroke-width:0.047653235px;stroke-linecap:round;stroke-linejoin:round;stroke-miterlimit:4;stroke-dasharray:none;stroke-opacity:1;"
     d="  M 313.63313,14.88813   L 318.49376,9.7105353  "
     id="path34" />
  <path
     style="fill:none;stroke:#000000;stroke-width:0.047653235px;stroke-linecap:round;stroke-linejoin:round;stroke-miterlimit:4;stroke-dasharray:none;stroke-opacity:1;"
     d="  M 313.63313,56.593896   L 313.63313,48.613749  "
     id="path35" />
  <path
     style="fill:none;stroke:#000000;stroke-width:0.047653235px;stroke-linecap:round;stroke-linejoin:round;stroke-miterlimit:4;stroke-dasharray:none;stroke-opacity:1;"
     d="  M 318.49376,56.593896   L 318.49376,48.613749  "
     id="path36" />
  <path
     style="fill:none;stroke:#000000;stroke-width:0.047653235px;stroke-linecap:round;stroke-linejoin:round;stroke-miterlimit:4;stroke-dasharray:none;stroke-opacity:1;"
     d="  M 313.63313,52.081313   L 310.15444,52.081313  "
     id="path37" />
  <path
     style="fill:none;stroke:#000000;stroke-width:0.047653235px;stroke-linecap:round;stroke-linejoin:round;stroke-miterlimit:4;stroke-dasharray:none;stroke-opacity:1;"
     d="  M 318.49376,52.081313   L 322.0201,52.081313  "
     id="path38" />
  <path
     style="fill:none;stroke:#000000;stroke-width:0.047653235px;stroke-linecap:round;stroke-linejoin:round;stroke-miterlimit:4;stroke-dasharray:none;stroke-opacity:1;"
     d="  M 307.24759,38.163557   L 307.24759,46.618713   L 307.58117,48.13874   L 308.29596,48.613749   L 309.01076,48.613749  "
     id="path39" />
  <path
     style="fill:none;stroke:#000000;stroke-width:0.047653235px;stroke-linecap:round;stroke-linejoin:round;stroke-miterlimit:4;stroke-dasharray:none;stroke-opacity:1;"
     d="  M 306.19922,41.678622   L 308.62954,41.678622  "
     id="path40" />
  <path
     style="fill:none;stroke:#000000;stroke-width:0.047653235px;stroke-linecap:round;stroke-linejoin:round;stroke-miterlimit:4;stroke-dasharray:none;stroke-opacity:1;"
     d="  M 313.63313,52.081313   L 318.49376,52.081313  "
     id="path41" />
  <path
     style="fill:#000000;fill-rule:evenodd;fill-opacity:1;stroke:none;"
     d="  M 310.53567,53.933847   L 311.77465,55.168869   L 315.4916,49.041257   z "
     id="path42" />
  <path
     style="fill:#000000;fill-rule:evenodd;fill-opacity:1;stroke:none;"
     d="  M 311.77465,55.168869   L 315.4916,49.041257   L 316.73059,50.228779   z "
     id="path43" />
  <path
     style="fill:#000000;fill-rule:evenodd;fill-opacity:1;stroke:none;"
     d="  M 321.59122,50.228779   L 320.35223,49.041257   L 316.68293,55.168869   z "
     id="path44" />
  <path
     style="fill:#000000;fill-rule:evenodd;fill-opacity:1;stroke:none;"
     d="  M 320.35223,49.041257   L 316.68293,55.168869   L 315.44395,53.933847   z "
     id="path45" />
  <path
     style="fill:none;stroke:#000000;stroke-width:0.047653235px;stroke-linecap:round;stroke-linejoin:round;stroke-miterlimit:4;stroke-dasharray:none;stroke-opacity:1;"
     d="  M 359.09431,120.91008   L 380.72888,120.91008  "
     id="path46" />
  <path
     style="fill:none;stroke:#000000;stroke-width:0.047653235px;stroke-linecap:round;stroke-linejoin:round;stroke-miterlimit:4;stroke-dasharray:none;stroke-opacity:1;"
     d="  M 355.61563,131.36027   L 380.72888,131.36027  "
     id="path47" />
  <path
     style="fill:none;stroke:#000000;stroke-width:0.047653235px;stroke-linecap:round;stroke-linejoin:round;stroke-miterlimit:4;stroke-dasharray:none;stroke-opacity:1;"
     d="  M 377.25019,120.91008   L 377.25019,117.44251  "
     id="path48" />
  <path
     style="fill:none;stroke:#000000;stroke-width:0.047653235px;stroke-linecap:round;stroke-linejoin:round;stroke-miterlimit:4;stroke-dasharray:none;stroke-opacity:1;"
     d="  M 377.25019,131.36027   L 377.25019,134.82783  "
     id="path49" />
  <path
     style="fill:none;stroke:#000000;stroke-width:0.047653235px;stroke-linecap:round;stroke-linejoin:round;stroke-miterlimit:4;stroke-dasharray:none;stroke-opacity:1;"
     d="  M 377.25019,120.91008   L 377.25019,131.36027  "
     id="path50" />
  <path
     style="fill:#000000;fill-rule:evenodd;fill-opacity:1;stroke:none;"
     d="  M 375.39172,117.82252   L 374.15273,119.05754   L 380.3,122.76261   z "
     id="path51" />
  <path
     style="fill:#000000;fill-rule:evenodd;fill-opacity:1;stroke:none;"
     d="  M 374.15273,119.05754   L 380.3,122.76261   L 379.10867,123.99763   z "
     id="path52" />
  <path
     style="fill:#000000;fill-rule:evenodd;fill-opacity:1;stroke:none;"
     d="  M 379.10867,134.40032   L 380.3,133.1653   L 374.15273,129.50773   z "
     id="path53" />
  <path
     style="fill:#000000;fill-rule:evenodd;fill-opacity:1;stroke:none;"
     d="  M 380.3,133.1653   L 374.15273,129.50773   L 375.39172,128.27271   z "
     id="path54" />
  <path
     style="fill:none;stroke:#000000;stroke-width:0.047653235px;stroke-linecap:round;stroke-linejoin:round;stroke-miterlimit:4;stroke-dasharray:none;stroke-opacity:1;"
     d="  M 365.76577,130.64775   L 365.28923,130.64775   L 364.28851,130.31525   L 363.81198,129.93524   L 363.2878,129.27023   L 363.2878,127.8452   L 363.81198,127.18019   L 364.28851,126.80018   L 365.28923,126.46768   L 366.28995,126.46768   L 367.29067,126.80018   L 368.76792,127.5127   L 373.77151,130.98026   L 373.77151,126.13517  "
     id="path55" />
  <path
     style="fill:none;stroke:#000000;stroke-width:0.047653235px;stroke-linecap:round;stroke-linejoin:round;stroke-miterlimit:4;stroke-dasharray:none;stroke-opacity:1;"
     d="  M 363.2878,123.00011   L 371.77007,123.00011   L 373.24732,122.66761   L 373.77151,121.95509   L 373.77151,121.24258  "
     id="path56" />
  <path
     style="fill:none;stroke:#000000;stroke-width:0.047653235px;stroke-linecap:round;stroke-linejoin:round;stroke-miterlimit:4;stroke-dasharray:none;stroke-opacity:1;"
     d="  M 366.76648,124.04513   L 366.76648,121.62259  "
     id="path57" />
  <path
     style="fill:none;stroke:#000000;stroke-width:0.047653235px;stroke-linecap:round;stroke-linejoin:round;stroke-miterlimit:4;stroke-dasharray:none;stroke-opacity:1;"
     d="  M 372.10365,134.02032   L 369.33976,139.86292  "
     id="path58" />
  <path
     style="fill:none;stroke:#000000;stroke-width:0.047653235px;stroke-linecap:round;stroke-linejoin:round;stroke-miterlimit:4;stroke-dasharray:none;stroke-opacity:1;"
     d="  M 369.33976,139.86292   L 366.48056,134.49532  "
     id="path59" />
  <path
     style="fill:none;stroke:#000000;stroke-width:0.047653235px;stroke-linecap:round;stroke-linejoin:round;stroke-miterlimit:4;stroke-dasharray:none;stroke-opacity:1;"
     d="  M 368.29139,140.14793   L 365.43219,134.82783  "
     id="path60" />
  <path
     style="fill:none;stroke:#000000;stroke-width:0.047653235px;stroke-linecap:round;stroke-linejoin:round;stroke-miterlimit:4;stroke-dasharray:none;stroke-opacity:1;"
     d="  M 318.49376,126.18267   L 323.35439,120.91008  "
     id="path61" />
  <path
     style="fill:#000000;fill-rule:evenodd;fill-opacity:1;stroke:none;"
     d="  M 318.49376,9.7105353   L 313.63313,14.88813   L 318.49376,14.88813   z "
     id="path62" />
  <path
     style="fill:#000000;fill-rule:evenodd;fill-opacity:1;stroke:none;"
     d="  M 313.63313,14.88813   L 318.49376,14.88813   L 318.49376,14.88813   z "
     id="path63" />
  <path
     style="fill:#000000;fill-rule:evenodd;fill-opacity:1;stroke:none;"
     d="  M 318.49376,120.91008   L 323.35439,120.91008   L 323.35439,120.91008   z "
     id="path64" />
  <path
     style="fill:#000000;fill-rule:evenodd;fill-opacity:1;stroke:none;"
     d="  M 318.49376,120.91008   L 323.35439,120.91008   L 318.49376,126.18267   z "
     id="path65" />
  <path
     style="fill:#000000;fill-rule:evenodd;fill-opacity:1;stroke:none;"
     d="  M 313.10894,131.36027   L 314.15731,131.36027   L 313.10894,14.88813   z "
     id="path66" />
  <path
     style="fill:#000000;fill-rule:evenodd;fill-opacity:1;stroke:none;"
     d="  M 314.15731,131.36027   L 313.10894,14.88813   L 314.15731,14.88813   z "
     id="path67" />
  <path
     style="fill:#000000;fill-rule:evenodd;fill-opacity:1;stroke:none;"
     d="  M 317.96957,131.36027   L 319.01794,131.36027   L 317.96957,9.7105353   z "
     id="path68" />
  <path
     style="fill:#000000;fill-rule:evenodd;fill-opacity:1;stroke:none;"
     d="  M 319.01794,131.36027   L 317.96957,9.7105353   L 319.01794,9.7105353   z "
     id="path69" />
  <path
     style="fill:#000000;fill-rule:evenodd;fill-opacity:1;stroke:none;"
     d="  M 398.59884,121.43259   L 398.59884,120.38757   L 318.49376,121.43259   z "
     id="path70" />
  <path
     style="fill:#000000;fill-rule:evenodd;fill-opacity:1;stroke:none;"
     d="  M 398.59884,120.38757   L 318.49376,121.43259   L 318.49376,120.38757   z "
     id="path71" />
  <path
     style="fill:#000000;fill-rule:evenodd;fill-opacity:1;stroke:none;"
     d="  M 318.49376,120.38757   L 318.49376,121.43259   L 398.59884,120.38757   z "
     id="path72" />
  <path
     style="fill:#000000;fill-rule:evenodd;fill-opacity:1;stroke:none;"
     d="  M 318.49376,121.43259   L 398.59884,120.38757   L 398.59884,121.43259   z "
     id="path73" />
  <path
     style="fill:#000000;fill-rule:evenodd;fill-opacity:1;stroke:none;"
     d="  M 398.59884,116.20749   L 398.59884,115.16247   L 318.49376,116.20749   z "
     id="path74" />
  <path
     style="fill:#000000;fill-rule:evenodd;fill-opacity:1;stroke:none;"
     d="  M 398.59884,115.16247   L 318.49376,116.20749   L 318.49376,115.16247   z "
     id="path75" />
  <path
     style="fill:#000000;fill-rule:evenodd;fill-opacity:1;stroke:none;"
     d="  M 313.63313,14.365621   L 313.63313,15.41064   L 398.59884,14.365621   z "
     id="path76" />
  <path
     style="fill:#000000;fill-rule:evenodd;fill-opacity:1;stroke:none;"
     d="  M 313.63313,15.41064   L 398.59884,14.365621   L 398.59884,15.41064   z "
     id="path77" />
  <path
     style="fill:#000000;fill-rule:evenodd;fill-opacity:1;stroke:none;"
     d="  M 398.59884,10.185544   L 398.59884,9.1880257   L 318.49376,10.185544   z "
     id="path78" />
  <path
     style="fill:#000000;fill-rule:evenodd;fill-opacity:1;stroke:none;"
     d="  M 398.59884,9.1880257   L 318.49376,10.185544   L 318.49376,9.1880257   z "
     id="path79" />
  <path
     style="fill:#000000;fill-rule:evenodd;fill-opacity:1;stroke:none;"
     d="  M 17.658891,127.8452   L 18.707262,127.8452   L 17.658891,120.91008   z "
     id="path80" />
  <path
     style="fill:#000000;fill-rule:evenodd;fill-opacity:1;stroke:none;"
     d="  M 18.707262,127.8452   L 17.658891,120.91008   L 18.707262,120.91008   z "
     id="path81" />
  <path
     style="fill:#000000;fill-rule:evenodd;fill-opacity:1;stroke:none;"
     d="  M 31.621289,115.68498   L 32.66966,115.68498   L 31.621289,14.88813   z "
     id="path82" />
  <path
     style="fill:#000000;fill-rule:evenodd;fill-opacity:1;stroke:none;"
     d="  M 32.66966,115.68498   L 31.621289,14.88813   L 32.66966,14.88813   z "
     id="path83" />
  <path
     style="fill:#000000;fill-rule:evenodd;fill-opacity:1;stroke:none;"
     d="  M 50.444316,127.8452   L 51.492687,127.8452   L 50.444316,120.91008   z "
     id="path84" />
  <path
     style="fill:#000000;fill-rule:evenodd;fill-opacity:1;stroke:none;"
     d="  M 51.492687,127.8452   L 50.444316,120.91008   L 51.492687,120.91008   z "
     id="path85" />
  <path
     style="fill:#000000;fill-rule:evenodd;fill-opacity:1;stroke:none;"
     d="  M 36.481919,115.68498   L 37.53029,115.68498   L 36.481919,14.88813   z "
     id="path86" />
  <path
     style="fill:#000000;fill-rule:evenodd;fill-opacity:1;stroke:none;"
     d="  M 37.53029,115.68498   L 36.481919,14.88813   L 37.53029,14.88813   z "
     id="path87" />
  <path
     style="fill:#000000;fill-rule:evenodd;fill-opacity:1;stroke:none;"
     d="  M 0.36076741,120.91008   L 1.4091386,120.91008   L 0.36076741,9.7105353   z "
     id="path88" />
  <path
     style="fill:#000000;fill-rule:evenodd;fill-opacity:1;stroke:none;"
     d="  M 1.4091386,120.91008   L 0.36076741,9.7105353   L 1.4091386,9.7105353   z "
     id="path89" />
  <path
     style="fill:#000000;fill-rule:evenodd;fill-opacity:1;stroke:none;"
     d="  M 50.968502,121.43259   L 50.968502,120.38757   L 18.183077,121.43259   z "
     id="path90" />
  <path
     style="fill:#000000;fill-rule:evenodd;fill-opacity:1;stroke:none;"
     d="  M 50.968502,120.38757   L 18.183077,121.43259   L 18.183077,120.38757   z "
     id="path91" />
  <path
     style="fill:#000000;fill-rule:evenodd;fill-opacity:1;stroke:none;"
     d="  M 50.968502,121.43259   L 50.968502,120.38757   L 18.183077,121.43259   z "
     id="path92" />
  <path
     style="fill:#000000;fill-rule:evenodd;fill-opacity:1;stroke:none;"
     d="  M 50.968502,120.38757   L 18.183077,121.43259   L 18.183077,120.38757   z "
     id="path93" />
  <path
     style="fill:#000000;fill-rule:evenodd;fill-opacity:1;stroke:none;"
     d="  M 124.87867,121.43259   L 124.87867,120.38757   L 0.88495299,121.43259   z "
     id="path94" />
  <path
     style="fill:#000000;fill-rule:evenodd;fill-opacity:1;stroke:none;"
     d="  M 124.87867,120.38757   L 0.88495299,121.43259   L 0.88495299,120.38757   z "
     id="path95" />
  <path
     style="fill:#000000;fill-rule:evenodd;fill-opacity:1;stroke:none;"
     d="  M 0.88495299,120.38757   L 0.88495299,121.43259   L 124.87867,120.38757   z "
     id="path96" />
  <path
     style="fill:#000000;fill-rule:evenodd;fill-opacity:1;stroke:none;"
     d="  M 0.88495299,121.43259   L 124.87867,120.38757   L 124.87867,121.43259   z "
     id="path97" />
  <path
     style="fill:#000000;fill-rule:evenodd;fill-opacity:1;stroke:none;"
     d="  M 124.87867,116.20749   L 124.87867,115.16247   L 0.88495299,116.20749   z "
     id="path98" />
  <path
     style="fill:#000000;fill-rule:evenodd;fill-opacity:1;stroke:none;"
     d="  M 124.87867,115.16247   L 0.88495299,116.20749   L 0.88495299,115.16247   z "
     id="path99" />
  <path
     style="fill:#000000;fill-rule:evenodd;fill-opacity:1;stroke:none;"
     d="  M 0.88495299,14.365621   L 0.88495299,15.41064   L 124.87867,14.365621   z "
     id="path100" />
  <path
     style="fill:#000000;fill-rule:evenodd;fill-opacity:1;stroke:none;"
     d="  M 0.88495299,15.41064   L 124.87867,14.365621   L 124.87867,15.41064   z "
     id="path101" />
  <path
     style="fill:#000000;fill-rule:evenodd;fill-opacity:1;stroke:none;"
     d="  M 124.87867,10.185544   L 124.87867,9.1880257   L 0.88495299,10.185544   z "
     id="path102" />
  <path
     style="fill:#000000;fill-rule:evenodd;fill-opacity:1;stroke:none;"
     d="  M 124.87867,9.1880257   L 0.88495299,10.185544   L 0.88495299,9.1880257   z "
     id="path103" />
  <path
     style="fill:#000000;fill-rule:evenodd;fill-opacity:1;stroke:none;"
     d="  M 50.968502,128.36771   L 50.968502,127.32269   L 18.183077,128.36771   z "
     id="path104" />
  <path
     style="fill:#000000;fill-rule:evenodd;fill-opacity:1;stroke:none;"
     d="  M 50.968502,127.32269   L 18.183077,128.36771   L 18.183077,127.32269   z "
     id="path105" />
  <path
     style="fill:#000000;fill-rule:evenodd;fill-opacity:1;stroke:none;"
     d="  M 318.49376,131.88278   L 318.49376,130.83776   L 313.63313,131.88278   z "
     id="path106" />
  <path
     style="fill:#000000;fill-rule:evenodd;fill-opacity:1;stroke:none;"
     d="  M 318.49376,130.83776   L 313.63313,131.88278   L 313.63313,130.83776   z "
     id="path107" />
  <path
     style="fill:#000000;fill-rule:evenodd;fill-opacity:1;stroke:none;"
     d="  M 332.45615,131.88278   L 332.45615,130.83776   L 299.67073,131.88278   z "
     id="path108" />
  <path
     style="fill:#000000;fill-rule:evenodd;fill-opacity:1;stroke:none;"
     d="  M 332.45615,130.83776   L 299.67073,131.88278   L 299.67073,130.83776   z "
     id="path109" />
  <path
     style="fill:#000000;fill-rule:evenodd;fill-opacity:1;stroke:none;"
     d="  M 332.45615,131.88278   L 332.45615,130.83776   L 299.67073,131.88278   z "
     id="path110" />
  <path
     style="fill:#000000;fill-rule:evenodd;fill-opacity:1;stroke:none;"
     d="  M 332.45615,130.83776   L 299.67073,131.88278   L 299.67073,130.83776   z "
     id="path111" />
  <path
     style="fill:#000000;fill-rule:evenodd;fill-opacity:1;stroke:none;"
     d="  M 331.93197,138.29539   L 332.98034,138.29539   L 331.93197,131.36027   z "
     id="path112" />
  <path
     style="fill:#000000;fill-rule:evenodd;fill-opacity:1;stroke:none;"
     d="  M 332.98034,138.29539   L 331.93197,131.36027   L 332.98034,131.36027   z "
     id="path113" />
  <path
     style="fill:#000000;fill-rule:evenodd;fill-opacity:1;stroke:none;"
     d="  M 299.14654,138.29539   L 300.19492,138.29539   L 299.14654,131.36027   z "
     id="path114" />
  <path
     style="fill:#000000;fill-rule:evenodd;fill-opacity:1;stroke:none;"
     d="  M 300.19492,138.29539   L 299.14654,131.36027   L 300.19492,131.36027   z "
     id="path115" />
  <path
     style="fill:#000000;fill-rule:evenodd;fill-opacity:1;stroke:none;"
     d="  M 332.45615,138.8179   L 332.45615,137.77289   L 299.67073,138.8179   z "
     id="path116" />
  <path
     style="fill:#000000;fill-rule:evenodd;fill-opacity:1;stroke:none;"
     d="  M 332.45615,137.77289   L 299.67073,138.8179   L 299.67073,137.77289   z "
     id="path117" />
</svg>
