<?xml version="1.0" encoding="UTF-8" standalone="no"?>
<svg
   version="1.0"
   width="99.889999mm"
   height="63.759998mm"
   id="svg408"
   sodipodi:docname="image285.emf"
   xmlns:inkscape="http://www.inkscape.org/namespaces/inkscape"
   xmlns:sodipodi="http://sodipodi.sourceforge.net/DTD/sodipodi-0.dtd"
   xmlns="http://www.w3.org/2000/svg"
   xmlns:svg="http://www.w3.org/2000/svg">
  <sodipodi:namedview
     id="namedview408"
     pagecolor="#ffffff"
     bordercolor="#000000"
     borderopacity="0.25"
     inkscape:showpageshadow="2"
     inkscape:pageopacity="0.0"
     inkscape:pagecheckerboard="0"
     inkscape:deskcolor="#d1d1d1"
     inkscape:document-units="mm" />
  <defs
     id="defs1">
    <pattern
       id="EMFhbasepattern"
       patternUnits="userSpaceOnUse"
       width="6"
       height="6"
       x="0"
       y="0" />
  </defs>
  <path
     style="fill:#000000;fill-rule:evenodd;fill-opacity:1;stroke:none;"
     d="  M 241.76398,134.92825   L 241.76398,132.92825   L 196.59742,134.92825   z "
     id="path1" />
  <path
     style="fill:#000000;fill-rule:evenodd;fill-opacity:1;stroke:none;"
     d="  M 241.76398,132.92825   L 196.59742,134.92825   L 196.59742,132.92825   z "
     id="path2" />
  <path
     style="fill:#000000;fill-rule:evenodd;fill-opacity:1;stroke:none;"
     d="  M 196.59742,128.32826   L 196.59742,126.36827   L 153.15112,128.32826   z "
     id="path3" />
  <path
     style="fill:#000000;fill-rule:evenodd;fill-opacity:1;stroke:none;"
     d="  M 196.59742,126.36827   L 153.15112,128.32826   L 153.15112,126.36827   z "
     id="path4" />
  <path
     style="fill:#000000;fill-rule:evenodd;fill-opacity:1;stroke:none;"
     d="  M 64.898309,134.92825   L 64.898309,132.92825   L 14.210952,134.92825   z "
     id="path5" />
  <path
     style="fill:#000000;fill-rule:evenodd;fill-opacity:1;stroke:none;"
     d="  M 64.898309,132.92825   L 14.210952,134.92825   L 14.210952,132.92825   z "
     id="path6" />
  <path
     style="fill:#000000;fill-rule:evenodd;fill-opacity:1;stroke:none;"
     d="  M 108.34461,128.32826   L 108.34461,126.36827   L 64.898309,128.32826   z "
     id="path7" />
  <path
     style="fill:#000000;fill-rule:evenodd;fill-opacity:1;stroke:none;"
     d="  M 108.34461,126.36827   L 64.898309,128.32826   L 64.898309,126.36827   z "
     id="path8" />
  <path
     style="fill:#000000;fill-rule:evenodd;fill-opacity:1;stroke:none;"
     d="  M 241.76398,141.00823   L 241.76398,140.04823   L 223.52133,141.00823   z "
     id="path9" />
  <path
     style="fill:#000000;fill-rule:evenodd;fill-opacity:1;stroke:none;"
     d="  M 241.76398,140.04823   L 223.52133,141.00823   L 223.52133,140.04823   z "
     id="path10" />
  <path
     style="fill:#000000;fill-rule:evenodd;fill-opacity:1;stroke:none;"
     d="  M 216.92037,141.00823   L 216.92037,140.04823   L 200.43798,141.00823   z "
     id="path11" />
  <path
     style="fill:#000000;fill-rule:evenodd;fill-opacity:1;stroke:none;"
     d="  M 216.92037,140.04823   L 200.43798,141.00823   L 200.43798,140.04823   z "
     id="path12" />
  <path
     style="fill:#000000;fill-rule:evenodd;fill-opacity:1;stroke:none;"
     d="  M 193.83702,141.00823   L 193.83702,140.04823   L 177.39464,141.00823   z "
     id="path13" />
  <path
     style="fill:#000000;fill-rule:evenodd;fill-opacity:1;stroke:none;"
     d="  M 193.83702,140.04823   L 177.39464,141.00823   L 177.39464,140.04823   z "
     id="path14" />
  <path
     style="fill:#000000;fill-rule:evenodd;fill-opacity:1;stroke:none;"
     d="  M 170.79368,141.00823   L 170.79368,140.04823   L 154.31129,141.00823   z "
     id="path15" />
  <path
     style="fill:#000000;fill-rule:evenodd;fill-opacity:1;stroke:none;"
     d="  M 170.79368,140.04823   L 154.31129,141.00823   L 154.31129,140.04823   z "
     id="path16" />
  <path
     style="fill:#000000;fill-rule:evenodd;fill-opacity:1;stroke:none;"
     d="  M 147.75033,141.00823   L 147.75033,140.04823   L 131.26794,141.00823   z "
     id="path17" />
  <path
     style="fill:#000000;fill-rule:evenodd;fill-opacity:1;stroke:none;"
     d="  M 147.75033,140.04823   L 131.26794,141.00823   L 131.26794,140.04823   z "
     id="path18" />
  <path
     style="fill:#000000;fill-rule:evenodd;fill-opacity:1;stroke:none;"
     d="  M 124.66698,141.00823   L 124.66698,140.04823   L 108.2246,141.00823   z "
     id="path19" />
  <path
     style="fill:#000000;fill-rule:evenodd;fill-opacity:1;stroke:none;"
     d="  M 124.66698,140.04823   L 108.2246,141.00823   L 108.2246,140.04823   z "
     id="path20" />
  <path
     style="fill:#000000;fill-rule:evenodd;fill-opacity:1;stroke:none;"
     d="  M 101.62364,141.00823   L 101.62364,140.04823   L 85.141247,141.00823   z "
     id="path21" />
  <path
     style="fill:#000000;fill-rule:evenodd;fill-opacity:1;stroke:none;"
     d="  M 101.62364,140.04823   L 85.141247,141.00823   L 85.141247,140.04823   z "
     id="path22" />
  <path
     style="fill:#000000;fill-rule:evenodd;fill-opacity:1;stroke:none;"
     d="  M 78.580294,141.00823   L 78.580294,140.04823   L 62.097902,141.00823   z "
     id="path23" />
  <path
     style="fill:#000000;fill-rule:evenodd;fill-opacity:1;stroke:none;"
     d="  M 78.580294,140.04823   L 62.097902,141.00823   L 62.097902,140.04823   z "
     id="path24" />
  <path
     style="fill:#000000;fill-rule:evenodd;fill-opacity:1;stroke:none;"
     d="  M 55.496944,141.00823   L 55.496944,140.04823   L 39.014552,141.00823   z "
     id="path25" />
  <path
     style="fill:#000000;fill-rule:evenodd;fill-opacity:1;stroke:none;"
     d="  M 55.496944,140.04823   L 39.014552,141.00823   L 39.014552,140.04823   z "
     id="path26" />
  <path
     style="fill:#000000;fill-rule:evenodd;fill-opacity:1;stroke:none;"
     d="  M 32.453599,141.00823   L 32.453599,140.04823   L 14.210952,141.00823   z "
     id="path27" />
  <path
     style="fill:#000000;fill-rule:evenodd;fill-opacity:1;stroke:none;"
     d="  M 32.453599,140.04823   L 14.210952,141.00823   L 14.210952,140.04823   z "
     id="path28" />
  <path
     style="fill:#000000;fill-rule:evenodd;fill-opacity:1;stroke:none;"
     d="  M 14.210952,141.00823   L 14.210952,140.04823   L 14.210952,140.04823   z "
     id="path29" />
  <path
     style="fill:none;stroke:#000000;stroke-width:0.96013933px;stroke-linecap:round;stroke-linejoin:round;stroke-miterlimit:4;stroke-dasharray:none;stroke-opacity:1;"
     d="  M 241.76398,129.12826   L 241.76398,151.72821   L 256.24608,156.32819   L 227.24187,164.24818   L 241.76398,168.88816   L 241.76398,192.20811  "
     id="path30" />
  <path
     style="fill:#000000;fill-rule:evenodd;fill-opacity:1;stroke:none;"
     d="  M 241.76398,187.64812   L 241.76398,185.68812   L 14.210952,187.64812   z "
     id="path31" />
  <path
     style="fill:#000000;fill-rule:evenodd;fill-opacity:1;stroke:none;"
     d="  M 241.76398,185.68812   L 14.210952,187.64812   L 14.210952,185.68812   z "
     id="path32" />
  <path
     style="fill:#000000;fill-rule:evenodd;fill-opacity:1;stroke:none;"
     d="  M 241.76398,180.56814   L 241.76398,179.56814   L 223.52133,180.56814   z "
     id="path33" />
  <path
     style="fill:#000000;fill-rule:evenodd;fill-opacity:1;stroke:none;"
     d="  M 241.76398,179.56814   L 223.52133,180.56814   L 223.52133,179.56814   z "
     id="path34" />
  <path
     style="fill:#000000;fill-rule:evenodd;fill-opacity:1;stroke:none;"
     d="  M 216.92037,180.56814   L 216.92037,179.56814   L 200.43798,180.56814   z "
     id="path35" />
  <path
     style="fill:#000000;fill-rule:evenodd;fill-opacity:1;stroke:none;"
     d="  M 216.92037,179.56814   L 200.43798,180.56814   L 200.43798,179.56814   z "
     id="path36" />
  <path
     style="fill:#000000;fill-rule:evenodd;fill-opacity:1;stroke:none;"
     d="  M 193.83702,180.56814   L 193.83702,179.56814   L 177.39464,180.56814   z "
     id="path37" />
  <path
     style="fill:#000000;fill-rule:evenodd;fill-opacity:1;stroke:none;"
     d="  M 193.83702,179.56814   L 177.39464,180.56814   L 177.39464,179.56814   z "
     id="path38" />
  <path
     style="fill:#000000;fill-rule:evenodd;fill-opacity:1;stroke:none;"
     d="  M 170.79368,180.56814   L 170.79368,179.56814   L 154.31129,180.56814   z "
     id="path39" />
  <path
     style="fill:#000000;fill-rule:evenodd;fill-opacity:1;stroke:none;"
     d="  M 170.79368,179.56814   L 154.31129,180.56814   L 154.31129,179.56814   z "
     id="path40" />
  <path
     style="fill:#000000;fill-rule:evenodd;fill-opacity:1;stroke:none;"
     d="  M 147.75033,180.56814   L 147.75033,179.56814   L 131.26794,180.56814   z "
     id="path41" />
  <path
     style="fill:#000000;fill-rule:evenodd;fill-opacity:1;stroke:none;"
     d="  M 147.75033,179.56814   L 131.26794,180.56814   L 131.26794,179.56814   z "
     id="path42" />
  <path
     style="fill:#000000;fill-rule:evenodd;fill-opacity:1;stroke:none;"
     d="  M 124.66698,180.56814   L 124.66698,179.56814   L 108.2246,180.56814   z "
     id="path43" />
  <path
     style="fill:#000000;fill-rule:evenodd;fill-opacity:1;stroke:none;"
     d="  M 124.66698,179.56814   L 108.2246,180.56814   L 108.2246,179.56814   z "
     id="path44" />
  <path
     style="fill:#000000;fill-rule:evenodd;fill-opacity:1;stroke:none;"
     d="  M 101.62364,180.56814   L 101.62364,179.56814   L 85.141247,180.56814   z "
     id="path45" />
  <path
     style="fill:#000000;fill-rule:evenodd;fill-opacity:1;stroke:none;"
     d="  M 101.62364,179.56814   L 85.141247,180.56814   L 85.141247,179.56814   z "
     id="path46" />
  <path
     style="fill:#000000;fill-rule:evenodd;fill-opacity:1;stroke:none;"
     d="  M 78.580294,180.56814   L 78.580294,179.56814   L 62.097902,180.56814   z "
     id="path47" />
  <path
     style="fill:#000000;fill-rule:evenodd;fill-opacity:1;stroke:none;"
     d="  M 78.580294,179.56814   L 62.097902,180.56814   L 62.097902,179.56814   z "
     id="path48" />
  <path
     style="fill:#000000;fill-rule:evenodd;fill-opacity:1;stroke:none;"
     d="  M 55.496944,180.56814   L 55.496944,179.56814   L 39.014552,180.56814   z "
     id="path49" />
  <path
     style="fill:#000000;fill-rule:evenodd;fill-opacity:1;stroke:none;"
     d="  M 55.496944,179.56814   L 39.014552,180.56814   L 39.014552,179.56814   z "
     id="path50" />
  <path
     style="fill:#000000;fill-rule:evenodd;fill-opacity:1;stroke:none;"
     d="  M 32.453599,180.56814   L 32.453599,179.56814   L 14.210952,180.56814   z "
     id="path51" />
  <path
     style="fill:#000000;fill-rule:evenodd;fill-opacity:1;stroke:none;"
     d="  M 32.453599,179.56814   L 14.210952,180.56814   L 14.210952,179.56814   z "
     id="path52" />
  <path
     style="fill:#000000;fill-rule:evenodd;fill-opacity:1;stroke:none;"
     d="  M 14.210952,180.56814   L 14.210952,179.56814   L 14.210952,179.56814   z "
     id="path53" />
  <path
     style="fill:none;stroke:#000000;stroke-width:0.96013933px;stroke-linecap:round;stroke-linejoin:round;stroke-miterlimit:4;stroke-dasharray:none;stroke-opacity:1;"
     d="  M 14.210952,115.80829   L 14.210952,152.0482   L 28.693054,156.68819   L -0.31115627,164.60817   L 14.210952,169.20816   L 14.210952,202.16808  "
     id="path54" />
  <path
     style="fill:none;stroke:#000000;stroke-width:0.96013933px;stroke-linecap:round;stroke-linejoin:round;stroke-miterlimit:4;stroke-dasharray:none;stroke-opacity:1;"
     d="  M 118.62611,140.52823   L 203.67845,48.088455  "
     id="path55" />
  <path
     style="fill:#000000;fill-rule:evenodd;fill-opacity:1;stroke:none;"
     d="  M 107.62451,126.68827   L 109.10472,128.00826   L 190.83659,36.248484   z "
     id="path56" />
  <path
     style="fill:#000000;fill-rule:evenodd;fill-opacity:1;stroke:none;"
     d="  M 109.10472,128.00826   L 190.83659,36.248484   L 192.2768,37.568481   z "
     id="path57" />
  <path
     style="fill:#000000;fill-rule:evenodd;fill-opacity:1;stroke:none;"
     d="  M 111.90513,130.56826   L 112.62524,131.24825   L 120.02631,121.72828   z "
     id="path58" />
  <path
     style="fill:#000000;fill-rule:evenodd;fill-opacity:1;stroke:none;"
     d="  M 112.62524,131.24825   L 120.02631,121.72828   L 120.74641,122.40828   z "
     id="path59" />
  <path
     style="fill:#000000;fill-rule:evenodd;fill-opacity:1;stroke:none;"
     d="  M 124.46695,116.88829   L 125.18706,117.56829   L 135.62857,104.76832   z "
     id="path60" />
  <path
     style="fill:#000000;fill-rule:evenodd;fill-opacity:1;stroke:none;"
     d="  M 125.18706,117.56829   L 135.62857,104.76832   L 136.34868,105.40832   z "
     id="path61" />
  <path
     style="fill:#000000;fill-rule:evenodd;fill-opacity:1;stroke:none;"
     d="  M 140.10923,99.88833   L 140.82933,100.56833   L 151.23084,87.76836   z "
     id="path62" />
  <path
     style="fill:#000000;fill-rule:evenodd;fill-opacity:1;stroke:none;"
     d="  M 140.82933,100.56833   L 151.23084,87.76836   L 151.99095,88.448358   z "
     id="path63" />
  <path
     style="fill:#000000;fill-rule:evenodd;fill-opacity:1;stroke:none;"
     d="  M 155.71149,82.928371   L 156.43159,83.60837   L 166.87311,70.808401   z "
     id="path64" />
  <path
     style="fill:#000000;fill-rule:evenodd;fill-opacity:1;stroke:none;"
     d="  M 156.43159,83.60837   L 166.87311,70.808401   L 167.59321,71.488399   z "
     id="path65" />
  <path
     style="fill:#000000;fill-rule:evenodd;fill-opacity:1;stroke:none;"
     d="  M 171.31375,65.968412   L 172.07386,66.608411   L 182.47537,53.808442   z "
     id="path66" />
  <path
     style="fill:#000000;fill-rule:evenodd;fill-opacity:1;stroke:none;"
     d="  M 172.07386,66.608411   L 182.47537,53.808442   L 183.19548,54.48844   z "
     id="path67" />
  <path
     style="fill:#000000;fill-rule:evenodd;fill-opacity:1;stroke:none;"
     d="  M 186.95602,48.968453   L 187.67613,49.648452   L 195.0772,40.128475   z "
     id="path68" />
  <path
     style="fill:#000000;fill-rule:evenodd;fill-opacity:1;stroke:none;"
     d="  M 187.67613,49.648452   L 195.0772,40.128475   L 195.79731,40.808473   z "
     id="path69" />
  <path
     style="fill:#000000;fill-rule:evenodd;fill-opacity:1;stroke:none;"
     d="  M 195.0772,40.128475   L 195.79731,40.808473   L 195.79731,40.808473   z "
     id="path70" />
  <path
     style="fill:#000000;fill-rule:evenodd;fill-opacity:1;stroke:none;"
     d="  M 152.39101,126.68827   L 153.87122,128.00826   L 215.08011,58.56843   z "
     id="path71" />
  <path
     style="fill:#000000;fill-rule:evenodd;fill-opacity:1;stroke:none;"
     d="  M 153.87122,128.00826   L 215.08011,58.56843   L 216.52032,59.888427   z "
     id="path72" />
  <path
     style="fill:#000000;fill-rule:evenodd;fill-opacity:1;stroke:none;"
     d="  M 137.30882,136.04824   L 138.02892,136.68824   L 148.75048,123.56827   z "
     id="path73" />
  <path
     style="fill:#000000;fill-rule:evenodd;fill-opacity:1;stroke:none;"
     d="  M 138.02892,136.68824   L 148.75048,123.56827   L 149.51059,124.24827   z "
     id="path74" />
  <path
     style="fill:#000000;fill-rule:evenodd;fill-opacity:1;stroke:none;"
     d="  M 153.23113,118.72828   L 153.95123,119.36828   L 164.39275,106.60831   z "
     id="path75" />
  <path
     style="fill:#000000;fill-rule:evenodd;fill-opacity:1;stroke:none;"
     d="  M 153.95123,119.36828   L 164.39275,106.60831   L 165.11285,107.24831   z "
     id="path76" />
  <path
     style="fill:#000000;fill-rule:evenodd;fill-opacity:1;stroke:none;"
     d="  M 168.83339,101.72833   L 169.5935,102.40832   L 179.99501,89.608355   z "
     id="path77" />
  <path
     style="fill:#000000;fill-rule:evenodd;fill-opacity:1;stroke:none;"
     d="  M 169.5935,102.40832   L 179.99501,89.608355   L 180.71512,90.288354   z "
     id="path78" />
  <path
     style="fill:#000000;fill-rule:evenodd;fill-opacity:1;stroke:none;"
     d="  M 184.47566,84.768367   L 185.19577,85.448365   L 195.63728,72.648396   z "
     id="path79" />
  <path
     style="fill:#000000;fill-rule:evenodd;fill-opacity:1;stroke:none;"
     d="  M 185.19577,85.448365   L 195.63728,72.648396   L 196.35739,73.328394   z "
     id="path80" />
  <path
     style="fill:#000000;fill-rule:evenodd;fill-opacity:1;stroke:none;"
     d="  M 200.07793,67.808408   L 200.79803,68.448406   L 211.5596,55.328438   z "
     id="path81" />
  <path
     style="fill:#000000;fill-rule:evenodd;fill-opacity:1;stroke:none;"
     d="  M 200.79803,68.448406   L 211.5596,55.328438   L 212.2797,56.008436   z "
     id="path82" />
  <path
     style="fill:#000000;fill-rule:evenodd;fill-opacity:1;stroke:none;"
     d="  M 211.5596,55.328438   L 212.2797,56.008436   L 212.2797,56.008436   z "
     id="path83" />
  <path
     style="fill:none;stroke:#000000;stroke-width:0.96013933px;stroke-linecap:round;stroke-linejoin:round;stroke-miterlimit:4;stroke-dasharray:none;stroke-opacity:1;"
     d="  M 229.36218,71.728398   L 209.95936,53.888441   L 196.75745,61.408423   L 210.59946,34.728488   L 197.35753,42.248469   L 177.99472,24.408513  "
     id="path84" />
  <path
     style="fill:#000000;fill-rule:evenodd;fill-opacity:1;stroke:none;"
     d="  M 107.62451,128.00826   L 109.10472,126.68827   L 111.90513,131.88825   z "
     id="path85" />
  <path
     style="fill:#000000;fill-rule:evenodd;fill-opacity:1;stroke:none;"
     d="  M 109.10472,126.68827   L 111.90513,131.88825   L 113.10531,130.28826   z "
     id="path86" />
  <path
     style="fill:#000000;fill-rule:evenodd;fill-opacity:1;stroke:none;"
     d="  M 111.90513,131.88825   L 113.10531,130.28826   L 116.82585,134.88825   z "
     id="path87" />
  <path
     style="fill:#000000;fill-rule:evenodd;fill-opacity:1;stroke:none;"
     d="  M 113.10531,130.28826   L 116.82585,134.88825   L 117.70597,133.12825   z "
     id="path88" />
  <path
     style="fill:#000000;fill-rule:evenodd;fill-opacity:1;stroke:none;"
     d="  M 116.82585,134.88825   L 117.70597,133.12825   L 122.18662,136.96824   z "
     id="path89" />
  <path
     style="fill:#000000;fill-rule:evenodd;fill-opacity:1;stroke:none;"
     d="  M 117.70597,133.12825   L 122.18662,136.96824   L 122.7467,135.04825   z "
     id="path90" />
  <path
     style="fill:#000000;fill-rule:evenodd;fill-opacity:1;stroke:none;"
     d="  M 122.18662,136.96824   L 122.7467,135.04825   L 127.86745,138.00824   z "
     id="path91" />
  <path
     style="fill:#000000;fill-rule:evenodd;fill-opacity:1;stroke:none;"
     d="  M 122.7467,135.04825   L 127.86745,138.00824   L 128.02747,136.04824   z "
     id="path92" />
  <path
     style="fill:#000000;fill-rule:evenodd;fill-opacity:1;stroke:none;"
     d="  M 127.86745,138.00824   L 128.02747,136.04824   L 133.62828,138.00824   z "
     id="path93" />
  <path
     style="fill:#000000;fill-rule:evenodd;fill-opacity:1;stroke:none;"
     d="  M 128.02747,136.04824   L 133.62828,138.00824   L 133.46826,136.04824   z "
     id="path94" />
  <path
     style="fill:#000000;fill-rule:evenodd;fill-opacity:1;stroke:none;"
     d="  M 133.62828,138.00824   L 133.46826,136.04824   L 139.30911,136.96824   z "
     id="path95" />
  <path
     style="fill:#000000;fill-rule:evenodd;fill-opacity:1;stroke:none;"
     d="  M 133.46826,136.04824   L 139.30911,136.96824   L 138.74903,135.04825   z "
     id="path96" />
  <path
     style="fill:#000000;fill-rule:evenodd;fill-opacity:1;stroke:none;"
     d="  M 139.30911,136.96824   L 138.74903,135.04825   L 144.66989,134.88825   z "
     id="path97" />
  <path
     style="fill:#000000;fill-rule:evenodd;fill-opacity:1;stroke:none;"
     d="  M 138.74903,135.04825   L 144.66989,134.88825   L 143.78976,133.12825   z "
     id="path98" />
  <path
     style="fill:#000000;fill-rule:evenodd;fill-opacity:1;stroke:none;"
     d="  M 144.66989,134.88825   L 143.78976,133.12825   L 149.5906,131.88825   z "
     id="path99" />
  <path
     style="fill:#000000;fill-rule:evenodd;fill-opacity:1;stroke:none;"
     d="  M 143.78976,133.12825   L 149.5906,131.88825   L 148.39043,130.28826   z "
     id="path100" />
  <path
     style="fill:#000000;fill-rule:evenodd;fill-opacity:1;stroke:none;"
     d="  M 149.5906,131.88825   L 148.39043,130.28826   L 153.87122,128.00826   z "
     id="path101" />
  <path
     style="fill:#000000;fill-rule:evenodd;fill-opacity:1;stroke:none;"
     d="  M 148.39043,130.28826   L 153.87122,128.00826   L 152.39101,126.68827   z "
     id="path102" />
  <path
     style="fill:none;stroke:#000000;stroke-width:0.96013933px;stroke-linecap:round;stroke-linejoin:round;stroke-miterlimit:4;stroke-dasharray:none;stroke-opacity:1;"
     d="  M 46.775678,219.52804   L 47.815829,218.76804   L 49.416061,216.48805   L 49.416061,232.44801  "
     id="path103" />
  <path
     style="fill:#000000;fill-rule:evenodd;fill-opacity:1;stroke:none;"
     d="  M 106.22431,139.80823   L 105.26417,139.80823   L 106.22431,156.64819   z "
     id="path104" />
  <path
     style="fill:#000000;fill-rule:evenodd;fill-opacity:1;stroke:none;"
     d="  M 105.26417,139.80823   L 106.22431,156.64819   L 105.26417,156.64819   z "
     id="path105" />
  <path
     style="fill:#000000;fill-rule:evenodd;fill-opacity:1;stroke:none;"
     d="  M 106.22431,163.24818   L 105.26417,163.24818   L 106.22431,180.08814   z "
     id="path106" />
  <path
     style="fill:#000000;fill-rule:evenodd;fill-opacity:1;stroke:none;"
     d="  M 105.26417,163.24818   L 106.22431,180.08814   L 105.26417,180.08814   z "
     id="path107" />
  <path
     style="fill:#000000;fill-rule:evenodd;fill-opacity:1;stroke:none;"
     d="  M 106.22431,180.08814   L 105.26417,180.08814   L 105.26417,180.08814   z "
     id="path108" />
  <path
     style="fill:#000000;fill-rule:evenodd;fill-opacity:1;stroke:none;"
     d="  M 111.50507,139.80823   L 110.50493,139.80823   L 111.50507,156.64819   z "
     id="path109" />
  <path
     style="fill:#000000;fill-rule:evenodd;fill-opacity:1;stroke:none;"
     d="  M 110.50493,139.80823   L 111.50507,156.64819   L 110.50493,156.64819   z "
     id="path110" />
  <path
     style="fill:#000000;fill-rule:evenodd;fill-opacity:1;stroke:none;"
     d="  M 111.50507,163.24818   L 110.50493,163.24818   L 111.50507,180.08814   z "
     id="path111" />
  <path
     style="fill:#000000;fill-rule:evenodd;fill-opacity:1;stroke:none;"
     d="  M 110.50493,163.24818   L 111.50507,180.08814   L 110.50493,180.08814   z "
     id="path112" />
  <path
     style="fill:#000000;fill-rule:evenodd;fill-opacity:1;stroke:none;"
     d="  M 111.50507,180.08814   L 110.50493,180.08814   L 110.50493,180.08814   z "
     id="path113" />
  <path
     style="fill:#000000;fill-rule:evenodd;fill-opacity:1;stroke:none;"
     d="  M 135.22852,139.80823   L 134.22837,139.80823   L 135.22852,156.64819   z "
     id="path114" />
  <path
     style="fill:#000000;fill-rule:evenodd;fill-opacity:1;stroke:none;"
     d="  M 134.22837,139.80823   L 135.22852,156.64819   L 134.22837,156.64819   z "
     id="path115" />
  <path
     style="fill:#000000;fill-rule:evenodd;fill-opacity:1;stroke:none;"
     d="  M 135.22852,163.24818   L 134.22837,163.24818   L 135.22852,180.08814   z "
     id="path116" />
  <path
     style="fill:#000000;fill-rule:evenodd;fill-opacity:1;stroke:none;"
     d="  M 134.22837,163.24818   L 135.22852,180.08814   L 134.22837,180.08814   z "
     id="path117" />
  <path
     style="fill:#000000;fill-rule:evenodd;fill-opacity:1;stroke:none;"
     d="  M 135.22852,180.08814   L 134.22837,180.08814   L 134.22837,180.08814   z "
     id="path118" />
  <path
     style="fill:#000000;fill-rule:evenodd;fill-opacity:1;stroke:none;"
     d="  M 140.50928,139.80823   L 139.50914,139.80823   L 140.50928,156.64819   z "
     id="path119" />
  <path
     style="fill:#000000;fill-rule:evenodd;fill-opacity:1;stroke:none;"
     d="  M 139.50914,139.80823   L 140.50928,156.64819   L 139.50914,156.64819   z "
     id="path120" />
  <path
     style="fill:#000000;fill-rule:evenodd;fill-opacity:1;stroke:none;"
     d="  M 140.50928,163.24818   L 139.50914,163.24818   L 140.50928,180.08814   z "
     id="path121" />
  <path
     style="fill:#000000;fill-rule:evenodd;fill-opacity:1;stroke:none;"
     d="  M 139.50914,163.24818   L 140.50928,180.08814   L 139.50914,180.08814   z "
     id="path122" />
  <path
     style="fill:#000000;fill-rule:evenodd;fill-opacity:1;stroke:none;"
     d="  M 140.50928,180.08814   L 139.50914,180.08814   L 139.50914,180.08814   z "
     id="path123" />
  <path
     style="fill:none;stroke:#000000;stroke-width:0.96013933px;stroke-linecap:round;stroke-linejoin:round;stroke-miterlimit:4;stroke-dasharray:none;stroke-opacity:1;"
     d="  M 244.04431,221.60804   L 244.04431,220.84804   L 244.56439,219.32804   L 245.08446,218.56804   L 246.16462,217.80805   L 248.28493,217.80805   L 249.36508,218.56804   L 249.88516,219.32804   L 250.40523,220.84804   L 250.40523,222.36803   L 249.88516,223.88803   L 248.84501,226.16803   L 243.52424,233.80801   L 250.96532,233.80801  "
     id="path124" />
  <path
     style="fill:none;stroke:#000000;stroke-width:0.96013933px;stroke-linecap:round;stroke-linejoin:round;stroke-miterlimit:4;stroke-dasharray:none;stroke-opacity:1;"
     d="  M 202.71831,24.768512   L 225.60163,-0.1114283  "
     id="path125" />
  <path
     style="fill:none;stroke:#000000;stroke-width:0.96013933px;stroke-linecap:round;stroke-linejoin:round;stroke-miterlimit:4;stroke-dasharray:none;stroke-opacity:1;"
     d="  M 226.96183,47.128458   L 249.84515,22.208518  "
     id="path126" />
  <path
     style="fill:none;stroke:#000000;stroke-width:0.96013933px;stroke-linecap:round;stroke-linejoin:round;stroke-miterlimit:4;stroke-dasharray:none;stroke-opacity:1;"
     d="  M 216.32029,0.28857073   L 250.24521,31.528495  "
     id="path127" />
  <path
     style="fill:#000000;fill-rule:evenodd;fill-opacity:1;stroke:none;"
     d="  M 227.80195,6.1285566   L 227.68194,2.8085647   L 214.64004,6.6485554   z "
     id="path128" />
  <path
     style="fill:#000000;fill-rule:evenodd;fill-opacity:1;stroke:none;"
     d="  M 227.68194,2.8085647   L 214.64004,6.6485554   L 214.52003,3.3685633   z "
     id="path129" />
  <path
     style="fill:#000000;fill-rule:evenodd;fill-opacity:1;stroke:none;"
     d="  M 238.72354,25.688509   L 238.88356,28.968502   L 251.88545,25.128511   z "
     id="path130" />
  <path
     style="fill:#000000;fill-rule:evenodd;fill-opacity:1;stroke:none;"
     d="  M 238.88356,28.968502   L 251.88545,25.128511   L 252.04547,28.448503   z "
     id="path131" />
  <path
     style="fill:#000000;fill-rule:evenodd;fill-opacity:1;stroke:none;"
     d="  M 63.938169,160.28818   L 65.898454,160.28818   L 63.938169,127.32826   z "
     id="path132" />
  <path
     style="fill:#000000;fill-rule:evenodd;fill-opacity:1;stroke:none;"
     d="  M 65.898454,160.28818   L 63.938169,127.32826   L 65.898454,127.32826   z "
     id="path133" />
  <path
     style="fill:#000000;fill-rule:evenodd;fill-opacity:1;stroke:none;"
     d="  M 195.63728,160.28818   L 197.59757,160.28818   L 195.63728,127.32826   z "
     id="path134" />
  <path
     style="fill:#000000;fill-rule:evenodd;fill-opacity:1;stroke:none;"
     d="  M 197.59757,160.28818   L 195.63728,127.32826   L 197.59757,127.32826   z "
     id="path135" />
  <path
     style="fill:#000000;fill-rule:evenodd;fill-opacity:1;stroke:none;"
     d="  M 108.34461,126.84827   L 108.34461,127.84826   L 127.46739,126.84827   z "
     id="path136" />
  <path
     style="fill:#000000;fill-rule:evenodd;fill-opacity:1;stroke:none;"
     d="  M 108.34461,127.84826   L 127.46739,126.84827   L 127.46739,127.84826   z "
     id="path137" />
  <path
     style="fill:#000000;fill-rule:evenodd;fill-opacity:1;stroke:none;"
     d="  M 134.02834,126.84827   L 134.02834,127.84826   L 153.15112,126.84827   z "
     id="path138" />
  <path
     style="fill:#000000;fill-rule:evenodd;fill-opacity:1;stroke:none;"
     d="  M 134.02834,127.84826   L 153.15112,126.84827   L 153.15112,127.84826   z "
     id="path139" />
  <path
     style="fill:#000000;fill-rule:evenodd;fill-opacity:1;stroke:none;"
     d="  M 153.15112,126.84827   L 153.15112,127.84826   L 153.15112,127.84826   z "
     id="path140" />
  <path
     style="fill:#000000;fill-rule:evenodd;fill-opacity:1;stroke:none;"
     d="  M 64.898309,133.44825   L 64.898309,134.40825   L 81.340695,133.44825   z "
     id="path141" />
  <path
     style="fill:#000000;fill-rule:evenodd;fill-opacity:1;stroke:none;"
     d="  M 64.898309,134.40825   L 81.340695,133.44825   L 81.340695,134.40825   z "
     id="path142" />
  <path
     style="fill:#000000;fill-rule:evenodd;fill-opacity:1;stroke:none;"
     d="  M 87.941653,133.44825   L 87.941653,134.40825   L 104.42405,133.44825   z "
     id="path143" />
  <path
     style="fill:#000000;fill-rule:evenodd;fill-opacity:1;stroke:none;"
     d="  M 87.941653,134.40825   L 104.42405,133.44825   L 104.42405,134.40825   z "
     id="path144" />
  <path
     style="fill:#000000;fill-rule:evenodd;fill-opacity:1;stroke:none;"
     d="  M 110.985,133.44825   L 110.985,134.40825   L 127.46739,133.44825   z "
     id="path145" />
  <path
     style="fill:#000000;fill-rule:evenodd;fill-opacity:1;stroke:none;"
     d="  M 110.985,134.40825   L 127.46739,133.44825   L 127.46739,134.40825   z "
     id="path146" />
  <path
     style="fill:#000000;fill-rule:evenodd;fill-opacity:1;stroke:none;"
     d="  M 134.06835,133.44825   L 134.06835,134.40825   L 150.51073,133.44825   z "
     id="path147" />
  <path
     style="fill:#000000;fill-rule:evenodd;fill-opacity:1;stroke:none;"
     d="  M 134.06835,134.40825   L 150.51073,133.44825   L 150.51073,134.40825   z "
     id="path148" />
  <path
     style="fill:#000000;fill-rule:evenodd;fill-opacity:1;stroke:none;"
     d="  M 157.11169,133.44825   L 157.11169,134.40825   L 173.59409,133.44825   z "
     id="path149" />
  <path
     style="fill:#000000;fill-rule:evenodd;fill-opacity:1;stroke:none;"
     d="  M 157.11169,134.40825   L 173.59409,133.44825   L 173.59409,134.40825   z "
     id="path150" />
  <path
     style="fill:#000000;fill-rule:evenodd;fill-opacity:1;stroke:none;"
     d="  M 180.15504,133.44825   L 180.15504,134.40825   L 196.59742,133.44825   z "
     id="path151" />
  <path
     style="fill:#000000;fill-rule:evenodd;fill-opacity:1;stroke:none;"
     d="  M 180.15504,134.40825   L 196.59742,133.44825   L 196.59742,134.40825   z "
     id="path152" />
  <path
     style="fill:#000000;fill-rule:evenodd;fill-opacity:1;stroke:none;"
     d="  M 196.59742,133.44825   L 196.59742,134.40825   L 196.59742,134.40825   z "
     id="path153" />
  <path
     style="fill:#000000;fill-rule:evenodd;fill-opacity:1;stroke:none;"
     d="  M 196.59742,161.28818   L 196.59742,159.32819   L 64.898309,161.28818   z "
     id="path154" />
  <path
     style="fill:#000000;fill-rule:evenodd;fill-opacity:1;stroke:none;"
     d="  M 196.59742,159.32819   L 64.898309,161.28818   L 64.898309,159.32819   z "
     id="path155" />
  <path
     style="fill:none;stroke:#000000;stroke-width:0.96013933px;stroke-linecap:round;stroke-linejoin:round;stroke-miterlimit:4;stroke-dasharray:none;stroke-opacity:1;"
     d="  M 65.818442,53.688442   L 76.900051,58.928429  "
     id="path156" />
  <path
     style="fill:none;stroke:#000000;stroke-width:0.96013933px;stroke-linecap:round;stroke-linejoin:round;stroke-miterlimit:4;stroke-dasharray:none;stroke-opacity:1;"
     d="  M 76.900051,58.928429   L 66.778581,64.328416  "
     id="path157" />
  <path
     style="fill:none;stroke:#000000;stroke-width:0.96013933px;stroke-linecap:round;stroke-linejoin:round;stroke-miterlimit:4;stroke-dasharray:none;stroke-opacity:1;"
     d="  M 76.900051,62.448421   L 66.778581,67.848408  "
     id="path158" />
  <path
     style="fill:none;stroke:#000000;stroke-width:0.96013933px;stroke-linecap:round;stroke-linejoin:round;stroke-miterlimit:4;stroke-dasharray:none;stroke-opacity:1;"
     d="  M 77.38012,76.688386   L 66.298512,81.928374  "
     id="path159" />
  <path
     style="fill:none;stroke:#000000;stroke-width:0.96013933px;stroke-linecap:round;stroke-linejoin:round;stroke-miterlimit:4;stroke-dasharray:none;stroke-opacity:1;"
     d="  M 66.298512,81.928374   L 76.419981,87.328361  "
     id="path160" />
  <path
     style="fill:none;stroke:#000000;stroke-width:0.96013933px;stroke-linecap:round;stroke-linejoin:round;stroke-miterlimit:4;stroke-dasharray:none;stroke-opacity:1;"
     d="  M 66.298512,85.448365   L 76.419981,90.848352  "
     id="path161" />
  <path
     style="fill:none;stroke:#000000;stroke-width:0.96013933px;stroke-linecap:round;stroke-linejoin:round;stroke-miterlimit:4;stroke-dasharray:none;stroke-opacity:1;"
     d="  M 87.30156,85.208366   L 91.182124,85.208366   L 89.061816,89.248356   L 90.141973,89.248356   L 90.822071,89.768355   L 91.182124,90.288354   L 91.542176,91.80835   L 91.542176,92.808347   L 91.182124,94.328344   L 90.462019,95.328341   L 89.421868,95.84834   L 88.341711,95.84834   L 87.30156,95.328341   L 86.941508,94.848343   L 86.581456,93.808345  "
     id="path162" />
  <path
     style="fill:none;stroke:#000000;stroke-width:0.96013933px;stroke-linecap:round;stroke-linejoin:round;stroke-miterlimit:4;stroke-dasharray:none;stroke-opacity:1;"
     d="  M 82.460858,83.088371   L 95.22271,83.088371  "
     id="path163" />
  <path
     style="fill:none;stroke:#000000;stroke-width:0.96013933px;stroke-linecap:round;stroke-linejoin:round;stroke-miterlimit:4;stroke-dasharray:none;stroke-opacity:1;"
     d="  M 86.941508,72.768396   L 86.941508,72.248397   L 87.30156,71.248399   L 87.661613,70.728401   L 88.341711,70.208402   L 89.78192,70.208402   L 90.462019,70.728401   L 90.822071,71.248399   L 91.182124,72.248397   L 91.182124,73.248395   L 90.822071,74.288392   L 90.141973,75.808388   L 86.581456,80.848376   L 91.542176,80.848376  "
     id="path164" />
  <path
     style="fill:none;stroke:#000000;stroke-width:0.96013933px;stroke-linecap:round;stroke-linejoin:round;stroke-miterlimit:4;stroke-dasharray:none;stroke-opacity:1;"
     d="  M 102.26373,76.728386   L 102.26373,87.368361  "
     id="path165" />
  <path
     style="fill:none;stroke:#000000;stroke-width:0.96013933px;stroke-linecap:round;stroke-linejoin:round;stroke-miterlimit:4;stroke-dasharray:none;stroke-opacity:1;"
     d="  M 102.26373,81.808374   L 101.54363,80.808376   L 100.82352,80.288378   L 99.783372,80.288378   L 99.063267,80.808376   L 98.343163,81.808374   L 98.023116,83.32837   L 98.023116,84.328368   L 98.343163,85.848364   L 99.063267,86.888362   L 99.783372,87.368361   L 100.82352,87.368361   L 101.54363,86.888362   L 102.26373,85.848364  "
     id="path166" />
  <path
     style="fill:none;stroke:#000000;stroke-width:0.96013933px;stroke-linecap:round;stroke-linejoin:round;stroke-miterlimit:4;stroke-dasharray:none;stroke-opacity:1;"
     d="  M 105.54421,82.408373   L 105.78424,82.808372   L 106.06428,82.408373   L 105.78424,82.048373   L 105.54421,82.408373   z "
     id="path167" />
  <path
     style="fill:none;stroke:#000000;stroke-width:0.96013933px;stroke-linecap:round;stroke-linejoin:round;stroke-miterlimit:4;stroke-dasharray:none;stroke-opacity:1;"
     d="  M 105.78424,84.688367   L 105.78424,90.008354  "
     id="path168" />
  <path
     style="fill:none;stroke:#000000;stroke-width:0.96013933px;stroke-linecap:round;stroke-linejoin:round;stroke-miterlimit:4;stroke-dasharray:none;stroke-opacity:1;"
     d="  M 365.02187,160.28818   L 364.5418,155.1682   L 363.02158,150.20821   L 360.58123,145.64822   L 357.30075,141.64823   L 353.34017,138.36824   L 348.77951,135.92824   L 343.81879,134.44825   L 338.69805,133.92825   L 333.5373,134.44825   L 328.61659,135.92824   L 324.05592,138.36824   L 320.05534,141.64823   L 316.77487,145.64822   L 314.33451,150.20821   L 312.8543,155.1682   L 312.33422,160.28818   L 312.8543,165.44817   L 314.33451,170.40816   L 316.77487,174.96815   L 320.05534,178.96814   L 324.05592,182.24813   L 328.61659,184.64813   L 333.5373,186.16812   L 338.69805,186.68812   L 343.81879,186.16812   L 348.77951,184.64813   L 353.34017,182.24813   L 357.30075,178.96814   L 360.58123,174.96815   L 363.02158,170.40816   L 364.5418,165.44817   L 365.02187,160.28818   z "
     id="path169" />
  <path
     style="fill:#000000;fill-rule:evenodd;fill-opacity:1;stroke:none;"
     d="  M 372.62297,160.28818   L 370.62268,160.28818   L 372.1029,154.4082   z "
     id="path170" />
  <path
     style="fill:#000000;fill-rule:evenodd;fill-opacity:1;stroke:none;"
     d="  M 370.62268,160.28818   L 372.1029,154.4082   L 370.14261,154.7682   z "
     id="path171" />
  <path
     style="fill:#000000;fill-rule:evenodd;fill-opacity:1;stroke:none;"
     d="  M 372.1029,154.4082   L 370.14261,154.7682   L 370.58268,148.68821   z "
     id="path172" />
  <path
     style="fill:#000000;fill-rule:evenodd;fill-opacity:1;stroke:none;"
     d="  M 370.14261,154.7682   L 370.58268,148.68821   L 368.7024,149.36821   z "
     id="path173" />
  <path
     style="fill:#000000;fill-rule:evenodd;fill-opacity:1;stroke:none;"
     d="  M 370.58268,148.68821   L 368.7024,149.36821   L 368.06231,143.32823   z "
     id="path174" />
  <path
     style="fill:#000000;fill-rule:evenodd;fill-opacity:1;stroke:none;"
     d="  M 368.7024,149.36821   L 368.06231,143.32823   L 366.34206,144.32822   z "
     id="path175" />
  <path
     style="fill:#000000;fill-rule:evenodd;fill-opacity:1;stroke:none;"
     d="  M 368.06231,143.32823   L 366.34206,144.32822   L 364.66182,138.48824   z "
     id="path176" />
  <path
     style="fill:#000000;fill-rule:evenodd;fill-opacity:1;stroke:none;"
     d="  M 366.34206,144.32822   L 364.66182,138.48824   L 363.1816,139.76823   z "
     id="path177" />
  <path
     style="fill:#000000;fill-rule:evenodd;fill-opacity:1;stroke:none;"
     d="  M 364.66182,138.48824   L 363.1816,139.76823   L 360.50121,134.28825   z "
     id="path178" />
  <path
     style="fill:#000000;fill-rule:evenodd;fill-opacity:1;stroke:none;"
     d="  M 363.1816,139.76823   L 360.50121,134.28825   L 359.22103,135.80824   z "
     id="path179" />
  <path
     style="fill:#000000;fill-rule:evenodd;fill-opacity:1;stroke:none;"
     d="  M 360.50121,134.28825   L 359.22103,135.80824   L 355.66051,130.88826   z "
     id="path180" />
  <path
     style="fill:#000000;fill-rule:evenodd;fill-opacity:1;stroke:none;"
     d="  M 359.22103,135.80824   L 355.66051,130.88826   L 354.66037,132.60825   z "
     id="path181" />
  <path
     style="fill:#000000;fill-rule:evenodd;fill-opacity:1;stroke:none;"
     d="  M 355.66051,130.88826   L 354.66037,132.60825   L 350.29973,128.40826   z "
     id="path182" />
  <path
     style="fill:#000000;fill-rule:evenodd;fill-opacity:1;stroke:none;"
     d="  M 354.66037,132.60825   L 350.29973,128.40826   L 349.61963,130.24826   z "
     id="path183" />
  <path
     style="fill:#000000;fill-rule:evenodd;fill-opacity:1;stroke:none;"
     d="  M 350.29973,128.40826   L 349.61963,130.24826   L 344.5789,126.84827   z "
     id="path184" />
  <path
     style="fill:#000000;fill-rule:evenodd;fill-opacity:1;stroke:none;"
     d="  M 349.61963,130.24826   L 344.5789,126.84827   L 344.21885,128.80826   z "
     id="path185" />
  <path
     style="fill:#000000;fill-rule:evenodd;fill-opacity:1;stroke:none;"
     d="  M 344.5789,126.84827   L 344.21885,128.80826   L 338.69805,126.36827   z "
     id="path186" />
  <path
     style="fill:#000000;fill-rule:evenodd;fill-opacity:1;stroke:none;"
     d="  M 344.21885,128.80826   L 338.69805,126.36827   L 338.69805,128.32826   z "
     id="path187" />
  <path
     style="fill:#000000;fill-rule:evenodd;fill-opacity:1;stroke:none;"
     d="  M 338.69805,126.36827   L 338.69805,128.32826   L 332.77719,126.84827   z "
     id="path188" />
  <path
     style="fill:#000000;fill-rule:evenodd;fill-opacity:1;stroke:none;"
     d="  M 338.69805,128.32826   L 332.77719,126.84827   L 333.13724,128.80826   z "
     id="path189" />
  <path
     style="fill:#000000;fill-rule:evenodd;fill-opacity:1;stroke:none;"
     d="  M 332.77719,126.84827   L 333.13724,128.80826   L 327.09637,128.40826   z "
     id="path190" />
  <path
     style="fill:#000000;fill-rule:evenodd;fill-opacity:1;stroke:none;"
     d="  M 333.13724,128.80826   L 327.09637,128.40826   L 327.73646,130.24826   z "
     id="path191" />
  <path
     style="fill:#000000;fill-rule:evenodd;fill-opacity:1;stroke:none;"
     d="  M 327.09637,128.40826   L 327.73646,130.24826   L 321.73559,130.88826   z "
     id="path192" />
  <path
     style="fill:#000000;fill-rule:evenodd;fill-opacity:1;stroke:none;"
     d="  M 327.73646,130.24826   L 321.73559,130.88826   L 322.69573,132.60825   z "
     id="path193" />
  <path
     style="fill:#000000;fill-rule:evenodd;fill-opacity:1;stroke:none;"
     d="  M 321.73559,130.88826   L 322.69573,132.60825   L 316.89488,134.28825   z "
     id="path194" />
  <path
     style="fill:#000000;fill-rule:evenodd;fill-opacity:1;stroke:none;"
     d="  M 322.69573,132.60825   L 316.89488,134.28825   L 318.13506,135.80824   z "
     id="path195" />
  <path
     style="fill:#000000;fill-rule:evenodd;fill-opacity:1;stroke:none;"
     d="  M 316.89488,134.28825   L 318.13506,135.80824   L 312.69427,138.48824   z "
     id="path196" />
  <path
     style="fill:#000000;fill-rule:evenodd;fill-opacity:1;stroke:none;"
     d="  M 318.13506,135.80824   L 312.69427,138.48824   L 314.2145,139.76823   z "
     id="path197" />
  <path
     style="fill:#000000;fill-rule:evenodd;fill-opacity:1;stroke:none;"
     d="  M 312.69427,138.48824   L 314.2145,139.76823   L 309.29378,143.32823   z "
     id="path198" />
  <path
     style="fill:#000000;fill-rule:evenodd;fill-opacity:1;stroke:none;"
     d="  M 314.2145,139.76823   L 309.29378,143.32823   L 311.01403,144.32822   z "
     id="path199" />
  <path
     style="fill:#000000;fill-rule:evenodd;fill-opacity:1;stroke:none;"
     d="  M 309.29378,143.32823   L 311.01403,144.32822   L 306.81342,148.68821   z "
     id="path200" />
  <path
     style="fill:#000000;fill-rule:evenodd;fill-opacity:1;stroke:none;"
     d="  M 311.01403,144.32822   L 306.81342,148.68821   L 308.65369,149.36821   z "
     id="path201" />
  <path
     style="fill:#000000;fill-rule:evenodd;fill-opacity:1;stroke:none;"
     d="  M 306.81342,148.68821   L 308.65369,149.36821   L 305.25319,154.4082   z "
     id="path202" />
  <path
     style="fill:#000000;fill-rule:evenodd;fill-opacity:1;stroke:none;"
     d="  M 308.65369,149.36821   L 305.25319,154.4082   L 307.21348,154.7682   z "
     id="path203" />
  <path
     style="fill:#000000;fill-rule:evenodd;fill-opacity:1;stroke:none;"
     d="  M 305.25319,154.4082   L 307.21348,154.7682   L 304.77313,160.28818   z "
     id="path204" />
  <path
     style="fill:#000000;fill-rule:evenodd;fill-opacity:1;stroke:none;"
     d="  M 307.21348,154.7682   L 304.77313,160.28818   L 306.73341,160.28818   z "
     id="path205" />
  <path
     style="fill:none;stroke:#000000;stroke-width:0.96013933px;stroke-linecap:round;stroke-linejoin:round;stroke-miterlimit:4;stroke-dasharray:none;stroke-opacity:1;"
     d="  M 338.69805,201.36809   L 338.69805,151.28821  "
     id="path206" />
  <path
     style="fill:none;stroke:#000000;stroke-width:0.96013933px;stroke-linecap:round;stroke-linejoin:round;stroke-miterlimit:4;stroke-dasharray:none;stroke-opacity:1;"
     d="  M 338.69805,134.80825   L 338.69805,118.32829  "
     id="path207" />
  <path
     style="fill:none;stroke:#000000;stroke-width:0.96013933px;stroke-linecap:round;stroke-linejoin:round;stroke-miterlimit:4;stroke-dasharray:none;stroke-opacity:1;"
     d="  M 338.69805,101.84833   L 338.69805,51.768447  "
     id="path208" />
  <path
     style="fill:#000000;fill-rule:evenodd;fill-opacity:1;stroke:none;"
     d="  M 354.1803,131.76825   L 356.14058,131.76825   L 354.1803,51.768447   z "
     id="path209" />
  <path
     style="fill:#000000;fill-rule:evenodd;fill-opacity:1;stroke:none;"
     d="  M 356.14058,131.76825   L 354.1803,51.768447   L 356.14058,51.768447   z "
     id="path210" />
  <path
     style="fill:#000000;fill-rule:evenodd;fill-opacity:1;stroke:none;"
     d="  M 349.3796,129.28826   L 350.37974,129.28826   L 349.3796,116.92829   z "
     id="path211" />
  <path
     style="fill:#000000;fill-rule:evenodd;fill-opacity:1;stroke:none;"
     d="  M 350.37974,129.28826   L 349.3796,116.92829   L 350.37974,116.92829   z "
     id="path212" />
  <path
     style="fill:#000000;fill-rule:evenodd;fill-opacity:1;stroke:none;"
     d="  M 349.3796,110.32831   L 350.37974,110.32831   L 349.3796,93.848345   z "
     id="path213" />
  <path
     style="fill:#000000;fill-rule:evenodd;fill-opacity:1;stroke:none;"
     d="  M 350.37974,110.32831   L 349.3796,93.848345   L 350.37974,93.848345   z "
     id="path214" />
  <path
     style="fill:#000000;fill-rule:evenodd;fill-opacity:1;stroke:none;"
     d="  M 349.3796,87.248361   L 350.37974,87.248361   L 349.3796,70.768401   z "
     id="path215" />
  <path
     style="fill:#000000;fill-rule:evenodd;fill-opacity:1;stroke:none;"
     d="  M 350.37974,87.248361   L 349.3796,70.768401   L 350.37974,70.768401   z "
     id="path216" />
  <path
     style="fill:#000000;fill-rule:evenodd;fill-opacity:1;stroke:none;"
     d="  M 349.3796,64.168417   L 350.37974,64.168417   L 349.3796,51.768447   z "
     id="path217" />
  <path
     style="fill:#000000;fill-rule:evenodd;fill-opacity:1;stroke:none;"
     d="  M 350.37974,64.168417   L 349.3796,51.768447   L 350.37974,51.768447   z "
     id="path218" />
  <path
     style="fill:#000000;fill-rule:evenodd;fill-opacity:1;stroke:none;"
     d="  M 349.3796,51.768447   L 350.37974,51.768447   L 350.37974,51.768447   z "
     id="path219" />
  <path
     style="fill:#000000;fill-rule:evenodd;fill-opacity:1;stroke:none;"
     d="  M 321.21551,131.76825   L 323.2158,131.76825   L 321.21551,51.768447   z "
     id="path220" />
  <path
     style="fill:#000000;fill-rule:evenodd;fill-opacity:1;stroke:none;"
     d="  M 323.2158,131.76825   L 321.21551,51.768447   L 323.2158,51.768447   z "
     id="path221" />
  <path
     style="fill:#000000;fill-rule:evenodd;fill-opacity:1;stroke:none;"
     d="  M 326.97635,129.28826   L 327.97649,129.28826   L 326.97635,116.92829   z "
     id="path222" />
  <path
     style="fill:#000000;fill-rule:evenodd;fill-opacity:1;stroke:none;"
     d="  M 327.97649,129.28826   L 326.97635,116.92829   L 327.97649,116.92829   z "
     id="path223" />
  <path
     style="fill:#000000;fill-rule:evenodd;fill-opacity:1;stroke:none;"
     d="  M 326.97635,110.32831   L 327.97649,110.32831   L 326.97635,93.848345   z "
     id="path224" />
  <path
     style="fill:#000000;fill-rule:evenodd;fill-opacity:1;stroke:none;"
     d="  M 327.97649,110.32831   L 326.97635,93.848345   L 327.97649,93.848345   z "
     id="path225" />
  <path
     style="fill:#000000;fill-rule:evenodd;fill-opacity:1;stroke:none;"
     d="  M 326.97635,87.248361   L 327.97649,87.248361   L 326.97635,70.768401   z "
     id="path226" />
  <path
     style="fill:#000000;fill-rule:evenodd;fill-opacity:1;stroke:none;"
     d="  M 327.97649,87.248361   L 326.97635,70.768401   L 327.97649,70.768401   z "
     id="path227" />
  <path
     style="fill:#000000;fill-rule:evenodd;fill-opacity:1;stroke:none;"
     d="  M 326.97635,64.168417   L 327.97649,64.168417   L 326.97635,51.768447   z "
     id="path228" />
  <path
     style="fill:#000000;fill-rule:evenodd;fill-opacity:1;stroke:none;"
     d="  M 327.97649,64.168417   L 326.97635,51.768447   L 327.97649,51.768447   z "
     id="path229" />
  <path
     style="fill:#000000;fill-rule:evenodd;fill-opacity:1;stroke:none;"
     d="  M 326.97635,51.768447   L 327.97649,51.768447   L 327.97649,51.768447   z "
     id="path230" />
  <path
     style="fill:#000000;fill-rule:evenodd;fill-opacity:1;stroke:none;"
     d="  M 305.73326,159.32819   L 305.73326,161.28818   L 312.33422,159.32819   z "
     id="path231" />
  <path
     style="fill:#000000;fill-rule:evenodd;fill-opacity:1;stroke:none;"
     d="  M 305.73326,161.28818   L 312.33422,159.32819   L 312.33422,161.28818   z "
     id="path232" />
  <path
     style="fill:#000000;fill-rule:evenodd;fill-opacity:1;stroke:none;"
     d="  M 365.02187,159.32819   L 365.02187,161.28818   L 371.62283,159.32819   z "
     id="path233" />
  <path
     style="fill:#000000;fill-rule:evenodd;fill-opacity:1;stroke:none;"
     d="  M 365.02187,161.28818   L 371.62283,159.32819   L 371.62283,161.28818   z "
     id="path234" />
  <path
     style="fill:none;stroke:#000000;stroke-width:0.96013933px;stroke-linecap:round;stroke-linejoin:round;stroke-miterlimit:4;stroke-dasharray:none;stroke-opacity:1;"
     d="  M 303.77298,51.768447   L 330.13681,51.768447   L 334.73747,37.288481   L 342.61862,66.288411   L 347.25929,51.768447   L 373.58311,51.768447  "
     id="path235" />
  <path
     style="fill:#000000;fill-rule:evenodd;fill-opacity:1;stroke:none;"
     d="  M 311.33408,160.28818   L 313.33437,160.28818   L 311.85415,165.64817   z "
     id="path236" />
  <path
     style="fill:#000000;fill-rule:evenodd;fill-opacity:1;stroke:none;"
     d="  M 313.33437,160.28818   L 311.85415,165.64817   L 313.81444,165.24817   z "
     id="path237" />
  <path
     style="fill:#000000;fill-rule:evenodd;fill-opacity:1;stroke:none;"
     d="  M 311.85415,165.64817   L 313.81444,165.24817   L 313.41438,170.76816   z "
     id="path238" />
  <path
     style="fill:#000000;fill-rule:evenodd;fill-opacity:1;stroke:none;"
     d="  M 313.81444,165.24817   L 313.41438,170.76816   L 315.25465,170.00816   z "
     id="path239" />
  <path
     style="fill:#000000;fill-rule:evenodd;fill-opacity:1;stroke:none;"
     d="  M 313.41438,170.76816   L 315.25465,170.00816   L 315.93475,175.48815   z "
     id="path240" />
  <path
     style="fill:#000000;fill-rule:evenodd;fill-opacity:1;stroke:none;"
     d="  M 315.25465,170.00816   L 315.93475,175.48815   L 317.57498,174.40815   z "
     id="path241" />
  <path
     style="fill:#000000;fill-rule:evenodd;fill-opacity:1;stroke:none;"
     d="  M 315.93475,175.48815   L 317.57498,174.40815   L 319.33524,179.64814   z "
     id="path242" />
  <path
     style="fill:#000000;fill-rule:evenodd;fill-opacity:1;stroke:none;"
     d="  M 317.57498,174.40815   L 319.33524,179.64814   L 320.73544,178.24814   z "
     id="path243" />
  <path
     style="fill:#000000;fill-rule:evenodd;fill-opacity:1;stroke:none;"
     d="  M 319.33524,179.64814   L 320.73544,178.24814   L 323.49584,183.04813   z "
     id="path244" />
  <path
     style="fill:#000000;fill-rule:evenodd;fill-opacity:1;stroke:none;"
     d="  M 320.73544,178.24814   L 323.49584,183.04813   L 324.576,181.40813   z "
     id="path245" />
  <path
     style="fill:#000000;fill-rule:evenodd;fill-opacity:1;stroke:none;"
     d="  M 323.49584,183.04813   L 324.576,181.40813   L 328.21653,185.56812   z "
     id="path246" />
  <path
     style="fill:#000000;fill-rule:evenodd;fill-opacity:1;stroke:none;"
     d="  M 324.576,181.40813   L 328.21653,185.56812   L 328.97664,183.76813   z "
     id="path247" />
  <path
     style="fill:#000000;fill-rule:evenodd;fill-opacity:1;stroke:none;"
     d="  M 328.21653,185.56812   L 328.97664,183.76813   L 333.33727,187.12812   z "
     id="path248" />
  <path
     style="fill:#000000;fill-rule:evenodd;fill-opacity:1;stroke:none;"
     d="  M 328.97664,183.76813   L 333.33727,187.12812   L 333.73733,185.20812   z "
     id="path249" />
  <path
     style="fill:#000000;fill-rule:evenodd;fill-opacity:1;stroke:none;"
     d="  M 333.33727,187.12812   L 333.73733,185.20812   L 338.69805,187.64812   z "
     id="path250" />
  <path
     style="fill:#000000;fill-rule:evenodd;fill-opacity:1;stroke:none;"
     d="  M 333.73733,185.20812   L 338.69805,187.64812   L 338.69805,185.68812   z "
     id="path251" />
  <path
     style="fill:#000000;fill-rule:evenodd;fill-opacity:1;stroke:none;"
     d="  M 338.69805,187.64812   L 338.69805,185.68812   L 344.01882,187.12812   z "
     id="path252" />
  <path
     style="fill:#000000;fill-rule:evenodd;fill-opacity:1;stroke:none;"
     d="  M 338.69805,185.68812   L 344.01882,187.12812   L 343.61876,185.20812   z "
     id="path253" />
  <path
     style="fill:#000000;fill-rule:evenodd;fill-opacity:1;stroke:none;"
     d="  M 344.01882,187.12812   L 343.61876,185.20812   L 349.13956,185.56812   z "
     id="path254" />
  <path
     style="fill:#000000;fill-rule:evenodd;fill-opacity:1;stroke:none;"
     d="  M 343.61876,185.20812   L 349.13956,185.56812   L 348.37945,183.76813   z "
     id="path255" />
  <path
     style="fill:#000000;fill-rule:evenodd;fill-opacity:1;stroke:none;"
     d="  M 349.13956,185.56812   L 348.37945,183.76813   L 353.86025,183.04813   z "
     id="path256" />
  <path
     style="fill:#000000;fill-rule:evenodd;fill-opacity:1;stroke:none;"
     d="  M 348.37945,183.76813   L 353.86025,183.04813   L 352.78009,181.40813   z "
     id="path257" />
  <path
     style="fill:#000000;fill-rule:evenodd;fill-opacity:1;stroke:none;"
     d="  M 353.86025,183.04813   L 352.78009,181.40813   L 358.02085,179.64814   z "
     id="path258" />
  <path
     style="fill:#000000;fill-rule:evenodd;fill-opacity:1;stroke:none;"
     d="  M 352.78009,181.40813   L 358.02085,179.64814   L 356.62065,178.24814   z "
     id="path259" />
  <path
     style="fill:#000000;fill-rule:evenodd;fill-opacity:1;stroke:none;"
     d="  M 358.02085,179.64814   L 356.62065,178.24814   L 361.42135,175.48815   z "
     id="path260" />
  <path
     style="fill:#000000;fill-rule:evenodd;fill-opacity:1;stroke:none;"
     d="  M 356.62065,178.24814   L 361.42135,175.48815   L 359.78111,174.40815   z "
     id="path261" />
  <path
     style="fill:#000000;fill-rule:evenodd;fill-opacity:1;stroke:none;"
     d="  M 361.42135,175.48815   L 359.78111,174.40815   L 363.94171,170.76816   z "
     id="path262" />
  <path
     style="fill:#000000;fill-rule:evenodd;fill-opacity:1;stroke:none;"
     d="  M 359.78111,174.40815   L 363.94171,170.76816   L 362.10145,170.00816   z "
     id="path263" />
  <path
     style="fill:#000000;fill-rule:evenodd;fill-opacity:1;stroke:none;"
     d="  M 363.94171,170.76816   L 362.10145,170.00816   L 365.50194,165.64817   z "
     id="path264" />
  <path
     style="fill:#000000;fill-rule:evenodd;fill-opacity:1;stroke:none;"
     d="  M 362.10145,170.00816   L 365.50194,165.64817   L 363.58166,165.24817   z "
     id="path265" />
  <path
     style="fill:#000000;fill-rule:evenodd;fill-opacity:1;stroke:none;"
     d="  M 365.50194,165.64817   L 363.58166,165.24817   L 366.02202,160.28818   z "
     id="path266" />
  <path
     style="fill:#000000;fill-rule:evenodd;fill-opacity:1;stroke:none;"
     d="  M 363.58166,165.24817   L 366.02202,160.28818   L 364.06173,160.28818   z "
     id="path267" />
  <path
     style="fill:#000000;fill-rule:evenodd;fill-opacity:1;stroke:none;"
     d="  M 366.02202,160.28818   L 364.06173,160.28818   L 365.50194,154.9682   z "
     id="path268" />
  <path
     style="fill:#000000;fill-rule:evenodd;fill-opacity:1;stroke:none;"
     d="  M 364.06173,160.28818   L 365.50194,154.9682   L 363.58166,155.3682   z "
     id="path269" />
  <path
     style="fill:#000000;fill-rule:evenodd;fill-opacity:1;stroke:none;"
     d="  M 365.50194,154.9682   L 363.58166,155.3682   L 363.94171,149.84821   z "
     id="path270" />
  <path
     style="fill:#000000;fill-rule:evenodd;fill-opacity:1;stroke:none;"
     d="  M 363.58166,155.3682   L 363.94171,149.84821   L 362.10145,150.60821   z "
     id="path271" />
  <path
     style="fill:#000000;fill-rule:evenodd;fill-opacity:1;stroke:none;"
     d="  M 363.94171,149.84821   L 362.10145,150.60821   L 361.42135,145.08822   z "
     id="path272" />
  <path
     style="fill:#000000;fill-rule:evenodd;fill-opacity:1;stroke:none;"
     d="  M 362.10145,150.60821   L 361.42135,145.08822   L 359.78111,146.20822   z "
     id="path273" />
  <path
     style="fill:#000000;fill-rule:evenodd;fill-opacity:1;stroke:none;"
     d="  M 361.42135,145.08822   L 359.78111,146.20822   L 358.02085,140.96823   z "
     id="path274" />
  <path
     style="fill:#000000;fill-rule:evenodd;fill-opacity:1;stroke:none;"
     d="  M 359.78111,146.20822   L 358.02085,140.96823   L 356.62065,142.36823   z "
     id="path275" />
  <path
     style="fill:#000000;fill-rule:evenodd;fill-opacity:1;stroke:none;"
     d="  M 358.02085,140.96823   L 356.62065,142.36823   L 353.86025,137.56824   z "
     id="path276" />
  <path
     style="fill:#000000;fill-rule:evenodd;fill-opacity:1;stroke:none;"
     d="  M 356.62065,142.36823   L 353.86025,137.56824   L 352.78009,139.20824   z "
     id="path277" />
  <path
     style="fill:#000000;fill-rule:evenodd;fill-opacity:1;stroke:none;"
     d="  M 353.86025,137.56824   L 352.78009,139.20824   L 349.13956,135.00825   z "
     id="path278" />
  <path
     style="fill:#000000;fill-rule:evenodd;fill-opacity:1;stroke:none;"
     d="  M 352.78009,139.20824   L 349.13956,135.00825   L 348.37945,136.84824   z "
     id="path279" />
  <path
     style="fill:#000000;fill-rule:evenodd;fill-opacity:1;stroke:none;"
     d="  M 349.13956,135.00825   L 348.37945,136.84824   L 344.01882,133.44825   z "
     id="path280" />
  <path
     style="fill:#000000;fill-rule:evenodd;fill-opacity:1;stroke:none;"
     d="  M 348.37945,136.84824   L 344.01882,133.44825   L 343.61876,135.40824   z "
     id="path281" />
  <path
     style="fill:#000000;fill-rule:evenodd;fill-opacity:1;stroke:none;"
     d="  M 344.01882,133.44825   L 343.61876,135.40824   L 338.69805,132.92825   z "
     id="path282" />
  <path
     style="fill:#000000;fill-rule:evenodd;fill-opacity:1;stroke:none;"
     d="  M 343.61876,135.40824   L 338.69805,132.92825   L 338.69805,134.92825   z "
     id="path283" />
  <path
     style="fill:#000000;fill-rule:evenodd;fill-opacity:1;stroke:none;"
     d="  M 338.69805,132.92825   L 338.69805,134.92825   L 333.33727,133.44825   z "
     id="path284" />
  <path
     style="fill:#000000;fill-rule:evenodd;fill-opacity:1;stroke:none;"
     d="  M 338.69805,134.92825   L 333.33727,133.44825   L 333.73733,135.40824   z "
     id="path285" />
  <path
     style="fill:#000000;fill-rule:evenodd;fill-opacity:1;stroke:none;"
     d="  M 333.33727,133.44825   L 333.73733,135.40824   L 328.21653,135.00825   z "
     id="path286" />
  <path
     style="fill:#000000;fill-rule:evenodd;fill-opacity:1;stroke:none;"
     d="  M 333.73733,135.40824   L 328.21653,135.00825   L 328.97664,136.84824   z "
     id="path287" />
  <path
     style="fill:#000000;fill-rule:evenodd;fill-opacity:1;stroke:none;"
     d="  M 328.21653,135.00825   L 328.97664,136.84824   L 323.49584,137.56824   z "
     id="path288" />
  <path
     style="fill:#000000;fill-rule:evenodd;fill-opacity:1;stroke:none;"
     d="  M 328.97664,136.84824   L 323.49584,137.56824   L 324.576,139.20824   z "
     id="path289" />
  <path
     style="fill:#000000;fill-rule:evenodd;fill-opacity:1;stroke:none;"
     d="  M 323.49584,137.56824   L 324.576,139.20824   L 319.33524,140.96823   z "
     id="path290" />
  <path
     style="fill:#000000;fill-rule:evenodd;fill-opacity:1;stroke:none;"
     d="  M 324.576,139.20824   L 319.33524,140.96823   L 320.73544,142.36823   z "
     id="path291" />
  <path
     style="fill:#000000;fill-rule:evenodd;fill-opacity:1;stroke:none;"
     d="  M 319.33524,140.96823   L 320.73544,142.36823   L 315.93475,145.08822   z "
     id="path292" />
  <path
     style="fill:#000000;fill-rule:evenodd;fill-opacity:1;stroke:none;"
     d="  M 320.73544,142.36823   L 315.93475,145.08822   L 317.57498,146.20822   z "
     id="path293" />
  <path
     style="fill:#000000;fill-rule:evenodd;fill-opacity:1;stroke:none;"
     d="  M 315.93475,145.08822   L 317.57498,146.20822   L 313.41438,149.84821   z "
     id="path294" />
  <path
     style="fill:#000000;fill-rule:evenodd;fill-opacity:1;stroke:none;"
     d="  M 317.57498,146.20822   L 313.41438,149.84821   L 315.25465,150.60821   z "
     id="path295" />
  <path
     style="fill:#000000;fill-rule:evenodd;fill-opacity:1;stroke:none;"
     d="  M 313.41438,149.84821   L 315.25465,150.60821   L 311.85415,154.9682   z "
     id="path296" />
  <path
     style="fill:#000000;fill-rule:evenodd;fill-opacity:1;stroke:none;"
     d="  M 315.25465,150.60821   L 311.85415,154.9682   L 313.81444,155.3682   z "
     id="path297" />
  <path
     style="fill:#000000;fill-rule:evenodd;fill-opacity:1;stroke:none;"
     d="  M 311.85415,154.9682   L 313.81444,155.3682   L 311.33408,160.28818   z "
     id="path298" />
  <path
     style="fill:#000000;fill-rule:evenodd;fill-opacity:1;stroke:none;"
     d="  M 313.81444,155.3682   L 311.33408,160.28818   L 313.33437,160.28818   z "
     id="path299" />
  <path
     style="fill:#000000;fill-rule:evenodd;fill-opacity:1;stroke:none;"
     d="  M 338.69805,181.08813   L 338.69805,179.08814   L 343.29872,180.56814   z "
     id="path300" />
  <path
     style="fill:#000000;fill-rule:evenodd;fill-opacity:1;stroke:none;"
     d="  M 338.69805,179.08814   L 343.29872,180.56814   L 342.85865,178.60814   z "
     id="path301" />
  <path
     style="fill:#000000;fill-rule:evenodd;fill-opacity:1;stroke:none;"
     d="  M 343.29872,180.56814   L 342.85865,178.60814   L 347.69936,179.00814   z "
     id="path302" />
  <path
     style="fill:#000000;fill-rule:evenodd;fill-opacity:1;stroke:none;"
     d="  M 342.85865,178.60814   L 347.69936,179.00814   L 346.81923,177.24814   z "
     id="path303" />
  <path
     style="fill:#000000;fill-rule:evenodd;fill-opacity:1;stroke:none;"
     d="  M 347.69936,179.00814   L 346.81923,177.24814   L 351.61992,176.52815   z "
     id="path304" />
  <path
     style="fill:#000000;fill-rule:evenodd;fill-opacity:1;stroke:none;"
     d="  M 346.81923,177.24814   L 351.61992,176.52815   L 350.37974,175.00815   z "
     id="path305" />
  <path
     style="fill:#000000;fill-rule:evenodd;fill-opacity:1;stroke:none;"
     d="  M 351.61992,176.52815   L 350.37974,175.00815   L 354.9004,173.24815   z "
     id="path306" />
  <path
     style="fill:#000000;fill-rule:evenodd;fill-opacity:1;stroke:none;"
     d="  M 350.37974,175.00815   L 354.9004,173.24815   L 353.38018,172.00816   z "
     id="path307" />
  <path
     style="fill:#000000;fill-rule:evenodd;fill-opacity:1;stroke:none;"
     d="  M 354.9004,173.24815   L 353.38018,172.00816   L 357.38076,169.32816   z "
     id="path308" />
  <path
     style="fill:#000000;fill-rule:evenodd;fill-opacity:1;stroke:none;"
     d="  M 353.38018,172.00816   L 357.38076,169.32816   L 355.62051,168.44816   z "
     id="path309" />
  <path
     style="fill:#000000;fill-rule:evenodd;fill-opacity:1;stroke:none;"
     d="  M 357.38076,169.32816   L 355.62051,168.44816   L 358.90098,164.92817   z "
     id="path310" />
  <path
     style="fill:#000000;fill-rule:evenodd;fill-opacity:1;stroke:none;"
     d="  M 355.62051,168.44816   L 358.90098,164.92817   L 356.9807,164.48817   z "
     id="path311" />
  <path
     style="fill:#000000;fill-rule:evenodd;fill-opacity:1;stroke:none;"
     d="  M 358.90098,164.92817   L 356.9807,164.48817   L 359.42106,160.28818   z "
     id="path312" />
  <path
     style="fill:#000000;fill-rule:evenodd;fill-opacity:1;stroke:none;"
     d="  M 356.9807,164.48817   L 359.42106,160.28818   L 357.46077,160.28818   z "
     id="path313" />
  <path
     style="fill:#000000;fill-rule:evenodd;fill-opacity:1;stroke:none;"
     d="  M 359.42106,160.28818   L 357.46077,160.28818   L 358.90098,155.6882   z "
     id="path314" />
  <path
     style="fill:#000000;fill-rule:evenodd;fill-opacity:1;stroke:none;"
     d="  M 357.46077,160.28818   L 358.90098,155.6882   L 356.9807,156.12819   z "
     id="path315" />
  <path
     style="fill:#000000;fill-rule:evenodd;fill-opacity:1;stroke:none;"
     d="  M 358.90098,155.6882   L 356.9807,156.12819   L 357.38076,151.28821   z "
     id="path316" />
  <path
     style="fill:#000000;fill-rule:evenodd;fill-opacity:1;stroke:none;"
     d="  M 356.9807,156.12819   L 357.38076,151.28821   L 355.62051,152.1682   z "
     id="path317" />
  <path
     style="fill:#000000;fill-rule:evenodd;fill-opacity:1;stroke:none;"
     d="  M 357.38076,151.28821   L 355.62051,152.1682   L 354.9004,147.36822   z "
     id="path318" />
  <path
     style="fill:#000000;fill-rule:evenodd;fill-opacity:1;stroke:none;"
     d="  M 355.62051,152.1682   L 354.9004,147.36822   L 353.38018,148.56821   z "
     id="path319" />
  <path
     style="fill:#000000;fill-rule:evenodd;fill-opacity:1;stroke:none;"
     d="  M 354.9004,147.36822   L 353.38018,148.56821   L 351.61992,144.04822   z "
     id="path320" />
  <path
     style="fill:#000000;fill-rule:evenodd;fill-opacity:1;stroke:none;"
     d="  M 353.38018,148.56821   L 351.61992,144.04822   L 350.37974,145.60822   z "
     id="path321" />
  <path
     style="fill:#000000;fill-rule:evenodd;fill-opacity:1;stroke:none;"
     d="  M 351.61992,144.04822   L 350.37974,145.60822   L 347.69936,141.60823   z "
     id="path322" />
  <path
     style="fill:#000000;fill-rule:evenodd;fill-opacity:1;stroke:none;"
     d="  M 350.37974,145.60822   L 347.69936,141.60823   L 346.81923,143.36823   z "
     id="path323" />
  <path
     style="fill:#000000;fill-rule:evenodd;fill-opacity:1;stroke:none;"
     d="  M 347.69936,141.60823   L 346.81923,143.36823   L 343.29872,140.04823   z "
     id="path324" />
  <path
     style="fill:#000000;fill-rule:evenodd;fill-opacity:1;stroke:none;"
     d="  M 346.81923,143.36823   L 343.29872,140.04823   L 342.85865,141.96823   z "
     id="path325" />
  <path
     style="fill:#000000;fill-rule:evenodd;fill-opacity:1;stroke:none;"
     d="  M 343.29872,140.04823   L 342.85865,141.96823   L 338.69805,139.52823   z "
     id="path326" />
  <path
     style="fill:#000000;fill-rule:evenodd;fill-opacity:1;stroke:none;"
     d="  M 342.85865,141.96823   L 338.69805,139.52823   L 338.69805,141.52823   z "
     id="path327" />
  <path
     style="fill:#000000;fill-rule:evenodd;fill-opacity:1;stroke:none;"
     d="  M 338.69805,139.52823   L 338.69805,141.52823   L 334.05738,140.04823   z "
     id="path328" />
  <path
     style="fill:#000000;fill-rule:evenodd;fill-opacity:1;stroke:none;"
     d="  M 338.69805,141.52823   L 334.05738,140.04823   L 334.49744,141.96823   z "
     id="path329" />
  <path
     style="fill:#000000;fill-rule:evenodd;fill-opacity:1;stroke:none;"
     d="  M 334.05738,140.04823   L 334.49744,141.96823   L 329.69674,141.60823   z "
     id="path330" />
  <path
     style="fill:#000000;fill-rule:evenodd;fill-opacity:1;stroke:none;"
     d="  M 334.49744,141.96823   L 329.69674,141.60823   L 330.53686,143.36823   z "
     id="path331" />
  <path
     style="fill:#000000;fill-rule:evenodd;fill-opacity:1;stroke:none;"
     d="  M 329.69674,141.60823   L 330.53686,143.36823   L 325.73617,144.04822   z "
     id="path332" />
  <path
     style="fill:#000000;fill-rule:evenodd;fill-opacity:1;stroke:none;"
     d="  M 330.53686,143.36823   L 325.73617,144.04822   L 326.97635,145.60822   z "
     id="path333" />
  <path
     style="fill:#000000;fill-rule:evenodd;fill-opacity:1;stroke:none;"
     d="  M 325.73617,144.04822   L 326.97635,145.60822   L 322.45569,147.36822   z "
     id="path334" />
  <path
     style="fill:#000000;fill-rule:evenodd;fill-opacity:1;stroke:none;"
     d="  M 326.97635,145.60822   L 322.45569,147.36822   L 324.01592,148.56821   z "
     id="path335" />
  <path
     style="fill:#000000;fill-rule:evenodd;fill-opacity:1;stroke:none;"
     d="  M 322.45569,147.36822   L 324.01592,148.56821   L 319.97533,151.28821   z "
     id="path336" />
  <path
     style="fill:#000000;fill-rule:evenodd;fill-opacity:1;stroke:none;"
     d="  M 324.01592,148.56821   L 319.97533,151.28821   L 321.77559,152.1682   z "
     id="path337" />
  <path
     style="fill:#000000;fill-rule:evenodd;fill-opacity:1;stroke:none;"
     d="  M 319.97533,151.28821   L 321.77559,152.1682   L 318.45511,155.6882   z "
     id="path338" />
  <path
     style="fill:#000000;fill-rule:evenodd;fill-opacity:1;stroke:none;"
     d="  M 321.77559,152.1682   L 318.45511,155.6882   L 320.37539,156.12819   z "
     id="path339" />
  <path
     style="fill:#000000;fill-rule:evenodd;fill-opacity:1;stroke:none;"
     d="  M 318.45511,155.6882   L 320.37539,156.12819   L 317.93504,160.28818   z "
     id="path340" />
  <path
     style="fill:#000000;fill-rule:evenodd;fill-opacity:1;stroke:none;"
     d="  M 320.37539,156.12819   L 317.93504,160.28818   L 319.89532,160.28818   z "
     id="path341" />
  <path
     style="fill:#000000;fill-rule:evenodd;fill-opacity:1;stroke:none;"
     d="  M 317.93504,160.28818   L 319.89532,160.28818   L 318.45511,164.92817   z "
     id="path342" />
  <path
     style="fill:#000000;fill-rule:evenodd;fill-opacity:1;stroke:none;"
     d="  M 319.89532,160.28818   L 318.45511,164.92817   L 320.37539,164.48817   z "
     id="path343" />
  <path
     style="fill:#000000;fill-rule:evenodd;fill-opacity:1;stroke:none;"
     d="  M 318.45511,164.92817   L 320.37539,164.48817   L 319.97533,169.32816   z "
     id="path344" />
  <path
     style="fill:#000000;fill-rule:evenodd;fill-opacity:1;stroke:none;"
     d="  M 320.37539,164.48817   L 319.97533,169.32816   L 321.77559,168.44816   z "
     id="path345" />
  <path
     style="fill:#000000;fill-rule:evenodd;fill-opacity:1;stroke:none;"
     d="  M 319.97533,169.32816   L 321.77559,168.44816   L 322.45569,173.24815   z "
     id="path346" />
  <path
     style="fill:#000000;fill-rule:evenodd;fill-opacity:1;stroke:none;"
     d="  M 321.77559,168.44816   L 322.45569,173.24815   L 324.01592,172.00816   z "
     id="path347" />
  <path
     style="fill:#000000;fill-rule:evenodd;fill-opacity:1;stroke:none;"
     d="  M 322.45569,173.24815   L 324.01592,172.00816   L 325.73617,176.52815   z "
     id="path348" />
  <path
     style="fill:#000000;fill-rule:evenodd;fill-opacity:1;stroke:none;"
     d="  M 324.01592,172.00816   L 325.73617,176.52815   L 326.97635,175.00815   z "
     id="path349" />
  <path
     style="fill:#000000;fill-rule:evenodd;fill-opacity:1;stroke:none;"
     d="  M 325.73617,176.52815   L 326.97635,175.00815   L 329.69674,179.00814   z "
     id="path350" />
  <path
     style="fill:#000000;fill-rule:evenodd;fill-opacity:1;stroke:none;"
     d="  M 326.97635,175.00815   L 329.69674,179.00814   L 330.53686,177.24814   z "
     id="path351" />
  <path
     style="fill:#000000;fill-rule:evenodd;fill-opacity:1;stroke:none;"
     d="  M 329.69674,179.00814   L 330.53686,177.24814   L 334.05738,180.56814   z "
     id="path352" />
  <path
     style="fill:#000000;fill-rule:evenodd;fill-opacity:1;stroke:none;"
     d="  M 330.53686,177.24814   L 334.05738,180.56814   L 334.49744,178.60814   z "
     id="path353" />
  <path
     style="fill:#000000;fill-rule:evenodd;fill-opacity:1;stroke:none;"
     d="  M 334.05738,180.56814   L 334.49744,178.60814   L 338.69805,181.08813   z "
     id="path354" />
  <path
     style="fill:#000000;fill-rule:evenodd;fill-opacity:1;stroke:none;"
     d="  M 334.49744,178.60814   L 338.69805,181.08813   L 338.69805,179.08814   z "
     id="path355" />
  <path
     style="fill:none;stroke:#000000;stroke-width:0.96013933px;stroke-linecap:round;stroke-linejoin:round;stroke-miterlimit:4;stroke-dasharray:none;stroke-opacity:1;"
     d="  M 101.74366,160.28818   L 58.057316,236.968  "
     id="path356" />
  <path
     style="fill:none;stroke:#000000;stroke-width:0.96013933px;stroke-linecap:round;stroke-linejoin:round;stroke-miterlimit:4;stroke-dasharray:none;stroke-opacity:1;"
     d="  M 58.057316,236.968   L 38.254441,236.968  "
     id="path357" />
  <path
     style="fill:none;stroke:#000000;stroke-width:0.96013933px;stroke-linecap:round;stroke-linejoin:round;stroke-miterlimit:4;stroke-dasharray:none;stroke-opacity:1;"
     d="  M 167.07314,160.28818   L 236.16317,235.768  "
     id="path358" />
  <path
     style="fill:none;stroke:#000000;stroke-width:0.96013933px;stroke-linecap:round;stroke-linejoin:round;stroke-miterlimit:4;stroke-dasharray:none;stroke-opacity:1;"
     d="  M 262.32696,235.768   L 309.05375,160.28818  "
     id="path359" />
  <path
     style="fill:none;stroke:#000000;stroke-width:0.96013933px;stroke-linecap:round;stroke-linejoin:round;stroke-miterlimit:4;stroke-dasharray:none;stroke-opacity:1;"
     d="  M 91.782211,54.44844   L 88.2617,54.44844   L 87.901647,59.008429   L 88.2617,58.52843   L 89.301851,58.008431   L 90.382007,58.008431   L 91.422158,58.52843   L 92.142263,59.528428   L 92.502315,61.048424   L 92.502315,62.048422   L 92.142263,63.568418   L 91.422158,64.608416   L 90.382007,65.088414   L 89.301851,65.088414   L 88.2617,64.608416   L 87.901647,64.088417   L 87.541595,63.088419  "
     id="path360" />
  <path
     style="fill:none;stroke:#000000;stroke-width:0.96013933px;stroke-linecap:round;stroke-linejoin:round;stroke-miterlimit:4;stroke-dasharray:none;stroke-opacity:1;"
     d="  M 96.742931,54.44844   L 95.70278,54.968439   L 94.982675,56.488435   L 94.622623,59.008429   L 94.622623,60.528425   L 94.982675,63.088419   L 95.70278,64.608416   L 96.742931,65.088414   L 97.463035,65.088414   L 98.543192,64.608416   L 99.223291,63.088419   L 99.583343,60.528425   L 99.583343,59.008429   L 99.223291,56.488435   L 98.543192,54.968439   L 97.463035,54.44844   L 96.742931,54.44844   z "
     id="path361" />
  <path
     style="fill:none;stroke:#000000;stroke-width:0.96013933px;stroke-linecap:round;stroke-linejoin:round;stroke-miterlimit:4;stroke-dasharray:none;stroke-opacity:1;"
     d="  M 101.70365,65.088414   L 101.70365,58.008431  "
     id="path362" />
  <path
     style="fill:none;stroke:#000000;stroke-width:0.96013933px;stroke-linecap:round;stroke-linejoin:round;stroke-miterlimit:4;stroke-dasharray:none;stroke-opacity:1;"
     d="  M 101.70365,60.048427   L 102.78381,58.52843   L 103.50391,58.008431   L 104.54406,58.008431   L 105.26417,58.52843   L 105.62422,60.048427   L 105.62422,65.088414  "
     id="path363" />
  <path
     style="fill:none;stroke:#000000;stroke-width:0.96013933px;stroke-linecap:round;stroke-linejoin:round;stroke-miterlimit:4;stroke-dasharray:none;stroke-opacity:1;"
     d="  M 105.62422,60.048427   L 106.70438,58.52843   L 107.38448,58.008431   L 108.46463,58.008431   L 109.18474,58.52843   L 109.54479,60.048427   L 109.54479,65.088414  "
     id="path364" />
  <path
     style="fill:none;stroke:#000000;stroke-width:0.96013933px;stroke-linecap:round;stroke-linejoin:round;stroke-miterlimit:4;stroke-dasharray:none;stroke-opacity:1;"
     d="  M 112.3452,65.088414   L 112.3452,58.008431  "
     id="path365" />
  <path
     style="fill:none;stroke:#000000;stroke-width:0.96013933px;stroke-linecap:round;stroke-linejoin:round;stroke-miterlimit:4;stroke-dasharray:none;stroke-opacity:1;"
     d="  M 112.3452,60.048427   L 113.42535,58.52843   L 114.14546,58.008431   L 115.18561,58.008431   L 115.90571,58.52843   L 116.26576,60.048427   L 116.26576,65.088414  "
     id="path366" />
  <path
     style="fill:none;stroke:#000000;stroke-width:0.96013933px;stroke-linecap:round;stroke-linejoin:round;stroke-miterlimit:4;stroke-dasharray:none;stroke-opacity:1;"
     d="  M 116.26576,60.048427   L 117.34592,58.52843   L 118.02602,58.008431   L 119.10618,58.008431   L 119.82628,58.52843   L 120.18633,60.048427   L 120.18633,65.088414  "
     id="path367" />
  <path
     style="fill:none;stroke:#000000;stroke-width:0.96013933px;stroke-linecap:round;stroke-linejoin:round;stroke-miterlimit:4;stroke-dasharray:none;stroke-opacity:1;"
     d="  M 209.99937,83.32837   L 221.08098,88.568358  "
     id="path368" />
  <path
     style="fill:none;stroke:#000000;stroke-width:0.96013933px;stroke-linecap:round;stroke-linejoin:round;stroke-miterlimit:4;stroke-dasharray:none;stroke-opacity:1;"
     d="  M 221.08098,88.568358   L 210.95951,93.968345  "
     id="path369" />
  <path
     style="fill:none;stroke:#000000;stroke-width:0.96013933px;stroke-linecap:round;stroke-linejoin:round;stroke-miterlimit:4;stroke-dasharray:none;stroke-opacity:1;"
     d="  M 221.08098,92.088349   L 210.95951,97.488336  "
     id="path370" />
  <path
     style="fill:none;stroke:#000000;stroke-width:0.96013933px;stroke-linecap:round;stroke-linejoin:round;stroke-miterlimit:4;stroke-dasharray:none;stroke-opacity:1;"
     d="  M 221.56105,106.32831   L 210.47944,111.5683  "
     id="path371" />
  <path
     style="fill:none;stroke:#000000;stroke-width:0.96013933px;stroke-linecap:round;stroke-linejoin:round;stroke-miterlimit:4;stroke-dasharray:none;stroke-opacity:1;"
     d="  M 210.47944,111.5683   L 220.60091,116.96829  "
     id="path372" />
  <path
     style="fill:none;stroke:#000000;stroke-width:0.96013933px;stroke-linecap:round;stroke-linejoin:round;stroke-miterlimit:4;stroke-dasharray:none;stroke-opacity:1;"
     d="  M 210.47944,115.08829   L 220.60091,120.48828  "
     id="path373" />
  <path
     style="fill:none;stroke:#000000;stroke-width:0.96013933px;stroke-linecap:round;stroke-linejoin:round;stroke-miterlimit:4;stroke-dasharray:none;stroke-opacity:1;"
     d="  M 231.48249,114.84829   L 235.36305,114.84829   L 233.24274,118.88828   L 234.28289,118.88828   L 235.003,119.40828   L 235.36305,119.92828   L 235.7231,121.44828   L 235.7231,122.44828   L 235.36305,123.96827   L 234.64295,124.96827   L 233.6028,125.48827   L 232.52264,125.48827   L 231.48249,124.96827   L 231.12244,124.48827   L 230.76238,123.44827  "
     id="path374" />
  <path
     style="fill:none;stroke:#000000;stroke-width:0.96013933px;stroke-linecap:round;stroke-linejoin:round;stroke-miterlimit:4;stroke-dasharray:none;stroke-opacity:1;"
     d="  M 226.64178,112.7283   L 239.40364,112.7283  "
     id="path375" />
  <path
     style="fill:none;stroke:#000000;stroke-width:0.96013933px;stroke-linecap:round;stroke-linejoin:round;stroke-miterlimit:4;stroke-dasharray:none;stroke-opacity:1;"
     d="  M 231.12244,102.40832   L 231.12244,101.88833   L 231.48249,100.88833   L 231.80253,100.36833   L 232.52264,99.84833   L 233.96285,99.84833   L 234.64295,100.36833   L 235.003,100.88833   L 235.36305,101.88833   L 235.36305,102.88832   L 235.003,103.92832   L 234.28289,105.44832   L 230.76238,110.4883   L 235.7231,110.4883  "
     id="path376" />
  <path
     style="fill:none;stroke:#000000;stroke-width:0.96013933px;stroke-linecap:round;stroke-linejoin:round;stroke-miterlimit:4;stroke-dasharray:none;stroke-opacity:1;"
     d="  M 246.44466,106.36831   L 246.44466,117.00829  "
     id="path377" />
  <path
     style="fill:none;stroke:#000000;stroke-width:0.96013933px;stroke-linecap:round;stroke-linejoin:round;stroke-miterlimit:4;stroke-dasharray:none;stroke-opacity:1;"
     d="  M 246.44466,111.4483   L 245.72455,110.4483   L 245.00445,109.92831   L 243.9643,109.92831   L 243.24419,110.4483   L 242.52409,111.4483   L 242.16404,112.9683   L 242.16404,113.9683   L 242.52409,115.48829   L 243.24419,116.52829   L 243.9643,117.00829   L 245.00445,117.00829   L 245.72455,116.52829   L 246.44466,115.48829  "
     id="path378" />
  <path
     style="fill:none;stroke:#000000;stroke-width:0.96013933px;stroke-linecap:round;stroke-linejoin:round;stroke-miterlimit:4;stroke-dasharray:none;stroke-opacity:1;"
     d="  M 249.72514,112.0483   L 249.96517,112.4483   L 250.24521,112.0483   L 249.96517,111.6883   L 249.72514,112.0483   z "
     id="path379" />
  <path
     style="fill:none;stroke:#000000;stroke-width:0.96013933px;stroke-linecap:round;stroke-linejoin:round;stroke-miterlimit:4;stroke-dasharray:none;stroke-opacity:1;"
     d="  M 249.96517,114.3283   L 249.96517,119.64828  "
     id="path380" />
  <path
     style="fill:none;stroke:#000000;stroke-width:0.96013933px;stroke-linecap:round;stroke-linejoin:round;stroke-miterlimit:4;stroke-dasharray:none;stroke-opacity:1;"
     d="  M 235.96314,84.088369   L 232.40262,84.088369   L 232.04257,88.648358   L 232.40262,88.128359   L 233.48278,87.64836   L 234.56293,87.64836   L 235.60309,88.128359   L 236.32319,89.168356   L 236.68324,90.688353   L 236.68324,91.68835   L 236.32319,93.208347   L 235.60309,94.248344   L 234.56293,94.728343   L 233.48278,94.728343   L 232.40262,94.248344   L 232.04257,93.728345   L 231.72252,92.728348  "
     id="path381" />
  <path
     style="fill:none;stroke:#000000;stroke-width:0.96013933px;stroke-linecap:round;stroke-linejoin:round;stroke-miterlimit:4;stroke-dasharray:none;stroke-opacity:1;"
     d="  M 240.92386,84.088369   L 239.88371,84.608367   L 239.1636,86.128364   L 238.80355,88.648358   L 238.80355,90.168354   L 239.1636,92.728348   L 239.88371,94.248344   L 240.92386,94.728343   L 241.64396,94.728343   L 242.72412,94.248344   L 243.40422,92.728348   L 243.76427,90.168354   L 243.76427,88.648358   L 243.40422,86.128364   L 242.72412,84.608367   L 241.64396,84.088369   L 240.92386,84.088369   z "
     id="path382" />
  <path
     style="fill:none;stroke:#000000;stroke-width:0.96013933px;stroke-linecap:round;stroke-linejoin:round;stroke-miterlimit:4;stroke-dasharray:none;stroke-opacity:1;"
     d="  M 245.88458,94.728343   L 245.88458,87.64836  "
     id="path383" />
  <path
     style="fill:none;stroke:#000000;stroke-width:0.96013933px;stroke-linecap:round;stroke-linejoin:round;stroke-miterlimit:4;stroke-dasharray:none;stroke-opacity:1;"
     d="  M 245.88458,89.688355   L 246.96473,88.128359   L 247.68484,87.64836   L 248.72499,87.64836   L 249.44509,88.128359   L 249.80515,89.688355   L 249.80515,94.728343  "
     id="path384" />
  <path
     style="fill:none;stroke:#000000;stroke-width:0.96013933px;stroke-linecap:round;stroke-linejoin:round;stroke-miterlimit:4;stroke-dasharray:none;stroke-opacity:1;"
     d="  M 249.80515,89.688355   L 250.8453,88.128359   L 251.5654,87.64836   L 252.64556,87.64836   L 253.36566,88.128359   L 253.68571,89.688355   L 253.68571,94.728343  "
     id="path385" />
  <path
     style="fill:none;stroke:#000000;stroke-width:0.96013933px;stroke-linecap:round;stroke-linejoin:round;stroke-miterlimit:4;stroke-dasharray:none;stroke-opacity:1;"
     d="  M 256.52612,94.728343   L 256.52612,87.64836  "
     id="path386" />
  <path
     style="fill:none;stroke:#000000;stroke-width:0.96013933px;stroke-linecap:round;stroke-linejoin:round;stroke-miterlimit:4;stroke-dasharray:none;stroke-opacity:1;"
     d="  M 256.52612,89.688355   L 257.60628,88.128359   L 258.32638,87.64836   L 259.36653,87.64836   L 260.08664,88.128359   L 260.44669,89.688355   L 260.44669,94.728343  "
     id="path387" />
  <path
     style="fill:none;stroke:#000000;stroke-width:0.96013933px;stroke-linecap:round;stroke-linejoin:round;stroke-miterlimit:4;stroke-dasharray:none;stroke-opacity:1;"
     d="  M 260.44669,89.688355   L 261.48684,88.128359   L 262.20695,87.64836   L 263.2871,87.64836   L 264.00721,88.128359   L 264.32725,89.688355   L 264.32725,94.728343  "
     id="path388" />
  <path
     style="fill:none;stroke:#000000;stroke-width:0.96013933px;stroke-linecap:round;stroke-linejoin:round;stroke-miterlimit:4;stroke-dasharray:none;stroke-opacity:1;"
     d="  M 64.898309,112.5683   L 64.898309,101.40833  "
     id="path389" />
  <path
     style="fill:none;stroke:#000000;stroke-width:0.96013933px;stroke-linecap:round;stroke-linejoin:round;stroke-miterlimit:4;stroke-dasharray:none;stroke-opacity:1;"
     d="  M 108.34461,112.5683   L 108.34461,101.40833  "
     id="path390" />
  <path
     style="fill:none;stroke:#000000;stroke-width:0.96013933px;stroke-linecap:round;stroke-linejoin:round;stroke-miterlimit:4;stroke-dasharray:none;stroke-opacity:1;"
     d="  M 251.20535,-0.31142782   L 239.44364,10.488546  "
     id="path391" />
  <path
     style="fill:none;stroke:#000000;stroke-width:0.96013933px;stroke-linecap:round;stroke-linejoin:round;stroke-miterlimit:4;stroke-dasharray:none;stroke-opacity:1;"
     d="  M 245.60454,4.8085598   L 246.0046,3.0085642   L 245.84457,1.7285673   L 244.76442,0.52857015   L 243.48423,0.28857073   L 241.64396,0.52857015   L 239.60367,1.6885674   L 238.4835,2.6885649   L 237.16331,4.6485602   L 236.76325,6.4485559   L 236.92328,7.7685527   L 238.00343,8.9285499   L 239.28362,9.2085492   L 241.12389,8.9685498  "
     id="path392" />
  <path
     style="fill:none;stroke:#000000;stroke-width:0.96013933px;stroke-linecap:round;stroke-linejoin:round;stroke-miterlimit:4;stroke-dasharray:none;stroke-opacity:1;"
     d="  M 247.00474,8.6085507   L 246.88472,9.0485496   L 247.36479,9.0085497   L 247.4448,8.5285508   L 247.00474,8.6085507   z "
     id="path393" />
  <path
     style="fill:none;stroke:#000000;stroke-width:0.96013933px;stroke-linecap:round;stroke-linejoin:round;stroke-miterlimit:4;stroke-dasharray:none;stroke-opacity:1;"
     d="  M 245.48452,10.328547   L 241.60396,13.968538  "
     id="path394" />
  <path
     style="fill:none;stroke:#000000;stroke-width:0.96013933px;stroke-linecap:round;stroke-linejoin:round;stroke-miterlimit:4;stroke-dasharray:none;stroke-opacity:1;"
     d="  M 108.34461,122.44828   L 108.34461,119.64828  "
     id="path395" />
  <path
     style="fill:none;stroke:#000000;stroke-width:0.96013933px;stroke-linecap:round;stroke-linejoin:round;stroke-miterlimit:4;stroke-dasharray:none;stroke-opacity:1;"
     d="  M 64.898309,122.44828   L 64.898309,119.64828  "
     id="path396" />
  <path
     style="fill:none;stroke:#000000;stroke-width:0.96013933px;stroke-linecap:round;stroke-linejoin:round;stroke-miterlimit:4;stroke-dasharray:none;stroke-opacity:1;"
     d="  M 114.94557,113.0483   L 58.337356,113.0483  "
     id="path397" />
  <path
     style="fill:#000000;fill-rule:evenodd;fill-opacity:1;stroke:none;"
     d="  M 102.54377,116.56829   L 104.86411,118.88828   L 111.86513,107.20831   z "
     id="path398" />
  <path
     style="fill:#000000;fill-rule:evenodd;fill-opacity:1;stroke:none;"
     d="  M 104.86411,118.88828   L 111.86513,107.20831   L 114.18546,109.56831   z "
     id="path399" />
  <path
     style="fill:#000000;fill-rule:evenodd;fill-opacity:1;stroke:none;"
     d="  M 70.739156,109.56831   L 68.41882,107.20831   L 61.417803,118.88828   z "
     id="path400" />
  <path
     style="fill:#000000;fill-rule:evenodd;fill-opacity:1;stroke:none;"
     d="  M 68.41882,107.20831   L 61.417803,118.88828   L 59.097467,116.56829   z "
     id="path401" />
  <path
     style="fill:none;stroke:#000000;stroke-width:0.96013933px;stroke-linecap:round;stroke-linejoin:round;stroke-miterlimit:4;stroke-dasharray:none;stroke-opacity:1;"
     d="  M 153.15112,110.8483   L 153.15112,98.368334  "
     id="path402" />
  <path
     style="fill:none;stroke:#000000;stroke-width:0.96013933px;stroke-linecap:round;stroke-linejoin:round;stroke-miterlimit:4;stroke-dasharray:none;stroke-opacity:1;"
     d="  M 196.59742,110.8483   L 196.59742,98.368334  "
     id="path403" />
  <path
     style="fill:none;stroke:#000000;stroke-width:0.96013933px;stroke-linecap:round;stroke-linejoin:round;stroke-miterlimit:4;stroke-dasharray:none;stroke-opacity:1;"
     d="  M 146.55016,104.96832   L 203.19838,104.96832  "
     id="path404" />
  <path
     style="fill:#000000;fill-rule:evenodd;fill-opacity:1;stroke:none;"
     d="  M 158.95196,101.44833   L 156.63162,99.128332   L 149.63061,110.8083   z "
     id="path405" />
  <path
     style="fill:#000000;fill-rule:evenodd;fill-opacity:1;stroke:none;"
     d="  M 156.63162,99.128332   L 149.63061,110.8083   L 147.31027,108.44831   z "
     id="path406" />
  <path
     style="fill:#000000;fill-rule:evenodd;fill-opacity:1;stroke:none;"
     d="  M 190.79658,108.44831   L 193.11692,110.8083   L 200.11794,99.128332   z "
     id="path407" />
  <path
     style="fill:#000000;fill-rule:evenodd;fill-opacity:1;stroke:none;"
     d="  M 193.11692,110.8083   L 200.11794,99.128332   L 202.43827,101.44833   z "
     id="path408" />
</svg>
