<?xml version="1.0" encoding="UTF-8" standalone="no"?>
<svg
   version="1.0"
   width="133.3mm"
   height="60.599998mm"
   id="svg25"
   sodipodi:docname="image1130.emf"
   xmlns:inkscape="http://www.inkscape.org/namespaces/inkscape"
   xmlns:sodipodi="http://sodipodi.sourceforge.net/DTD/sodipodi-0.dtd"
   xmlns="http://www.w3.org/2000/svg"
   xmlns:svg="http://www.w3.org/2000/svg">
  <sodipodi:namedview
     id="namedview25"
     pagecolor="#ffffff"
     bordercolor="#000000"
     borderopacity="0.25"
     inkscape:showpageshadow="2"
     inkscape:pageopacity="0.0"
     inkscape:pagecheckerboard="0"
     inkscape:deskcolor="#d1d1d1"
     inkscape:document-units="mm" />
  <defs
     id="defs1">
    <pattern
       id="EMFhbasepattern"
       patternUnits="userSpaceOnUse"
       width="6"
       height="6"
       x="0"
       y="0" />
  </defs>
  <path
     style="fill:none;stroke:#000000;stroke-width:0.035702683px;stroke-linecap:round;stroke-linejoin:round;stroke-miterlimit:4;stroke-dasharray:none;stroke-opacity:1;"
     d="  M 328.66477,189.45206   L 266.82772,153.79058  "
     id="path1" />
  <path
     style="fill:none;stroke:#000000;stroke-width:0.035702683px;stroke-linecap:round;stroke-linejoin:round;stroke-miterlimit:4;stroke-dasharray:none;stroke-opacity:1;"
     d="  M 328.66477,172.51286   L 150.54408,69.736469  "
     id="path2" />
  <path
     style="fill:none;stroke:#000000;stroke-width:0.035702683px;stroke-linecap:round;stroke-linejoin:round;stroke-miterlimit:4;stroke-dasharray:none;stroke-opacity:1;"
     d="  M 498.32392,172.51286   L 320.20323,69.736469  "
     id="path3" />
  <path
     style="fill:none;stroke:#000000;stroke-width:0.035702683px;stroke-linecap:round;stroke-linejoin:round;stroke-miterlimit:4;stroke-dasharray:none;stroke-opacity:1;"
     d="  M 498.32392,172.51286   L 328.66477,172.51286  "
     id="path4" />
  <path
     style="fill:none;stroke:#000000;stroke-width:0.035702683px;stroke-linecap:round;stroke-linejoin:round;stroke-miterlimit:4;stroke-dasharray:none;stroke-opacity:1;"
     d="  M 498.32392,189.45206   L 498.32392,172.51286  "
     id="path5" />
  <path
     style="fill:none;stroke:#000000;stroke-width:0.035702683px;stroke-linecap:round;stroke-linejoin:round;stroke-miterlimit:4;stroke-dasharray:none;stroke-opacity:1;"
     d="  M 328.66477,189.45206   L 498.32392,189.45206  "
     id="path6" />
  <path
     style="fill:none;stroke:#000000;stroke-width:0.035702683px;stroke-linecap:round;stroke-linejoin:round;stroke-miterlimit:4;stroke-dasharray:none;stroke-opacity:1;"
     d="  M 328.66477,172.51286   L 328.66477,189.45206  "
     id="path7" />
  <path
     style="fill:none;stroke:#000000;stroke-width:0.035702683px;stroke-linecap:round;stroke-linejoin:round;stroke-miterlimit:4;stroke-dasharray:none;stroke-opacity:1;"
     d="  M 150.54408,69.736469   L 320.20323,69.736469  "
     id="path8" />
  <path
     style="fill:none;stroke:#000000;stroke-width:0.035702683px;stroke-linecap:round;stroke-linejoin:round;stroke-miterlimit:4;stroke-dasharray:none;stroke-opacity:1;"
     d="  M 266.82772,153.79058   L 266.82772,170.72978  "
     id="path9" />
  <path
     style="fill:none;stroke:#000000;stroke-width:0.035702683px;stroke-linecap:round;stroke-linejoin:round;stroke-miterlimit:4;stroke-dasharray:none;stroke-opacity:1;"
     d="  M 266.82772,170.72978   L 296.21103,170.72978  "
     id="path10" />
  <path
     style="fill:none;stroke:#000000;stroke-width:0.035702683px;stroke-linecap:round;stroke-linejoin:round;stroke-miterlimit:4;stroke-dasharray:none;stroke-opacity:1;"
     d="  M 266.82772,153.79058   L -0.37116054,-0.37400347  "
     id="path11" />
  <path
     style="fill:none;stroke:#000000;stroke-width:0.035702683px;stroke-linecap:round;stroke-linejoin:round;stroke-miterlimit:4;stroke-dasharray:none;stroke-opacity:1;"
     d="  M 328.66477,223.36613   L 498.32392,223.36613  "
     id="path12" />
  <path
     style="fill:none;stroke:#000000;stroke-width:0.035702683px;stroke-linecap:round;stroke-linejoin:round;stroke-miterlimit:4;stroke-dasharray:none;stroke-opacity:1;"
     d="  M 498.32392,223.36613   L 498.32392,206.42693  "
     id="path13" />
  <path
     style="fill:none;stroke:#000000;stroke-width:0.035702683px;stroke-linecap:round;stroke-linejoin:round;stroke-miterlimit:4;stroke-dasharray:none;stroke-opacity:1;"
     d="  M 498.32392,206.42693   L 328.66477,206.42693  "
     id="path14" />
  <path
     style="fill:none;stroke:#000000;stroke-width:0.035702683px;stroke-linecap:round;stroke-linejoin:round;stroke-miterlimit:4;stroke-dasharray:none;stroke-opacity:1;"
     d="  M 498.32392,206.42693   L 468.94061,189.45206  "
     id="path15" />
  <path
     style="fill:none;stroke:#000000;stroke-width:0.035702683px;stroke-linecap:round;stroke-linejoin:round;stroke-miterlimit:4;stroke-dasharray:none;stroke-opacity:1;"
     d="  M 328.66477,206.42693   L 266.82772,170.72978  "
     id="path16" />
  <path
     style="fill:none;stroke:#000000;stroke-width:0.035702683px;stroke-linecap:round;stroke-linejoin:round;stroke-miterlimit:4;stroke-dasharray:none;stroke-opacity:1;"
     d="  M 328.66477,223.36613   L 150.54408,120.58974  "
     id="path17" />
  <path
     style="fill:none;stroke:#000000;stroke-width:0.035702683px;stroke-linecap:round;stroke-linejoin:round;stroke-miterlimit:4;stroke-dasharray:none;stroke-opacity:1;"
     d="  M 150.54408,69.736469   L 150.54408,86.675672  "
     id="path18" />
  <path
     style="fill:none;stroke:#000000;stroke-width:0.035702683px;stroke-linecap:round;stroke-linejoin:round;stroke-miterlimit:4;stroke-dasharray:none;stroke-opacity:1;"
     d="  M 266.82772,170.72978   L -0.37116054,16.5652  "
     id="path19" />
  <path
     style="fill:none;stroke:#000000;stroke-width:0.035702683px;stroke-linecap:round;stroke-linejoin:round;stroke-miterlimit:4;stroke-dasharray:none;stroke-opacity:1;"
     d="  M 290.81992,69.736469   L 169.32369,-0.37400347  "
     id="path20" />
  <path
     style="fill:none;stroke:#000000;stroke-width:0.035702683px;stroke-linecap:round;stroke-linejoin:round;stroke-miterlimit:4;stroke-dasharray:none;stroke-opacity:1;"
     d="  M 150.54408,120.58974   L 150.54408,103.65054  "
     id="path21" />
  <path
     style="fill:none;stroke:#000000;stroke-width:0.035702683px;stroke-linecap:round;stroke-linejoin:round;stroke-miterlimit:4;stroke-dasharray:none;stroke-opacity:1;"
     d="  M 242.29998,92.559816   L 242.19287,91.775264   L 241.83584,91.026373   L 241.19319,90.313143   L 240.37203,89.671237   L 239.33665,89.136314   L 238.12276,88.708377   L 236.80176,88.423085   L 235.44506,88.244777   L 234.05266,88.244777   L 232.69595,88.387423   L 231.41066,88.672715   L 230.26817,89.100653   L 229.2685,89.635575   L 228.51874,90.277482   L 227.9475,90.95505   L 227.66188,91.739602   L 227.66188,92.488494   L 227.87609,93.273046   L 228.37593,94.021937   L 229.12569,94.699505   L 230.05396,95.270089   L 231.19644,95.76935   L 232.44604,96.125965   L 233.80274,96.339933   L 235.19514,96.446918   L 236.58755,96.375595   L 237.90855,96.161626   L 239.12244,95.805011   L 240.19352,95.305751   L 241.08608,94.735167   L 241.72873,94.057599   L 242.15717,93.344369   L 242.29998,92.559816   z "
     id="path22" />
  <path
     style="fill:none;stroke:#000000;stroke-width:0.035702683px;stroke-linecap:round;stroke-linejoin:round;stroke-miterlimit:4;stroke-dasharray:none;stroke-opacity:1;"
     d="  M 291.28406,120.80371   L 291.17695,120.05482   L 290.81992,119.27027   L 290.17727,118.55704   L 289.35611,117.95079   L 288.32073,117.38021   L 287.10684,116.95227   L 285.78584,116.66698   L 284.42914,116.52433   L 283.03674,116.52433   L 281.68004,116.66698   L 280.39474,116.95227   L 279.25225,117.34455   L 278.25258,117.87947   L 277.46712,118.52137   L 276.93158,119.2346   L 276.64596,119.9835   L 276.64596,120.76805   L 276.86017,121.51694   L 277.36001,122.26583   L 278.10977,122.9434   L 279.03804,123.54964   L 280.18052,124.01324   L 281.43012,124.36986   L 282.78682,124.61949   L 284.17922,124.69081   L 285.53593,124.61949   L 286.89263,124.40552   L 288.10652,124.0489   L 289.1776,123.58531   L 290.03446,122.97906   L 290.71281,122.33715   L 291.14125,121.58826   L 291.28406,120.80371   z "
     id="path23" />
  <path
     style="fill:none;stroke:#000000;stroke-width:0.035702683px;stroke-linecap:round;stroke-linejoin:round;stroke-miterlimit:4;stroke-dasharray:none;stroke-opacity:1;"
     d="  M 321.48853,92.559816   L 321.38142,91.775264   L 320.98869,91.026373   L 320.38174,90.313143   L 319.52488,89.671237   L 318.4895,89.136314   L 317.31131,88.708377   L 315.99031,88.423085   L 314.63361,88.244777   L 313.24121,88.244777   L 311.8488,88.387423   L 310.59921,88.672715   L 309.42102,89.100653   L 308.45705,89.635575   L 307.67159,90.277482   L 307.13605,90.95505   L 306.85043,91.739602   L 306.81472,92.488494   L 307.06464,93.273046   L 307.56448,94.021937   L 308.31424,94.699505   L 309.24251,95.270089   L 310.38499,95.76935   L 311.63459,96.125965   L 312.99129,96.339933   L 314.38369,96.446918   L 315.7404,96.375595   L 317.0971,96.161626   L 318.31099,95.805011   L 319.38207,95.305751   L 320.23893,94.735167   L 320.91728,94.057599   L 321.31001,93.344369   L 321.48853,92.559816   z "
     id="path24" />
  <path
     style="fill:none;stroke:#000000;stroke-width:0.035702683px;stroke-linecap:round;stroke-linejoin:round;stroke-miterlimit:4;stroke-dasharray:none;stroke-opacity:1;"
     d="  M 370.47261,120.80371   L 370.3655,120.05482   L 369.97277,119.27027   L 369.36583,118.55704   L 368.50896,117.95079   L 367.47358,117.38021   L 366.29539,116.95227   L 364.9744,116.66698   L 363.61769,116.52433   L 362.18959,116.52433   L 360.83288,116.66698   L 359.58329,116.95227   L 358.4051,117.34455   L 357.44113,117.87947   L 356.65567,118.52137   L 356.12013,119.2346   L 355.83451,119.9835   L 355.79881,120.76805   L 356.04872,121.51694   L 356.54856,122.26583   L 357.29832,122.9434   L 358.22659,123.54964   L 359.33337,124.01324   L 360.61867,124.36986   L 361.93967,124.61949   L 363.33207,124.69081   L 364.72448,124.61949   L 366.04548,124.40552   L 367.29507,124.0489   L 368.36615,123.58531   L 369.22301,122.97906   L 369.90137,122.33715   L 370.29409,121.58826   L 370.47261,120.80371   z "
     id="path25" />
</svg>
