<?xml version="1.0" encoding="UTF-8" standalone="no"?>
<svg
   version="1.0"
   width="177.27mm"
   height="77.879997mm"
   id="svg377"
   sodipodi:docname="image411.emf"
   xmlns:inkscape="http://www.inkscape.org/namespaces/inkscape"
   xmlns:sodipodi="http://sodipodi.sourceforge.net/DTD/sodipodi-0.dtd"
   xmlns="http://www.w3.org/2000/svg"
   xmlns:svg="http://www.w3.org/2000/svg">
  <sodipodi:namedview
     id="namedview377"
     pagecolor="#ffffff"
     bordercolor="#000000"
     borderopacity="0.25"
     inkscape:showpageshadow="2"
     inkscape:pageopacity="0.0"
     inkscape:pagecheckerboard="0"
     inkscape:deskcolor="#d1d1d1"
     inkscape:document-units="mm" />
  <defs
     id="defs1">
    <pattern
       id="EMFhbasepattern"
       patternUnits="userSpaceOnUse"
       width="6"
       height="6"
       x="0"
       y="0" />
  </defs>
  <path
     style="fill:#000000;fill-rule:evenodd;fill-opacity:1;stroke:none;"
     d="  M 435.40307,167.89962   L 435.40307,165.69644   L 313.01232,167.89962   z "
     id="path1" />
  <path
     style="fill:#000000;fill-rule:evenodd;fill-opacity:1;stroke:none;"
     d="  M 435.40307,165.69644   L 313.01232,167.89962   L 313.01232,165.69644   z "
     id="path2" />
  <path
     style="fill:#000000;fill-rule:evenodd;fill-opacity:1;stroke:none;"
     d="  M 263.27983,167.89962   L 263.27983,165.69644   L 86.435393,167.89962   z "
     id="path3" />
  <path
     style="fill:#000000;fill-rule:evenodd;fill-opacity:1;stroke:none;"
     d="  M 263.27983,165.69644   L 86.435393,167.89962   L 86.435393,165.69644   z "
     id="path4" />
  <path
     style="fill:#000000;fill-rule:evenodd;fill-opacity:1;stroke:none;"
     d="  M 430.16176,174.70944   L 430.16176,173.58782   L 412.99744,174.70944   z "
     id="path5" />
  <path
     style="fill:#000000;fill-rule:evenodd;fill-opacity:1;stroke:none;"
     d="  M 430.16176,173.58782   L 412.99744,174.70944   L 412.99744,173.58782   z "
     id="path6" />
  <path
     style="fill:#000000;fill-rule:evenodd;fill-opacity:1;stroke:none;"
     d="  M 405.6756,174.70944   L 405.6756,173.58782   L 387.39101,174.70944   z "
     id="path7" />
  <path
     style="fill:#000000;fill-rule:evenodd;fill-opacity:1;stroke:none;"
     d="  M 405.6756,173.58782   L 387.39101,174.70944   L 387.39101,173.58782   z "
     id="path8" />
  <path
     style="fill:#000000;fill-rule:evenodd;fill-opacity:1;stroke:none;"
     d="  M 380.06917,174.70944   L 380.06917,173.58782   L 361.78458,174.70944   z "
     id="path9" />
  <path
     style="fill:#000000;fill-rule:evenodd;fill-opacity:1;stroke:none;"
     d="  M 380.06917,173.58782   L 361.78458,174.70944   L 361.78458,173.58782   z "
     id="path10" />
  <path
     style="fill:#000000;fill-rule:evenodd;fill-opacity:1;stroke:none;"
     d="  M 354.46274,174.70944   L 354.46274,173.58782   L 336.17814,174.70944   z "
     id="path11" />
  <path
     style="fill:#000000;fill-rule:evenodd;fill-opacity:1;stroke:none;"
     d="  M 354.46274,173.58782   L 336.17814,174.70944   L 336.17814,173.58782   z "
     id="path12" />
  <path
     style="fill:#000000;fill-rule:evenodd;fill-opacity:1;stroke:none;"
     d="  M 328.8563,174.70944   L 328.8563,173.58782   L 310.57171,174.70944   z "
     id="path13" />
  <path
     style="fill:#000000;fill-rule:evenodd;fill-opacity:1;stroke:none;"
     d="  M 328.8563,173.58782   L 310.57171,174.70944   L 310.57171,173.58782   z "
     id="path14" />
  <path
     style="fill:#000000;fill-rule:evenodd;fill-opacity:1;stroke:none;"
     d="  M 303.24987,174.70944   L 303.24987,173.58782   L 284.96527,174.70944   z "
     id="path15" />
  <path
     style="fill:#000000;fill-rule:evenodd;fill-opacity:1;stroke:none;"
     d="  M 303.24987,173.58782   L 284.96527,174.70944   L 284.96527,173.58782   z "
     id="path16" />
  <path
     style="fill:#000000;fill-rule:evenodd;fill-opacity:1;stroke:none;"
     d="  M 277.64343,174.70944   L 277.64343,173.58782   L 259.35884,174.70944   z "
     id="path17" />
  <path
     style="fill:#000000;fill-rule:evenodd;fill-opacity:1;stroke:none;"
     d="  M 277.64343,173.58782   L 259.35884,174.70944   L 259.35884,173.58782   z "
     id="path18" />
  <path
     style="fill:#000000;fill-rule:evenodd;fill-opacity:1;stroke:none;"
     d="  M 252.037,174.70944   L 252.037,173.58782   L 233.75241,174.70944   z "
     id="path19" />
  <path
     style="fill:#000000;fill-rule:evenodd;fill-opacity:1;stroke:none;"
     d="  M 252.037,173.58782   L 233.75241,174.70944   L 233.75241,173.58782   z "
     id="path20" />
  <path
     style="fill:#000000;fill-rule:evenodd;fill-opacity:1;stroke:none;"
     d="  M 226.43057,174.70944   L 226.43057,173.58782   L 208.14597,174.70944   z "
     id="path21" />
  <path
     style="fill:#000000;fill-rule:evenodd;fill-opacity:1;stroke:none;"
     d="  M 226.43057,173.58782   L 208.14597,174.70944   L 208.14597,173.58782   z "
     id="path22" />
  <path
     style="fill:#000000;fill-rule:evenodd;fill-opacity:1;stroke:none;"
     d="  M 200.82413,174.70944   L 200.82413,173.58782   L 182.53954,174.70944   z "
     id="path23" />
  <path
     style="fill:#000000;fill-rule:evenodd;fill-opacity:1;stroke:none;"
     d="  M 200.82413,173.58782   L 182.53954,174.70944   L 182.53954,173.58782   z "
     id="path24" />
  <path
     style="fill:#000000;fill-rule:evenodd;fill-opacity:1;stroke:none;"
     d="  M 175.2177,174.70944   L 175.2177,173.58782   L 156.93311,174.70944   z "
     id="path25" />
  <path
     style="fill:#000000;fill-rule:evenodd;fill-opacity:1;stroke:none;"
     d="  M 175.2177,173.58782   L 156.93311,174.70944   L 156.93311,173.58782   z "
     id="path26" />
  <path
     style="fill:#000000;fill-rule:evenodd;fill-opacity:1;stroke:none;"
     d="  M 149.61127,174.70944   L 149.61127,173.58782   L 131.32667,174.70944   z "
     id="path27" />
  <path
     style="fill:#000000;fill-rule:evenodd;fill-opacity:1;stroke:none;"
     d="  M 149.61127,173.58782   L 131.32667,174.70944   L 131.32667,173.58782   z "
     id="path28" />
  <path
     style="fill:#000000;fill-rule:evenodd;fill-opacity:1;stroke:none;"
     d="  M 124.00483,174.70944   L 124.00483,173.58782   L 105.72024,174.70944   z "
     id="path29" />
  <path
     style="fill:#000000;fill-rule:evenodd;fill-opacity:1;stroke:none;"
     d="  M 124.00483,173.58782   L 105.72024,174.70944   L 105.72024,173.58782   z "
     id="path30" />
  <path
     style="fill:#000000;fill-rule:evenodd;fill-opacity:1;stroke:none;"
     d="  M 98.398399,174.70944   L 98.398399,173.58782   L 81.234086,174.70944   z "
     id="path31" />
  <path
     style="fill:#000000;fill-rule:evenodd;fill-opacity:1;stroke:none;"
     d="  M 98.398399,173.58782   L 81.234086,174.70944   L 81.234086,173.58782   z "
     id="path32" />
  <path
     style="fill:#000000;fill-rule:evenodd;fill-opacity:1;stroke:none;"
     d="  M 81.234086,174.70944   L 81.234086,173.58782   L 81.234086,173.58782   z "
     id="path33" />
  <path
     style="fill:#000000;fill-rule:evenodd;fill-opacity:1;stroke:none;"
     d="  M 435.40307,255.90652   L 435.40307,253.70334   L 86.435393,255.90652   z "
     id="path34" />
  <path
     style="fill:#000000;fill-rule:evenodd;fill-opacity:1;stroke:none;"
     d="  M 435.40307,253.70334   L 86.435393,255.90652   L 86.435393,253.70334   z "
     id="path35" />
  <path
     style="fill:#000000;fill-rule:evenodd;fill-opacity:1;stroke:none;"
     d="  M 435.40307,248.01514   L 435.40307,246.89352   L 420.7994,248.01514   z "
     id="path36" />
  <path
     style="fill:#000000;fill-rule:evenodd;fill-opacity:1;stroke:none;"
     d="  M 435.40307,246.89352   L 420.7994,248.01514   L 420.7994,246.89352   z "
     id="path37" />
  <path
     style="fill:#000000;fill-rule:evenodd;fill-opacity:1;stroke:none;"
     d="  M 413.51757,248.01514   L 413.51757,246.89352   L 395.19297,248.01514   z "
     id="path38" />
  <path
     style="fill:#000000;fill-rule:evenodd;fill-opacity:1;stroke:none;"
     d="  M 413.51757,246.89352   L 395.19297,248.01514   L 395.19297,246.89352   z "
     id="path39" />
  <path
     style="fill:#000000;fill-rule:evenodd;fill-opacity:1;stroke:none;"
     d="  M 387.91114,248.01514   L 387.91114,246.89352   L 369.62655,248.01514   z "
     id="path40" />
  <path
     style="fill:#000000;fill-rule:evenodd;fill-opacity:1;stroke:none;"
     d="  M 387.91114,246.89352   L 369.62655,248.01514   L 369.62655,246.89352   z "
     id="path41" />
  <path
     style="fill:#000000;fill-rule:evenodd;fill-opacity:1;stroke:none;"
     d="  M 362.30471,248.01514   L 362.30471,246.89352   L 344.02011,248.01514   z "
     id="path42" />
  <path
     style="fill:#000000;fill-rule:evenodd;fill-opacity:1;stroke:none;"
     d="  M 362.30471,246.89352   L 344.02011,248.01514   L 344.02011,246.89352   z "
     id="path43" />
  <path
     style="fill:#000000;fill-rule:evenodd;fill-opacity:1;stroke:none;"
     d="  M 336.69827,248.01514   L 336.69827,246.89352   L 318.41368,248.01514   z "
     id="path44" />
  <path
     style="fill:#000000;fill-rule:evenodd;fill-opacity:1;stroke:none;"
     d="  M 336.69827,246.89352   L 318.41368,248.01514   L 318.41368,246.89352   z "
     id="path45" />
  <path
     style="fill:#000000;fill-rule:evenodd;fill-opacity:1;stroke:none;"
     d="  M 311.09184,248.01514   L 311.09184,246.89352   L 292.80724,248.01514   z "
     id="path46" />
  <path
     style="fill:#000000;fill-rule:evenodd;fill-opacity:1;stroke:none;"
     d="  M 311.09184,246.89352   L 292.80724,248.01514   L 292.80724,246.89352   z "
     id="path47" />
  <path
     style="fill:#000000;fill-rule:evenodd;fill-opacity:1;stroke:none;"
     d="  M 285.48541,248.01514   L 285.48541,246.89352   L 267.20081,248.01514   z "
     id="path48" />
  <path
     style="fill:#000000;fill-rule:evenodd;fill-opacity:1;stroke:none;"
     d="  M 285.48541,246.89352   L 267.20081,248.01514   L 267.20081,246.89352   z "
     id="path49" />
  <path
     style="fill:#000000;fill-rule:evenodd;fill-opacity:1;stroke:none;"
     d="  M 259.87897,248.01514   L 259.87897,246.89352   L 241.59438,248.01514   z "
     id="path50" />
  <path
     style="fill:#000000;fill-rule:evenodd;fill-opacity:1;stroke:none;"
     d="  M 259.87897,246.89352   L 241.59438,248.01514   L 241.59438,246.89352   z "
     id="path51" />
  <path
     style="fill:#000000;fill-rule:evenodd;fill-opacity:1;stroke:none;"
     d="  M 234.27254,248.01514   L 234.27254,246.89352   L 215.98794,248.01514   z "
     id="path52" />
  <path
     style="fill:#000000;fill-rule:evenodd;fill-opacity:1;stroke:none;"
     d="  M 234.27254,246.89352   L 215.98794,248.01514   L 215.98794,246.89352   z "
     id="path53" />
  <path
     style="fill:#000000;fill-rule:evenodd;fill-opacity:1;stroke:none;"
     d="  M 208.6661,248.01514   L 208.6661,246.89352   L 190.38151,248.01514   z "
     id="path54" />
  <path
     style="fill:#000000;fill-rule:evenodd;fill-opacity:1;stroke:none;"
     d="  M 208.6661,246.89352   L 190.38151,248.01514   L 190.38151,246.89352   z "
     id="path55" />
  <path
     style="fill:#000000;fill-rule:evenodd;fill-opacity:1;stroke:none;"
     d="  M 183.05967,248.01514   L 183.05967,246.89352   L 164.77508,248.01514   z "
     id="path56" />
  <path
     style="fill:#000000;fill-rule:evenodd;fill-opacity:1;stroke:none;"
     d="  M 183.05967,246.89352   L 164.77508,248.01514   L 164.77508,246.89352   z "
     id="path57" />
  <path
     style="fill:#000000;fill-rule:evenodd;fill-opacity:1;stroke:none;"
     d="  M 157.45324,248.01514   L 157.45324,246.89352   L 139.16864,248.01514   z "
     id="path58" />
  <path
     style="fill:#000000;fill-rule:evenodd;fill-opacity:1;stroke:none;"
     d="  M 157.45324,246.89352   L 139.16864,248.01514   L 139.16864,246.89352   z "
     id="path59" />
  <path
     style="fill:#000000;fill-rule:evenodd;fill-opacity:1;stroke:none;"
     d="  M 131.8468,248.01514   L 131.8468,246.89352   L 113.56221,248.01514   z "
     id="path60" />
  <path
     style="fill:#000000;fill-rule:evenodd;fill-opacity:1;stroke:none;"
     d="  M 131.8468,246.89352   L 113.56221,248.01514   L 113.56221,246.89352   z "
     id="path61" />
  <path
     style="fill:#000000;fill-rule:evenodd;fill-opacity:1;stroke:none;"
     d="  M 106.24037,248.01514   L 106.24037,246.89352   L 91.67671,248.01514   z "
     id="path62" />
  <path
     style="fill:#000000;fill-rule:evenodd;fill-opacity:1;stroke:none;"
     d="  M 106.24037,246.89352   L 91.67671,248.01514   L 91.67671,246.89352   z "
     id="path63" />
  <path
     style="fill:#000000;fill-rule:evenodd;fill-opacity:1;stroke:none;"
     d="  M 91.67671,248.01514   L 91.67671,246.89352   L 91.67671,246.89352   z "
     id="path64" />
  <path
     style="fill:none;stroke:#000000;stroke-width:0.96024126px;stroke-linecap:round;stroke-linejoin:round;stroke-miterlimit:4;stroke-dasharray:none;stroke-opacity:1;"
     d="  M 247.67591,210.80148   L 293.16734,161.29009  "
     id="path65" />
  <path
     style="fill:none;stroke:#000000;stroke-width:0.96024126px;stroke-linecap:round;stroke-linejoin:round;stroke-miterlimit:4;stroke-dasharray:none;stroke-opacity:1;"
     d="  M 305.53044,147.83068   L 317.93356,134.33122  "
     id="path66" />
  <path
     style="fill:none;stroke:#000000;stroke-width:0.96024126px;stroke-linecap:round;stroke-linejoin:round;stroke-miterlimit:4;stroke-dasharray:none;stroke-opacity:1;"
     d="  M 330.33667,120.83175   L 375.78809,71.360415  "
     id="path67" />
  <path
     style="fill:#000000;fill-rule:evenodd;fill-opacity:1;stroke:none;"
     d="  M 262.47962,166.05696   L 264.08003,167.57916   L 361.58453,58.181412   z "
     id="path68" />
  <path
     style="fill:#000000;fill-rule:evenodd;fill-opacity:1;stroke:none;"
     d="  M 264.08003,167.57916   L 361.58453,58.181412   L 363.22494,59.663549   z "
     id="path69" />
  <path
     style="fill:#000000;fill-rule:evenodd;fill-opacity:1;stroke:none;"
     d="  M 267.84097,169.70222   L 268.64117,170.46332   L 279.884,156.56327   z "
     id="path70" />
  <path
     style="fill:#000000;fill-rule:evenodd;fill-opacity:1;stroke:none;"
     d="  M 268.64117,170.46332   L 279.884,156.56327   L 280.72421,157.32437   z "
     id="path71" />
  <path
     style="fill:#000000;fill-rule:evenodd;fill-opacity:1;stroke:none;"
     d="  M 284.84524,151.19553   L 285.64545,151.91657   L 297.24836,137.69607   z "
     id="path72" />
  <path
     style="fill:#000000;fill-rule:evenodd;fill-opacity:1;stroke:none;"
     d="  M 285.64545,151.91657   L 297.24836,137.69607   L 298.04856,138.45716   z "
     id="path73" />
  <path
     style="fill:#000000;fill-rule:evenodd;fill-opacity:1;stroke:none;"
     d="  M 302.20961,132.28827   L 303.00981,133.04937   L 314.57271,118.82886   z "
     id="path74" />
  <path
     style="fill:#000000;fill-rule:evenodd;fill-opacity:1;stroke:none;"
     d="  M 303.00981,133.04937   L 314.57271,118.82886   L 315.41292,119.5499   z "
     id="path75" />
  <path
     style="fill:#000000;fill-rule:evenodd;fill-opacity:1;stroke:none;"
     d="  M 319.53396,113.42106   L 320.33416,114.18216   L 331.93708,99.961656   z "
     id="path76" />
  <path
     style="fill:#000000;fill-rule:evenodd;fill-opacity:1;stroke:none;"
     d="  M 320.33416,114.18216   L 331.93708,99.961656   L 332.73728,100.6827   z "
     id="path77" />
  <path
     style="fill:#000000;fill-rule:evenodd;fill-opacity:1;stroke:none;"
     d="  M 336.89832,94.553859   L 337.69852,95.274898   L 349.26143,81.054393   z "
     id="path78" />
  <path
     style="fill:#000000;fill-rule:evenodd;fill-opacity:1;stroke:none;"
     d="  M 337.69852,95.274898   L 349.26143,81.054393   L 350.06163,81.815491   z "
     id="path79" />
  <path
     style="fill:#000000;fill-rule:evenodd;fill-opacity:1;stroke:none;"
     d="  M 354.22268,75.686653   L 355.02288,76.407693   L 366.30571,62.547708   z "
     id="path80" />
  <path
     style="fill:#000000;fill-rule:evenodd;fill-opacity:1;stroke:none;"
     d="  M 355.02288,76.407693   L 366.30571,62.547708   L 367.10591,63.268748   z "
     id="path81" />
  <path
     style="fill:#000000;fill-rule:evenodd;fill-opacity:1;stroke:none;"
     d="  M 366.30571,62.547708   L 367.10591,63.268748   L 367.10591,63.268748   z "
     id="path82" />
  <path
     style="fill:#000000;fill-rule:evenodd;fill-opacity:1;stroke:none;"
     d="  M 312.21212,166.05696   L 313.81252,167.57916   L 388.51129,83.017224   z "
     id="path83" />
  <path
     style="fill:#000000;fill-rule:evenodd;fill-opacity:1;stroke:none;"
     d="  M 313.81252,167.57916   L 388.51129,83.017224   L 390.11169,84.499361   z "
     id="path84" />
  <path
     style="fill:#000000;fill-rule:evenodd;fill-opacity:1;stroke:none;"
     d="  M 298.08857,173.58782   L 298.88877,174.30886   L 312.85228,157.52466   z "
     id="path85" />
  <path
     style="fill:#000000;fill-rule:evenodd;fill-opacity:1;stroke:none;"
     d="  M 298.88877,174.30886   L 312.85228,157.52466   L 313.65248,158.2457   z "
     id="path86" />
  <path
     style="fill:#000000;fill-rule:evenodd;fill-opacity:1;stroke:none;"
     d="  M 317.81353,152.11686   L 318.61373,152.87796   L 330.17663,138.6174   z "
     id="path87" />
  <path
     style="fill:#000000;fill-rule:evenodd;fill-opacity:1;stroke:none;"
     d="  M 318.61373,152.87796   L 330.17663,138.6174   L 331.01685,139.37849   z "
     id="path88" />
  <path
     style="fill:#000000;fill-rule:evenodd;fill-opacity:1;stroke:none;"
     d="  M 335.13788,133.24966   L 335.93808,133.9707   L 347.541,119.75019   z "
     id="path89" />
  <path
     style="fill:#000000;fill-rule:evenodd;fill-opacity:1;stroke:none;"
     d="  M 335.93808,133.9707   L 347.541,119.75019   L 348.3412,120.51129   z "
     id="path90" />
  <path
     style="fill:#000000;fill-rule:evenodd;fill-opacity:1;stroke:none;"
     d="  M 352.50224,114.34239   L 353.30244,115.10349   L 364.86535,100.88298   z "
     id="path91" />
  <path
     style="fill:#000000;fill-rule:evenodd;fill-opacity:1;stroke:none;"
     d="  M 353.30244,115.10349   L 364.86535,100.88298   L 365.70556,101.60402   z "
     id="path92" />
  <path
     style="fill:#000000;fill-rule:evenodd;fill-opacity:1;stroke:none;"
     d="  M 369.8266,95.475187   L 370.6268,96.236285   L 384.59031,79.412025   z "
     id="path93" />
  <path
     style="fill:#000000;fill-rule:evenodd;fill-opacity:1;stroke:none;"
     d="  M 370.6268,96.236285   L 384.59031,79.412025   L 385.39051,80.173123   z "
     id="path94" />
  <path
     style="fill:#000000;fill-rule:evenodd;fill-opacity:1;stroke:none;"
     d="  M 384.59031,79.412025   L 385.39051,80.173123   L 385.39051,80.173123   z "
     id="path95" />
  <path
     style="fill:#000000;fill-rule:evenodd;fill-opacity:1;stroke:none;"
     d="  M 262.59966,167.69933   L 263.96,165.93679   L 268.3611,171.4247   z "
     id="path96" />
  <path
     style="fill:#000000;fill-rule:evenodd;fill-opacity:1;stroke:none;"
     d="  M 263.96,165.93679   L 268.3611,171.4247   L 269.40136,169.46187   z "
     id="path97" />
  <path
     style="fill:#000000;fill-rule:evenodd;fill-opacity:1;stroke:none;"
     d="  M 268.3611,171.4247   L 269.40136,169.46187   L 274.64268,174.14863   z "
     id="path98" />
  <path
     style="fill:#000000;fill-rule:evenodd;fill-opacity:1;stroke:none;"
     d="  M 269.40136,169.46187   L 274.64268,174.14863   L 275.36286,172.06563   z "
     id="path99" />
  <path
     style="fill:#000000;fill-rule:evenodd;fill-opacity:1;stroke:none;"
     d="  M 274.64268,174.14863   L 275.36286,172.06563   L 281.32436,175.83106   z "
     id="path100" />
  <path
     style="fill:#000000;fill-rule:evenodd;fill-opacity:1;stroke:none;"
     d="  M 275.36286,172.06563   L 281.32436,175.83106   L 281.64444,173.66794   z "
     id="path101" />
  <path
     style="fill:#000000;fill-rule:evenodd;fill-opacity:1;stroke:none;"
     d="  M 281.32436,175.83106   L 281.64444,173.66794   L 288.12607,176.39186   z "
     id="path102" />
  <path
     style="fill:#000000;fill-rule:evenodd;fill-opacity:1;stroke:none;"
     d="  M 281.64444,173.66794   L 288.12607,176.39186   L 288.12607,174.18869   z "
     id="path103" />
  <path
     style="fill:#000000;fill-rule:evenodd;fill-opacity:1;stroke:none;"
     d="  M 288.12607,176.39186   L 288.12607,174.18869   L 294.96779,175.83106   z "
     id="path104" />
  <path
     style="fill:#000000;fill-rule:evenodd;fill-opacity:1;stroke:none;"
     d="  M 288.12607,174.18869   L 294.96779,175.83106   L 294.6077,173.66794   z "
     id="path105" />
  <path
     style="fill:#000000;fill-rule:evenodd;fill-opacity:1;stroke:none;"
     d="  M 294.96779,175.83106   L 294.6077,173.66794   L 301.60946,174.14863   z "
     id="path106" />
  <path
     style="fill:#000000;fill-rule:evenodd;fill-opacity:1;stroke:none;"
     d="  M 294.6077,173.66794   L 301.60946,174.14863   L 300.92929,172.06563   z "
     id="path107" />
  <path
     style="fill:#000000;fill-rule:evenodd;fill-opacity:1;stroke:none;"
     d="  M 301.60946,174.14863   L 300.92929,172.06563   L 307.89103,171.4247   z "
     id="path108" />
  <path
     style="fill:#000000;fill-rule:evenodd;fill-opacity:1;stroke:none;"
     d="  M 300.92929,172.06563   L 307.89103,171.4247   L 306.89078,169.46187   z "
     id="path109" />
  <path
     style="fill:#000000;fill-rule:evenodd;fill-opacity:1;stroke:none;"
     d="  M 307.89103,171.4247   L 306.89078,169.46187   L 313.65248,167.69933   z "
     id="path110" />
  <path
     style="fill:#000000;fill-rule:evenodd;fill-opacity:1;stroke:none;"
     d="  M 306.89078,169.46187   L 313.65248,167.69933   L 312.33215,165.93679   z "
     id="path111" />
  <path
     style="fill:none;stroke:#000000;stroke-width:0.96024126px;stroke-linecap:round;stroke-linejoin:round;stroke-miterlimit:4;stroke-dasharray:none;stroke-opacity:1;"
     d="  M 409.15648,269.16564   L 410.35678,268.32442   L 412.11722,265.80079   L 412.11722,283.54637  "
     id="path112" />
  <path
     style="fill:none;stroke:#000000;stroke-width:0.96024126px;stroke-linecap:round;stroke-linejoin:round;stroke-miterlimit:4;stroke-dasharray:none;stroke-opacity:1;"
     d="  M 389.31149,83.738263   L 388.67133,80.453527   L 387.23097,77.409137   L 385.07043,74.84544   L 382.30973,72.922668   L 379.18895,71.720935   L 375.86811,71.360415  "
     id="path113" />
  <path
     style="fill:none;stroke:#000000;stroke-width:0.96024126px;stroke-linecap:round;stroke-linejoin:round;stroke-miterlimit:4;stroke-dasharray:none;stroke-opacity:1;"
     d="  M 375.86811,71.360415   L 375.22795,68.035621   L 373.78759,65.031289   L 371.62705,62.427535   L 368.86636,60.504762   L 365.74557,59.303029   L 362.38473,58.942509  "
     id="path114" />
  <path
     style="fill:none;stroke:#000000;stroke-width:0.96024126px;stroke-linecap:round;stroke-linejoin:round;stroke-miterlimit:4;stroke-dasharray:none;stroke-opacity:1;"
     d="  M 362.38473,58.942509   L 363.02489,62.227246   L 364.50526,65.271636   L 366.6658,67.835332   L 369.38649,69.798163   L 372.50727,70.959838   L 375.86811,71.360415  "
     id="path115" />
  <path
     style="fill:none;stroke:#000000;stroke-width:0.96024126px;stroke-linecap:round;stroke-linejoin:round;stroke-miterlimit:4;stroke-dasharray:none;stroke-opacity:1;"
     d="  M 68.150799,166.81806   L 19.498575,166.81806  "
     id="path116" />
  <path
     style="fill:none;stroke:#000000;stroke-width:0.96024126px;stroke-linecap:round;stroke-linejoin:round;stroke-miterlimit:4;stroke-dasharray:none;stroke-opacity:1;"
     d="  M 68.150799,254.7849   L 19.498575,254.7849  "
     id="path117" />
  <path
     style="fill:none;stroke:#000000;stroke-width:0.96024126px;stroke-linecap:round;stroke-linejoin:round;stroke-miterlimit:4;stroke-dasharray:none;stroke-opacity:1;"
     d="  M 26.820415,159.48749   L 26.820415,262.11547  "
     id="path118" />
  <path
     style="fill:#000000;fill-rule:evenodd;fill-opacity:1;stroke:none;"
     d="  M 30.70139,173.30742   L 33.262033,170.70366   L 20.338786,162.93246   z "
     id="path119" />
  <path
     style="fill:#000000;fill-rule:evenodd;fill-opacity:1;stroke:none;"
     d="  M 33.262033,170.70366   L 20.338786,162.93246   L 22.939439,160.3287   z "
     id="path120" />
  <path
     style="fill:#000000;fill-rule:evenodd;fill-opacity:1;stroke:none;"
     d="  M 22.939439,248.29554   L 20.338786,250.8993   L 33.262033,258.6705   z "
     id="path121" />
  <path
     style="fill:#000000;fill-rule:evenodd;fill-opacity:1;stroke:none;"
     d="  M 20.338786,250.8993   L 33.262033,258.6705   L 30.70139,261.27426   z "
     id="path122" />
  <path
     style="fill:none;stroke:#000000;stroke-width:0.96024126px;stroke-linecap:round;stroke-linejoin:round;stroke-miterlimit:4;stroke-dasharray:none;stroke-opacity:1;"
     d="  M 0.053689252,207.23634   L 17.818153,207.23634  "
     id="path123" />
  <path
     style="fill:none;stroke:#000000;stroke-width:0.96024126px;stroke-linecap:round;stroke-linejoin:round;stroke-miterlimit:4;stroke-dasharray:none;stroke-opacity:1;"
     d="  M 8.4958104,207.23634   L 6.8153882,208.43807   L 5.9751771,209.59975   L 5.9751771,211.40235   L 6.8153882,212.56402   L 8.4958104,213.76575   L 11.056454,214.36662   L 12.736876,214.36662   L 15.257509,213.76575   L 16.937931,212.56402   L 17.818153,211.40235   L 17.818153,209.59975   L 16.937931,208.43807   L 15.257509,207.23634  "
     id="path124" />
  <path
     style="fill:none;stroke:#000000;stroke-width:0.96024126px;stroke-linecap:round;stroke-linejoin:round;stroke-miterlimit:4;stroke-dasharray:none;stroke-opacity:1;"
     d="  M 344.90033,86.66248   L 332.8173,72.161571   L 310.89179,72.161571  "
     id="path125" />
  <path
     style="fill:none;stroke:#000000;stroke-width:0.96024126px;stroke-linecap:round;stroke-linejoin:round;stroke-miterlimit:4;stroke-dasharray:none;stroke-opacity:1;"
     d="  M 316.57322,53.855174   L 316.57322,53.013961   L 317.17337,51.331535   L 317.77352,50.490322   L 318.93381,49.649109   L 321.2944,49.649109   L 322.4947,50.490322   L 323.05484,51.331535   L 323.655,53.013961   L 323.655,54.696387   L 323.05484,56.418871   L 321.89455,58.942509   L 315.97307,67.394697   L 324.25515,67.394697  "
     id="path126" />
  <path
     style="fill:none;stroke:#000000;stroke-width:0.96024126px;stroke-linecap:round;stroke-linejoin:round;stroke-miterlimit:4;stroke-dasharray:none;stroke-opacity:1;"
     d="  M 374.78784,45.443044   L 385.19046,34.146756  "
     id="path127" />
  <path
     style="fill:none;stroke:#000000;stroke-width:0.96024126px;stroke-linecap:round;stroke-linejoin:round;stroke-miterlimit:4;stroke-dasharray:none;stroke-opacity:1;"
     d="  M 401.71461,70.278856   L 412.07721,58.942509  "
     id="path128" />
  <path
     style="fill:none;stroke:#000000;stroke-width:0.96024126px;stroke-linecap:round;stroke-linejoin:round;stroke-miterlimit:4;stroke-dasharray:none;stroke-opacity:1;"
     d="  M 374.82785,34.547333   L 412.51732,69.31747  "
     id="path129" />
  <path
     style="fill:#000000;fill-rule:evenodd;fill-opacity:1;stroke:none;"
     d="  M 387.63107,41.076748   L 387.47103,37.391434   L 372.98739,41.677615   z "
     id="path130" />
  <path
     style="fill:#000000;fill-rule:evenodd;fill-opacity:1;stroke:none;"
     d="  M 387.47103,37.391434   L 372.98739,41.677615   L 372.82735,37.992301   z "
     id="path131" />
  <path
     style="fill:#000000;fill-rule:evenodd;fill-opacity:1;stroke:none;"
     d="  M 399.75412,62.828112   L 399.91416,66.473369   L 414.35779,62.227246   z "
     id="path132" />
  <path
     style="fill:#000000;fill-rule:evenodd;fill-opacity:1;stroke:none;"
     d="  M 399.91416,66.473369   L 414.35779,62.227246   L 414.51783,65.872502   z "
     id="path133" />
  <path
     style="fill:none;stroke:#000000;stroke-width:0.96024126px;stroke-linecap:round;stroke-linejoin:round;stroke-miterlimit:4;stroke-dasharray:none;stroke-opacity:1;"
     d="  M 422.51984,17.803189   L 422.51984,0.057601305   L 427.24102,17.803189   L 431.96221,0.057601305   L 431.96221,17.803189  "
     id="path134" />
  <path
     style="fill:none;stroke:#000000;stroke-width:0.96024126px;stroke-linecap:round;stroke-linejoin:round;stroke-miterlimit:4;stroke-dasharray:none;stroke-opacity:1;"
     d="  M 436.7234,10.192215   L 437.00347,10.63285   L 437.28355,10.192215   L 437.00347,9.7916371   L 436.7234,10.192215   z "
     id="path135" />
  <path
     style="fill:none;stroke:#000000;stroke-width:0.96024126px;stroke-linecap:round;stroke-linejoin:round;stroke-miterlimit:4;stroke-dasharray:none;stroke-opacity:1;"
     d="  M 437.00347,12.755911   L 437.00347,18.644402  "
     id="path136" />
  <path
     style="fill:none;stroke:#000000;stroke-width:0.96024126px;stroke-linecap:round;stroke-linejoin:round;stroke-miterlimit:4;stroke-dasharray:none;stroke-opacity:1;"
     d="  M 577.27872,266.60194   L 577.27872,195.73976  "
     id="path137" />
  <path
     style="fill:none;stroke:#000000;stroke-width:0.96024126px;stroke-linecap:round;stroke-linejoin:round;stroke-miterlimit:4;stroke-dasharray:none;stroke-opacity:1;"
     d="  M 577.27872,177.39331   L 577.27872,159.08691  "
     id="path138" />
  <path
     style="fill:none;stroke:#000000;stroke-width:0.96024126px;stroke-linecap:round;stroke-linejoin:round;stroke-miterlimit:4;stroke-dasharray:none;stroke-opacity:1;"
     d="  M 577.27872,140.74046   L 577.27872,69.918336  "
     id="path139" />
  <path
     style="fill:#000000;fill-rule:evenodd;fill-opacity:1;stroke:none;"
     d="  M 594.48304,170.82384   L 596.6836,170.82384   L 594.48304,69.918336   z "
     id="path140" />
  <path
     style="fill:#000000;fill-rule:evenodd;fill-opacity:1;stroke:none;"
     d="  M 596.6836,170.82384   L 594.48304,69.918336   L 596.6836,69.918336   z "
     id="path141" />
  <path
     style="fill:#000000;fill-rule:evenodd;fill-opacity:1;stroke:none;"
     d="  M 589.20172,168.62066   L 590.28199,168.62066   L 589.20172,148.59178   z "
     id="path142" />
  <path
     style="fill:#000000;fill-rule:evenodd;fill-opacity:1;stroke:none;"
     d="  M 590.28199,168.62066   L 589.20172,148.59178   L 590.28199,148.59178   z "
     id="path143" />
  <path
     style="fill:#000000;fill-rule:evenodd;fill-opacity:1;stroke:none;"
     d="  M 589.20172,141.26121   L 590.28199,141.26121   L 589.20172,122.91475   z "
     id="path144" />
  <path
     style="fill:#000000;fill-rule:evenodd;fill-opacity:1;stroke:none;"
     d="  M 590.28199,141.26121   L 589.20172,122.91475   L 590.28199,122.91475   z "
     id="path145" />
  <path
     style="fill:#000000;fill-rule:evenodd;fill-opacity:1;stroke:none;"
     d="  M 589.20172,115.58418   L 590.28199,115.58418   L 589.20172,97.277786   z "
     id="path146" />
  <path
     style="fill:#000000;fill-rule:evenodd;fill-opacity:1;stroke:none;"
     d="  M 590.28199,115.58418   L 589.20172,97.277786   L 590.28199,97.277786   z "
     id="path147" />
  <path
     style="fill:#000000;fill-rule:evenodd;fill-opacity:1;stroke:none;"
     d="  M 589.20172,89.947216   L 590.28199,89.947216   L 589.20172,69.918336   z "
     id="path148" />
  <path
     style="fill:#000000;fill-rule:evenodd;fill-opacity:1;stroke:none;"
     d="  M 590.28199,89.947216   L 589.20172,69.918336   L 590.28199,69.918336   z "
     id="path149" />
  <path
     style="fill:#000000;fill-rule:evenodd;fill-opacity:1;stroke:none;"
     d="  M 589.20172,69.918336   L 590.28199,69.918336   L 590.28199,69.918336   z "
     id="path150" />
  <path
     style="fill:#000000;fill-rule:evenodd;fill-opacity:1;stroke:none;"
     d="  M 557.91385,170.82384   L 560.11441,170.82384   L 557.91385,69.918336   z "
     id="path151" />
  <path
     style="fill:#000000;fill-rule:evenodd;fill-opacity:1;stroke:none;"
     d="  M 560.11441,170.82384   L 557.91385,69.918336   L 560.11441,69.918336   z "
     id="path152" />
  <path
     style="fill:#000000;fill-rule:evenodd;fill-opacity:1;stroke:none;"
     d="  M 564.31546,168.62066   L 565.39573,168.62066   L 564.31546,148.59178   z "
     id="path153" />
  <path
     style="fill:#000000;fill-rule:evenodd;fill-opacity:1;stroke:none;"
     d="  M 565.39573,168.62066   L 564.31546,148.59178   L 565.39573,148.59178   z "
     id="path154" />
  <path
     style="fill:#000000;fill-rule:evenodd;fill-opacity:1;stroke:none;"
     d="  M 564.31546,141.26121   L 565.39573,141.26121   L 564.31546,122.91475   z "
     id="path155" />
  <path
     style="fill:#000000;fill-rule:evenodd;fill-opacity:1;stroke:none;"
     d="  M 565.39573,141.26121   L 564.31546,122.91475   L 565.39573,122.91475   z "
     id="path156" />
  <path
     style="fill:#000000;fill-rule:evenodd;fill-opacity:1;stroke:none;"
     d="  M 564.31546,115.58418   L 565.39573,115.58418   L 564.31546,97.277786   z "
     id="path157" />
  <path
     style="fill:#000000;fill-rule:evenodd;fill-opacity:1;stroke:none;"
     d="  M 565.39573,115.58418   L 564.31546,97.277786   L 565.39573,97.277786   z "
     id="path158" />
  <path
     style="fill:#000000;fill-rule:evenodd;fill-opacity:1;stroke:none;"
     d="  M 564.31546,89.947216   L 565.39573,89.947216   L 564.31546,69.918336   z "
     id="path159" />
  <path
     style="fill:#000000;fill-rule:evenodd;fill-opacity:1;stroke:none;"
     d="  M 565.39573,89.947216   L 564.31546,69.918336   L 565.39573,69.918336   z "
     id="path160" />
  <path
     style="fill:#000000;fill-rule:evenodd;fill-opacity:1;stroke:none;"
     d="  M 564.31546,69.918336   L 565.39573,69.918336   L 565.39573,69.918336   z "
     id="path161" />
  <path
     style="fill:none;stroke:#000000;stroke-width:0.96024126px;stroke-linecap:round;stroke-linejoin:round;stroke-miterlimit:4;stroke-dasharray:none;stroke-opacity:1;"
     d="  M 577.27872,69.918336   L 574.59805,67.915448   L 571.47726,66.673657   L 568.15643,66.233022   L 564.83559,66.673657   L 561.71481,67.915448   L 558.99413,69.918336  "
     id="path162" />
  <path
     style="fill:none;stroke:#000000;stroke-width:0.96024126px;stroke-linecap:round;stroke-linejoin:round;stroke-miterlimit:4;stroke-dasharray:none;stroke-opacity:1;"
     d="  M 595.60332,69.918336   L 592.88264,67.915448   L 589.76186,66.673657   L 586.44102,66.233022   L 583.12019,66.673657   L 579.9994,67.915448   L 577.27872,69.918336  "
     id="path163" />
  <path
     style="fill:none;stroke:#000000;stroke-width:0.96024126px;stroke-linecap:round;stroke-linejoin:round;stroke-miterlimit:4;stroke-dasharray:none;stroke-opacity:1;"
     d="  M 577.27872,69.918336   L 579.9994,71.921224   L 583.12019,73.163015   L 586.44102,73.563592   L 589.76186,73.163015   L 592.88264,71.921224   L 595.60332,69.918336  "
     id="path164" />
  <path
     style="fill:none;stroke:#000000;stroke-width:0.96024126px;stroke-linecap:round;stroke-linejoin:round;stroke-miterlimit:4;stroke-dasharray:none;stroke-opacity:1;"
     d="  M 435.40307,254.7849   L 438.76392,250.57884   L 441.36457,245.89208   L 443.16502,240.80474   L 444.04524,235.47706   L 444.04524,230.10932   L 443.16502,224.78164   L 441.36457,219.6943   L 438.76392,215.00755   L 435.40307,210.80148  "
     id="path165" />
  <path
     style="fill:none;stroke:#000000;stroke-width:0.96024126px;stroke-linecap:round;stroke-linejoin:round;stroke-miterlimit:4;stroke-dasharray:none;stroke-opacity:1;"
     d="  M 435.40307,210.80148   L 438.76392,206.59542   L 441.36457,201.90866   L 443.16502,196.82132   L 444.04524,191.49364   L 444.04524,186.1259   L 443.16502,180.79822   L 441.36457,175.71088   L 438.76392,171.02412   L 435.40307,166.81806  "
     id="path166" />
  <path
     style="fill:none;stroke:#000000;stroke-width:0.96024126px;stroke-linecap:round;stroke-linejoin:round;stroke-miterlimit:4;stroke-dasharray:none;stroke-opacity:1;"
     d="  M 435.40307,166.81806   L 432.04223,171.02412   L 429.40156,175.71088   L 427.64112,180.79822   L 426.72089,186.1259   L 426.72089,191.49364   L 427.64112,196.82132   L 429.40156,201.90866   L 432.04223,206.59542   L 435.40307,210.80148  "
     id="path167" />
  <path
     style="fill:none;stroke:#000000;stroke-width:0.96024126px;stroke-linecap:round;stroke-linejoin:round;stroke-miterlimit:4;stroke-dasharray:none;stroke-opacity:1;"
     d="  M 86.435393,166.81806   L 83.074549,171.02412   L 80.473895,175.71088   L 78.673443,180.79822   L 77.793222,186.1259   L 77.793222,191.49364   L 78.673443,196.82132   L 80.473895,201.90866   L 83.074549,206.59542   L 86.435393,210.80148  "
     id="path168" />
  <path
     style="fill:none;stroke:#000000;stroke-width:0.96024126px;stroke-linecap:round;stroke-linejoin:round;stroke-miterlimit:4;stroke-dasharray:none;stroke-opacity:1;"
     d="  M 86.435393,210.80148   L 83.074549,215.00755   L 80.473895,219.6943   L 78.673443,224.78164   L 77.793222,230.10932   L 77.793222,235.47706   L 78.673443,240.80474   L 80.473895,245.89208   L 83.074549,250.57884   L 86.435393,254.7849  "
     id="path169" />
  <path
     style="fill:none;stroke:#000000;stroke-width:0.96024126px;stroke-linecap:round;stroke-linejoin:round;stroke-miterlimit:4;stroke-dasharray:none;stroke-opacity:1;"
     d="  M 86.435393,254.7849   L 89.796237,250.57884   L 92.436901,245.89208   L 94.197343,240.80474   L 95.117574,235.47706   L 95.117574,230.10932   L 94.197343,224.78164   L 92.436901,219.6943   L 89.796237,215.00755   L 86.435393,210.80148  "
     id="path170" />
  <path
     style="fill:none;stroke:#000000;stroke-width:0.96024126px;stroke-linecap:round;stroke-linejoin:round;stroke-miterlimit:4;stroke-dasharray:none;stroke-opacity:1;"
     d="  M 134.92758,247.45433   L 160.13391,247.45433  "
     id="path171" />
  <path
     style="fill:none;stroke:#000000;stroke-width:0.96024126px;stroke-linecap:round;stroke-linejoin:round;stroke-miterlimit:4;stroke-dasharray:none;stroke-opacity:1;"
     d="  M 110.32139,254.7849   L 160.13391,254.7849  "
     id="path172" />
  <path
     style="fill:none;stroke:#000000;stroke-width:0.96024126px;stroke-linecap:round;stroke-linejoin:round;stroke-miterlimit:4;stroke-dasharray:none;stroke-opacity:1;"
     d="  M 152.85208,247.45433   L 152.85208,240.12376  "
     id="path173" />
  <path
     style="fill:none;stroke:#000000;stroke-width:0.96024126px;stroke-linecap:round;stroke-linejoin:round;stroke-miterlimit:4;stroke-dasharray:none;stroke-opacity:1;"
     d="  M 152.85208,254.7849   L 152.85208,262.11547  "
     id="path174" />
  <path
     style="fill:none;stroke:#000000;stroke-width:0.96024126px;stroke-linecap:round;stroke-linejoin:round;stroke-miterlimit:4;stroke-dasharray:none;stroke-opacity:1;"
     d="  M 126.12537,265.96102   L 140.44896,265.96102   L 143.00961,265.36015   L 143.84982,264.15842   L 143.84982,262.99674  "
     id="path175" />
  <path
     style="fill:none;stroke:#000000;stroke-width:0.96024126px;stroke-linecap:round;stroke-linejoin:round;stroke-miterlimit:4;stroke-dasharray:none;stroke-opacity:1;"
     d="  M 132.00684,267.72356   L 132.00684,263.55755  "
     id="path176" />
  <path
     style="fill:none;stroke:#000000;stroke-width:0.96024126px;stroke-linecap:round;stroke-linejoin:round;stroke-miterlimit:4;stroke-dasharray:none;stroke-opacity:1;"
     d="  M 152.85208,247.45433   L 152.85208,254.7849  "
     id="path177" />
  <path
     style="fill:#000000;fill-rule:evenodd;fill-opacity:1;stroke:none;"
     d="  M 148.97111,240.96497   L 146.37045,243.56873   L 159.2937,251.33993   z "
     id="path178" />
  <path
     style="fill:#000000;fill-rule:evenodd;fill-opacity:1;stroke:none;"
     d="  M 146.37045,243.56873   L 159.2937,251.33993   L 156.73306,253.94369   z "
     id="path179" />
  <path
     style="fill:#000000;fill-rule:evenodd;fill-opacity:1;stroke:none;"
     d="  M 156.73306,261.27426   L 159.2937,258.6705   L 146.37045,250.8993   z "
     id="path180" />
  <path
     style="fill:#000000;fill-rule:evenodd;fill-opacity:1;stroke:none;"
     d="  M 159.2937,258.6705   L 146.37045,250.8993   L 148.97111,248.29554   z "
     id="path181" />
  <path
     style="fill:none;stroke:#000000;stroke-width:0.96024126px;stroke-linecap:round;stroke-linejoin:round;stroke-miterlimit:4;stroke-dasharray:none;stroke-opacity:1;"
     d="  M 621.20976,210.80148   L 620.64962,203.91155   L 619.04921,197.2219   L 616.40855,190.81266   L 612.80765,184.96422   L 608.32652,179.71666   L 603.0852,175.23019   L 597.20373,171.62499   L 590.84213,168.98118   L 584.16045,167.33881   L 577.27872,166.81806   L 570.437,167.33881   L 563.71531,168.98118   L 557.35371,171.62499   L 551.51225,175.23019   L 546.27093,179.71666   L 541.7898,184.96422   L 538.1889,190.81266   L 535.54823,197.2219   L 533.94783,203.91155   L 533.38769,210.80148   L 533.94783,217.69142   L 535.54823,224.38106   L 538.1889,230.7903   L 541.7898,236.63874   L 546.27093,241.8863   L 551.51225,246.37277   L 557.35371,249.97797   L 563.71531,252.62178   L 570.437,254.26415   L 577.27872,254.7849   L 584.16045,254.26415   L 590.84213,252.62178   L 597.20373,249.97797   L 603.0852,246.37277   L 608.32652,241.8863   L 612.80765,236.63874   L 616.40855,230.7903   L 619.04921,224.38106   L 620.64962,217.69142   L 621.20976,210.80148   z "
     id="path182" />
  <path
     style="fill:none;stroke:#000000;stroke-width:0.96024126px;stroke-linecap:round;stroke-linejoin:round;stroke-miterlimit:4;stroke-dasharray:none;stroke-opacity:1;"
     d="  M 615.32828,210.80148   L 614.76814,204.19195   L 613.04771,197.78271   L 610.247,191.73399   L 606.44605,186.28613   L 601.76487,181.59937   L 596.3235,177.79389   L 590.322,174.98984   L 583.92039,173.26736   L 577.27872,172.66649   L 570.67706,173.26736   L 564.27545,174.98984   L 558.27394,177.79389   L 552.83258,181.59937   L 548.1514,186.28613   L 544.35045,191.73399   L 541.54974,197.78271   L 539.82931,204.19195   L 539.26917,210.80148   L 539.82931,217.41101   L 541.54974,223.82025   L 544.35045,229.86897   L 548.1514,235.31683   L 552.83258,240.00359   L 558.27394,243.80907   L 564.27545,246.61312   L 570.67706,248.3356   L 577.27872,248.93647   L 583.92039,248.3356   L 590.322,246.61312   L 596.3235,243.80907   L 601.76487,240.00359   L 606.44605,235.31683   L 610.247,229.86897   L 613.04771,223.82025   L 614.76814,217.41101   L 615.32828,210.80148   z "
     id="path183" />
  <path
     style="fill:none;stroke:#000000;stroke-width:0.96024126px;stroke-linecap:round;stroke-linejoin:round;stroke-miterlimit:4;stroke-dasharray:none;stroke-opacity:1;"
     d="  M 663.66042,210.80148   L 597.76387,210.80148  "
     id="path184" />
  <path
     style="fill:none;stroke:#000000;stroke-width:0.96024126px;stroke-linecap:round;stroke-linejoin:round;stroke-miterlimit:4;stroke-dasharray:none;stroke-opacity:1;"
     d="  M 579.47927,210.80148   L 561.19468,210.80148  "
     id="path185" />
  <path
     style="fill:none;stroke:#000000;stroke-width:0.96024126px;stroke-linecap:round;stroke-linejoin:round;stroke-miterlimit:4;stroke-dasharray:none;stroke-opacity:1;"
     d="  M 542.91008,210.80148   L 451.4471,210.80148  "
     id="path186" />
  <path
     style="fill:none;stroke:#000000;stroke-width:0.96024126px;stroke-linecap:round;stroke-linejoin:round;stroke-miterlimit:4;stroke-dasharray:none;stroke-opacity:1;"
     d="  M 433.16251,210.80148   L 414.87792,210.80148  "
     id="path187" />
  <path
     style="fill:none;stroke:#000000;stroke-width:0.96024126px;stroke-linecap:round;stroke-linejoin:round;stroke-miterlimit:4;stroke-dasharray:none;stroke-opacity:1;"
     d="  M 396.59332,210.80148   L 305.13034,210.80148  "
     id="path188" />
  <path
     style="fill:none;stroke:#000000;stroke-width:0.96024126px;stroke-linecap:round;stroke-linejoin:round;stroke-miterlimit:4;stroke-dasharray:none;stroke-opacity:1;"
     d="  M 286.84575,210.80148   L 268.56115,210.80148  "
     id="path189" />
  <path
     style="fill:none;stroke:#000000;stroke-width:0.96024126px;stroke-linecap:round;stroke-linejoin:round;stroke-miterlimit:4;stroke-dasharray:none;stroke-opacity:1;"
     d="  M 250.27656,210.80148   L 158.81358,210.80148  "
     id="path190" />
  <path
     style="fill:none;stroke:#000000;stroke-width:0.96024126px;stroke-linecap:round;stroke-linejoin:round;stroke-miterlimit:4;stroke-dasharray:none;stroke-opacity:1;"
     d="  M 140.52898,210.80148   L 122.24439,210.80148  "
     id="path191" />
  <path
     style="fill:none;stroke:#000000;stroke-width:0.96024126px;stroke-linecap:round;stroke-linejoin:round;stroke-miterlimit:4;stroke-dasharray:none;stroke-opacity:1;"
     d="  M 103.9598,210.80148   L 38.063239,210.80148  "
     id="path192" />
  <path
     style="fill:#000000;fill-rule:evenodd;fill-opacity:1;stroke:none;"
     d="  M 428.48133,33.585947   L 428.80141,48.447376   L 423.68013,34.507275   z "
     id="path193" />
  <path
     style="fill:none;stroke:#000000;stroke-width:0.96024126px;stroke-linecap:round;stroke-linejoin:round;stroke-miterlimit:4;stroke-dasharray:none;stroke-opacity:1;"
     d="  M 426.08073,34.026582   L 424.88043,29.41994   L 422.67988,25.173817   L 419.51908,21.568619   L 415.63811,18.764576   L 411.19699,16.961976   L 406.4758,16.240937   L 401.71461,16.641514   L 397.19347,18.123651  "
     id="path194" />
  <path
     style="fill:none;stroke:#000000;stroke-width:0.96024126px;stroke-linecap:round;stroke-linejoin:round;stroke-miterlimit:4;stroke-dasharray:none;stroke-opacity:1;"
     d="  M 570.27696,25.494279   L 570.27696,7.7086336   L 574.99815,25.494279   L 579.71933,7.7086336   L 579.71933,25.494279  "
     id="path195" />
  <path
     style="fill:none;stroke:#000000;stroke-width:0.96024126px;stroke-linecap:round;stroke-linejoin:round;stroke-miterlimit:4;stroke-dasharray:none;stroke-opacity:1;"
     d="  M 587.40126,13.637182   L 586.24097,14.478395   L 585.04067,16.160821   L 584.44052,18.724518   L 584.44052,20.406944   L 585.04067,22.930583   L 586.24097,24.653066   L 587.40126,25.494279   L 589.16171,25.494279   L 590.36201,24.653066   L 591.5223,22.930583   L 592.12245,20.406944   L 592.12245,18.724518   L 591.5223,16.160821   L 590.36201,14.478395   L 589.16171,13.637182   L 587.40126,13.637182   z "
     id="path196" />
  <path
     style="fill:#000000;fill-rule:evenodd;fill-opacity:1;stroke:none;"
     d="  M 594.76311,43.840734   L 599.36427,57.981123   L 590.44203,46.083968   z "
     id="path197" />
  <path
     style="fill:none;stroke:#000000;stroke-width:0.96024126px;stroke-linecap:round;stroke-linejoin:round;stroke-miterlimit:4;stroke-dasharray:none;stroke-opacity:1;"
     d="  M 592.60257,44.962351   L 590.60207,40.876459   L 587.5613,37.47155   L 583.80036,34.947911   L 579.47927,33.545889   L 574.91813,33.265485   L 570.47701,34.186813   L 566.436,36.269817   L 563.03514,39.314207   L 560.55452,43.119694   L 559.15417,47.48599   L 558.95412,52.012517  "
     id="path198" />
  <path
     style="fill:none;stroke:#000000;stroke-width:0.96024126px;stroke-linecap:round;stroke-linejoin:round;stroke-miterlimit:4;stroke-dasharray:none;stroke-opacity:1;"
     d="  M 361.50451,166.81806   L 361.02438,160.12841   L 359.66404,153.599   L 357.42348,147.30993   L 354.3027,141.38138   L 350.46173,135.93353   L 345.86057,131.04648  "
     id="path199" />
  <path
     style="fill:#000000;fill-rule:evenodd;fill-opacity:1;stroke:none;"
     d="  M 357.62353,160.3287   L 355.02288,162.93246   L 367.98613,170.70366   z "
     id="path200" />
  <path
     style="fill:#000000;fill-rule:evenodd;fill-opacity:1;stroke:none;"
     d="  M 355.02288,162.93246   L 367.98613,170.70366   L 365.38548,173.30742   z "
     id="path201" />
  <path
     style="fill:#000000;fill-rule:evenodd;fill-opacity:1;stroke:none;"
     d="  M 353.22242,132.56867   L 353.10239,128.92342   L 338.61876,133.2096   z "
     id="path202" />
  <path
     style="fill:#000000;fill-rule:evenodd;fill-opacity:1;stroke:none;"
     d="  M 353.10239,128.92342   L 338.61876,133.2096   L 338.45872,129.52428   z "
     id="path203" />
  <path
     style="fill:none;stroke:#000000;stroke-width:0.96024126px;stroke-linecap:round;stroke-linejoin:round;stroke-miterlimit:4;stroke-dasharray:none;stroke-opacity:1;"
     d="  M 363.94512,143.94508   L 363.82509,143.22404   L 363.90511,142.54306   L 364.22519,141.58167   L 364.82534,140.78051   L 365.30546,140.17965   L 365.94562,139.49867   L 366.74582,138.73757   L 367.82609,138.1367   L 368.70631,137.61595   L 369.46651,137.17532   L 370.42675,136.73468   L 371.50702,136.25399   L 373.0274,135.85341   L 374.26771,135.61306   L 374.98789,135.53295   L 375.90812,135.53295   L 377.26847,135.57301   L 378.54879,135.93353   L 379.10893,136.37416   L 379.62906,137.05514   L 379.74909,137.81624   L 379.34899,139.05803   L 378.94889,139.85919   L 378.34874,140.66034   L 377.3885,141.50155   L 376.70833,142.06236   L 375.54803,142.82346   L 374.6278,143.38427   L 373.22745,143.98514   L 372.10717,144.46583   L 370.74683,144.82635   L 369.58654,145.18687   L 368.34622,145.3471   L 367.02589,145.38716   L 365.78558,145.14681   L 364.90536,144.86641   L 364.34522,144.42577   L 363.90511,143.86496   L 364.06515,142.46294   L 364.6653,141.26121   L 365.42549,140.41999   L 366.2657,139.77907   L 367.26595,139.05803   L 368.58628,138.21682   L 369.66656,137.61595   L 371.46701,136.97503   L 373.06741,136.37416   L 374.82785,136.01364   L 376.2282,135.77329   L 377.74859,135.77329   L 378.86887,136.21393   L 379.42901,136.61451   L 379.7891,137.01509   L 379.7891,137.93641   L 379.30898,138.93786   L 378.70883,139.73901   L 377.90863,140.46005   L 377.26847,141.14103   L 376.2282,141.86207   L 375.34798,142.38282   L 374.10767,143.06381   L 372.86736,143.62462   L 371.22695,144.18542   L 369.86661,144.54594   L 368.50626,144.86641   L 366.86585,145.06669   L 365.26545,144.82635   L 364.34522,144.42577   L 363.90511,143.86496  "
     id="path204" />
  <path
     style="fill:none;stroke:#000000;stroke-width:0.96024126px;stroke-linecap:round;stroke-linejoin:round;stroke-miterlimit:4;stroke-dasharray:none;stroke-opacity:1;"
     d="  M 370.14668,137.41566   L 374.10767,143.06381  "
     id="path205" />
  <path
     style="fill:none;stroke:#000000;stroke-width:0.96024126px;stroke-linecap:round;stroke-linejoin:round;stroke-miterlimit:4;stroke-dasharray:none;stroke-opacity:1;"
     d="  M 369.8266,137.53584   L 373.78759,143.18398  "
     id="path206" />
  <path
     style="fill:none;stroke:#000000;stroke-width:0.96024126px;stroke-linecap:round;stroke-linejoin:round;stroke-miterlimit:4;stroke-dasharray:none;stroke-opacity:1;"
     d="  M 299.36889,136.21393   L 295.68797,140.21971  "
     id="path207" />
  <path
     style="fill:none;stroke:#000000;stroke-width:0.96024126px;stroke-linecap:round;stroke-linejoin:round;stroke-miterlimit:4;stroke-dasharray:none;stroke-opacity:1;"
     d="  M 295.04781,132.24821   L 291.40689,136.25399  "
     id="path208" />
  <path
     style="fill:none;stroke:#000000;stroke-width:0.96024126px;stroke-linecap:round;stroke-linejoin:round;stroke-miterlimit:4;stroke-dasharray:none;stroke-opacity:1;"
     d="  M 300.64922,134.81191   L 306.05057,139.73901  "
     id="path209" />
  <path
     style="fill:none;stroke:#000000;stroke-width:0.96024126px;stroke-linecap:round;stroke-linejoin:round;stroke-miterlimit:4;stroke-dasharray:none;stroke-opacity:1;"
     d="  M 296.32813,130.84619   L 290.92677,125.87903  "
     id="path210" />
  <path
     style="fill:none;stroke:#000000;stroke-width:0.96024126px;stroke-linecap:round;stroke-linejoin:round;stroke-miterlimit:4;stroke-dasharray:none;stroke-opacity:1;"
     d="  M 300.64922,134.81191   L 296.32813,130.84619  "
     id="path211" />
  <path
     style="fill:#000000;fill-rule:evenodd;fill-opacity:1;stroke:none;"
     d="  M 308.05107,136.3341   L 307.89103,132.64879   L 293.4074,136.93497   z "
     id="path212" />
  <path
     style="fill:#000000;fill-rule:evenodd;fill-opacity:1;stroke:none;"
     d="  M 307.89103,132.64879   L 293.4074,136.93497   L 293.24736,133.28971   z "
     id="path213" />
  <path
     style="fill:#000000;fill-rule:evenodd;fill-opacity:1;stroke:none;"
     d="  M 288.96628,129.32399   L 289.12632,132.96925   L 303.56995,128.68307   z "
     id="path214" />
  <path
     style="fill:#000000;fill-rule:evenodd;fill-opacity:1;stroke:none;"
     d="  M 289.12632,132.96925   L 303.56995,128.68307   L 303.72999,132.36838   z "
     id="path215" />
  <path
     style="fill:#000000;fill-rule:evenodd;fill-opacity:1;stroke:none;"
     d="  M 577.27872,255.90652   L 577.27872,253.70334   L 584.32049,255.34571   z "
     id="path216" />
  <path
     style="fill:#000000;fill-rule:evenodd;fill-opacity:1;stroke:none;"
     d="  M 577.27872,253.70334   L 584.32049,255.34571   L 584.00041,253.14253   z "
     id="path217" />
  <path
     style="fill:#000000;fill-rule:evenodd;fill-opacity:1;stroke:none;"
     d="  M 584.32049,255.34571   L 584.00041,253.14253   L 591.20222,253.66328   z "
     id="path218" />
  <path
     style="fill:#000000;fill-rule:evenodd;fill-opacity:1;stroke:none;"
     d="  M 584.00041,253.14253   L 591.20222,253.66328   L 590.52205,251.58028   z "
     id="path219" />
  <path
     style="fill:#000000;fill-rule:evenodd;fill-opacity:1;stroke:none;"
     d="  M 591.20222,253.66328   L 590.52205,251.58028   L 597.72386,250.97941   z "
     id="path220" />
  <path
     style="fill:#000000;fill-rule:evenodd;fill-opacity:1;stroke:none;"
     d="  M 590.52205,251.58028   L 597.72386,250.97941   L 596.72361,249.01658   z "
     id="path221" />
  <path
     style="fill:#000000;fill-rule:evenodd;fill-opacity:1;stroke:none;"
     d="  M 597.72386,250.97941   L 596.72361,249.01658   L 603.72536,247.2941   z "
     id="path222" />
  <path
     style="fill:#000000;fill-rule:evenodd;fill-opacity:1;stroke:none;"
     d="  M 596.72361,249.01658   L 603.72536,247.2941   L 602.44504,245.4915   z "
     id="path223" />
  <path
     style="fill:#000000;fill-rule:evenodd;fill-opacity:1;stroke:none;"
     d="  M 603.72536,247.2941   L 602.44504,245.4915   L 609.12672,242.68746   z "
     id="path224" />
  <path
     style="fill:#000000;fill-rule:evenodd;fill-opacity:1;stroke:none;"
     d="  M 602.44504,245.4915   L 609.12672,242.68746   L 607.56633,241.12521   z "
     id="path225" />
  <path
     style="fill:#000000;fill-rule:evenodd;fill-opacity:1;stroke:none;"
     d="  M 609.12672,242.68746   L 607.56633,241.12521   L 613.68787,237.31972   z "
     id="path226" />
  <path
     style="fill:#000000;fill-rule:evenodd;fill-opacity:1;stroke:none;"
     d="  M 607.56633,241.12521   L 613.68787,237.31972   L 611.92743,235.99781   z "
     id="path227" />
  <path
     style="fill:#000000;fill-rule:evenodd;fill-opacity:1;stroke:none;"
     d="  M 613.68787,237.31972   L 611.92743,235.99781   L 617.36879,231.271   z "
     id="path228" />
  <path
     style="fill:#000000;fill-rule:evenodd;fill-opacity:1;stroke:none;"
     d="  M 611.92743,235.99781   L 617.36879,231.271   L 615.4083,230.26955   z "
     id="path229" />
  <path
     style="fill:#000000;fill-rule:evenodd;fill-opacity:1;stroke:none;"
     d="  M 617.36879,231.271   L 615.4083,230.26955   L 620.08948,224.74158   z "
     id="path230" />
  <path
     style="fill:#000000;fill-rule:evenodd;fill-opacity:1;stroke:none;"
     d="  M 615.4083,230.26955   L 620.08948,224.74158   L 618.00895,224.0606   z "
     id="path231" />
  <path
     style="fill:#000000;fill-rule:evenodd;fill-opacity:1;stroke:none;"
     d="  M 620.08948,224.74158   L 618.00895,224.0606   L 621.72989,217.85165   z "
     id="path232" />
  <path
     style="fill:#000000;fill-rule:evenodd;fill-opacity:1;stroke:none;"
     d="  M 618.00895,224.0606   L 621.72989,217.85165   L 619.56935,217.49113   z "
     id="path233" />
  <path
     style="fill:#000000;fill-rule:evenodd;fill-opacity:1;stroke:none;"
     d="  M 621.72989,217.85165   L 619.56935,217.49113   L 622.29003,210.80148   z "
     id="path234" />
  <path
     style="fill:#000000;fill-rule:evenodd;fill-opacity:1;stroke:none;"
     d="  M 619.56935,217.49113   L 622.29003,210.80148   L 620.08948,210.80148   z "
     id="path235" />
  <path
     style="fill:#000000;fill-rule:evenodd;fill-opacity:1;stroke:none;"
     d="  M 622.29003,210.80148   L 620.08948,210.80148   L 621.72989,203.75131   z "
     id="path236" />
  <path
     style="fill:#000000;fill-rule:evenodd;fill-opacity:1;stroke:none;"
     d="  M 620.08948,210.80148   L 621.72989,203.75131   L 619.56935,204.11183   z "
     id="path237" />
  <path
     style="fill:#000000;fill-rule:evenodd;fill-opacity:1;stroke:none;"
     d="  M 621.72989,203.75131   L 619.56935,204.11183   L 620.08948,196.86138   z "
     id="path238" />
  <path
     style="fill:#000000;fill-rule:evenodd;fill-opacity:1;stroke:none;"
     d="  M 619.56935,204.11183   L 620.08948,196.86138   L 618.00895,197.54236   z "
     id="path239" />
  <path
     style="fill:#000000;fill-rule:evenodd;fill-opacity:1;stroke:none;"
     d="  M 620.08948,196.86138   L 618.00895,197.54236   L 617.36879,190.33196   z "
     id="path240" />
  <path
     style="fill:#000000;fill-rule:evenodd;fill-opacity:1;stroke:none;"
     d="  M 618.00895,197.54236   L 617.36879,190.33196   L 615.4083,191.33341   z "
     id="path241" />
  <path
     style="fill:#000000;fill-rule:evenodd;fill-opacity:1;stroke:none;"
     d="  M 617.36879,190.33196   L 615.4083,191.33341   L 613.68787,184.28324   z "
     id="path242" />
  <path
     style="fill:#000000;fill-rule:evenodd;fill-opacity:1;stroke:none;"
     d="  M 615.4083,191.33341   L 613.68787,184.28324   L 611.92743,185.60515   z "
     id="path243" />
  <path
     style="fill:#000000;fill-rule:evenodd;fill-opacity:1;stroke:none;"
     d="  M 613.68787,184.28324   L 611.92743,185.60515   L 609.12672,178.9155   z "
     id="path244" />
  <path
     style="fill:#000000;fill-rule:evenodd;fill-opacity:1;stroke:none;"
     d="  M 611.92743,185.60515   L 609.12672,178.9155   L 607.56633,180.47776   z "
     id="path245" />
  <path
     style="fill:#000000;fill-rule:evenodd;fill-opacity:1;stroke:none;"
     d="  M 609.12672,178.9155   L 607.56633,180.47776   L 603.72536,174.30886   z "
     id="path246" />
  <path
     style="fill:#000000;fill-rule:evenodd;fill-opacity:1;stroke:none;"
     d="  M 607.56633,180.47776   L 603.72536,174.30886   L 602.44504,176.11146   z "
     id="path247" />
  <path
     style="fill:#000000;fill-rule:evenodd;fill-opacity:1;stroke:none;"
     d="  M 603.72536,174.30886   L 602.44504,176.11146   L 597.72386,170.62355   z "
     id="path248" />
  <path
     style="fill:#000000;fill-rule:evenodd;fill-opacity:1;stroke:none;"
     d="  M 602.44504,176.11146   L 597.72386,170.62355   L 596.72361,172.58638   z "
     id="path249" />
  <path
     style="fill:#000000;fill-rule:evenodd;fill-opacity:1;stroke:none;"
     d="  M 597.72386,170.62355   L 596.72361,172.58638   L 591.20222,167.93968   z "
     id="path250" />
  <path
     style="fill:#000000;fill-rule:evenodd;fill-opacity:1;stroke:none;"
     d="  M 596.72361,172.58638   L 591.20222,167.93968   L 590.52205,170.02268   z "
     id="path251" />
  <path
     style="fill:#000000;fill-rule:evenodd;fill-opacity:1;stroke:none;"
     d="  M 591.20222,167.93968   L 590.52205,170.02268   L 584.32049,166.25725   z "
     id="path252" />
  <path
     style="fill:#000000;fill-rule:evenodd;fill-opacity:1;stroke:none;"
     d="  M 590.52205,170.02268   L 584.32049,166.25725   L 584.00041,168.46043   z "
     id="path253" />
  <path
     style="fill:#000000;fill-rule:evenodd;fill-opacity:1;stroke:none;"
     d="  M 584.32049,166.25725   L 584.00041,168.46043   L 577.27872,165.69644   z "
     id="path254" />
  <path
     style="fill:#000000;fill-rule:evenodd;fill-opacity:1;stroke:none;"
     d="  M 584.00041,168.46043   L 577.27872,165.69644   L 577.27872,167.89962   z "
     id="path255" />
  <path
     style="fill:#000000;fill-rule:evenodd;fill-opacity:1;stroke:none;"
     d="  M 577.27872,165.69644   L 577.27872,167.89962   L 570.23695,166.25725   z "
     id="path256" />
  <path
     style="fill:#000000;fill-rule:evenodd;fill-opacity:1;stroke:none;"
     d="  M 577.27872,167.89962   L 570.23695,166.25725   L 570.59704,168.46043   z "
     id="path257" />
  <path
     style="fill:#000000;fill-rule:evenodd;fill-opacity:1;stroke:none;"
     d="  M 570.23695,166.25725   L 570.59704,168.46043   L 563.39523,167.93968   z "
     id="path258" />
  <path
     style="fill:#000000;fill-rule:evenodd;fill-opacity:1;stroke:none;"
     d="  M 570.59704,168.46043   L 563.39523,167.93968   L 564.0754,170.02268   z "
     id="path259" />
  <path
     style="fill:#000000;fill-rule:evenodd;fill-opacity:1;stroke:none;"
     d="  M 563.39523,167.93968   L 564.0754,170.02268   L 556.87359,170.62355   z "
     id="path260" />
  <path
     style="fill:#000000;fill-rule:evenodd;fill-opacity:1;stroke:none;"
     d="  M 564.0754,170.02268   L 556.87359,170.62355   L 557.87384,172.58638   z "
     id="path261" />
  <path
     style="fill:#000000;fill-rule:evenodd;fill-opacity:1;stroke:none;"
     d="  M 556.87359,170.62355   L 557.87384,172.58638   L 550.83207,174.30886   z "
     id="path262" />
  <path
     style="fill:#000000;fill-rule:evenodd;fill-opacity:1;stroke:none;"
     d="  M 557.87384,172.58638   L 550.83207,174.30886   L 552.15241,176.11146   z "
     id="path263" />
  <path
     style="fill:#000000;fill-rule:evenodd;fill-opacity:1;stroke:none;"
     d="  M 550.83207,174.30886   L 552.15241,176.11146   L 545.47073,178.9155   z "
     id="path264" />
  <path
     style="fill:#000000;fill-rule:evenodd;fill-opacity:1;stroke:none;"
     d="  M 552.15241,176.11146   L 545.47073,178.9155   L 547.03112,180.47776   z "
     id="path265" />
  <path
     style="fill:#000000;fill-rule:evenodd;fill-opacity:1;stroke:none;"
     d="  M 545.47073,178.9155   L 547.03112,180.47776   L 540.90958,184.28324   z "
     id="path266" />
  <path
     style="fill:#000000;fill-rule:evenodd;fill-opacity:1;stroke:none;"
     d="  M 547.03112,180.47776   L 540.90958,184.28324   L 542.67002,185.60515   z "
     id="path267" />
  <path
     style="fill:#000000;fill-rule:evenodd;fill-opacity:1;stroke:none;"
     d="  M 540.90958,184.28324   L 542.67002,185.60515   L 537.18865,190.33196   z "
     id="path268" />
  <path
     style="fill:#000000;fill-rule:evenodd;fill-opacity:1;stroke:none;"
     d="  M 542.67002,185.60515   L 537.18865,190.33196   L 539.14914,191.33341   z "
     id="path269" />
  <path
     style="fill:#000000;fill-rule:evenodd;fill-opacity:1;stroke:none;"
     d="  M 537.18865,190.33196   L 539.14914,191.33341   L 534.50797,196.86138   z "
     id="path270" />
  <path
     style="fill:#000000;fill-rule:evenodd;fill-opacity:1;stroke:none;"
     d="  M 539.14914,191.33341   L 534.50797,196.86138   L 536.5885,197.54236   z "
     id="path271" />
  <path
     style="fill:#000000;fill-rule:evenodd;fill-opacity:1;stroke:none;"
     d="  M 534.50797,196.86138   L 536.5885,197.54236   L 532.86756,203.75131   z "
     id="path272" />
  <path
     style="fill:#000000;fill-rule:evenodd;fill-opacity:1;stroke:none;"
     d="  M 536.5885,197.54236   L 532.86756,203.75131   L 535.0281,204.11183   z "
     id="path273" />
  <path
     style="fill:#000000;fill-rule:evenodd;fill-opacity:1;stroke:none;"
     d="  M 532.86756,203.75131   L 535.0281,204.11183   L 532.30742,210.80148   z "
     id="path274" />
  <path
     style="fill:#000000;fill-rule:evenodd;fill-opacity:1;stroke:none;"
     d="  M 535.0281,204.11183   L 532.30742,210.80148   L 534.50797,210.80148   z "
     id="path275" />
  <path
     style="fill:#000000;fill-rule:evenodd;fill-opacity:1;stroke:none;"
     d="  M 532.30742,210.80148   L 534.50797,210.80148   L 532.86756,217.85165   z "
     id="path276" />
  <path
     style="fill:#000000;fill-rule:evenodd;fill-opacity:1;stroke:none;"
     d="  M 534.50797,210.80148   L 532.86756,217.85165   L 535.0281,217.49113   z "
     id="path277" />
  <path
     style="fill:#000000;fill-rule:evenodd;fill-opacity:1;stroke:none;"
     d="  M 532.86756,217.85165   L 535.0281,217.49113   L 534.50797,224.74158   z "
     id="path278" />
  <path
     style="fill:#000000;fill-rule:evenodd;fill-opacity:1;stroke:none;"
     d="  M 535.0281,217.49113   L 534.50797,224.74158   L 536.5885,224.0606   z "
     id="path279" />
  <path
     style="fill:#000000;fill-rule:evenodd;fill-opacity:1;stroke:none;"
     d="  M 534.50797,224.74158   L 536.5885,224.0606   L 537.18865,231.271   z "
     id="path280" />
  <path
     style="fill:#000000;fill-rule:evenodd;fill-opacity:1;stroke:none;"
     d="  M 536.5885,224.0606   L 537.18865,231.271   L 539.14914,230.26955   z "
     id="path281" />
  <path
     style="fill:#000000;fill-rule:evenodd;fill-opacity:1;stroke:none;"
     d="  M 537.18865,231.271   L 539.14914,230.26955   L 540.90958,237.31972   z "
     id="path282" />
  <path
     style="fill:#000000;fill-rule:evenodd;fill-opacity:1;stroke:none;"
     d="  M 539.14914,230.26955   L 540.90958,237.31972   L 542.67002,235.99781   z "
     id="path283" />
  <path
     style="fill:#000000;fill-rule:evenodd;fill-opacity:1;stroke:none;"
     d="  M 540.90958,237.31972   L 542.67002,235.99781   L 545.47073,242.68746   z "
     id="path284" />
  <path
     style="fill:#000000;fill-rule:evenodd;fill-opacity:1;stroke:none;"
     d="  M 542.67002,235.99781   L 545.47073,242.68746   L 547.03112,241.12521   z "
     id="path285" />
  <path
     style="fill:#000000;fill-rule:evenodd;fill-opacity:1;stroke:none;"
     d="  M 545.47073,242.68746   L 547.03112,241.12521   L 550.83207,247.2941   z "
     id="path286" />
  <path
     style="fill:#000000;fill-rule:evenodd;fill-opacity:1;stroke:none;"
     d="  M 547.03112,241.12521   L 550.83207,247.2941   L 552.15241,245.4915   z "
     id="path287" />
  <path
     style="fill:#000000;fill-rule:evenodd;fill-opacity:1;stroke:none;"
     d="  M 550.83207,247.2941   L 552.15241,245.4915   L 556.87359,250.97941   z "
     id="path288" />
  <path
     style="fill:#000000;fill-rule:evenodd;fill-opacity:1;stroke:none;"
     d="  M 552.15241,245.4915   L 556.87359,250.97941   L 557.87384,249.01658   z "
     id="path289" />
  <path
     style="fill:#000000;fill-rule:evenodd;fill-opacity:1;stroke:none;"
     d="  M 556.87359,250.97941   L 557.87384,249.01658   L 563.39523,253.66328   z "
     id="path290" />
  <path
     style="fill:#000000;fill-rule:evenodd;fill-opacity:1;stroke:none;"
     d="  M 557.87384,249.01658   L 563.39523,253.66328   L 564.0754,251.58028   z "
     id="path291" />
  <path
     style="fill:#000000;fill-rule:evenodd;fill-opacity:1;stroke:none;"
     d="  M 563.39523,253.66328   L 564.0754,251.58028   L 570.23695,255.34571   z "
     id="path292" />
  <path
     style="fill:#000000;fill-rule:evenodd;fill-opacity:1;stroke:none;"
     d="  M 564.0754,251.58028   L 570.23695,255.34571   L 570.59704,253.14253   z "
     id="path293" />
  <path
     style="fill:#000000;fill-rule:evenodd;fill-opacity:1;stroke:none;"
     d="  M 570.23695,255.34571   L 570.59704,253.14253   L 577.27872,255.90652   z "
     id="path294" />
  <path
     style="fill:#000000;fill-rule:evenodd;fill-opacity:1;stroke:none;"
     d="  M 570.59704,253.14253   L 577.27872,255.90652   L 577.27872,253.70334   z "
     id="path295" />
  <path
     style="fill:#000000;fill-rule:evenodd;fill-opacity:1;stroke:none;"
     d="  M 577.27872,248.57595   L 577.27872,246.37277   L 583.84037,247.97508   z "
     id="path296" />
  <path
     style="fill:#000000;fill-rule:evenodd;fill-opacity:1;stroke:none;"
     d="  M 577.27872,246.37277   L 583.84037,247.97508   L 583.44027,245.81196   z "
     id="path297" />
  <path
     style="fill:#000000;fill-rule:evenodd;fill-opacity:1;stroke:none;"
     d="  M 583.84037,247.97508   L 583.44027,245.81196   L 590.16196,246.29266   z "
     id="path298" />
  <path
     style="fill:#000000;fill-rule:evenodd;fill-opacity:1;stroke:none;"
     d="  M 583.44027,245.81196   L 590.16196,246.29266   L 589.44178,244.20965   z "
     id="path299" />
  <path
     style="fill:#000000;fill-rule:evenodd;fill-opacity:1;stroke:none;"
     d="  M 590.16196,246.29266   L 589.44178,244.20965   L 596.12345,243.48861   z "
     id="path300" />
  <path
     style="fill:#000000;fill-rule:evenodd;fill-opacity:1;stroke:none;"
     d="  M 589.44178,244.20965   L 596.12345,243.48861   L 595.04318,241.6059   z "
     id="path301" />
  <path
     style="fill:#000000;fill-rule:evenodd;fill-opacity:1;stroke:none;"
     d="  M 596.12345,243.48861   L 595.04318,241.6059   L 601.52481,239.72318   z "
     id="path302" />
  <path
     style="fill:#000000;fill-rule:evenodd;fill-opacity:1;stroke:none;"
     d="  M 595.04318,241.6059   L 601.52481,239.72318   L 600.08445,238.04076   z "
     id="path303" />
  <path
     style="fill:#000000;fill-rule:evenodd;fill-opacity:1;stroke:none;"
     d="  M 601.52481,239.72318   L 600.08445,238.04076   L 606.16598,235.07648   z "
     id="path304" />
  <path
     style="fill:#000000;fill-rule:evenodd;fill-opacity:1;stroke:none;"
     d="  M 600.08445,238.04076   L 606.16598,235.07648   L 604.48556,233.67446   z "
     id="path305" />
  <path
     style="fill:#000000;fill-rule:evenodd;fill-opacity:1;stroke:none;"
     d="  M 606.16598,235.07648   L 604.48556,233.67446   L 609.92692,229.66869   z "
     id="path306" />
  <path
     style="fill:#000000;fill-rule:evenodd;fill-opacity:1;stroke:none;"
     d="  M 604.48556,233.67446   L 609.92692,229.66869   L 608.00644,228.58713   z "
     id="path307" />
  <path
     style="fill:#000000;fill-rule:evenodd;fill-opacity:1;stroke:none;"
     d="  M 609.92692,229.66869   L 608.00644,228.58713   L 612.68762,223.70008   z "
     id="path308" />
  <path
     style="fill:#000000;fill-rule:evenodd;fill-opacity:1;stroke:none;"
     d="  M 608.00644,228.58713   L 612.68762,223.70008   L 610.6471,222.97904   z "
     id="path309" />
  <path
     style="fill:#000000;fill-rule:evenodd;fill-opacity:1;stroke:none;"
     d="  M 612.68762,223.70008   L 610.6471,222.97904   L 614.40805,217.37095   z "
     id="path310" />
  <path
     style="fill:#000000;fill-rule:evenodd;fill-opacity:1;stroke:none;"
     d="  M 610.6471,222.97904   L 614.40805,217.37095   L 612.24751,216.97038   z "
     id="path311" />
  <path
     style="fill:#000000;fill-rule:evenodd;fill-opacity:1;stroke:none;"
     d="  M 614.40805,217.37095   L 612.24751,216.97038   L 614.96819,210.80148   z "
     id="path312" />
  <path
     style="fill:#000000;fill-rule:evenodd;fill-opacity:1;stroke:none;"
     d="  M 612.24751,216.97038   L 614.96819,210.80148   L 612.76764,210.80148   z "
     id="path313" />
  <path
     style="fill:#000000;fill-rule:evenodd;fill-opacity:1;stroke:none;"
     d="  M 614.96819,210.80148   L 612.76764,210.80148   L 614.40805,204.23201   z "
     id="path314" />
  <path
     style="fill:#000000;fill-rule:evenodd;fill-opacity:1;stroke:none;"
     d="  M 612.76764,210.80148   L 614.40805,204.23201   L 612.24751,204.63259   z "
     id="path315" />
  <path
     style="fill:#000000;fill-rule:evenodd;fill-opacity:1;stroke:none;"
     d="  M 614.40805,204.23201   L 612.24751,204.63259   L 612.68762,197.90288   z "
     id="path316" />
  <path
     style="fill:#000000;fill-rule:evenodd;fill-opacity:1;stroke:none;"
     d="  M 612.24751,204.63259   L 612.68762,197.90288   L 610.6471,198.62392   z "
     id="path317" />
  <path
     style="fill:#000000;fill-rule:evenodd;fill-opacity:1;stroke:none;"
     d="  M 612.68762,197.90288   L 610.6471,198.62392   L 609.92692,191.93427   z "
     id="path318" />
  <path
     style="fill:#000000;fill-rule:evenodd;fill-opacity:1;stroke:none;"
     d="  M 610.6471,198.62392   L 609.92692,191.93427   L 608.00644,193.01583   z "
     id="path319" />
  <path
     style="fill:#000000;fill-rule:evenodd;fill-opacity:1;stroke:none;"
     d="  M 609.92692,191.93427   L 608.00644,193.01583   L 606.16598,186.52648   z "
     id="path320" />
  <path
     style="fill:#000000;fill-rule:evenodd;fill-opacity:1;stroke:none;"
     d="  M 608.00644,193.01583   L 606.16598,186.52648   L 604.48556,187.9285   z "
     id="path321" />
  <path
     style="fill:#000000;fill-rule:evenodd;fill-opacity:1;stroke:none;"
     d="  M 606.16598,186.52648   L 604.48556,187.9285   L 601.52481,181.87978   z "
     id="path322" />
  <path
     style="fill:#000000;fill-rule:evenodd;fill-opacity:1;stroke:none;"
     d="  M 604.48556,187.9285   L 601.52481,181.87978   L 600.08445,183.5622   z "
     id="path323" />
  <path
     style="fill:#000000;fill-rule:evenodd;fill-opacity:1;stroke:none;"
     d="  M 601.52481,181.87978   L 600.08445,183.5622   L 596.12345,178.11435   z "
     id="path324" />
  <path
     style="fill:#000000;fill-rule:evenodd;fill-opacity:1;stroke:none;"
     d="  M 600.08445,183.5622   L 596.12345,178.11435   L 595.04318,179.99706   z "
     id="path325" />
  <path
     style="fill:#000000;fill-rule:evenodd;fill-opacity:1;stroke:none;"
     d="  M 596.12345,178.11435   L 595.04318,179.99706   L 590.16196,175.3103   z "
     id="path326" />
  <path
     style="fill:#000000;fill-rule:evenodd;fill-opacity:1;stroke:none;"
     d="  M 595.04318,179.99706   L 590.16196,175.3103   L 589.44178,177.39331   z "
     id="path327" />
  <path
     style="fill:#000000;fill-rule:evenodd;fill-opacity:1;stroke:none;"
     d="  M 590.16196,175.3103   L 589.44178,177.39331   L 583.84037,173.62788   z "
     id="path328" />
  <path
     style="fill:#000000;fill-rule:evenodd;fill-opacity:1;stroke:none;"
     d="  M 589.44178,177.39331   L 583.84037,173.62788   L 583.44027,175.791   z "
     id="path329" />
  <path
     style="fill:#000000;fill-rule:evenodd;fill-opacity:1;stroke:none;"
     d="  M 583.84037,173.62788   L 583.44027,175.791   L 577.27872,173.06707   z "
     id="path330" />
  <path
     style="fill:#000000;fill-rule:evenodd;fill-opacity:1;stroke:none;"
     d="  M 583.44027,175.791   L 577.27872,173.06707   L 577.27872,175.23019   z "
     id="path331" />
  <path
     style="fill:#000000;fill-rule:evenodd;fill-opacity:1;stroke:none;"
     d="  M 577.27872,173.06707   L 577.27872,175.23019   L 570.75708,173.62788   z "
     id="path332" />
  <path
     style="fill:#000000;fill-rule:evenodd;fill-opacity:1;stroke:none;"
     d="  M 577.27872,175.23019   L 570.75708,173.62788   L 571.11717,175.791   z "
     id="path333" />
  <path
     style="fill:#000000;fill-rule:evenodd;fill-opacity:1;stroke:none;"
     d="  M 570.75708,173.62788   L 571.11717,175.791   L 564.39548,175.3103   z "
     id="path334" />
  <path
     style="fill:#000000;fill-rule:evenodd;fill-opacity:1;stroke:none;"
     d="  M 571.11717,175.791   L 564.39548,175.3103   L 565.15567,177.39331   z "
     id="path335" />
  <path
     style="fill:#000000;fill-rule:evenodd;fill-opacity:1;stroke:none;"
     d="  M 564.39548,175.3103   L 565.15567,177.39331   L 558.47399,178.11435   z "
     id="path336" />
  <path
     style="fill:#000000;fill-rule:evenodd;fill-opacity:1;stroke:none;"
     d="  M 565.15567,177.39331   L 558.47399,178.11435   L 559.55427,179.99706   z "
     id="path337" />
  <path
     style="fill:#000000;fill-rule:evenodd;fill-opacity:1;stroke:none;"
     d="  M 558.47399,178.11435   L 559.55427,179.99706   L 553.07264,181.87978   z "
     id="path338" />
  <path
     style="fill:#000000;fill-rule:evenodd;fill-opacity:1;stroke:none;"
     d="  M 559.55427,179.99706   L 553.07264,181.87978   L 554.47299,183.5622   z "
     id="path339" />
  <path
     style="fill:#000000;fill-rule:evenodd;fill-opacity:1;stroke:none;"
     d="  M 553.07264,181.87978   L 554.47299,183.5622   L 548.43147,186.52648   z "
     id="path340" />
  <path
     style="fill:#000000;fill-rule:evenodd;fill-opacity:1;stroke:none;"
     d="  M 554.47299,183.5622   L 548.43147,186.52648   L 550.11189,187.9285   z "
     id="path341" />
  <path
     style="fill:#000000;fill-rule:evenodd;fill-opacity:1;stroke:none;"
     d="  M 548.43147,186.52648   L 550.11189,187.9285   L 544.67053,191.93427   z "
     id="path342" />
  <path
     style="fill:#000000;fill-rule:evenodd;fill-opacity:1;stroke:none;"
     d="  M 550.11189,187.9285   L 544.67053,191.93427   L 546.551,193.01583   z "
     id="path343" />
  <path
     style="fill:#000000;fill-rule:evenodd;fill-opacity:1;stroke:none;"
     d="  M 544.67053,191.93427   L 546.551,193.01583   L 541.90983,197.90288   z "
     id="path344" />
  <path
     style="fill:#000000;fill-rule:evenodd;fill-opacity:1;stroke:none;"
     d="  M 546.551,193.01583   L 541.90983,197.90288   L 543.95035,198.62392   z "
     id="path345" />
  <path
     style="fill:#000000;fill-rule:evenodd;fill-opacity:1;stroke:none;"
     d="  M 541.90983,197.90288   L 543.95035,198.62392   L 540.1894,204.23201   z "
     id="path346" />
  <path
     style="fill:#000000;fill-rule:evenodd;fill-opacity:1;stroke:none;"
     d="  M 543.95035,198.62392   L 540.1894,204.23201   L 542.34994,204.63259   z "
     id="path347" />
  <path
     style="fill:#000000;fill-rule:evenodd;fill-opacity:1;stroke:none;"
     d="  M 540.1894,204.23201   L 542.34994,204.63259   L 539.62926,210.80148   z "
     id="path348" />
  <path
     style="fill:#000000;fill-rule:evenodd;fill-opacity:1;stroke:none;"
     d="  M 542.34994,204.63259   L 539.62926,210.80148   L 541.82981,210.80148   z "
     id="path349" />
  <path
     style="fill:#000000;fill-rule:evenodd;fill-opacity:1;stroke:none;"
     d="  M 539.62926,210.80148   L 541.82981,210.80148   L 540.1894,217.37095   z "
     id="path350" />
  <path
     style="fill:#000000;fill-rule:evenodd;fill-opacity:1;stroke:none;"
     d="  M 541.82981,210.80148   L 540.1894,217.37095   L 542.34994,216.97038   z "
     id="path351" />
  <path
     style="fill:#000000;fill-rule:evenodd;fill-opacity:1;stroke:none;"
     d="  M 540.1894,217.37095   L 542.34994,216.97038   L 541.90983,223.70008   z "
     id="path352" />
  <path
     style="fill:#000000;fill-rule:evenodd;fill-opacity:1;stroke:none;"
     d="  M 542.34994,216.97038   L 541.90983,223.70008   L 543.95035,222.97904   z "
     id="path353" />
  <path
     style="fill:#000000;fill-rule:evenodd;fill-opacity:1;stroke:none;"
     d="  M 541.90983,223.70008   L 543.95035,222.97904   L 544.67053,229.66869   z "
     id="path354" />
  <path
     style="fill:#000000;fill-rule:evenodd;fill-opacity:1;stroke:none;"
     d="  M 543.95035,222.97904   L 544.67053,229.66869   L 546.551,228.58713   z "
     id="path355" />
  <path
     style="fill:#000000;fill-rule:evenodd;fill-opacity:1;stroke:none;"
     d="  M 544.67053,229.66869   L 546.551,228.58713   L 548.43147,235.07648   z "
     id="path356" />
  <path
     style="fill:#000000;fill-rule:evenodd;fill-opacity:1;stroke:none;"
     d="  M 546.551,228.58713   L 548.43147,235.07648   L 550.11189,233.67446   z "
     id="path357" />
  <path
     style="fill:#000000;fill-rule:evenodd;fill-opacity:1;stroke:none;"
     d="  M 548.43147,235.07648   L 550.11189,233.67446   L 553.07264,239.72318   z "
     id="path358" />
  <path
     style="fill:#000000;fill-rule:evenodd;fill-opacity:1;stroke:none;"
     d="  M 550.11189,233.67446   L 553.07264,239.72318   L 554.47299,238.04076   z "
     id="path359" />
  <path
     style="fill:#000000;fill-rule:evenodd;fill-opacity:1;stroke:none;"
     d="  M 553.07264,239.72318   L 554.47299,238.04076   L 558.47399,243.48861   z "
     id="path360" />
  <path
     style="fill:#000000;fill-rule:evenodd;fill-opacity:1;stroke:none;"
     d="  M 554.47299,238.04076   L 558.47399,243.48861   L 559.55427,241.6059   z "
     id="path361" />
  <path
     style="fill:#000000;fill-rule:evenodd;fill-opacity:1;stroke:none;"
     d="  M 558.47399,243.48861   L 559.55427,241.6059   L 564.39548,246.29266   z "
     id="path362" />
  <path
     style="fill:#000000;fill-rule:evenodd;fill-opacity:1;stroke:none;"
     d="  M 559.55427,241.6059   L 564.39548,246.29266   L 565.15567,244.20965   z "
     id="path363" />
  <path
     style="fill:#000000;fill-rule:evenodd;fill-opacity:1;stroke:none;"
     d="  M 564.39548,246.29266   L 565.15567,244.20965   L 570.75708,247.97508   z "
     id="path364" />
  <path
     style="fill:#000000;fill-rule:evenodd;fill-opacity:1;stroke:none;"
     d="  M 565.15567,244.20965   L 570.75708,247.97508   L 571.11717,245.81196   z "
     id="path365" />
  <path
     style="fill:#000000;fill-rule:evenodd;fill-opacity:1;stroke:none;"
     d="  M 570.75708,247.97508   L 571.11717,245.81196   L 577.27872,248.57595   z "
     id="path366" />
  <path
     style="fill:#000000;fill-rule:evenodd;fill-opacity:1;stroke:none;"
     d="  M 571.11717,245.81196   L 577.27872,248.57595   L 577.27872,246.37277   z "
     id="path367" />
  <path
     style="fill:none;stroke:#000000;stroke-width:0.96024126px;stroke-linecap:round;stroke-linejoin:round;stroke-miterlimit:4;stroke-dasharray:none;stroke-opacity:1;"
     d="  M 366.82584,226.6243   L 398.87389,288.23313  "
     id="path368" />
  <path
     style="fill:none;stroke:#000000;stroke-width:0.96024126px;stroke-linecap:round;stroke-linejoin:round;stroke-miterlimit:4;stroke-dasharray:none;stroke-opacity:1;"
     d="  M 398.87389,288.23313   L 420.7994,288.23313  "
     id="path369" />
  <path
     style="fill:none;stroke:#000000;stroke-width:0.96024126px;stroke-linecap:round;stroke-linejoin:round;stroke-miterlimit:4;stroke-dasharray:none;stroke-opacity:1;"
     d="  M 409.19649,39.43438   L 396.15321,51.451708  "
     id="path370" />
  <path
     style="fill:none;stroke:#000000;stroke-width:0.96024126px;stroke-linecap:round;stroke-linejoin:round;stroke-miterlimit:4;stroke-dasharray:none;stroke-opacity:1;"
     d="  M 402.99493,45.16264   L 403.43504,43.119694   L 403.23499,41.677615   L 402.03469,40.395766   L 400.63434,40.075304   L 398.59382,40.355709   L 396.31325,41.637557   L 395.07294,42.799232   L 393.63258,44.922293   L 393.15246,46.965239   L 393.35251,48.407318   L 394.55281,49.689167   L 395.99317,50.009629   L 398.03368,49.729225  "
     id="path371" />
  <path
     style="fill:none;stroke:#000000;stroke-width:0.96024126px;stroke-linecap:round;stroke-linejoin:round;stroke-miterlimit:4;stroke-dasharray:none;stroke-opacity:1;"
     d="  M 404.55532,49.328647   L 404.43529,49.849398   L 404.95542,49.769282   L 405.03544,49.288589   L 404.55532,49.328647   z "
     id="path372" />
  <path
     style="fill:none;stroke:#000000;stroke-width:0.96024126px;stroke-linecap:round;stroke-linejoin:round;stroke-miterlimit:4;stroke-dasharray:none;stroke-opacity:1;"
     d="  M 402.8749,51.291477   L 398.55381,55.297253  "
     id="path373" />
  <path
     style="fill:none;stroke:#000000;stroke-width:0.96024126px;stroke-linecap:round;stroke-linejoin:round;stroke-miterlimit:4;stroke-dasharray:none;stroke-opacity:1;"
     d="  M 288.36613,111.33806   L 277.80348,121.0721   L 276.36311,123.23522   L 276.52315,124.67729   L 277.32335,125.55857  "
     id="path374" />
  <path
     style="fill:none;stroke:#000000;stroke-width:0.96024126px;stroke-linecap:round;stroke-linejoin:round;stroke-miterlimit:4;stroke-dasharray:none;stroke-opacity:1;"
     d="  M 282.80473,114.02193   L 285.60544,117.10638  "
     id="path375" />
  <path
     style="fill:none;stroke:#000000;stroke-width:0.96024126px;stroke-linecap:round;stroke-linejoin:round;stroke-miterlimit:4;stroke-dasharray:none;stroke-opacity:1;"
     d="  M 285.32537,122.99487   L 285.20533,123.51562   L 285.72547,123.4355   L 285.80549,122.95481   L 285.32537,122.99487   z "
     id="path376" />
  <path
     style="fill:none;stroke:#000000;stroke-width:0.96024126px;stroke-linecap:round;stroke-linejoin:round;stroke-miterlimit:4;stroke-dasharray:none;stroke-opacity:1;"
     d="  M 283.64494,124.9577   L 279.32386,128.96348  "
     id="path377" />
</svg>
