<?xml version="1.0" encoding="UTF-8" standalone="no"?>
<svg
   version="1.0"
   width="52.529999mm"
   height="43.330002mm"
   id="svg106"
   sodipodi:docname="image275.emf"
   xmlns:inkscape="http://www.inkscape.org/namespaces/inkscape"
   xmlns:sodipodi="http://sodipodi.sourceforge.net/DTD/sodipodi-0.dtd"
   xmlns="http://www.w3.org/2000/svg"
   xmlns:svg="http://www.w3.org/2000/svg">
  <sodipodi:namedview
     id="namedview106"
     pagecolor="#ffffff"
     bordercolor="#000000"
     borderopacity="0.25"
     inkscape:showpageshadow="2"
     inkscape:pageopacity="0.0"
     inkscape:pagecheckerboard="0"
     inkscape:deskcolor="#d1d1d1"
     inkscape:document-units="mm" />
  <defs
     id="defs1">
    <pattern
       id="EMFhbasepattern"
       patternUnits="userSpaceOnUse"
       width="6"
       height="6"
       x="0"
       y="0" />
  </defs>
  <path
     style="fill:#000000;fill-rule:evenodd;fill-opacity:1;stroke:none;"
     d="  M 184.85096,84.232902   L 184.85096,82.71524   L 10.928563,84.232902   z "
     id="path1" />
  <path
     style="fill:#000000;fill-rule:evenodd;fill-opacity:1;stroke:none;"
     d="  M 184.85096,82.71524   L 10.928563,84.232902   L 10.928563,82.71524   z "
     id="path2" />
  <path
     style="fill:#000000;fill-rule:evenodd;fill-opacity:1;stroke:none;"
     d="  M 184.85096,88.905706   L 184.85096,88.146874   L 170.65322,88.905706   z "
     id="path3" />
  <path
     style="fill:#000000;fill-rule:evenodd;fill-opacity:1;stroke:none;"
     d="  M 184.85096,88.146874   L 170.65322,88.905706   L 170.65322,88.146874   z "
     id="path4" />
  <path
     style="fill:#000000;fill-rule:evenodd;fill-opacity:1;stroke:none;"
     d="  M 165.66805,88.905706   L 165.66805,88.146874   L 153.10544,88.905706   z "
     id="path5" />
  <path
     style="fill:#000000;fill-rule:evenodd;fill-opacity:1;stroke:none;"
     d="  M 165.66805,88.146874   L 153.10544,88.905706   L 153.10544,88.146874   z "
     id="path6" />
  <path
     style="fill:#000000;fill-rule:evenodd;fill-opacity:1;stroke:none;"
     d="  M 148.08039,88.905706   L 148.08039,88.146874   L 135.51778,88.905706   z "
     id="path7" />
  <path
     style="fill:#000000;fill-rule:evenodd;fill-opacity:1;stroke:none;"
     d="  M 148.08039,88.146874   L 135.51778,88.905706   L 135.51778,88.146874   z "
     id="path8" />
  <path
     style="fill:#000000;fill-rule:evenodd;fill-opacity:1;stroke:none;"
     d="  M 130.53262,88.905706   L 130.53262,88.146874   L 117.97,88.905706   z "
     id="path9" />
  <path
     style="fill:#000000;fill-rule:evenodd;fill-opacity:1;stroke:none;"
     d="  M 130.53262,88.146874   L 117.97,88.905706   L 117.97,88.146874   z "
     id="path10" />
  <path
     style="fill:#000000;fill-rule:evenodd;fill-opacity:1;stroke:none;"
     d="  M 112.94496,88.905706   L 112.94496,88.146874   L 100.38235,88.905706   z "
     id="path11" />
  <path
     style="fill:#000000;fill-rule:evenodd;fill-opacity:1;stroke:none;"
     d="  M 112.94496,88.146874   L 100.38235,88.905706   L 100.38235,88.146874   z "
     id="path12" />
  <path
     style="fill:#000000;fill-rule:evenodd;fill-opacity:1;stroke:none;"
     d="  M 95.397182,88.905706   L 95.397182,88.146874   L 82.834569,88.905706   z "
     id="path13" />
  <path
     style="fill:#000000;fill-rule:evenodd;fill-opacity:1;stroke:none;"
     d="  M 95.397182,88.146874   L 82.834569,88.905706   L 82.834569,88.146874   z "
     id="path14" />
  <path
     style="fill:#000000;fill-rule:evenodd;fill-opacity:1;stroke:none;"
     d="  M 77.809523,88.905706   L 77.809523,88.146874   L 65.24691,88.905706   z "
     id="path15" />
  <path
     style="fill:#000000;fill-rule:evenodd;fill-opacity:1;stroke:none;"
     d="  M 77.809523,88.146874   L 65.24691,88.905706   L 65.24691,88.146874   z "
     id="path16" />
  <path
     style="fill:#000000;fill-rule:evenodd;fill-opacity:1;stroke:none;"
     d="  M 60.221865,88.905706   L 60.221865,88.146874   L 47.699133,88.905706   z "
     id="path17" />
  <path
     style="fill:#000000;fill-rule:evenodd;fill-opacity:1;stroke:none;"
     d="  M 60.221865,88.146874   L 47.699133,88.905706   L 47.699133,88.146874   z "
     id="path18" />
  <path
     style="fill:#000000;fill-rule:evenodd;fill-opacity:1;stroke:none;"
     d="  M 42.674087,88.905706   L 42.674087,88.146874   L 30.111474,88.905706   z "
     id="path19" />
  <path
     style="fill:#000000;fill-rule:evenodd;fill-opacity:1;stroke:none;"
     d="  M 42.674087,88.146874   L 30.111474,88.905706   L 30.111474,88.146874   z "
     id="path20" />
  <path
     style="fill:#000000;fill-rule:evenodd;fill-opacity:1;stroke:none;"
     d="  M 25.086429,88.905706   L 25.086429,88.146874   L 10.928563,88.905706   z "
     id="path21" />
  <path
     style="fill:#000000;fill-rule:evenodd;fill-opacity:1;stroke:none;"
     d="  M 25.086429,88.146874   L 10.928563,88.905706   L 10.928563,88.146874   z "
     id="path22" />
  <path
     style="fill:#000000;fill-rule:evenodd;fill-opacity:1;stroke:none;"
     d="  M 10.928563,88.905706   L 10.928563,88.146874   L 10.928563,88.146874   z "
     id="path23" />
  <path
     style="fill:none;stroke:#000000;stroke-width:0.95715147px;stroke-linecap:round;stroke-linejoin:round;stroke-miterlimit:4;stroke-dasharray:none;stroke-opacity:1;"
     d="  M 184.85096,103.60307   L 115.53724,103.60307  "
     id="path24" />
  <path
     style="fill:none;stroke:#000000;stroke-width:0.95715147px;stroke-linecap:round;stroke-linejoin:round;stroke-miterlimit:4;stroke-dasharray:none;stroke-opacity:1;"
     d="  M 102.97463,103.60307   L 90.451899,103.60307  "
     id="path25" />
  <path
     style="fill:none;stroke:#000000;stroke-width:0.95715147px;stroke-linecap:round;stroke-linejoin:round;stroke-miterlimit:4;stroke-dasharray:none;stroke-opacity:1;"
     d="  M 77.889286,103.60307   L 8.5755658,103.60307  "
     id="path26" />
  <path
     style="fill:none;stroke:#000000;stroke-width:0.95715147px;stroke-linecap:round;stroke-linejoin:round;stroke-miterlimit:4;stroke-dasharray:none;stroke-opacity:1;"
     d="  M 184.85096,79.79973   L 184.85096,97.053158   L 195.89809,100.56774   L 173.80384,106.6384   L 184.85096,110.15298   L 184.85096,127.96555  "
     id="path27" />
  <path
     style="fill:#000000;fill-rule:evenodd;fill-opacity:1;stroke:none;"
     d="  M 184.85096,124.4909   L 184.85096,122.97324   L 10.928563,124.4909   z "
     id="path28" />
  <path
     style="fill:#000000;fill-rule:evenodd;fill-opacity:1;stroke:none;"
     d="  M 184.85096,122.97324   L 10.928563,124.4909   L 10.928563,122.97324   z "
     id="path29" />
  <path
     style="fill:#000000;fill-rule:evenodd;fill-opacity:1;stroke:none;"
     d="  M 184.85096,119.05927   L 184.85096,118.30043   L 170.65322,119.05927   z "
     id="path30" />
  <path
     style="fill:#000000;fill-rule:evenodd;fill-opacity:1;stroke:none;"
     d="  M 184.85096,118.30043   L 170.65322,119.05927   L 170.65322,118.30043   z "
     id="path31" />
  <path
     style="fill:#000000;fill-rule:evenodd;fill-opacity:1;stroke:none;"
     d="  M 165.66805,119.05927   L 165.66805,118.30043   L 153.10544,119.05927   z "
     id="path32" />
  <path
     style="fill:#000000;fill-rule:evenodd;fill-opacity:1;stroke:none;"
     d="  M 165.66805,118.30043   L 153.10544,119.05927   L 153.10544,118.30043   z "
     id="path33" />
  <path
     style="fill:#000000;fill-rule:evenodd;fill-opacity:1;stroke:none;"
     d="  M 148.08039,119.05927   L 148.08039,118.30043   L 135.51778,119.05927   z "
     id="path34" />
  <path
     style="fill:#000000;fill-rule:evenodd;fill-opacity:1;stroke:none;"
     d="  M 148.08039,118.30043   L 135.51778,119.05927   L 135.51778,118.30043   z "
     id="path35" />
  <path
     style="fill:#000000;fill-rule:evenodd;fill-opacity:1;stroke:none;"
     d="  M 130.53262,119.05927   L 130.53262,118.30043   L 117.97,119.05927   z "
     id="path36" />
  <path
     style="fill:#000000;fill-rule:evenodd;fill-opacity:1;stroke:none;"
     d="  M 130.53262,118.30043   L 117.97,119.05927   L 117.97,118.30043   z "
     id="path37" />
  <path
     style="fill:#000000;fill-rule:evenodd;fill-opacity:1;stroke:none;"
     d="  M 112.94496,119.05927   L 112.94496,118.30043   L 100.38235,119.05927   z "
     id="path38" />
  <path
     style="fill:#000000;fill-rule:evenodd;fill-opacity:1;stroke:none;"
     d="  M 112.94496,118.30043   L 100.38235,119.05927   L 100.38235,118.30043   z "
     id="path39" />
  <path
     style="fill:#000000;fill-rule:evenodd;fill-opacity:1;stroke:none;"
     d="  M 95.397182,119.05927   L 95.397182,118.30043   L 82.834569,119.05927   z "
     id="path40" />
  <path
     style="fill:#000000;fill-rule:evenodd;fill-opacity:1;stroke:none;"
     d="  M 95.397182,118.30043   L 82.834569,119.05927   L 82.834569,118.30043   z "
     id="path41" />
  <path
     style="fill:#000000;fill-rule:evenodd;fill-opacity:1;stroke:none;"
     d="  M 77.809523,119.05927   L 77.809523,118.30043   L 65.24691,119.05927   z "
     id="path42" />
  <path
     style="fill:#000000;fill-rule:evenodd;fill-opacity:1;stroke:none;"
     d="  M 77.809523,118.30043   L 65.24691,119.05927   L 65.24691,118.30043   z "
     id="path43" />
  <path
     style="fill:#000000;fill-rule:evenodd;fill-opacity:1;stroke:none;"
     d="  M 60.221865,119.05927   L 60.221865,118.30043   L 47.699133,119.05927   z "
     id="path44" />
  <path
     style="fill:#000000;fill-rule:evenodd;fill-opacity:1;stroke:none;"
     d="  M 60.221865,118.30043   L 47.699133,119.05927   L 47.699133,118.30043   z "
     id="path45" />
  <path
     style="fill:#000000;fill-rule:evenodd;fill-opacity:1;stroke:none;"
     d="  M 42.674087,119.05927   L 42.674087,118.30043   L 30.111474,119.05927   z "
     id="path46" />
  <path
     style="fill:#000000;fill-rule:evenodd;fill-opacity:1;stroke:none;"
     d="  M 42.674087,118.30043   L 30.111474,119.05927   L 30.111474,118.30043   z "
     id="path47" />
  <path
     style="fill:#000000;fill-rule:evenodd;fill-opacity:1;stroke:none;"
     d="  M 25.086429,119.05927   L 25.086429,118.30043   L 10.928563,119.05927   z "
     id="path48" />
  <path
     style="fill:#000000;fill-rule:evenodd;fill-opacity:1;stroke:none;"
     d="  M 25.086429,118.30043   L 10.928563,119.05927   L 10.928563,118.30043   z "
     id="path49" />
  <path
     style="fill:#000000;fill-rule:evenodd;fill-opacity:1;stroke:none;"
     d="  M 10.928563,119.05927   L 10.928563,118.30043   L 10.928563,118.30043   z "
     id="path50" />
  <path
     style="fill:none;stroke:#000000;stroke-width:0.95715147px;stroke-linecap:round;stroke-linejoin:round;stroke-miterlimit:4;stroke-dasharray:none;stroke-opacity:1;"
     d="  M 10.928563,69.655354   L 10.928563,97.332727   L 21.975687,100.84731   L -0.1185602,106.87803   L 10.928563,110.39261   L 10.928563,135.55386  "
     id="path51" />
  <path
     style="fill:none;stroke:#000000;stroke-width:0.95715147px;stroke-linecap:round;stroke-linejoin:round;stroke-miterlimit:4;stroke-dasharray:none;stroke-opacity:1;"
     d="  M 78.00893,102.08541   L 103.8919,73.888833  "
     id="path52" />
  <path
     style="fill:none;stroke:#000000;stroke-width:0.95715147px;stroke-linecap:round;stroke-linejoin:round;stroke-miterlimit:4;stroke-dasharray:none;stroke-opacity:1;"
     d="  M 112.38662,64.663042   L 120.88134,55.397313  "
     id="path53" />
  <path
     style="fill:none;stroke:#000000;stroke-width:0.95715147px;stroke-linecap:round;stroke-linejoin:round;stroke-miterlimit:4;stroke-dasharray:none;stroke-opacity:1;"
     d="  M 129.37606,46.131583   L 155.29891,17.974948  "
     id="path54" />
  <path
     style="fill:#000000;fill-rule:evenodd;fill-opacity:1;stroke:none;"
     d="  M 77.490473,82.954871   L 78.607149,83.993271   L 145.48811,8.9488492   z "
     id="path55" />
  <path
     style="fill:#000000;fill-rule:evenodd;fill-opacity:1;stroke:none;"
     d="  M 78.607149,83.993271   L 145.48811,8.9488492   L 146.60479,9.9473115   z "
     id="path56" />
  <path
     style="fill:#000000;fill-rule:evenodd;fill-opacity:1;stroke:none;"
     d="  M 83.233382,83.23444   L 83.79172,83.75364   L 90.49178,75.326619   z "
     id="path57" />
  <path
     style="fill:#000000;fill-rule:evenodd;fill-opacity:1;stroke:none;"
     d="  M 83.79172,83.75364   L 90.49178,75.326619   L 91.050119,75.845819   z "
     id="path58" />
  <path
     style="fill:#000000;fill-rule:evenodd;fill-opacity:1;stroke:none;"
     d="  M 93.881692,71.61234   L 94.44003,72.13154   L 102.37641,62.386548   z "
     id="path59" />
  <path
     style="fill:#000000;fill-rule:evenodd;fill-opacity:1;stroke:none;"
     d="  M 94.44003,72.13154   L 102.37641,62.386548   L 102.93475,62.86581   z "
     id="path60" />
  <path
     style="fill:#000000;fill-rule:evenodd;fill-opacity:1;stroke:none;"
     d="  M 105.76632,58.672269   L 106.32466,59.191469   L 114.26104,49.406539   z "
     id="path61" />
  <path
     style="fill:#000000;fill-rule:evenodd;fill-opacity:1;stroke:none;"
     d="  M 106.32466,59.191469   L 114.26104,49.406539   L 114.81938,49.92574   z "
     id="path62" />
  <path
     style="fill:#000000;fill-rule:evenodd;fill-opacity:1;stroke:none;"
     d="  M 117.69084,45.732198   L 118.24917,46.21146   L 126.18555,36.466469   z "
     id="path63" />
  <path
     style="fill:#000000;fill-rule:evenodd;fill-opacity:1;stroke:none;"
     d="  M 118.24917,46.21146   L 126.18555,36.466469   L 126.74389,36.985669   z "
     id="path64" />
  <path
     style="fill:#000000;fill-rule:evenodd;fill-opacity:1;stroke:none;"
     d="  M 129.57547,32.752189   L 130.1338,33.271389   L 138.07019,23.526398   z "
     id="path65" />
  <path
     style="fill:#000000;fill-rule:evenodd;fill-opacity:1;stroke:none;"
     d="  M 130.1338,33.271389   L 138.07019,23.526398   L 138.62852,24.00566   z "
     id="path66" />
  <path
     style="fill:#000000;fill-rule:evenodd;fill-opacity:1;stroke:none;"
     d="  M 141.4601,19.812118   L 142.01844,20.331319   L 148.7185,11.904297   z "
     id="path67" />
  <path
     style="fill:#000000;fill-rule:evenodd;fill-opacity:1;stroke:none;"
     d="  M 142.01844,20.331319   L 148.7185,11.904297   L 149.27683,12.423498   z "
     id="path68" />
  <path
     style="fill:#000000;fill-rule:evenodd;fill-opacity:1;stroke:none;"
     d="  M 148.7185,11.904297   L 149.27683,12.423498   L 149.27683,12.423498   z "
     id="path69" />
  <path
     style="fill:#000000;fill-rule:evenodd;fill-opacity:1;stroke:none;"
     d="  M 111.58899,82.954871   L 112.70567,83.993271   L 163.95316,25.962646   z "
     id="path70" />
  <path
     style="fill:#000000;fill-rule:evenodd;fill-opacity:1;stroke:none;"
     d="  M 112.70567,83.993271   L 163.95316,25.962646   L 165.06983,27.001047   z "
     id="path71" />
  <path
     style="fill:#000000;fill-rule:evenodd;fill-opacity:1;stroke:none;"
     d="  M 106.40442,83.23444   L 106.96276,83.75364   L 114.30092,74.647665   z "
     id="path72" />
  <path
     style="fill:#000000;fill-rule:evenodd;fill-opacity:1;stroke:none;"
     d="  M 106.96276,83.75364   L 114.30092,74.647665   L 114.85926,75.166865   z "
     id="path73" />
  <path
     style="fill:#000000;fill-rule:evenodd;fill-opacity:1;stroke:none;"
     d="  M 117.69084,70.933385   L 118.24917,71.452586   L 126.18555,61.707594   z "
     id="path74" />
  <path
     style="fill:#000000;fill-rule:evenodd;fill-opacity:1;stroke:none;"
     d="  M 118.24917,71.452586   L 126.18555,61.707594   L 126.74389,62.186856   z "
     id="path75" />
  <path
     style="fill:#000000;fill-rule:evenodd;fill-opacity:1;stroke:none;"
     d="  M 129.61535,57.993315   L 130.17369,58.512515   L 138.11007,48.727585   z "
     id="path76" />
  <path
     style="fill:#000000;fill-rule:evenodd;fill-opacity:1;stroke:none;"
     d="  M 130.17369,58.512515   L 138.11007,48.727585   L 138.66841,49.246785   z "
     id="path77" />
  <path
     style="fill:#000000;fill-rule:evenodd;fill-opacity:1;stroke:none;"
     d="  M 141.49998,45.013305   L 142.05832,45.532506   L 149.9947,35.787514   z "
     id="path78" />
  <path
     style="fill:#000000;fill-rule:evenodd;fill-opacity:1;stroke:none;"
     d="  M 142.05832,45.532506   L 149.9947,35.787514   L 150.55304,36.306715   z "
     id="path79" />
  <path
     style="fill:#000000;fill-rule:evenodd;fill-opacity:1;stroke:none;"
     d="  M 153.38461,32.073235   L 153.94295,32.592435   L 161.28111,23.486459   z "
     id="path80" />
  <path
     style="fill:#000000;fill-rule:evenodd;fill-opacity:1;stroke:none;"
     d="  M 153.94295,32.592435   L 161.28111,23.486459   L 161.83945,24.00566   z "
     id="path81" />
  <path
     style="fill:#000000;fill-rule:evenodd;fill-opacity:1;stroke:none;"
     d="  M 161.28111,23.486459   L 161.83945,24.00566   L 161.83945,24.00566   z "
     id="path82" />
  <path
     style="fill:none;stroke:#000000;stroke-width:0.95715147px;stroke-linecap:round;stroke-linejoin:round;stroke-miterlimit:4;stroke-dasharray:none;stroke-opacity:1;"
     d="  M 174.84076,36.027145   L 160.08467,22.40812   L 150.03458,28.159263   L 160.56325,7.790633   L 150.47327,13.541776   L 135.71719,-0.11718794  "
     id="path83" />
  <path
     style="fill:#000000;fill-rule:evenodd;fill-opacity:1;stroke:none;"
     d="  M 78.367862,88.506321   L 77.610117,88.506321   L 78.367862,101.08694   z "
     id="path84" />
  <path
     style="fill:#000000;fill-rule:evenodd;fill-opacity:1;stroke:none;"
     d="  M 77.610117,88.506321   L 78.367862,101.08694   L 77.610117,101.08694   z "
     id="path85" />
  <path
     style="fill:#000000;fill-rule:evenodd;fill-opacity:1;stroke:none;"
     d="  M 78.367862,106.11919   L 77.610117,106.11919   L 78.367862,118.69982   z "
     id="path86" />
  <path
     style="fill:#000000;fill-rule:evenodd;fill-opacity:1;stroke:none;"
     d="  M 77.610117,106.11919   L 78.367862,118.69982   L 77.610117,118.69982   z "
     id="path87" />
  <path
     style="fill:#000000;fill-rule:evenodd;fill-opacity:1;stroke:none;"
     d="  M 78.367862,118.69982   L 77.610117,118.69982   L 77.610117,118.69982   z "
     id="path88" />
  <path
     style="fill:#000000;fill-rule:evenodd;fill-opacity:1;stroke:none;"
     d="  M 82.395874,88.506321   L 81.638129,88.506321   L 82.395874,101.08694   z "
     id="path89" />
  <path
     style="fill:#000000;fill-rule:evenodd;fill-opacity:1;stroke:none;"
     d="  M 81.638129,88.506321   L 82.395874,101.08694   L 81.638129,101.08694   z "
     id="path90" />
  <path
     style="fill:#000000;fill-rule:evenodd;fill-opacity:1;stroke:none;"
     d="  M 82.395874,106.11919   L 81.638129,106.11919   L 82.395874,118.69982   z "
     id="path91" />
  <path
     style="fill:#000000;fill-rule:evenodd;fill-opacity:1;stroke:none;"
     d="  M 81.638129,106.11919   L 82.395874,118.69982   L 81.638129,118.69982   z "
     id="path92" />
  <path
     style="fill:#000000;fill-rule:evenodd;fill-opacity:1;stroke:none;"
     d="  M 82.395874,118.69982   L 81.638129,118.69982   L 81.638129,118.69982   z "
     id="path93" />
  <path
     style="fill:#000000;fill-rule:evenodd;fill-opacity:1;stroke:none;"
     d="  M 107.36158,88.506321   L 106.60383,88.506321   L 107.36158,101.08694   z "
     id="path94" />
  <path
     style="fill:#000000;fill-rule:evenodd;fill-opacity:1;stroke:none;"
     d="  M 106.60383,88.506321   L 107.36158,101.08694   L 106.60383,101.08694   z "
     id="path95" />
  <path
     style="fill:#000000;fill-rule:evenodd;fill-opacity:1;stroke:none;"
     d="  M 107.36158,106.11919   L 106.60383,106.11919   L 107.36158,118.69982   z "
     id="path96" />
  <path
     style="fill:#000000;fill-rule:evenodd;fill-opacity:1;stroke:none;"
     d="  M 106.60383,106.11919   L 107.36158,118.69982   L 106.60383,118.69982   z "
     id="path97" />
  <path
     style="fill:#000000;fill-rule:evenodd;fill-opacity:1;stroke:none;"
     d="  M 107.36158,118.69982   L 106.60383,118.69982   L 106.60383,118.69982   z "
     id="path98" />
  <path
     style="fill:#000000;fill-rule:evenodd;fill-opacity:1;stroke:none;"
     d="  M 111.38959,88.506321   L 110.63184,88.506321   L 111.38959,101.08694   z "
     id="path99" />
  <path
     style="fill:#000000;fill-rule:evenodd;fill-opacity:1;stroke:none;"
     d="  M 110.63184,88.506321   L 111.38959,101.08694   L 110.63184,101.08694   z "
     id="path100" />
  <path
     style="fill:#000000;fill-rule:evenodd;fill-opacity:1;stroke:none;"
     d="  M 111.38959,106.11919   L 110.63184,106.11919   L 111.38959,118.69982   z "
     id="path101" />
  <path
     style="fill:#000000;fill-rule:evenodd;fill-opacity:1;stroke:none;"
     d="  M 110.63184,106.11919   L 111.38959,118.69982   L 110.63184,118.69982   z "
     id="path102" />
  <path
     style="fill:#000000;fill-rule:evenodd;fill-opacity:1;stroke:none;"
     d="  M 111.38959,118.69982   L 110.63184,118.69982   L 110.63184,118.69982   z "
     id="path103" />
  <path
     style="fill:none;stroke:#000000;stroke-width:0.95715147px;stroke-linecap:round;stroke-linejoin:round;stroke-miterlimit:4;stroke-dasharray:none;stroke-opacity:1;"
     d="  M 150.55304,148.13449   L 151.35066,147.57535   L 152.58698,145.81805   L 152.58698,157.99929  "
     id="path104" />
  <path
     style="fill:none;stroke:#000000;stroke-width:0.95715147px;stroke-linecap:round;stroke-linejoin:round;stroke-miterlimit:4;stroke-dasharray:none;stroke-opacity:1;"
     d="  M 108.7973,110.43255   L 145.32858,161.47394  "
     id="path105" />
  <path
     style="fill:none;stroke:#000000;stroke-width:0.95715147px;stroke-linecap:round;stroke-linejoin:round;stroke-miterlimit:4;stroke-dasharray:none;stroke-opacity:1;"
     d="  M 145.32858,161.47394   L 160.36384,161.47394  "
     id="path106" />
</svg>
