<?xml version="1.0" encoding="UTF-8" standalone="no"?>
<svg
   version="1.0"
   width="89.739998mm"
   height="56.299999mm"
   id="svg75"
   sodipodi:docname="image131.emf"
   xmlns:inkscape="http://www.inkscape.org/namespaces/inkscape"
   xmlns:sodipodi="http://sodipodi.sourceforge.net/DTD/sodipodi-0.dtd"
   xmlns="http://www.w3.org/2000/svg"
   xmlns:svg="http://www.w3.org/2000/svg">
  <sodipodi:namedview
     id="namedview75"
     pagecolor="#ffffff"
     bordercolor="#000000"
     borderopacity="0.25"
     inkscape:showpageshadow="2"
     inkscape:pageopacity="0.0"
     inkscape:pagecheckerboard="0"
     inkscape:deskcolor="#d1d1d1"
     inkscape:document-units="mm" />
  <defs
     id="defs1">
    <pattern
       id="EMFhbasepattern"
       patternUnits="userSpaceOnUse"
       width="6"
       height="6"
       x="0"
       y="0" />
  </defs>
  <path
     style="fill:none;stroke:#000000;stroke-width:0.95912021px;stroke-linecap:round;stroke-linejoin:round;stroke-miterlimit:4;stroke-dasharray:none;stroke-opacity:1;"
     d="  M 127.80937,188.37514   L 127.80937,130.99293  "
     id="path1" />
  <path
     style="fill:none;stroke:#000000;stroke-width:0.95912021px;stroke-linecap:round;stroke-linejoin:round;stroke-miterlimit:4;stroke-dasharray:none;stroke-opacity:1;"
     d="  M 127.80937,114.89547   L 127.80937,98.798021  "
     id="path2" />
  <path
     style="fill:none;stroke:#000000;stroke-width:0.95912021px;stroke-linecap:round;stroke-linejoin:round;stroke-miterlimit:4;stroke-dasharray:none;stroke-opacity:1;"
     d="  M 127.80937,82.700569   L 127.80937,25.318358  "
     id="path3" />
  <path
     style="fill:none;stroke:#000000;stroke-width:0.95912021px;stroke-linecap:round;stroke-linejoin:round;stroke-miterlimit:4;stroke-dasharray:none;stroke-opacity:1;"
     d="  M 5.8812085,85.263348   L 5.8812085,44.619283  "
     id="path4" />
  <path
     style="fill:none;stroke:#000000;stroke-width:0.95912021px;stroke-linecap:round;stroke-linejoin:round;stroke-miterlimit:4;stroke-dasharray:none;stroke-opacity:1;"
     d="  M 121.37527,85.263348   L 121.37527,44.619283  "
     id="path5" />
  <path
     style="fill:none;stroke:#000000;stroke-width:0.95912021px;stroke-linecap:round;stroke-linejoin:round;stroke-miterlimit:4;stroke-dasharray:none;stroke-opacity:1;"
     d="  M -0.51292633,51.066273   L 127.80937,51.066273  "
     id="path6" />
  <path
     style="fill:#000000;fill-rule:evenodd;fill-opacity:1;stroke:none;"
     d="  M 11.556003,47.622539   L 9.2780926,45.380108   L 2.4843244,56.752437   z "
     id="path7" />
  <path
     style="fill:#000000;fill-rule:evenodd;fill-opacity:1;stroke:none;"
     d="  M 9.2780926,45.380108   L 2.4843244,56.752437   L 0.20641384,54.469963   z "
     id="path8" />
  <path
     style="fill:#000000;fill-rule:evenodd;fill-opacity:1;stroke:none;"
     d="  M 115.70047,54.469963   L 117.97838,56.752437   L 124.77215,45.380108   z "
     id="path9" />
  <path
     style="fill:#000000;fill-rule:evenodd;fill-opacity:1;stroke:none;"
     d="  M 117.97838,56.752437   L 124.77215,45.380108   L 127.05006,47.622539   z "
     id="path10" />
  <path
     style="fill:none;stroke:#000000;stroke-width:0.95912021px;stroke-linecap:round;stroke-linejoin:round;stroke-miterlimit:4;stroke-dasharray:none;stroke-opacity:1;"
     d="  M 56.394874,43.137677   L 56.394874,27.520746  "
     id="path11" />
  <path
     style="fill:none;stroke:#000000;stroke-width:0.95912021px;stroke-linecap:round;stroke-linejoin:round;stroke-miterlimit:4;stroke-dasharray:none;stroke-opacity:1;"
     d="  M 56.394874,34.968821   L 57.433921,33.487214   L 58.472967,32.726389   L 59.991574,32.726389   L 61.030621,33.487214   L 62.069668,34.968821   L 62.589192,37.211252   L 62.589192,38.692858   L 62.069668,40.895246   L 61.030621,42.376852   L 59.991574,43.137677   L 58.472967,43.137677   L 57.433921,42.376852   L 56.394874,40.895246  "
     id="path12" />
  <path
     style="fill:none;stroke:#000000;stroke-width:0.95912021px;stroke-linecap:round;stroke-linejoin:round;stroke-miterlimit:4;stroke-dasharray:none;stroke-opacity:1;"
     d="  M 68.30395,30.524002   L 69.342997,29.763177   L 70.901567,27.520746   L 70.901567,43.137677  "
     id="path13" />
  <path
     style="fill:none;stroke:#000000;stroke-width:0.95912021px;stroke-linecap:round;stroke-linejoin:round;stroke-miterlimit:4;stroke-dasharray:none;stroke-opacity:1;"
     d="  M 265.72286,101.3608   L 335.05926,101.3608  "
     id="path14" />
  <path
     style="fill:none;stroke:#000000;stroke-width:0.95912021px;stroke-linecap:round;stroke-linejoin:round;stroke-miterlimit:4;stroke-dasharray:none;stroke-opacity:1;"
     d="  M 150.26877,172.11751   L 335.05926,172.11751  "
     id="path15" />
  <path
     style="fill:none;stroke:#000000;stroke-width:0.95912021px;stroke-linecap:round;stroke-linejoin:round;stroke-miterlimit:4;stroke-dasharray:none;stroke-opacity:1;"
     d="  M 328.62516,94.91381   L 328.62516,178.5645  "
     id="path16" />
  <path
     style="fill:#000000;fill-rule:evenodd;fill-opacity:1;stroke:none;"
     d="  M 332.02205,107.04696   L 334.29996,104.76449   L 322.95037,97.95711   z "
     id="path17" />
  <path
     style="fill:#000000;fill-rule:evenodd;fill-opacity:1;stroke:none;"
     d="  M 334.29996,104.76449   L 322.95037,97.95711   L 325.22828,95.674635   z "
     id="path18" />
  <path
     style="fill:#000000;fill-rule:evenodd;fill-opacity:1;stroke:none;"
     d="  M 325.22828,166.43135   L 322.95037,168.71382   L 334.29996,175.56124   z "
     id="path19" />
  <path
     style="fill:#000000;fill-rule:evenodd;fill-opacity:1;stroke:none;"
     d="  M 322.95037,168.71382   L 334.29996,175.56124   L 332.02205,177.80368   z "
     id="path20" />
  <path
     style="fill:none;stroke:#000000;stroke-width:0.95912021px;stroke-linecap:round;stroke-linejoin:round;stroke-miterlimit:4;stroke-dasharray:none;stroke-opacity:1;"
     d="  M 320.75239,145.32847   L 305.20664,145.32847  "
     id="path21" />
  <path
     style="fill:none;stroke:#000000;stroke-width:0.95912021px;stroke-linecap:round;stroke-linejoin:round;stroke-miterlimit:4;stroke-dasharray:none;stroke-opacity:1;"
     d="  M 312.59986,145.32847   L 311.12122,144.28734   L 310.36192,143.24621   L 310.36192,141.68452   L 311.12122,140.64339   L 312.59986,139.60226   L 314.79785,139.08169   L 316.27649,139.08169   L 318.51444,139.60226   L 319.99308,140.64339   L 320.75239,141.68452   L 320.75239,143.24621   L 319.99308,144.28734   L 318.51444,145.32847  "
     id="path22" />
  <path
     style="fill:none;stroke:#000000;stroke-width:0.95912021px;stroke-linecap:round;stroke-linejoin:round;stroke-miterlimit:4;stroke-dasharray:none;stroke-opacity:1;"
     d="  M 308.88327,134.91718   L 308.16393,134.91718   L 306.68529,134.39662   L 305.92599,133.87605   L 305.20664,132.83492   L 305.20664,130.75266   L 305.92599,129.71154   L 306.68529,129.23102   L 308.16393,128.71045   L 309.64258,128.71045   L 311.12122,129.23102   L 313.3192,130.2321   L 320.75239,135.43774   L 320.75239,128.18989  "
     id="path23" />
  <path
     style="fill:#000000;fill-rule:evenodd;fill-opacity:1;stroke:none;"
     d="  M 112.70322,169.55473   L 114.66143,169.55473   L 113.74227,172.07747   z "
     id="path24" />
  <path
     style="fill:#000000;fill-rule:evenodd;fill-opacity:1;stroke:none;"
     d="  M 114.66143,169.55473   L 113.74227,172.07747   L 115.10102,170.71599   z "
     id="path25" />
  <path
     style="fill:#000000;fill-rule:evenodd;fill-opacity:1;stroke:none;"
     d="  M 113.74227,172.07747   L 115.10102,170.71599   L 116.25996,173.1186   z "
     id="path26" />
  <path
     style="fill:#000000;fill-rule:evenodd;fill-opacity:1;stroke:none;"
     d="  M 115.10102,170.71599   L 116.25996,173.1186   L 116.25996,171.15647   z "
     id="path27" />
  <path
     style="fill:#000000;fill-rule:evenodd;fill-opacity:1;stroke:none;"
     d="  M 114.66143,118.09895   L 112.70322,118.09895   L 111.7441,111.05131   z "
     id="path28" />
  <path
     style="fill:#000000;fill-rule:evenodd;fill-opacity:1;stroke:none;"
     d="  M 112.70322,118.09895   L 111.7441,111.05131   L 110.38535,112.41278   z "
     id="path29" />
  <path
     style="fill:#000000;fill-rule:evenodd;fill-opacity:1;stroke:none;"
     d="  M 111.7441,111.05131   L 110.38535,112.41278   L 104.71055,108.12814   z "
     id="path30" />
  <path
     style="fill:#000000;fill-rule:evenodd;fill-opacity:1;stroke:none;"
     d="  M 110.38535,112.41278   L 104.71055,108.12814   L 104.71055,110.05022   z "
     id="path31" />
  <path
     style="fill:#000000;fill-rule:evenodd;fill-opacity:1;stroke:none;"
     d="  M 4.9220883,106.48636   L 6.8403287,106.48636   L 5.9611352,109.00909   z "
     id="path32" />
  <path
     style="fill:#000000;fill-rule:evenodd;fill-opacity:1;stroke:none;"
     d="  M 6.8403287,106.48636   L 5.9611352,109.00909   L 7.3198888,107.64762   z "
     id="path33" />
  <path
     style="fill:#000000;fill-rule:evenodd;fill-opacity:1;stroke:none;"
     d="  M 5.9611352,109.00909   L 7.3198888,107.64762   L 8.4788258,110.05022   z "
     id="path34" />
  <path
     style="fill:#000000;fill-rule:evenodd;fill-opacity:1;stroke:none;"
     d="  M 7.3198888,107.64762   L 8.4788258,110.05022   L 8.4788258,108.12814   z "
     id="path35" />
  <path
     style="fill:#000000;fill-rule:evenodd;fill-opacity:1;stroke:none;"
     d="  M 120.41615,172.11751   L 122.33439,172.11751   L 120.41615,101.3608   z "
     id="path36" />
  <path
     style="fill:#000000;fill-rule:evenodd;fill-opacity:1;stroke:none;"
     d="  M 122.33439,172.11751   L 120.41615,101.3608   L 122.33439,101.3608   z "
     id="path37" />
  <path
     style="fill:#000000;fill-rule:evenodd;fill-opacity:1;stroke:none;"
     d="  M 116.25996,171.15647   L 116.25996,173.1186   L 121.37527,171.15647   z "
     id="path38" />
  <path
     style="fill:#000000;fill-rule:evenodd;fill-opacity:1;stroke:none;"
     d="  M 116.25996,173.1186   L 121.37527,171.15647   L 121.37527,173.1186   z "
     id="path39" />
  <path
     style="fill:#000000;fill-rule:evenodd;fill-opacity:1;stroke:none;"
     d="  M 114.66143,118.09895   L 112.70322,118.09895   L 114.66143,169.55473   z "
     id="path40" />
  <path
     style="fill:#000000;fill-rule:evenodd;fill-opacity:1;stroke:none;"
     d="  M 112.70322,118.09895   L 114.66143,169.55473   L 112.70322,169.55473   z "
     id="path41" />
  <path
     style="fill:#000000;fill-rule:evenodd;fill-opacity:1;stroke:none;"
     d="  M 8.4788258,108.12814   L 8.4788258,110.05022   L 104.71055,108.12814   z "
     id="path42" />
  <path
     style="fill:#000000;fill-rule:evenodd;fill-opacity:1;stroke:none;"
     d="  M 8.4788258,110.05022   L 104.71055,108.12814   L 104.71055,110.05022   z "
     id="path43" />
  <path
     style="fill:#000000;fill-rule:evenodd;fill-opacity:1;stroke:none;"
     d="  M 6.8403287,101.3608   L 4.9220883,101.3608   L 6.8403287,106.48636   z "
     id="path44" />
  <path
     style="fill:#000000;fill-rule:evenodd;fill-opacity:1;stroke:none;"
     d="  M 4.9220883,101.3608   L 6.8403287,106.48636   L 4.9220883,106.48636   z "
     id="path45" />
  <path
     style="fill:#000000;fill-rule:evenodd;fill-opacity:1;stroke:none;"
     d="  M 5.8812085,100.39976   L 5.8812085,102.32184   L 121.37527,100.39976   z "
     id="path46" />
  <path
     style="fill:#000000;fill-rule:evenodd;fill-opacity:1;stroke:none;"
     d="  M 5.8812085,102.32184   L 121.37527,100.39976   L 121.37527,102.32184   z "
     id="path47" />
  <path
     style="fill:#000000;fill-rule:evenodd;fill-opacity:1;stroke:none;"
     d="  M 139.35877,173.1186   L 139.35877,171.15647   L 141.8365,172.07747   z "
     id="path48" />
  <path
     style="fill:#000000;fill-rule:evenodd;fill-opacity:1;stroke:none;"
     d="  M 139.35877,171.15647   L 141.8365,172.07747   L 140.47775,170.71599   z "
     id="path49" />
  <path
     style="fill:#000000;fill-rule:evenodd;fill-opacity:1;stroke:none;"
     d="  M 141.8365,172.07747   L 140.47775,170.71599   L 142.87555,169.55473   z "
     id="path50" />
  <path
     style="fill:#000000;fill-rule:evenodd;fill-opacity:1;stroke:none;"
     d="  M 140.47775,170.71599   L 142.87555,169.55473   L 140.95731,169.55473   z "
     id="path51" />
  <path
     style="fill:#000000;fill-rule:evenodd;fill-opacity:1;stroke:none;"
     d="  M 150.90818,108.12814   L 150.90818,110.05022   L 143.87463,111.05131   z "
     id="path52" />
  <path
     style="fill:#000000;fill-rule:evenodd;fill-opacity:1;stroke:none;"
     d="  M 150.90818,110.05022   L 143.87463,111.05131   L 145.23338,112.41278   z "
     id="path53" />
  <path
     style="fill:#000000;fill-rule:evenodd;fill-opacity:1;stroke:none;"
     d="  M 143.87463,111.05131   L 145.23338,112.41278   L 140.95731,118.09895   z "
     id="path54" />
  <path
     style="fill:#000000;fill-rule:evenodd;fill-opacity:1;stroke:none;"
     d="  M 145.23338,112.41278   L 140.95731,118.09895   L 142.87555,118.09895   z "
     id="path55" />
  <path
     style="fill:#000000;fill-rule:evenodd;fill-opacity:1;stroke:none;"
     d="  M 247.13991,110.05022   L 247.13991,108.12814   L 249.61764,109.00909   z "
     id="path56" />
  <path
     style="fill:#000000;fill-rule:evenodd;fill-opacity:1;stroke:none;"
     d="  M 247.13991,108.12814   L 249.61764,109.00909   L 248.25888,107.64762   z "
     id="path57" />
  <path
     style="fill:#000000;fill-rule:evenodd;fill-opacity:1;stroke:none;"
     d="  M 249.61764,109.00909   L 248.25888,107.64762   L 250.65668,106.48636   z "
     id="path58" />
  <path
     style="fill:#000000;fill-rule:evenodd;fill-opacity:1;stroke:none;"
     d="  M 248.25888,107.64762   L 250.65668,106.48636   L 248.73844,106.48636   z "
     id="path59" />
  <path
     style="fill:#000000;fill-rule:evenodd;fill-opacity:1;stroke:none;"
     d="  M 133.24438,172.11751   L 135.16262,172.11751   L 133.24438,101.3608   z "
     id="path60" />
  <path
     style="fill:#000000;fill-rule:evenodd;fill-opacity:1;stroke:none;"
     d="  M 135.16262,172.11751   L 133.24438,101.3608   L 135.16262,101.3608   z "
     id="path61" />
  <path
     style="fill:#000000;fill-rule:evenodd;fill-opacity:1;stroke:none;"
     d="  M 139.35877,173.1186   L 139.35877,171.15647   L 134.2035,173.1186   z "
     id="path62" />
  <path
     style="fill:#000000;fill-rule:evenodd;fill-opacity:1;stroke:none;"
     d="  M 139.35877,171.15647   L 134.2035,173.1186   L 134.2035,171.15647   z "
     id="path63" />
  <path
     style="fill:#000000;fill-rule:evenodd;fill-opacity:1;stroke:none;"
     d="  M 142.87555,118.09895   L 140.95731,118.09895   L 142.87555,169.55473   z "
     id="path64" />
  <path
     style="fill:#000000;fill-rule:evenodd;fill-opacity:1;stroke:none;"
     d="  M 140.95731,118.09895   L 142.87555,169.55473   L 140.95731,169.55473   z "
     id="path65" />
  <path
     style="fill:#000000;fill-rule:evenodd;fill-opacity:1;stroke:none;"
     d="  M 247.13991,110.05022   L 247.13991,108.12814   L 150.90818,110.05022   z "
     id="path66" />
  <path
     style="fill:#000000;fill-rule:evenodd;fill-opacity:1;stroke:none;"
     d="  M 247.13991,108.12814   L 150.90818,110.05022   L 150.90818,108.12814   z "
     id="path67" />
  <path
     style="fill:#000000;fill-rule:evenodd;fill-opacity:1;stroke:none;"
     d="  M 250.65668,101.3608   L 248.73844,101.3608   L 250.65668,106.48636   z "
     id="path68" />
  <path
     style="fill:#000000;fill-rule:evenodd;fill-opacity:1;stroke:none;"
     d="  M 248.73844,101.3608   L 250.65668,106.48636   L 248.73844,106.48636   z "
     id="path69" />
  <path
     style="fill:#000000;fill-rule:evenodd;fill-opacity:1;stroke:none;"
     d="  M 249.69756,102.32184   L 249.69756,100.39976   L 134.2035,102.32184   z "
     id="path70" />
  <path
     style="fill:#000000;fill-rule:evenodd;fill-opacity:1;stroke:none;"
     d="  M 249.69756,100.39976   L 134.2035,102.32184   L 134.2035,100.39976   z "
     id="path71" />
  <path
     style="fill:none;stroke:#000000;stroke-width:0.95912021px;stroke-linecap:round;stroke-linejoin:round;stroke-miterlimit:4;stroke-dasharray:none;stroke-opacity:1;"
     d="  M 124.97197,193.62082   L 128.08911,203.99207   L 131.20625,193.62082  "
     id="path72" />
  <path
     style="fill:none;stroke:#000000;stroke-width:0.95912021px;stroke-linecap:round;stroke-linejoin:round;stroke-miterlimit:4;stroke-dasharray:none;stroke-opacity:1;"
     d="  M 128.08911,203.99207   L 126.53054,208.47693   L 126.01102,209.19771   L 124.49241,209.19771  "
     id="path73" />
  <path
     style="fill:none;stroke:#000000;stroke-width:0.95912021px;stroke-linecap:round;stroke-linejoin:round;stroke-miterlimit:4;stroke-dasharray:none;stroke-opacity:1;"
     d="  M 124.97197,-0.50964344   L 128.08911,9.901644   L 131.20625,-0.50964344  "
     id="path74" />
  <path
     style="fill:none;stroke:#000000;stroke-width:0.95912021px;stroke-linecap:round;stroke-linejoin:round;stroke-miterlimit:4;stroke-dasharray:none;stroke-opacity:1;"
     d="  M 128.08911,9.901644   L 126.53054,14.346463   L 126.01102,15.107288   L 124.49241,15.107288  "
     id="path75" />
</svg>
