<?xml version="1.0" encoding="UTF-8" standalone="no"?>
<svg
   version="1.0"
   width="313.22mm"
   height="55.98mm"
   id="svg109"
   sodipodi:docname="image168.emf"
   xmlns:inkscape="http://www.inkscape.org/namespaces/inkscape"
   xmlns:sodipodi="http://sodipodi.sourceforge.net/DTD/sodipodi-0.dtd"
   xmlns="http://www.w3.org/2000/svg"
   xmlns:svg="http://www.w3.org/2000/svg">
  <sodipodi:namedview
     id="namedview109"
     pagecolor="#ffffff"
     bordercolor="#000000"
     borderopacity="0.25"
     inkscape:showpageshadow="2"
     inkscape:pageopacity="0.0"
     inkscape:pagecheckerboard="0"
     inkscape:deskcolor="#d1d1d1"
     inkscape:document-units="mm" />
  <defs
     id="defs1">
    <pattern
       id="EMFhbasepattern"
       patternUnits="userSpaceOnUse"
       width="6"
       height="6"
       x="0"
       y="0" />
  </defs>
  <path
     style="fill:none;stroke:#000000;stroke-width:0.95978272px;stroke-linecap:round;stroke-linejoin:round;stroke-miterlimit:4;stroke-dasharray:none;stroke-opacity:1;"
     d="  M 17.515487,31.496982   L 17.515487,66.432422   L 34.591621,71.874827   L 0.43935309,81.198948   L 17.515487,86.641354   L 17.515487,121.57679  "
     id="path1" />
  <path
     style="fill:#000000;fill-rule:evenodd;fill-opacity:1;stroke:none;"
     d="  M 119.09249,53.226585   L 112.89389,53.226585   L 119.09249,99.84719   z "
     id="path2" />
  <path
     style="fill:#000000;fill-rule:evenodd;fill-opacity:1;stroke:none;"
     d="  M 112.89389,53.226585   L 119.09249,99.84719   L 112.89389,99.84719   z "
     id="path3" />
  <path
     style="fill:none;stroke:#000000;stroke-width:0.95978272px;stroke-linecap:round;stroke-linejoin:round;stroke-miterlimit:4;stroke-dasharray:none;stroke-opacity:1;"
     d="  M 269.6984,36.259086   L 280.53594,38.420042  "
     id="path4" />
  <path
     style="fill:none;stroke:#000000;stroke-width:0.95978272px;stroke-linecap:round;stroke-linejoin:round;stroke-miterlimit:4;stroke-dasharray:none;stroke-opacity:1;"
     d="  M 279.73612,35.018538   L 268.3387,32.857583   L 275.09717,23.413409  "
     id="path5" />
  <path
     style="fill:none;stroke:#000000;stroke-width:0.95978272px;stroke-linecap:round;stroke-linejoin:round;stroke-miterlimit:4;stroke-dasharray:none;stroke-opacity:1;"
     d="  M 282.13558,20.852277   L 282.97539,19.531694   L 283.73522,16.330279   L 290.69364,33.818008  "
     id="path6" />
  <path
     style="fill:none;stroke:#000000;stroke-width:0.95978272px;stroke-linecap:round;stroke-linejoin:round;stroke-miterlimit:4;stroke-dasharray:none;stroke-opacity:1;"
     d="  M 293.01312,19.371623   L 292.77317,20.4521   L 293.69296,21.052366   L 293.93291,19.971888   L 293.01312,19.371623   z "
     id="path7" />
  <path
     style="fill:none;stroke:#000000;stroke-width:0.95978272px;stroke-linecap:round;stroke-linejoin:round;stroke-miterlimit:4;stroke-dasharray:none;stroke-opacity:1;"
     d="  M 297.01221,29.376044   L 296.77227,30.416504   L 297.69206,31.01677   L 297.932,29.97631   L 297.01221,29.376044   z "
     id="path8" />
  <path
     style="fill:none;stroke:#000000;stroke-width:0.95978272px;stroke-linecap:round;stroke-linejoin:round;stroke-miterlimit:4;stroke-dasharray:none;stroke-opacity:1;"
     d="  M 301.09129,14.209341   L 300.77136,13.36897   L 300.69138,11.488139   L 300.93132,10.407661   L 301.77113,9.1270951   L 304.09061,8.2066883   L 305.57027,8.5668475   L 306.49007,9.1671128   L 307.72979,10.567732   L 308.40963,12.248475   L 308.48961,14.129306   L 308.32965,17.090615   L 305.81022,27.775337   L 313.96837,24.493887  "
     id="path9" />
  <path
     style="fill:none;stroke:#000000;stroke-width:0.95978272px;stroke-linecap:round;stroke-linejoin:round;stroke-miterlimit:4;stroke-dasharray:none;stroke-opacity:1;"
     d="  M 317.3676,21.212436   L 317.12766,22.252896   L 318.04745,22.853162   L 318.2874,21.812702  "
     id="path10" />
  <path
     style="fill:none;stroke:#000000;stroke-width:0.95978272px;stroke-linecap:round;stroke-linejoin:round;stroke-miterlimit:4;stroke-dasharray:none;stroke-opacity:1;"
     d="  M 323.28626,0.48327481   L 317.44759,2.8443183   L 319.88703,10.567732   L 320.12698,9.4872543   L 321.52666,7.9665822   L 323.28626,7.2462638   L 325.36579,7.4063346   L 327.20538,8.6068652   L 328.76502,10.847856   L 329.44487,12.528598   L 329.84478,15.249801   L 329.36489,17.370738   L 327.92521,18.891411   L 326.2056,19.611729   L 324.12607,19.491676   L 323.20628,18.891411   L 321.96656,17.450774  "
     id="path11" />
  <path
     style="fill:none;stroke:#000000;stroke-width:0.95978272px;stroke-linecap:round;stroke-linejoin:round;stroke-miterlimit:4;stroke-dasharray:none;stroke-opacity:1;"
     d="  M 463.05462,0.44325713   L 463.05462,66.432422   L 480.13076,71.874827   L 445.97849,81.198948   L 463.05462,86.641354   L 463.05462,152.67054  "
     id="path12" />
  <path
     style="fill:none;stroke:#000000;stroke-width:0.95978272px;stroke-linecap:round;stroke-linejoin:round;stroke-miterlimit:4;stroke-dasharray:none;stroke-opacity:1;"
     d="  M 116.01319,119.25577   L 116.01319,178.68203  "
     id="path13" />
  <path
     style="fill:none;stroke:#000000;stroke-width:0.95978272px;stroke-linecap:round;stroke-linejoin:round;stroke-miterlimit:4;stroke-dasharray:none;stroke-opacity:1;"
     d="  M 271.13807,119.25577   L 271.13807,178.68203  "
     id="path14" />
  <path
     style="fill:none;stroke:#000000;stroke-width:0.95978272px;stroke-linecap:round;stroke-linejoin:round;stroke-miterlimit:4;stroke-dasharray:none;stroke-opacity:1;"
     d="  M 108.25494,170.87858   L 278.89631,170.87858  "
     id="path15" />
  <path
     style="fill:#000000;fill-rule:evenodd;fill-opacity:1;stroke:none;"
     d="  M 122.85164,166.79678   L 120.13226,164.03556   L 111.89412,177.76163   z "
     id="path16" />
  <path
     style="fill:#000000;fill-rule:evenodd;fill-opacity:1;stroke:none;"
     d="  M 120.13226,164.03556   L 111.89412,177.76163   L 109.13475,175.00041   z "
     id="path17" />
  <path
     style="fill:#000000;fill-rule:evenodd;fill-opacity:1;stroke:none;"
     d="  M 264.29962,175.00041   L 267.05899,177.76163   L 275.25714,164.03556   z "
     id="path18" />
  <path
     style="fill:#000000;fill-rule:evenodd;fill-opacity:1;stroke:none;"
     d="  M 267.05899,177.76163   L 275.25714,164.03556   L 278.01651,166.79678   z "
     id="path19" />
  <path
     style="fill:none;stroke:#000000;stroke-width:0.95978272px;stroke-linecap:round;stroke-linejoin:round;stroke-miterlimit:4;stroke-dasharray:none;stroke-opacity:1;"
     d="  M 150.96528,146.10764   L 152.24499,145.18723   L 154.12456,142.50604   L 154.12456,161.35437  "
     id="path20" />
  <path
     style="fill:none;stroke:#000000;stroke-width:0.95978272px;stroke-linecap:round;stroke-linejoin:round;stroke-miterlimit:4;stroke-dasharray:none;stroke-opacity:1;"
     d="  M 164.76215,142.50604   L 162.88258,143.42645   L 161.64286,146.10764   L 161.003,150.58962   L 161.003,153.2708   L 161.64286,157.75278   L 162.88258,160.43397   L 164.76215,161.35437   L 166.00187,161.35437   L 167.88145,160.43397   L 169.16116,157.75278   L 169.76102,153.2708   L 169.76102,150.58962   L 169.16116,146.10764   L 167.88145,143.42645   L 166.00187,142.50604   L 164.76215,142.50604   z "
     id="path21" />
  <path
     style="fill:none;stroke:#000000;stroke-width:0.95978272px;stroke-linecap:round;stroke-linejoin:round;stroke-miterlimit:4;stroke-dasharray:none;stroke-opacity:1;"
     d="  M 177.27932,142.50604   L 175.39974,143.42645   L 174.16002,146.10764   L 173.52017,150.58962   L 173.52017,153.2708   L 174.16002,157.75278   L 175.39974,160.43397   L 177.27932,161.35437   L 178.55903,161.35437   L 180.4386,160.43397   L 181.67832,157.75278   L 182.31818,153.2708   L 182.31818,150.58962   L 181.67832,146.10764   L 180.4386,143.42645   L 178.55903,142.50604   L 177.27932,142.50604   z "
     id="path22" />
  <path
     style="fill:none;stroke:#000000;stroke-width:0.95978272px;stroke-linecap:round;stroke-linejoin:round;stroke-miterlimit:4;stroke-dasharray:none;stroke-opacity:1;"
     d="  M 186.07733,155.95199   L 186.07733,154.15119   L 186.67719,151.47001   L 187.9569,150.58962   L 189.19662,150.58962   L 190.43634,151.47001   L 192.95577,154.15119   L 194.19549,155.0716   L 195.4752,155.0716   L 196.71492,154.15119   L 197.35477,152.39041   L 197.35477,150.58962  "
     id="path23" />
  <path
     style="fill:none;stroke:#000000;stroke-width:0.95978272px;stroke-linecap:round;stroke-linejoin:round;stroke-miterlimit:4;stroke-dasharray:none;stroke-opacity:1;"
     d="  M 202.9935,146.98802   L 202.9935,146.10764   L 203.59336,144.30684   L 204.23322,143.42645   L 205.47294,142.50604   L 207.99236,142.50604   L 209.23208,143.42645   L 209.87194,144.30684   L 210.51179,146.10764   L 210.51179,147.90843   L 209.87194,149.66921   L 208.63222,152.39041   L 202.35364,161.35437   L 211.11166,161.35437  "
     id="path24" />
  <path
     style="fill:none;stroke:#000000;stroke-width:0.95978272px;stroke-linecap:round;stroke-linejoin:round;stroke-miterlimit:4;stroke-dasharray:none;stroke-opacity:1;"
     d="  M 218.62996,142.50604   L 216.75038,143.42645   L 215.51066,146.10764   L 214.87081,150.58962   L 214.87081,153.2708   L 215.51066,157.75278   L 216.75038,160.43397   L 218.62996,161.35437   L 219.90967,161.35437   L 221.78924,160.43397   L 223.02896,157.75278   L 223.66882,153.2708   L 223.66882,150.58962   L 223.02896,146.10764   L 221.78924,143.42645   L 219.90967,142.50604   L 218.62996,142.50604   z "
     id="path25" />
  <path
     style="fill:none;stroke:#000000;stroke-width:0.95978272px;stroke-linecap:round;stroke-linejoin:round;stroke-miterlimit:4;stroke-dasharray:none;stroke-opacity:1;"
     d="  M 231.18711,142.50604   L 229.30754,143.42645   L 228.02783,146.10764   L 227.42796,150.58962   L 227.42796,153.2708   L 228.02783,157.75278   L 229.30754,160.43397   L 231.18711,161.35437   L 232.42683,161.35437   L 234.30641,160.43397   L 235.54613,157.75278   L 236.18598,153.2708   L 236.18598,150.58962   L 235.54613,146.10764   L 234.30641,143.42645   L 232.42683,142.50604   L 231.18711,142.50604   z "
     id="path26" />
  <path
     style="fill:none;stroke:#000000;stroke-width:0.95978272px;stroke-linecap:round;stroke-linejoin:round;stroke-miterlimit:4;stroke-dasharray:none;stroke-opacity:1;"
     d="  M 116.01319,99.84719   L 116.09317,99.84719  "
     id="path27" />
  <path
     style="fill:none;stroke:#000000;stroke-width:0.95978272px;stroke-linecap:round;stroke-linejoin:round;stroke-miterlimit:4;stroke-dasharray:none;stroke-opacity:1;"
     d="  M 271.13807,99.84719   L 271.21805,99.84719  "
     id="path28" />
  <path
     style="fill:none;stroke:#000000;stroke-width:0.95978272px;stroke-linecap:round;stroke-linejoin:round;stroke-miterlimit:4;stroke-dasharray:none;stroke-opacity:1;"
     d="  M 271.13807,170.87858   L 271.21805,170.87858  "
     id="path29" />
  <path
     style="fill:#000000;fill-rule:evenodd;fill-opacity:1;stroke:none;"
     d="  M 747.95012,74.996207   L 741.75153,74.996207   L 747.95012,121.57679   z "
     id="path30" />
  <path
     style="fill:#000000;fill-rule:evenodd;fill-opacity:1;stroke:none;"
     d="  M 741.75153,74.996207   L 747.95012,121.57679   L 741.75153,121.57679   z "
     id="path31" />
  <path
     style="fill:none;stroke:#000000;stroke-width:0.95978272px;stroke-linecap:round;stroke-linejoin:round;stroke-miterlimit:4;stroke-dasharray:none;stroke-opacity:1;"
     d="  M 665.32883,53.226585   L 665.32883,88.202043   L 682.36497,93.644449   L 648.25269,102.96857   L 665.32883,108.37096   L 665.32883,143.34642  "
     id="path32" />
  <path
     style="fill:none;stroke:#000000;stroke-width:0.95978272px;stroke-linecap:round;stroke-linejoin:round;stroke-miterlimit:4;stroke-dasharray:none;stroke-opacity:1;"
     d="  M 744.87082,141.02539   L 744.87082,200.41164  "
     id="path33" />
  <path
     style="fill:none;stroke:#000000;stroke-width:0.95978272px;stroke-linecap:round;stroke-linejoin:round;stroke-miterlimit:4;stroke-dasharray:none;stroke-opacity:1;"
     d="  M 899.9957,141.02539   L 899.9957,200.41164  "
     id="path34" />
  <path
     style="fill:none;stroke:#000000;stroke-width:0.95978272px;stroke-linecap:round;stroke-linejoin:round;stroke-miterlimit:4;stroke-dasharray:none;stroke-opacity:1;"
     d="  M 737.11258,192.6482   L 907.75394,192.6482  "
     id="path35" />
  <path
     style="fill:#000000;fill-rule:evenodd;fill-opacity:1;stroke:none;"
     d="  M 751.70927,188.52638   L 748.98989,185.76516   L 740.75175,199.49123   z "
     id="path36" />
  <path
     style="fill:#000000;fill-rule:evenodd;fill-opacity:1;stroke:none;"
     d="  M 748.98989,185.76516   L 740.75175,199.49123   L 737.99238,196.77003   z "
     id="path37" />
  <path
     style="fill:#000000;fill-rule:evenodd;fill-opacity:1;stroke:none;"
     d="  M 893.15725,196.77003   L 895.87663,199.49123   L 904.11477,185.76516   z "
     id="path38" />
  <path
     style="fill:#000000;fill-rule:evenodd;fill-opacity:1;stroke:none;"
     d="  M 895.87663,199.49123   L 904.11477,185.76516   L 906.87414,188.52638   z "
     id="path39" />
  <path
     style="fill:none;stroke:#000000;stroke-width:0.95978272px;stroke-linecap:round;stroke-linejoin:round;stroke-miterlimit:4;stroke-dasharray:none;stroke-opacity:1;"
     d="  M 779.82291,167.83724   L 781.10262,166.95685   L 782.98219,164.27567   L 782.98219,183.08398  "
     id="path40" />
  <path
     style="fill:none;stroke:#000000;stroke-width:0.95978272px;stroke-linecap:round;stroke-linejoin:round;stroke-miterlimit:4;stroke-dasharray:none;stroke-opacity:1;"
     d="  M 793.61978,164.27567   L 791.74021,165.15605   L 790.50049,167.83724   L 789.86063,172.31922   L 789.86063,175.00041   L 790.50049,179.48239   L 791.74021,182.20359   L 793.61978,183.08398   L 794.8595,183.08398   L 796.73908,182.20359   L 798.01879,179.48239   L 798.61865,175.00041   L 798.61865,172.31922   L 798.01879,167.83724   L 796.73908,165.15605   L 794.8595,164.27567   L 793.61978,164.27567   z "
     id="path41" />
  <path
     style="fill:none;stroke:#000000;stroke-width:0.95978272px;stroke-linecap:round;stroke-linejoin:round;stroke-miterlimit:4;stroke-dasharray:none;stroke-opacity:1;"
     d="  M 806.13695,164.27567   L 804.25738,165.15605   L 803.01766,167.83724   L 802.3778,172.31922   L 802.3778,175.00041   L 803.01766,179.48239   L 804.25738,182.20359   L 806.13695,183.08398   L 807.41666,183.08398   L 809.29623,182.20359   L 810.53595,179.48239   L 811.17581,175.00041   L 811.17581,172.31922   L 810.53595,167.83724   L 809.29623,165.15605   L 807.41666,164.27567   L 806.13695,164.27567   z "
     id="path42" />
  <path
     style="fill:none;stroke:#000000;stroke-width:0.95978272px;stroke-linecap:round;stroke-linejoin:round;stroke-miterlimit:4;stroke-dasharray:none;stroke-opacity:1;"
     d="  M 814.93496,177.72161   L 814.93496,175.92081   L 815.53482,173.23963   L 816.81453,172.31922   L 818.05425,172.31922   L 819.29397,173.23963   L 821.8134,175.92081   L 823.05312,176.8012   L 824.33283,176.8012   L 825.57255,175.92081   L 826.21241,174.12002   L 826.21241,172.31922  "
     id="path43" />
  <path
     style="fill:none;stroke:#000000;stroke-width:0.95978272px;stroke-linecap:round;stroke-linejoin:round;stroke-miterlimit:4;stroke-dasharray:none;stroke-opacity:1;"
     d="  M 831.85113,168.75765   L 831.85113,167.83724   L 832.45099,166.07646   L 833.09085,165.15605   L 834.33057,164.27567   L 836.85,164.27567   L 838.08972,165.15605   L 838.72957,166.07646   L 839.36943,167.83724   L 839.36943,169.63804   L 838.72957,171.43883   L 837.48985,174.12002   L 831.21127,183.08398   L 839.96929,183.08398  "
     id="path44" />
  <path
     style="fill:none;stroke:#000000;stroke-width:0.95978272px;stroke-linecap:round;stroke-linejoin:round;stroke-miterlimit:4;stroke-dasharray:none;stroke-opacity:1;"
     d="  M 847.48759,164.27567   L 845.60801,165.15605   L 844.36829,167.83724   L 843.72844,172.31922   L 843.72844,175.00041   L 844.36829,179.48239   L 845.60801,182.20359   L 847.48759,183.08398   L 848.7673,183.08398   L 850.64687,182.20359   L 851.88659,179.48239   L 852.52645,175.00041   L 852.52645,172.31922   L 851.88659,167.83724   L 850.64687,165.15605   L 848.7673,164.27567   L 847.48759,164.27567   z "
     id="path45" />
  <path
     style="fill:none;stroke:#000000;stroke-width:0.95978272px;stroke-linecap:round;stroke-linejoin:round;stroke-miterlimit:4;stroke-dasharray:none;stroke-opacity:1;"
     d="  M 860.04475,164.27567   L 858.16517,165.15605   L 856.88546,167.83724   L 856.2856,172.31922   L 856.2856,175.00041   L 856.88546,179.48239   L 858.16517,182.20359   L 860.04475,183.08398   L 861.28447,183.08398   L 863.16404,182.20359   L 864.40376,179.48239   L 865.04361,175.00041   L 865.04361,172.31922   L 864.40376,167.83724   L 863.16404,165.15605   L 861.28447,164.27567   L 860.04475,164.27567   z "
     id="path46" />
  <path
     style="fill:none;stroke:#000000;stroke-width:0.95978272px;stroke-linecap:round;stroke-linejoin:round;stroke-miterlimit:4;stroke-dasharray:none;stroke-opacity:1;"
     d="  M 744.87082,121.57679   L 744.9508,121.57679  "
     id="path47" />
  <path
     style="fill:none;stroke:#000000;stroke-width:0.95978272px;stroke-linecap:round;stroke-linejoin:round;stroke-miterlimit:4;stroke-dasharray:none;stroke-opacity:1;"
     d="  M 899.9957,121.57679   L 900.07568,121.57679  "
     id="path48" />
  <path
     style="fill:none;stroke:#000000;stroke-width:0.95978272px;stroke-linecap:round;stroke-linejoin:round;stroke-miterlimit:4;stroke-dasharray:none;stroke-opacity:1;"
     d="  M 899.9957,192.6482   L 900.07568,192.6482  "
     id="path49" />
  <path
     style="fill:none;stroke:#000000;stroke-width:0.95978272px;stroke-linecap:round;stroke-linejoin:round;stroke-miterlimit:4;stroke-dasharray:none;stroke-opacity:1;"
     d="  M 1088.473,74.996207   L 1147.4597,74.996207  "
     id="path50" />
  <path
     style="fill:none;stroke:#000000;stroke-width:0.95978272px;stroke-linecap:round;stroke-linejoin:round;stroke-miterlimit:4;stroke-dasharray:none;stroke-opacity:1;"
     d="  M 1088.473,40.420926   L 1147.4597,40.420926  "
     id="path51" />
  <path
     style="fill:none;stroke:#000000;stroke-width:0.95978272px;stroke-linecap:round;stroke-linejoin:round;stroke-miterlimit:4;stroke-dasharray:none;stroke-opacity:1;"
     d="  M 1139.7014,82.759638   L 1139.7014,32.657495  "
     id="path52" />
  <path
     style="fill:none;stroke:#000000;stroke-width:0.95978272px;stroke-linecap:round;stroke-linejoin:round;stroke-miterlimit:4;stroke-dasharray:none;stroke-opacity:1;"
     d="  M 1156.1777,88.322096   L 1164.2159,78.277657   L 1172.2941,88.322096  "
     id="path53" />
  <path
     style="fill:none;stroke:#000000;stroke-width:0.95978272px;stroke-linecap:round;stroke-linejoin:round;stroke-miterlimit:4;stroke-dasharray:none;stroke-opacity:1;"
     d="  M 1153.4983,69.513784   L 1166.0155,75.756543   L 1166.0155,66.352387  "
     id="path54" />
  <path
     style="fill:none;stroke:#000000;stroke-width:0.95978272px;stroke-linecap:round;stroke-linejoin:round;stroke-miterlimit:4;stroke-dasharray:none;stroke-opacity:1;"
     d="  M 1153.4983,69.513784   L 1172.2941,69.513784  "
     id="path55" />
  <path
     style="fill:none;stroke:#000000;stroke-width:0.95978272px;stroke-linecap:round;stroke-linejoin:round;stroke-miterlimit:4;stroke-dasharray:none;stroke-opacity:1;"
     d="  M 1172.2941,63.231007   L 1159.7369,63.231007  "
     id="path56" />
  <path
     style="fill:none;stroke:#000000;stroke-width:0.95978272px;stroke-linecap:round;stroke-linejoin:round;stroke-miterlimit:4;stroke-dasharray:none;stroke-opacity:1;"
     d="  M 1163.3361,63.231007   L 1160.6567,61.350176   L 1159.7369,60.06961   L 1159.7369,58.188779   L 1160.6567,56.94823   L 1163.3361,56.307947   L 1172.2941,56.307947  "
     id="path57" />
  <path
     style="fill:none;stroke:#000000;stroke-width:0.95978272px;stroke-linecap:round;stroke-linejoin:round;stroke-miterlimit:4;stroke-dasharray:none;stroke-opacity:1;"
     d="  M 1163.3361,56.307947   L 1160.6567,54.427116   L 1159.7369,53.186568   L 1159.7369,51.305737   L 1160.6567,50.065188   L 1163.3361,49.424905   L 1172.2941,49.424905  "
     id="path58" />
  <path
     style="fill:none;stroke:#000000;stroke-width:0.95978272px;stroke-linecap:round;stroke-linejoin:round;stroke-miterlimit:4;stroke-dasharray:none;stroke-opacity:1;"
     d="  M 1172.2941,44.382677   L 1159.7369,44.382677  "
     id="path59" />
  <path
     style="fill:none;stroke:#000000;stroke-width:0.95978272px;stroke-linecap:round;stroke-linejoin:round;stroke-miterlimit:4;stroke-dasharray:none;stroke-opacity:1;"
     d="  M 1163.3361,44.382677   L 1160.6567,42.501846   L 1159.7369,41.261297   L 1159.7369,39.380466   L 1160.6567,38.139918   L 1163.3361,37.499635   L 1172.2941,37.499635  "
     id="path60" />
  <path
     style="fill:none;stroke:#000000;stroke-width:0.95978272px;stroke-linecap:round;stroke-linejoin:round;stroke-miterlimit:4;stroke-dasharray:none;stroke-opacity:1;"
     d="  M 1163.3361,37.499635   L 1160.6567,35.618803   L 1159.7369,34.378255   L 1159.7369,32.497424   L 1160.6567,31.216858   L 1163.3361,30.616593   L 1172.2941,30.616593  "
     id="path61" />
  <path
     style="fill:#000000;fill-rule:evenodd;fill-opacity:1;stroke:none;"
     d="  M 1135.5824,68.113165   L 1132.863,70.874385   L 1146.5799,79.118029   z "
     id="path62" />
  <path
     style="fill:#000000;fill-rule:evenodd;fill-opacity:1;stroke:none;"
     d="  M 1132.863,70.874385   L 1146.5799,79.118029   L 1143.8205,81.839231   z "
     id="path63" />
  <path
     style="fill:#000000;fill-rule:evenodd;fill-opacity:1;stroke:none;"
     d="  M 1143.8205,47.26395   L 1146.5799,44.542748   L 1132.863,36.299104   z "
     id="path64" />
  <path
     style="fill:#000000;fill-rule:evenodd;fill-opacity:1;stroke:none;"
     d="  M 1146.5799,44.542748   L 1132.863,36.299104   L 1135.5824,33.537884   z "
     id="path65" />
  <path
     style="fill:none;stroke:#000000;stroke-width:0.95978272px;stroke-linecap:round;stroke-linejoin:round;stroke-miterlimit:4;stroke-dasharray:none;stroke-opacity:1;"
     d="  M 1069.0774,74.996207   L 1069.1574,74.996207  "
     id="path66" />
  <path
     style="fill:none;stroke:#000000;stroke-width:0.95978272px;stroke-linecap:round;stroke-linejoin:round;stroke-miterlimit:4;stroke-dasharray:none;stroke-opacity:1;"
     d="  M 1069.0774,40.420926   L 1069.1574,40.420926  "
     id="path67" />
  <path
     style="fill:none;stroke:#000000;stroke-width:0.95978272px;stroke-linecap:round;stroke-linejoin:round;stroke-miterlimit:4;stroke-dasharray:none;stroke-opacity:1;"
     d="  M 1139.7014,40.420926   L 1139.7814,40.420926  "
     id="path68" />
  <path
     style="fill:none;stroke:#000000;stroke-width:0.95978272px;stroke-linecap:round;stroke-linejoin:round;stroke-miterlimit:4;stroke-dasharray:none;stroke-opacity:1;"
     d="  M 1069.0774,18.691322   L 1069.0774,70.914403  "
     id="path69" />
  <path
     style="fill:none;stroke:#000000;stroke-width:0.95978272px;stroke-linecap:round;stroke-linejoin:round;stroke-miterlimit:4;stroke-dasharray:none;stroke-opacity:1;"
     d="  M 1069.0774,70.914403   L 1086.1536,76.356808  "
     id="path70" />
  <path
     style="fill:none;stroke:#000000;stroke-width:0.95978272px;stroke-linecap:round;stroke-linejoin:round;stroke-miterlimit:4;stroke-dasharray:none;stroke-opacity:1;"
     d="  M 1086.1536,76.356808   L 1052.0413,85.680929  "
     id="path71" />
  <path
     style="fill:none;stroke:#000000;stroke-width:0.95978272px;stroke-linecap:round;stroke-linejoin:round;stroke-miterlimit:4;stroke-dasharray:none;stroke-opacity:1;"
     d="  M 1052.0413,85.680929   L 1069.0774,91.083317  "
     id="path72" />
  <path
     style="fill:none;stroke:#000000;stroke-width:0.95978272px;stroke-linecap:round;stroke-linejoin:round;stroke-miterlimit:4;stroke-dasharray:none;stroke-opacity:1;"
     d="  M 1069.0774,91.083317   L 1069.0774,143.34642  "
     id="path73" />
  <path
     style="fill:#000000;fill-rule:evenodd;fill-opacity:1;stroke:none;"
     d="  M 17.515487,98.2865   L 17.515487,101.40788   L 271.13807,98.2865   z "
     id="path74" />
  <path
     style="fill:#000000;fill-rule:evenodd;fill-opacity:1;stroke:none;"
     d="  M 17.515487,101.40788   L 271.13807,98.2865   L 271.13807,101.40788   z "
     id="path75" />
  <path
     style="fill:#000000;fill-rule:evenodd;fill-opacity:1;stroke:none;"
     d="  M 17.515487,51.705913   L 17.515487,54.787275   L 271.13807,51.705913   z "
     id="path76" />
  <path
     style="fill:#000000;fill-rule:evenodd;fill-opacity:1;stroke:none;"
     d="  M 17.515487,54.787275   L 271.13807,51.705913   L 271.13807,54.787275   z "
     id="path77" />
  <path
     style="fill:#000000;fill-rule:evenodd;fill-opacity:1;stroke:none;"
     d="  M 271.73793,98.406553   L 270.5782,101.28783   L 349.32037,129.46028   z "
     id="path78" />
  <path
     style="fill:#000000;fill-rule:evenodd;fill-opacity:1;stroke:none;"
     d="  M 270.5782,101.28783   L 349.32037,129.46028   L 348.16063,132.34155   z "
     id="path79" />
  <path
     style="fill:#000000;fill-rule:evenodd;fill-opacity:1;stroke:none;"
     d="  M 348.72051,129.34022   L 348.72051,132.4616   L 463.05462,129.34022   z "
     id="path80" />
  <path
     style="fill:#000000;fill-rule:evenodd;fill-opacity:1;stroke:none;"
     d="  M 348.72051,132.4616   L 463.05462,129.34022   L 463.05462,132.4616   z "
     id="path81" />
  <path
     style="fill:#000000;fill-rule:evenodd;fill-opacity:1;stroke:none;"
     d="  M 348.72051,20.612171   L 348.72051,23.733551   L 463.05462,20.612171   z "
     id="path82" />
  <path
     style="fill:#000000;fill-rule:evenodd;fill-opacity:1;stroke:none;"
     d="  M 348.72051,23.733551   L 463.05462,20.612171   L 463.05462,23.733551   z "
     id="path83" />
  <path
     style="fill:#000000;fill-rule:evenodd;fill-opacity:1;stroke:none;"
     d="  M 270.5782,51.785949   L 271.73793,54.667222   L 348.16063,20.732224   z "
     id="path84" />
  <path
     style="fill:#000000;fill-rule:evenodd;fill-opacity:1;stroke:none;"
     d="  M 271.73793,54.667222   L 348.16063,20.732224   L 349.32037,23.613498   z "
     id="path85" />
  <path
     style="fill:#000000;fill-rule:evenodd;fill-opacity:1;stroke:none;"
     d="  M 665.32883,120.05612   L 665.32883,123.13748   L 1069.0774,120.05612   z "
     id="path86" />
  <path
     style="fill:#000000;fill-rule:evenodd;fill-opacity:1;stroke:none;"
     d="  M 665.32883,123.13748   L 1069.0774,120.05612   L 1069.0774,123.13748   z "
     id="path87" />
  <path
     style="fill:#000000;fill-rule:evenodd;fill-opacity:1;stroke:none;"
     d="  M 986.33615,38.860236   L 986.33615,41.981616   L 1069.0774,38.860236   z "
     id="path88" />
  <path
     style="fill:#000000;fill-rule:evenodd;fill-opacity:1;stroke:none;"
     d="  M 986.33615,41.981616   L 1069.0774,38.860236   L 1069.0774,41.981616   z "
     id="path89" />
  <path
     style="fill:#000000;fill-rule:evenodd;fill-opacity:1;stroke:none;"
     d="  M 899.43583,73.55557   L 900.59557,76.436844   L 985.77628,38.980289   z "
     id="path90" />
  <path
     style="fill:#000000;fill-rule:evenodd;fill-opacity:1;stroke:none;"
     d="  M 900.59557,76.436844   L 985.77628,38.980289   L 986.89603,41.861563   z "
     id="path91" />
  <path
     style="fill:#000000;fill-rule:evenodd;fill-opacity:1;stroke:none;"
     d="  M 665.32883,73.435517   L 665.32883,76.556897   L 899.9957,73.435517   z "
     id="path92" />
  <path
     style="fill:#000000;fill-rule:evenodd;fill-opacity:1;stroke:none;"
     d="  M 665.32883,76.556897   L 899.9957,73.435517   L 899.9957,76.556897   z "
     id="path93" />
  <path
     style="fill:none;stroke:#000000;stroke-width:0.95978272px;stroke-linecap:round;stroke-linejoin:round;stroke-miterlimit:4;stroke-dasharray:none;stroke-opacity:1;"
     d="  M 273.2176,125.49853   L 279.53617,134.54252  "
     id="path94" />
  <path
     style="fill:none;stroke:#000000;stroke-width:0.95978272px;stroke-linecap:round;stroke-linejoin:round;stroke-miterlimit:4;stroke-dasharray:none;stroke-opacity:1;"
     d="  M 281.29577,131.50118   L 274.57729,122.09702   L 285.93472,119.93607  "
     id="path95" />
  <path
     style="fill:none;stroke:#000000;stroke-width:0.95978272px;stroke-linecap:round;stroke-linejoin:round;stroke-miterlimit:4;stroke-dasharray:none;stroke-opacity:1;"
     d="  M 292.81316,122.89738   L 294.33282,122.53722   L 297.0522,120.73642   L 290.09378,138.22415  "
     id="path96" />
  <path
     style="fill:none;stroke:#000000;stroke-width:0.95978272px;stroke-linecap:round;stroke-linejoin:round;stroke-miterlimit:4;stroke-dasharray:none;stroke-opacity:1;"
     d="  M 301.73114,129.38024   L 300.81135,129.98051   L 301.0513,131.02097   L 301.97109,130.4207   L 301.73114,129.38024   z "
     id="path97" />
  <path
     style="fill:none;stroke:#000000;stroke-width:0.95978272px;stroke-linecap:round;stroke-linejoin:round;stroke-miterlimit:4;stroke-dasharray:none;stroke-opacity:1;"
     d="  M 297.73205,139.34465   L 296.81226,139.94491   L 297.0522,141.02539   L 297.97199,140.42512   L 297.73205,139.34465   z "
     id="path98" />
  <path
     style="fill:none;stroke:#000000;stroke-width:0.95978272px;stroke-linecap:round;stroke-linejoin:round;stroke-miterlimit:4;stroke-dasharray:none;stroke-opacity:1;"
     d="  M 311.12902,131.22106   L 311.44894,130.38068   L 312.68866,128.94005   L 313.60845,128.33978   L 315.08812,127.97962   L 317.44759,128.90003   L 318.2474,130.22061   L 318.52734,131.26107   L 318.40737,133.18192   L 317.76751,134.82265   L 316.52779,136.26328   L 314.36828,138.30419   L 305.21036,144.26682   L 313.36851,147.54827  "
     id="path99" />
  <path
     style="fill:none;stroke:#000000;stroke-width:0.95978272px;stroke-linecap:round;stroke-linejoin:round;stroke-miterlimit:4;stroke-dasharray:none;stroke-opacity:1;"
     d="  M 318.08744,147.50825   L 317.16765,148.10852   L 317.44759,149.189   L 318.32739,148.58873  "
     id="path100" />
  <path
     style="fill:none;stroke:#000000;stroke-width:0.95978272px;stroke-linecap:round;stroke-linejoin:round;stroke-miterlimit:4;stroke-dasharray:none;stroke-opacity:1;"
     d="  M 336.64324,136.58343   L 330.80456,134.2624   L 327.24537,141.5056   L 328.16516,140.90534   L 330.24469,140.78528   L 331.9643,141.46558   L 333.40397,143.02627   L 333.88386,145.14721   L 333.48395,147.86841   L 332.80411,149.54916   L 331.20447,151.79015   L 329.40488,152.99068   L 327.32535,153.15075   L 325.56575,152.43043   L 324.16606,150.90976   L 323.92612,149.82928   L 324.0061,147.94845  "
     id="path101" />
  <path
     style="fill:none;stroke:#000000;stroke-width:0.95978272px;stroke-linecap:round;stroke-linejoin:round;stroke-miterlimit:4;stroke-dasharray:none;stroke-opacity:1;"
     d="  M 898.55603,57.98869   L 909.39357,60.189663  "
     id="path102" />
  <path
     style="fill:none;stroke:#000000;stroke-width:0.95978272px;stroke-linecap:round;stroke-linejoin:round;stroke-miterlimit:4;stroke-dasharray:none;stroke-opacity:1;"
     d="  M 908.55376,56.748142   L 897.19633,54.587187   L 903.9548,45.183031  "
     id="path103" />
  <path
     style="fill:none;stroke:#000000;stroke-width:0.95978272px;stroke-linecap:round;stroke-linejoin:round;stroke-miterlimit:4;stroke-dasharray:none;stroke-opacity:1;"
     d="  M 910.99321,42.581881   L 911.83302,41.301315   L 912.59285,38.0999   L 919.55127,55.547611  "
     id="path104" />
  <path
     style="fill:none;stroke:#000000;stroke-width:0.95978272px;stroke-linecap:round;stroke-linejoin:round;stroke-miterlimit:4;stroke-dasharray:none;stroke-opacity:1;"
     d="  M 921.87075,41.101226   L 921.6308,42.181704   L 922.5506,42.781969   L 922.79054,41.701492   L 921.87075,41.101226   z "
     id="path105" />
  <path
     style="fill:none;stroke:#000000;stroke-width:0.95978272px;stroke-linecap:round;stroke-linejoin:round;stroke-miterlimit:4;stroke-dasharray:none;stroke-opacity:1;"
     d="  M 925.86984,51.105648   L 925.6299,52.186126   L 926.54969,52.786391   L 926.78964,51.705913   L 925.86984,51.105648   z "
     id="path106" />
  <path
     style="fill:none;stroke:#000000;stroke-width:0.95978272px;stroke-linecap:round;stroke-linejoin:round;stroke-miterlimit:4;stroke-dasharray:none;stroke-opacity:1;"
     d="  M 929.94892,35.978963   L 929.62899,35.138591   L 929.54901,33.217742   L 929.78896,32.177282   L 930.62877,30.856699   L 932.94824,29.936292   L 934.42791,30.296451   L 935.3477,30.896716   L 936.58742,32.337353   L 937.26726,33.978078   L 937.34725,35.898927   L 937.18728,38.860236   L 934.66785,49.504941   L 942.826,46.263508  "
     id="path107" />
  <path
     style="fill:none;stroke:#000000;stroke-width:0.95978272px;stroke-linecap:round;stroke-linejoin:round;stroke-miterlimit:4;stroke-dasharray:none;stroke-opacity:1;"
     d="  M 946.22524,42.94204   L 945.98529,44.022518   L 946.90508,44.622783   L 947.14503,43.542305  "
     id="path108" />
  <path
     style="fill:none;stroke:#000000;stroke-width:0.95978272px;stroke-linecap:round;stroke-linejoin:round;stroke-miterlimit:4;stroke-dasharray:none;stroke-opacity:1;"
     d="  M 952.1439,22.252896   L 946.30522,24.573922   L 948.74466,32.297335   L 948.98461,31.216858   L 950.38429,29.696186   L 952.1439,29.015885   L 954.22342,29.135938   L 956.02302,30.336469   L 957.62265,32.617477   L 958.3025,34.258202   L 958.70241,36.979405   L 958.18253,39.14036   L 956.78285,40.661032   L 955.06323,41.341333   L 952.98371,41.22128   L 952.06391,40.621014   L 950.82419,39.180378  "
     id="path109" />
</svg>
