<?xml version="1.0" encoding="UTF-8" standalone="no"?>
<svg
   version="1.0"
   width="314.07001mm"
   height="166.7mm"
   id="svg101"
   sodipodi:docname="image27.emf"
   xmlns:inkscape="http://www.inkscape.org/namespaces/inkscape"
   xmlns:sodipodi="http://sodipodi.sourceforge.net/DTD/sodipodi-0.dtd"
   xmlns="http://www.w3.org/2000/svg"
   xmlns:svg="http://www.w3.org/2000/svg">
  <sodipodi:namedview
     id="namedview101"
     pagecolor="#ffffff"
     bordercolor="#000000"
     borderopacity="0.25"
     inkscape:showpageshadow="2"
     inkscape:pageopacity="0.0"
     inkscape:pagecheckerboard="0"
     inkscape:deskcolor="#d1d1d1"
     inkscape:document-units="mm" />
  <defs
     id="defs1">
    <pattern
       id="EMFhbasepattern"
       patternUnits="userSpaceOnUse"
       width="6"
       height="6"
       x="0"
       y="0" />
  </defs>
  <path
     style="fill:none;stroke:#000000;stroke-width:0.037070576px;stroke-linecap:round;stroke-linejoin:round;stroke-miterlimit:4;stroke-dasharray:none;stroke-opacity:1;"
     d="  M 4.2305389,32.824956   L 4.2305389,10.43985  "
     id="path1" />
  <path
     style="fill:none;stroke:#000000;stroke-width:0.037070576px;stroke-linecap:round;stroke-linejoin:round;stroke-miterlimit:4;stroke-dasharray:none;stroke-opacity:1;"
     d="  M 271.58352,32.824956   L 271.58352,10.43985  "
     id="path2" />
  <path
     style="fill:none;stroke:#000000;stroke-width:0.037070576px;stroke-linecap:round;stroke-linejoin:round;stroke-miterlimit:4;stroke-dasharray:none;stroke-opacity:1;"
     d="  M 0.41226972,14.250868   L 275.40179,14.250868  "
     id="path3" />
  <path
     style="fill:#000000;fill-rule:evenodd;fill-opacity:1;stroke:none;"
     d="  M 7.6039611,12.252859   L 6.2323499,10.883852   L 2.1916573,17.654884   z "
     id="path4" />
  <path
     style="fill:#000000;fill-rule:evenodd;fill-opacity:1;stroke:none;"
     d="  M 6.2323499,10.883852   L 2.1916573,17.654884   L 0.85711661,16.285878   z "
     id="path5" />
  <path
     style="fill:#000000;fill-rule:evenodd;fill-opacity:1;stroke:none;"
     d="  M 268.2101,16.285878   L 269.54464,17.654884   L 273.58533,10.883852   z "
     id="path6" />
  <path
     style="fill:#000000;fill-rule:evenodd;fill-opacity:1;stroke:none;"
     d="  M 269.54464,17.654884   L 273.58533,10.883852   L 274.95694,12.252859   z "
     id="path7" />
  <path
     style="fill:none;stroke:#000000;stroke-width:0.037070576px;stroke-linecap:round;stroke-linejoin:round;stroke-miterlimit:4;stroke-dasharray:none;stroke-opacity:1;"
     d="  M 137.90703,9.5888462   L 137.90703,0.33880245  "
     id="path8" />
  <path
     style="fill:none;stroke:#000000;stroke-width:0.037070576px;stroke-linecap:round;stroke-linejoin:round;stroke-miterlimit:4;stroke-dasharray:none;stroke-opacity:1;"
     d="  M 4.2305389,51.917046   L 4.2305389,95.984255  "
     id="path9" />
  <path
     style="fill:none;stroke:#000000;stroke-width:0.037070576px;stroke-linecap:round;stroke-linejoin:round;stroke-miterlimit:4;stroke-dasharray:none;stroke-opacity:1;"
     d="  M 67.510009,51.917046   L 67.510009,95.984255  "
     id="path10" />
  <path
     style="fill:none;stroke:#000000;stroke-width:0.037070576px;stroke-linecap:round;stroke-linejoin:round;stroke-miterlimit:4;stroke-dasharray:none;stroke-opacity:1;"
     d="  M 0.41226972,92.173237   L 71.328278,92.173237  "
     id="path11" />
  <path
     style="fill:#000000;fill-rule:evenodd;fill-opacity:1;stroke:none;"
     d="  M 7.6039611,90.138227   L 6.2323499,88.806221   L 2.1916573,95.540253   z "
     id="path12" />
  <path
     style="fill:#000000;fill-rule:evenodd;fill-opacity:1;stroke:none;"
     d="  M 6.2323499,88.806221   L 2.1916573,95.540253   L 0.85711661,94.208246   z "
     id="path13" />
  <path
     style="fill:#000000;fill-rule:evenodd;fill-opacity:1;stroke:none;"
     d="  M 64.136587,94.208246   L 65.471128,95.540253   L 69.548891,88.806221   z "
     id="path14" />
  <path
     style="fill:#000000;fill-rule:evenodd;fill-opacity:1;stroke:none;"
     d="  M 65.471128,95.540253   L 69.548891,88.806221   L 70.883431,90.138227   z "
     id="path15" />
  <path
     style="fill:none;stroke:#000000;stroke-width:0.037070576px;stroke-linecap:round;stroke-linejoin:round;stroke-miterlimit:4;stroke-dasharray:none;stroke-opacity:1;"
     d="  M 34.146492,87.474215   L 37.556985,81.295185  "
     id="path16" />
  <path
     style="fill:none;stroke:#000000;stroke-width:0.037070576px;stroke-linecap:round;stroke-linejoin:round;stroke-miterlimit:4;stroke-dasharray:none;stroke-opacity:1;"
     d="  M 37.556985,87.474215   L 34.146492,81.295185  "
     id="path17" />
  <path
     style="fill:none;stroke:#000000;stroke-width:0.037070576px;stroke-linecap:round;stroke-linejoin:round;stroke-miterlimit:4;stroke-dasharray:none;stroke-opacity:1;"
     d="  M 212.45595,62.536097   L 225.69015,81.961188  "
     id="path18" />
  <path
     style="fill:none;stroke:#000000;stroke-width:0.037070576px;stroke-linecap:round;stroke-linejoin:round;stroke-miterlimit:4;stroke-dasharray:none;stroke-opacity:1;"
     d="  M 225.69015,81.961188   L 295.34576,81.961188  "
     id="path19" />
  <path
     style="fill:none;stroke:#000000;stroke-width:0.037070576px;stroke-linecap:round;stroke-linejoin:round;stroke-miterlimit:4;stroke-dasharray:none;stroke-opacity:1;"
     d="  M 147.43417,71.231138   L 160.77957,71.231138  "
     id="path20" />
  <path
     style="fill:none;stroke:#000000;stroke-width:0.037070576px;stroke-linecap:round;stroke-linejoin:round;stroke-miterlimit:4;stroke-dasharray:none;stroke-opacity:1;"
     d="  M 147.43417,42.371001   L 160.77957,42.371001  "
     id="path21" />
  <path
     style="fill:none;stroke:#000000;stroke-width:0.037070576px;stroke-linecap:round;stroke-linejoin:round;stroke-miterlimit:4;stroke-dasharray:none;stroke-opacity:1;"
     d="  M 156.9613,75.042156   L 156.9613,38.559983  "
     id="path22" />
  <path
     style="fill:#000000;fill-rule:evenodd;fill-opacity:1;stroke:none;"
     d="  M 154.92242,67.827122   L 153.58788,69.196128   L 160.33473,73.229147   z "
     id="path23" />
  <path
     style="fill:#000000;fill-rule:evenodd;fill-opacity:1;stroke:none;"
     d="  M 153.58788,69.196128   L 160.33473,73.229147   L 159.00019,74.598154   z "
     id="path24" />
  <path
     style="fill:#000000;fill-rule:evenodd;fill-opacity:1;stroke:none;"
     d="  M 159.00019,45.738017   L 160.33473,44.406011   L 153.58788,40.335992   z "
     id="path25" />
  <path
     style="fill:#000000;fill-rule:evenodd;fill-opacity:1;stroke:none;"
     d="  M 160.33473,44.406011   L 153.58788,40.335992   L 154.92242,39.003985   z "
     id="path26" />
  <path
     style="fill:none;stroke:#000000;stroke-width:0.037070576px;stroke-linecap:round;stroke-linejoin:round;stroke-miterlimit:4;stroke-dasharray:none;stroke-opacity:1;"
     d="  M 146.65569,63.720102   L 146.65569,57.541073   L 145.20993,57.541073   L 143.72711,58.059075   L 142.9857,58.577078   L 142.24429,59.613083   L 142.24429,61.13009   L 142.9857,62.166095   L 144.46852,63.2021   L 146.65569,63.720102   L 148.13851,63.720102   L 150.32567,63.2021   L 151.8085,62.166095   L 152.54991,61.13009   L 152.54991,59.613083   L 151.8085,58.577078   L 150.32567,57.541073  "
     id="path27" />
  <path
     style="fill:none;stroke:#000000;stroke-width:0.037070576px;stroke-linecap:round;stroke-linejoin:round;stroke-miterlimit:4;stroke-dasharray:none;stroke-opacity:1;"
     d="  M 77.074217,63.498101   L 91.754165,63.498101  "
     id="path28" />
  <path
     style="fill:none;stroke:#000000;stroke-width:0.037070576px;stroke-linecap:round;stroke-linejoin:round;stroke-miterlimit:4;stroke-dasharray:none;stroke-opacity:1;"
     d="  M 76.851794,42.371001   L 91.754165,42.371001  "
     id="path29" />
  <path
     style="fill:none;stroke:#000000;stroke-width:0.037070576px;stroke-linecap:round;stroke-linejoin:round;stroke-miterlimit:4;stroke-dasharray:none;stroke-opacity:1;"
     d="  M 87.935896,63.498101   L 87.935896,67.309119  "
     id="path30" />
  <path
     style="fill:none;stroke:#000000;stroke-width:0.037070576px;stroke-linecap:round;stroke-linejoin:round;stroke-miterlimit:4;stroke-dasharray:none;stroke-opacity:1;"
     d="  M 87.935896,42.371001   L 87.935896,38.559983  "
     id="path31" />
  <path
     style="fill:none;stroke:#000000;stroke-width:0.037070576px;stroke-linecap:round;stroke-linejoin:round;stroke-miterlimit:4;stroke-dasharray:none;stroke-opacity:1;"
     d="  M 87.935896,63.498101   L 87.935896,42.371001  "
     id="path32" />
  <path
     style="fill:#000000;fill-rule:evenodd;fill-opacity:1;stroke:none;"
     d="  M 89.974777,66.865117   L 91.309318,65.496111   L 84.562473,61.463092   z "
     id="path33" />
  <path
     style="fill:#000000;fill-rule:evenodd;fill-opacity:1;stroke:none;"
     d="  M 91.309318,65.496111   L 84.562473,61.463092   L 85.934085,60.131085   z "
     id="path34" />
  <path
     style="fill:#000000;fill-rule:evenodd;fill-opacity:1;stroke:none;"
     d="  M 85.934085,39.003985   L 84.562473,40.335992   L 91.309318,44.406011   z "
     id="path35" />
  <path
     style="fill:#000000;fill-rule:evenodd;fill-opacity:1;stroke:none;"
     d="  M 84.562473,40.335992   L 91.309318,44.406011   L 89.974777,45.738017   z "
     id="path36" />
  <path
     style="fill:none;stroke:#000000;stroke-width:0.037070576px;stroke-linecap:round;stroke-linejoin:round;stroke-miterlimit:4;stroke-dasharray:none;stroke-opacity:1;"
     d="  M 146.84104,54.76606   L 147.1376,55.395063   L 148.0273,55.802065   L 149.47305,56.024066   L 150.36274,56.024066   L 151.84557,55.802065   L 152.73526,55.395063   L 153.03182,54.76606   L 153.03182,54.359058   L 152.73526,53.767055   L 151.84557,53.360053   L 150.36274,53.138052   L 149.47305,53.138052   L 148.0273,53.360053   L 147.1376,53.767055   L 146.84104,54.359058   L 146.84104,54.76606   z "
     id="path37" />
  <path
     style="fill:#00ff00;fill-rule:evenodd;fill-opacity:1;stroke:none;"
     d="  M 79.001887,54.507059   L 79.076028,55.173062   L 79.557946,54.581059   L 80.48471,53.989056   L 81.189051,53.841055   L 82.708945,53.730055   L 83.67278,53.841055   L 84.896108,54.174057   L 85.340955,54.470058   L 85.822873,55.321062   L 85.971155,56.357067   L 86.26772,55.395063   L 86.008226,54.507059   L 85.266814,53.693055   L 85.266814,53.693055   L 84.154697,53.175052   L 82.783086,52.953051   L 81.522686,53.027052   L 80.336428,53.397053   L 79.81744,53.730055   z "
     id="path38" />
  <path
     style="fill:#00ff00;fill-rule:evenodd;fill-opacity:1;stroke:none;"
     d="  M 74.924124,53.693055   L 74.924124,54.80306   L 74.998265,54.655059   L 75.702606,54.174057   L 76.518159,54.137057   L 76.62937,53.582054   L 75.850888,53.286053   z "
     id="path39" />
  <path
     style="fill:#00ff00;fill-rule:evenodd;fill-opacity:1;stroke:none;"
     d="  M 74.442207,55.025061   L 74.479277,55.580064   L 74.924124,56.431068   L 75.29483,56.690069   L 76.5923,56.87507   L 76.740582,56.87507   L 77.704417,56.431068   L 78.705323,55.469063   L 79.113099,56.283067   L 80.002793,57.023071   L 81.11491,57.467073   L 82.560662,57.615073   L 82.634803,57.615073   L 84.080556,57.504073   L 85.192673,57.023071   L 85.971155,56.357067   L 85.822873,55.321062   L 85.785802,55.765065   L 84.97025,56.468068   L 83.969344,56.764069   L 82.41238,56.83807   L 81.11491,56.727069   L 80.002793,56.394068   L 79.557946,56.098066   L 79.076028,55.173062   L 79.001887,54.507059   L 78.594111,54.951061   L 77.481994,55.691064   L 76.666441,56.024066   L 75.517253,55.987066   L 75.109477,55.728064   L 74.924124,54.80306   L 74.924124,53.693055   L 74.701701,53.989056   z "
     id="path40" />
  <path
     style="fill:none;stroke:#000000;stroke-width:0.037070576px;stroke-linecap:round;stroke-linejoin:round;stroke-miterlimit:4;stroke-dasharray:none;stroke-opacity:1;"
     d="  M 79.409663,50.400039   L 79.706228,51.029042   L 80.595922,51.436044   L 82.041674,51.621045   L 82.931368,51.621045   L 84.414191,51.436044   L 85.266814,51.029042   L 85.563379,50.400039   L 85.563379,49.993037   L 85.266814,49.364034   L 84.414191,48.957032   L 82.931368,48.772031   L 82.041674,48.772031   L 80.595922,48.957032   L 79.706228,49.364034   L 79.409663,49.993037   L 79.409663,50.400039   z "
     id="path41" />
  <path
     style="fill:none;stroke:#000000;stroke-width:0.037070576px;stroke-linecap:round;stroke-linejoin:round;stroke-miterlimit:4;stroke-dasharray:none;stroke-opacity:1;"
     d="  M 260.87012,71.157137   L 261.46325,70.713135   L 262.39002,69.381129   L 262.39002,78.631173  "
     id="path42" />
  <path
     style="fill:#000000;fill-rule:evenodd;fill-opacity:1;stroke:none;"
     d="  M 3.9710448,42.889004   L 4.4529623,41.852999   L 36.111233,55.432063   z "
     id="path43" />
  <path
     style="fill:#000000;fill-rule:evenodd;fill-opacity:1;stroke:none;"
     d="  M 4.4529623,41.852999   L 36.111233,55.432063   L 36.481938,54.359058   z "
     id="path44" />
  <path
     style="fill:#000000;fill-rule:evenodd;fill-opacity:1;stroke:none;"
     d="  M 36.111233,55.432063   L 36.481938,54.359058   L 69.400608,64.497106   z "
     id="path45" />
  <path
     style="fill:#000000;fill-rule:evenodd;fill-opacity:1;stroke:none;"
     d="  M 36.481938,54.359058   L 69.400608,64.497106   L 69.623032,63.3501   z "
     id="path46" />
  <path
     style="fill:#000000;fill-rule:evenodd;fill-opacity:1;stroke:none;"
     d="  M 69.400608,64.497106   L 69.623032,63.3501   L 103.4314,69.973132   z "
     id="path47" />
  <path
     style="fill:#000000;fill-rule:evenodd;fill-opacity:1;stroke:none;"
     d="  M 69.623032,63.3501   L 103.4314,69.973132   L 103.57968,68.826126   z "
     id="path48" />
  <path
     style="fill:#000000;fill-rule:evenodd;fill-opacity:1;stroke:none;"
     d="  M 103.4314,69.973132   L 103.57968,68.826126   L 137.90703,71.78614   z "
     id="path49" />
  <path
     style="fill:#000000;fill-rule:evenodd;fill-opacity:1;stroke:none;"
     d="  M 103.57968,68.826126   L 137.90703,71.78614   L 137.90703,70.639135   z "
     id="path50" />
  <path
     style="fill:#000000;fill-rule:evenodd;fill-opacity:1;stroke:none;"
     d="  M 137.90703,71.78614   L 137.90703,70.639135   L 172.34559,69.973132   z "
     id="path51" />
  <path
     style="fill:#000000;fill-rule:evenodd;fill-opacity:1;stroke:none;"
     d="  M 137.90703,70.639135   L 172.34559,69.973132   L 172.19731,68.826126   z "
     id="path52" />
  <path
     style="fill:#000000;fill-rule:evenodd;fill-opacity:1;stroke:none;"
     d="  M 172.34559,69.973132   L 172.19731,68.826126   L 206.37638,64.497106   z "
     id="path53" />
  <path
     style="fill:#000000;fill-rule:evenodd;fill-opacity:1;stroke:none;"
     d="  M 172.19731,68.826126   L 206.37638,64.497106   L 206.15396,63.3501   z "
     id="path54" />
  <path
     style="fill:#000000;fill-rule:evenodd;fill-opacity:1;stroke:none;"
     d="  M 206.37638,64.497106   L 206.15396,63.3501   L 239.66576,55.432063   z "
     id="path55" />
  <path
     style="fill:#000000;fill-rule:evenodd;fill-opacity:1;stroke:none;"
     d="  M 206.15396,63.3501   L 239.66576,55.432063   L 239.33212,54.359058   z "
     id="path56" />
  <path
     style="fill:#000000;fill-rule:evenodd;fill-opacity:1;stroke:none;"
     d="  M 239.66576,55.432063   L 239.33212,54.359058   L 271.80594,42.889004   z "
     id="path57" />
  <path
     style="fill:#000000;fill-rule:evenodd;fill-opacity:1;stroke:none;"
     d="  M 239.33212,54.359058   L 271.80594,42.889004   L 271.32403,41.852999   z "
     id="path58" />
  <path
     style="fill:#000000;fill-rule:evenodd;fill-opacity:1;stroke:none;"
     d="  M 4.2305389,42.075   L 4.2305389,42.667003   L 8.9755724,42.075   z "
     id="path59" />
  <path
     style="fill:#000000;fill-rule:evenodd;fill-opacity:1;stroke:none;"
     d="  M 4.2305389,42.667003   L 8.9755724,42.075   L 8.9755724,42.667003   z "
     id="path60" />
  <path
     style="fill:#000000;fill-rule:evenodd;fill-opacity:1;stroke:none;"
     d="  M 12.793842,42.075   L 12.793842,42.667003   L 22.35805,42.075   z "
     id="path61" />
  <path
     style="fill:#000000;fill-rule:evenodd;fill-opacity:1;stroke:none;"
     d="  M 12.793842,42.667003   L 22.35805,42.075   L 22.35805,42.667003   z "
     id="path62" />
  <path
     style="fill:#000000;fill-rule:evenodd;fill-opacity:1;stroke:none;"
     d="  M 26.176319,42.075   L 26.176319,42.667003   L 35.740527,42.075   z "
     id="path63" />
  <path
     style="fill:#000000;fill-rule:evenodd;fill-opacity:1;stroke:none;"
     d="  M 26.176319,42.667003   L 35.740527,42.075   L 35.740527,42.667003   z "
     id="path64" />
  <path
     style="fill:#000000;fill-rule:evenodd;fill-opacity:1;stroke:none;"
     d="  M 39.558796,42.075   L 39.558796,42.667003   L 49.085934,42.075   z "
     id="path65" />
  <path
     style="fill:#000000;fill-rule:evenodd;fill-opacity:1;stroke:none;"
     d="  M 39.558796,42.667003   L 49.085934,42.075   L 49.085934,42.667003   z "
     id="path66" />
  <path
     style="fill:#000000;fill-rule:evenodd;fill-opacity:1;stroke:none;"
     d="  M 52.904203,42.075   L 52.904203,42.667003   L 62.468411,42.075   z "
     id="path67" />
  <path
     style="fill:#000000;fill-rule:evenodd;fill-opacity:1;stroke:none;"
     d="  M 52.904203,42.667003   L 62.468411,42.075   L 62.468411,42.667003   z "
     id="path68" />
  <path
     style="fill:#000000;fill-rule:evenodd;fill-opacity:1;stroke:none;"
     d="  M 66.28668,42.075   L 66.28668,42.667003   L 75.813818,42.075   z "
     id="path69" />
  <path
     style="fill:#000000;fill-rule:evenodd;fill-opacity:1;stroke:none;"
     d="  M 66.28668,42.667003   L 75.813818,42.075   L 75.813818,42.667003   z "
     id="path70" />
  <path
     style="fill:#000000;fill-rule:evenodd;fill-opacity:1;stroke:none;"
     d="  M 79.632087,42.075   L 79.632087,42.667003   L 89.196295,42.075   z "
     id="path71" />
  <path
     style="fill:#000000;fill-rule:evenodd;fill-opacity:1;stroke:none;"
     d="  M 79.632087,42.667003   L 89.196295,42.075   L 89.196295,42.667003   z "
     id="path72" />
  <path
     style="fill:#000000;fill-rule:evenodd;fill-opacity:1;stroke:none;"
     d="  M 93.014564,42.075   L 93.014564,42.667003   L 102.57877,42.075   z "
     id="path73" />
  <path
     style="fill:#000000;fill-rule:evenodd;fill-opacity:1;stroke:none;"
     d="  M 93.014564,42.667003   L 102.57877,42.075   L 102.57877,42.667003   z "
     id="path74" />
  <path
     style="fill:#000000;fill-rule:evenodd;fill-opacity:1;stroke:none;"
     d="  M 106.39704,42.075   L 106.39704,42.667003   L 115.92418,42.075   z "
     id="path75" />
  <path
     style="fill:#000000;fill-rule:evenodd;fill-opacity:1;stroke:none;"
     d="  M 106.39704,42.667003   L 115.92418,42.075   L 115.92418,42.667003   z "
     id="path76" />
  <path
     style="fill:#000000;fill-rule:evenodd;fill-opacity:1;stroke:none;"
     d="  M 119.74245,42.075   L 119.74245,42.667003   L 129.30666,42.075   z "
     id="path77" />
  <path
     style="fill:#000000;fill-rule:evenodd;fill-opacity:1;stroke:none;"
     d="  M 119.74245,42.667003   L 129.30666,42.075   L 129.30666,42.667003   z "
     id="path78" />
  <path
     style="fill:#000000;fill-rule:evenodd;fill-opacity:1;stroke:none;"
     d="  M 133.12493,42.075   L 133.12493,42.667003   L 142.65206,42.075   z "
     id="path79" />
  <path
     style="fill:#000000;fill-rule:evenodd;fill-opacity:1;stroke:none;"
     d="  M 133.12493,42.667003   L 142.65206,42.075   L 142.65206,42.667003   z "
     id="path80" />
  <path
     style="fill:#000000;fill-rule:evenodd;fill-opacity:1;stroke:none;"
     d="  M 146.47033,42.075   L 146.47033,42.667003   L 156.03454,42.075   z "
     id="path81" />
  <path
     style="fill:#000000;fill-rule:evenodd;fill-opacity:1;stroke:none;"
     d="  M 146.47033,42.667003   L 156.03454,42.075   L 156.03454,42.667003   z "
     id="path82" />
  <path
     style="fill:#000000;fill-rule:evenodd;fill-opacity:1;stroke:none;"
     d="  M 159.85281,42.075   L 159.85281,42.667003   L 169.41702,42.075   z "
     id="path83" />
  <path
     style="fill:#000000;fill-rule:evenodd;fill-opacity:1;stroke:none;"
     d="  M 159.85281,42.667003   L 169.41702,42.075   L 169.41702,42.667003   z "
     id="path84" />
  <path
     style="fill:#000000;fill-rule:evenodd;fill-opacity:1;stroke:none;"
     d="  M 173.23529,42.075   L 173.23529,42.667003   L 182.76242,42.075   z "
     id="path85" />
  <path
     style="fill:#000000;fill-rule:evenodd;fill-opacity:1;stroke:none;"
     d="  M 173.23529,42.667003   L 182.76242,42.075   L 182.76242,42.667003   z "
     id="path86" />
  <path
     style="fill:#000000;fill-rule:evenodd;fill-opacity:1;stroke:none;"
     d="  M 186.58069,42.075   L 186.58069,42.667003   L 196.1449,42.075   z "
     id="path87" />
  <path
     style="fill:#000000;fill-rule:evenodd;fill-opacity:1;stroke:none;"
     d="  M 186.58069,42.667003   L 196.1449,42.075   L 196.1449,42.667003   z "
     id="path88" />
  <path
     style="fill:#000000;fill-rule:evenodd;fill-opacity:1;stroke:none;"
     d="  M 199.96317,42.075   L 199.96317,42.667003   L 209.49031,42.075   z "
     id="path89" />
  <path
     style="fill:#000000;fill-rule:evenodd;fill-opacity:1;stroke:none;"
     d="  M 199.96317,42.667003   L 209.49031,42.075   L 209.49031,42.667003   z "
     id="path90" />
  <path
     style="fill:#000000;fill-rule:evenodd;fill-opacity:1;stroke:none;"
     d="  M 213.30858,42.075   L 213.30858,42.667003   L 222.87279,42.075   z "
     id="path91" />
  <path
     style="fill:#000000;fill-rule:evenodd;fill-opacity:1;stroke:none;"
     d="  M 213.30858,42.667003   L 222.87279,42.075   L 222.87279,42.667003   z "
     id="path92" />
  <path
     style="fill:#000000;fill-rule:evenodd;fill-opacity:1;stroke:none;"
     d="  M 226.69106,42.075   L 226.69106,42.667003   L 236.25526,42.075   z "
     id="path93" />
  <path
     style="fill:#000000;fill-rule:evenodd;fill-opacity:1;stroke:none;"
     d="  M 226.69106,42.667003   L 236.25526,42.075   L 236.25526,42.667003   z "
     id="path94" />
  <path
     style="fill:#000000;fill-rule:evenodd;fill-opacity:1;stroke:none;"
     d="  M 240.07353,42.075   L 240.07353,42.667003   L 249.60067,42.075   z "
     id="path95" />
  <path
     style="fill:#000000;fill-rule:evenodd;fill-opacity:1;stroke:none;"
     d="  M 240.07353,42.667003   L 249.60067,42.075   L 249.60067,42.667003   z "
     id="path96" />
  <path
     style="fill:#000000;fill-rule:evenodd;fill-opacity:1;stroke:none;"
     d="  M 253.41894,42.075   L 253.41894,42.667003   L 262.98315,42.075   z "
     id="path97" />
  <path
     style="fill:#000000;fill-rule:evenodd;fill-opacity:1;stroke:none;"
     d="  M 253.41894,42.667003   L 262.98315,42.075   L 262.98315,42.667003   z "
     id="path98" />
  <path
     style="fill:#000000;fill-rule:evenodd;fill-opacity:1;stroke:none;"
     d="  M 266.80142,42.075   L 266.80142,42.667003   L 271.58352,42.075   z "
     id="path99" />
  <path
     style="fill:#000000;fill-rule:evenodd;fill-opacity:1;stroke:none;"
     d="  M 266.80142,42.667003   L 271.58352,42.075   L 271.58352,42.667003   z "
     id="path100" />
  <path
     style="fill:#000000;fill-rule:evenodd;fill-opacity:1;stroke:none;"
     d="  M 271.58352,42.075   L 271.58352,42.667003   L 271.58352,42.667003   z "
     id="path101" />
</svg>
