<?xml version="1.0" encoding="UTF-8" standalone="no"?>
<svg
   version="1.0"
   width="229.39999mm"
   height="210.09mm"
   id="svg63"
   sodipodi:docname="image145.emf"
   xmlns:inkscape="http://www.inkscape.org/namespaces/inkscape"
   xmlns:sodipodi="http://sodipodi.sourceforge.net/DTD/sodipodi-0.dtd"
   xmlns="http://www.w3.org/2000/svg"
   xmlns:svg="http://www.w3.org/2000/svg">
  <sodipodi:namedview
     id="namedview63"
     pagecolor="#ffffff"
     bordercolor="#000000"
     borderopacity="0.25"
     inkscape:showpageshadow="2"
     inkscape:pageopacity="0.0"
     inkscape:pagecheckerboard="0"
     inkscape:deskcolor="#d1d1d1"
     inkscape:document-units="mm" />
  <defs
     id="defs1">
    <pattern
       id="EMFhbasepattern"
       patternUnits="userSpaceOnUse"
       width="6"
       height="6"
       x="0"
       y="0" />
  </defs>
  <path
     style="fill:#000000;fill-rule:evenodd;fill-opacity:1;stroke:none;"
     d="  M 21.487185,15.550302   L 21.487185,17.06264   L 96.849019,15.550302   z "
     id="path1" />
  <path
     style="fill:#000000;fill-rule:evenodd;fill-opacity:1;stroke:none;"
     d="  M 21.487185,17.06264   L 96.849019,15.550302   L 96.849019,17.06264   z "
     id="path2" />
  <path
     style="fill:#000000;fill-rule:evenodd;fill-opacity:1;stroke:none;"
     d="  M 6.5771779,102.15866   L 6.5771779,103.671   L 26.736807,102.15866   z "
     id="path3" />
  <path
     style="fill:#000000;fill-rule:evenodd;fill-opacity:1;stroke:none;"
     d="  M 6.5771779,103.671   L 26.736807,102.15866   L 26.736807,103.671   z "
     id="path4" />
  <path
     style="fill:#000000;fill-rule:evenodd;fill-opacity:1;stroke:none;"
     d="  M 94.332448,0.48093437   L 92.817094,0.58895851   L 102.42336,102.86081   z "
     id="path5" />
  <path
     style="fill:#000000;fill-rule:evenodd;fill-opacity:1;stroke:none;"
     d="  M 92.817094,0.58895851   L 102.42336,102.86081   L 100.90801,102.96884   z "
     id="path6" />
  <path
     style="fill:#000000;fill-rule:evenodd;fill-opacity:1;stroke:none;"
     d="  M 25.519111,0.58895851   L 24.003756,0.48093437   L 17.4282,102.96884   z "
     id="path7" />
  <path
     style="fill:#000000;fill-rule:evenodd;fill-opacity:1;stroke:none;"
     d="  M 24.003756,0.48093437   L 17.4282,102.96884   L 15.912845,102.86081   z "
     id="path8" />
  <path
     style="fill:#000000;fill-rule:evenodd;fill-opacity:1;stroke:none;"
     d="  M 91.599398,102.15866   L 91.599398,103.671   L 111.73197,102.15866   z "
     id="path9" />
  <path
     style="fill:#000000;fill-rule:evenodd;fill-opacity:1;stroke:none;"
     d="  M 91.599398,103.671   L 111.73197,102.15866   L 111.73197,103.671   z "
     id="path10" />
  <path
     style="fill:#000000;fill-rule:evenodd;fill-opacity:1;stroke:none;"
     d="  M 85.754459,0.075843841   L 84.536763,0.99404904   L 97.471397,15.847368   z "
     id="path11" />
  <path
     style="fill:#000000;fill-rule:evenodd;fill-opacity:1;stroke:none;"
     d="  M 84.536763,0.99404904   L 97.471397,15.847368   L 96.226642,16.765574   z "
     id="path12" />
  <path
     style="fill:#000000;fill-rule:evenodd;fill-opacity:1;stroke:none;"
     d="  M 59.85813,16.630544   L 58.478075,15.982399   L 17.34702,103.2659   z "
     id="path13" />
  <path
     style="fill:#000000;fill-rule:evenodd;fill-opacity:1;stroke:none;"
     d="  M 58.478075,15.982399   L 17.34702,103.2659   L 15.966965,102.59075   z "
     id="path14" />
  <path
     style="fill:#000000;fill-rule:evenodd;fill-opacity:1;stroke:none;"
     d="  M 59.85813,15.982399   L 58.478075,16.630544   L 102.34218,102.59075   z "
     id="path15" />
  <path
     style="fill:#000000;fill-rule:evenodd;fill-opacity:1;stroke:none;"
     d="  M 58.478075,16.630544   L 102.34218,102.59075   L 100.98918,103.2659   z "
     id="path16" />
  <path
     style="fill:#000000;fill-rule:evenodd;fill-opacity:1;stroke:none;"
     d="  M 33.799442,0.99404904   L 32.581746,0.075843841   L 22.082503,16.765574   z "
     id="path17" />
  <path
     style="fill:#000000;fill-rule:evenodd;fill-opacity:1;stroke:none;"
     d="  M 32.581746,0.075843841   L 22.082503,16.765574   L 20.864807,15.847368   z "
     id="path18" />
  <path
     style="fill:none;stroke:#000000;stroke-width:0.027059905px;stroke-linecap:round;stroke-linejoin:round;stroke-miterlimit:4;stroke-dasharray:none;stroke-opacity:1;"
     d="  M 23.516678,16.306471   L 44.028086,47.17437  "
     id="path19" />
  <path
     style="fill:none;stroke:#000000;stroke-width:0.027059905px;stroke-linecap:round;stroke-linejoin:round;stroke-miterlimit:4;stroke-dasharray:none;stroke-opacity:1;"
     d="  M 44.028086,47.17437   L 21.081287,47.17437  "
     id="path20" />
  <path
     style="fill:none;stroke:#000000;stroke-width:0.027059905px;stroke-linecap:round;stroke-linejoin:round;stroke-miterlimit:4;stroke-dasharray:none;stroke-opacity:1;"
     d="  M 21.081287,47.17437   L 30.985212,73.721302  "
     id="path21" />
  <path
     style="fill:none;stroke:#000000;stroke-width:0.027059905px;stroke-linecap:round;stroke-linejoin:round;stroke-miterlimit:4;stroke-dasharray:none;stroke-opacity:1;"
     d="  M 30.985212,73.721302   L 18.970614,73.721302  "
     id="path22" />
  <path
     style="fill:none;stroke:#000000;stroke-width:0.027059905px;stroke-linecap:round;stroke-linejoin:round;stroke-miterlimit:4;stroke-dasharray:none;stroke-opacity:1;"
     d="  M 39.076123,57.247621   L 47.518813,67.077818  "
     id="path23" />
  <path
     style="fill:none;stroke:#000000;stroke-width:0.027059905px;stroke-linecap:round;stroke-linejoin:round;stroke-miterlimit:4;stroke-dasharray:none;stroke-opacity:1;"
     d="  M 20.24243,57.598699   L 6.5771779,62.9729  "
     id="path24" />
  <path
     style="fill:none;stroke:#000000;stroke-width:0.027059905px;stroke-linecap:round;stroke-linejoin:round;stroke-miterlimit:4;stroke-dasharray:none;stroke-opacity:1;"
     d="  M 34.908898,33.455304   L 41.024436,27.243915  "
     id="path25" />
  <path
     style="fill:none;stroke:#000000;stroke-width:0.027059905px;stroke-linecap:round;stroke-linejoin:round;stroke-miterlimit:4;stroke-dasharray:none;stroke-opacity:1;"
     d="  M -0.45839728,59.786188   L 0.10986072,59.381098   L 0.97577766,58.13882   L 0.97577766,66.753745  "
     id="path26" />
  <path
     style="fill:none;stroke:#000000;stroke-width:0.027059905px;stroke-linecap:round;stroke-linejoin:round;stroke-miterlimit:4;stroke-dasharray:none;stroke-opacity:1;"
     d="  M 52.606075,67.725962   L 52.606075,67.293866   L 52.876675,66.483685   L 53.174333,66.078594   L 53.742591,65.673504   L 54.906167,65.673504   L 55.474425,66.078594   L 55.772084,66.483685   L 56.042683,67.293866   L 56.042683,68.131053   L 55.772084,68.941234   L 55.176766,70.183512   L 52.308417,74.261423   L 56.340342,74.261423  "
     id="path27" />
  <path
     style="fill:none;stroke:#000000;stroke-width:0.027059905px;stroke-linecap:round;stroke-linejoin:round;stroke-miterlimit:4;stroke-dasharray:none;stroke-opacity:1;"
     d="  M 43.649247,21.950732   L 46.815256,21.950732   L 45.083422,25.218463   L 45.949339,25.218463   L 46.517597,25.623553   L 46.815256,26.05565   L 47.085855,27.270921   L 47.085855,28.081103   L 46.815256,29.32338   L 46.219938,30.133561   L 45.354021,30.565658   L 44.515164,30.565658   L 43.649247,30.133561   L 43.351588,29.728471   L 43.053929,28.91829  "
     id="path28" />
  <path
     style="fill:#000000;fill-rule:evenodd;fill-opacity:1;stroke:none;"
     d="  M 8.254892,13.065747   L 8.254892,13.821916   L 17.31996,13.065747   z "
     id="path29" />
  <path
     style="fill:#000000;fill-rule:evenodd;fill-opacity:1;stroke:none;"
     d="  M 8.254892,13.821916   L 17.31996,13.065747   L 17.31996,13.821916   z "
     id="path30" />
  <path
     style="fill:none;stroke:#000000;stroke-width:0.027059905px;stroke-linecap:round;stroke-linejoin:round;stroke-miterlimit:4;stroke-dasharray:none;stroke-opacity:1;"
     d="  M 12.124458,19.304141   L 12.936255,18.737014   L 14.181011,16.981622   L 14.181011,29.269368  "
     id="path31" />
  <path
     style="fill:#000000;fill-rule:evenodd;fill-opacity:1;stroke:none;"
     d="  M 99.63619,13.065747   L 99.63619,13.821916   L 108.70126,13.065747   z "
     id="path32" />
  <path
     style="fill:#000000;fill-rule:evenodd;fill-opacity:1;stroke:none;"
     d="  M 99.63619,13.821916   L 108.70126,13.065747   L 108.70126,13.821916   z "
     id="path33" />
  <path
     style="fill:none;stroke:#000000;stroke-width:0.027059905px;stroke-linecap:round;stroke-linejoin:round;stroke-miterlimit:4;stroke-dasharray:none;stroke-opacity:1;"
     d="  M 103.50576,19.304141   L 104.31755,18.737014   L 105.53525,16.981622   L 105.53525,29.269368  "
     id="path34" />
  <path
     style="fill:#000000;fill-rule:evenodd;fill-opacity:1;stroke:none;"
     d="  M 23.895517,209.12956   L 23.137839,209.12956   L 23.895517,220.25605   z "
     id="path35" />
  <path
     style="fill:#000000;fill-rule:evenodd;fill-opacity:1;stroke:none;"
     d="  M 23.137839,209.12956   L 23.895517,220.25605   L 23.137839,220.25605   z "
     id="path36" />
  <path
     style="fill:#000000;fill-rule:evenodd;fill-opacity:1;stroke:none;"
     d="  M 95.198365,209.12956   L 94.440688,209.12956   L 95.198365,220.25605   z "
     id="path37" />
  <path
     style="fill:#000000;fill-rule:evenodd;fill-opacity:1;stroke:none;"
     d="  M 94.440688,209.12956   L 95.198365,220.25605   L 94.440688,220.25605   z "
     id="path38" />
  <path
     style="fill:none;stroke:#000000;stroke-width:0.027059905px;stroke-linecap:round;stroke-linejoin:round;stroke-miterlimit:4;stroke-dasharray:none;stroke-opacity:1;"
     d="  M 30.633433,146.98868   L 87.702772,146.98868  "
     id="path39" />
  <path
     style="fill:#000000;fill-rule:evenodd;fill-opacity:1;stroke:none;"
     d="  M 23.137839,160.22163   L 23.895517,160.22163   L 23.137839,149.09515   z "
     id="path40" />
  <path
     style="fill:#000000;fill-rule:evenodd;fill-opacity:1;stroke:none;"
     d="  M 23.895517,160.22163   L 23.137839,149.09515   L 23.895517,149.09515   z "
     id="path41" />
  <path
     style="fill:#000000;fill-rule:evenodd;fill-opacity:1;stroke:none;"
     d="  M 94.440688,160.22163   L 95.198365,160.22163   L 94.440688,149.09515   z "
     id="path42" />
  <path
     style="fill:#000000;fill-rule:evenodd;fill-opacity:1;stroke:none;"
     d="  M 95.198365,160.22163   L 94.440688,149.09515   L 95.198365,149.09515   z "
     id="path43" />
  <path
     style="fill:#000000;fill-rule:evenodd;fill-opacity:1;stroke:none;"
     d="  M 34.665359,220.63413   L 34.665359,219.87797   L 23.516678,220.63413   z "
     id="path44" />
  <path
     style="fill:#000000;fill-rule:evenodd;fill-opacity:1;stroke:none;"
     d="  M 34.665359,219.87797   L 23.516678,220.63413   L 23.516678,219.87797   z "
     id="path45" />
  <path
     style="fill:#000000;fill-rule:evenodd;fill-opacity:1;stroke:none;"
     d="  M 83.670846,148.71706   L 83.670846,149.47323   L 94.819527,148.71706   z "
     id="path46" />
  <path
     style="fill:#000000;fill-rule:evenodd;fill-opacity:1;stroke:none;"
     d="  M 83.670846,149.47323   L 94.819527,148.71706   L 94.819527,149.47323   z "
     id="path47" />
  <path
     style="fill:#000000;fill-rule:evenodd;fill-opacity:1;stroke:none;"
     d="  M 83.670846,219.87797   L 83.670846,220.63413   L 94.819527,219.87797   z "
     id="path48" />
  <path
     style="fill:#000000;fill-rule:evenodd;fill-opacity:1;stroke:none;"
     d="  M 83.670846,220.63413   L 94.819527,219.87797   L 94.819527,220.63413   z "
     id="path49" />
  <path
     style="fill:#000000;fill-rule:evenodd;fill-opacity:1;stroke:none;"
     d="  M 34.665359,149.47323   L 34.665359,148.71706   L 23.516678,149.47323   z "
     id="path50" />
  <path
     style="fill:#000000;fill-rule:evenodd;fill-opacity:1;stroke:none;"
     d="  M 34.665359,148.71706   L 23.516678,149.47323   L 23.516678,148.71706   z "
     id="path51" />
  <path
     style="fill:none;stroke:#000000;stroke-width:0.027059905px;stroke-linecap:round;stroke-linejoin:round;stroke-miterlimit:4;stroke-dasharray:none;stroke-opacity:1;"
     d="  M 59.154572,146.98868   L 21.406006,184.6891  "
     id="path52" />
  <path
     style="fill:none;stroke:#000000;stroke-width:0.027059905px;stroke-linecap:round;stroke-linejoin:round;stroke-miterlimit:4;stroke-dasharray:none;stroke-opacity:1;"
     d="  M 21.406006,184.6891   L 59.154572,222.36252  "
     id="path53" />
  <path
     style="fill:none;stroke:#000000;stroke-width:0.027059905px;stroke-linecap:round;stroke-linejoin:round;stroke-miterlimit:4;stroke-dasharray:none;stroke-opacity:1;"
     d="  M 59.154572,222.36252   L 96.930199,184.6891  "
     id="path54" />
  <path
     style="fill:none;stroke:#000000;stroke-width:0.027059905px;stroke-linecap:round;stroke-linejoin:round;stroke-miterlimit:4;stroke-dasharray:none;stroke-opacity:1;"
     d="  M 96.930199,184.6891   L 59.154572,146.98868  "
     id="path55" />
  <path
     style="fill:none;stroke:#000000;stroke-width:0.027059905px;stroke-linecap:round;stroke-linejoin:round;stroke-miterlimit:4;stroke-dasharray:none;stroke-opacity:1;"
     d="  M 30.633433,222.36252   L 87.702772,222.36252  "
     id="path56" />
  <path
     style="fill:none;stroke:#000000;stroke-width:0.027059905px;stroke-linecap:round;stroke-linejoin:round;stroke-miterlimit:4;stroke-dasharray:none;stroke-opacity:1;"
     d="  M 21.406006,156.19773   L 21.406006,213.15346  "
     id="path57" />
  <path
     style="fill:none;stroke:#000000;stroke-width:0.027059905px;stroke-linecap:round;stroke-linejoin:round;stroke-miterlimit:4;stroke-dasharray:none;stroke-opacity:1;"
     d="  M 96.930199,156.19773   L 96.930199,213.15346  "
     id="path58" />
  <path
     style="fill:#000000;fill-rule:evenodd;fill-opacity:1;stroke:none;"
     d="  M 50.549523,257.71342   L 50.549523,258.46959   L 77.717667,257.71342   z "
     id="path59" />
  <path
     style="fill:#000000;fill-rule:evenodd;fill-opacity:1;stroke:none;"
     d="  M 50.549523,258.46959   L 77.717667,257.71342   L 77.717667,258.46959   z "
     id="path60" />
  <path
     style="fill:none;stroke:#000000;stroke-width:0.027059905px;stroke-linecap:round;stroke-linejoin:round;stroke-miterlimit:4;stroke-dasharray:none;stroke-opacity:1;"
     d="  M 52.146057,243.21118   L 52.984914,242.61705   L 54.20261,240.86166   L 54.20261,253.17641  "
     id="path61" />
  <path
     style="fill:none;stroke:#000000;stroke-width:0.027059905px;stroke-linecap:round;stroke-linejoin:round;stroke-miterlimit:4;stroke-dasharray:none;stroke-opacity:1;"
     d="  M 58.721614,247.91023   L 66.108968,247.91023  "
     id="path62" />
  <path
     style="fill:none;stroke:#000000;stroke-width:0.027059905px;stroke-linecap:round;stroke-linejoin:round;stroke-miterlimit:4;stroke-dasharray:none;stroke-opacity:1;"
     d="  M 71.03387,243.21118   L 71.872728,242.61705   L 73.090423,240.86166   L 73.090423,253.17641  "
     id="path63" />
</svg>
