<?xml version="1.0" encoding="UTF-8" standalone="no"?>
<svg
   version="1.0"
   width="239.98443mm"
   height="199.50318mm"
   id="svg72"
   sodipodi:docname="image176.wmf"
   xmlns:inkscape="http://www.inkscape.org/namespaces/inkscape"
   xmlns:sodipodi="http://sodipodi.sourceforge.net/DTD/sodipodi-0.dtd"
   xmlns="http://www.w3.org/2000/svg"
   xmlns:svg="http://www.w3.org/2000/svg">
  <sodipodi:namedview
     id="namedview72"
     pagecolor="#ffffff"
     bordercolor="#000000"
     borderopacity="0.25"
     inkscape:showpageshadow="2"
     inkscape:pageopacity="0.0"
     inkscape:pagecheckerboard="0"
     inkscape:deskcolor="#d1d1d1"
     inkscape:document-units="mm" />
  <defs
     id="defs1">
    <pattern
       id="WMFhbasepattern"
       patternUnits="userSpaceOnUse"
       width="6"
       height="6"
       x="0"
       y="0" />
  </defs>
  <path
     style="fill:none;stroke:#000000;stroke-width:0.027777778px;stroke-linecap:round;stroke-linejoin:round;stroke-miterlimit:4;stroke-dasharray:none;stroke-opacity:1;"
     d="  M 128.58333,442.75   L 423.02778,442.75  "
     id="path1" />
  <path
     style="fill:none;stroke:#000000;stroke-width:0.027777778px;stroke-linecap:round;stroke-linejoin:round;stroke-miterlimit:4;stroke-dasharray:none;stroke-opacity:1;"
     d="  M 423.02778,181.63889   L 128.58333,181.63889  "
     id="path2" />
  <path
     style="fill:none;stroke:#000000;stroke-width:0.027777778px;stroke-linecap:round;stroke-linejoin:round;stroke-miterlimit:4;stroke-dasharray:none;stroke-opacity:1;"
     d="  M 128.58333,164.58333   L 128.58333,216.47222  "
     id="path3" />
  <path
     style="fill:none;stroke:#000000;stroke-width:0.027777778px;stroke-linecap:round;stroke-linejoin:round;stroke-miterlimit:4;stroke-dasharray:none;stroke-opacity:1;"
     d="  M 128.58333,233.52778   L 128.58333,250.61111  "
     id="path4" />
  <path
     style="fill:none;stroke:#000000;stroke-width:0.027777778px;stroke-linecap:round;stroke-linejoin:round;stroke-miterlimit:4;stroke-dasharray:none;stroke-opacity:1;"
     d="  M 128.58333,267.66667   L 128.58333,353.02778  "
     id="path5" />
  <path
     style="fill:none;stroke:#000000;stroke-width:0.027777778px;stroke-linecap:round;stroke-linejoin:round;stroke-miterlimit:4;stroke-dasharray:none;stroke-opacity:1;"
     d="  M 128.58333,370.08333   L 128.58333,387.16667  "
     id="path6" />
  <path
     style="fill:none;stroke:#000000;stroke-width:0.027777778px;stroke-linecap:round;stroke-linejoin:round;stroke-miterlimit:4;stroke-dasharray:none;stroke-opacity:1;"
     d="  M 128.58333,404.22222   L 128.58333,456.11111  "
     id="path7" />
  <path
     style="fill:none;stroke:#000000;stroke-width:0.027777778px;stroke-linecap:round;stroke-linejoin:round;stroke-miterlimit:4;stroke-dasharray:none;stroke-opacity:1;"
     d="  M 402.11111,300.08333   L 402.11111,324.30556  "
     id="path8" />
  <path
     style="fill:none;stroke:#000000;stroke-width:0.027777778px;stroke-linecap:round;stroke-linejoin:round;stroke-miterlimit:4;stroke-dasharray:none;stroke-opacity:1;"
     d="  M 388.16667,312.19444   L 416.05556,312.19444  "
     id="path9" />
  <path
     style="fill:none;stroke:#000000;stroke-width:0.027777778px;stroke-linecap:round;stroke-linejoin:round;stroke-miterlimit:4;stroke-dasharray:none;stroke-opacity:1;"
     d="  M 423.02778,442.75   L 445.69444,440.75   L 467.69444,434.86111   L 488.30556,425.25   L 506.94444,412.19444   L 523.02778,396.11111   L 536.08333,377.47222   L 545.69444,356.83333   L 551.58333,334.86111   L 553.55556,312.19444   L 551.58333,289.52778   L 545.69444,267.55556   L 536.08333,246.91667   L 523.02778,228.27778   L 506.94444,212.19444   L 488.30556,199.13889   L 467.69444,189.52778   L 445.69444,183.63889   L 423.02778,181.63889  "
     id="path10" />
  <path
     style="fill:none;stroke:#000000;stroke-width:0.027777778px;stroke-linecap:round;stroke-linejoin:round;stroke-miterlimit:4;stroke-dasharray:none;stroke-opacity:1;"
     d="  M 593.22222,313.22222   L 555.77778,313.22222  "
     id="path11" />
  <path
     style="fill:#000000;fill-rule:evenodd;fill-opacity:1;stroke:none;"
     d="  M 593.22222,309.63889   L 593.22222,316.80556   L 614.72222,313.22222  z "
     id="path12" />
  <path
     style="fill:none;stroke:#000000;stroke-width:0.027777778px;stroke-linecap:round;stroke-linejoin:round;stroke-miterlimit:4;stroke-dasharray:none;stroke-opacity:1;"
     d="  M 593.22222,309.63889   L 593.22222,316.80556   L 614.72222,313.22222   L 593.22222,309.63889  z "
     id="path13" />
  <path
     style="fill:none;stroke:#000000;stroke-width:0.027777778px;stroke-linecap:round;stroke-linejoin:round;stroke-miterlimit:4;stroke-dasharray:none;stroke-opacity:1;"
     d="  M 618.86111,324.47222   L 618.86111,302.75   L 629,324.47222   L 629,302.75  "
     id="path14" />
  <path
     style="fill:none;stroke:#000000;stroke-width:0.027777778px;stroke-linecap:round;stroke-linejoin:round;stroke-miterlimit:4;stroke-dasharray:none;stroke-opacity:1;"
     d="  M 449.13889,312.19444   L 447.52778,300.02778   L 442.83333,288.66667   L 435.36111,278.91667   L 425.61111,271.44444   L 414.27778,266.75   L 402.11111,265.13889   L 389.91667,266.75   L 378.58333,271.44444   L 368.83333,278.91667   L 361.36111,288.66667   L 356.66667,300.02778   L 355.05556,312.19444   L 356.66667,324.36111   L 361.36111,335.72222   L 368.83333,345.47222   L 378.58333,352.94444   L 389.91667,357.63889   L 402.11111,359.25   L 414.27778,357.63889   L 425.61111,352.94444   L 435.36111,345.47222   L 442.83333,335.72222   L 447.52778,324.36111   L 449.13889,312.19444  z "
     id="path15" />
  <path
     style="fill:none;stroke:#000000;stroke-width:0.027777778px;stroke-linecap:round;stroke-linejoin:round;stroke-miterlimit:4;stroke-dasharray:none;stroke-opacity:1;"
     d="  M 310.27778,359.25   L 239.52778,359.25  "
     id="path16" />
  <path
     style="fill:none;stroke:#000000;stroke-width:0.027777778px;stroke-linecap:round;stroke-linejoin:round;stroke-miterlimit:4;stroke-dasharray:none;stroke-opacity:1;"
     d="  M 310.27778,265.13889   L 239.52778,265.13889  "
     id="path17" />
  <path
     style="fill:none;stroke:#000000;stroke-width:0.027777778px;stroke-linecap:round;stroke-linejoin:round;stroke-miterlimit:4;stroke-dasharray:none;stroke-opacity:1;"
     d="  M 244.91667,348.5   L 244.91667,275.88889  "
     id="path18" />
  <path
     style="fill:#000000;fill-rule:evenodd;fill-opacity:1;stroke:none;"
     d="  M 243.11111,348.5   L 246.69444,348.5   L 244.91667,359.25  z "
     id="path19" />
  <path
     style="fill:none;stroke:#000000;stroke-width:0.027777778px;stroke-linecap:round;stroke-linejoin:round;stroke-miterlimit:4;stroke-dasharray:none;stroke-opacity:1;"
     d="  M 243.11111,348.5   L 246.69444,348.5   L 244.91667,359.25   L 243.11111,348.5  z "
     id="path20" />
  <path
     style="fill:#000000;fill-rule:evenodd;fill-opacity:1;stroke:none;"
     d="  M 243.11111,275.88889   L 246.69444,275.88889   L 244.91667,265.13889  z "
     id="path21" />
  <path
     style="fill:none;stroke:#000000;stroke-width:0.027777778px;stroke-linecap:round;stroke-linejoin:round;stroke-miterlimit:4;stroke-dasharray:none;stroke-opacity:1;"
     d="  M 243.11111,275.88889   L 246.69444,275.88889   L 244.91667,265.13889   L 243.11111,275.88889  z "
     id="path22" />
  <path
     style="fill:none;stroke:#000000;stroke-width:0.027777778px;stroke-linecap:round;stroke-linejoin:round;stroke-miterlimit:4;stroke-dasharray:none;stroke-opacity:1;"
     d="  M 257.08333,306   L 257.08333,319.02778  "
     id="path23" />
  <path
     style="fill:none;stroke:#000000;stroke-width:0.027777778px;stroke-linecap:round;stroke-linejoin:round;stroke-miterlimit:4;stroke-dasharray:none;stroke-opacity:1;"
     d="  M 257.08333,312.19444   L 256.22222,310.94444   L 255.33333,310.33333   L 254.05556,310.33333   L 253.16667,310.94444   L 252.30556,312.19444   L 251.86111,314.05556   L 251.86111,315.30556   L 252.30556,317.16667   L 253.16667,318.38889   L 254.05556,319.02778   L 255.33333,319.02778   L 256.22222,318.38889   L 257.08333,317.16667  "
     id="path24" />
  <path
     style="fill:none;stroke:#000000;stroke-width:0.027777778px;stroke-linecap:round;stroke-linejoin:round;stroke-miterlimit:4;stroke-dasharray:none;stroke-opacity:1;"
     d="  M 553.55556,324.55556   L 553.55556,512.30556  "
     id="path25" />
  <path
     style="fill:none;stroke:#000000;stroke-width:0.027777778px;stroke-linecap:round;stroke-linejoin:round;stroke-miterlimit:4;stroke-dasharray:none;stroke-opacity:1;"
     d="  M 449.13889,428.38889   L 449.13889,512.30556  "
     id="path26" />
  <path
     style="fill:none;stroke:#000000;stroke-width:0.027777778px;stroke-linecap:round;stroke-linejoin:round;stroke-miterlimit:4;stroke-dasharray:none;stroke-opacity:1;"
     d="  M 542.80556,506.94444   L 459.88889,506.94444  "
     id="path27" />
  <path
     style="fill:#000000;fill-rule:evenodd;fill-opacity:1;stroke:none;"
     d="  M 542.80556,505.13889   L 542.80556,508.72222   L 553.55556,506.94444  z "
     id="path28" />
  <path
     style="fill:none;stroke:#000000;stroke-width:0.027777778px;stroke-linecap:round;stroke-linejoin:round;stroke-miterlimit:4;stroke-dasharray:none;stroke-opacity:1;"
     d="  M 542.80556,505.13889   L 542.80556,508.72222   L 553.55556,506.94444   L 542.80556,505.13889  z "
     id="path29" />
  <path
     style="fill:#000000;fill-rule:evenodd;fill-opacity:1;stroke:none;"
     d="  M 459.88889,505.13889   L 459.88889,508.72222   L 449.13889,506.94444  z "
     id="path30" />
  <path
     style="fill:none;stroke:#000000;stroke-width:0.027777778px;stroke-linecap:round;stroke-linejoin:round;stroke-miterlimit:4;stroke-dasharray:none;stroke-opacity:1;"
     d="  M 459.88889,505.13889   L 459.88889,508.72222   L 449.13889,506.94444   L 459.88889,505.13889  z "
     id="path31" />
  <path
     style="fill:none;stroke:#000000;stroke-width:0.027777778px;stroke-linecap:round;stroke-linejoin:round;stroke-miterlimit:4;stroke-dasharray:none;stroke-opacity:1;"
     d="  M 503.94444,491.63889   L 503.94444,500.33333  "
     id="path32" />
  <path
     style="fill:none;stroke:#000000;stroke-width:0.027777778px;stroke-linecap:round;stroke-linejoin:round;stroke-miterlimit:4;stroke-dasharray:none;stroke-opacity:1;"
     d="  M 503.94444,493.5   L 503.08333,492.25   L 502.22222,491.63889   L 500.91667,491.63889   L 500.05556,492.25   L 499.16667,493.5   L 498.75,495.36111   L 498.75,496.61111   L 499.16667,498.47222   L 500.05556,499.69444   L 500.91667,500.33333   L 502.22222,500.33333   L 503.08333,499.69444   L 503.94444,498.47222  "
     id="path33" />
  <path
     style="fill:none;stroke:#000000;stroke-width:0.027777778px;stroke-linecap:round;stroke-linejoin:round;stroke-miterlimit:4;stroke-dasharray:none;stroke-opacity:1;"
     d="  M 261.86111,313.38889   L 261.22222,313.69444   L 260.77778,314.63889   L 260.55556,316.16667   L 260.55556,317.11111   L 260.77778,318.66667   L 261.22222,319.58333   L 261.86111,319.88889   L 262.30556,319.88889   L 262.94444,319.58333   L 263.38889,318.66667   L 263.61111,317.11111   L 263.61111,316.16667   L 263.38889,314.63889   L 262.94444,313.69444   L 262.30556,313.38889   L 261.86111,313.38889  z "
     id="path34" />
  <path
     style="fill:none;stroke:#000000;stroke-width:0.027777778px;stroke-linecap:round;stroke-linejoin:round;stroke-miterlimit:4;stroke-dasharray:none;stroke-opacity:1;"
     d="  M 402.27778,370   L 402.27778,512.30556  "
     id="path35" />
  <path
     style="fill:none;stroke:#000000;stroke-width:0.027777778px;stroke-linecap:round;stroke-linejoin:round;stroke-miterlimit:4;stroke-dasharray:none;stroke-opacity:1;"
     d="  M 449.13889,322.91667   L 449.13889,512.30556  "
     id="path36" />
  <path
     style="fill:none;stroke:#000000;stroke-width:0.027777778px;stroke-linecap:round;stroke-linejoin:round;stroke-miterlimit:4;stroke-dasharray:none;stroke-opacity:1;"
     d="  M 413.02778,506.94444   L 438.38889,506.94444  "
     id="path37" />
  <path
     style="fill:#000000;fill-rule:evenodd;fill-opacity:1;stroke:none;"
     d="  M 413.02778,505.13889   L 413.02778,508.72222   L 402.27778,506.94444  z "
     id="path38" />
  <path
     style="fill:none;stroke:#000000;stroke-width:0.027777778px;stroke-linecap:round;stroke-linejoin:round;stroke-miterlimit:4;stroke-dasharray:none;stroke-opacity:1;"
     d="  M 413.02778,505.13889   L 413.02778,508.72222   L 402.27778,506.94444   L 413.02778,505.13889  z "
     id="path39" />
  <path
     style="fill:#000000;fill-rule:evenodd;fill-opacity:1;stroke:none;"
     d="  M 438.38889,505.13889   L 438.38889,508.72222   L 449.13889,506.94444  z "
     id="path40" />
  <path
     style="fill:none;stroke:#000000;stroke-width:0.027777778px;stroke-linecap:round;stroke-linejoin:round;stroke-miterlimit:4;stroke-dasharray:none;stroke-opacity:1;"
     d="  M 438.38889,505.13889   L 438.38889,508.72222   L 449.13889,506.94444   L 438.38889,505.13889  z "
     id="path41" />
  <path
     style="fill:none;stroke:#000000;stroke-width:0.027777778px;stroke-linecap:round;stroke-linejoin:round;stroke-miterlimit:4;stroke-dasharray:none;stroke-opacity:1;"
     d="  M 544.80556,359.22222   L 532.5,359.22222  "
     id="path42" />
  <path
     style="fill:none;stroke:#000000;stroke-width:0.027777778px;stroke-linecap:round;stroke-linejoin:round;stroke-miterlimit:4;stroke-dasharray:none;stroke-opacity:1;"
     d="  M 527.11111,359.22222   L 516.36111,359.22222  "
     id="path43" />
  <path
     style="fill:none;stroke:#000000;stroke-width:0.027777778px;stroke-linecap:round;stroke-linejoin:round;stroke-miterlimit:4;stroke-dasharray:none;stroke-opacity:1;"
     d="  M 511,359.22222   L 500.25,359.22222  "
     id="path44" />
  <path
     style="fill:none;stroke:#000000;stroke-width:0.027777778px;stroke-linecap:round;stroke-linejoin:round;stroke-miterlimit:4;stroke-dasharray:none;stroke-opacity:1;"
     d="  M 494.86111,359.22222   L 484.11111,359.22222  "
     id="path45" />
  <path
     style="fill:none;stroke:#000000;stroke-width:0.027777778px;stroke-linecap:round;stroke-linejoin:round;stroke-miterlimit:4;stroke-dasharray:none;stroke-opacity:1;"
     d="  M 478.75,359.22222   L 468,359.22222  "
     id="path46" />
  <path
     style="fill:none;stroke:#000000;stroke-width:0.027777778px;stroke-linecap:round;stroke-linejoin:round;stroke-miterlimit:4;stroke-dasharray:none;stroke-opacity:1;"
     d="  M 462.61111,359.22222   L 451.86111,359.22222  "
     id="path47" />
  <path
     style="fill:none;stroke:#000000;stroke-width:0.027777778px;stroke-linecap:round;stroke-linejoin:round;stroke-miterlimit:4;stroke-dasharray:none;stroke-opacity:1;"
     d="  M 446.5,359.25   L 435.75,359.25  "
     id="path48" />
  <path
     style="fill:none;stroke:#000000;stroke-width:0.027777778px;stroke-linecap:round;stroke-linejoin:round;stroke-miterlimit:4;stroke-dasharray:none;stroke-opacity:1;"
     d="  M 430.36111,359.25   L 419.61111,359.25  "
     id="path49" />
  <path
     style="fill:none;stroke:#000000;stroke-width:0.027777778px;stroke-linecap:round;stroke-linejoin:round;stroke-miterlimit:4;stroke-dasharray:none;stroke-opacity:1;"
     d="  M 414.25,359.25   L 401.94444,359.25  "
     id="path50" />
  <path
     style="fill:none;stroke:#000000;stroke-width:0.027777778px;stroke-linecap:round;stroke-linejoin:round;stroke-miterlimit:4;stroke-dasharray:none;stroke-opacity:1;"
     d="  M 544.80556,265.16667   L 532.5,265.16667  "
     id="path51" />
  <path
     style="fill:none;stroke:#000000;stroke-width:0.027777778px;stroke-linecap:round;stroke-linejoin:round;stroke-miterlimit:4;stroke-dasharray:none;stroke-opacity:1;"
     d="  M 527.11111,265.16667   L 516.36111,265.16667  "
     id="path52" />
  <path
     style="fill:none;stroke:#000000;stroke-width:0.027777778px;stroke-linecap:round;stroke-linejoin:round;stroke-miterlimit:4;stroke-dasharray:none;stroke-opacity:1;"
     d="  M 511,265.16667   L 500.25,265.16667  "
     id="path53" />
  <path
     style="fill:none;stroke:#000000;stroke-width:0.027777778px;stroke-linecap:round;stroke-linejoin:round;stroke-miterlimit:4;stroke-dasharray:none;stroke-opacity:1;"
     d="  M 494.86111,265.16667   L 484.11111,265.16667  "
     id="path54" />
  <path
     style="fill:none;stroke:#000000;stroke-width:0.027777778px;stroke-linecap:round;stroke-linejoin:round;stroke-miterlimit:4;stroke-dasharray:none;stroke-opacity:1;"
     d="  M 478.75,265.16667   L 468,265.16667  "
     id="path55" />
  <path
     style="fill:none;stroke:#000000;stroke-width:0.027777778px;stroke-linecap:round;stroke-linejoin:round;stroke-miterlimit:4;stroke-dasharray:none;stroke-opacity:1;"
     d="  M 462.61111,265.13889   L 451.86111,265.13889  "
     id="path56" />
  <path
     style="fill:none;stroke:#000000;stroke-width:0.027777778px;stroke-linecap:round;stroke-linejoin:round;stroke-miterlimit:4;stroke-dasharray:none;stroke-opacity:1;"
     d="  M 446.5,265.13889   L 435.75,265.13889  "
     id="path57" />
  <path
     style="fill:none;stroke:#000000;stroke-width:0.027777778px;stroke-linecap:round;stroke-linejoin:round;stroke-miterlimit:4;stroke-dasharray:none;stroke-opacity:1;"
     d="  M 430.36111,265.13889   L 419.61111,265.13889  "
     id="path58" />
  <path
     style="fill:none;stroke:#000000;stroke-width:0.027777778px;stroke-linecap:round;stroke-linejoin:round;stroke-miterlimit:4;stroke-dasharray:none;stroke-opacity:1;"
     d="  M 414.25,265.13889   L 401.94444,265.13889  "
     id="path59" />
  <path
     style="fill:none;stroke:#000000;stroke-width:0.027777778px;stroke-linecap:round;stroke-linejoin:round;stroke-miterlimit:4;stroke-dasharray:none;stroke-opacity:1;"
     d="  M 544.80556,254.41667   L 544.80556,112.08333  "
     id="path60" />
  <path
     style="fill:none;stroke:#000000;stroke-width:0.027777778px;stroke-linecap:round;stroke-linejoin:round;stroke-miterlimit:4;stroke-dasharray:none;stroke-opacity:1;"
     d="  M 402.27778,254.38889   L 402.27778,112.08333  "
     id="path61" />
  <path
     style="fill:none;stroke:#000000;stroke-width:0.027777778px;stroke-linecap:round;stroke-linejoin:round;stroke-miterlimit:4;stroke-dasharray:none;stroke-opacity:1;"
     d="  M 534.05556,117.44444   L 413.02778,117.44444  "
     id="path62" />
  <path
     style="fill:#000000;fill-rule:evenodd;fill-opacity:1;stroke:none;"
     d="  M 534.05556,115.66667   L 534.05556,119.25   L 544.80556,117.44444  z "
     id="path63" />
  <path
     style="fill:none;stroke:#000000;stroke-width:0.027777778px;stroke-linecap:round;stroke-linejoin:round;stroke-miterlimit:4;stroke-dasharray:none;stroke-opacity:1;"
     d="  M 534.05556,115.66667   L 534.05556,119.25   L 544.80556,117.44444   L 534.05556,115.66667  z "
     id="path64" />
  <path
     style="fill:#000000;fill-rule:evenodd;fill-opacity:1;stroke:none;"
     d="  M 413.02778,115.66667   L 413.02778,119.25   L 402.27778,117.44444  z "
     id="path65" />
  <path
     style="fill:none;stroke:#000000;stroke-width:0.027777778px;stroke-linecap:round;stroke-linejoin:round;stroke-miterlimit:4;stroke-dasharray:none;stroke-opacity:1;"
     d="  M 413.02778,115.66667   L 413.02778,119.25   L 402.27778,117.44444   L 413.02778,115.66667  z "
     id="path66" />
  <path
     style="fill:none;stroke:#000000;stroke-width:0.027777778px;stroke-linecap:round;stroke-linejoin:round;stroke-miterlimit:4;stroke-dasharray:none;stroke-opacity:1;"
     d="  M 470.5,97.805556   L 476.58333,97.805556   L 470.5,110.83333   L 476.58333,110.83333  "
     id="path67" />
  <path
     style="fill:none;stroke:#000000;stroke-width:0.027777778px;stroke-linecap:round;stroke-linejoin:round;stroke-miterlimit:4;stroke-dasharray:none;stroke-opacity:1;"
     d="  M 415.30556,483.66667   L 415.30556,496.69444  "
     id="path68" />
  <path
     style="fill:none;stroke:#000000;stroke-width:0.027777778px;stroke-linecap:round;stroke-linejoin:round;stroke-miterlimit:4;stroke-dasharray:none;stroke-opacity:1;"
     d="  M 415.30556,489.88889   L 414.44444,488.63889   L 413.58333,488.02778   L 412.27778,488.02778   L 411.41667,488.63889   L 410.52778,489.88889   L 410.11111,491.75   L 410.11111,492.97222   L 410.52778,494.83333   L 411.41667,496.08333   L 412.27778,496.69444   L 413.58333,496.69444   L 414.44444,496.08333   L 415.30556,494.83333  "
     id="path69" />
  <path
     style="fill:none;stroke:#000000;stroke-width:0.027777778px;stroke-linecap:round;stroke-linejoin:round;stroke-miterlimit:4;stroke-dasharray:none;stroke-opacity:1;"
     d="  M 431.41667,482.44444   L 425.33333,497.33333  "
     id="path70" />
  <path
     style="fill:none;stroke:#000000;stroke-width:0.027777778px;stroke-linecap:round;stroke-linejoin:round;stroke-miterlimit:4;stroke-dasharray:none;stroke-opacity:1;"
     d="  M 433.16667,486.77778   L 433.16667,486.16667   L 433.58333,484.91667   L 434.02778,484.30556   L 434.88889,483.66667   L 436.63889,483.66667   L 437.5,484.30556   L 437.94444,484.91667   L 438.36111,486.16667   L 438.36111,487.38889   L 437.94444,488.63889   L 437.05556,490.5   L 432.72222,496.69444   L 438.80556,496.69444  "
     id="path71" />
  <path
     style="fill:none;stroke:#000000;stroke-width:0.027777778px;stroke-linecap:round;stroke-linejoin:round;stroke-miterlimit:4;stroke-dasharray:none;stroke-opacity:1;"
     d="  M 420.30556,490.58333   L 419.66667,490.88889   L 419.22222,491.80556   L 419,493.36111   L 419,494.30556   L 419.22222,495.86111   L 419.66667,496.77778   L 420.30556,497.08333   L 420.75,497.08333   L 421.38889,496.77778   L 421.83333,495.86111   L 422.05556,494.30556   L 422.05556,493.36111   L 421.83333,491.80556   L 421.38889,490.88889   L 420.75,490.58333   L 420.30556,490.58333  z "
     id="path72" />
</svg>
