<?xml version="1.0" encoding="UTF-8" standalone="no"?>
<svg
   version="1.0"
   width="67.050003mm"
   height="67.309998mm"
   id="svg134"
   sodipodi:docname="image269.emf"
   xmlns:inkscape="http://www.inkscape.org/namespaces/inkscape"
   xmlns:sodipodi="http://sodipodi.sourceforge.net/DTD/sodipodi-0.dtd"
   xmlns="http://www.w3.org/2000/svg"
   xmlns:svg="http://www.w3.org/2000/svg">
  <sodipodi:namedview
     id="namedview134"
     pagecolor="#ffffff"
     bordercolor="#000000"
     borderopacity="0.25"
     inkscape:showpageshadow="2"
     inkscape:pageopacity="0.0"
     inkscape:pagecheckerboard="0"
     inkscape:deskcolor="#d1d1d1"
     inkscape:document-units="mm" />
  <defs
     id="defs1">
    <pattern
       id="EMFhbasepattern"
       patternUnits="userSpaceOnUse"
       width="6"
       height="6"
       x="0"
       y="0" />
  </defs>
  <path
     style="fill:#000000;fill-rule:evenodd;fill-opacity:1;stroke:none;"
     d="  M 236.35347,123.06903   L 236.35347,121.14493   L 14.327257,123.06903   z "
     id="path1" />
  <path
     style="fill:#000000;fill-rule:evenodd;fill-opacity:1;stroke:none;"
     d="  M 236.35347,121.14493   L 14.327257,123.06903   L 14.327257,121.14493   z "
     id="path2" />
  <path
     style="fill:#000000;fill-rule:evenodd;fill-opacity:1;stroke:none;"
     d="  M 236.35347,129.04177   L 236.35347,128.07971   L 218.55626,129.04177   z "
     id="path3" />
  <path
     style="fill:#000000;fill-rule:evenodd;fill-opacity:1;stroke:none;"
     d="  M 236.35347,128.07971   L 218.55626,129.04177   L 218.55626,128.07971   z "
     id="path4" />
  <path
     style="fill:#000000;fill-rule:evenodd;fill-opacity:1;stroke:none;"
     d="  M 212.1317,129.04177   L 212.1317,128.07971   L 196.05037,129.04177   z "
     id="path5" />
  <path
     style="fill:#000000;fill-rule:evenodd;fill-opacity:1;stroke:none;"
     d="  M 212.1317,128.07971   L 196.05037,129.04177   L 196.05037,128.07971   z "
     id="path6" />
  <path
     style="fill:#000000;fill-rule:evenodd;fill-opacity:1;stroke:none;"
     d="  M 189.62581,129.04177   L 189.62581,128.07971   L 173.54447,129.04177   z "
     id="path7" />
  <path
     style="fill:#000000;fill-rule:evenodd;fill-opacity:1;stroke:none;"
     d="  M 189.62581,128.07971   L 173.54447,129.04177   L 173.54447,128.07971   z "
     id="path8" />
  <path
     style="fill:#000000;fill-rule:evenodd;fill-opacity:1;stroke:none;"
     d="  M 167.11992,129.04177   L 167.11992,128.07971   L 151.03858,129.04177   z "
     id="path9" />
  <path
     style="fill:#000000;fill-rule:evenodd;fill-opacity:1;stroke:none;"
     d="  M 167.11992,128.07971   L 151.03858,129.04177   L 151.03858,128.07971   z "
     id="path10" />
  <path
     style="fill:#000000;fill-rule:evenodd;fill-opacity:1;stroke:none;"
     d="  M 144.61403,129.04177   L 144.61403,128.07971   L 128.53269,129.04177   z "
     id="path11" />
  <path
     style="fill:#000000;fill-rule:evenodd;fill-opacity:1;stroke:none;"
     d="  M 144.61403,128.07971   L 128.53269,129.04177   L 128.53269,128.07971   z "
     id="path12" />
  <path
     style="fill:#000000;fill-rule:evenodd;fill-opacity:1;stroke:none;"
     d="  M 122.10813,129.04177   L 122.10813,128.07971   L 106.0268,129.04177   z "
     id="path13" />
  <path
     style="fill:#000000;fill-rule:evenodd;fill-opacity:1;stroke:none;"
     d="  M 122.10813,128.07971   L 106.0268,129.04177   L 106.0268,128.07971   z "
     id="path14" />
  <path
     style="fill:#000000;fill-rule:evenodd;fill-opacity:1;stroke:none;"
     d="  M 99.602242,129.04177   L 99.602242,128.07971   L 83.560809,129.04177   z "
     id="path15" />
  <path
     style="fill:#000000;fill-rule:evenodd;fill-opacity:1;stroke:none;"
     d="  M 99.602242,128.07971   L 83.560809,129.04177   L 83.560809,128.07971   z "
     id="path16" />
  <path
     style="fill:#000000;fill-rule:evenodd;fill-opacity:1;stroke:none;"
     d="  M 77.09635,129.04177   L 77.09635,128.07971   L 61.054916,129.04177   z "
     id="path17" />
  <path
     style="fill:#000000;fill-rule:evenodd;fill-opacity:1;stroke:none;"
     d="  M 77.09635,128.07971   L 61.054916,129.04177   L 61.054916,128.07971   z "
     id="path18" />
  <path
     style="fill:#000000;fill-rule:evenodd;fill-opacity:1;stroke:none;"
     d="  M 54.630362,129.04177   L 54.630362,128.07971   L 38.549024,129.04177   z "
     id="path19" />
  <path
     style="fill:#000000;fill-rule:evenodd;fill-opacity:1;stroke:none;"
     d="  M 54.630362,128.07971   L 38.549024,129.04177   L 38.549024,128.07971   z "
     id="path20" />
  <path
     style="fill:#000000;fill-rule:evenodd;fill-opacity:1;stroke:none;"
     d="  M 32.12447,129.04177   L 32.12447,128.07971   L 14.327257,129.04177   z "
     id="path21" />
  <path
     style="fill:#000000;fill-rule:evenodd;fill-opacity:1;stroke:none;"
     d="  M 32.12447,128.07971   L 14.327257,129.04177   L 14.327257,128.07971   z "
     id="path22" />
  <path
     style="fill:#000000;fill-rule:evenodd;fill-opacity:1;stroke:none;"
     d="  M 14.327257,129.04177   L 14.327257,128.07971   L 14.327257,128.07971   z "
     id="path23" />
  <path
     style="fill:none;stroke:#000000;stroke-width:0.95769757px;stroke-linecap:round;stroke-linejoin:round;stroke-miterlimit:4;stroke-dasharray:none;stroke-opacity:1;"
     d="  M 236.35347,147.96211   L 147.92606,147.96211  "
     id="path24" />
  <path
     style="fill:none;stroke:#000000;stroke-width:0.95769757px;stroke-linecap:round;stroke-linejoin:round;stroke-miterlimit:4;stroke-dasharray:none;stroke-opacity:1;"
     d="  M 131.88463,147.96211   L 115.80329,147.96211  "
     id="path25" />
  <path
     style="fill:none;stroke:#000000;stroke-width:0.95769757px;stroke-linecap:round;stroke-linejoin:round;stroke-miterlimit:4;stroke-dasharray:none;stroke-opacity:1;"
     d="  M 99.721955,147.96211   L 11.334452,147.96211  "
     id="path26" />
  <path
     style="fill:none;stroke:#000000;stroke-width:0.95769757px;stroke-linecap:round;stroke-linejoin:round;stroke-miterlimit:4;stroke-dasharray:none;stroke-opacity:1;"
     d="  M 236.35347,104.02842   L 236.35347,139.54416   L 250.47951,144.07382   L 222.22743,151.85041   L 236.35347,156.38006   L 236.35347,188.68896  "
     id="path27" />
  <path
     style="fill:#000000;fill-rule:evenodd;fill-opacity:1;stroke:none;"
     d="  M 236.35347,174.7793   L 236.35347,172.8552   L 14.327257,174.7793   z "
     id="path28" />
  <path
     style="fill:#000000;fill-rule:evenodd;fill-opacity:1;stroke:none;"
     d="  M 236.35347,172.8552   L 14.327257,174.7793   L 14.327257,172.8552   z "
     id="path29" />
  <path
     style="fill:#000000;fill-rule:evenodd;fill-opacity:1;stroke:none;"
     d="  M 236.35347,167.84451   L 236.35347,166.88246   L 218.55626,167.84451   z "
     id="path30" />
  <path
     style="fill:#000000;fill-rule:evenodd;fill-opacity:1;stroke:none;"
     d="  M 236.35347,166.88246   L 218.55626,167.84451   L 218.55626,166.88246   z "
     id="path31" />
  <path
     style="fill:#000000;fill-rule:evenodd;fill-opacity:1;stroke:none;"
     d="  M 212.1317,167.84451   L 212.1317,166.88246   L 196.05037,167.84451   z "
     id="path32" />
  <path
     style="fill:#000000;fill-rule:evenodd;fill-opacity:1;stroke:none;"
     d="  M 212.1317,166.88246   L 196.05037,167.84451   L 196.05037,166.88246   z "
     id="path33" />
  <path
     style="fill:#000000;fill-rule:evenodd;fill-opacity:1;stroke:none;"
     d="  M 189.62581,167.84451   L 189.62581,166.88246   L 173.54447,167.84451   z "
     id="path34" />
  <path
     style="fill:#000000;fill-rule:evenodd;fill-opacity:1;stroke:none;"
     d="  M 189.62581,166.88246   L 173.54447,167.84451   L 173.54447,166.88246   z "
     id="path35" />
  <path
     style="fill:#000000;fill-rule:evenodd;fill-opacity:1;stroke:none;"
     d="  M 167.11992,167.84451   L 167.11992,166.88246   L 151.03858,167.84451   z "
     id="path36" />
  <path
     style="fill:#000000;fill-rule:evenodd;fill-opacity:1;stroke:none;"
     d="  M 167.11992,166.88246   L 151.03858,167.84451   L 151.03858,166.88246   z "
     id="path37" />
  <path
     style="fill:#000000;fill-rule:evenodd;fill-opacity:1;stroke:none;"
     d="  M 144.61403,167.84451   L 144.61403,166.88246   L 128.53269,167.84451   z "
     id="path38" />
  <path
     style="fill:#000000;fill-rule:evenodd;fill-opacity:1;stroke:none;"
     d="  M 144.61403,166.88246   L 128.53269,167.84451   L 128.53269,166.88246   z "
     id="path39" />
  <path
     style="fill:#000000;fill-rule:evenodd;fill-opacity:1;stroke:none;"
     d="  M 122.10813,167.84451   L 122.10813,166.88246   L 106.0268,167.84451   z "
     id="path40" />
  <path
     style="fill:#000000;fill-rule:evenodd;fill-opacity:1;stroke:none;"
     d="  M 122.10813,166.88246   L 106.0268,167.84451   L 106.0268,166.88246   z "
     id="path41" />
  <path
     style="fill:#000000;fill-rule:evenodd;fill-opacity:1;stroke:none;"
     d="  M 99.602242,167.84451   L 99.602242,166.88246   L 83.560809,167.84451   z "
     id="path42" />
  <path
     style="fill:#000000;fill-rule:evenodd;fill-opacity:1;stroke:none;"
     d="  M 99.602242,166.88246   L 83.560809,167.84451   L 83.560809,166.88246   z "
     id="path43" />
  <path
     style="fill:#000000;fill-rule:evenodd;fill-opacity:1;stroke:none;"
     d="  M 77.09635,167.84451   L 77.09635,166.88246   L 61.054916,167.84451   z "
     id="path44" />
  <path
     style="fill:#000000;fill-rule:evenodd;fill-opacity:1;stroke:none;"
     d="  M 77.09635,166.88246   L 61.054916,167.84451   L 61.054916,166.88246   z "
     id="path45" />
  <path
     style="fill:#000000;fill-rule:evenodd;fill-opacity:1;stroke:none;"
     d="  M 54.630362,167.84451   L 54.630362,166.88246   L 38.549024,167.84451   z "
     id="path46" />
  <path
     style="fill:#000000;fill-rule:evenodd;fill-opacity:1;stroke:none;"
     d="  M 54.630362,166.88246   L 38.549024,167.84451   L 38.549024,166.88246   z "
     id="path47" />
  <path
     style="fill:#000000;fill-rule:evenodd;fill-opacity:1;stroke:none;"
     d="  M 32.12447,167.84451   L 32.12447,166.88246   L 14.327257,167.84451   z "
     id="path48" />
  <path
     style="fill:#000000;fill-rule:evenodd;fill-opacity:1;stroke:none;"
     d="  M 32.12447,166.88246   L 14.327257,167.84451   L 14.327257,166.88246   z "
     id="path49" />
  <path
     style="fill:#000000;fill-rule:evenodd;fill-opacity:1;stroke:none;"
     d="  M 14.327257,167.84451   L 14.327257,166.88246   L 14.327257,166.88246   z "
     id="path50" />
  <path
     style="fill:none;stroke:#000000;stroke-width:0.95769757px;stroke-linecap:round;stroke-linejoin:round;stroke-miterlimit:4;stroke-dasharray:none;stroke-opacity:1;"
     d="  M 14.327257,104.34911   L 14.327257,139.90493   L 28.453296,144.39451   L 0.1613143,152.17109   L 14.327257,156.70075   L 14.327257,189.00965  "
     id="path51" />
  <path
     style="fill:none;stroke:#000000;stroke-width:0.95769757px;stroke-linecap:round;stroke-linejoin:round;stroke-miterlimit:4;stroke-dasharray:none;stroke-opacity:1;"
     d="  M 122.10813,122.10698   L 199.20279,37.927463  "
     id="path52" />
  <path
     style="fill:#000000;fill-rule:evenodd;fill-opacity:1;stroke:none;"
     d="  M 99.562338,121.46561   L 100.99888,122.74834   L 186.67291,26.342759   z "
     id="path53" />
  <path
     style="fill:#000000;fill-rule:evenodd;fill-opacity:1;stroke:none;"
     d="  M 100.99888,122.74834   L 186.67291,26.342759   L 188.06955,27.665579   z "
     id="path54" />
  <path
     style="fill:#000000;fill-rule:evenodd;fill-opacity:1;stroke:none;"
     d="  M 106.90469,121.78629   L 107.62296,122.42766   L 116.20233,111.64467   z "
     id="path55" />
  <path
     style="fill:#000000;fill-rule:evenodd;fill-opacity:1;stroke:none;"
     d="  M 107.62296,122.42766   L 116.20233,111.64467   L 116.92061,112.28603   z "
     id="path56" />
  <path
     style="fill:#000000;fill-rule:evenodd;fill-opacity:1;stroke:none;"
     d="  M 120.55188,106.87449   L 121.27015,107.55595   L 131.44569,95.009191   z "
     id="path57" />
  <path
     style="fill:#000000;fill-rule:evenodd;fill-opacity:1;stroke:none;"
     d="  M 121.27015,107.55595   L 131.44569,95.009191   L 132.16396,95.650558   z "
     id="path58" />
  <path
     style="fill:#000000;fill-rule:evenodd;fill-opacity:1;stroke:none;"
     d="  M 135.79523,90.239018   L 136.5135,90.880386   L 146.68904,78.33363   z "
     id="path59" />
  <path
     style="fill:#000000;fill-rule:evenodd;fill-opacity:1;stroke:none;"
     d="  M 136.5135,90.880386   L 146.68904,78.33363   L 147.40731,79.015083   z "
     id="path60" />
  <path
     style="fill:#000000;fill-rule:evenodd;fill-opacity:1;stroke:none;"
     d="  M 151.03858,73.603543   L 151.75685,74.24491   L 161.93239,61.698154   z "
     id="path61" />
  <path
     style="fill:#000000;fill-rule:evenodd;fill-opacity:1;stroke:none;"
     d="  M 151.75685,74.24491   L 161.93239,61.698154   L 162.61076,62.379608   z "
     id="path62" />
  <path
     style="fill:#000000;fill-rule:evenodd;fill-opacity:1;stroke:none;"
     d="  M 166.28193,56.968067   L 167.00021,57.609435   L 177.17574,45.062679   z "
     id="path63" />
  <path
     style="fill:#000000;fill-rule:evenodd;fill-opacity:1;stroke:none;"
     d="  M 167.00021,57.609435   L 177.17574,45.062679   L 177.85411,45.704047   z "
     id="path64" />
  <path
     style="fill:#000000;fill-rule:evenodd;fill-opacity:1;stroke:none;"
     d="  M 181.52529,40.292507   L 182.20366,40.97396   L 190.82293,30.150879   z "
     id="path65" />
  <path
     style="fill:#000000;fill-rule:evenodd;fill-opacity:1;stroke:none;"
     d="  M 182.20366,40.97396   L 190.82293,30.150879   L 191.5013,30.832333   z "
     id="path66" />
  <path
     style="fill:#000000;fill-rule:evenodd;fill-opacity:1;stroke:none;"
     d="  M 190.82293,30.150879   L 191.5013,30.832333   L 191.5013,30.832333   z "
     id="path67" />
  <path
     style="fill:#000000;fill-rule:evenodd;fill-opacity:1;stroke:none;"
     d="  M 143.25729,121.46561   L 144.69384,122.74834   L 210.29612,48.229432   z "
     id="path68" />
  <path
     style="fill:#000000;fill-rule:evenodd;fill-opacity:1;stroke:none;"
     d="  M 144.69384,122.74834   L 210.29612,48.229432   L 211.73266,49.552253   z "
     id="path69" />
  <path
     style="fill:#000000;fill-rule:evenodd;fill-opacity:1;stroke:none;"
     d="  M 136.63321,121.78629   L 137.31158,122.42766   L 146.72894,110.76279   z "
     id="path70" />
  <path
     style="fill:#000000;fill-rule:evenodd;fill-opacity:1;stroke:none;"
     d="  M 137.31158,122.42766   L 146.72894,110.76279   L 147.40731,111.40415   z "
     id="path71" />
  <path
     style="fill:#000000;fill-rule:evenodd;fill-opacity:1;stroke:none;"
     d="  M 151.07849,105.99261   L 151.79676,106.67407   L 161.97229,94.12731   z "
     id="path72" />
  <path
     style="fill:#000000;fill-rule:evenodd;fill-opacity:1;stroke:none;"
     d="  M 151.79676,106.67407   L 161.97229,94.12731   L 162.65066,94.768678   z "
     id="path73" />
  <path
     style="fill:#000000;fill-rule:evenodd;fill-opacity:1;stroke:none;"
     d="  M 166.32184,89.357137   L 167.00021,89.998505   L 177.17574,77.491835   z "
     id="path74" />
  <path
     style="fill:#000000;fill-rule:evenodd;fill-opacity:1;stroke:none;"
     d="  M 167.00021,89.998505   L 177.17574,77.491835   L 177.89402,78.133202   z "
     id="path75" />
  <path
     style="fill:#000000;fill-rule:evenodd;fill-opacity:1;stroke:none;"
     d="  M 181.56519,72.721662   L 182.24356,73.36303   L 192.4191,60.816274   z "
     id="path76" />
  <path
     style="fill:#000000;fill-rule:evenodd;fill-opacity:1;stroke:none;"
     d="  M 182.24356,73.36303   L 192.4191,60.816274   L 193.13737,61.497727   z "
     id="path77" />
  <path
     style="fill:#000000;fill-rule:evenodd;fill-opacity:1;stroke:none;"
     d="  M 196.80854,56.086187   L 197.48691,56.727554   L 206.90427,45.062679   z "
     id="path78" />
  <path
     style="fill:#000000;fill-rule:evenodd;fill-opacity:1;stroke:none;"
     d="  M 197.48691,56.727554   L 206.90427,45.062679   L 207.58264,45.704047   z "
     id="path79" />
  <path
     style="fill:#000000;fill-rule:evenodd;fill-opacity:1;stroke:none;"
     d="  M 206.90427,45.062679   L 207.58264,45.704047   L 207.58264,45.704047   z "
     id="path80" />
  <path
     style="fill:none;stroke:#000000;stroke-width:0.95769757px;stroke-linecap:round;stroke-linejoin:round;stroke-miterlimit:4;stroke-dasharray:none;stroke-opacity:1;"
     d="  M 126.37787,138.26143   L 126.37787,218.71299  "
     id="path81" />
  <path
     style="fill:none;stroke:#000000;stroke-width:0.95769757px;stroke-linecap:round;stroke-linejoin:round;stroke-miterlimit:4;stroke-dasharray:none;stroke-opacity:1;"
     d="  M 98.724353,138.26143   L 98.724353,218.71299  "
     id="path82" />
  <path
     style="fill:none;stroke:#000000;stroke-width:0.95769757px;stroke-linecap:round;stroke-linejoin:round;stroke-miterlimit:4;stroke-dasharray:none;stroke-opacity:1;"
     d="  M 132.80242,212.21914   L 92.299799,212.21914  "
     id="path83" />
  <path
     style="fill:#000000;fill-rule:evenodd;fill-opacity:1;stroke:none;"
     d="  M 120.71149,215.66649   L 122.94612,217.95137   L 129.76972,206.527   z "
     id="path84" />
  <path
     style="fill:#000000;fill-rule:evenodd;fill-opacity:1;stroke:none;"
     d="  M 122.94612,217.95137   L 129.76972,206.527   L 132.04425,208.81188   z "
     id="path85" />
  <path
     style="fill:#000000;fill-rule:evenodd;fill-opacity:1;stroke:none;"
     d="  M 104.39073,208.81188   L 102.1162,206.527   L 95.292604,217.95137   z "
     id="path86" />
  <path
     style="fill:#000000;fill-rule:evenodd;fill-opacity:1;stroke:none;"
     d="  M 102.1162,206.527   L 95.292604,217.95137   L 93.018072,215.66649   z "
     id="path87" />
  <path
     style="fill:none;stroke:#000000;stroke-width:0.95769757px;stroke-linecap:round;stroke-linejoin:round;stroke-miterlimit:4;stroke-dasharray:none;stroke-opacity:1;"
     d="  M 115.64368,190.09196   L 115.64368,205.76538  "
     id="path88" />
  <path
     style="fill:none;stroke:#000000;stroke-width:0.95769757px;stroke-linecap:round;stroke-linejoin:round;stroke-miterlimit:4;stroke-dasharray:none;stroke-opacity:1;"
     d="  M 115.64368,192.33674   L 114.60617,190.85358   L 113.56866,190.09196   L 112.01241,190.09196   L 110.9749,190.85358   L 109.9374,192.33674   L 109.41864,194.58153   L 109.41864,196.06469   L 109.9374,198.30948   L 110.9749,199.79264   L 112.01241,200.55427   L 113.56866,200.55427   L 114.60617,199.79264   L 115.64368,198.30948  "
     id="path89" />
  <path
     style="fill:none;stroke:#000000;stroke-width:0.95769757px;stroke-linecap:round;stroke-linejoin:round;stroke-miterlimit:4;stroke-dasharray:none;stroke-opacity:1;"
     d="  M 94.215194,138.26143   L 94.215194,252.62531  "
     id="path90" />
  <path
     style="fill:none;stroke:#000000;stroke-width:0.95769757px;stroke-linecap:round;stroke-linejoin:round;stroke-miterlimit:4;stroke-dasharray:none;stroke-opacity:1;"
     d="  M 126.37787,138.26143   L 126.37787,252.62531  "
     id="path91" />
  <path
     style="fill:none;stroke:#000000;stroke-width:0.95769757px;stroke-linecap:round;stroke-linejoin:round;stroke-miterlimit:4;stroke-dasharray:none;stroke-opacity:1;"
     d="  M 87.790639,246.17155   L 132.80242,246.17155  "
     id="path92" />
  <path
     style="fill:#000000;fill-rule:evenodd;fill-opacity:1;stroke:none;"
     d="  M 99.921475,242.76428   L 97.646943,240.47941   L 90.823348,251.90377   z "
     id="path93" />
  <path
     style="fill:#000000;fill-rule:evenodd;fill-opacity:1;stroke:none;"
     d="  M 97.646943,240.47941   L 90.823348,251.90377   L 88.548817,249.6189   z "
     id="path94" />
  <path
     style="fill:#000000;fill-rule:evenodd;fill-opacity:1;stroke:none;"
     d="  M 120.71149,249.6189   L 122.94612,251.90377   L 129.76972,240.47941   z "
     id="path95" />
  <path
     style="fill:#000000;fill-rule:evenodd;fill-opacity:1;stroke:none;"
     d="  M 122.94612,251.90377   L 129.76972,240.47941   L 132.04425,242.76428   z "
     id="path96" />
  <path
     style="fill:none;stroke:#000000;stroke-width:0.95769757px;stroke-linecap:round;stroke-linejoin:round;stroke-miterlimit:4;stroke-dasharray:none;stroke-opacity:1;"
     d="  M 107.18401,224.04436   L 107.18401,239.71778  "
     id="path97" />
  <path
     style="fill:none;stroke:#000000;stroke-width:0.95769757px;stroke-linecap:round;stroke-linejoin:round;stroke-miterlimit:4;stroke-dasharray:none;stroke-opacity:1;"
     d="  M 107.18401,226.28915   L 108.22152,224.80598   L 109.25903,224.04436   L 110.81528,224.04436   L 111.85279,224.80598   L 112.8903,226.28915   L 113.40905,228.53393   L 113.40905,230.0171   L 112.8903,232.26188   L 111.85279,233.74505   L 110.81528,234.50667   L 109.25903,234.50667   L 108.22152,233.74505   L 107.18401,232.26188  "
     id="path98" />
  <path
     style="fill:none;stroke:#000000;stroke-width:0.95769757px;stroke-linecap:round;stroke-linejoin:round;stroke-miterlimit:4;stroke-dasharray:none;stroke-opacity:1;"
     d="  M 110.29653,134.61365   L 110.29653,14.397285  "
     id="path99" />
  <path
     style="fill:#000000;fill-rule:evenodd;fill-opacity:1;stroke:none;"
     d="  M 120.7514,99.218166   L 121.70909,99.218166   L 120.7514,82.662862   z "
     id="path100" />
  <path
     style="fill:#000000;fill-rule:evenodd;fill-opacity:1;stroke:none;"
     d="  M 121.70909,99.218166   L 120.7514,82.662862   L 121.70909,82.662862   z "
     id="path101" />
  <path
     style="fill:#000000;fill-rule:evenodd;fill-opacity:1;stroke:none;"
     d="  M 120.7514,76.209099   L 121.70909,76.209099   L 120.7514,60.014564   z "
     id="path102" />
  <path
     style="fill:#000000;fill-rule:evenodd;fill-opacity:1;stroke:none;"
     d="  M 121.70909,76.209099   L 120.7514,60.014564   L 121.70909,60.014564   z "
     id="path103" />
  <path
     style="fill:#000000;fill-rule:evenodd;fill-opacity:1;stroke:none;"
     d="  M 120.7514,53.560801   L 121.70909,53.560801   L 120.7514,37.406352   z "
     id="path104" />
  <path
     style="fill:#000000;fill-rule:evenodd;fill-opacity:1;stroke:none;"
     d="  M 121.70909,53.560801   L 120.7514,37.406352   L 121.70909,37.406352   z "
     id="path105" />
  <path
     style="fill:#000000;fill-rule:evenodd;fill-opacity:1;stroke:none;"
     d="  M 120.7514,30.952589   L 121.70909,30.952589   L 120.7514,14.397285   z "
     id="path106" />
  <path
     style="fill:#000000;fill-rule:evenodd;fill-opacity:1;stroke:none;"
     d="  M 121.70909,30.952589   L 120.7514,14.397285   L 121.70909,14.397285   z "
     id="path107" />
  <path
     style="fill:#000000;fill-rule:evenodd;fill-opacity:1;stroke:none;"
     d="  M 120.7514,14.397285   L 121.70909,14.397285   L 121.70909,14.397285   z "
     id="path108" />
  <path
     style="fill:#000000;fill-rule:evenodd;fill-opacity:1;stroke:none;"
     d="  M 93.257496,122.10698   L 95.212795,122.10698   L 93.257496,14.397285   z "
     id="path109" />
  <path
     style="fill:#000000;fill-rule:evenodd;fill-opacity:1;stroke:none;"
     d="  M 95.212795,122.10698   L 93.257496,14.397285   L 95.212795,14.397285   z "
     id="path110" />
  <path
     style="fill:#000000;fill-rule:evenodd;fill-opacity:1;stroke:none;"
     d="  M 98.883969,122.10698   L 99.841667,122.10698   L 98.883969,105.39133   z "
     id="path111" />
  <path
     style="fill:#000000;fill-rule:evenodd;fill-opacity:1;stroke:none;"
     d="  M 99.841667,122.10698   L 98.883969,105.39133   L 99.841667,105.39133   z "
     id="path112" />
  <path
     style="fill:#000000;fill-rule:evenodd;fill-opacity:1;stroke:none;"
     d="  M 98.883969,98.937568   L 99.841667,98.937568   L 98.883969,82.783118   z "
     id="path113" />
  <path
     style="fill:#000000;fill-rule:evenodd;fill-opacity:1;stroke:none;"
     d="  M 99.841667,98.937568   L 98.883969,82.783118   L 99.841667,82.783118   z "
     id="path114" />
  <path
     style="fill:#000000;fill-rule:evenodd;fill-opacity:1;stroke:none;"
     d="  M 98.883969,76.329356   L 99.841667,76.329356   L 98.883969,60.174906   z "
     id="path115" />
  <path
     style="fill:#000000;fill-rule:evenodd;fill-opacity:1;stroke:none;"
     d="  M 99.841667,76.329356   L 98.883969,60.174906   L 99.841667,60.174906   z "
     id="path116" />
  <path
     style="fill:#000000;fill-rule:evenodd;fill-opacity:1;stroke:none;"
     d="  M 98.883969,53.721143   L 99.841667,53.721143   L 98.883969,37.526608   z "
     id="path117" />
  <path
     style="fill:#000000;fill-rule:evenodd;fill-opacity:1;stroke:none;"
     d="  M 99.841667,53.721143   L 98.883969,37.526608   L 99.841667,37.526608   z "
     id="path118" />
  <path
     style="fill:#000000;fill-rule:evenodd;fill-opacity:1;stroke:none;"
     d="  M 98.883969,31.072846   L 99.841667,31.072846   L 98.883969,14.397285   z "
     id="path119" />
  <path
     style="fill:#000000;fill-rule:evenodd;fill-opacity:1;stroke:none;"
     d="  M 99.841667,31.072846   L 98.883969,14.397285   L 99.841667,14.397285   z "
     id="path120" />
  <path
     style="fill:#000000;fill-rule:evenodd;fill-opacity:1;stroke:none;"
     d="  M 98.883969,14.397285   L 99.841667,14.397285   L 99.841667,14.397285   z "
     id="path121" />
  <path
     style="fill:none;stroke:#000000;stroke-width:0.95769757px;stroke-linecap:round;stroke-linejoin:round;stroke-miterlimit:4;stroke-dasharray:none;stroke-opacity:1;"
     d="  M 224.26254,61.136958   L 205.34801,43.619602   L 192.459,51.035416   L 205.94657,24.859596   L 193.05756,32.235325   L 174.14303,14.717969  "
     id="path122" />
  <path
     style="fill:none;stroke:#000000;stroke-width:0.95769757px;stroke-linecap:round;stroke-linejoin:round;stroke-miterlimit:4;stroke-dasharray:none;stroke-opacity:1;"
     d="  M 76.218461,14.397285   L 101.95658,14.397285   L 106.46574,0.16693828   L 114.16723,28.587546   L 118.67639,14.397285   L 144.3746,14.397285  "
     id="path123" />
  <path
     style="fill:none;stroke:#000000;stroke-width:0.95769757px;stroke-linecap:round;stroke-linejoin:round;stroke-miterlimit:4;stroke-dasharray:none;stroke-opacity:1;"
     d="  M 38.189888,103.14654   L 57.463551,103.14654  "
     id="path124" />
  <path
     style="fill:none;stroke:#000000;stroke-width:0.95769757px;stroke-linecap:round;stroke-linejoin:round;stroke-miterlimit:4;stroke-dasharray:none;stroke-opacity:1;"
     d="  M 57.463551,103.14654   L 104.86958,67.871319  "
     id="path125" />
  <path
     style="fill:none;stroke:#000000;stroke-width:0.95769757px;stroke-linecap:round;stroke-linejoin:round;stroke-miterlimit:4;stroke-dasharray:none;stroke-opacity:1;"
     d="  M 45.811564,87.633462   L 46.849069,86.911923   L 48.405328,84.667136   L 48.405328,100.30047  "
     id="path126" />
  <path
     style="fill:none;stroke:#000000;stroke-width:0.95769757px;stroke-linecap:round;stroke-linejoin:round;stroke-miterlimit:4;stroke-dasharray:none;stroke-opacity:1;"
     d="  M 204.03118,110.12142   L 223.30484,110.12142  "
     id="path127" />
  <path
     style="fill:none;stroke:#000000;stroke-width:0.95769757px;stroke-linecap:round;stroke-linejoin:round;stroke-miterlimit:4;stroke-dasharray:none;stroke-opacity:1;"
     d="  M 211.73266,95.730729   L 211.73266,94.969105   L 212.25142,93.485942   L 212.77017,92.764404   L 213.80767,92.002779   L 215.88269,92.002779   L 216.92019,92.764404   L 217.43894,93.485942   L 217.9577,94.969105   L 217.9577,96.492353   L 217.43894,97.975516   L 216.40144,100.2203   L 211.21391,107.6762   L 218.47645,107.6762  "
     id="path128" />
  <path
     style="fill:none;stroke:#000000;stroke-width:0.95769757px;stroke-linecap:round;stroke-linejoin:round;stroke-miterlimit:4;stroke-dasharray:none;stroke-opacity:1;"
     d="  M 204.03118,110.12142   L 168.99541,77.09098  "
     id="path129" />
  <path
     style="fill:#000000;fill-rule:evenodd;fill-opacity:1;stroke:none;"
     d="  M 125.42017,93.886797   L 127.33557,93.886797   L 125.42017,14.397285   z "
     id="path130" />
  <path
     style="fill:#000000;fill-rule:evenodd;fill-opacity:1;stroke:none;"
     d="  M 127.33557,93.886797   L 125.42017,14.397285   L 127.33557,14.397285   z "
     id="path131" />
  <path
     style="fill:none;stroke:#000000;stroke-width:0.95769757px;stroke-linecap:round;stroke-linejoin:round;stroke-miterlimit:4;stroke-dasharray:none;stroke-opacity:1;"
     d="  M 126.37787,93.886797   L 126.37787,100.70133  "
     id="path132" />
  <path
     style="fill:none;stroke:#000000;stroke-width:0.95769757px;stroke-linecap:round;stroke-linejoin:round;stroke-miterlimit:4;stroke-dasharray:none;stroke-opacity:1;"
     d="  M 126.37787,103.94825   L 126.37787,112.04552  "
     id="path133" />
  <path
     style="fill:none;stroke:#000000;stroke-width:0.95769757px;stroke-linecap:round;stroke-linejoin:round;stroke-miterlimit:4;stroke-dasharray:none;stroke-opacity:1;"
     d="  M 126.37787,115.25236   L 126.37787,122.10698  "
     id="path134" />
</svg>
