<?xml version="1.0" encoding="UTF-8" standalone="no"?>
<svg
   version="1.0"
   width="80.199997mm"
   height="69.480003mm"
   id="svg330"
   sodipodi:docname="image409.emf"
   xmlns:inkscape="http://www.inkscape.org/namespaces/inkscape"
   xmlns:sodipodi="http://sodipodi.sourceforge.net/DTD/sodipodi-0.dtd"
   xmlns="http://www.w3.org/2000/svg"
   xmlns:svg="http://www.w3.org/2000/svg">
  <sodipodi:namedview
     id="namedview330"
     pagecolor="#ffffff"
     bordercolor="#000000"
     borderopacity="0.25"
     inkscape:showpageshadow="2"
     inkscape:pageopacity="0.0"
     inkscape:pagecheckerboard="0"
     inkscape:deskcolor="#d1d1d1"
     inkscape:document-units="mm" />
  <defs
     id="defs1">
    <pattern
       id="EMFhbasepattern"
       patternUnits="userSpaceOnUse"
       width="6"
       height="6"
       x="0"
       y="0" />
  </defs>
  <path
     style="fill:#000000;fill-rule:evenodd;fill-opacity:1;stroke:none;"
     d="  M 243.43023,66.651686   L 243.43023,64.852552   L 173.77726,66.651686   z "
     id="path1" />
  <path
     style="fill:#000000;fill-rule:evenodd;fill-opacity:1;stroke:none;"
     d="  M 243.43023,64.852552   L 173.77726,66.651686   L 173.77726,64.852552   z "
     id="path2" />
  <path
     style="fill:#000000;fill-rule:evenodd;fill-opacity:1;stroke:none;"
     d="  M 112.61075,66.651686   L 112.61075,64.852552   L 57.208613,66.651686   z "
     id="path3" />
  <path
     style="fill:#000000;fill-rule:evenodd;fill-opacity:1;stroke:none;"
     d="  M 112.61075,64.852552   L 57.208613,66.651686   L 57.208613,64.852552   z "
     id="path4" />
  <path
     style="fill:#000000;fill-rule:evenodd;fill-opacity:1;stroke:none;"
     d="  M 243.43023,117.34728   L 243.43023,115.54815   L 57.208613,117.34728   z "
     id="path5" />
  <path
     style="fill:#000000;fill-rule:evenodd;fill-opacity:1;stroke:none;"
     d="  M 243.43023,115.54815   L 57.208613,117.34728   L 57.208613,115.54815   z "
     id="path6" />
  <path
     style="fill:none;stroke:#000000;stroke-width:0.96073061px;stroke-linecap:round;stroke-linejoin:round;stroke-miterlimit:4;stroke-dasharray:none;stroke-opacity:1;"
     d="  M 136.06859,91.079927   L 162.48868,62.413726  "
     id="path7" />
  <path
     style="fill:none;stroke:#000000;stroke-width:0.96073061px;stroke-linecap:round;stroke-linejoin:round;stroke-miterlimit:4;stroke-dasharray:none;stroke-opacity:1;"
     d="  M 172.69644,51.299077   L 182.9042,40.224408  "
     id="path8" />
  <path
     style="fill:none;stroke:#000000;stroke-width:0.96073061px;stroke-linecap:round;stroke-linejoin:round;stroke-miterlimit:4;stroke-dasharray:none;stroke-opacity:1;"
     d="  M 193.152,29.109758   L 219.57209,0.40357622  "
     id="path9" />
  <path
     style="fill:#000000;fill-rule:evenodd;fill-opacity:1;stroke:none;"
     d="  M 141.43267,68.370859   L 142.75367,69.610262   L 201.63845,2.9623445   z "
     id="path10" />
  <path
     style="fill:#000000;fill-rule:evenodd;fill-opacity:1;stroke:none;"
     d="  M 142.75367,69.610262   L 201.63845,2.9623445   L 202.99949,4.2017479   z "
     id="path11" />
  <path
     style="fill:#000000;fill-rule:evenodd;fill-opacity:1;stroke:none;"
     d="  M 165.33084,73.608337   L 166.65184,74.80776   L 217.21029,17.275455   z "
     id="path12" />
  <path
     style="fill:#000000;fill-rule:evenodd;fill-opacity:1;stroke:none;"
     d="  M 166.65184,74.80776   L 217.21029,17.275455   L 218.5313,18.514858   z "
     id="path13" />
  <path
     style="fill:#000000;fill-rule:evenodd;fill-opacity:1;stroke:none;"
     d="  M 141.19248,73.448414   L 142.63358,72.328953   L 143.7144,76.047163   z "
     id="path14" />
  <path
     style="fill:#000000;fill-rule:evenodd;fill-opacity:1;stroke:none;"
     d="  M 142.63358,72.328953   L 143.7144,76.047163   L 144.87528,74.647837   z "
     id="path15" />
  <path
     style="fill:#000000;fill-rule:evenodd;fill-opacity:1;stroke:none;"
     d="  M 143.7144,76.047163   L 144.87528,74.647837   L 146.71668,78.046201   z "
     id="path16" />
  <path
     style="fill:#000000;fill-rule:evenodd;fill-opacity:1;stroke:none;"
     d="  M 144.87528,74.647837   L 146.71668,78.046201   L 147.55732,76.40699   z "
     id="path17" />
  <path
     style="fill:#000000;fill-rule:evenodd;fill-opacity:1;stroke:none;"
     d="  M 146.71668,78.046201   L 147.55732,76.40699   L 150.07924,79.325585   z "
     id="path18" />
  <path
     style="fill:#000000;fill-rule:evenodd;fill-opacity:1;stroke:none;"
     d="  M 147.55732,76.40699   L 150.07924,79.325585   L 150.55961,77.606413   z "
     id="path19" />
  <path
     style="fill:#000000;fill-rule:evenodd;fill-opacity:1;stroke:none;"
     d="  M 150.07924,79.325585   L 150.55961,77.606413   L 153.60192,79.925297   z "
     id="path20" />
  <path
     style="fill:#000000;fill-rule:evenodd;fill-opacity:1;stroke:none;"
     d="  M 150.55961,77.606413   L 153.60192,79.925297   L 153.72201,78.126163   z "
     id="path21" />
  <path
     style="fill:#000000;fill-rule:evenodd;fill-opacity:1;stroke:none;"
     d="  M 153.60192,79.925297   L 153.72201,78.126163   L 157.20466,79.725393   z "
     id="path22" />
  <path
     style="fill:#000000;fill-rule:evenodd;fill-opacity:1;stroke:none;"
     d="  M 153.72201,78.126163   L 157.20466,79.725393   L 156.92445,77.926259   z "
     id="path23" />
  <path
     style="fill:#000000;fill-rule:evenodd;fill-opacity:1;stroke:none;"
     d="  M 157.20466,79.725393   L 156.92445,77.926259   L 160.68731,78.765855   z "
     id="path24" />
  <path
     style="fill:#000000;fill-rule:evenodd;fill-opacity:1;stroke:none;"
     d="  M 156.92445,77.926259   L 160.68731,78.765855   L 160.00679,77.086663   z "
     id="path25" />
  <path
     style="fill:#000000;fill-rule:evenodd;fill-opacity:1;stroke:none;"
     d="  M 160.68731,78.765855   L 160.00679,77.086663   L 163.88974,77.126644   z "
     id="path26" />
  <path
     style="fill:#000000;fill-rule:evenodd;fill-opacity:1;stroke:none;"
     d="  M 160.00679,77.086663   L 163.88974,77.126644   L 162.88898,75.607375   z "
     id="path27" />
  <path
     style="fill:#000000;fill-rule:evenodd;fill-opacity:1;stroke:none;"
     d="  M 163.88974,77.126644   L 162.88898,75.607375   L 166.65184,74.847741   z "
     id="path28" />
  <path
     style="fill:#000000;fill-rule:evenodd;fill-opacity:1;stroke:none;"
     d="  M 162.88898,75.607375   L 166.65184,74.847741   L 165.37087,73.568357   z "
     id="path29" />
  <path
     style="fill:#000000;fill-rule:evenodd;fill-opacity:1;stroke:none;"
     d="  M 141.43267,68.370859   L 142.75367,69.610262   L 140.51196,69.970089   z "
     id="path30" />
  <path
     style="fill:#000000;fill-rule:evenodd;fill-opacity:1;stroke:none;"
     d="  M 142.75367,69.610262   L 140.51196,69.970089   L 142.2733,70.449858   z "
     id="path31" />
  <path
     style="fill:#000000;fill-rule:evenodd;fill-opacity:1;stroke:none;"
     d="  M 140.51196,69.970089   L 142.2733,70.449858   L 140.47193,71.809203   z "
     id="path32" />
  <path
     style="fill:#000000;fill-rule:evenodd;fill-opacity:1;stroke:none;"
     d="  M 142.2733,70.449858   L 140.47193,71.809203   L 142.23327,71.449377   z "
     id="path33" />
  <path
     style="fill:#000000;fill-rule:evenodd;fill-opacity:1;stroke:none;"
     d="  M 140.47193,71.809203   L 142.23327,71.449377   L 141.19248,73.448414   z "
     id="path34" />
  <path
     style="fill:#000000;fill-rule:evenodd;fill-opacity:1;stroke:none;"
     d="  M 142.23327,71.449377   L 141.19248,73.448414   L 142.63358,72.328953   z "
     id="path35" />
  <path
     style="fill:none;stroke:#000000;stroke-width:0.96073061px;stroke-linecap:round;stroke-linejoin:round;stroke-miterlimit:4;stroke-dasharray:none;stroke-opacity:1;"
     d="  M 150.31942,91.079927   L 69.778172,3.6420173  "
     id="path36" />
  <path
     style="fill:#000000;fill-rule:evenodd;fill-opacity:1;stroke:none;"
     d="  M 142.51349,68.410839   L 143.87452,67.171436   L 83.388523,4.2017479   z "
     id="path37" />
  <path
     style="fill:#000000;fill-rule:evenodd;fill-opacity:1;stroke:none;"
     d="  M 143.87452,67.171436   L 83.388523,4.2017479   L 84.709528,2.9623445   z "
     id="path38" />
  <path
     style="fill:#000000;fill-rule:evenodd;fill-opacity:1;stroke:none;"
     d="  M 119.69613,74.80776   L 121.05717,73.608337   L 67.856711,18.514858   z "
     id="path39" />
  <path
     style="fill:#000000;fill-rule:evenodd;fill-opacity:1;stroke:none;"
     d="  M 121.05717,73.608337   L 67.856711,18.514858   L 69.177716,17.275455   z "
     id="path40" />
  <path
     style="fill:none;stroke:#000000;stroke-width:0.96073061px;stroke-linecap:round;stroke-linejoin:round;stroke-miterlimit:4;stroke-dasharray:none;stroke-opacity:1;"
     d="  M 143.194,177.79818   L 143.194,89.12087  "
     id="path41" />
  <path
     style="fill:#000000;fill-rule:evenodd;fill-opacity:1;stroke:none;"
     d="  M 141.31257,64.852552   L 141.31257,66.651686   L 145.07544,64.852552   z "
     id="path42" />
  <path
     style="fill:#000000;fill-rule:evenodd;fill-opacity:1;stroke:none;"
     d="  M 141.31257,66.651686   L 145.07544,64.852552   L 145.07544,66.651686   z "
     id="path43" />
  <path
     style="fill:#000000;fill-rule:evenodd;fill-opacity:1;stroke:none;"
     d="  M 154.56265,104.87329   L 152.96143,105.75286   L 152.48107,102.11462   z "
     id="path44" />
  <path
     style="fill:#000000;fill-rule:evenodd;fill-opacity:1;stroke:none;"
     d="  M 152.96143,105.75286   L 152.48107,102.11462   L 151.20009,103.35402   z "
     id="path45" />
  <path
     style="fill:#000000;fill-rule:evenodd;fill-opacity:1;stroke:none;"
     d="  M 152.48107,102.11462   L 151.20009,103.35402   L 149.79903,99.955655   z "
     id="path46" />
  <path
     style="fill:#000000;fill-rule:evenodd;fill-opacity:1;stroke:none;"
     d="  M 151.20009,103.35402   L 149.79903,99.955655   L 148.87833,101.5149   z "
     id="path47" />
  <path
     style="fill:#000000;fill-rule:evenodd;fill-opacity:1;stroke:none;"
     d="  M 149.79903,99.955655   L 148.87833,101.5149   L 146.59659,98.596309   z "
     id="path48" />
  <path
     style="fill:#000000;fill-rule:evenodd;fill-opacity:1;stroke:none;"
     d="  M 148.87833,101.5149   L 146.59659,98.596309   L 146.11623,100.35546   z "
     id="path49" />
  <path
     style="fill:#000000;fill-rule:evenodd;fill-opacity:1;stroke:none;"
     d="  M 146.59659,98.596309   L 146.11623,100.35546   L 143.194,98.156521   z "
     id="path50" />
  <path
     style="fill:#000000;fill-rule:evenodd;fill-opacity:1;stroke:none;"
     d="  M 146.11623,100.35546   L 143.194,98.156521   L 143.194,99.955655   z "
     id="path51" />
  <path
     style="fill:#000000;fill-rule:evenodd;fill-opacity:1;stroke:none;"
     d="  M 143.194,98.156521   L 143.194,99.955655   L 139.75139,98.596309   z "
     id="path52" />
  <path
     style="fill:#000000;fill-rule:evenodd;fill-opacity:1;stroke:none;"
     d="  M 143.194,99.955655   L 139.75139,98.596309   L 140.23175,100.35546   z "
     id="path53" />
  <path
     style="fill:#000000;fill-rule:evenodd;fill-opacity:1;stroke:none;"
     d="  M 139.75139,98.596309   L 140.23175,100.35546   L 136.58898,99.955655   z "
     id="path54" />
  <path
     style="fill:#000000;fill-rule:evenodd;fill-opacity:1;stroke:none;"
     d="  M 140.23175,100.35546   L 136.58898,99.955655   L 137.50968,101.5149   z "
     id="path55" />
  <path
     style="fill:#000000;fill-rule:evenodd;fill-opacity:1;stroke:none;"
     d="  M 136.58898,99.955655   L 137.50968,101.5149   L 133.86691,102.11462   z "
     id="path56" />
  <path
     style="fill:#000000;fill-rule:evenodd;fill-opacity:1;stroke:none;"
     d="  M 137.50968,101.5149   L 133.86691,102.11462   L 135.18792,103.35402   z "
     id="path57" />
  <path
     style="fill:#000000;fill-rule:evenodd;fill-opacity:1;stroke:none;"
     d="  M 133.86691,102.11462   L 135.18792,103.35402   L 131.82536,104.87329   z "
     id="path58" />
  <path
     style="fill:#000000;fill-rule:evenodd;fill-opacity:1;stroke:none;"
     d="  M 135.18792,103.35402   L 131.82536,104.87329   L 133.42658,105.75286   z "
     id="path59" />
  <path
     style="fill:#000000;fill-rule:evenodd;fill-opacity:1;stroke:none;"
     d="  M 133.54667,105.31308   L 131.70527,105.31308   L 133.54667,168.40271   z "
     id="path60" />
  <path
     style="fill:#000000;fill-rule:evenodd;fill-opacity:1;stroke:none;"
     d="  M 131.70527,105.31308   L 133.54667,168.40271   L 131.70527,168.40271   z "
     id="path61" />
  <path
     style="fill:#000000;fill-rule:evenodd;fill-opacity:1;stroke:none;"
     d="  M 154.64271,105.31308   L 152.84134,105.31308   L 154.64271,168.40271   z "
     id="path62" />
  <path
     style="fill:#000000;fill-rule:evenodd;fill-opacity:1;stroke:none;"
     d="  M 152.84134,105.31308   L 154.64271,168.40271   L 152.84134,168.40271   z "
     id="path63" />
  <path
     style="fill:none;stroke:#000000;stroke-width:0.96073061px;stroke-linecap:round;stroke-linejoin:round;stroke-miterlimit:4;stroke-dasharray:none;stroke-opacity:1;"
     d="  M 300.79386,91.079927   L 237.18548,91.079927  "
     id="path64" />
  <path
     style="fill:none;stroke:#000000;stroke-width:0.96073061px;stroke-linecap:round;stroke-linejoin:round;stroke-miterlimit:4;stroke-dasharray:none;stroke-opacity:1;"
     d="  M 222.09401,91.079927   L 207.00253,91.079927  "
     id="path65" />
  <path
     style="fill:none;stroke:#000000;stroke-width:0.96073061px;stroke-linecap:round;stroke-linejoin:round;stroke-miterlimit:4;stroke-dasharray:none;stroke-opacity:1;"
     d="  M 191.91105,91.079927   L 116.45367,91.079927  "
     id="path66" />
  <path
     style="fill:none;stroke:#000000;stroke-width:0.96073061px;stroke-linecap:round;stroke-linejoin:round;stroke-miterlimit:4;stroke-dasharray:none;stroke-opacity:1;"
     d="  M 101.36219,91.079927   L 86.270715,91.079927  "
     id="path67" />
  <path
     style="fill:none;stroke:#000000;stroke-width:0.96073061px;stroke-linecap:round;stroke-linejoin:round;stroke-miterlimit:4;stroke-dasharray:none;stroke-opacity:1;"
     d="  M 71.179238,91.079927   L 7.570864,91.079927  "
     id="path68" />
  <path
     style="fill:#000000;fill-rule:evenodd;fill-opacity:1;stroke:none;"
     d="  M 119.73617,74.847741   L 121.01714,73.568357   L 122.69842,77.246586   z "
     id="path69" />
  <path
     style="fill:#000000;fill-rule:evenodd;fill-opacity:1;stroke:none;"
     d="  M 121.01714,73.568357   L 122.69842,77.246586   L 123.65915,75.727317   z "
     id="path70" />
  <path
     style="fill:#000000;fill-rule:evenodd;fill-opacity:1;stroke:none;"
     d="  M 122.69842,77.246586   L 123.65915,75.727317   L 126.10101,78.925778   z "
     id="path71" />
  <path
     style="fill:#000000;fill-rule:evenodd;fill-opacity:1;stroke:none;"
     d="  M 123.65915,75.727317   L 126.10101,78.925778   L 126.74149,77.246586   z "
     id="path72" />
  <path
     style="fill:#000000;fill-rule:evenodd;fill-opacity:1;stroke:none;"
     d="  M 126.10101,78.925778   L 126.74149,77.246586   L 129.82384,79.805354   z "
     id="path73" />
  <path
     style="fill:#000000;fill-rule:evenodd;fill-opacity:1;stroke:none;"
     d="  M 126.74149,77.246586   L 129.82384,79.805354   L 130.06402,78.00622   z "
     id="path74" />
  <path
     style="fill:#000000;fill-rule:evenodd;fill-opacity:1;stroke:none;"
     d="  M 129.82384,79.805354   L 130.06402,78.00622   L 133.66676,79.845335   z "
     id="path75" />
  <path
     style="fill:#000000;fill-rule:evenodd;fill-opacity:1;stroke:none;"
     d="  M 130.06402,78.00622   L 133.66676,79.845335   L 133.46661,78.046201   z "
     id="path76" />
  <path
     style="fill:#000000;fill-rule:evenodd;fill-opacity:1;stroke:none;"
     d="  M 133.66676,79.845335   L 133.46661,78.046201   L 137.38959,79.005739   z "
     id="path77" />
  <path
     style="fill:#000000;fill-rule:evenodd;fill-opacity:1;stroke:none;"
     d="  M 133.46661,78.046201   L 137.38959,79.005739   L 136.78913,77.286567   z "
     id="path78" />
  <path
     style="fill:#000000;fill-rule:evenodd;fill-opacity:1;stroke:none;"
     d="  M 137.38959,79.005739   L 136.78913,77.286567   L 140.83221,77.366528   z "
     id="path79" />
  <path
     style="fill:#000000;fill-rule:evenodd;fill-opacity:1;stroke:none;"
     d="  M 136.78913,77.286567   L 140.83221,77.366528   L 139.87148,75.807279   z "
     id="path80" />
  <path
     style="fill:#000000;fill-rule:evenodd;fill-opacity:1;stroke:none;"
     d="  M 140.83221,77.366528   L 139.87148,75.807279   L 143.83449,74.967683   z "
     id="path81" />
  <path
     style="fill:#000000;fill-rule:evenodd;fill-opacity:1;stroke:none;"
     d="  M 139.87148,75.807279   L 143.83449,74.967683   L 142.55352,73.688299   z "
     id="path82" />
  <path
     style="fill:#000000;fill-rule:evenodd;fill-opacity:1;stroke:none;"
     d="  M 143.07391,74.847741   L 142.59355,73.088588   L 144.47498,74.048126   z "
     id="path83" />
  <path
     style="fill:#000000;fill-rule:evenodd;fill-opacity:1;stroke:none;"
     d="  M 142.59355,73.088588   L 144.47498,74.048126   L 143.35413,72.648799   z "
     id="path84" />
  <path
     style="fill:#000000;fill-rule:evenodd;fill-opacity:1;stroke:none;"
     d="  M 144.91531,73.688299   L 143.59431,72.448896   L 145.67589,72.368934   z "
     id="path85" />
  <path
     style="fill:#000000;fill-rule:evenodd;fill-opacity:1;stroke:none;"
     d="  M 143.59431,72.448896   L 145.67589,72.368934   L 144.03464,71.769223   z "
     id="path86" />
  <path
     style="fill:#000000;fill-rule:evenodd;fill-opacity:1;stroke:none;"
     d="  M 145.87604,71.809203   L 144.1147,71.449377   L 145.87604,70.329916   z "
     id="path87" />
  <path
     style="fill:#000000;fill-rule:evenodd;fill-opacity:1;stroke:none;"
     d="  M 144.1147,71.449377   L 145.87604,70.329916   L 144.1147,70.649762   z "
     id="path88" />
  <path
     style="fill:#000000;fill-rule:evenodd;fill-opacity:1;stroke:none;"
     d="  M 145.71592,69.770185   L 144.03464,70.329916   L 144.95534,68.45082   z "
     id="path89" />
  <path
     style="fill:#000000;fill-rule:evenodd;fill-opacity:1;stroke:none;"
     d="  M 144.03464,70.329916   L 144.95534,68.45082   L 143.63434,69.650243   z "
     id="path90" />
  <path
     style="fill:#000000;fill-rule:evenodd;fill-opacity:1;stroke:none;"
     d="  M 144.51501,68.051013   L 143.39416,69.450339   L 143.11394,67.251398   z "
     id="path91" />
  <path
     style="fill:#000000;fill-rule:evenodd;fill-opacity:1;stroke:none;"
     d="  M 143.39416,69.450339   L 143.11394,67.251398   L 142.63358,69.010551   z "
     id="path92" />
  <path
     style="fill:#000000;fill-rule:evenodd;fill-opacity:1;stroke:none;"
     d="  M 143.11394,67.251398   L 142.63358,69.010551   L 142.63358,69.010551   z "
     id="path93" />
  <path
     style="fill:none;stroke:#000000;stroke-width:0.96073061px;stroke-linecap:round;stroke-linejoin:round;stroke-miterlimit:4;stroke-dasharray:none;stroke-opacity:1;"
     d="  M 132.62597,168.40271   L 134.54743,169.76205   L 136.7491,170.44172   L 139.07087,170.44172   L 141.27254,169.76205   L 143.194,168.40271  "
     id="path94" />
  <path
     style="fill:none;stroke:#000000;stroke-width:0.96073061px;stroke-linecap:round;stroke-linejoin:round;stroke-miterlimit:4;stroke-dasharray:none;stroke-opacity:1;"
     d="  M 143.194,168.40271   L 145.07544,169.76205   L 147.31714,170.44172   L 149.63891,170.44172   L 151.84058,169.76205   L 153.76204,168.40271  "
     id="path95" />
  <path
     style="fill:none;stroke:#000000;stroke-width:0.96073061px;stroke-linecap:round;stroke-linejoin:round;stroke-miterlimit:4;stroke-dasharray:none;stroke-opacity:1;"
     d="  M 153.76204,168.40271   L 151.84058,167.08334   L 149.63891,166.40367   L 147.31714,166.40367   L 145.07544,167.08334   L 143.194,168.40271  "
     id="path96" />
  <path
     style="fill:none;stroke:#000000;stroke-width:0.96073061px;stroke-linecap:round;stroke-linejoin:round;stroke-miterlimit:4;stroke-dasharray:none;stroke-opacity:1;"
     d="  M 210.08487,10.758592   L 209.56448,8.4796886   L 208.44363,6.4806509   L 206.72232,4.8814207   L 204.6007,3.9218826   L 202.31897,3.6020366  "
     id="path97" />
  <path
     style="fill:none;stroke:#000000;stroke-width:0.96073061px;stroke-linecap:round;stroke-linejoin:round;stroke-miterlimit:4;stroke-dasharray:none;stroke-opacity:1;"
     d="  M 217.85078,17.915147   L 217.37042,15.636244   L 216.20953,13.637206   L 214.48822,12.037976   L 212.40664,11.078438   L 210.08487,10.758592  "
     id="path98" />
  <path
     style="fill:none;stroke:#000000;stroke-width:0.96073061px;stroke-linecap:round;stroke-linejoin:round;stroke-miterlimit:4;stroke-dasharray:none;stroke-opacity:1;"
     d="  M 210.08487,10.758592   L 210.60527,12.997514   L 211.76615,15.036532   L 213.44743,16.595782   L 215.56905,17.595301   L 217.85078,17.915147  "
     id="path99" />
  <path
     style="fill:none;stroke:#000000;stroke-width:0.96073061px;stroke-linecap:round;stroke-linejoin:round;stroke-miterlimit:4;stroke-dasharray:none;stroke-opacity:1;"
     d="  M 76.303134,10.758592   L 73.981369,11.078438   L 71.899786,12.037976   L 70.178477,13.637206   L 69.017594,15.636244   L 68.537229,17.915147  "
     id="path100" />
  <path
     style="fill:none;stroke:#000000;stroke-width:0.96073061px;stroke-linecap:round;stroke-linejoin:round;stroke-miterlimit:4;stroke-dasharray:none;stroke-opacity:1;"
     d="  M 76.343165,10.198861   L 78.985174,10.318803  "
     id="path101" />
  <path
     style="fill:none;stroke:#000000;stroke-width:0.96073061px;stroke-linecap:round;stroke-linejoin:round;stroke-miterlimit:4;stroke-dasharray:none;stroke-opacity:1;"
     d="  M 84.06904,3.6020366   L 81.747275,3.9218826   L 79.665692,4.8814207   L 77.944383,6.4806509   L 76.7835,8.4796886   L 76.303134,10.758592  "
     id="path102" />
  <path
     style="fill:none;stroke:#000000;stroke-width:0.96073061px;stroke-linecap:round;stroke-linejoin:round;stroke-miterlimit:4;stroke-dasharray:none;stroke-opacity:1;"
     d="  M 76.303134,10.758592   L 78.58487,10.438746   L 80.706483,9.4392267   L 82.387762,7.8799773   L 83.548645,5.8409588   L 84.06904,3.6020366  "
     id="path103" />
  <path
     style="fill:none;stroke:#000000;stroke-width:0.96073061px;stroke-linecap:round;stroke-linejoin:round;stroke-miterlimit:4;stroke-dasharray:none;stroke-opacity:1;"
     d="  M 243.43023,91.079927   L 245.87209,87.921448   L 247.55337,84.32318   L 248.39401,80.405066   L 248.39401,76.446971   L 247.55337,72.528857   L 245.87209,68.930589   L 243.43023,65.77211  "
     id="path104" />
  <path
     style="fill:none;stroke:#000000;stroke-width:0.96073061px;stroke-linecap:round;stroke-linejoin:round;stroke-miterlimit:4;stroke-dasharray:none;stroke-opacity:1;"
     d="  M 243.43023,116.42773   L 245.87209,113.26925   L 247.55337,109.67098   L 248.39401,105.75286   L 248.39401,101.79477   L 247.55337,97.876655   L 245.87209,94.278387   L 243.43023,91.079927  "
     id="path105" />
  <path
     style="fill:none;stroke:#000000;stroke-width:0.96073061px;stroke-linecap:round;stroke-linejoin:round;stroke-miterlimit:4;stroke-dasharray:none;stroke-opacity:1;"
     d="  M 243.43023,91.079927   L 241.02841,94.278387   L 239.34713,97.876655   L 238.46646,101.79477   L 238.46646,105.75286   L 239.34713,109.67098   L 241.02841,113.26925   L 243.43023,116.42773  "
     id="path106" />
  <path
     style="fill:none;stroke:#000000;stroke-width:0.96073061px;stroke-linecap:round;stroke-linejoin:round;stroke-miterlimit:4;stroke-dasharray:none;stroke-opacity:1;"
     d="  M 57.208613,65.77211   L 54.806787,68.930589   L 53.125508,72.528857   L 52.244838,76.446971   L 52.244838,80.405066   L 53.125508,84.32318   L 54.806787,87.921448   L 57.208613,91.079927  "
     id="path107" />
  <path
     style="fill:none;stroke:#000000;stroke-width:0.96073061px;stroke-linecap:round;stroke-linejoin:round;stroke-miterlimit:4;stroke-dasharray:none;stroke-opacity:1;"
     d="  M 57.208613,91.079927   L 54.806787,94.278387   L 53.125508,97.876655   L 52.244838,101.79477   L 52.244838,105.75286   L 53.125508,109.67098   L 54.806787,113.26925   L 57.208613,116.42773  "
     id="path108" />
  <path
     style="fill:none;stroke:#000000;stroke-width:0.96073061px;stroke-linecap:round;stroke-linejoin:round;stroke-miterlimit:4;stroke-dasharray:none;stroke-opacity:1;"
     d="  M 57.208613,116.42773   L 59.61044,113.26925   L 61.291718,109.67098   L 62.172388,105.75286   L 62.172388,101.79477   L 61.291718,97.876655   L 59.61044,94.278387   L 57.208613,91.079927  "
     id="path109" />
  <path
     style="fill:#000000;fill-rule:evenodd;fill-opacity:1;stroke:none;"
     d="  M 236.30481,209.22306   L 236.30481,207.38394   L 50.083194,209.22306   z "
     id="path110" />
  <path
     style="fill:#000000;fill-rule:evenodd;fill-opacity:1;stroke:none;"
     d="  M 236.30481,207.38394   L 50.083194,209.22306   L 50.083194,207.38394   z "
     id="path111" />
  <path
     style="fill:#000000;fill-rule:evenodd;fill-opacity:1;stroke:none;"
     d="  M 236.30481,259.91865   L 236.30481,258.07954   L 50.083194,259.91865   z "
     id="path112" />
  <path
     style="fill:#000000;fill-rule:evenodd;fill-opacity:1;stroke:none;"
     d="  M 236.30481,258.07954   L 50.083194,259.91865   L 50.083194,258.07954   z "
     id="path113" />
  <path
     style="fill:none;stroke:#000000;stroke-width:0.96073061px;stroke-linecap:round;stroke-linejoin:round;stroke-miterlimit:4;stroke-dasharray:none;stroke-opacity:1;"
     d="  M 293.66844,233.6513   L 230.06007,233.6513  "
     id="path114" />
  <path
     style="fill:none;stroke:#000000;stroke-width:0.96073061px;stroke-linecap:round;stroke-linejoin:round;stroke-miterlimit:4;stroke-dasharray:none;stroke-opacity:1;"
     d="  M 214.96859,233.6513   L 199.87711,233.6513  "
     id="path115" />
  <path
     style="fill:none;stroke:#000000;stroke-width:0.96073061px;stroke-linecap:round;stroke-linejoin:round;stroke-miterlimit:4;stroke-dasharray:none;stroke-opacity:1;"
     d="  M 184.78563,233.6513   L 109.32825,233.6513  "
     id="path116" />
  <path
     style="fill:none;stroke:#000000;stroke-width:0.96073061px;stroke-linecap:round;stroke-linejoin:round;stroke-miterlimit:4;stroke-dasharray:none;stroke-opacity:1;"
     d="  M 94.236773,233.6513   L 79.145296,233.6513  "
     id="path117" />
  <path
     style="fill:none;stroke:#000000;stroke-width:0.96073061px;stroke-linecap:round;stroke-linejoin:round;stroke-miterlimit:4;stroke-dasharray:none;stroke-opacity:1;"
     d="  M 64.053819,233.6513   L 0.4054147,233.6513  "
     id="path118" />
  <path
     style="fill:none;stroke:#000000;stroke-width:0.96073061px;stroke-linecap:round;stroke-linejoin:round;stroke-miterlimit:4;stroke-dasharray:none;stroke-opacity:1;"
     d="  M 236.30481,233.6513   L 238.74667,230.49282   L 240.42795,226.85457   L 241.26859,222.97644   L 241.26859,218.97836   L 240.42795,215.10023   L 238.74667,211.46198   L 236.30481,208.3035  "
     id="path119" />
  <path
     style="fill:none;stroke:#000000;stroke-width:0.96073061px;stroke-linecap:round;stroke-linejoin:round;stroke-miterlimit:4;stroke-dasharray:none;stroke-opacity:1;"
     d="  M 236.30481,258.9991   L 238.74667,255.84062   L 240.42795,252.20237   L 241.26859,248.32423   L 241.26859,244.32616   L 240.42795,240.44803   L 238.74667,236.80978   L 236.30481,233.6513  "
     id="path120" />
  <path
     style="fill:none;stroke:#000000;stroke-width:0.96073061px;stroke-linecap:round;stroke-linejoin:round;stroke-miterlimit:4;stroke-dasharray:none;stroke-opacity:1;"
     d="  M 236.30481,233.6513   L 233.90299,236.80978   L 232.22171,240.44803   L 231.34104,244.32616   L 231.34104,248.32423   L 232.22171,252.20237   L 233.90299,255.84062   L 236.30481,258.9991  "
     id="path121" />
  <path
     style="fill:none;stroke:#000000;stroke-width:0.96073061px;stroke-linecap:round;stroke-linejoin:round;stroke-miterlimit:4;stroke-dasharray:none;stroke-opacity:1;"
     d="  M 50.083194,208.3035   L 47.641337,211.46198   L 45.960059,215.10023   L 45.119419,218.97836   L 45.119419,222.97644   L 45.960059,226.85457   L 47.641337,230.49282   L 50.083194,233.6513  "
     id="path122" />
  <path
     style="fill:none;stroke:#000000;stroke-width:0.96073061px;stroke-linecap:round;stroke-linejoin:round;stroke-miterlimit:4;stroke-dasharray:none;stroke-opacity:1;"
     d="  M 50.083194,233.6513   L 47.641337,236.80978   L 45.960059,240.44803   L 45.119419,244.32616   L 45.119419,248.32423   L 45.960059,252.20237   L 47.641337,255.84062   L 50.083194,258.9991  "
     id="path123" />
  <path
     style="fill:none;stroke:#000000;stroke-width:0.96073061px;stroke-linecap:round;stroke-linejoin:round;stroke-miterlimit:4;stroke-dasharray:none;stroke-opacity:1;"
     d="  M 50.083194,258.9991   L 52.485021,255.84062   L 54.1663,252.20237   L 55.046969,248.32423   L 55.046969,244.32616   L 54.1663,240.44803   L 52.485021,236.80978   L 50.083194,233.6513  "
     id="path124" />
  <path
     style="fill:none;stroke:#000000;stroke-width:0.96073061px;stroke-linecap:round;stroke-linejoin:round;stroke-miterlimit:4;stroke-dasharray:none;stroke-opacity:1;"
     d="  M 124.3797,221.41719   L 124.57985,222.45669   L 125.14027,223.49619   L 126.06098,224.45572   L 127.30192,225.3353   L 128.82308,226.01497   L 130.54438,226.5747   L 132.42582,226.93453   L 134.42734,227.09445   L 136.42886,227.01449   L 138.39035,226.77461   L 140.19172,226.33482   L 141.83297,225.69513   L 143.194,224.89551   L 144.27483,224.01594   L 145.03541,223.01642   L 145.43571,221.93694   L 145.43571,220.85746   L 145.03541,219.81796   L 144.27483,218.77846   L 143.194,217.89888   L 141.83297,217.09926   L 140.19172,216.45957   L 138.39035,216.01978   L 136.42886,215.7799   L 134.42734,215.73992   L 132.42582,215.85986   L 130.54438,216.21969   L 128.82308,216.77942   L 127.30192,217.45909   L 126.06098,218.33867   L 125.14027,219.29821   L 124.57985,220.33771   L 124.3797,221.41719   z "
     id="path125" />
  <path
     style="fill:none;stroke:#000000;stroke-width:0.96073061px;stroke-linecap:round;stroke-linejoin:round;stroke-miterlimit:4;stroke-dasharray:none;stroke-opacity:1;"
     d="  M 143.194,250.24331   L 142.11318,250.12337   L 141.07239,249.72356   L 140.11166,249.08387   L 139.27102,248.20429   L 138.55047,247.16479   L 138.03008,245.92539   L 137.6698,244.60602   L 137.50968,243.2067   L 137.54971,241.80737   L 137.82993,240.44803   L 138.27026,239.16864   L 138.91075,238.04918   L 139.67133,237.04966   L 140.59203,236.29003   L 141.59279,235.77028   L 142.63358,235.53039   L 143.7144,235.53039   L 144.79522,235.77028   L 145.79598,236.29003   L 146.71668,237.04966   L 147.47726,238.04918   L 148.11775,239.16864   L 148.55808,240.44803   L 148.79827,241.80737   L 148.87833,243.2067   L 148.71821,244.60602   L 148.35793,245.92539   L 147.83754,247.16479   L 147.11699,248.20429   L 146.27635,249.08387   L 145.31562,249.72356   L 144.27483,250.12337   L 143.194,250.24331   z "
     id="path126" />
  <path
     style="fill:none;stroke:#000000;stroke-width:0.96073061px;stroke-linecap:round;stroke-linejoin:round;stroke-miterlimit:4;stroke-dasharray:none;stroke-opacity:1;"
     d="  M 143.194,217.8589   L 144.55504,217.09926   L 146.19629,216.45957   L 148.03769,216.01978   L 149.95915,215.7799   L 151.96067,215.73992   L 153.96219,215.85986   L 155.84362,216.21969   L 157.56493,216.77942   L 159.08609,217.49907   L 160.32703,218.33867   L 161.24773,219.29821   L 161.80816,220.33771   L 161.96828,221.41719   L 161.80816,222.45669   L 161.24773,223.49619   L 160.32703,224.45572   L 159.08609,225.3353   L 157.56493,226.01497   L 155.84362,226.5747   L 153.96219,226.93453   L 151.96067,227.09445   L 149.95915,227.01449   L 148.03769,226.77461   L 146.19629,226.33482   L 144.55504,225.69513   L 143.194,224.93549  "
     id="path127" />
  <path
     style="fill:#000000;fill-rule:evenodd;fill-opacity:1;stroke:none;"
     d="  M 145.59583,218.77846   L 144.39492,220.1378   L 142.43343,216.6195   z "
     id="path128" />
  <path
     style="fill:#000000;fill-rule:evenodd;fill-opacity:1;stroke:none;"
     d="  M 144.39492,220.1378   L 142.43343,216.6195   L 141.59279,218.21873   z "
     id="path129" />
  <path
     style="fill:#000000;fill-rule:evenodd;fill-opacity:1;stroke:none;"
     d="  M 142.43343,216.6195   L 141.59279,218.21873   L 138.83069,215.26015   z "
     id="path130" />
  <path
     style="fill:#000000;fill-rule:evenodd;fill-opacity:1;stroke:none;"
     d="  M 141.59279,218.21873   L 138.83069,215.26015   L 138.39035,216.97932   z "
     id="path131" />
  <path
     style="fill:#000000;fill-rule:evenodd;fill-opacity:1;stroke:none;"
     d="  M 138.83069,215.26015   L 138.39035,216.97932   L 135.06782,214.7404   z "
     id="path132" />
  <path
     style="fill:#000000;fill-rule:evenodd;fill-opacity:1;stroke:none;"
     d="  M 138.39035,216.97932   L 135.06782,214.7404   L 135.02779,216.53953   z "
     id="path133" />
  <path
     style="fill:#000000;fill-rule:evenodd;fill-opacity:1;stroke:none;"
     d="  M 135.06782,214.7404   L 135.02779,216.53953   L 131.26493,215.14021   z "
     id="path134" />
  <path
     style="fill:#000000;fill-rule:evenodd;fill-opacity:1;stroke:none;"
     d="  M 135.02779,216.53953   L 131.26493,215.14021   L 131.66524,216.89936   z "
     id="path135" />
  <path
     style="fill:#000000;fill-rule:evenodd;fill-opacity:1;stroke:none;"
     d="  M 145.79598,223.77605   L 144.19477,222.93645   L 146.35641,221.41719   z "
     id="path136" />
  <path
     style="fill:#000000;fill-rule:evenodd;fill-opacity:1;stroke:none;"
     d="  M 144.19477,222.93645   L 146.35641,221.41719   L 144.55504,221.41719   z "
     id="path137" />
  <path
     style="fill:#000000;fill-rule:evenodd;fill-opacity:1;stroke:none;"
     d="  M 146.35641,221.41719   L 144.55504,221.41719   L 145.79598,219.01834   z "
     id="path138" />
  <path
     style="fill:#000000;fill-rule:evenodd;fill-opacity:1;stroke:none;"
     d="  M 144.55504,221.41719   L 145.79598,219.01834   L 144.19477,219.85794   z "
     id="path139" />
  <path
     style="fill:#000000;fill-rule:evenodd;fill-opacity:1;stroke:none;"
     d="  M 137.70983,227.81411   L 137.38959,226.01497   L 141.91303,226.45476   z "
     id="path140" />
  <path
     style="fill:#000000;fill-rule:evenodd;fill-opacity:1;stroke:none;"
     d="  M 137.38959,226.01497   L 141.91303,226.45476   L 141.11242,224.81555   z "
     id="path141" />
  <path
     style="fill:#000000;fill-rule:evenodd;fill-opacity:1;stroke:none;"
     d="  M 141.91303,226.45476   L 141.11242,224.81555   L 145.59583,224.05592   z "
     id="path142" />
  <path
     style="fill:#000000;fill-rule:evenodd;fill-opacity:1;stroke:none;"
     d="  M 141.11242,224.81555   L 145.59583,224.05592   L 144.39492,222.65659   z "
     id="path143" />
  <path
     style="fill:#000000;fill-rule:evenodd;fill-opacity:1;stroke:none;"
     d="  M 131.26493,227.65418   L 131.66524,225.89503   L 134.46737,228.05399   z "
     id="path144" />
  <path
     style="fill:#000000;fill-rule:evenodd;fill-opacity:1;stroke:none;"
     d="  M 131.66524,225.89503   L 134.46737,228.05399   L 134.5074,226.25486   z "
     id="path145" />
  <path
     style="fill:#000000;fill-rule:evenodd;fill-opacity:1;stroke:none;"
     d="  M 134.46737,228.05399   L 134.5074,226.25486   L 137.70983,227.81411   z "
     id="path146" />
  <path
     style="fill:#000000;fill-rule:evenodd;fill-opacity:1;stroke:none;"
     d="  M 134.5074,226.25486   L 137.70983,227.81411   L 137.38959,226.01497   z "
     id="path147" />
  <path
     style="fill:#000000;fill-rule:evenodd;fill-opacity:1;stroke:none;"
     d="  M 138.43038,215.14021   L 138.03008,216.89936   L 134.62749,214.7404   z "
     id="path148" />
  <path
     style="fill:#000000;fill-rule:evenodd;fill-opacity:1;stroke:none;"
     d="  M 138.03008,216.89936   L 134.62749,214.7404   L 134.66752,216.53953   z "
     id="path149" />
  <path
     style="fill:#000000;fill-rule:evenodd;fill-opacity:1;stroke:none;"
     d="  M 134.62749,214.7404   L 134.66752,216.53953   L 130.86463,215.26015   z "
     id="path150" />
  <path
     style="fill:#000000;fill-rule:evenodd;fill-opacity:1;stroke:none;"
     d="  M 134.66752,216.53953   L 130.86463,215.26015   L 131.30496,216.97932   z "
     id="path151" />
  <path
     style="fill:#000000;fill-rule:evenodd;fill-opacity:1;stroke:none;"
     d="  M 130.86463,215.26015   L 131.30496,216.97932   L 127.26189,216.6195   z "
     id="path152" />
  <path
     style="fill:#000000;fill-rule:evenodd;fill-opacity:1;stroke:none;"
     d="  M 131.30496,216.97932   L 127.26189,216.6195   L 128.10253,218.21873   z "
     id="path153" />
  <path
     style="fill:#000000;fill-rule:evenodd;fill-opacity:1;stroke:none;"
     d="  M 127.26189,216.6195   L 128.10253,218.21873   L 124.13951,218.77846   z "
     id="path154" />
  <path
     style="fill:#000000;fill-rule:evenodd;fill-opacity:1;stroke:none;"
     d="  M 128.10253,218.21873   L 124.13951,218.77846   L 125.3004,220.1378   z "
     id="path155" />
  <path
     style="fill:#000000;fill-rule:evenodd;fill-opacity:1;stroke:none;"
     d="  M 123.89933,219.01834   L 125.50055,219.85794   L 123.3389,221.41719   z "
     id="path156" />
  <path
     style="fill:#000000;fill-rule:evenodd;fill-opacity:1;stroke:none;"
     d="  M 125.50055,219.85794   L 123.3389,221.41719   L 125.14027,221.41719   z "
     id="path157" />
  <path
     style="fill:#000000;fill-rule:evenodd;fill-opacity:1;stroke:none;"
     d="  M 123.3389,221.41719   L 125.14027,221.41719   L 123.89933,223.77605   z "
     id="path158" />
  <path
     style="fill:#000000;fill-rule:evenodd;fill-opacity:1;stroke:none;"
     d="  M 125.14027,221.41719   L 123.89933,223.77605   L 125.50055,222.93645   z "
     id="path159" />
  <path
     style="fill:#000000;fill-rule:evenodd;fill-opacity:1;stroke:none;"
     d="  M 124.13951,224.05592   L 125.3004,222.65659   L 127.78228,226.45476   z "
     id="path160" />
  <path
     style="fill:#000000;fill-rule:evenodd;fill-opacity:1;stroke:none;"
     d="  M 125.3004,222.65659   L 127.78228,226.45476   L 128.58289,224.81555   z "
     id="path161" />
  <path
     style="fill:#000000;fill-rule:evenodd;fill-opacity:1;stroke:none;"
     d="  M 127.78228,226.45476   L 128.58289,224.81555   L 131.98548,227.81411   z "
     id="path162" />
  <path
     style="fill:#000000;fill-rule:evenodd;fill-opacity:1;stroke:none;"
     d="  M 128.58289,224.81555   L 131.98548,227.81411   L 132.30572,226.01497   z "
     id="path163" />
  <path
     style="fill:#000000;fill-rule:evenodd;fill-opacity:1;stroke:none;"
     d="  M 131.98548,227.81411   L 132.30572,226.01497   L 135.22795,228.05399   z "
     id="path164" />
  <path
     style="fill:#000000;fill-rule:evenodd;fill-opacity:1;stroke:none;"
     d="  M 132.30572,226.01497   L 135.22795,228.05399   L 135.18792,226.25486   z "
     id="path165" />
  <path
     style="fill:#000000;fill-rule:evenodd;fill-opacity:1;stroke:none;"
     d="  M 135.22795,228.05399   L 135.18792,226.25486   L 138.43038,227.65418   z "
     id="path166" />
  <path
     style="fill:#000000;fill-rule:evenodd;fill-opacity:1;stroke:none;"
     d="  M 135.18792,226.25486   L 138.43038,227.65418   L 138.03008,225.89503   z "
     id="path167" />
  <path
     style="fill:#000000;fill-rule:evenodd;fill-opacity:1;stroke:none;"
     d="  M 155.12308,215.14021   L 154.72277,216.89936   L 151.92064,214.7404   z "
     id="path168" />
  <path
     style="fill:#000000;fill-rule:evenodd;fill-opacity:1;stroke:none;"
     d="  M 154.72277,216.89936   L 151.92064,214.7404   L 151.88061,216.57952   z "
     id="path169" />
  <path
     style="fill:#000000;fill-rule:evenodd;fill-opacity:1;stroke:none;"
     d="  M 151.92064,214.7404   L 151.88061,216.57952   L 148.67818,214.98028   z "
     id="path170" />
  <path
     style="fill:#000000;fill-rule:evenodd;fill-opacity:1;stroke:none;"
     d="  M 151.88061,216.57952   L 148.67818,214.98028   L 148.99842,216.77942   z "
     id="path171" />
  <path
     style="fill:#000000;fill-rule:evenodd;fill-opacity:1;stroke:none;"
     d="  M 148.67818,214.98028   L 148.99842,216.77942   L 145.59583,215.85986   z "
     id="path172" />
  <path
     style="fill:#000000;fill-rule:evenodd;fill-opacity:1;stroke:none;"
     d="  M 148.99842,216.77942   L 145.59583,215.85986   L 146.23632,217.53905   z "
     id="path173" />
  <path
     style="fill:#000000;fill-rule:evenodd;fill-opacity:1;stroke:none;"
     d="  M 145.59583,215.85986   L 146.23632,217.53905   L 142.71364,217.33915   z "
     id="path174" />
  <path
     style="fill:#000000;fill-rule:evenodd;fill-opacity:1;stroke:none;"
     d="  M 146.23632,217.53905   L 142.71364,217.33915   L 143.67437,218.85842   z "
     id="path175" />
  <path
     style="fill:#000000;fill-rule:evenodd;fill-opacity:1;stroke:none;"
     d="  M 142.71364,225.45524   L 143.67437,223.93597   L 145.5558,226.93453   z "
     id="path176" />
  <path
     style="fill:#000000;fill-rule:evenodd;fill-opacity:1;stroke:none;"
     d="  M 143.67437,223.93597   L 145.5558,226.93453   L 146.23632,225.25534   z "
     id="path177" />
  <path
     style="fill:#000000;fill-rule:evenodd;fill-opacity:1;stroke:none;"
     d="  M 145.5558,226.93453   L 146.23632,225.25534   L 148.67818,227.81411   z "
     id="path178" />
  <path
     style="fill:#000000;fill-rule:evenodd;fill-opacity:1;stroke:none;"
     d="  M 146.23632,225.25534   L 148.67818,227.81411   L 148.99842,226.01497   z "
     id="path179" />
  <path
     style="fill:#000000;fill-rule:evenodd;fill-opacity:1;stroke:none;"
     d="  M 148.67818,227.81411   L 148.99842,226.01497   L 151.92064,228.05399   z "
     id="path180" />
  <path
     style="fill:#000000;fill-rule:evenodd;fill-opacity:1;stroke:none;"
     d="  M 148.99842,226.01497   L 151.92064,228.05399   L 151.88061,226.25486   z "
     id="path181" />
  <path
     style="fill:#000000;fill-rule:evenodd;fill-opacity:1;stroke:none;"
     d="  M 151.92064,228.05399   L 151.88061,226.25486   L 155.12308,227.65418   z "
     id="path182" />
  <path
     style="fill:#000000;fill-rule:evenodd;fill-opacity:1;stroke:none;"
     d="  M 151.88061,226.25486   L 155.12308,227.65418   L 154.72277,225.89503   z "
     id="path183" />
  <path
     style="fill:#000000;fill-rule:evenodd;fill-opacity:1;stroke:none;"
     d="  M 162.2485,218.77846   L 161.04758,220.1378   L 159.08609,216.6195   z "
     id="path184" />
  <path
     style="fill:#000000;fill-rule:evenodd;fill-opacity:1;stroke:none;"
     d="  M 161.04758,220.1378   L 159.08609,216.6195   L 158.24545,218.21873   z "
     id="path185" />
  <path
     style="fill:#000000;fill-rule:evenodd;fill-opacity:1;stroke:none;"
     d="  M 159.08609,216.6195   L 158.24545,218.21873   L 155.52338,215.26015   z "
     id="path186" />
  <path
     style="fill:#000000;fill-rule:evenodd;fill-opacity:1;stroke:none;"
     d="  M 158.24545,218.21873   L 155.52338,215.26015   L 155.08305,216.97932   z "
     id="path187" />
  <path
     style="fill:#000000;fill-rule:evenodd;fill-opacity:1;stroke:none;"
     d="  M 155.52338,215.26015   L 155.08305,216.97932   L 151.72049,214.7404   z "
     id="path188" />
  <path
     style="fill:#000000;fill-rule:evenodd;fill-opacity:1;stroke:none;"
     d="  M 155.08305,216.97932   L 151.72049,214.7404   L 151.72049,216.53953   z "
     id="path189" />
  <path
     style="fill:#000000;fill-rule:evenodd;fill-opacity:1;stroke:none;"
     d="  M 151.72049,214.7404   L 151.72049,216.53953   L 147.9176,215.14021   z "
     id="path190" />
  <path
     style="fill:#000000;fill-rule:evenodd;fill-opacity:1;stroke:none;"
     d="  M 151.72049,216.53953   L 147.9176,215.14021   L 148.3179,216.89936   z "
     id="path191" />
  <path
     style="fill:#000000;fill-rule:evenodd;fill-opacity:1;stroke:none;"
     d="  M 162.44865,223.77605   L 160.84743,222.93645   L 163.0491,221.41719   z "
     id="path192" />
  <path
     style="fill:#000000;fill-rule:evenodd;fill-opacity:1;stroke:none;"
     d="  M 160.84743,222.93645   L 163.0491,221.41719   L 161.24773,221.41719   z "
     id="path193" />
  <path
     style="fill:#000000;fill-rule:evenodd;fill-opacity:1;stroke:none;"
     d="  M 163.0491,221.41719   L 161.24773,221.41719   L 162.44865,219.01834   z "
     id="path194" />
  <path
     style="fill:#000000;fill-rule:evenodd;fill-opacity:1;stroke:none;"
     d="  M 161.24773,221.41719   L 162.44865,219.01834   L 160.84743,219.85794   z "
     id="path195" />
  <path
     style="fill:#000000;fill-rule:evenodd;fill-opacity:1;stroke:none;"
     d="  M 154.40253,227.81411   L 154.08229,226.01497   L 158.56569,226.45476   z "
     id="path196" />
  <path
     style="fill:#000000;fill-rule:evenodd;fill-opacity:1;stroke:none;"
     d="  M 154.08229,226.01497   L 158.56569,226.45476   L 157.80512,224.81555   z "
     id="path197" />
  <path
     style="fill:#000000;fill-rule:evenodd;fill-opacity:1;stroke:none;"
     d="  M 158.56569,226.45476   L 157.80512,224.81555   L 162.2485,224.05592   z "
     id="path198" />
  <path
     style="fill:#000000;fill-rule:evenodd;fill-opacity:1;stroke:none;"
     d="  M 157.80512,224.81555   L 162.2485,224.05592   L 161.04758,222.65659   z "
     id="path199" />
  <path
     style="fill:#000000;fill-rule:evenodd;fill-opacity:1;stroke:none;"
     d="  M 147.9176,227.65418   L 148.3179,225.89503   L 151.16006,228.05399   z "
     id="path200" />
  <path
     style="fill:#000000;fill-rule:evenodd;fill-opacity:1;stroke:none;"
     d="  M 148.3179,225.89503   L 151.16006,228.05399   L 151.20009,226.25486   z "
     id="path201" />
  <path
     style="fill:#000000;fill-rule:evenodd;fill-opacity:1;stroke:none;"
     d="  M 151.16006,228.05399   L 151.20009,226.25486   L 154.40253,227.81411   z "
     id="path202" />
  <path
     style="fill:#000000;fill-rule:evenodd;fill-opacity:1;stroke:none;"
     d="  M 151.20009,226.25486   L 154.40253,227.81411   L 154.08229,226.01497   z "
     id="path203" />
  <path
     style="fill:#000000;fill-rule:evenodd;fill-opacity:1;stroke:none;"
     d="  M 145.83601,250.36325   L 144.47498,249.16383   L 147.83754,247.52462   z "
     id="path204" />
  <path
     style="fill:#000000;fill-rule:evenodd;fill-opacity:1;stroke:none;"
     d="  M 144.47498,249.16383   L 147.83754,247.52462   L 146.23632,246.64504   z "
     id="path205" />
  <path
     style="fill:#000000;fill-rule:evenodd;fill-opacity:1;stroke:none;"
     d="  M 147.83754,247.52462   L 146.23632,246.64504   L 149.15854,244.28618   z "
     id="path206" />
  <path
     style="fill:#000000;fill-rule:evenodd;fill-opacity:1;stroke:none;"
     d="  M 146.23632,246.64504   L 149.15854,244.28618   L 147.43723,243.76643   z "
     id="path207" />
  <path
     style="fill:#000000;fill-rule:evenodd;fill-opacity:1;stroke:none;"
     d="  M 140.79218,250.56316   L 141.63282,248.96393   L 143.194,251.16287   z "
     id="path208" />
  <path
     style="fill:#000000;fill-rule:evenodd;fill-opacity:1;stroke:none;"
     d="  M 141.63282,248.96393   L 143.194,251.16287   L 143.194,249.36373   z "
     id="path209" />
  <path
     style="fill:#000000;fill-rule:evenodd;fill-opacity:1;stroke:none;"
     d="  M 143.194,251.16287   L 143.194,249.36373   L 145.5558,250.56316   z "
     id="path210" />
  <path
     style="fill:#000000;fill-rule:evenodd;fill-opacity:1;stroke:none;"
     d="  M 143.194,249.36373   L 145.5558,250.56316   L 144.71516,248.96393   z "
     id="path211" />
  <path
     style="fill:#000000;fill-rule:evenodd;fill-opacity:1;stroke:none;"
     d="  M 138.27026,246.92491   L 139.87148,246.12529   L 140.552,250.36325   z "
     id="path212" />
  <path
     style="fill:#000000;fill-rule:evenodd;fill-opacity:1;stroke:none;"
     d="  M 139.87148,246.12529   L 140.552,250.36325   L 141.91303,249.16383   z "
     id="path213" />
  <path
     style="fill:#000000;fill-rule:evenodd;fill-opacity:1;stroke:none;"
     d="  M 148.15778,246.88493   L 146.59659,245.96537   L 149.11851,244.4461   z "
     id="path214" />
  <path
     style="fill:#000000;fill-rule:evenodd;fill-opacity:1;stroke:none;"
     d="  M 146.59659,245.96537   L 149.11851,244.4461   L 147.35717,244.04629   z "
     id="path215" />
  <path
     style="fill:#000000;fill-rule:evenodd;fill-opacity:1;stroke:none;"
     d="  M 149.11851,244.4461   L 147.35717,244.04629   L 149.35869,241.84735   z "
     id="path216" />
  <path
     style="fill:#000000;fill-rule:evenodd;fill-opacity:1;stroke:none;"
     d="  M 147.35717,244.04629   L 149.35869,241.84735   L 147.55732,241.96729   z "
     id="path217" />
  <path
     style="fill:#000000;fill-rule:evenodd;fill-opacity:1;stroke:none;"
     d="  M 149.35869,241.84735   L 147.55732,241.96729   L 148.79827,239.32856   z "
     id="path218" />
  <path
     style="fill:#000000;fill-rule:evenodd;fill-opacity:1;stroke:none;"
     d="  M 147.55732,241.96729   L 148.79827,239.32856   L 147.11699,239.92828   z "
     id="path219" />
  <path
     style="fill:#000000;fill-rule:evenodd;fill-opacity:1;stroke:none;"
     d="  M 148.79827,239.32856   L 147.11699,239.92828   L 147.55732,237.04966   z "
     id="path220" />
  <path
     style="fill:#000000;fill-rule:evenodd;fill-opacity:1;stroke:none;"
     d="  M 147.11699,239.92828   L 147.55732,237.04966   L 146.11623,238.12914   z "
     id="path221" />
  <path
     style="fill:#000000;fill-rule:evenodd;fill-opacity:1;stroke:none;"
     d="  M 147.55732,237.04966   L 146.11623,238.12914   L 145.67589,235.21055   z "
     id="path222" />
  <path
     style="fill:#000000;fill-rule:evenodd;fill-opacity:1;stroke:none;"
     d="  M 146.11623,238.12914   L 145.67589,235.21055   L 144.6351,236.68983   z "
     id="path223" />
  <path
     style="fill:#000000;fill-rule:evenodd;fill-opacity:1;stroke:none;"
     d="  M 145.5558,235.17057   L 144.71516,236.7698   L 143.194,234.57085   z "
     id="path224" />
  <path
     style="fill:#000000;fill-rule:evenodd;fill-opacity:1;stroke:none;"
     d="  M 144.71516,236.7698   L 143.194,234.57085   L 143.194,236.36999   z "
     id="path225" />
  <path
     style="fill:#000000;fill-rule:evenodd;fill-opacity:1;stroke:none;"
     d="  M 143.194,234.57085   L 143.194,236.36999   L 140.79218,235.17057   z "
     id="path226" />
  <path
     style="fill:#000000;fill-rule:evenodd;fill-opacity:1;stroke:none;"
     d="  M 143.194,236.36999   L 140.79218,235.17057   L 141.63282,236.7698   z "
     id="path227" />
  <path
     style="fill:#000000;fill-rule:evenodd;fill-opacity:1;stroke:none;"
     d="  M 140.63206,235.29051   L 141.83297,236.64985   L 138.5905,237.72933   z "
     id="path228" />
  <path
     style="fill:#000000;fill-rule:evenodd;fill-opacity:1;stroke:none;"
     d="  M 141.83297,236.64985   L 138.5905,237.72933   L 140.15169,238.64889   z "
     id="path229" />
  <path
     style="fill:#000000;fill-rule:evenodd;fill-opacity:1;stroke:none;"
     d="  M 138.5905,237.72933   L 140.15169,238.64889   L 137.42962,240.68791   z "
     id="path230" />
  <path
     style="fill:#000000;fill-rule:evenodd;fill-opacity:1;stroke:none;"
     d="  M 140.15169,238.64889   L 137.42962,240.68791   L 139.23099,241.04774   z "
     id="path231" />
  <path
     style="fill:#000000;fill-rule:evenodd;fill-opacity:1;stroke:none;"
     d="  M 137.42962,240.68791   L 139.23099,241.04774   L 137.30953,243.88637   z "
     id="path232" />
  <path
     style="fill:#000000;fill-rule:evenodd;fill-opacity:1;stroke:none;"
     d="  M 139.23099,241.04774   L 137.30953,243.88637   L 139.1109,243.64649   z "
     id="path233" />
  <path
     style="fill:#000000;fill-rule:evenodd;fill-opacity:1;stroke:none;"
     d="  M 137.30953,243.88637   L 139.1109,243.64649   L 138.27026,246.92491   z "
     id="path234" />
  <path
     style="fill:#000000;fill-rule:evenodd;fill-opacity:1;stroke:none;"
     d="  M 139.1109,243.64649   L 138.27026,246.92491   L 139.87148,246.12529   z "
     id="path235" />
  <path
     style="fill:none;stroke:#000000;stroke-width:0.96073061px;stroke-linecap:round;stroke-linejoin:round;stroke-miterlimit:4;stroke-dasharray:none;stroke-opacity:1;"
     d="  M 65.334793,51.259096   L 83.468584,51.259096  "
     id="path236" />
  <path
     style="fill:none;stroke:#000000;stroke-width:0.96073061px;stroke-linecap:round;stroke-linejoin:round;stroke-miterlimit:4;stroke-dasharray:none;stroke-opacity:1;"
     d="  M 94.316834,33.907448   L 83.468584,51.259096  "
     id="path237" />
  <path
     style="fill:none;stroke:#000000;stroke-width:0.96073061px;stroke-linecap:round;stroke-linejoin:round;stroke-miterlimit:4;stroke-dasharray:none;stroke-opacity:1;"
     d="  M 73.18076,35.226813   L 78.544839,35.226813   L 75.622617,40.784138   L 77.103743,40.784138   L 78.064474,41.503792   L 78.544839,42.183465   L 79.025205,44.302445   L 79.025205,45.66179   L 78.544839,47.78077   L 77.584109,49.140116   L 76.102982,49.859769   L 74.661886,49.859769   L 73.18076,49.140116   L 72.700395,48.460443   L 72.220029,47.061117  "
     id="path238" />
  <path
     style="fill:none;stroke:#000000;stroke-width:0.96073061px;stroke-linecap:round;stroke-linejoin:round;stroke-miterlimit:4;stroke-dasharray:none;stroke-opacity:1;"
     d="  M 228.2587,53.697922   L 210.16494,53.697922  "
     id="path239" />
  <path
     style="fill:none;stroke:#000000;stroke-width:0.96073061px;stroke-linecap:round;stroke-linejoin:round;stroke-miterlimit:4;stroke-dasharray:none;stroke-opacity:1;"
     d="  M 198.27589,34.707063   L 210.16494,53.697922  "
     id="path240" />
  <path
     style="fill:none;stroke:#000000;stroke-width:0.96073061px;stroke-linecap:round;stroke-linejoin:round;stroke-miterlimit:4;stroke-dasharray:none;stroke-opacity:1;"
     d="  M 221.65367,37.70562   L 216.76996,47.420943   L 224.09553,47.420943  "
     id="path241" />
  <path
     style="fill:none;stroke:#000000;stroke-width:0.96073061px;stroke-linecap:round;stroke-linejoin:round;stroke-miterlimit:4;stroke-dasharray:none;stroke-opacity:1;"
     d="  M 221.65367,37.70562   L 221.65367,52.298595  "
     id="path242" />
  <path
     style="fill:none;stroke:#000000;stroke-width:0.96073061px;stroke-linecap:round;stroke-linejoin:round;stroke-miterlimit:4;stroke-dasharray:none;stroke-opacity:1;"
     d="  M 194.75322,173.84009   L 176.65945,173.84009  "
     id="path243" />
  <path
     style="fill:none;stroke:#000000;stroke-width:0.96073061px;stroke-linecap:round;stroke-linejoin:round;stroke-miterlimit:4;stroke-dasharray:none;stroke-opacity:1;"
     d="  M 151.12003,154.88921   L 176.65945,173.84009  "
     id="path244" />
  <path
     style="fill:none;stroke:#000000;stroke-width:0.96073061px;stroke-linecap:round;stroke-linejoin:round;stroke-miterlimit:4;stroke-dasharray:none;stroke-opacity:1;"
     d="  M 183.98503,161.32611   L 183.98503,160.60646   L 184.50542,159.24711   L 184.98579,158.52746   L 185.94652,157.84779   L 187.90801,157.84779   L 188.86874,158.52746   L 189.34911,159.24711   L 189.8695,160.60646   L 189.8695,162.00579   L 189.34911,163.40511   L 188.38837,165.48411   L 183.50466,172.44076   L 190.34987,172.44076  "
     id="path245" />
  <path
     style="fill:none;stroke:#000000;stroke-width:0.96073061px;stroke-linecap:round;stroke-linejoin:round;stroke-miterlimit:4;stroke-dasharray:none;stroke-opacity:1;"
     d="  M 214.80847,105.473   L 233.18244,141.09585  "
     id="path246" />
  <path
     style="fill:none;stroke:#000000;stroke-width:0.96073061px;stroke-linecap:round;stroke-linejoin:round;stroke-miterlimit:4;stroke-dasharray:none;stroke-opacity:1;"
     d="  M 233.18244,141.09585   L 251.2762,141.09585  "
     id="path247" />
  <path
     style="fill:none;stroke:#000000;stroke-width:0.96073061px;stroke-linecap:round;stroke-linejoin:round;stroke-miterlimit:4;stroke-dasharray:none;stroke-opacity:1;"
     d="  M 240.38792,126.90268   L 241.38868,126.22301   L 242.82978,124.14401   L 242.82978,138.73699  "
     id="path248" />
  <path
     style="fill:none;stroke:#000000;stroke-width:0.96073061px;stroke-linecap:round;stroke-linejoin:round;stroke-miterlimit:4;stroke-dasharray:none;stroke-opacity:1;"
     d="  M 145.07544,70.929627   L 176.65945,18.474877  "
     id="path249" />
  <path
     style="fill:none;stroke:#000000;stroke-width:0.96073061px;stroke-linecap:round;stroke-linejoin:round;stroke-miterlimit:4;stroke-dasharray:none;stroke-opacity:1;"
     d="  M 176.65945,18.474877   L 158.56569,18.474877  "
     id="path250" />
  <path
     style="fill:none;stroke:#000000;stroke-width:0.96073061px;stroke-linecap:round;stroke-linejoin:round;stroke-miterlimit:4;stroke-dasharray:none;stroke-opacity:1;"
     d="  M 169.01364,1.6029989   L 164.16996,1.6029989   L 163.64956,7.8399965   L 164.16996,7.1603237   L 165.61105,6.4806509   L 167.09218,6.4806509   L 168.53328,7.1603237   L 169.53404,8.5596501   L 170.0144,10.638649   L 170.0144,12.037976   L 169.53404,14.116975   L 168.53328,15.516301   L 167.09218,16.195974   L 165.61105,16.195974   L 164.16996,15.516301   L 163.64956,14.796648   L 163.1692,13.437302  "
     id="path251" />
  <path
     style="fill:#000000;fill-rule:evenodd;fill-opacity:1;stroke:none;"
     d="  M 246.75276,112.06982   L 246.75276,111.15027   L 237.866,112.06982   z "
     id="path252" />
  <path
     style="fill:#000000;fill-rule:evenodd;fill-opacity:1;stroke:none;"
     d="  M 246.75276,111.15027   L 237.866,112.06982   L 237.866,111.15027   z "
     id="path253" />
  <path
     style="fill:#000000;fill-rule:evenodd;fill-opacity:1;stroke:none;"
     d="  M 231.82141,112.06982   L 231.82141,111.15027   L 216.72993,112.06982   z "
     id="path254" />
  <path
     style="fill:#000000;fill-rule:evenodd;fill-opacity:1;stroke:none;"
     d="  M 231.82141,111.15027   L 216.72993,112.06982   L 216.72993,111.15027   z "
     id="path255" />
  <path
     style="fill:#000000;fill-rule:evenodd;fill-opacity:1;stroke:none;"
     d="  M 210.68533,112.06982   L 210.68533,111.15027   L 195.59385,112.06982   z "
     id="path256" />
  <path
     style="fill:#000000;fill-rule:evenodd;fill-opacity:1;stroke:none;"
     d="  M 210.68533,111.15027   L 195.59385,112.06982   L 195.59385,111.15027   z "
     id="path257" />
  <path
     style="fill:#000000;fill-rule:evenodd;fill-opacity:1;stroke:none;"
     d="  M 189.54926,112.06982   L 189.54926,111.15027   L 174.45778,112.06982   z "
     id="path258" />
  <path
     style="fill:#000000;fill-rule:evenodd;fill-opacity:1;stroke:none;"
     d="  M 189.54926,111.15027   L 174.45778,112.06982   L 174.45778,111.15027   z "
     id="path259" />
  <path
     style="fill:#000000;fill-rule:evenodd;fill-opacity:1;stroke:none;"
     d="  M 168.45321,112.06982   L 168.45321,111.15027   L 153.36174,112.06982   z "
     id="path260" />
  <path
     style="fill:#000000;fill-rule:evenodd;fill-opacity:1;stroke:none;"
     d="  M 168.45321,111.15027   L 153.36174,112.06982   L 153.36174,111.15027   z "
     id="path261" />
  <path
     style="fill:#000000;fill-rule:evenodd;fill-opacity:1;stroke:none;"
     d="  M 147.31714,112.06982   L 147.31714,111.15027   L 132.22566,112.06982   z "
     id="path262" />
  <path
     style="fill:#000000;fill-rule:evenodd;fill-opacity:1;stroke:none;"
     d="  M 147.31714,111.15027   L 132.22566,112.06982   L 132.22566,111.15027   z "
     id="path263" />
  <path
     style="fill:#000000;fill-rule:evenodd;fill-opacity:1;stroke:none;"
     d="  M 126.18107,112.06982   L 126.18107,111.15027   L 111.08959,112.06982   z "
     id="path264" />
  <path
     style="fill:#000000;fill-rule:evenodd;fill-opacity:1;stroke:none;"
     d="  M 126.18107,111.15027   L 111.08959,112.06982   L 111.08959,111.15027   z "
     id="path265" />
  <path
     style="fill:#000000;fill-rule:evenodd;fill-opacity:1;stroke:none;"
     d="  M 105.04499,112.06982   L 105.04499,111.15027   L 89.953516,112.06982   z "
     id="path266" />
  <path
     style="fill:#000000;fill-rule:evenodd;fill-opacity:1;stroke:none;"
     d="  M 105.04499,111.15027   L 89.953516,112.06982   L 89.953516,111.15027   z "
     id="path267" />
  <path
     style="fill:#000000;fill-rule:evenodd;fill-opacity:1;stroke:none;"
     d="  M 83.908919,112.06982   L 83.908919,111.15027   L 68.817442,112.06982   z "
     id="path268" />
  <path
     style="fill:#000000;fill-rule:evenodd;fill-opacity:1;stroke:none;"
     d="  M 83.908919,111.15027   L 68.817442,112.06982   L 68.817442,111.15027   z "
     id="path269" />
  <path
     style="fill:#000000;fill-rule:evenodd;fill-opacity:1;stroke:none;"
     d="  M 62.812875,112.06982   L 62.812875,111.15027   L 53.886086,112.06982   z "
     id="path270" />
  <path
     style="fill:#000000;fill-rule:evenodd;fill-opacity:1;stroke:none;"
     d="  M 62.812875,111.15027   L 53.886086,112.06982   L 53.886086,111.15027   z "
     id="path271" />
  <path
     style="fill:#000000;fill-rule:evenodd;fill-opacity:1;stroke:none;"
     d="  M 53.886086,112.06982   L 53.886086,111.15027   L 53.886086,111.15027   z "
     id="path272" />
  <path
     style="fill:#000000;fill-rule:evenodd;fill-opacity:1;stroke:none;"
     d="  M 239.62734,213.58096   L 239.62734,212.70138   L 230.70055,213.58096   z "
     id="path273" />
  <path
     style="fill:#000000;fill-rule:evenodd;fill-opacity:1;stroke:none;"
     d="  M 239.62734,212.70138   L 230.70055,213.58096   L 230.70055,212.70138   z "
     id="path274" />
  <path
     style="fill:#000000;fill-rule:evenodd;fill-opacity:1;stroke:none;"
     d="  M 224.69599,213.58096   L 224.69599,212.70138   L 209.60451,213.58096   z "
     id="path275" />
  <path
     style="fill:#000000;fill-rule:evenodd;fill-opacity:1;stroke:none;"
     d="  M 224.69599,212.70138   L 209.60451,213.58096   L 209.60451,212.70138   z "
     id="path276" />
  <path
     style="fill:#000000;fill-rule:evenodd;fill-opacity:1;stroke:none;"
     d="  M 203.55991,213.58096   L 203.55991,212.70138   L 188.46844,213.58096   z "
     id="path277" />
  <path
     style="fill:#000000;fill-rule:evenodd;fill-opacity:1;stroke:none;"
     d="  M 203.55991,212.70138   L 188.46844,213.58096   L 188.46844,212.70138   z "
     id="path278" />
  <path
     style="fill:#000000;fill-rule:evenodd;fill-opacity:1;stroke:none;"
     d="  M 182.42384,213.58096   L 182.42384,212.70138   L 167.33236,213.58096   z "
     id="path279" />
  <path
     style="fill:#000000;fill-rule:evenodd;fill-opacity:1;stroke:none;"
     d="  M 182.42384,212.70138   L 167.33236,213.58096   L 167.33236,212.70138   z "
     id="path280" />
  <path
     style="fill:#000000;fill-rule:evenodd;fill-opacity:1;stroke:none;"
     d="  M 161.28776,213.58096   L 161.28776,212.70138   L 146.19629,213.58096   z "
     id="path281" />
  <path
     style="fill:#000000;fill-rule:evenodd;fill-opacity:1;stroke:none;"
     d="  M 161.28776,212.70138   L 146.19629,213.58096   L 146.19629,212.70138   z "
     id="path282" />
  <path
     style="fill:#000000;fill-rule:evenodd;fill-opacity:1;stroke:none;"
     d="  M 140.15169,213.58096   L 140.15169,212.70138   L 125.06021,213.58096   z "
     id="path283" />
  <path
     style="fill:#000000;fill-rule:evenodd;fill-opacity:1;stroke:none;"
     d="  M 140.15169,212.70138   L 125.06021,213.58096   L 125.06021,212.70138   z "
     id="path284" />
  <path
     style="fill:#000000;fill-rule:evenodd;fill-opacity:1;stroke:none;"
     d="  M 119.05565,213.58096   L 119.05565,212.70138   L 103.96417,213.58096   z "
     id="path285" />
  <path
     style="fill:#000000;fill-rule:evenodd;fill-opacity:1;stroke:none;"
     d="  M 119.05565,212.70138   L 103.96417,213.58096   L 103.96417,212.70138   z "
     id="path286" />
  <path
     style="fill:#000000;fill-rule:evenodd;fill-opacity:1;stroke:none;"
     d="  M 97.919574,213.58096   L 97.919574,212.70138   L 82.828097,213.58096   z "
     id="path287" />
  <path
     style="fill:#000000;fill-rule:evenodd;fill-opacity:1;stroke:none;"
     d="  M 97.919574,212.70138   L 82.828097,213.58096   L 82.828097,212.70138   z "
     id="path288" />
  <path
     style="fill:#000000;fill-rule:evenodd;fill-opacity:1;stroke:none;"
     d="  M 76.7835,213.58096   L 76.7835,212.70138   L 61.692023,213.58096   z "
     id="path289" />
  <path
     style="fill:#000000;fill-rule:evenodd;fill-opacity:1;stroke:none;"
     d="  M 76.7835,212.70138   L 61.692023,213.58096   L 61.692023,212.70138   z "
     id="path290" />
  <path
     style="fill:#000000;fill-rule:evenodd;fill-opacity:1;stroke:none;"
     d="  M 55.647426,213.58096   L 55.647426,212.70138   L 46.760668,213.58096   z "
     id="path291" />
  <path
     style="fill:#000000;fill-rule:evenodd;fill-opacity:1;stroke:none;"
     d="  M 55.647426,212.70138   L 46.760668,213.58096   L 46.760668,212.70138   z "
     id="path292" />
  <path
     style="fill:#000000;fill-rule:evenodd;fill-opacity:1;stroke:none;"
     d="  M 46.760668,213.58096   L 46.760668,212.70138   L 46.760668,212.70138   z "
     id="path293" />
  <path
     style="fill:#000000;fill-rule:evenodd;fill-opacity:1;stroke:none;"
     d="  M 239.62734,254.60121   L 239.62734,253.72164   L 230.70055,254.60121   z "
     id="path294" />
  <path
     style="fill:#000000;fill-rule:evenodd;fill-opacity:1;stroke:none;"
     d="  M 239.62734,253.72164   L 230.70055,254.60121   L 230.70055,253.72164   z "
     id="path295" />
  <path
     style="fill:#000000;fill-rule:evenodd;fill-opacity:1;stroke:none;"
     d="  M 224.69599,254.60121   L 224.69599,253.72164   L 209.60451,254.60121   z "
     id="path296" />
  <path
     style="fill:#000000;fill-rule:evenodd;fill-opacity:1;stroke:none;"
     d="  M 224.69599,253.72164   L 209.60451,254.60121   L 209.60451,253.72164   z "
     id="path297" />
  <path
     style="fill:#000000;fill-rule:evenodd;fill-opacity:1;stroke:none;"
     d="  M 203.55991,254.60121   L 203.55991,253.72164   L 188.46844,254.60121   z "
     id="path298" />
  <path
     style="fill:#000000;fill-rule:evenodd;fill-opacity:1;stroke:none;"
     d="  M 203.55991,253.72164   L 188.46844,254.60121   L 188.46844,253.72164   z "
     id="path299" />
  <path
     style="fill:#000000;fill-rule:evenodd;fill-opacity:1;stroke:none;"
     d="  M 182.42384,254.60121   L 182.42384,253.72164   L 167.33236,254.60121   z "
     id="path300" />
  <path
     style="fill:#000000;fill-rule:evenodd;fill-opacity:1;stroke:none;"
     d="  M 182.42384,253.72164   L 167.33236,254.60121   L 167.33236,253.72164   z "
     id="path301" />
  <path
     style="fill:#000000;fill-rule:evenodd;fill-opacity:1;stroke:none;"
     d="  M 161.28776,254.60121   L 161.28776,253.72164   L 146.19629,254.60121   z "
     id="path302" />
  <path
     style="fill:#000000;fill-rule:evenodd;fill-opacity:1;stroke:none;"
     d="  M 161.28776,253.72164   L 146.19629,254.60121   L 146.19629,253.72164   z "
     id="path303" />
  <path
     style="fill:#000000;fill-rule:evenodd;fill-opacity:1;stroke:none;"
     d="  M 140.15169,254.60121   L 140.15169,253.72164   L 125.06021,254.60121   z "
     id="path304" />
  <path
     style="fill:#000000;fill-rule:evenodd;fill-opacity:1;stroke:none;"
     d="  M 140.15169,253.72164   L 125.06021,254.60121   L 125.06021,253.72164   z "
     id="path305" />
  <path
     style="fill:#000000;fill-rule:evenodd;fill-opacity:1;stroke:none;"
     d="  M 119.05565,254.60121   L 119.05565,253.72164   L 103.96417,254.60121   z "
     id="path306" />
  <path
     style="fill:#000000;fill-rule:evenodd;fill-opacity:1;stroke:none;"
     d="  M 119.05565,253.72164   L 103.96417,254.60121   L 103.96417,253.72164   z "
     id="path307" />
  <path
     style="fill:#000000;fill-rule:evenodd;fill-opacity:1;stroke:none;"
     d="  M 97.919574,254.60121   L 97.919574,253.72164   L 82.828097,254.60121   z "
     id="path308" />
  <path
     style="fill:#000000;fill-rule:evenodd;fill-opacity:1;stroke:none;"
     d="  M 97.919574,253.72164   L 82.828097,254.60121   L 82.828097,253.72164   z "
     id="path309" />
  <path
     style="fill:#000000;fill-rule:evenodd;fill-opacity:1;stroke:none;"
     d="  M 76.7835,254.60121   L 76.7835,253.72164   L 61.692023,254.60121   z "
     id="path310" />
  <path
     style="fill:#000000;fill-rule:evenodd;fill-opacity:1;stroke:none;"
     d="  M 76.7835,253.72164   L 61.692023,254.60121   L 61.692023,253.72164   z "
     id="path311" />
  <path
     style="fill:#000000;fill-rule:evenodd;fill-opacity:1;stroke:none;"
     d="  M 55.647426,254.60121   L 55.647426,253.72164   L 46.760668,254.60121   z "
     id="path312" />
  <path
     style="fill:#000000;fill-rule:evenodd;fill-opacity:1;stroke:none;"
     d="  M 55.647426,253.72164   L 46.760668,254.60121   L 46.760668,253.72164   z "
     id="path313" />
  <path
     style="fill:#000000;fill-rule:evenodd;fill-opacity:1;stroke:none;"
     d="  M 46.760668,254.60121   L 46.760668,253.72164   L 46.760668,253.72164   z "
     id="path314" />
  <path
     style="fill:#000000;fill-rule:evenodd;fill-opacity:1;stroke:none;"
     d="  M 246.51258,70.529819   L 246.51258,69.610262   L 232.30177,70.529819   z "
     id="path315" />
  <path
     style="fill:#000000;fill-rule:evenodd;fill-opacity:1;stroke:none;"
     d="  M 246.51258,69.610262   L 232.30177,70.529819   L 232.30177,69.610262   z "
     id="path316" />
  <path
     style="fill:#000000;fill-rule:evenodd;fill-opacity:1;stroke:none;"
     d="  M 226.25717,70.529819   L 226.25717,69.610262   L 211.1657,70.529819   z "
     id="path317" />
  <path
     style="fill:#000000;fill-rule:evenodd;fill-opacity:1;stroke:none;"
     d="  M 226.25717,69.610262   L 211.1657,70.529819   L 211.1657,69.610262   z "
     id="path318" />
  <path
     style="fill:#000000;fill-rule:evenodd;fill-opacity:1;stroke:none;"
     d="  M 205.1211,70.529819   L 205.1211,69.610262   L 190.02962,70.529819   z "
     id="path319" />
  <path
     style="fill:#000000;fill-rule:evenodd;fill-opacity:1;stroke:none;"
     d="  M 205.1211,69.610262   L 190.02962,70.529819   L 190.02962,69.610262   z "
     id="path320" />
  <path
     style="fill:#000000;fill-rule:evenodd;fill-opacity:1;stroke:none;"
     d="  M 184.02506,70.529819   L 184.02506,69.610262   L 169.81425,70.529819   z "
     id="path321" />
  <path
     style="fill:#000000;fill-rule:evenodd;fill-opacity:1;stroke:none;"
     d="  M 184.02506,69.610262   L 169.81425,70.529819   L 169.81425,69.610262   z "
     id="path322" />
  <path
     style="fill:#000000;fill-rule:evenodd;fill-opacity:1;stroke:none;"
     d="  M 169.81425,70.529819   L 169.81425,69.610262   L 169.81425,69.610262   z "
     id="path323" />
  <path
     style="fill:#000000;fill-rule:evenodd;fill-opacity:1;stroke:none;"
     d="  M 116.57376,70.529819   L 116.57376,69.610262   L 98.960365,70.529819   z "
     id="path324" />
  <path
     style="fill:#000000;fill-rule:evenodd;fill-opacity:1;stroke:none;"
     d="  M 116.57376,69.610262   L 98.960365,70.529819   L 98.960365,69.610262   z "
     id="path325" />
  <path
     style="fill:#000000;fill-rule:evenodd;fill-opacity:1;stroke:none;"
     d="  M 92.915768,70.529819   L 92.915768,69.610262   L 77.824291,70.529819   z "
     id="path326" />
  <path
     style="fill:#000000;fill-rule:evenodd;fill-opacity:1;stroke:none;"
     d="  M 92.915768,69.610262   L 77.824291,70.529819   L 77.824291,69.610262   z "
     id="path327" />
  <path
     style="fill:#000000;fill-rule:evenodd;fill-opacity:1;stroke:none;"
     d="  M 71.779694,70.529819   L 71.779694,69.610262   L 54.126269,70.529819   z "
     id="path328" />
  <path
     style="fill:#000000;fill-rule:evenodd;fill-opacity:1;stroke:none;"
     d="  M 71.779694,69.610262   L 54.126269,70.529819   L 54.126269,69.610262   z "
     id="path329" />
  <path
     style="fill:#000000;fill-rule:evenodd;fill-opacity:1;stroke:none;"
     d="  M 54.126269,70.529819   L 54.126269,69.610262   L 54.126269,69.610262   z "
     id="path330" />
</svg>
