<?xml version="1.0" encoding="UTF-8" standalone="no"?>
<svg
   version="1.0"
   width="180.87mm"
   height="46.25mm"
   id="svg176"
   sodipodi:docname="image133.emf"
   xmlns:inkscape="http://www.inkscape.org/namespaces/inkscape"
   xmlns:sodipodi="http://sodipodi.sourceforge.net/DTD/sodipodi-0.dtd"
   xmlns="http://www.w3.org/2000/svg"
   xmlns:svg="http://www.w3.org/2000/svg">
  <sodipodi:namedview
     id="namedview176"
     pagecolor="#ffffff"
     bordercolor="#000000"
     borderopacity="0.25"
     inkscape:showpageshadow="2"
     inkscape:pageopacity="0.0"
     inkscape:pagecheckerboard="0"
     inkscape:deskcolor="#d1d1d1"
     inkscape:document-units="mm" />
  <defs
     id="defs1">
    <pattern
       id="EMFhbasepattern"
       patternUnits="userSpaceOnUse"
       width="6"
       height="6"
       x="0"
       y="0" />
  </defs>
  <path
     style="fill:none;stroke:#000000;stroke-width:0.95926541px;stroke-linecap:round;stroke-linejoin:round;stroke-miterlimit:4;stroke-dasharray:none;stroke-opacity:1;"
     d="  M 9.7229482,62.550825   L 63.122057,62.550825  "
     id="path1" />
  <path
     style="fill:none;stroke:#000000;stroke-width:0.95926541px;stroke-linecap:round;stroke-linejoin:round;stroke-miterlimit:4;stroke-dasharray:none;stroke-opacity:1;"
     d="  M 74.553303,62.550825   L 85.98455,62.550825  "
     id="path2" />
  <path
     style="fill:none;stroke:#000000;stroke-width:0.95926541px;stroke-linecap:round;stroke-linejoin:round;stroke-miterlimit:4;stroke-dasharray:none;stroke-opacity:1;"
     d="  M 97.415796,62.550825   L 150.8149,62.550825  "
     id="path3" />
  <path
     style="fill:none;stroke:#000000;stroke-width:0.95926541px;stroke-linecap:round;stroke-linejoin:round;stroke-miterlimit:4;stroke-dasharray:none;stroke-opacity:1;"
     d="  M 78.989906,10.618744   L 78.989906,48.504281  "
     id="path4" />
  <path
     style="fill:none;stroke:#000000;stroke-width:0.95926541px;stroke-linecap:round;stroke-linejoin:round;stroke-miterlimit:4;stroke-dasharray:none;stroke-opacity:1;"
     d="  M 78.989906,59.982314   L 78.989906,71.460347  "
     id="path5" />
  <path
     style="fill:none;stroke:#000000;stroke-width:0.95926541px;stroke-linecap:round;stroke-linejoin:round;stroke-miterlimit:4;stroke-dasharray:none;stroke-opacity:1;"
     d="  M 78.989906,82.938381   L 78.989906,120.86405  "
     id="path6" />
  <path
     style="fill:none;stroke:#000000;stroke-width:0.95926541px;stroke-linecap:round;stroke-linejoin:round;stroke-miterlimit:4;stroke-dasharray:none;stroke-opacity:1;"
     d="  M 83.426509,12.464862   L 85.624825,19.889463   L 87.823142,12.464862  "
     id="path7" />
  <path
     style="fill:none;stroke:#000000;stroke-width:0.95926541px;stroke-linecap:round;stroke-linejoin:round;stroke-miterlimit:4;stroke-dasharray:none;stroke-opacity:1;"
     d="  M 85.624825,19.889463   L 84.505682,23.059969   L 84.145958,23.581698   L 83.026815,23.581698  "
     id="path8" />
  <path
     style="fill:none;stroke:#000000;stroke-width:0.95926541px;stroke-linecap:round;stroke-linejoin:round;stroke-miterlimit:4;stroke-dasharray:none;stroke-opacity:1;"
     d="  M 0.13029393,65.480533   L 4.207172,58.055931  "
     id="path9" />
  <path
     style="fill:none;stroke:#000000;stroke-width:0.95926541px;stroke-linecap:round;stroke-linejoin:round;stroke-miterlimit:4;stroke-dasharray:none;stroke-opacity:1;"
     d="  M 4.207172,65.480533   L 0.13029393,58.055931  "
     id="path10" />
  <path
     style="fill:none;stroke:#000000;stroke-width:0.95926541px;stroke-linecap:round;stroke-linejoin:round;stroke-miterlimit:4;stroke-dasharray:none;stroke-opacity:1;"
     d="  M 157.6097,65.480533   L 161.68658,58.055931  "
     id="path11" />
  <path
     style="fill:none;stroke:#000000;stroke-width:0.95926541px;stroke-linecap:round;stroke-linejoin:round;stroke-miterlimit:4;stroke-dasharray:none;stroke-opacity:1;"
     d="  M 161.68658,65.480533   L 157.6097,58.055931  "
     id="path12" />
  <path
     style="fill:none;stroke:#000000;stroke-width:0.95926541px;stroke-linecap:round;stroke-linejoin:round;stroke-miterlimit:4;stroke-dasharray:none;stroke-opacity:1;"
     d="  M 13.400132,39.955955   L 61.563251,39.955955  "
     id="path13" />
  <path
     style="fill:none;stroke:#000000;stroke-width:0.95926541px;stroke-linecap:round;stroke-linejoin:round;stroke-miterlimit:4;stroke-dasharray:none;stroke-opacity:1;"
     d="  M 72.994497,39.955955   L 84.385774,39.955955  "
     id="path14" />
  <path
     style="fill:none;stroke:#000000;stroke-width:0.95926541px;stroke-linecap:round;stroke-linejoin:round;stroke-miterlimit:4;stroke-dasharray:none;stroke-opacity:1;"
     d="  M 95.81702,39.955955   L 143.98014,39.955955  "
     id="path15" />
  <path
     style="fill:none;stroke:#000000;stroke-width:0.95926541px;stroke-linecap:round;stroke-linejoin:round;stroke-miterlimit:4;stroke-dasharray:none;stroke-opacity:1;"
     d="  M 83.426509,114.44277   L 85.624825,121.86737   L 87.823142,114.44277  "
     id="path16" />
  <path
     style="fill:none;stroke:#000000;stroke-width:0.95926541px;stroke-linecap:round;stroke-linejoin:round;stroke-miterlimit:4;stroke-dasharray:none;stroke-opacity:1;"
     d="  M 85.624825,121.86737   L 84.505682,125.03788   L 84.145958,125.55961   L 83.026815,125.55961  "
     id="path17" />
  <path
     style="fill:none;stroke:#000000;stroke-width:0.95926541px;stroke-linecap:round;stroke-linejoin:round;stroke-miterlimit:4;stroke-dasharray:none;stroke-opacity:1;"
     d="  M 261.76994,62.550825   L 307.09523,62.550825  "
     id="path18" />
  <path
     style="fill:none;stroke:#000000;stroke-width:0.95926541px;stroke-linecap:round;stroke-linejoin:round;stroke-miterlimit:4;stroke-dasharray:none;stroke-opacity:1;"
     d="  M 318.52648,62.550825   L 329.95772,62.550825  "
     id="path19" />
  <path
     style="fill:none;stroke:#000000;stroke-width:0.95926541px;stroke-linecap:round;stroke-linejoin:round;stroke-miterlimit:4;stroke-dasharray:none;stroke-opacity:1;"
     d="  M 341.38897,62.550825   L 386.71426,62.550825  "
     id="path20" />
  <path
     style="fill:none;stroke:#000000;stroke-width:0.95926541px;stroke-linecap:round;stroke-linejoin:round;stroke-miterlimit:4;stroke-dasharray:none;stroke-opacity:1;"
     d="  M 324.88161,0.14403555   L 324.88161,43.286993  "
     id="path21" />
  <path
     style="fill:none;stroke:#000000;stroke-width:0.95926541px;stroke-linecap:round;stroke-linejoin:round;stroke-miterlimit:4;stroke-dasharray:none;stroke-opacity:1;"
     d="  M 324.88161,54.765026   L 324.88161,66.24306  "
     id="path22" />
  <path
     style="fill:none;stroke:#000000;stroke-width:0.95926541px;stroke-linecap:round;stroke-linejoin:round;stroke-miterlimit:4;stroke-dasharray:none;stroke-opacity:1;"
     d="  M 324.88161,77.721093   L 324.88161,120.86405  "
     id="path23" />
  <path
     style="fill:none;stroke:#000000;stroke-width:0.95926541px;stroke-linecap:round;stroke-linejoin:round;stroke-miterlimit:4;stroke-dasharray:none;stroke-opacity:1;"
     d="  M 329.31821,1.9901528   L 331.51653,9.4147548   L 333.71485,1.9901528  "
     id="path24" />
  <path
     style="fill:none;stroke:#000000;stroke-width:0.95926541px;stroke-linecap:round;stroke-linejoin:round;stroke-miterlimit:4;stroke-dasharray:none;stroke-opacity:1;"
     d="  M 331.51653,9.4147548   L 330.39739,12.58526   L 330.03766,13.106989   L 328.91852,13.106989  "
     id="path25" />
  <path
     style="fill:none;stroke:#000000;stroke-width:0.95926541px;stroke-linecap:round;stroke-linejoin:round;stroke-miterlimit:4;stroke-dasharray:none;stroke-opacity:1;"
     d="  M 252.21725,65.480533   L 256.29413,58.055931  "
     id="path26" />
  <path
     style="fill:none;stroke:#000000;stroke-width:0.95926541px;stroke-linecap:round;stroke-linejoin:round;stroke-miterlimit:4;stroke-dasharray:none;stroke-opacity:1;"
     d="  M 256.29413,65.480533   L 252.21725,58.055931  "
     id="path27" />
  <path
     style="fill:none;stroke:#000000;stroke-width:0.95926541px;stroke-linecap:round;stroke-linejoin:round;stroke-miterlimit:4;stroke-dasharray:none;stroke-opacity:1;"
     d="  M 393.46909,65.480533   L 397.54597,58.055931  "
     id="path28" />
  <path
     style="fill:none;stroke:#000000;stroke-width:0.95926541px;stroke-linecap:round;stroke-linejoin:round;stroke-miterlimit:4;stroke-dasharray:none;stroke-opacity:1;"
     d="  M 397.54597,65.480533   L 393.46909,58.055931  "
     id="path29" />
  <path
     style="fill:none;stroke:#000000;stroke-width:0.95926541px;stroke-linecap:round;stroke-linejoin:round;stroke-miterlimit:4;stroke-dasharray:none;stroke-opacity:1;"
     d="  M 329.31821,114.44277   L 331.51653,121.86737   L 333.71485,114.44277  "
     id="path30" />
  <path
     style="fill:none;stroke:#000000;stroke-width:0.95926541px;stroke-linecap:round;stroke-linejoin:round;stroke-miterlimit:4;stroke-dasharray:none;stroke-opacity:1;"
     d="  M 331.51653,121.86737   L 330.39739,125.03788   L 330.03766,125.55961   L 328.91852,125.55961  "
     id="path31" />
  <path
     style="fill:none;stroke:#000000;stroke-width:0.95926541px;stroke-linecap:round;stroke-linejoin:round;stroke-miterlimit:4;stroke-dasharray:none;stroke-opacity:1;"
     d="  M 521.13133,62.550825   L 581.68496,62.550825  "
     id="path32" />
  <path
     style="fill:none;stroke:#000000;stroke-width:0.95926541px;stroke-linecap:round;stroke-linejoin:round;stroke-miterlimit:4;stroke-dasharray:none;stroke-opacity:1;"
     d="  M 593.07624,62.550825   L 604.50748,62.550825  "
     id="path33" />
  <path
     style="fill:none;stroke:#000000;stroke-width:0.95926541px;stroke-linecap:round;stroke-linejoin:round;stroke-miterlimit:4;stroke-dasharray:none;stroke-opacity:1;"
     d="  M 615.93873,62.550825   L 676.49236,62.550825  "
     id="path34" />
  <path
     style="fill:none;stroke:#000000;stroke-width:0.95926541px;stroke-linecap:round;stroke-linejoin:round;stroke-miterlimit:4;stroke-dasharray:none;stroke-opacity:1;"
     d="  M 574.17071,0.14403555   L 574.17071,43.286993  "
     id="path35" />
  <path
     style="fill:none;stroke:#000000;stroke-width:0.95926541px;stroke-linecap:round;stroke-linejoin:round;stroke-miterlimit:4;stroke-dasharray:none;stroke-opacity:1;"
     d="  M 574.17071,54.765026   L 574.17071,66.24306  "
     id="path36" />
  <path
     style="fill:none;stroke:#000000;stroke-width:0.95926541px;stroke-linecap:round;stroke-linejoin:round;stroke-miterlimit:4;stroke-dasharray:none;stroke-opacity:1;"
     d="  M 574.17071,77.721093   L 574.17071,120.86405  "
     id="path37" />
  <path
     style="fill:none;stroke:#000000;stroke-width:0.95926541px;stroke-linecap:round;stroke-linejoin:round;stroke-miterlimit:4;stroke-dasharray:none;stroke-opacity:1;"
     d="  M 511.53867,65.480533   L 515.61555,58.055931  "
     id="path38" />
  <path
     style="fill:none;stroke:#000000;stroke-width:0.95926541px;stroke-linecap:round;stroke-linejoin:round;stroke-miterlimit:4;stroke-dasharray:none;stroke-opacity:1;"
     d="  M 515.61555,65.480533   L 511.53867,58.055931  "
     id="path39" />
  <path
     style="fill:none;stroke:#000000;stroke-width:0.95926541px;stroke-linecap:round;stroke-linejoin:round;stroke-miterlimit:4;stroke-dasharray:none;stroke-opacity:1;"
     d="  M 578.60732,114.44277   L 580.80563,121.86737   L 583.00395,114.44277  "
     id="path40" />
  <path
     style="fill:none;stroke:#000000;stroke-width:0.95926541px;stroke-linecap:round;stroke-linejoin:round;stroke-miterlimit:4;stroke-dasharray:none;stroke-opacity:1;"
     d="  M 580.80563,121.86737   L 579.68649,125.03788   L 579.32677,125.55961   L 578.20762,125.55961  "
     id="path41" />
  <path
     style="fill:none;stroke:#000000;stroke-width:0.95926541px;stroke-linecap:round;stroke-linejoin:round;stroke-miterlimit:4;stroke-dasharray:none;stroke-opacity:1;"
     d="  M 541.43578,25.909411   L 538.75783,19.448001   L 532.28279,16.759091   L 525.84772,19.448001   L 523.16977,25.909411   L 525.84772,32.410954   L 532.28279,35.099864   L 538.75783,32.410954   L 541.43578,25.909411   z "
     id="path42" />
  <path
     style="fill:none;stroke:#000000;stroke-width:0.95926541px;stroke-linecap:round;stroke-linejoin:round;stroke-miterlimit:4;stroke-dasharray:none;stroke-opacity:1;"
     d="  M 541.43578,99.152106   L 538.75783,92.650563   L 532.28279,89.961653   L 525.84772,92.650563   L 523.16977,99.152106   L 525.84772,105.65365   L 532.28279,108.34256   L 538.75783,105.65365   L 541.43578,99.152106   z "
     id="path43" />
  <path
     style="fill:none;stroke:#000000;stroke-width:0.95926541px;stroke-linecap:round;stroke-linejoin:round;stroke-miterlimit:4;stroke-dasharray:none;stroke-opacity:1;"
     d="  M 654.50919,62.550825   L 651.83124,56.049282   L 645.3562,53.360372   L 638.88116,56.049282   L 636.20321,62.550825   L 638.88116,69.012235   L 645.3562,71.701145   L 651.83124,69.012235   L 654.50919,62.550825   z "
     id="path44" />
  <path
     style="fill:#000000;fill-rule:evenodd;fill-opacity:1;stroke:none;"
     d="  M 585.56199,53.922234   L 585.64193,55.728218   L 585.84178,57.253271   L 586.16153,58.497394   L 586.60119,59.460585   L 587.16077,60.182979   L 587.88022,60.584309   L 588.6796,60.744841   L 588.79951,60.744841   L 589.5989,60.544176   L 590.27838,60.102713   L 590.83795,59.340186   L 588.6796,59.340186   L 588.12003,59.219787   L 587.56046,58.657926   L 587.1208,57.654601   L 586.88098,56.169681   L 586.76107,54.28343   L 590.59813,54.28343   z "
     id="path45" />
  <path
     style="fill:#000000;fill-rule:evenodd;fill-opacity:1;stroke:none;"
     d="  M 586.52126,47.862153   L 586.08159,48.905611   L 585.80181,50.189866   L 585.60196,51.755052   L 585.56199,53.60117   L 585.56199,53.922234   L 590.59813,54.28343   L 590.5182,55.808484   L 590.27838,57.333537   L 589.91865,58.457261   L 589.35908,59.099388   L 588.6796,59.340186   L 590.83795,59.340186   L 591.23764,58.336862   L 591.5574,57.052606   L 591.75725,55.48742   L 591.79722,53.60117   L 591.79722,53.320239   L 586.76107,52.918909   L 586.84101,51.433989   L 587.04086,49.868802   L 587.44055,48.785212   L 587.96015,48.102951   L 588.6796,47.902286   z "
     id="path46" />
  <path
     style="fill:#000000;fill-rule:evenodd;fill-opacity:1;stroke:none;"
     d="  M 588.6796,46.497632   L 588.55969,46.497632   L 587.76031,46.698297   L 587.08083,47.139759   L 586.52126,47.862153   L 588.6796,47.902286   L 589.23917,48.022685   L 589.99859,48.945744   L 590.27838,49.70827   L 590.47823,51.072792   L 590.59813,52.918909   L 586.76107,52.918909   L 591.79722,53.320239   L 591.71728,51.514255   L 591.51743,49.989201   L 591.19767,48.704946   L 590.75801,47.741754   L 590.19844,47.059493   L 589.47899,46.618031   z "
     id="path47" />
  <path
     style="fill:#000000;fill-rule:evenodd;fill-opacity:1;stroke:none;"
     d="  M 585.56199,71.741278   L 585.64193,73.547263   L 585.84178,75.112449   L 586.16153,76.356571   L 586.60119,77.319763   L 587.16077,78.002024   L 587.88022,78.443487   L 588.6796,78.563886   L 588.79951,78.563886   L 589.5989,78.403354   L 590.27838,77.921758   L 590.83795,77.199364   L 588.6796,77.199364   L 588.12003,77.038832   L 587.56046,76.47697   L 587.1208,75.473646   L 586.88098,74.028858   L 586.76107,72.142608   L 590.59813,72.142608   z "
     id="path48" />
  <path
     style="fill:#000000;fill-rule:evenodd;fill-opacity:1;stroke:none;"
     d="  M 586.52126,65.721331   L 586.08159,66.724655   L 585.80181,68.049044   L 585.60196,69.61423   L 585.56199,71.460347   L 585.56199,71.741278   L 590.59813,72.142608   L 590.5182,73.667662   L 590.27838,75.192715   L 589.91865,76.316438   L 589.35908,76.958566   L 588.6796,77.199364   L 590.83795,77.199364   L 591.23764,76.19604   L 591.5574,74.871651   L 591.75725,73.306465   L 591.79722,71.460347   L 591.79722,71.179417   L 586.76107,70.778087   L 586.84101,69.293166   L 587.04086,67.72798   L 587.44055,66.604256   L 587.96015,65.962129   L 588.6796,65.721331   z "
     id="path49" />
  <path
     style="fill:#000000;fill-rule:evenodd;fill-opacity:1;stroke:none;"
     d="  M 588.6796,64.356809   L 588.55969,64.356809   L 587.76031,64.517341   L 587.08083,64.998937   L 586.52126,65.721331   L 588.6796,65.721331   L 589.23917,65.881863   L 589.99859,66.804921   L 590.27838,67.567448   L 590.47823,68.931969   L 590.59813,70.778087   L 586.76107,70.778087   L 591.79722,71.179417   L 591.71728,69.373432   L 591.51743,67.808246   L 591.19767,66.564123   L 590.75801,65.600932   L 590.19844,64.918671   L 589.47899,64.477208   z "
     id="path50" />
  <path
     style="fill:none;stroke:#000000;stroke-width:0.95926541px;stroke-linecap:round;stroke-linejoin:round;stroke-miterlimit:4;stroke-dasharray:none;stroke-opacity:1;"
     d="  M 72.914558,168.7427   L 72.434926,168.10057   L 71.995262,167.21765   L 71.555599,166.01366   L 71.315783,164.80967   L 71.315783,162.88328   L 71.555599,161.5589   L 71.915323,160.47531   L 72.434926,159.39171   L 72.834619,158.86999  "
     id="path51" />
  <path
     style="fill:none;stroke:#000000;stroke-width:0.95926541px;stroke-linecap:round;stroke-linejoin:round;stroke-miterlimit:4;stroke-dasharray:none;stroke-opacity:1;"
     d="  M 72.354987,159.51211   L 71.995262,160.5957   L 71.755446,161.5589   L 71.555599,163.20435   L 71.555599,164.4886   L 71.755446,165.89326   L 71.915323,166.57552   L 72.434926,167.98017  "
     id="path52" />
  <path
     style="fill:none;stroke:#000000;stroke-width:0.95926541px;stroke-linecap:round;stroke-linejoin:round;stroke-miterlimit:4;stroke-dasharray:none;stroke-opacity:1;"
     d="  M 82.307366,160.67597   L 82.307366,168.10057  "
     id="path53" />
  <path
     style="fill:none;stroke:#000000;stroke-width:0.95926541px;stroke-linecap:round;stroke-linejoin:round;stroke-miterlimit:4;stroke-dasharray:none;stroke-opacity:1;"
     d="  M 82.307366,162.28129   L 81.587916,161.23783   L 80.828498,160.67597   L 79.749324,160.67597   L 78.989906,161.23783   L 78.270457,162.28129   L 77.870763,163.88661   L 77.870763,164.93007   L 78.270457,166.53539   L 78.989906,167.57884   L 79.749324,168.10057   L 80.828498,168.10057   L 81.587916,167.57884   L 82.307366,166.53539  "
     id="path54" />
  <path
     style="fill:none;stroke:#000000;stroke-width:0.95926541px;stroke-linecap:round;stroke-linejoin:round;stroke-miterlimit:4;stroke-dasharray:none;stroke-opacity:1;"
     d="  M 87.903081,168.7427   L 88.382713,168.10057   L 88.902315,166.65578   L 89.142132,166.01366   L 89.421917,164.4886   L 89.421917,163.08395   L 89.26204,161.67929   L 88.822377,160.39504   L 88.382713,159.63251   L 87.903081,158.86999  "
     id="path55" />
  <path
     style="fill:none;stroke:#000000;stroke-width:0.95926541px;stroke-linecap:round;stroke-linejoin:round;stroke-miterlimit:4;stroke-dasharray:none;stroke-opacity:1;"
     d="  M 88.382713,159.63251   L 88.822377,160.7161   L 89.062193,161.5589   L 89.182101,163.20435   L 89.182101,164.40834   L 89.062193,165.37153   L 88.822377,166.45512   L 88.382713,168.10057  "
     id="path56" />
  <path
     style="fill:none;stroke:#000000;stroke-width:0.95926541px;stroke-linecap:round;stroke-linejoin:round;stroke-miterlimit:4;stroke-dasharray:none;stroke-opacity:1;"
     d="  M 311.93153,168.54203   L 311.49186,167.85977   L 311.01223,167.01698   L 310.57257,165.81299   L 310.33275,164.609   L 310.33275,162.68262   L 310.57257,161.35823   L 310.93229,160.27464   L 311.49186,159.19105   L 311.85159,158.66932  "
     id="path57" />
  <path
     style="fill:none;stroke:#000000;stroke-width:0.95926541px;stroke-linecap:round;stroke-linejoin:round;stroke-miterlimit:4;stroke-dasharray:none;stroke-opacity:1;"
     d="  M 311.41193,159.31145   L 311.01223,160.39504   L 310.81238,161.35823   L 310.57257,163.00368   L 310.57257,164.28794   L 310.81238,165.69259   L 310.93229,166.37485   L 311.49186,167.77951  "
     id="path58" />
  <path
     style="fill:none;stroke:#000000;stroke-width:0.95926541px;stroke-linecap:round;stroke-linejoin:round;stroke-miterlimit:4;stroke-dasharray:none;stroke-opacity:1;"
     d="  M 316.9277,167.89991   L 316.9277,156.78307  "
     id="path59" />
  <path
     style="fill:none;stroke:#000000;stroke-width:0.95926541px;stroke-linecap:round;stroke-linejoin:round;stroke-miterlimit:4;stroke-dasharray:none;stroke-opacity:1;"
     d="  M 316.9277,162.08062   L 317.64715,160.99703   L 318.40657,160.47531   L 319.48574,160.47531   L 320.24516,160.99703   L 320.96461,162.08062   L 321.32433,163.64581   L 321.32433,164.7294   L 320.96461,166.29459   L 320.24516,167.37818   L 319.48574,167.89991   L 318.40657,167.89991   L 317.64715,167.37818   L 316.9277,166.29459  "
     id="path60" />
  <path
     style="fill:none;stroke:#000000;stroke-width:0.95926541px;stroke-linecap:round;stroke-linejoin:round;stroke-miterlimit:4;stroke-dasharray:none;stroke-opacity:1;"
     d="  M 326.96002,168.54203   L 327.39968,167.85977   L 327.91928,166.45512   L 328.1591,165.81299   L 328.43889,164.28794   L 328.43889,162.88328   L 328.31898,161.47863   L 327.83935,160.19437   L 327.39968,159.43185   L 326.96002,158.66932  "
     id="path61" />
  <path
     style="fill:none;stroke:#000000;stroke-width:0.95926541px;stroke-linecap:round;stroke-linejoin:round;stroke-miterlimit:4;stroke-dasharray:none;stroke-opacity:1;"
     d="  M 327.39968,159.43185   L 327.83935,160.51544   L 328.07916,161.35823   L 328.23904,163.00368   L 328.23904,164.20767   L 328.07916,165.17086   L 327.83935,166.25445   L 327.39968,167.85977  "
     id="path62" />
  <path
     style="fill:none;stroke:#000000;stroke-width:0.95926541px;stroke-linecap:round;stroke-linejoin:round;stroke-miterlimit:4;stroke-dasharray:none;stroke-opacity:1;"
     d="  M 565.73717,164.76953   L 565.25754,164.12741   L 564.81788,163.24448   L 564.37821,162.04049   L 564.1384,160.87663   L 564.1384,158.91012   L 564.37821,157.62586   L 564.73794,156.54227   L 565.25754,155.45868   L 565.65723,154.89682  "
     id="path63" />
  <path
     style="fill:none;stroke:#000000;stroke-width:0.95926541px;stroke-linecap:round;stroke-linejoin:round;stroke-miterlimit:4;stroke-dasharray:none;stroke-opacity:1;"
     d="  M 565.21757,155.53895   L 564.81788,156.62254   L 564.57806,157.62586   L 564.37821,159.23118   L 564.37821,160.55557   L 564.57806,161.96023   L 564.73794,162.60235   L 565.25754,164.00701  "
     id="path64" />
  <path
     style="fill:none;stroke:#000000;stroke-width:0.95926541px;stroke-linecap:round;stroke-linejoin:round;stroke-miterlimit:4;stroke-dasharray:none;stroke-opacity:1;"
     d="  M 575.12998,158.30812   L 574.41053,157.26467   L 573.65111,156.74294   L 572.57194,156.74294   L 571.81252,157.26467   L 571.09307,158.30812   L 570.73335,159.91344   L 570.73335,160.9569   L 571.09307,162.56222   L 571.81252,163.60568   L 572.57194,164.12741   L 573.65111,164.12741   L 574.41053,163.60568   L 575.12998,162.56222  "
     id="path65" />
  <path
     style="fill:none;stroke:#000000;stroke-width:0.95926541px;stroke-linecap:round;stroke-linejoin:round;stroke-miterlimit:4;stroke-dasharray:none;stroke-opacity:1;"
     d="  M 580.36597,164.76953   L 580.8456,164.12741   L 581.3652,162.72275   L 581.60502,162.04049   L 581.88481,160.55557   L 581.88481,159.11078   L 581.72493,157.70613   L 581.28527,156.42187   L 580.8456,155.65935   L 580.36597,154.89682  "
     id="path66" />
  <path
     style="fill:none;stroke:#000000;stroke-width:0.95926541px;stroke-linecap:round;stroke-linejoin:round;stroke-miterlimit:4;stroke-dasharray:none;stroke-opacity:1;"
     d="  M 580.8456,155.65935   L 581.28527,156.74294   L 581.52508,157.62586   L 581.64499,159.23118   L 581.64499,160.43517   L 581.52508,161.39836   L 581.28527,162.48195   L 580.8456,164.12741  "
     id="path67" />
  <path
     style="fill:#000000;fill-rule:evenodd;fill-opacity:1;stroke:none;"
     d="  M 363.13232,95.339473   L 363.13232,93.974951   L 340.26983,95.339473   z "
     id="path68" />
  <path
     style="fill:#000000;fill-rule:evenodd;fill-opacity:1;stroke:none;"
     d="  M 363.13232,93.974951   L 340.26983,95.339473   L 340.26983,93.974951   z "
     id="path69" />
  <path
     style="fill:#000000;fill-rule:evenodd;fill-opacity:1;stroke:none;"
     d="  M 363.8118,71.701145   L 362.41287,71.701145   L 363.8118,94.657212   z "
     id="path70" />
  <path
     style="fill:#000000;fill-rule:evenodd;fill-opacity:1;stroke:none;"
     d="  M 362.41287,71.701145   L 363.8118,94.657212   L 362.41287,94.657212   z "
     id="path71" />
  <path
     style="fill:#000000;fill-rule:evenodd;fill-opacity:1;stroke:none;"
     d="  M 286.67087,93.974951   L 286.67087,95.339473   L 309.49339,93.974951   z "
     id="path72" />
  <path
     style="fill:#000000;fill-rule:evenodd;fill-opacity:1;stroke:none;"
     d="  M 286.67087,95.339473   L 309.49339,93.974951   L 309.49339,95.339473   z "
     id="path73" />
  <path
     style="fill:#000000;fill-rule:evenodd;fill-opacity:1;stroke:none;"
     d="  M 287.35035,71.701145   L 285.95142,71.701145   L 287.35035,94.657212   z "
     id="path74" />
  <path
     style="fill:#000000;fill-rule:evenodd;fill-opacity:1;stroke:none;"
     d="  M 285.95142,71.701145   L 287.35035,94.657212   L 285.95142,94.657212   z "
     id="path75" />
  <path
     style="fill:#000000;fill-rule:evenodd;fill-opacity:1;stroke:none;"
     d="  M 363.13232,31.126699   L 363.13232,29.722044   L 340.26983,31.126699   z "
     id="path76" />
  <path
     style="fill:#000000;fill-rule:evenodd;fill-opacity:1;stroke:none;"
     d="  M 363.13232,29.722044   L 340.26983,31.126699   L 340.26983,29.722044   z "
     id="path77" />
  <path
     style="fill:#000000;fill-rule:evenodd;fill-opacity:1;stroke:none;"
     d="  M 362.41287,53.360372   L 363.8118,53.360372   L 362.41287,30.404305   z "
     id="path78" />
  <path
     style="fill:#000000;fill-rule:evenodd;fill-opacity:1;stroke:none;"
     d="  M 363.8118,53.360372   L 362.41287,30.404305   L 363.8118,30.404305   z "
     id="path79" />
  <path
     style="fill:#000000;fill-rule:evenodd;fill-opacity:1;stroke:none;"
     d="  M 286.67087,29.722044   L 286.67087,31.126699   L 309.49339,29.722044   z "
     id="path80" />
  <path
     style="fill:#000000;fill-rule:evenodd;fill-opacity:1;stroke:none;"
     d="  M 286.67087,31.126699   L 309.49339,29.722044   L 309.49339,31.126699   z "
     id="path81" />
  <path
     style="fill:#000000;fill-rule:evenodd;fill-opacity:1;stroke:none;"
     d="  M 285.95142,53.360372   L 287.35035,53.360372   L 285.95142,30.404305   z "
     id="path82" />
  <path
     style="fill:#000000;fill-rule:evenodd;fill-opacity:1;stroke:none;"
     d="  M 287.35035,53.360372   L 285.95142,30.404305   L 287.35035,30.404305   z "
     id="path83" />
  <path
     style="fill:#000000;fill-rule:evenodd;fill-opacity:1;stroke:none;"
     d="  M 126.75333,71.50048   L 125.3544,71.50048   L 126.75333,92.008435   z "
     id="path84" />
  <path
     style="fill:#000000;fill-rule:evenodd;fill-opacity:1;stroke:none;"
     d="  M 125.3544,71.50048   L 126.75333,92.008435   L 125.3544,92.008435   z "
     id="path85" />
  <path
     style="fill:#000000;fill-rule:evenodd;fill-opacity:1;stroke:none;"
     d="  M 31.905961,91.326174   L 31.905961,92.690696   L 126.07385,91.326174   z "
     id="path86" />
  <path
     style="fill:#000000;fill-rule:evenodd;fill-opacity:1;stroke:none;"
     d="  M 31.905961,92.690696   L 126.07385,91.326174   L 126.07385,92.690696   z "
     id="path87" />
  <path
     style="fill:#000000;fill-rule:evenodd;fill-opacity:1;stroke:none;"
     d="  M 32.62541,71.50048   L 31.226482,71.50048   L 32.62541,92.008435   z "
     id="path88" />
  <path
     style="fill:#000000;fill-rule:evenodd;fill-opacity:1;stroke:none;"
     d="  M 31.226482,71.50048   L 32.62541,92.008435   L 31.226482,92.008435   z "
     id="path89" />
  <path
     style="fill:#000000;fill-rule:evenodd;fill-opacity:1;stroke:none;"
     d="  M 125.3544,53.60117   L 126.75333,53.60117   L 125.3544,33.093215   z "
     id="path90" />
  <path
     style="fill:#000000;fill-rule:evenodd;fill-opacity:1;stroke:none;"
     d="  M 126.75333,53.60117   L 125.3544,33.093215   L 126.75333,33.093215   z "
     id="path91" />
  <path
     style="fill:#000000;fill-rule:evenodd;fill-opacity:1;stroke:none;"
     d="  M 31.905961,32.370821   L 31.905961,33.775476   L 126.07385,32.370821   z "
     id="path92" />
  <path
     style="fill:#000000;fill-rule:evenodd;fill-opacity:1;stroke:none;"
     d="  M 31.905961,33.775476   L 126.07385,32.370821   L 126.07385,33.775476   z "
     id="path93" />
  <path
     style="fill:#000000;fill-rule:evenodd;fill-opacity:1;stroke:none;"
     d="  M 31.226482,53.60117   L 32.62541,53.60117   L 31.226482,33.093215   z "
     id="path94" />
  <path
     style="fill:#000000;fill-rule:evenodd;fill-opacity:1;stroke:none;"
     d="  M 32.62541,53.60117   L 31.226482,33.093215   L 32.62541,33.093215   z "
     id="path95" />
  <path
     style="fill:#000000;fill-rule:evenodd;fill-opacity:1;stroke:none;"
     d="  M 25.950522,85.105562   L 26.630001,85.105562   L 25.950522,40.95928   z "
     id="path96" />
  <path
     style="fill:#000000;fill-rule:evenodd;fill-opacity:1;stroke:none;"
     d="  M 26.630001,85.105562   L 25.950522,40.95928   L 26.630001,40.95928   z "
     id="path97" />
  <path
     style="fill:#000000;fill-rule:evenodd;fill-opacity:1;stroke:none;"
     d="  M 131.34981,85.105562   L 132.06926,85.105562   L 131.34981,40.95928   z "
     id="path98" />
  <path
     style="fill:#000000;fill-rule:evenodd;fill-opacity:1;stroke:none;"
     d="  M 132.06926,85.105562   L 131.34981,40.95928   L 132.06926,40.95928   z "
     id="path99" />
  <path
     style="fill:#000000;fill-rule:evenodd;fill-opacity:1;stroke:none;"
     d="  M 367.36908,87.353009   L 368.04855,87.353009   L 367.36908,37.347311   z "
     id="path100" />
  <path
     style="fill:#000000;fill-rule:evenodd;fill-opacity:1;stroke:none;"
     d="  M 368.04855,87.353009   L 367.36908,37.347311   L 368.04855,37.347311   z "
     id="path101" />
  <path
     style="fill:#000000;fill-rule:evenodd;fill-opacity:1;stroke:none;"
     d="  M 281.71467,87.473408   L 282.39415,87.473408   L 281.71467,37.547976   z "
     id="path102" />
  <path
     style="fill:#000000;fill-rule:evenodd;fill-opacity:1;stroke:none;"
     d="  M 282.39415,87.473408   L 281.71467,37.547976   L 282.39415,37.547976   z "
     id="path103" />
  <path
     style="fill:#000000;fill-rule:evenodd;fill-opacity:1;stroke:none;"
     d="  M 294.66475,25.467948   L 294.66475,26.190342   L 355.93783,25.467948   z "
     id="path104" />
  <path
     style="fill:#000000;fill-rule:evenodd;fill-opacity:1;stroke:none;"
     d="  M 294.66475,26.190342   L 355.93783,25.467948   L 355.93783,26.190342   z "
     id="path105" />
  <path
     style="fill:#000000;fill-rule:evenodd;fill-opacity:1;stroke:none;"
     d="  M 294.66475,98.911308   L 294.66475,99.593569   L 355.93783,98.911308   z "
     id="path106" />
  <path
     style="fill:#000000;fill-rule:evenodd;fill-opacity:1;stroke:none;"
     d="  M 294.66475,99.593569   L 355.93783,98.911308   L 355.93783,99.593569   z "
     id="path107" />
  <path
     style="fill:#000000;fill-rule:evenodd;fill-opacity:1;stroke:none;"
     d="  M 532.64251,35.099864   L 531.96303,35.099864   L 532.64251,89.961653   z "
     id="path108" />
  <path
     style="fill:#000000;fill-rule:evenodd;fill-opacity:1;stroke:none;"
     d="  M 531.96303,35.099864   L 532.64251,89.961653   L 531.96303,89.961653   z "
     id="path109" />
  <path
     style="fill:#000000;fill-rule:evenodd;fill-opacity:1;stroke:none;"
     d="  M 541.11603,28.397656   L 540.87621,29.079917   L 636.76278,59.380319   z "
     id="path110" />
  <path
     style="fill:#000000;fill-rule:evenodd;fill-opacity:1;stroke:none;"
     d="  M 540.87621,29.079917   L 636.76278,59.380319   L 636.56294,60.06258   z "
     id="path111" />
  <path
     style="fill:#000000;fill-rule:evenodd;fill-opacity:1;stroke:none;"
     d="  M 636.76278,65.681198   L 636.56294,65.03907   L 541.11603,96.663861   z "
     id="path112" />
  <path
     style="fill:#000000;fill-rule:evenodd;fill-opacity:1;stroke:none;"
     d="  M 636.56294,65.03907   L 541.11603,96.663861   L 540.87621,96.021733   z "
     id="path113" />
  <path
     style="fill:#000000;fill-rule:evenodd;fill-opacity:1;stroke:none;"
     d="  M 522.49029,25.909411   L 523.84925,25.909411   L 525.36808,32.89255   z "
     id="path114" />
  <path
     style="fill:#000000;fill-rule:evenodd;fill-opacity:1;stroke:none;"
     d="  M 523.84925,25.909411   L 525.36808,32.89255   L 526.32735,31.929359   z "
     id="path115" />
  <path
     style="fill:#000000;fill-rule:evenodd;fill-opacity:1;stroke:none;"
     d="  M 525.36808,32.89255   L 526.32735,31.929359   L 532.28279,35.782125   z "
     id="path116" />
  <path
     style="fill:#000000;fill-rule:evenodd;fill-opacity:1;stroke:none;"
     d="  M 526.32735,31.929359   L 532.28279,35.782125   L 532.28279,34.417604   z "
     id="path117" />
  <path
     style="fill:#000000;fill-rule:evenodd;fill-opacity:1;stroke:none;"
     d="  M 532.28279,35.782125   L 532.28279,34.417604   L 539.23746,32.89255   z "
     id="path118" />
  <path
     style="fill:#000000;fill-rule:evenodd;fill-opacity:1;stroke:none;"
     d="  M 532.28279,34.417604   L 539.23746,32.89255   L 538.2782,31.929359   z "
     id="path119" />
  <path
     style="fill:#000000;fill-rule:evenodd;fill-opacity:1;stroke:none;"
     d="  M 539.23746,32.89255   L 538.2782,31.929359   L 542.11526,25.909411   z "
     id="path120" />
  <path
     style="fill:#000000;fill-rule:evenodd;fill-opacity:1;stroke:none;"
     d="  M 538.2782,31.929359   L 542.11526,25.909411   L 540.7563,25.909411   z "
     id="path121" />
  <path
     style="fill:#000000;fill-rule:evenodd;fill-opacity:1;stroke:none;"
     d="  M 542.11526,25.909411   L 540.7563,25.909411   L 539.23746,18.926272   z "
     id="path122" />
  <path
     style="fill:#000000;fill-rule:evenodd;fill-opacity:1;stroke:none;"
     d="  M 540.7563,25.909411   L 539.23746,18.926272   L 538.2782,19.929596   z "
     id="path123" />
  <path
     style="fill:#000000;fill-rule:evenodd;fill-opacity:1;stroke:none;"
     d="  M 539.23746,18.926272   L 538.2782,19.929596   L 532.28279,16.036697   z "
     id="path124" />
  <path
     style="fill:#000000;fill-rule:evenodd;fill-opacity:1;stroke:none;"
     d="  M 538.2782,19.929596   L 532.28279,16.036697   L 532.28279,17.441351   z "
     id="path125" />
  <path
     style="fill:#000000;fill-rule:evenodd;fill-opacity:1;stroke:none;"
     d="  M 532.28279,16.036697   L 532.28279,17.441351   L 525.36808,18.926272   z "
     id="path126" />
  <path
     style="fill:#000000;fill-rule:evenodd;fill-opacity:1;stroke:none;"
     d="  M 532.28279,17.441351   L 525.36808,18.926272   L 526.32735,19.929596   z "
     id="path127" />
  <path
     style="fill:#000000;fill-rule:evenodd;fill-opacity:1;stroke:none;"
     d="  M 525.36808,18.926272   L 526.32735,19.929596   L 522.49029,25.909411   z "
     id="path128" />
  <path
     style="fill:#000000;fill-rule:evenodd;fill-opacity:1;stroke:none;"
     d="  M 526.32735,19.929596   L 522.49029,25.909411   L 523.84925,25.909411   z "
     id="path129" />
  <path
     style="fill:#000000;fill-rule:evenodd;fill-opacity:1;stroke:none;"
     d="  M 522.49029,99.152106   L 523.84925,99.152106   L 525.36808,106.13525   z "
     id="path130" />
  <path
     style="fill:#000000;fill-rule:evenodd;fill-opacity:1;stroke:none;"
     d="  M 523.84925,99.152106   L 525.36808,106.13525   L 526.32735,105.17205   z "
     id="path131" />
  <path
     style="fill:#000000;fill-rule:evenodd;fill-opacity:1;stroke:none;"
     d="  M 525.36808,106.13525   L 526.32735,105.17205   L 532.28279,109.02482   z "
     id="path132" />
  <path
     style="fill:#000000;fill-rule:evenodd;fill-opacity:1;stroke:none;"
     d="  M 526.32735,105.17205   L 532.28279,109.02482   L 532.28279,107.6603   z "
     id="path133" />
  <path
     style="fill:#000000;fill-rule:evenodd;fill-opacity:1;stroke:none;"
     d="  M 532.28279,109.02482   L 532.28279,107.6603   L 539.23746,106.13525   z "
     id="path134" />
  <path
     style="fill:#000000;fill-rule:evenodd;fill-opacity:1;stroke:none;"
     d="  M 532.28279,107.6603   L 539.23746,106.13525   L 538.2782,105.17205   z "
     id="path135" />
  <path
     style="fill:#000000;fill-rule:evenodd;fill-opacity:1;stroke:none;"
     d="  M 539.23746,106.13525   L 538.2782,105.17205   L 542.11526,99.152106   z "
     id="path136" />
  <path
     style="fill:#000000;fill-rule:evenodd;fill-opacity:1;stroke:none;"
     d="  M 538.2782,105.17205   L 542.11526,99.152106   L 540.7563,99.152106   z "
     id="path137" />
  <path
     style="fill:#000000;fill-rule:evenodd;fill-opacity:1;stroke:none;"
     d="  M 542.11526,99.152106   L 540.7563,99.152106   L 539.23746,92.168967   z "
     id="path138" />
  <path
     style="fill:#000000;fill-rule:evenodd;fill-opacity:1;stroke:none;"
     d="  M 540.7563,99.152106   L 539.23746,92.168967   L 538.2782,93.132159   z "
     id="path139" />
  <path
     style="fill:#000000;fill-rule:evenodd;fill-opacity:1;stroke:none;"
     d="  M 539.23746,92.168967   L 538.2782,93.132159   L 532.28279,89.279392   z "
     id="path140" />
  <path
     style="fill:#000000;fill-rule:evenodd;fill-opacity:1;stroke:none;"
     d="  M 538.2782,93.132159   L 532.28279,89.279392   L 532.28279,90.643914   z "
     id="path141" />
  <path
     style="fill:#000000;fill-rule:evenodd;fill-opacity:1;stroke:none;"
     d="  M 532.28279,89.279392   L 532.28279,90.643914   L 525.36808,92.168967   z "
     id="path142" />
  <path
     style="fill:#000000;fill-rule:evenodd;fill-opacity:1;stroke:none;"
     d="  M 532.28279,90.643914   L 525.36808,92.168967   L 526.32735,93.132159   z "
     id="path143" />
  <path
     style="fill:#000000;fill-rule:evenodd;fill-opacity:1;stroke:none;"
     d="  M 525.36808,92.168967   L 526.32735,93.132159   L 522.49029,99.152106   z "
     id="path144" />
  <path
     style="fill:#000000;fill-rule:evenodd;fill-opacity:1;stroke:none;"
     d="  M 526.32735,93.132159   L 522.49029,99.152106   L 523.84925,99.152106   z "
     id="path145" />
  <path
     style="fill:#000000;fill-rule:evenodd;fill-opacity:1;stroke:none;"
     d="  M 635.52373,62.550825   L 636.92266,62.550825   L 638.40153,69.533964   z "
     id="path146" />
  <path
     style="fill:#000000;fill-rule:evenodd;fill-opacity:1;stroke:none;"
     d="  M 636.92266,62.550825   L 638.40153,69.533964   L 639.36079,68.53064   z "
     id="path147" />
  <path
     style="fill:#000000;fill-rule:evenodd;fill-opacity:1;stroke:none;"
     d="  M 638.40153,69.533964   L 639.36079,68.53064   L 645.3562,72.423539   z "
     id="path148" />
  <path
     style="fill:#000000;fill-rule:evenodd;fill-opacity:1;stroke:none;"
     d="  M 639.36079,68.53064   L 645.3562,72.423539   L 645.3562,71.018885   z "
     id="path149" />
  <path
     style="fill:#000000;fill-rule:evenodd;fill-opacity:1;stroke:none;"
     d="  M 645.3562,72.423539   L 645.3562,71.018885   L 652.31088,69.533964   z "
     id="path150" />
  <path
     style="fill:#000000;fill-rule:evenodd;fill-opacity:1;stroke:none;"
     d="  M 645.3562,71.018885   L 652.31088,69.533964   L 651.31164,68.53064   z "
     id="path151" />
  <path
     style="fill:#000000;fill-rule:evenodd;fill-opacity:1;stroke:none;"
     d="  M 652.31088,69.533964   L 651.31164,68.53064   L 655.18867,62.550825   z "
     id="path152" />
  <path
     style="fill:#000000;fill-rule:evenodd;fill-opacity:1;stroke:none;"
     d="  M 651.31164,68.53064   L 655.18867,62.550825   L 653.78974,62.550825   z "
     id="path153" />
  <path
     style="fill:#000000;fill-rule:evenodd;fill-opacity:1;stroke:none;"
     d="  M 655.18867,62.550825   L 653.78974,62.550825   L 652.31088,55.567686   z "
     id="path154" />
  <path
     style="fill:#000000;fill-rule:evenodd;fill-opacity:1;stroke:none;"
     d="  M 653.78974,62.550825   L 652.31088,55.567686   L 651.31164,56.530878   z "
     id="path155" />
  <path
     style="fill:#000000;fill-rule:evenodd;fill-opacity:1;stroke:none;"
     d="  M 652.31088,55.567686   L 651.31164,56.530878   L 645.3562,52.678111   z "
     id="path156" />
  <path
     style="fill:#000000;fill-rule:evenodd;fill-opacity:1;stroke:none;"
     d="  M 651.31164,56.530878   L 645.3562,52.678111   L 645.3562,54.042633   z "
     id="path157" />
  <path
     style="fill:#000000;fill-rule:evenodd;fill-opacity:1;stroke:none;"
     d="  M 645.3562,52.678111   L 645.3562,54.042633   L 638.40153,55.567686   z "
     id="path158" />
  <path
     style="fill:#000000;fill-rule:evenodd;fill-opacity:1;stroke:none;"
     d="  M 645.3562,54.042633   L 638.40153,55.567686   L 639.36079,56.530878   z "
     id="path159" />
  <path
     style="fill:#000000;fill-rule:evenodd;fill-opacity:1;stroke:none;"
     d="  M 638.40153,55.567686   L 639.36079,56.530878   L 635.52373,62.550825   z "
     id="path160" />
  <path
     style="fill:#000000;fill-rule:evenodd;fill-opacity:1;stroke:none;"
     d="  M 639.36079,56.530878   L 635.52373,62.550825   L 636.92266,62.550825   z "
     id="path161" />
  <path
     style="fill:none;stroke:#000000;stroke-width:0.95926541px;stroke-linecap:round;stroke-linejoin:round;stroke-miterlimit:4;stroke-dasharray:none;stroke-opacity:1;"
     d="  M 7.0050295,35.942657   L 7.764448,35.380795   L 8.8436216,33.815609   L 8.8436216,44.932445  "
     id="path162" />
  <path
     style="fill:none;stroke:#000000;stroke-width:0.95926541px;stroke-linecap:round;stroke-linejoin:round;stroke-miterlimit:4;stroke-dasharray:none;stroke-opacity:1;"
     d="  M 151.53435,35.942657   L 152.2538,35.380795   L 153.37295,33.815609   L 153.37295,44.932445  "
     id="path163" />
  <path
     style="fill:none;stroke:#000000;stroke-width:0.95926541px;stroke-linecap:round;stroke-linejoin:round;stroke-miterlimit:4;stroke-dasharray:none;stroke-opacity:1;"
     d="  M 337.59188,12.625393   L 380.03937,55.286755  "
     id="path164" />
  <path
     style="fill:none;stroke:#000000;stroke-width:0.95926541px;stroke-linecap:round;stroke-linejoin:round;stroke-miterlimit:4;stroke-dasharray:none;stroke-opacity:1;"
     d="  M 342.22833,3.1540093   L 343.10765,3.3145413   L 345.02618,2.9934774   L 337.19218,10.859542  "
     id="path165" />
  <path
     style="fill:none;stroke:#000000;stroke-width:0.95926541px;stroke-linecap:round;stroke-linejoin:round;stroke-miterlimit:4;stroke-dasharray:none;stroke-opacity:1;"
     d="  M 387.47368,48.825345   L 388.35301,48.985877   L 390.27154,48.62468   L 382.43754,56.490745  "
     id="path166" />
  <path
     style="fill:none;stroke:#000000;stroke-width:0.95926541px;stroke-linecap:round;stroke-linejoin:round;stroke-miterlimit:4;stroke-dasharray:none;stroke-opacity:1;"
     d="  M 602.50901,39.07303   L 600.51054,43.206727  "
     id="path167" />
  <path
     style="fill:none;stroke:#000000;stroke-width:0.95926541px;stroke-linecap:round;stroke-linejoin:round;stroke-miterlimit:4;stroke-dasharray:none;stroke-opacity:1;"
     d="  M 596.75342,67.125985   L 597.39293,71.661012  "
     id="path168" />
  <path
     style="fill:none;stroke:#000000;stroke-width:0.95926541px;stroke-linecap:round;stroke-linejoin:round;stroke-miterlimit:4;stroke-dasharray:none;stroke-opacity:1;"
     d="  M 598.91177,47.500956   L 596.55357,62.550825  "
     id="path169" />
  <path
     style="fill:#000000;fill-rule:evenodd;fill-opacity:1;stroke:none;"
     d="  M 601.22999,43.447525   L 599.79109,42.925796   L 598.91177,47.500956   z "
     id="path170" />
  <path
     style="fill:#000000;fill-rule:evenodd;fill-opacity:1;stroke:none;"
     d="  M 595.994,67.166118   L 597.51284,67.085852   L 596.55357,62.550825   z "
     id="path171" />
  <path
     style="fill:none;stroke:#000000;stroke-width:0.95926541px;stroke-linecap:round;stroke-linejoin:round;stroke-miterlimit:4;stroke-dasharray:none;stroke-opacity:1;"
     d="  M 597.4329,53.400505   L 596.79339,57.935532  "
     id="path172" />
  <path
     style="fill:none;stroke:#000000;stroke-width:0.95926541px;stroke-linecap:round;stroke-linejoin:round;stroke-miterlimit:4;stroke-dasharray:none;stroke-opacity:1;"
     d="  M 600.51054,81.85479   L 602.50901,85.988488  "
     id="path173" />
  <path
     style="fill:none;stroke:#000000;stroke-width:0.95926541px;stroke-linecap:round;stroke-linejoin:round;stroke-miterlimit:4;stroke-dasharray:none;stroke-opacity:1;"
     d="  M 596.59354,62.550825   L 598.91177,77.560561  "
     id="path174" />
  <path
     style="fill:#000000;fill-rule:evenodd;fill-opacity:1;stroke:none;"
     d="  M 597.55281,57.975665   L 596.03397,57.895399   L 596.59354,62.550825   z "
     id="path175" />
  <path
     style="fill:#000000;fill-rule:evenodd;fill-opacity:1;stroke:none;"
     d="  M 599.83106,82.135721   L 601.22999,81.613992   L 598.91177,77.560561   z "
     id="path176" />
</svg>
