<?xml version="1.0" encoding="UTF-8" standalone="no"?>
<svg
   version="1.0"
   width="158.03mm"
   height="118.17mm"
   id="svg331"
   sodipodi:docname="image833.emf"
   xmlns:inkscape="http://www.inkscape.org/namespaces/inkscape"
   xmlns:sodipodi="http://sodipodi.sourceforge.net/DTD/sodipodi-0.dtd"
   xmlns="http://www.w3.org/2000/svg"
   xmlns:svg="http://www.w3.org/2000/svg">
  <sodipodi:namedview
     id="namedview331"
     pagecolor="#ffffff"
     bordercolor="#000000"
     borderopacity="0.25"
     inkscape:showpageshadow="2"
     inkscape:pageopacity="0.0"
     inkscape:pagecheckerboard="0"
     inkscape:deskcolor="#d1d1d1"
     inkscape:document-units="mm" />
  <defs
     id="defs1">
    <pattern
       id="EMFhbasepattern"
       patternUnits="userSpaceOnUse"
       width="6"
       height="6"
       x="0"
       y="0" />
  </defs>
  <path
     style="fill:none;stroke:#000000;stroke-width:0.95981574px;stroke-linecap:round;stroke-linejoin:round;stroke-miterlimit:4;stroke-dasharray:none;stroke-opacity:1;"
     d="  M 571.96997,326.3826   L 571.96997,219.19132   L 552.97362,213.105   L 591.00632,202.73424   L 571.96997,196.64792   L 571.96997,89.456637  "
     id="path1" />
  <path
     style="fill:none;stroke:#000000;stroke-width:0.95981574px;stroke-linecap:round;stroke-linejoin:round;stroke-miterlimit:4;stroke-dasharray:none;stroke-opacity:1;"
     d="  M 191.44303,113.6017   L 191.44303,70.957432  "
     id="path2" />
  <path
     style="fill:none;stroke:#000000;stroke-width:0.95981574px;stroke-linecap:round;stroke-linejoin:round;stroke-miterlimit:4;stroke-dasharray:none;stroke-opacity:1;"
     d="  M 195.7622,113.6017   L 195.7622,70.957432  "
     id="path3" />
  <path
     style="fill:none;stroke:#000000;stroke-width:0.95981574px;stroke-linecap:round;stroke-linejoin:round;stroke-miterlimit:4;stroke-dasharray:none;stroke-opacity:1;"
     d="  M 191.44303,79.606411   L 182.80469,79.606411  "
     id="path4" />
  <path
     style="fill:none;stroke:#000000;stroke-width:0.95981574px;stroke-linecap:round;stroke-linejoin:round;stroke-miterlimit:4;stroke-dasharray:none;stroke-opacity:1;"
     d="  M 195.7622,79.606411   L 204.40054,79.606411  "
     id="path5" />
  <path
     style="fill:none;stroke:#000000;stroke-width:0.95981574px;stroke-linecap:round;stroke-linejoin:round;stroke-miterlimit:4;stroke-dasharray:none;stroke-opacity:1;"
     d="  M 149.01118,52.978768   L 149.01118,51.977728   L 149.69104,49.97565   L 150.41091,48.974611   L 151.81064,47.973572   L 154.6101,47.973572   L 156.00983,48.974611   L 156.6897,49.97565   L 157.36957,51.977728   L 157.36957,53.979807   L 156.6897,55.981885   L 155.28997,58.985003   L 148.33131,68.955354   L 158.08943,68.955354  "
     id="path6" />
  <path
     style="fill:none;stroke:#000000;stroke-width:0.95981574px;stroke-linecap:round;stroke-linejoin:round;stroke-miterlimit:4;stroke-dasharray:none;stroke-opacity:1;"
     d="  M 162.28863,62.949118   L 162.28863,60.94704   L 162.9685,57.983964   L 164.36823,56.982925   L 165.76796,56.982925   L 167.16769,57.983964   L 169.96715,60.94704   L 171.36688,61.948079   L 172.76661,61.948079   L 174.12635,60.94704   L 174.84622,58.985003   L 174.84622,56.982925  "
     id="path7" />
  <path
     style="fill:none;stroke:#000000;stroke-width:0.95981574px;stroke-linecap:round;stroke-linejoin:round;stroke-miterlimit:4;stroke-dasharray:none;stroke-opacity:1;"
     d="  M 188.80354,50.976689   L 188.12367,48.974611   L 186.00407,47.973572   L 184.60434,47.973572   L 182.52474,48.974611   L 181.12501,51.977728   L 180.44514,56.982925   L 180.44514,61.948079   L 181.12501,65.952236   L 182.52474,67.954314   L 184.60434,68.955354   L 185.3242,68.955354   L 187.4038,67.954314   L 188.80354,65.952236   L 189.5234,62.949118   L 189.5234,61.948079   L 188.80354,58.985003   L 187.4038,56.982925   L 185.3242,55.981885   L 184.60434,55.981885   L 182.52474,56.982925   L 181.12501,58.985003   L 180.44514,61.948079  "
     id="path8" />
  <path
     style="fill:none;stroke:#000000;stroke-width:0.95981574px;stroke-linecap:round;stroke-linejoin:round;stroke-miterlimit:4;stroke-dasharray:none;stroke-opacity:1;"
     d="  M 191.44303,79.606411   L 195.7622,79.606411  "
     id="path9" />
  <path
     style="fill:#000000;fill-rule:evenodd;fill-opacity:1;stroke:none;"
     d="  M 183.8045,84.211191   L 186.84391,87.254351   L 196.04215,71.958471   z "
     id="path10" />
  <path
     style="fill:#000000;fill-rule:evenodd;fill-opacity:1;stroke:none;"
     d="  M 186.84391,87.254351   L 196.04215,71.958471   L 199.08156,75.041672   z "
     id="path11" />
  <path
     style="fill:#000000;fill-rule:evenodd;fill-opacity:1;stroke:none;"
     d="  M 203.40073,75.041672   L 200.36132,71.958471   L 191.16308,87.254351   z "
     id="path12" />
  <path
     style="fill:#000000;fill-rule:evenodd;fill-opacity:1;stroke:none;"
     d="  M 200.36132,71.958471   L 191.16308,87.254351   L 188.12367,84.211191   z "
     id="path13" />
  <path
     style="fill:none;stroke:#000000;stroke-width:0.95981574px;stroke-linecap:round;stroke-linejoin:round;stroke-miterlimit:4;stroke-dasharray:none;stroke-opacity:1;"
     d="  M 195.7622,113.6017   L 195.7622,70.957432  "
     id="path14" />
  <path
     style="fill:none;stroke:#000000;stroke-width:0.95981574px;stroke-linecap:round;stroke-linejoin:round;stroke-miterlimit:4;stroke-dasharray:none;stroke-opacity:1;"
     d="  M 208.71971,100.62823   L 208.71971,70.957432  "
     id="path15" />
  <path
     style="fill:none;stroke:#000000;stroke-width:0.95981574px;stroke-linecap:round;stroke-linejoin:round;stroke-miterlimit:4;stroke-dasharray:none;stroke-opacity:1;"
     d="  M 195.7622,79.606411   L 187.12386,79.606411  "
     id="path16" />
  <path
     style="fill:none;stroke:#000000;stroke-width:0.95981574px;stroke-linecap:round;stroke-linejoin:round;stroke-miterlimit:4;stroke-dasharray:none;stroke-opacity:1;"
     d="  M 208.71971,79.606411   L 217.35805,79.606411  "
     id="path17" />
  <path
     style="fill:none;stroke:#000000;stroke-width:0.95981574px;stroke-linecap:round;stroke-linejoin:round;stroke-miterlimit:4;stroke-dasharray:none;stroke-opacity:1;"
     d="  M 211.79912,51.977728   L 213.19885,50.976689   L 215.27845,47.973572   L 215.27845,68.955354  "
     id="path18" />
  <path
     style="fill:none;stroke:#000000;stroke-width:0.95981574px;stroke-linecap:round;stroke-linejoin:round;stroke-miterlimit:4;stroke-dasharray:none;stroke-opacity:1;"
     d="  M 226.43631,47.973572   L 224.35671,48.974611   L 223.63685,50.976689   L 223.63685,52.978768   L 224.35671,54.980846   L 225.75644,55.981885   L 228.5559,56.982925   L 230.6355,57.983964   L 232.03524,59.946001   L 232.71511,61.948079   L 232.71511,64.951197   L 232.03524,66.953275   L 231.31537,67.954314   L 229.23577,68.955354   L 226.43631,68.955354   L 224.35671,67.954314   L 223.63685,66.953275   L 222.95698,64.951197   L 222.95698,61.948079   L 223.63685,59.946001   L 225.03658,57.983964   L 227.15617,56.982925   L 229.95564,55.981885   L 231.31537,54.980846   L 232.03524,52.978768   L 232.03524,50.976689   L 231.31537,48.974611   L 229.23577,47.973572   L 226.43631,47.973572   z "
     id="path19" />
  <path
     style="fill:none;stroke:#000000;stroke-width:0.95981574px;stroke-linecap:round;stroke-linejoin:round;stroke-miterlimit:4;stroke-dasharray:none;stroke-opacity:1;"
     d="  M 236.9143,62.949118   L 236.9143,60.94704   L 237.63416,57.983964   L 238.9939,56.982925   L 240.39363,56.982925   L 241.79336,57.983964   L 244.59283,60.94704   L 245.99256,61.948079   L 247.39229,61.948079   L 248.79202,60.94704   L 249.47189,58.985003   L 249.47189,56.982925  "
     id="path20" />
  <path
     style="fill:none;stroke:#000000;stroke-width:0.95981574px;stroke-linecap:round;stroke-linejoin:round;stroke-miterlimit:4;stroke-dasharray:none;stroke-opacity:1;"
     d="  M 257.87028,51.977728   L 259.27001,50.976689   L 261.34961,47.973572   L 261.34961,68.955354  "
     id="path21" />
  <path
     style="fill:none;stroke:#000000;stroke-width:0.95981574px;stroke-linecap:round;stroke-linejoin:round;stroke-miterlimit:4;stroke-dasharray:none;stroke-opacity:1;"
     d="  M 270.42787,47.973572   L 278.10639,47.973572   L 273.9072,55.981885   L 276.02679,55.981885   L 277.42652,56.982925   L 278.10639,57.983964   L 278.82625,60.94704   L 278.82625,62.949118   L 278.10639,65.952236   L 276.70666,67.954314   L 274.62706,68.955354   L 272.50747,68.955354   L 270.42787,67.954314   L 269.748,66.953275   L 269.02813,64.951197  "
     id="path22" />
  <path
     style="fill:none;stroke:#000000;stroke-width:0.95981574px;stroke-linecap:round;stroke-linejoin:round;stroke-miterlimit:4;stroke-dasharray:none;stroke-opacity:1;"
     d="  M 195.7622,79.606411   L 208.71971,79.606411  "
     id="path23" />
  <path
     style="fill:#000000;fill-rule:evenodd;fill-opacity:1;stroke:none;"
     d="  M 188.12367,84.211191   L 191.16308,87.254351   L 200.36132,71.958471   z "
     id="path24" />
  <path
     style="fill:#000000;fill-rule:evenodd;fill-opacity:1;stroke:none;"
     d="  M 191.16308,87.254351   L 200.36132,71.958471   L 203.40073,75.041672   z "
     id="path25" />
  <path
     style="fill:#000000;fill-rule:evenodd;fill-opacity:1;stroke:none;"
     d="  M 216.35825,75.041672   L 213.31883,71.958471   L 204.16059,87.254351   z "
     id="path26" />
  <path
     style="fill:#000000;fill-rule:evenodd;fill-opacity:1;stroke:none;"
     d="  M 213.31883,71.958471   L 204.16059,87.254351   L 201.08118,84.211191   z "
     id="path27" />
  <path
     style="fill:none;stroke:#000000;stroke-width:0.95981574px;stroke-linecap:round;stroke-linejoin:round;stroke-miterlimit:4;stroke-dasharray:none;stroke-opacity:1;"
     d="  M 200.08137,169.90015   L 200.08137,200.89232  "
     id="path28" />
  <path
     style="fill:none;stroke:#000000;stroke-width:0.95981574px;stroke-linecap:round;stroke-linejoin:round;stroke-miterlimit:4;stroke-dasharray:none;stroke-opacity:1;"
     d="  M 238.95391,169.90015   L 238.95391,200.89232  "
     id="path29" />
  <path
     style="fill:none;stroke:#000000;stroke-width:0.95981574px;stroke-linecap:round;stroke-linejoin:round;stroke-miterlimit:4;stroke-dasharray:none;stroke-opacity:1;"
     d="  M 191.44303,192.24334   L 247.59225,192.24334  "
     id="path30" />
  <path
     style="fill:none;stroke:#000000;stroke-width:0.95981574px;stroke-linecap:round;stroke-linejoin:round;stroke-miterlimit:4;stroke-dasharray:none;stroke-opacity:1;"
     d="  M 204.76047,165.6157   L 204.76047,164.61466   L 205.44034,162.61258   L 206.12021,161.61154   L 207.51994,160.6105   L 210.31941,160.6105   L 211.71914,161.61154   L 212.439,162.61258   L 213.11887,164.61466   L 213.11887,166.61674   L 212.439,168.61882   L 211.03927,171.62194   L 204.04061,181.59229   L 213.79874,181.59229  "
     id="path31" />
  <path
     style="fill:none;stroke:#000000;stroke-width:0.95981574px;stroke-linecap:round;stroke-linejoin:round;stroke-miterlimit:4;stroke-dasharray:none;stroke-opacity:1;"
     d="  M 221.51726,160.6105   L 219.39766,161.61154   L 218.71779,163.61362   L 218.71779,165.6157   L 219.39766,167.61778   L 220.79739,168.61882   L 223.59686,169.61986   L 225.67646,170.6209   L 227.07619,172.58293   L 227.79605,174.58501   L 227.79605,177.58813   L 227.07619,179.59021   L 226.39632,180.59125   L 224.27673,181.59229   L 221.51726,181.59229   L 219.39766,180.59125   L 218.71779,179.59021   L 217.99793,177.58813   L 217.99793,174.58501   L 218.71779,172.58293   L 220.11752,170.6209   L 222.19712,169.61986   L 224.99659,168.61882   L 226.39632,167.61778   L 227.07619,165.6157   L 227.07619,163.61362   L 226.39632,161.61154   L 224.27673,160.6105   L 221.51726,160.6105   z "
     id="path32" />
  <path
     style="fill:none;stroke:#000000;stroke-width:0.95981574px;stroke-linecap:round;stroke-linejoin:round;stroke-miterlimit:4;stroke-dasharray:none;stroke-opacity:1;"
     d="  M 231.95525,175.58605   L 231.95525,173.58397   L 232.67511,170.6209   L 234.07484,169.61986   L 235.47458,169.61986   L 236.87431,170.6209   L 239.63378,173.58397   L 241.03351,174.58501   L 242.43324,174.58501   L 243.83297,173.58397   L 244.55283,171.62194   L 244.55283,169.61986  "
     id="path33" />
  <path
     style="fill:none;stroke:#000000;stroke-width:0.95981574px;stroke-linecap:round;stroke-linejoin:round;stroke-miterlimit:4;stroke-dasharray:none;stroke-opacity:1;"
     d="  M 251.5115,160.6105   L 259.19002,160.6105   L 254.99083,168.61882   L 257.11042,168.61882   L 258.51015,169.61986   L 259.19002,170.6209   L 259.90988,173.58397   L 259.90988,175.58605   L 259.19002,178.58917   L 257.79029,180.59125   L 255.71069,181.59229   L 253.63109,181.59229   L 251.5115,180.59125   L 250.83163,179.59021   L 250.11177,177.58813  "
     id="path34" />
  <path
     style="fill:none;stroke:#000000;stroke-width:0.95981574px;stroke-linecap:round;stroke-linejoin:round;stroke-miterlimit:4;stroke-dasharray:none;stroke-opacity:1;"
     d="  M 265.46882,160.6105   L 273.14734,160.6105   L 268.98814,168.61882   L 271.06774,168.61882   L 272.46747,169.61986   L 273.14734,170.6209   L 273.86721,173.58397   L 273.86721,175.58605   L 273.14734,178.58917   L 271.74761,180.59125   L 269.66801,181.59229   L 267.58841,181.59229   L 265.46882,180.59125   L 264.78895,179.59021   L 264.06909,177.58813  "
     id="path35" />
  <path
     style="fill:#000000;fill-rule:evenodd;fill-opacity:1;stroke:none;"
     d="  M 207.7199,187.63856   L 204.68049,184.5954   L 195.52225,199.89128   z "
     id="path36" />
  <path
     style="fill:#000000;fill-rule:evenodd;fill-opacity:1;stroke:none;"
     d="  M 204.68049,184.5954   L 195.52225,199.89128   L 192.44284,196.84812   z "
     id="path37" />
  <path
     style="fill:#000000;fill-rule:evenodd;fill-opacity:1;stroke:none;"
     d="  M 231.31537,196.84812   L 234.35479,199.89128   L 243.55302,184.5954   z "
     id="path38" />
  <path
     style="fill:#000000;fill-rule:evenodd;fill-opacity:1;stroke:none;"
     d="  M 234.35479,199.89128   L 243.55302,184.5954   L 246.59244,187.63856   z "
     id="path39" />
  <path
     style="fill:none;stroke:#000000;stroke-width:0.95981574px;stroke-linecap:round;stroke-linejoin:round;stroke-miterlimit:4;stroke-dasharray:none;stroke-opacity:1;"
     d="  M 217.27807,141.87105   L 293.7034,173.94435  "
     id="path40" />
  <path
     style="fill:none;stroke:#000000;stroke-width:0.95981574px;stroke-linecap:round;stroke-linejoin:round;stroke-miterlimit:4;stroke-dasharray:none;stroke-opacity:1;"
     d="  M 293.7034,173.94435   L 397.8434,173.94435  "
     id="path41" />
  <path
     style="fill:none;stroke:#000000;stroke-width:0.95981574px;stroke-linecap:round;stroke-linejoin:round;stroke-miterlimit:4;stroke-dasharray:none;stroke-opacity:1;"
     d="  M 298.34251,168.81903   L 298.34251,154.84452  "
     id="path42" />
  <path
     style="fill:none;stroke:#000000;stroke-width:0.95981574px;stroke-linecap:round;stroke-linejoin:round;stroke-miterlimit:4;stroke-dasharray:none;stroke-opacity:1;"
     d="  M 298.34251,160.85075   L 299.06237,157.84764   L 300.4621,155.84556   L 301.82184,154.84452   L 303.94143,154.84452  "
     id="path43" />
  <path
     style="fill:none;stroke:#000000;stroke-width:0.95981574px;stroke-linecap:round;stroke-linejoin:round;stroke-miterlimit:4;stroke-dasharray:none;stroke-opacity:1;"
     d="  M 307.42076,156.8466   L 319.97835,156.8466  "
     id="path44" />
  <path
     style="fill:none;stroke:#000000;stroke-width:0.95981574px;stroke-linecap:round;stroke-linejoin:round;stroke-miterlimit:4;stroke-dasharray:none;stroke-opacity:1;"
     d="  M 307.42076,162.81279   L 319.97835,162.81279  "
     id="path45" />
  <path
     style="fill:none;stroke:#000000;stroke-width:0.95981574px;stroke-linecap:round;stroke-linejoin:round;stroke-miterlimit:4;stroke-dasharray:none;stroke-opacity:1;"
     d="  M 328.37674,151.8414   L 329.77647,150.84036   L 331.85607,147.83724   L 331.85607,168.81903  "
     id="path46" />
  <path
     style="fill:none;stroke:#000000;stroke-width:0.95981574px;stroke-linecap:round;stroke-linejoin:round;stroke-miterlimit:4;stroke-dasharray:none;stroke-opacity:1;"
     d="  M 343.73379,147.83724   L 341.65419,148.83828   L 340.25446,151.8414   L 339.5346,156.8466   L 339.5346,159.84972   L 340.25446,164.81487   L 341.65419,167.81799   L 343.73379,168.81903   L 345.13352,168.81903   L 347.21312,167.81799   L 348.61286,164.81487   L 349.33272,159.84972   L 349.33272,156.8466   L 348.61286,151.8414   L 347.21312,148.83828   L 345.13352,147.83724   L 343.73379,147.83724   z "
     id="path47" />
  <path
     style="fill:none;stroke:#000000;stroke-width:0.95981574px;stroke-linecap:round;stroke-linejoin:round;stroke-miterlimit:4;stroke-dasharray:none;stroke-opacity:1;"
     d="  M 353.49192,162.81279   L 353.49192,160.85075   L 354.21178,157.84764   L 355.61151,156.8466   L 357.01124,156.8466   L 358.41097,157.84764   L 361.17044,160.85075   L 362.57018,161.85179   L 363.96991,161.85179   L 365.36964,160.85075   L 366.0895,158.84868   L 366.0895,156.8466  "
     id="path48" />
  <path
     style="fill:none;stroke:#000000;stroke-width:0.95981574px;stroke-linecap:round;stroke-linejoin:round;stroke-miterlimit:4;stroke-dasharray:none;stroke-opacity:1;"
     d="  M 374.4479,151.8414   L 375.84763,150.84036   L 377.92723,147.83724   L 377.92723,168.81903  "
     id="path49" />
  <path
     style="fill:none;stroke:#000000;stroke-width:0.95981574px;stroke-linecap:round;stroke-linejoin:round;stroke-miterlimit:4;stroke-dasharray:none;stroke-opacity:1;"
     d="  M 394.00414,147.83724   L 387.00548,147.83724   L 386.32562,156.8466   L 387.00548,155.84556   L 389.12508,154.84452   L 391.20468,154.84452   L 393.28428,155.84556   L 394.68401,157.84764   L 395.40387,160.85075   L 395.40387,162.81279   L 394.68401,165.81591   L 393.28428,167.81799   L 391.20468,168.81903   L 389.12508,168.81903   L 387.00548,167.81799   L 386.32562,166.81695   L 385.60575,164.81487  "
     id="path50" />
  <path
     style="fill:none;stroke:#000000;stroke-width:0.95981574px;stroke-linecap:round;stroke-linejoin:round;stroke-miterlimit:4;stroke-dasharray:none;stroke-opacity:1;"
     d="  M 200.08137,247.82104   L 200.08137,237.85069  "
     id="path51" />
  <path
     style="fill:none;stroke:#000000;stroke-width:0.95981574px;stroke-linecap:round;stroke-linejoin:round;stroke-miterlimit:4;stroke-dasharray:none;stroke-opacity:1;"
     d="  M 217.1181,256.8304   L 217.1181,237.85069  "
     id="path52" />
  <path
     style="fill:none;stroke:#000000;stroke-width:0.95981574px;stroke-linecap:round;stroke-linejoin:round;stroke-miterlimit:4;stroke-dasharray:none;stroke-opacity:1;"
     d="  M 200.08137,246.49967   L 191.44303,246.49967  "
     id="path53" />
  <path
     style="fill:none;stroke:#000000;stroke-width:0.95981574px;stroke-linecap:round;stroke-linejoin:round;stroke-miterlimit:4;stroke-dasharray:none;stroke-opacity:1;"
     d="  M 217.1181,246.49967   L 225.75644,246.49967  "
     id="path54" />
  <path
     style="fill:none;stroke:#000000;stroke-width:0.95981574px;stroke-linecap:round;stroke-linejoin:round;stroke-miterlimit:4;stroke-dasharray:none;stroke-opacity:1;"
     d="  M 210.15944,214.74671   L 203.20077,228.76126   L 213.67876,228.76126  "
     id="path55" />
  <path
     style="fill:none;stroke:#000000;stroke-width:0.95981574px;stroke-linecap:round;stroke-linejoin:round;stroke-miterlimit:4;stroke-dasharray:none;stroke-opacity:1;"
     d="  M 210.15944,214.74671   L 210.15944,235.72849  "
     id="path56" />
  <path
     style="fill:none;stroke:#000000;stroke-width:0.95981574px;stroke-linecap:round;stroke-linejoin:round;stroke-miterlimit:4;stroke-dasharray:none;stroke-opacity:1;"
     d="  M 217.15809,214.74671   L 226.91622,214.74671   L 219.95755,235.72849  "
     id="path57" />
  <path
     style="fill:none;stroke:#000000;stroke-width:0.95981574px;stroke-linecap:round;stroke-linejoin:round;stroke-miterlimit:4;stroke-dasharray:none;stroke-opacity:1;"
     d="  M 231.11541,229.72225   L 231.11541,227.76022   L 231.79528,224.7571   L 233.19501,223.75606   L 234.59474,223.75606   L 235.99448,224.7571   L 238.79394,227.76022   L 240.19367,228.76126   L 241.5934,228.76126   L 242.99313,227.76022   L 243.673,225.75814   L 243.673,223.75606  "
     id="path58" />
  <path
     style="fill:none;stroke:#000000;stroke-width:0.95981574px;stroke-linecap:round;stroke-linejoin:round;stroke-miterlimit:4;stroke-dasharray:none;stroke-opacity:1;"
     d="  M 256.23059,214.74671   L 249.27193,228.76126   L 259.74992,228.76126  "
     id="path59" />
  <path
     style="fill:none;stroke:#000000;stroke-width:0.95981574px;stroke-linecap:round;stroke-linejoin:round;stroke-miterlimit:4;stroke-dasharray:none;stroke-opacity:1;"
     d="  M 256.23059,214.74671   L 256.23059,235.72849  "
     id="path60" />
  <path
     style="fill:none;stroke:#000000;stroke-width:0.95981574px;stroke-linecap:round;stroke-linejoin:round;stroke-miterlimit:4;stroke-dasharray:none;stroke-opacity:1;"
     d="  M 272.3075,221.75398   L 271.62764,224.7571   L 270.2279,226.75918   L 268.10831,227.76022   L 267.42844,227.76022   L 265.30885,226.75918   L 263.94911,224.7571   L 263.22925,221.75398   L 263.22925,220.75294   L 263.94911,217.74982   L 265.30885,215.74775   L 267.42844,214.74671   L 268.10831,214.74671   L 270.2279,215.74775   L 271.62764,217.74982   L 272.3075,221.75398   L 272.3075,226.75918   L 271.62764,231.72433   L 270.2279,234.72745   L 268.10831,235.72849   L 266.70858,235.72849   L 264.62898,234.72745   L 263.94911,232.72537  "
     id="path61" />
  <path
     style="fill:none;stroke:#000000;stroke-width:0.95981574px;stroke-linecap:round;stroke-linejoin:round;stroke-miterlimit:4;stroke-dasharray:none;stroke-opacity:1;"
     d="  M 200.08137,246.49967   L 217.1181,246.49967  "
     id="path62" />
  <path
     style="fill:#000000;fill-rule:evenodd;fill-opacity:1;stroke:none;"
     d="  M 192.44284,251.10445   L 195.52225,254.18765   L 204.68049,238.85173   z "
     id="path63" />
  <path
     style="fill:#000000;fill-rule:evenodd;fill-opacity:1;stroke:none;"
     d="  M 195.52225,254.18765   L 204.68049,238.85173   L 207.7199,241.93493   z "
     id="path64" />
  <path
     style="fill:#000000;fill-rule:evenodd;fill-opacity:1;stroke:none;"
     d="  M 224.75663,241.93493   L 221.67722,238.85173   L 212.51898,254.18765   z "
     id="path65" />
  <path
     style="fill:#000000;fill-rule:evenodd;fill-opacity:1;stroke:none;"
     d="  M 221.67722,238.85173   L 212.51898,254.18765   L 209.47957,251.10445   z "
     id="path66" />
  <path
     style="fill:none;stroke:#000000;stroke-width:0.95981574px;stroke-linecap:round;stroke-linejoin:round;stroke-miterlimit:4;stroke-dasharray:none;stroke-opacity:1;"
     d="  M 217.1181,278.45284   L 292.98354,257.07064  "
     id="path67" />
  <path
     style="fill:none;stroke:#000000;stroke-width:0.95981574px;stroke-linecap:round;stroke-linejoin:round;stroke-miterlimit:4;stroke-dasharray:none;stroke-opacity:1;"
     d="  M 292.98354,257.07064   L 397.12354,257.07064  "
     id="path68" />
  <path
     style="fill:none;stroke:#000000;stroke-width:0.95981574px;stroke-linecap:round;stroke-linejoin:round;stroke-miterlimit:4;stroke-dasharray:none;stroke-opacity:1;"
     d="  M 297.58265,251.94532   L 297.58265,237.93077  "
     id="path69" />
  <path
     style="fill:none;stroke:#000000;stroke-width:0.95981574px;stroke-linecap:round;stroke-linejoin:round;stroke-miterlimit:4;stroke-dasharray:none;stroke-opacity:1;"
     d="  M 297.58265,243.93701   L 298.30251,240.93389   L 299.70225,238.93181   L 301.10198,237.93077   L 303.18158,237.93077  "
     id="path70" />
  <path
     style="fill:none;stroke:#000000;stroke-width:0.95981574px;stroke-linecap:round;stroke-linejoin:round;stroke-miterlimit:4;stroke-dasharray:none;stroke-opacity:1;"
     d="  M 306.66091,239.93285   L 319.25849,239.93285  "
     id="path71" />
  <path
     style="fill:none;stroke:#000000;stroke-width:0.95981574px;stroke-linecap:round;stroke-linejoin:round;stroke-miterlimit:4;stroke-dasharray:none;stroke-opacity:1;"
     d="  M 306.66091,245.93909   L 319.25849,245.93909  "
     id="path72" />
  <path
     style="fill:none;stroke:#000000;stroke-width:0.95981574px;stroke-linecap:round;stroke-linejoin:round;stroke-miterlimit:4;stroke-dasharray:none;stroke-opacity:1;"
     d="  M 327.61689,234.9677   L 329.01662,233.96666   L 331.09622,230.96354   L 331.09622,251.94532  "
     id="path73" />
  <path
     style="fill:none;stroke:#000000;stroke-width:0.95981574px;stroke-linecap:round;stroke-linejoin:round;stroke-miterlimit:4;stroke-dasharray:none;stroke-opacity:1;"
     d="  M 342.97394,230.96354   L 340.89434,231.96458   L 339.49461,234.9677   L 338.77474,239.93285   L 338.77474,242.93597   L 339.49461,247.94117   L 340.89434,250.94428   L 342.97394,251.94532   L 344.37367,251.94532   L 346.49326,250.94428   L 347.853,247.94117   L 348.57286,242.93597   L 348.57286,239.93285   L 347.853,234.9677   L 346.49326,231.96458   L 344.37367,230.96354   L 342.97394,230.96354   z "
     id="path74" />
  <path
     style="fill:none;stroke:#000000;stroke-width:0.95981574px;stroke-linecap:round;stroke-linejoin:round;stroke-miterlimit:4;stroke-dasharray:none;stroke-opacity:1;"
     d="  M 352.77206,245.93909   L 352.77206,243.93701   L 353.45193,240.93389   L 354.85166,239.93285   L 356.25139,239.93285   L 357.65112,240.93389   L 360.45058,243.93701   L 361.85031,244.93805   L 363.21005,244.93805   L 364.60978,243.93701   L 365.32965,241.93493   L 365.32965,239.93285  "
     id="path75" />
  <path
     style="fill:none;stroke:#000000;stroke-width:0.95981574px;stroke-linecap:round;stroke-linejoin:round;stroke-miterlimit:4;stroke-dasharray:none;stroke-opacity:1;"
     d="  M 373.68804,234.9677   L 375.08777,233.96666   L 377.20737,230.96354   L 377.20737,251.94532  "
     id="path76" />
  <path
     style="fill:none;stroke:#000000;stroke-width:0.95981574px;stroke-linecap:round;stroke-linejoin:round;stroke-miterlimit:4;stroke-dasharray:none;stroke-opacity:1;"
     d="  M 393.24429,230.96354   L 386.28562,230.96354   L 385.56576,239.93285   L 386.28562,238.93181   L 388.36522,237.93077   L 390.44482,237.93077   L 392.56442,238.93181   L 393.96415,240.93389   L 394.64402,243.93701   L 394.64402,245.93909   L 393.96415,248.94221   L 392.56442,250.94428   L 390.44482,251.94532   L 388.36522,251.94532   L 386.28562,250.94428   L 385.56576,249.94325   L 384.88589,247.94117  "
     id="path77" />
  <path
     style="fill:none;stroke:#000000;stroke-width:0.95981574px;stroke-linecap:round;stroke-linejoin:round;stroke-miterlimit:4;stroke-dasharray:none;stroke-opacity:1;"
     d="  M 221.11733,104.51227   L 216.63819,110.95896  "
     id="path78" />
  <path
     style="fill:none;stroke:#000000;stroke-width:0.95981574px;stroke-linecap:round;stroke-linejoin:round;stroke-miterlimit:4;stroke-dasharray:none;stroke-opacity:1;"
     d="  M 211.67914,118.04632   L 191.44303,111.67971  "
     id="path79" />
  <path
     style="fill:#000000;fill-rule:evenodd;fill-opacity:1;stroke:none;"
     d="  M 202.80085,117.40565   L 203.52071,121.6901   L 219.79759,114.40253   z "
     id="path80" />
  <path
     style="fill:#000000;fill-rule:evenodd;fill-opacity:1;stroke:none;"
     d="  M 203.52071,121.6901   L 219.79759,114.40253   L 220.55744,118.68698   z "
     id="path81" />
  <path
     style="fill:#000000;fill-rule:evenodd;fill-opacity:1;stroke:none;"
     d="  M 199.08156,107.07493   L 196.04215,103.99173   L 186.84391,119.32765   z "
     id="path82" />
  <path
     style="fill:#000000;fill-rule:evenodd;fill-opacity:1;stroke:none;"
     d="  M 196.04215,103.99173   L 186.84391,119.32765   L 183.8045,116.24445   z "
     id="path83" />
  <path
     style="fill:none;stroke:#000000;stroke-width:0.95981574px;stroke-linecap:round;stroke-linejoin:round;stroke-miterlimit:4;stroke-dasharray:none;stroke-opacity:1;"
     d="  M 228.91584,83.770734   L 234.07484,89.456637   L 225.35652,91.698965   L 226.75625,93.260586   L 226.95621,94.982374   L 226.67626,96.183621   L 224.9566,98.706239   L 223.47688,100.02761   L 220.7574,101.54919   L 218.35786,101.82948   L 216.19828,100.94857   L 214.79855,99.386946   L 214.15867,97.18466   L 214.39862,95.983413   L 215.43842,94.101459  "
     id="path84" />
  <path
     style="fill:none;stroke:#000000;stroke-width:0.95981574px;stroke-linecap:round;stroke-linejoin:round;stroke-miterlimit:4;stroke-dasharray:none;stroke-opacity:1;"
     d="  M 242.99313,99.306863   L 238.31403,94.141501   L 231.15541,99.627196   L 232.39517,99.507071   L 234.51476,100.38799   L 235.91449,101.94961   L 236.59436,104.15189   L 236.07446,106.55439   L 234.3148,109.07701   L 232.83508,110.39838   L 230.1556,111.91996   L 227.71607,112.20025   L 225.59647,111.31933   L 224.15675,109.75771   L 223.51687,107.55543   L 223.79682,106.35418   L 224.79663,104.47223  "
     id="path85" />
  <path
     style="fill:none;stroke:#000000;stroke-width:0.95981574px;stroke-linecap:round;stroke-linejoin:round;stroke-miterlimit:4;stroke-dasharray:none;stroke-opacity:1;"
     d="  M 246.47246,116.08428   L 247.55226,114.28241   L 247.23232,112.68075   L 245.67262,112.16021   L 243.75299,113.08116   L 242.67319,114.88303   L 242.99313,116.52474   L 244.55283,117.00524   L 246.47246,116.08428   z "
     id="path86" />
  <path
     style="fill:none;stroke:#000000;stroke-width:0.95981574px;stroke-linecap:round;stroke-linejoin:round;stroke-miterlimit:4;stroke-dasharray:none;stroke-opacity:1;"
     d="  M 550.37412,135.26419   L 518.90016,135.26419  "
     id="path87" />
  <path
     style="fill:none;stroke:#000000;stroke-width:0.95981574px;stroke-linecap:round;stroke-linejoin:round;stroke-miterlimit:4;stroke-dasharray:none;stroke-opacity:1;"
     d="  M 550.37412,122.25068   L 518.90016,122.25068  "
     id="path88" />
  <path
     style="fill:none;stroke:#000000;stroke-width:0.95981574px;stroke-linecap:round;stroke-linejoin:round;stroke-miterlimit:4;stroke-dasharray:none;stroke-opacity:1;"
     d="  M 527.5385,135.26419   L 527.5385,143.91317  "
     id="path89" />
  <path
     style="fill:none;stroke:#000000;stroke-width:0.95981574px;stroke-linecap:round;stroke-linejoin:round;stroke-miterlimit:4;stroke-dasharray:none;stroke-opacity:1;"
     d="  M 527.5385,122.25068   L 527.5385,113.6017  "
     id="path90" />
  <path
     style="fill:none;stroke:#000000;stroke-width:0.95981574px;stroke-linecap:round;stroke-linejoin:round;stroke-miterlimit:4;stroke-dasharray:none;stroke-opacity:1;"
     d="  M 495.94457,105.3131   L 512.90131,105.3131   L 515.90074,104.63239   L 516.90055,103.23094   L 516.90055,101.82948  "
     id="path91" />
  <path
     style="fill:none;stroke:#000000;stroke-width:0.95981574px;stroke-linecap:round;stroke-linejoin:round;stroke-miterlimit:4;stroke-dasharray:none;stroke-opacity:1;"
     d="  M 502.94323,107.4353   L 502.94323,102.51019  "
     id="path92" />
  <path
     style="fill:none;stroke:#000000;stroke-width:0.95981574px;stroke-linecap:round;stroke-linejoin:round;stroke-miterlimit:4;stroke-dasharray:none;stroke-opacity:1;"
     d="  M 527.5385,135.26419   L 527.5385,122.25068  "
     id="path93" />
  <path
     style="fill:#000000;fill-rule:evenodd;fill-opacity:1;stroke:none;"
     d="  M 532.13762,142.91213   L 535.17704,139.82893   L 519.89997,130.65941   z "
     id="path94" />
  <path
     style="fill:#000000;fill-rule:evenodd;fill-opacity:1;stroke:none;"
     d="  M 535.17704,139.82893   L 519.89997,130.65941   L 522.97938,127.57621   z "
     id="path95" />
  <path
     style="fill:#000000;fill-rule:evenodd;fill-opacity:1;stroke:none;"
     d="  M 522.97938,114.60274   L 519.89997,117.68594   L 535.17704,126.85546   z "
     id="path96" />
  <path
     style="fill:#000000;fill-rule:evenodd;fill-opacity:1;stroke:none;"
     d="  M 519.89997,117.68594   L 535.17704,126.85546   L 532.13762,129.89862   z "
     id="path97" />
  <path
     style="fill:none;stroke:#000000;stroke-width:0.95981574px;stroke-linecap:round;stroke-linejoin:round;stroke-miterlimit:4;stroke-dasharray:none;stroke-opacity:1;"
     d="  M 515.42083,97.7052   L 504.94284,97.7052  "
     id="path98" />
  <path
     style="fill:none;stroke:#000000;stroke-width:0.95981574px;stroke-linecap:round;stroke-linejoin:round;stroke-miterlimit:4;stroke-dasharray:none;stroke-opacity:1;"
     d="  M 509.90189,97.7052   L 508.90208,96.984452   L 508.42217,96.303745   L 508.42217,95.262664   L 508.90208,94.541916   L 509.90189,93.86121   L 511.4216,93.500835   L 512.42141,93.500835   L 513.90112,93.86121   L 514.90093,94.541916   L 515.42083,95.262664   L 515.42083,96.303745   L 514.90093,96.984452   L 513.90112,97.7052  "
     id="path99" />
  <path
     style="fill:none;stroke:#000000;stroke-width:0.95981574px;stroke-linecap:round;stroke-linejoin:round;stroke-miterlimit:4;stroke-dasharray:none;stroke-opacity:1;"
     d="  M 504.94284,88.25539   L 504.94284,88.936097   L 505.42275,89.656845   L 506.94246,90.017219   L 515.42083,90.017219  "
     id="path100" />
  <path
     style="fill:none;stroke:#000000;stroke-width:0.95981574px;stroke-linecap:round;stroke-linejoin:round;stroke-miterlimit:4;stroke-dasharray:none;stroke-opacity:1;"
     d="  M 508.42217,91.0583   L 508.42217,88.615764  "
     id="path101" />
  <path
     style="fill:none;stroke:#000000;stroke-width:0.95981574px;stroke-linecap:round;stroke-linejoin:round;stroke-miterlimit:4;stroke-dasharray:none;stroke-opacity:1;"
     d="  M 550.37412,295.43047   L 518.90016,295.43047  "
     id="path102" />
  <path
     style="fill:none;stroke:#000000;stroke-width:0.95981574px;stroke-linecap:round;stroke-linejoin:round;stroke-miterlimit:4;stroke-dasharray:none;stroke-opacity:1;"
     d="  M 550.37412,282.457   L 518.90016,282.457  "
     id="path103" />
  <path
     style="fill:none;stroke:#000000;stroke-width:0.95981574px;stroke-linecap:round;stroke-linejoin:round;stroke-miterlimit:4;stroke-dasharray:none;stroke-opacity:1;"
     d="  M 527.5385,295.43047   L 527.5385,304.11949  "
     id="path104" />
  <path
     style="fill:none;stroke:#000000;stroke-width:0.95981574px;stroke-linecap:round;stroke-linejoin:round;stroke-miterlimit:4;stroke-dasharray:none;stroke-opacity:1;"
     d="  M 527.5385,282.457   L 527.5385,273.80802  "
     id="path105" />
  <path
     style="fill:none;stroke:#000000;stroke-width:0.95981574px;stroke-linecap:round;stroke-linejoin:round;stroke-miterlimit:4;stroke-dasharray:none;stroke-opacity:1;"
     d="  M 495.94457,265.51942   L 512.90131,265.51942   L 515.90074,264.79867   L 516.90055,263.43725   L 516.90055,262.0358  "
     id="path106" />
  <path
     style="fill:none;stroke:#000000;stroke-width:0.95981574px;stroke-linecap:round;stroke-linejoin:round;stroke-miterlimit:4;stroke-dasharray:none;stroke-opacity:1;"
     d="  M 502.94323,267.60158   L 502.94323,262.71651  "
     id="path107" />
  <path
     style="fill:none;stroke:#000000;stroke-width:0.95981574px;stroke-linecap:round;stroke-linejoin:round;stroke-miterlimit:4;stroke-dasharray:none;stroke-opacity:1;"
     d="  M 527.5385,295.43047   L 527.5385,282.457  "
     id="path108" />
  <path
     style="fill:#000000;fill-rule:evenodd;fill-opacity:1;stroke:none;"
     d="  M 532.13762,303.07841   L 535.17704,300.03525   L 519.89997,290.86573   z "
     id="path109" />
  <path
     style="fill:#000000;fill-rule:evenodd;fill-opacity:1;stroke:none;"
     d="  M 535.17704,300.03525   L 519.89997,290.86573   L 522.97938,287.78253   z "
     id="path110" />
  <path
     style="fill:#000000;fill-rule:evenodd;fill-opacity:1;stroke:none;"
     d="  M 522.97938,274.80906   L 519.89997,277.85222   L 535.17704,287.06178   z "
     id="path111" />
  <path
     style="fill:#000000;fill-rule:evenodd;fill-opacity:1;stroke:none;"
     d="  M 519.89997,277.85222   L 535.17704,287.06178   L 532.13762,290.10494   z "
     id="path112" />
  <path
     style="fill:none;stroke:#000000;stroke-width:0.95981574px;stroke-linecap:round;stroke-linejoin:round;stroke-miterlimit:4;stroke-dasharray:none;stroke-opacity:1;"
     d="  M 515.42083,257.87148   L 504.94284,257.87148  "
     id="path113" />
  <path
     style="fill:none;stroke:#000000;stroke-width:0.95981574px;stroke-linecap:round;stroke-linejoin:round;stroke-miterlimit:4;stroke-dasharray:none;stroke-opacity:1;"
     d="  M 509.90189,257.87148   L 508.90208,257.19077   L 508.42217,256.51006   L 508.42217,255.42894   L 508.90208,254.74823   L 509.90189,254.02749   L 511.4216,253.70715   L 512.42141,253.70715   L 513.90112,254.02749   L 514.90093,254.74823   L 515.42083,255.42894   L 515.42083,256.51006   L 514.90093,257.19077   L 513.90112,257.87148  "
     id="path114" />
  <path
     style="fill:none;stroke:#000000;stroke-width:0.95981574px;stroke-linecap:round;stroke-linejoin:round;stroke-miterlimit:4;stroke-dasharray:none;stroke-opacity:1;"
     d="  M 504.94284,248.46171   L 504.94284,249.14241   L 505.42275,249.86316   L 506.94246,250.18349   L 515.42083,250.18349  "
     id="path115" />
  <path
     style="fill:none;stroke:#000000;stroke-width:0.95981574px;stroke-linecap:round;stroke-linejoin:round;stroke-miterlimit:4;stroke-dasharray:none;stroke-opacity:1;"
     d="  M 508.42217,251.26462   L 508.42217,248.78204  "
     id="path116" />
  <path
     style="fill:none;stroke:#000000;stroke-width:0.95981574px;stroke-linecap:round;stroke-linejoin:round;stroke-miterlimit:4;stroke-dasharray:none;stroke-opacity:1;"
     d="  M 178.48552,205.45706   L 178.48552,209.50126  "
     id="path117" />
  <path
     style="fill:none;stroke:#000000;stroke-width:0.95981574px;stroke-linecap:round;stroke-linejoin:round;stroke-miterlimit:4;stroke-dasharray:none;stroke-opacity:1;"
     d="  M 191.44303,205.45706   L 191.44303,209.50126  "
     id="path118" />
  <path
     style="fill:none;stroke:#000000;stroke-width:0.95981574px;stroke-linecap:round;stroke-linejoin:round;stroke-miterlimit:4;stroke-dasharray:none;stroke-opacity:1;"
     d="  M 178.48552,218.15024   L 169.84718,218.15024  "
     id="path119" />
  <path
     style="fill:none;stroke:#000000;stroke-width:0.95981574px;stroke-linecap:round;stroke-linejoin:round;stroke-miterlimit:4;stroke-dasharray:none;stroke-opacity:1;"
     d="  M 191.44303,218.15024   L 200.08137,218.15024  "
     id="path120" />
  <path
     style="fill:none;stroke:#000000;stroke-width:0.95981574px;stroke-linecap:round;stroke-linejoin:round;stroke-miterlimit:4;stroke-dasharray:none;stroke-opacity:1;"
     d="  M 178.48552,218.15024   L 191.44303,218.15024  "
     id="path121" />
  <path
     style="fill:#000000;fill-rule:evenodd;fill-opacity:1;stroke:none;"
     d="  M 170.84698,222.75502   L 173.8864,225.79818   L 183.04464,210.5023   z "
     id="path122" />
  <path
     style="fill:#000000;fill-rule:evenodd;fill-opacity:1;stroke:none;"
     d="  M 173.8864,225.79818   L 183.04464,210.5023   L 186.12405,213.54546   z "
     id="path123" />
  <path
     style="fill:#000000;fill-rule:evenodd;fill-opacity:1;stroke:none;"
     d="  M 199.08156,213.54546   L 196.04215,210.5023   L 186.84391,225.79818   z "
     id="path124" />
  <path
     style="fill:#000000;fill-rule:evenodd;fill-opacity:1;stroke:none;"
     d="  M 196.04215,210.5023   L 186.84391,225.79818   L 183.8045,222.75502   z "
     id="path125" />
  <path
     style="fill:none;stroke:#000000;stroke-width:0.95981574px;stroke-linecap:round;stroke-linejoin:round;stroke-miterlimit:4;stroke-dasharray:none;stroke-opacity:1;"
     d="  M 184.96427,218.15024   L 162.9685,205.61723  "
     id="path126" />
  <path
     style="fill:none;stroke:#000000;stroke-width:0.95981574px;stroke-linecap:round;stroke-linejoin:round;stroke-miterlimit:4;stroke-dasharray:none;stroke-opacity:1;"
     d="  M 162.9685,205.61723   L 42.911545,205.61723  "
     id="path127" />
  <path
     style="fill:none;stroke:#000000;stroke-width:0.95981574px;stroke-linecap:round;stroke-linejoin:round;stroke-miterlimit:4;stroke-dasharray:none;stroke-opacity:1;"
     d="  M 58.348581,173.90431   L 59.348389,175.74622   L 59.468366,176.98751  "
     id="path128" />
  <path
     style="fill:none;stroke:#000000;stroke-width:0.95981574px;stroke-linecap:round;stroke-linejoin:round;stroke-miterlimit:4;stroke-dasharray:none;stroke-opacity:1;"
     d="  M 63.347621,173.50389   L 63.467598,174.54497   L 63.347621,174.94539   L 62.347813,177.98855  "
     id="path129" />
  <path
     style="fill:none;stroke:#000000;stroke-width:0.95981574px;stroke-linecap:round;stroke-linejoin:round;stroke-miterlimit:4;stroke-dasharray:none;stroke-opacity:1;"
     d="  M 54.069403,178.82942   L 68.066715,177.58813   L 67.506823,177.38792   L 66.347045,177.78834  "
     id="path130" />
  <path
     style="fill:none;stroke:#000000;stroke-width:0.95981574px;stroke-linecap:round;stroke-linejoin:round;stroke-miterlimit:4;stroke-dasharray:none;stroke-opacity:1;"
     d="  M 56.188996,180.27092   L 56.468942,181.27195   L 56.628911,184.15495   L 56.628911,186.59748   L 56.468942,189.68068   L 56.468942,188.6396   L 56.628911,187.39831  "
     id="path131" />
  <path
     style="fill:none;stroke:#000000;stroke-width:0.95981574px;stroke-linecap:round;stroke-linejoin:round;stroke-miterlimit:4;stroke-dasharray:none;stroke-opacity:1;"
     d="  M 56.748888,183.95474   L 59.908282,183.31407  "
     id="path132" />
  <path
     style="fill:none;stroke:#000000;stroke-width:0.95981574px;stroke-linecap:round;stroke-linejoin:round;stroke-miterlimit:4;stroke-dasharray:none;stroke-opacity:1;"
     d="  M 59.788305,185.99686   L 56.628911,186.59748  "
     id="path133" />
  <path
     style="fill:none;stroke:#000000;stroke-width:0.95981574px;stroke-linecap:round;stroke-linejoin:round;stroke-miterlimit:4;stroke-dasharray:none;stroke-opacity:1;"
     d="  M 56.628911,181.47216   L 61.467982,180.67133   L 61.188036,180.07071   L 61.068059,181.27195   L 61.068059,187.83877   L 61.068059,189.04002   L 59.628335,187.83877  "
     id="path134" />
  <path
     style="fill:none;stroke:#000000;stroke-width:0.95981574px;stroke-linecap:round;stroke-linejoin:round;stroke-miterlimit:4;stroke-dasharray:none;stroke-opacity:1;"
     d="  M 63.347621,181.07175   L 63.347621,187.39831  "
     id="path135" />
  <path
     style="fill:none;stroke:#000000;stroke-width:0.95981574px;stroke-linecap:round;stroke-linejoin:round;stroke-miterlimit:4;stroke-dasharray:none;stroke-opacity:1;"
     d="  M 65.787153,179.63025   L 66.067099,180.27092   L 65.90713,180.67133   L 65.90713,187.83877   L 65.787153,188.4394   L 64.467406,186.9979  "
     id="path136" />
  <path
     style="fill:none;stroke:#000000;stroke-width:0.95981574px;stroke-linecap:round;stroke-linejoin:round;stroke-miterlimit:4;stroke-dasharray:none;stroke-opacity:1;"
     d="  M 55.74908,191.5226   L 65.787153,190.48152   L 65.627184,190.0811   L 65.347237,191.5226   L 64.627376,195.20642   L 64.18746,197.04833   L 63.787537,198.04937   L 63.347621,198.44979   L 61.348005,195.20642   L 63.467598,198.24958  "
     id="path137" />
  <path
     style="fill:none;stroke:#000000;stroke-width:0.95981574px;stroke-linecap:round;stroke-linejoin:round;stroke-miterlimit:4;stroke-dasharray:none;stroke-opacity:1;"
     d="  M 59.908282,191.92301   L 59.908282,192.32343   L 58.188612,194.96617   L 57.068827,196.20746   L 55.74908,197.44875   L 54.469326,198.65   L 53.469518,198.8502  "
     id="path138" />
  <path
     style="fill:none;stroke:#000000;stroke-width:0.95981574px;stroke-linecap:round;stroke-linejoin:round;stroke-miterlimit:4;stroke-dasharray:none;stroke-opacity:1;"
     d="  M 75.225341,173.30368   L 75.785234,174.94539   L 75.625264,174.30472   L 75.505287,185.99686   L 75.505287,192.92405   L 74.505479,193.76492   L 79.34455,188.23919  "
     id="path139" />
  <path
     style="fill:none;stroke:#000000;stroke-width:0.95981574px;stroke-linecap:round;stroke-linejoin:round;stroke-miterlimit:4;stroke-dasharray:none;stroke-opacity:1;"
     d="  M 71.186116,184.95578   L 79.224573,181.87258  "
     id="path140" />
  <path
     style="fill:none;stroke:#000000;stroke-width:0.95981574px;stroke-linecap:round;stroke-linejoin:round;stroke-miterlimit:4;stroke-dasharray:none;stroke-opacity:1;"
     d="  M 79.224573,179.83046   L 86.503176,177.98855   L 86.343207,177.18771   L 86.783122,177.98855   L 86.503176,178.2288   L 86.06326,183.11387   L 85.943283,186.79769   L 85.503368,190.28131   L 85.223422,193.36451   L 84.623537,195.40663   L 84.223613,197.24854   L 83.943667,198.04937   L 81.784082,193.96513   L 83.943667,197.64896  "
     id="path141" />
  <path
     style="fill:none;stroke:#000000;stroke-width:0.95981574px;stroke-linecap:round;stroke-linejoin:round;stroke-miterlimit:4;stroke-dasharray:none;stroke-opacity:1;"
     d="  M 82.343974,179.43004   L 82.343974,180.87154   L 81.784082,184.55536   L 81.224189,188.03898   L 80.624304,190.48152   L 79.624496,193.12426   L 78.344742,195.80704   L 76.905019,197.84916   L 75.625264,199.29066  "
     id="path142" />
  <path
     style="fill:none;stroke:#000000;stroke-width:0.95981574px;stroke-linecap:round;stroke-linejoin:round;stroke-miterlimit:4;stroke-dasharray:none;stroke-opacity:1;"
     d="  M 92.661993,173.90431   L 93.221886,174.94539   L 93.061917,174.74518   L 93.061917,197.64896   L 92.78197,196.00725   L 92.94194,194.36555  "
     id="path143" />
  <path
     style="fill:none;stroke:#000000;stroke-width:0.95981574px;stroke-linecap:round;stroke-linejoin:round;stroke-miterlimit:4;stroke-dasharray:none;stroke-opacity:1;"
     d="  M 93.221886,183.51428   L 94.941556,185.79665   L 95.341479,186.79769  "
     id="path144" />
  <path
     style="fill:none;stroke:#000000;stroke-width:0.95981574px;stroke-linecap:round;stroke-linejoin:round;stroke-miterlimit:4;stroke-dasharray:none;stroke-opacity:1;"
     d="  M 93.061917,182.91366   L 91.662185,186.39728   L 90.502408,189.04002   L 89.5026,191.08214   L 88.942708,191.92301  "
     id="path145" />
  <path
     style="fill:none;stroke:#000000;stroke-width:0.95981574px;stroke-linecap:round;stroke-linejoin:round;stroke-miterlimit:4;stroke-dasharray:none;stroke-opacity:1;"
     d="  M 89.5026,182.31304   L 95.501448,181.07175  "
     id="path146" />
  <path
     style="fill:none;stroke:#000000;stroke-width:0.95981574px;stroke-linecap:round;stroke-linejoin:round;stroke-miterlimit:4;stroke-dasharray:none;stroke-opacity:1;"
     d="  M 96.501256,176.58709   L 96.941172,178.429   L 96.781203,182.51324   L 96.661226,185.79665   L 96.501256,188.6396   L 96.061341,191.28235   L 95.501448,193.56472   L 94.941556,195.80704   L 94.221694,197.44875  "
     id="path147" />
  <path
     style="fill:none;stroke:#000000;stroke-width:0.95981574px;stroke-linecap:round;stroke-linejoin:round;stroke-miterlimit:4;stroke-dasharray:none;stroke-opacity:1;"
     d="  M 102.78005,175.94643   L 99.220734,177.98855   L 97.061149,178.82942  "
     id="path148" />
  <path
     style="fill:none;stroke:#000000;stroke-width:0.95981574px;stroke-linecap:round;stroke-linejoin:round;stroke-miterlimit:4;stroke-dasharray:none;stroke-opacity:1;"
     d="  M 97.94098,183.51428   L 102.78005,182.51324   L 102.38013,181.67237   L 102.06019,183.11387   L 101.5003,186.39728   L 100.78043,188.6396   L 99.940596,191.08214   L 98.940788,193.12426   L 97.661034,195.40663   L 96.501256,197.04833   L 95.061533,198.44979  "
     id="path149" />
  <path
     style="fill:none;stroke:#000000;stroke-width:0.95981574px;stroke-linecap:round;stroke-linejoin:round;stroke-miterlimit:4;stroke-dasharray:none;stroke-opacity:1;"
     d="  M 97.94098,185.99686   L 98.380896,186.19707   L 102.38013,196.20746   L 105.21958,196.40767   L 102.38013,195.80704   L 101.78024,194.96617  "
     id="path150" />
  <path
     style="fill:none;stroke:#000000;stroke-width:0.95981574px;stroke-linecap:round;stroke-linejoin:round;stroke-miterlimit:4;stroke-dasharray:none;stroke-opacity:1;"
     d="  M 114.21786,173.30368   L 114.09788,174.74518   L 112.65815,185.35619   L 112.37821,185.99686   L 112.21824,185.5564   L 121.09653,184.55536   L 121.49646,184.15495   L 121.09653,183.71449   L 120.49665,188.4394   L 119.81678,192.92405   L 119.09692,196.20746   L 118.49703,198.04937   L 117.93714,199.29066   L 115.49761,195.60684   L 118.09711,199.09045  "
     id="path151" />
  <path
     style="fill:none;stroke:#000000;stroke-width:0.95981574px;stroke-linecap:round;stroke-linejoin:round;stroke-miterlimit:4;stroke-dasharray:none;stroke-opacity:1;"
     d="  M 108.37898,191.92301   L 117.93714,190.28131  "
     id="path152" />
  <path
     style="fill:none;stroke:#000000;stroke-width:0.95981574px;stroke-linecap:round;stroke-linejoin:round;stroke-miterlimit:4;stroke-dasharray:none;stroke-opacity:1;"
     d="  M 122.21632,178.62921   L 113.37802,180.07071  "
     id="path153" />
  <path
     style="fill:none;stroke:#000000;stroke-width:0.95981574px;stroke-linecap:round;stroke-linejoin:round;stroke-miterlimit:4;stroke-dasharray:none;stroke-opacity:1;"
     d="  M 130.09481,173.90431   L 130.37475,174.94539   L 130.25478,174.74518   L 130.09481,198.24958   L 129.93484,196.60788   L 130.09481,194.56576  "
     id="path154" />
  <path
     style="fill:none;stroke:#000000;stroke-width:0.95981574px;stroke-linecap:round;stroke-linejoin:round;stroke-miterlimit:4;stroke-dasharray:none;stroke-opacity:1;"
     d="  M 130.37475,184.15495   L 131.93445,185.79665   L 132.37437,186.79769  "
     id="path155" />
  <path
     style="fill:none;stroke:#000000;stroke-width:0.95981574px;stroke-linecap:round;stroke-linejoin:round;stroke-miterlimit:4;stroke-dasharray:none;stroke-opacity:1;"
     d="  M 130.25478,183.51428   L 128.65508,186.59748   L 127.37533,188.83981   L 125.65566,191.28235  "
     id="path156" />
  <path
     style="fill:none;stroke:#000000;stroke-width:0.95981574px;stroke-linecap:round;stroke-linejoin:round;stroke-miterlimit:4;stroke-dasharray:none;stroke-opacity:1;"
     d="  M 126.93541,182.91366   L 132.25439,181.47216  "
     id="path157" />
  <path
     style="fill:none;stroke:#000000;stroke-width:0.95981574px;stroke-linecap:round;stroke-linejoin:round;stroke-miterlimit:4;stroke-dasharray:none;stroke-opacity:1;"
     d="  M 133.81409,182.31304   L 140.5328,181.07175   L 140.09289,180.87154   L 139.09308,181.27195  "
     id="path158" />
  <path
     style="fill:none;stroke:#000000;stroke-width:0.95981574px;stroke-linecap:round;stroke-linejoin:round;stroke-miterlimit:4;stroke-dasharray:none;stroke-opacity:1;"
     d="  M 135.09385,174.74518   L 135.93369,176.38688   L 136.53357,177.58813   L 136.53357,179.22983  "
     id="path159" />
  <path
     style="fill:none;stroke:#000000;stroke-width:0.95981574px;stroke-linecap:round;stroke-linejoin:round;stroke-miterlimit:4;stroke-dasharray:none;stroke-opacity:1;"
     d="  M 136.53357,182.11283   L 136.3736,195.80704  "
     id="path160" />
  <path
     style="fill:none;stroke:#000000;stroke-width:0.95981574px;stroke-linecap:round;stroke-linejoin:round;stroke-miterlimit:4;stroke-dasharray:none;stroke-opacity:1;"
     d="  M 133.37418,188.4394   L 133.81409,188.6396   L 139.97291,187.83877   L 139.533,187.63856   L 138.09327,187.83877  "
     id="path161" />
  <path
     style="fill:none;stroke:#000000;stroke-width:0.95981574px;stroke-linecap:round;stroke-linejoin:round;stroke-miterlimit:4;stroke-dasharray:none;stroke-opacity:1;"
     d="  M 131.65451,196.40767   L 141.0927,195.40663   L 140.37283,195.40663   L 138.65316,195.60684  "
     id="path162" />
  <path
     style="fill:none;stroke:#000000;stroke-width:0.95981574px;stroke-linecap:round;stroke-linejoin:round;stroke-miterlimit:4;stroke-dasharray:none;stroke-opacity:1;"
     d="  M 145.97176,175.54601   L 150.81083,174.74518   L 150.25094,174.30472   L 150.25094,180.67133  "
     id="path163" />
  <path
     style="fill:none;stroke:#000000;stroke-width:0.95981574px;stroke-linecap:round;stroke-linejoin:round;stroke-miterlimit:4;stroke-dasharray:none;stroke-opacity:1;"
     d="  M 146.69162,177.18771   L 147.69143,177.58813   L 147.97137,178.429  "
     id="path164" />
  <path
     style="fill:none;stroke:#000000;stroke-width:0.95981574px;stroke-linecap:round;stroke-linejoin:round;stroke-miterlimit:4;stroke-dasharray:none;stroke-opacity:1;"
     d="  M 145.65182,181.07175   L 149.25113,178.82942  "
     id="path165" />
  <path
     style="fill:none;stroke:#000000;stroke-width:0.95981574px;stroke-linecap:round;stroke-linejoin:round;stroke-miterlimit:4;stroke-dasharray:none;stroke-opacity:1;"
     d="  M 152.09058,174.94539   L 156.6897,174.10451   L 156.24979,173.50389   L 155.80987,179.83046  "
     id="path166" />
  <path
     style="fill:none;stroke:#000000;stroke-width:0.95981574px;stroke-linecap:round;stroke-linejoin:round;stroke-miterlimit:4;stroke-dasharray:none;stroke-opacity:1;"
     d="  M 151.97061,176.38688   L 153.25036,176.98751   L 153.53031,177.38792  "
     id="path167" />
  <path
     style="fill:none;stroke:#000000;stroke-width:0.95981574px;stroke-linecap:round;stroke-linejoin:round;stroke-miterlimit:4;stroke-dasharray:none;stroke-opacity:1;"
     d="  M 151.81064,179.63025   L 154.53012,177.98855  "
     id="path168" />
  <path
     style="fill:none;stroke:#000000;stroke-width:0.95981574px;stroke-linecap:round;stroke-linejoin:round;stroke-miterlimit:4;stroke-dasharray:none;stroke-opacity:1;"
     d="  M 147.53146,181.47216   L 147.81141,182.71345   L 147.97137,188.03898   L 147.81141,187.19811   L 155.68989,185.99686   L 155.09001,186.19707   L 155.40995,180.87154   L 155.80987,181.27195   L 147.97137,182.51324  "
     id="path169" />
  <path
     style="fill:none;stroke:#000000;stroke-width:0.95981574px;stroke-linecap:round;stroke-linejoin:round;stroke-miterlimit:4;stroke-dasharray:none;stroke-opacity:1;"
     d="  M 151.37072,182.31304   L 151.37072,186.79769  "
     id="path170" />
  <path
     style="fill:none;stroke:#000000;stroke-width:0.95981574px;stroke-linecap:round;stroke-linejoin:round;stroke-miterlimit:4;stroke-dasharray:none;stroke-opacity:1;"
     d="  M 153.81025,183.95474   L 149.25113,184.55536  "
     id="path171" />
  <path
     style="fill:none;stroke:#000000;stroke-width:0.95981574px;stroke-linecap:round;stroke-linejoin:round;stroke-miterlimit:4;stroke-dasharray:none;stroke-opacity:1;"
     d="  M 149.53108,187.39831   L 149.69104,188.23919   L 149.69104,192.72384  "
     id="path172" />
  <path
     style="fill:none;stroke:#000000;stroke-width:0.95981574px;stroke-linecap:round;stroke-linejoin:round;stroke-miterlimit:4;stroke-dasharray:none;stroke-opacity:1;"
     d="  M 152.97042,186.9979   L 153.25036,187.83877   L 152.81045,192.32343  "
     id="path173" />
  <path
     style="fill:none;stroke:#000000;stroke-width:0.95981574px;stroke-linecap:round;stroke-linejoin:round;stroke-miterlimit:4;stroke-dasharray:none;stroke-opacity:1;"
     d="  M 146.25171,190.28131   L 157.24959,188.83981  "
     id="path174" />
  <path
     style="fill:none;stroke:#000000;stroke-width:0.95981574px;stroke-linecap:round;stroke-linejoin:round;stroke-miterlimit:4;stroke-dasharray:none;stroke-opacity:1;"
     d="  M 143.97214,193.56472   L 159.08924,191.7228   L 158.40937,191.7228   L 156.96965,192.12322  "
     id="path175" />
  <path
     style="fill:none;stroke:#000000;stroke-width:0.95981574px;stroke-linecap:round;stroke-linejoin:round;stroke-miterlimit:4;stroke-dasharray:none;stroke-opacity:1;"
     d="  M 153.09039,194.56576   L 155.52992,196.80808   L 156.40975,198.65  "
     id="path176" />
  <path
     style="fill:none;stroke:#000000;stroke-width:0.95981574px;stroke-linecap:round;stroke-linejoin:round;stroke-miterlimit:4;stroke-dasharray:none;stroke-opacity:1;"
     d="  M 149.97099,194.36555   L 148.53127,196.40767   L 146.97157,197.84916   L 145.37187,198.8502  "
     id="path177" />
  <path
     style="fill:none;stroke:#000000;stroke-width:0.95981574px;stroke-linecap:round;stroke-linejoin:round;stroke-miterlimit:4;stroke-dasharray:none;stroke-opacity:1;"
     d="  M 164.96811,174.30472   L 165.12808,175.54601   L 163.52839,180.47112   L 162.4086,183.51428   L 162.12866,184.15495   L 161.80872,184.35516   L 165.528,183.11387   L 166.40784,181.27195   L 166.40784,180.07071   L 166.24787,181.47216   L 166.12789,182.31304   L 162.68855,189.68068   L 162.4086,189.88089   L 166.52781,187.83877  "
     id="path178" />
  <path
     style="fill:none;stroke:#000000;stroke-width:0.95981574px;stroke-linecap:round;stroke-linejoin:round;stroke-miterlimit:4;stroke-dasharray:none;stroke-opacity:1;"
     d="  M 161.80872,195.20642   L 166.40784,191.7228  "
     id="path179" />
  <path
     style="fill:none;stroke:#000000;stroke-width:0.95981574px;stroke-linecap:round;stroke-linejoin:round;stroke-miterlimit:4;stroke-dasharray:none;stroke-opacity:1;"
     d="  M 170.68701,173.30368   L 170.68701,174.10451   L 168.40745,181.47216   L 168.24748,181.27195   L 173.12655,180.47112  "
     id="path180" />
  <path
     style="fill:none;stroke:#000000;stroke-width:0.95981574px;stroke-linecap:round;stroke-linejoin:round;stroke-miterlimit:4;stroke-dasharray:none;stroke-opacity:1;"
     d="  M 169.52724,177.98855   L 173.84641,177.38792   L 173.96638,176.38688   L 174.12635,177.18771   L 173.96638,177.38792   L 172.40668,183.51428  "
     id="path181" />
  <path
     style="fill:none;stroke:#000000;stroke-width:0.95981574px;stroke-linecap:round;stroke-linejoin:round;stroke-miterlimit:4;stroke-dasharray:none;stroke-opacity:1;"
     d="  M 166.96773,184.75557   L 172.8466,183.51428   L 177.12578,182.51324  "
     id="path182" />
  <path
     style="fill:none;stroke:#000000;stroke-width:0.95981574px;stroke-linecap:round;stroke-linejoin:round;stroke-miterlimit:4;stroke-dasharray:none;stroke-opacity:1;"
     d="  M 171.24691,184.75557   L 170.40707,186.19707   L 168.52743,188.03898   L 166.52781,189.68068  "
     id="path183" />
  <path
     style="fill:none;stroke:#000000;stroke-width:0.95981574px;stroke-linecap:round;stroke-linejoin:round;stroke-miterlimit:4;stroke-dasharray:none;stroke-opacity:1;"
     d="  M 171.24691,188.03898   L 170.12712,189.68068   L 168.96734,191.28235   L 167.68759,192.72384   L 166.40784,193.76492   L 166.12789,194.16534  "
     id="path184" />
  <path
     style="fill:none;stroke:#000000;stroke-width:0.95981574px;stroke-linecap:round;stroke-linejoin:round;stroke-miterlimit:4;stroke-dasharray:none;stroke-opacity:1;"
     d="  M 175.40611,185.35619   L 175.12616,186.59748   L 174.12635,187.83877   L 173.12655,189.04002   L 172.68663,189.44043   L 171.68682,190.28131   L 171.68682,191.08214   L 171.24691,191.7228   L 169.96715,193.56472   L 168.6874,194.96617   L 167.68759,196.00725   L 166.68778,196.80808   L 165.40803,197.84916  "
     id="path185" />
  <path
     style="fill:none;stroke:#000000;stroke-width:0.95981574px;stroke-linecap:round;stroke-linejoin:round;stroke-miterlimit:4;stroke-dasharray:none;stroke-opacity:1;"
     d="  M 170.52704,185.99686   L 171.12693,188.03898   L 171.52685,190.0811   L 171.68682,191.5226   L 171.84679,193.36451   L 171.84679,195.60684   L 171.52685,197.24854   L 171.24691,198.65   L 171.12693,199.29066   L 169.68721,197.24854  "
     id="path186" />
  <path
     style="fill:none;stroke:#000000;stroke-width:0.95981574px;stroke-linecap:round;stroke-linejoin:round;stroke-miterlimit:4;stroke-dasharray:none;stroke-opacity:1;"
     d="  M 172.8466,189.24023   L 173.52647,191.5226   L 175.966,196.00725   L 177.68567,196.00725   L 175.966,195.80704  "
     id="path187" />
  <path
     style="fill:none;stroke:#000000;stroke-width:0.95981574px;stroke-linecap:round;stroke-linejoin:round;stroke-miterlimit:4;stroke-dasharray:none;stroke-opacity:1;"
     d="  M 33.593334,222.27452   L 34.753111,224.71706   L 34.91308,225.35772   L 35.033057,226.35876  "
     id="path188" />
  <path
     style="fill:none;stroke:#000000;stroke-width:0.95981574px;stroke-linecap:round;stroke-linejoin:round;stroke-miterlimit:4;stroke-dasharray:none;stroke-opacity:1;"
     d="  M 38.912312,221.6739   L 38.912312,222.87514   L 36.752727,226.55897  "
     id="path189" />
  <path
     style="fill:none;stroke:#000000;stroke-width:0.95981574px;stroke-linecap:round;stroke-linejoin:round;stroke-miterlimit:4;stroke-dasharray:none;stroke-opacity:1;"
     d="  M 36.312812,230.04259   L 37.752535,231.48408   L 38.312428,232.68533  "
     id="path190" />
  <path
     style="fill:none;stroke:#000000;stroke-width:0.95981574px;stroke-linecap:round;stroke-linejoin:round;stroke-miterlimit:4;stroke-dasharray:none;stroke-opacity:1;"
     d="  M 36.472781,214.90687   L 36.912696,216.34837   L 36.752727,216.74878   L 36.752727,222.67494   L 36.752727,225.55793   L 36.472781,227.60005   L 36.312812,229.24175   L 36.192835,231.08367   L 35.752919,232.92558   L 35.313004,234.52724   L 34.593142,235.96874   L 34.033249,237.41023   L 33.19341,238.85173  "
     id="path191" />
  <path
     style="fill:none;stroke:#000000;stroke-width:0.95981574px;stroke-linecap:round;stroke-linejoin:round;stroke-miterlimit:4;stroke-dasharray:none;stroke-opacity:1;"
     d="  M 40.911929,215.7077   L 41.191875,218.39049   L 41.63179,226.15855   L 41.471821,224.71706   L 46.910777,223.71602   L 46.350884,223.71602   L 47.030754,216.14816   L 47.190723,216.94899   L 41.311852,217.99007  "
     id="path192" />
  <path
     style="fill:none;stroke:#000000;stroke-width:0.95981574px;stroke-linecap:round;stroke-linejoin:round;stroke-miterlimit:4;stroke-dasharray:none;stroke-opacity:1;"
     d="  M 41.471821,221.47369   L 44.911161,220.43261  "
     id="path193" />
  <path
     style="fill:none;stroke:#000000;stroke-width:0.95981574px;stroke-linecap:round;stroke-linejoin:round;stroke-miterlimit:4;stroke-dasharray:none;stroke-opacity:1;"
     d="  M 40.312044,228.40088   L 47.350692,226.95938   L 46.630831,226.95938   L 45.631023,227.39984  "
     id="path194" />
  <path
     style="fill:none;stroke:#000000;stroke-width:0.95981574px;stroke-linecap:round;stroke-linejoin:round;stroke-miterlimit:4;stroke-dasharray:none;stroke-opacity:1;"
     d="  M 43.631407,228.00047   L 43.631407,240.25319   L 43.471437,238.65152   L 43.631407,237.21003  "
     id="path195" />
  <path
     style="fill:none;stroke:#000000;stroke-width:0.95981574px;stroke-linecap:round;stroke-linejoin:round;stroke-miterlimit:4;stroke-dasharray:none;stroke-opacity:1;"
     d="  M 39.312236,232.48512   L 48.630447,231.08367  "
     id="path196" />
  <path
     style="fill:none;stroke:#000000;stroke-width:0.95981574px;stroke-linecap:round;stroke-linejoin:round;stroke-miterlimit:4;stroke-dasharray:none;stroke-opacity:1;"
     d="  M 54.349349,215.94795   L 54.349349,217.1492   L 52.909625,221.87411   L 52.349733,223.71602   L 51.469902,225.55793   L 54.749272,224.51685  "
     id="path197" />
  <path
     style="fill:none;stroke:#000000;stroke-width:0.95981574px;stroke-linecap:round;stroke-linejoin:round;stroke-miterlimit:4;stroke-dasharray:none;stroke-opacity:1;"
     d="  M 55.349157,222.27452   L 55.189188,223.3156   L 53.069595,228.8013   L 52.029794,231.68429   L 51.629871,231.68429   L 55.189188,230.04259  "
     id="path198" />
  <path
     style="fill:none;stroke:#000000;stroke-width:0.95981574px;stroke-linecap:round;stroke-linejoin:round;stroke-miterlimit:4;stroke-dasharray:none;stroke-opacity:1;"
     d="  M 50.75004,236.6094   L 55.629103,233.32599  "
     id="path199" />
  <path
     style="fill:none;stroke:#000000;stroke-width:0.95981574px;stroke-linecap:round;stroke-linejoin:round;stroke-miterlimit:4;stroke-dasharray:none;stroke-opacity:1;"
     d="  M 56.348965,219.39153   L 57.068827,222.07431   L 57.068827,223.3156  "
     id="path200" />
  <path
     style="fill:none;stroke:#000000;stroke-width:0.95981574px;stroke-linecap:round;stroke-linejoin:round;stroke-miterlimit:4;stroke-dasharray:none;stroke-opacity:1;"
     d="  M 55.469134,227.60005   L 57.908666,226.55897   L 57.748696,226.15855   L 56.468942,230.88346   L 56.628911,231.48408   L 57.068827,232.68533   L 57.348773,233.32599   L 57.348773,234.32703   L 56.748888,236.36915  "
     id="path201" />
  <path
     style="fill:none;stroke:#000000;stroke-width:0.95981574px;stroke-linecap:round;stroke-linejoin:round;stroke-miterlimit:4;stroke-dasharray:none;stroke-opacity:1;"
     d="  M 55.189188,235.96874   L 56.188996,236.16895   L 57.748696,236.80961   L 59.468366,237.41023   L 61.348005,238.21107   L 62.787729,239.05194   L 64.067483,240.05298   L 66.626992,239.25215   L 64.067483,239.65256   L 62.787729,239.05194  "
     id="path202" />
  <path
     style="fill:none;stroke:#000000;stroke-width:0.95981574px;stroke-linecap:round;stroke-linejoin:round;stroke-miterlimit:4;stroke-dasharray:none;stroke-opacity:1;"
     d="  M 60.90809,215.10708   L 60.90809,216.54858   L 59.908282,219.39153   L 59.068443,221.47369   L 58.188612,223.51581  "
     id="path203" />
  <path
     style="fill:none;stroke:#000000;stroke-width:0.95981574px;stroke-linecap:round;stroke-linejoin:round;stroke-miterlimit:4;stroke-dasharray:none;stroke-opacity:1;"
     d="  M 60.068251,219.39153   L 60.788113,219.63178   L 64.627376,218.7909   L 64.347429,218.19028   L 62.62776,221.6739   L 61.188036,223.51581   L 59.628335,225.35772   L 58.348581,226.55897  "
     id="path204" />
  <path
     style="fill:none;stroke:#000000;stroke-width:0.95981574px;stroke-linecap:round;stroke-linejoin:round;stroke-miterlimit:4;stroke-dasharray:none;stroke-opacity:1;"
     d="  M 59.628335,221.23344   L 60.188228,221.23344   L 65.787153,226.35876   L 67.346854,225.95835   L 65.467214,225.95835   L 64.467406,225.35772  "
     id="path205" />
  <path
     style="fill:none;stroke:#000000;stroke-width:0.95981574px;stroke-linecap:round;stroke-linejoin:round;stroke-miterlimit:4;stroke-dasharray:none;stroke-opacity:1;"
     d="  M 61.627951,224.91726   L 61.787921,237.41023   L 61.627951,236.16895   L 61.787921,234.9677  "
     id="path206" />
  <path
     style="fill:none;stroke:#000000;stroke-width:0.95981574px;stroke-linecap:round;stroke-linejoin:round;stroke-miterlimit:4;stroke-dasharray:none;stroke-opacity:1;"
     d="  M 63.627568,226.55897   L 59.468366,227.80026  "
     id="path207" />
  <path
     style="fill:none;stroke:#000000;stroke-width:0.95981574px;stroke-linecap:round;stroke-linejoin:round;stroke-miterlimit:4;stroke-dasharray:none;stroke-opacity:1;"
     d="  M 59.908282,230.04259   L 63.787537,229.04155  "
     id="path208" />
  <path
     style="fill:none;stroke:#000000;stroke-width:0.95981574px;stroke-linecap:round;stroke-linejoin:round;stroke-miterlimit:4;stroke-dasharray:none;stroke-opacity:1;"
     d="  M 64.907322,231.48408   L 58.468558,232.92558  "
     id="path209" />
  <path
     style="fill:none;stroke:#000000;stroke-width:0.95981574px;stroke-linecap:round;stroke-linejoin:round;stroke-miterlimit:4;stroke-dasharray:none;stroke-opacity:1;"
     d="  M 76.06518,214.70666   L 77.224957,216.54858   L 77.504903,217.78987  "
     id="path210" />
  <path
     style="fill:none;stroke:#000000;stroke-width:0.95981574px;stroke-linecap:round;stroke-linejoin:round;stroke-miterlimit:4;stroke-dasharray:none;stroke-opacity:1;"
     d="  M 70.786193,220.43261   L 83.343782,218.5907  "
     id="path211" />
  <path
     style="fill:none;stroke:#000000;stroke-width:0.95981574px;stroke-linecap:round;stroke-linejoin:round;stroke-miterlimit:4;stroke-dasharray:none;stroke-opacity:1;"
     d="  M 73.625648,221.6739   L 73.905594,223.07535   L 74.065564,227.80026   L 73.785617,226.75918   L 80.504328,225.55793   L 79.904443,225.35772   L 80.224381,221.23344   L 80.504328,221.6739   L 73.905594,222.67494  "
     id="path212" />
  <path
     style="fill:none;stroke:#000000;stroke-width:0.95981574px;stroke-linecap:round;stroke-linejoin:round;stroke-miterlimit:4;stroke-dasharray:none;stroke-opacity:1;"
     d="  M 71.786001,238.65152   L 71.626032,239.65256   L 71.905978,240.69364   L 71.626032,232.48512   L 71.626032,229.84238   L 71.06614,228.00047  "
     id="path213" />
  <path
     style="fill:none;stroke:#000000;stroke-width:0.95981574px;stroke-linecap:round;stroke-linejoin:round;stroke-miterlimit:4;stroke-dasharray:none;stroke-opacity:1;"
     d="  M 71.506055,230.04259   L 77.224957,229.24175   L 83.223805,228.20067   L 83.223805,227.39984   L 83.783698,227.80026   L 83.343782,228.20067   L 82.903867,235.36811   L 82.623921,237.61044   L 82.223997,239.45235   L 81.904059,240.69364   L 79.904443,238.01086  "
     id="path214" />
  <path
     style="fill:none;stroke:#000000;stroke-width:0.95981574px;stroke-linecap:round;stroke-linejoin:round;stroke-miterlimit:4;stroke-dasharray:none;stroke-opacity:1;"
     d="  M 74.625456,231.48408   L 74.905402,232.68533   L 74.905402,237.61044   L 74.785425,236.36915   L 74.905402,236.36915   L 79.784466,235.56832   L 79.224573,235.56832   L 79.624496,231.28387   L 79.784466,231.48408   L 79.504519,231.8845   L 74.905402,232.68533  "
     id="path215" />
  <path
     style="fill:none;stroke:#000000;stroke-width:0.95981574px;stroke-linecap:round;stroke-linejoin:round;stroke-miterlimit:4;stroke-dasharray:none;stroke-opacity:1;"
     d="  M 95.061533,214.70666   L 96.341287,216.54858   L 96.661226,217.78987  "
     id="path216" />
  <path
     style="fill:none;stroke:#000000;stroke-width:0.95981574px;stroke-linecap:round;stroke-linejoin:round;stroke-miterlimit:4;stroke-dasharray:none;stroke-opacity:1;"
     d="  M 90.782354,217.78987   L 90.942324,220.63282   L 90.782354,224.51685   L 90.502408,227.60005   L 90.222462,231.28387   L 90.062493,231.68429   L 89.622577,234.12683   L 88.942708,236.80961   L 88.062876,238.85173   L 87.622961,239.85277  "
     id="path217" />
  <path
     style="fill:none;stroke:#000000;stroke-width:0.95981574px;stroke-linecap:round;stroke-linejoin:round;stroke-miterlimit:4;stroke-dasharray:none;stroke-opacity:1;"
     d="  M 91.062301,220.03219   L 102.06019,218.5907   L 101.38032,218.39049   L 100.34052,218.7909  "
     id="path218" />
  <path
     style="fill:none;stroke:#000000;stroke-width:0.95981574px;stroke-linecap:round;stroke-linejoin:round;stroke-miterlimit:4;stroke-dasharray:none;stroke-opacity:1;"
     d="  M 93.941748,220.43261   L 94.221694,221.23344   L 94.66161,228.20067   L 94.341671,227.60005   L 98.780819,226.95938   L 97.94098,226.95938   L 98.500872,220.43261   L 98.340903,219.39153  "
     id="path219" />
  <path
     style="fill:none;stroke:#000000;stroke-width:0.95981574px;stroke-linecap:round;stroke-linejoin:round;stroke-miterlimit:4;stroke-dasharray:none;stroke-opacity:1;"
     d="  M 91.782162,224.51685   L 102.06019,223.3156   L 101.5003,223.07535   L 100.9404,223.51581  "
     id="path220" />
  <path
     style="fill:none;stroke:#000000;stroke-width:0.95981574px;stroke-linecap:round;stroke-linejoin:round;stroke-miterlimit:4;stroke-dasharray:none;stroke-opacity:1;"
     d="  M 93.341863,230.443   L 99.500681,229.64217   L 99.060765,229.04155   L 98.340903,230.88346   L 97.501064,232.92558   L 96.781203,234.12683   L 95.941364,235.56832   L 95.941364,235.76853   L 94.50164,237.21003   L 93.061917,238.45131   L 91.622193,239.65256   L 89.782546,240.69364  "
     id="path221" />
  <path
     style="fill:none;stroke:#000000;stroke-width:0.95981574px;stroke-linecap:round;stroke-linejoin:round;stroke-miterlimit:4;stroke-dasharray:none;stroke-opacity:1;"
     d="  M 93.221886,231.8845   L 93.661802,232.08471   L 99.940596,239.85277   L 103.06,239.85277   L 102.94002,239.85277   L 100.06057,239.45235   L 98.780819,238.45131  "
     id="path222" />
  <path
     style="fill:none;stroke:#000000;stroke-width:0.95981574px;stroke-linecap:round;stroke-linejoin:round;stroke-miterlimit:4;stroke-dasharray:none;stroke-opacity:1;"
     d="  M 110.77852,220.7129   L 110.77852,238.69156  "
     id="path223" />
  <path
     style="fill:none;stroke:#000000;stroke-width:0.95981574px;stroke-linecap:round;stroke-linejoin:round;stroke-miterlimit:4;stroke-dasharray:none;stroke-opacity:1;"
     d="  M 104.49972,229.68221   L 117.05731,229.68221  "
     id="path224" />
  <path
     style="fill:none;stroke:#000000;stroke-width:0.95981574px;stroke-linecap:round;stroke-linejoin:round;stroke-miterlimit:4;stroke-dasharray:none;stroke-opacity:1;"
     d="  M 123.3361,222.71498   L 123.3361,221.71394   L 124.05597,219.71186   L 124.73584,218.71082   L 126.13557,217.70978   L 128.93503,217.70978   L 130.33476,218.71082   L 131.05462,219.71186   L 131.73449,221.71394   L 131.73449,223.71602   L 131.05462,225.67805   L 129.65489,228.68117   L 122.65624,238.69156   L 132.41436,238.69156  "
     id="path225" />
  <path
     style="fill:none;stroke:#000000;stroke-width:0.95981574px;stroke-linecap:round;stroke-linejoin:round;stroke-miterlimit:4;stroke-dasharray:none;stroke-opacity:1;"
     d="  M 136.61356,232.68533   L 136.61356,230.68325   L 137.33342,227.68013   L 138.73315,226.67909   L 140.09289,226.67909   L 141.49262,227.68013   L 144.29208,230.68325   L 145.69181,231.68429   L 147.09154,231.68429   L 148.49128,230.68325   L 149.17114,228.68117   L 149.17114,226.67909  "
     id="path226" />
  <path
     style="fill:none;stroke:#000000;stroke-width:0.95981574px;stroke-linecap:round;stroke-linejoin:round;stroke-miterlimit:4;stroke-dasharray:none;stroke-opacity:1;"
     d="  M 163.16846,217.70978   L 156.1698,217.70978   L 155.48993,226.67909   L 156.1698,225.67805   L 158.2494,224.67702   L 160.36899,224.67702   L 162.4486,225.67805   L 163.84833,227.68013   L 164.5282,230.68325   L 164.5282,232.68533   L 163.84833,235.68845   L 162.4486,237.69053   L 160.36899,238.69156   L 158.2494,238.69156   L 156.1698,237.69053   L 155.48993,236.68949   L 154.77007,234.68741  "
     id="path227" />
  <path
     style="fill:none;stroke:#000000;stroke-width:0.95981574px;stroke-linecap:round;stroke-linejoin:round;stroke-miterlimit:4;stroke-dasharray:none;stroke-opacity:1;"
     d="  M 40.991913,180.8315   L 48.990378,187.71865  "
     id="path228" />
  <path
     style="fill:none;stroke:#000000;stroke-width:0.95981574px;stroke-linecap:round;stroke-linejoin:round;stroke-miterlimit:4;stroke-dasharray:none;stroke-opacity:1;"
     d="  M 48.990378,187.71865   L 40.991913,193.24438  "
     id="path229" />
  <path
     style="fill:none;stroke:#000000;stroke-width:0.95981574px;stroke-linecap:round;stroke-linejoin:round;stroke-miterlimit:4;stroke-dasharray:none;stroke-opacity:1;"
     d="  M 143.89216,135.26419   L 129.37495,135.26419  "
     id="path230" />
  <path
     style="fill:none;stroke:#000000;stroke-width:0.95981574px;stroke-linecap:round;stroke-linejoin:round;stroke-miterlimit:4;stroke-dasharray:none;stroke-opacity:1;"
     d="  M 178.48552,148.23766   L 129.37495,148.23766  "
     id="path231" />
  <path
     style="fill:none;stroke:#000000;stroke-width:0.95981574px;stroke-linecap:round;stroke-linejoin:round;stroke-miterlimit:4;stroke-dasharray:none;stroke-opacity:1;"
     d="  M 138.05328,135.26419   L 138.05328,126.57517  "
     id="path232" />
  <path
     style="fill:none;stroke:#000000;stroke-width:0.95981574px;stroke-linecap:round;stroke-linejoin:round;stroke-miterlimit:4;stroke-dasharray:none;stroke-opacity:1;"
     d="  M 138.05328,148.23766   L 138.05328,156.88664  "
     id="path233" />
  <path
     style="fill:none;stroke:#000000;stroke-width:0.95981574px;stroke-linecap:round;stroke-linejoin:round;stroke-miterlimit:4;stroke-dasharray:none;stroke-opacity:1;"
     d="  M 106.45934,164.1742   L 106.45934,156.48622   L 114.41782,160.69059   L 114.41782,158.60843   L 115.41762,157.20697   L 116.41743,156.48622   L 119.41686,155.80552   L 121.41647,155.80552   L 124.4159,156.48622   L 126.41551,157.88768   L 127.37533,160.00988   L 127.37533,162.09204   L 126.41551,164.1742   L 125.41571,164.89495   L 123.41609,165.57566  "
     id="path234" />
  <path
     style="fill:none;stroke:#000000;stroke-width:0.95981574px;stroke-linecap:round;stroke-linejoin:round;stroke-miterlimit:4;stroke-dasharray:none;stroke-opacity:1;"
     d="  M 106.45934,143.19242   L 106.45934,150.1997   L 115.41762,150.92045   L 114.41782,150.1997   L 113.41801,148.11754   L 113.41801,145.99533   L 114.41782,143.91317   L 116.41743,142.51172   L 119.41686,141.79097   L 121.41647,141.79097   L 124.4159,142.51172   L 126.41551,143.91317   L 127.37533,145.99533   L 127.37533,148.11754   L 126.41551,150.1997   L 125.41571,150.92045   L 123.41609,151.60115  "
     id="path235" />
  <path
     style="fill:none;stroke:#000000;stroke-width:0.95981574px;stroke-linecap:round;stroke-linejoin:round;stroke-miterlimit:4;stroke-dasharray:none;stroke-opacity:1;"
     d="  M 138.05328,135.26419   L 138.05328,148.23766  "
     id="path236" />
  <path
     style="fill:#000000;fill-rule:evenodd;fill-opacity:1;stroke:none;"
     d="  M 133.45416,127.57621   L 130.37475,130.65941   L 145.69181,139.82893   z "
     id="path237" />
  <path
     style="fill:#000000;fill-rule:evenodd;fill-opacity:1;stroke:none;"
     d="  M 130.37475,130.65941   L 145.69181,139.82893   L 142.6124,142.91213   z "
     id="path238" />
  <path
     style="fill:#000000;fill-rule:evenodd;fill-opacity:1;stroke:none;"
     d="  M 142.6124,155.8856   L 145.69181,152.84244   L 130.37475,143.63288   z "
     id="path239" />
  <path
     style="fill:#000000;fill-rule:evenodd;fill-opacity:1;stroke:none;"
     d="  M 145.69181,152.84244   L 130.37475,143.63288   L 133.45416,140.58972   z "
     id="path240" />
  <path
     style="fill:none;stroke:#000000;stroke-width:0.95981574px;stroke-linecap:round;stroke-linejoin:round;stroke-miterlimit:4;stroke-dasharray:none;stroke-opacity:1;"
     d="  M 178.48552,262.9968   L 129.77487,262.9968  "
     id="path241" />
  <path
     style="fill:none;stroke:#000000;stroke-width:0.95981574px;stroke-linecap:round;stroke-linejoin:round;stroke-miterlimit:4;stroke-dasharray:none;stroke-opacity:1;"
     d="  M 139.57299,282.457   L 129.77487,282.457  "
     id="path242" />
  <path
     style="fill:none;stroke:#000000;stroke-width:0.95981574px;stroke-linecap:round;stroke-linejoin:round;stroke-miterlimit:4;stroke-dasharray:none;stroke-opacity:1;"
     d="  M 138.41321,262.9968   L 138.41321,254.30778  "
     id="path243" />
  <path
     style="fill:none;stroke:#000000;stroke-width:0.95981574px;stroke-linecap:round;stroke-linejoin:round;stroke-miterlimit:4;stroke-dasharray:none;stroke-opacity:1;"
     d="  M 138.41321,282.457   L 138.41321,291.10598  "
     id="path244" />
  <path
     style="fill:none;stroke:#000000;stroke-width:0.95981574px;stroke-linecap:round;stroke-linejoin:round;stroke-miterlimit:4;stroke-dasharray:none;stroke-opacity:1;"
     d="  M 138.41321,262.9968   L 138.41321,282.457  "
     id="path245" />
  <path
     style="fill:#000000;fill-rule:evenodd;fill-opacity:1;stroke:none;"
     d="  M 133.85409,255.34886   L 130.77468,258.39202   L 146.05174,267.56154   z "
     id="path246" />
  <path
     style="fill:#000000;fill-rule:evenodd;fill-opacity:1;stroke:none;"
     d="  M 130.77468,258.39202   L 146.05174,267.56154   L 143.01233,270.64474   z "
     id="path247" />
  <path
     style="fill:#000000;fill-rule:evenodd;fill-opacity:1;stroke:none;"
     d="  M 143.01233,290.10494   L 146.05174,287.06178   L 130.77468,277.85222   z "
     id="path248" />
  <path
     style="fill:#000000;fill-rule:evenodd;fill-opacity:1;stroke:none;"
     d="  M 146.05174,287.06178   L 130.77468,277.85222   L 133.85409,274.80906   z "
     id="path249" />
  <path
     style="fill:none;stroke:#000000;stroke-width:0.95981574px;stroke-linecap:round;stroke-linejoin:round;stroke-miterlimit:4;stroke-dasharray:none;stroke-opacity:1;"
     d="  M 106.85927,276.21051   L 106.85927,283.21779   L 115.81755,283.8985   L 114.81774,283.21779   L 113.81793,281.09559   L 113.81793,279.01342   L 114.81774,276.93126   L 116.81736,275.52981   L 119.81678,274.80906   L 121.8164,274.80906   L 124.81582,275.52981   L 126.77544,276.93126   L 127.77525,279.01342   L 127.77525,281.09559   L 126.77544,283.21779   L 125.81563,283.8985   L 123.81601,284.61924  "
     id="path250" />
  <path
     style="fill:none;stroke:#000000;stroke-width:0.95981574px;stroke-linecap:round;stroke-linejoin:round;stroke-miterlimit:4;stroke-dasharray:none;stroke-opacity:1;"
     d="  M 106.85927,266.44037   L 107.85908,268.52253   L 110.81851,269.92399   L 115.81755,270.60469   L 118.81697,270.60469   L 123.81601,269.92399   L 126.77544,268.52253   L 127.77525,266.44037   L 127.77525,265.03892   L 126.77544,262.91671   L 123.81601,261.51526   L 118.81697,260.83455   L 115.81755,260.83455   L 110.81851,261.51526   L 107.85908,262.91671   L 106.85927,265.03892   L 106.85927,266.44037   z "
     id="path251" />
  <path
     style="fill:#000000;fill-rule:evenodd;fill-opacity:1;stroke:none;"
     d="  M 39.192259,295.07009   L 40.272051,295.83088   L 48.270516,282.09663   z "
     id="path252" />
  <path
     style="fill:#000000;fill-rule:evenodd;fill-opacity:1;stroke:none;"
     d="  M 40.272051,295.83088   L 48.270516,282.09663   L 49.350309,282.81737   z "
     id="path253" />
  <path
     style="fill:#000000;fill-rule:evenodd;fill-opacity:1;stroke:none;"
     d="  M 43.831368,299.75496   L 45.151115,299.75496   L 43.831368,295.43047   z "
     id="path254" />
  <path
     style="fill:#000000;fill-rule:evenodd;fill-opacity:1;stroke:none;"
     d="  M 45.151115,299.75496   L 43.831368,295.43047   L 45.151115,295.43047   z "
     id="path255" />
  <path
     style="fill:#000000;fill-rule:evenodd;fill-opacity:1;stroke:none;"
     d="  M 31.513733,299.11429   L 31.513733,300.43566   L 44.511238,299.11429   z "
     id="path256" />
  <path
     style="fill:#000000;fill-rule:evenodd;fill-opacity:1;stroke:none;"
     d="  M 31.513733,300.43566   L 44.511238,299.11429   L 44.511238,300.43566   z "
     id="path257" />
  <path
     style="fill:#000000;fill-rule:evenodd;fill-opacity:1;stroke:none;"
     d="  M 169.7272,295.83088   L 170.80699,295.07009   L 160.64894,282.81737   z "
     id="path258" />
  <path
     style="fill:#000000;fill-rule:evenodd;fill-opacity:1;stroke:none;"
     d="  M 170.80699,295.07009   L 160.64894,282.81737   L 161.72873,282.09663   z "
     id="path259" />
  <path
     style="fill:#000000;fill-rule:evenodd;fill-opacity:1;stroke:none;"
     d="  M 164.84813,299.75496   L 166.16788,299.75496   L 164.84813,295.43047   z "
     id="path260" />
  <path
     style="fill:#000000;fill-rule:evenodd;fill-opacity:1;stroke:none;"
     d="  M 166.16788,299.75496   L 164.84813,295.43047   L 166.16788,295.43047   z "
     id="path261" />
  <path
     style="fill:#000000;fill-rule:evenodd;fill-opacity:1;stroke:none;"
     d="  M 199.12156,295.07009   L 200.16136,295.83088   L 208.19981,282.09663   z "
     id="path262" />
  <path
     style="fill:#000000;fill-rule:evenodd;fill-opacity:1;stroke:none;"
     d="  M 200.16136,295.83088   L 208.19981,282.09663   L 209.2796,282.81737   z "
     id="path263" />
  <path
     style="fill:#000000;fill-rule:evenodd;fill-opacity:1;stroke:none;"
     d="  M 191.44303,299.11429   L 191.44303,300.43566   L 204.40054,299.11429   z "
     id="path264" />
  <path
     style="fill:#000000;fill-rule:evenodd;fill-opacity:1;stroke:none;"
     d="  M 191.44303,300.43566   L 204.40054,299.11429   L 204.40054,300.43566   z "
     id="path265" />
  <path
     style="fill:#000000;fill-rule:evenodd;fill-opacity:1;stroke:none;"
     d="  M 203.76066,299.75496   L 205.04042,299.75496   L 203.76066,295.43047   z "
     id="path266" />
  <path
     style="fill:#000000;fill-rule:evenodd;fill-opacity:1;stroke:none;"
     d="  M 205.04042,299.75496   L 203.76066,295.43047   L 205.04042,295.43047   z "
     id="path267" />
  <path
     style="fill:#000000;fill-rule:evenodd;fill-opacity:1;stroke:none;"
     d="  M 178.48552,300.43566   L 178.48552,299.11429   L 165.528,300.43566   z "
     id="path268" />
  <path
     style="fill:#000000;fill-rule:evenodd;fill-opacity:1;stroke:none;"
     d="  M 178.48552,299.11429   L 165.528,300.43566   L 165.528,299.11429   z "
     id="path269" />
  <path
     style="fill:#000000;fill-rule:evenodd;fill-opacity:1;stroke:none;"
     d="  M 31.513733,294.7898   L 31.513733,296.11117   L 178.48552,294.7898   z "
     id="path270" />
  <path
     style="fill:#000000;fill-rule:evenodd;fill-opacity:1;stroke:none;"
     d="  M 31.513733,296.11117   L 178.48552,294.7898   L 178.48552,296.11117   z "
     id="path271" />
  <path
     style="fill:#000000;fill-rule:evenodd;fill-opacity:1;stroke:none;"
     d="  M 48.830408,281.81633   L 48.830408,283.09766   L 161.16884,281.81633   z "
     id="path272" />
  <path
     style="fill:#000000;fill-rule:evenodd;fill-opacity:1;stroke:none;"
     d="  M 48.830408,283.09766   L 161.16884,281.81633   L 161.16884,283.09766   z "
     id="path273" />
  <path
     style="fill:#000000;fill-rule:evenodd;fill-opacity:1;stroke:none;"
     d="  M 39.192259,134.86378   L 40.272051,135.62457   L 48.270516,121.89031   z "
     id="path274" />
  <path
     style="fill:#000000;fill-rule:evenodd;fill-opacity:1;stroke:none;"
     d="  M 40.272051,135.62457   L 48.270516,121.89031   L 49.350309,122.6511   z "
     id="path275" />
  <path
     style="fill:#000000;fill-rule:evenodd;fill-opacity:1;stroke:none;"
     d="  M 43.831368,139.58868   L 45.151115,139.58868   L 43.831368,135.26419   z "
     id="path276" />
  <path
     style="fill:#000000;fill-rule:evenodd;fill-opacity:1;stroke:none;"
     d="  M 45.151115,139.58868   L 43.831368,135.26419   L 45.151115,135.26419   z "
     id="path277" />
  <path
     style="fill:#000000;fill-rule:evenodd;fill-opacity:1;stroke:none;"
     d="  M 31.513733,138.90797   L 31.513733,140.22935   L 44.511238,138.90797   z "
     id="path278" />
  <path
     style="fill:#000000;fill-rule:evenodd;fill-opacity:1;stroke:none;"
     d="  M 31.513733,140.22935   L 44.511238,138.90797   L 44.511238,140.22935   z "
     id="path279" />
  <path
     style="fill:#000000;fill-rule:evenodd;fill-opacity:1;stroke:none;"
     d="  M 169.7272,135.62457   L 170.80699,134.86378   L 160.64894,122.6511   z "
     id="path280" />
  <path
     style="fill:#000000;fill-rule:evenodd;fill-opacity:1;stroke:none;"
     d="  M 170.80699,134.86378   L 160.64894,122.6511   L 161.72873,121.89031   z "
     id="path281" />
  <path
     style="fill:#000000;fill-rule:evenodd;fill-opacity:1;stroke:none;"
     d="  M 164.84813,139.58868   L 166.16788,139.58868   L 164.84813,135.26419   z "
     id="path282" />
  <path
     style="fill:#000000;fill-rule:evenodd;fill-opacity:1;stroke:none;"
     d="  M 166.16788,139.58868   L 164.84813,135.26419   L 166.16788,135.26419   z "
     id="path283" />
  <path
     style="fill:#000000;fill-rule:evenodd;fill-opacity:1;stroke:none;"
     d="  M 212.63896,148.87833   L 212.27903,147.597   L 216.79816,145.79512   z "
     id="path284" />
  <path
     style="fill:#000000;fill-rule:evenodd;fill-opacity:1;stroke:none;"
     d="  M 212.27903,147.597   L 216.79816,145.79512   L 215.71837,145.07438   z "
     id="path285" />
  <path
     style="fill:#000000;fill-rule:evenodd;fill-opacity:1;stroke:none;"
     d="  M 216.79816,145.79512   L 215.71837,145.07438   L 217.83796,140.70985   z "
     id="path286" />
  <path
     style="fill:#000000;fill-rule:evenodd;fill-opacity:1;stroke:none;"
     d="  M 215.71837,145.07438   L 217.83796,140.70985   L 216.55821,140.91005   z "
     id="path287" />
  <path
     style="fill:#000000;fill-rule:evenodd;fill-opacity:1;stroke:none;"
     d="  M 217.83796,140.70985   L 216.55821,140.91005   L 215.23846,136.22519   z "
     id="path288" />
  <path
     style="fill:#000000;fill-rule:evenodd;fill-opacity:1;stroke:none;"
     d="  M 216.55821,140.91005   L 215.23846,136.22519   L 214.43861,137.22623   z "
     id="path289" />
  <path
     style="fill:#000000;fill-rule:evenodd;fill-opacity:1;stroke:none;"
     d="  M 215.23846,136.22519   L 214.43861,137.22623   L 210.31941,134.58349   z "
     id="path290" />
  <path
     style="fill:#000000;fill-rule:evenodd;fill-opacity:1;stroke:none;"
     d="  M 214.43861,137.22623   L 210.31941,134.58349   L 210.39939,135.90486   z "
     id="path291" />
  <path
     style="fill:#000000;fill-rule:evenodd;fill-opacity:1;stroke:none;"
     d="  M 571.96997,296.11117   L 571.96997,294.7898   L 191.44303,296.11117   z "
     id="path292" />
  <path
     style="fill:#000000;fill-rule:evenodd;fill-opacity:1;stroke:none;"
     d="  M 571.96997,294.7898   L 191.44303,296.11117   L 191.44303,294.7898   z "
     id="path293" />
  <path
     style="fill:#000000;fill-rule:evenodd;fill-opacity:1;stroke:none;"
     d="  M 571.96997,283.09766   L 571.96997,281.81633   L 208.71971,283.09766   z "
     id="path294" />
  <path
     style="fill:#000000;fill-rule:evenodd;fill-opacity:1;stroke:none;"
     d="  M 571.96997,281.81633   L 208.71971,283.09766   L 208.71971,281.81633   z "
     id="path295" />
  <path
     style="fill:#000000;fill-rule:evenodd;fill-opacity:1;stroke:none;"
     d="  M 199.12156,134.86378   L 200.16136,135.62457   L 208.19981,121.89031   z "
     id="path296" />
  <path
     style="fill:#000000;fill-rule:evenodd;fill-opacity:1;stroke:none;"
     d="  M 200.16136,135.62457   L 208.19981,121.89031   L 209.2796,122.6511   z "
     id="path297" />
  <path
     style="fill:#000000;fill-rule:evenodd;fill-opacity:1;stroke:none;"
     d="  M 200.08137,147.597   L 200.08137,148.87833   L 212.439,147.597   z "
     id="path298" />
  <path
     style="fill:#000000;fill-rule:evenodd;fill-opacity:1;stroke:none;"
     d="  M 200.08137,148.87833   L 212.439,147.597   L 212.439,148.87833   z "
     id="path299" />
  <path
     style="fill:#000000;fill-rule:evenodd;fill-opacity:1;stroke:none;"
     d="  M 191.44303,138.90797   L 191.44303,140.22935   L 204.40054,138.90797   z "
     id="path300" />
  <path
     style="fill:#000000;fill-rule:evenodd;fill-opacity:1;stroke:none;"
     d="  M 191.44303,140.22935   L 204.40054,138.90797   L 204.40054,140.22935   z "
     id="path301" />
  <path
     style="fill:#000000;fill-rule:evenodd;fill-opacity:1;stroke:none;"
     d="  M 203.76066,139.58868   L 205.04042,139.58868   L 203.76066,135.26419   z "
     id="path302" />
  <path
     style="fill:#000000;fill-rule:evenodd;fill-opacity:1;stroke:none;"
     d="  M 205.04042,139.58868   L 203.76066,135.26419   L 205.04042,135.26419   z "
     id="path303" />
  <path
     style="fill:#000000;fill-rule:evenodd;fill-opacity:1;stroke:none;"
     d="  M 571.96997,135.90486   L 571.96997,134.58349   L 191.44303,135.90486   z "
     id="path304" />
  <path
     style="fill:#000000;fill-rule:evenodd;fill-opacity:1;stroke:none;"
     d="  M 571.96997,134.58349   L 191.44303,135.90486   L 191.44303,134.58349   z "
     id="path305" />
  <path
     style="fill:#000000;fill-rule:evenodd;fill-opacity:1;stroke:none;"
     d="  M 571.96997,122.89135   L 571.96997,121.61002   L 208.71971,122.89135   z "
     id="path306" />
  <path
     style="fill:#000000;fill-rule:evenodd;fill-opacity:1;stroke:none;"
     d="  M 571.96997,121.61002   L 208.71971,122.89135   L 208.71971,121.61002   z "
     id="path307" />
  <path
     style="fill:#000000;fill-rule:evenodd;fill-opacity:1;stroke:none;"
     d="  M 178.48552,140.22935   L 178.48552,138.90797   L 165.528,140.22935   z "
     id="path308" />
  <path
     style="fill:#000000;fill-rule:evenodd;fill-opacity:1;stroke:none;"
     d="  M 178.48552,138.90797   L 165.528,140.22935   L 165.528,138.90797   z "
     id="path309" />
  <path
     style="fill:#000000;fill-rule:evenodd;fill-opacity:1;stroke:none;"
     d="  M 31.513733,134.58349   L 31.513733,135.90486   L 178.48552,134.58349   z "
     id="path310" />
  <path
     style="fill:#000000;fill-rule:evenodd;fill-opacity:1;stroke:none;"
     d="  M 31.513733,135.90486   L 178.48552,134.58349   L 178.48552,135.90486   z "
     id="path311" />
  <path
     style="fill:#000000;fill-rule:evenodd;fill-opacity:1;stroke:none;"
     d="  M 48.830408,121.61002   L 48.830408,122.89135   L 161.16884,121.61002   z "
     id="path312" />
  <path
     style="fill:#000000;fill-rule:evenodd;fill-opacity:1;stroke:none;"
     d="  M 48.830408,122.89135   L 161.16884,121.61002   L 161.16884,122.89135   z "
     id="path313" />
  <path
     style="fill:#000000;fill-rule:evenodd;fill-opacity:1;stroke:none;"
     d="  M 30.873856,421.8417   L 32.193602,421.8417   L 30.873856,18.743226   z "
     id="path314" />
  <path
     style="fill:#000000;fill-rule:evenodd;fill-opacity:1;stroke:none;"
     d="  M 32.193602,421.8417   L 30.873856,18.743226   L 32.193602,18.743226   z "
     id="path315" />
  <path
     style="fill:#000000;fill-rule:evenodd;fill-opacity:1;stroke:none;"
     d="  M 17.916343,421.8417   L 19.196098,421.8417   L 17.916343,18.743226   z "
     id="path316" />
  <path
     style="fill:#000000;fill-rule:evenodd;fill-opacity:1;stroke:none;"
     d="  M 19.196098,421.8417   L 17.916343,18.743226   L 19.196098,18.743226   z "
     id="path317" />
  <path
     style="fill:#000000;fill-rule:evenodd;fill-opacity:1;stroke:none;"
     d="  M 177.84564,421.8417   L 179.12539,421.8417   L 177.84564,18.743226   z "
     id="path318" />
  <path
     style="fill:#000000;fill-rule:evenodd;fill-opacity:1;stroke:none;"
     d="  M 179.12539,421.8417   L 177.84564,18.743226   L 179.12539,18.743226   z "
     id="path319" />
  <path
     style="fill:#000000;fill-rule:evenodd;fill-opacity:1;stroke:none;"
     d="  M 199.44149,262.9968   L 200.72125,262.9968   L 199.44149,148.23766   z "
     id="path320" />
  <path
     style="fill:#000000;fill-rule:evenodd;fill-opacity:1;stroke:none;"
     d="  M 200.72125,262.9968   L 199.44149,148.23766   L 200.72125,148.23766   z "
     id="path321" />
  <path
     style="fill:#000000;fill-rule:evenodd;fill-opacity:1;stroke:none;"
     d="  M 190.80315,421.8417   L 192.08291,421.8417   L 190.80315,18.743226   z "
     id="path322" />
  <path
     style="fill:#000000;fill-rule:evenodd;fill-opacity:1;stroke:none;"
     d="  M 192.08291,421.8417   L 190.80315,18.743226   L 192.08291,18.743226   z "
     id="path323" />
  <path
     style="fill:#000000;fill-rule:evenodd;fill-opacity:1;stroke:none;"
     d="  M 217.35805,275.64993   L 216.19828,276.21051   L 200.20135,262.35613   z "
     id="path324" />
  <path
     style="fill:#000000;fill-rule:evenodd;fill-opacity:1;stroke:none;"
     d="  M 216.19828,276.21051   L 200.20135,262.35613   L 199.96139,263.63746   z "
     id="path325" />
  <path
     style="fill:#000000;fill-rule:evenodd;fill-opacity:1;stroke:none;"
     d="  M 214.31864,283.05762   L 213.87872,281.85638   L 217.47803,280.01446   z "
     id="path326" />
  <path
     style="fill:#000000;fill-rule:evenodd;fill-opacity:1;stroke:none;"
     d="  M 213.87872,281.85638   L 217.47803,280.01446   L 216.27826,279.53396   z "
     id="path327" />
  <path
     style="fill:#000000;fill-rule:evenodd;fill-opacity:1;stroke:none;"
     d="  M 217.47803,280.01446   L 216.27826,279.53396   L 217.35805,275.64993   z "
     id="path328" />
  <path
     style="fill:#000000;fill-rule:evenodd;fill-opacity:1;stroke:none;"
     d="  M 216.27826,279.53396   L 217.35805,275.64993   L 216.19828,276.21051   z "
     id="path329" />
  <path
     style="fill:none;stroke:#000000;stroke-width:0.95981574px;stroke-linecap:round;stroke-linejoin:round;stroke-miterlimit:4;stroke-dasharray:none;stroke-opacity:1;"
     d="  M -0.32015553,421.8417   L 93.781778,421.8417   L 99.820619,402.82196   L 110.17863,440.90149   L 116.25746,421.8417   L 217.35805,421.8417  "
     id="path330" />
  <path
     style="fill:none;stroke:#000000;stroke-width:0.95981574px;stroke-linecap:round;stroke-linejoin:round;stroke-miterlimit:4;stroke-dasharray:none;stroke-opacity:1;"
     d="  M -0.32015553,18.743226   L 93.781778,18.743226   L 99.820619,-0.31656052   L 110.17863,37.803013   L 116.25746,18.743226   L 217.35805,18.743226  "
     id="path331" />
</svg>
