<?xml version="1.0" encoding="UTF-8" standalone="no"?>
<svg
   version="1.0"
   width="118.97895mm"
   height="33.421052mm"
   id="svg82"
   sodipodi:docname="image1174.wmf"
   xmlns:inkscape="http://www.inkscape.org/namespaces/inkscape"
   xmlns:sodipodi="http://sodipodi.sourceforge.net/DTD/sodipodi-0.dtd"
   xmlns="http://www.w3.org/2000/svg"
   xmlns:svg="http://www.w3.org/2000/svg">
  <sodipodi:namedview
     id="namedview82"
     pagecolor="#ffffff"
     bordercolor="#000000"
     borderopacity="0.25"
     inkscape:showpageshadow="2"
     inkscape:pageopacity="0.0"
     inkscape:pagecheckerboard="0"
     inkscape:deskcolor="#d1d1d1"
     inkscape:document-units="mm" />
  <defs
     id="defs1">
    <pattern
       id="WMFhbasepattern"
       patternUnits="userSpaceOnUse"
       width="6"
       height="6"
       x="0"
       y="0" />
  </defs>
  <text
     xml:space="preserve"
     style="font-size:22.250000px;font-style:normal;font-variant:normal;font-weight:400;font-stretch:Condensed;line-height:125.000000%;letter-spacing:0px;word-spacing:0px;fill:#000000;fill-opacity:1;stroke:none;font-family:Times New Roman;text-align:start;text-anchor:start;"
     transform="matrix(1.000000,-0.000000,0.000000,1.000000,0.000000,24.252632)"
     x="0.000000"
     y="0.000000"
     id="text2"><tspan
       sodipodi:role="line"
       x="0.000000"
       y="0.000000"
       id="tspan2"><tspan
         dx="0.000000"
         dy="0.000000"
         style="fill:#000000;font-size:22.250000px;font-style:normal;font-variant:normal;font-weight:400;font-stretch:Condensed;font-family:Times New Roman;"
         id="tspan1"> </tspan></tspan></text>
  <path
     style="fill:none;stroke:#000000;stroke-width:1.2631578px;stroke-linecap:round;stroke-linejoin:round;stroke-miterlimit:4;stroke-dasharray:none;stroke-opacity:1;"
     d="  M 319.07368,17.431579   L 329.17895,16.421053  "
     id="path2" />
  <path
     style="fill:none;stroke:#000000;stroke-width:1.2631578px;stroke-linecap:round;stroke-linejoin:round;stroke-miterlimit:4;stroke-dasharray:none;stroke-opacity:1;"
     d="  M 329.17895,16.421053   L 326.14737,18.694737  "
     id="path3" />
  <path
     style="fill:none;stroke:#000000;stroke-width:1.2631578px;stroke-linecap:round;stroke-linejoin:round;stroke-miterlimit:4;stroke-dasharray:none;stroke-opacity:1;"
     d="  M 328.16842,21.978947   L 326.14737,18.694737  "
     id="path4" />
  <path
     style="fill:none;stroke:#000000;stroke-width:1.2631578px;stroke-linecap:round;stroke-linejoin:round;stroke-miterlimit:4;stroke-dasharray:none;stroke-opacity:1;"
     d="  M 319.07368,17.431579   L 328.16842,21.978947  "
     id="path5" />
  <path
     style="fill:#000000;fill-rule:evenodd;fill-opacity:1;stroke:none;"
     d="  M 329.17895,16.421053   L 319.07368,17.431579   L 327.91579,17.431579   L 329.17895,16.421053  z "
     id="path6" />
  <path
     style="fill:none;stroke:#000000;stroke-width:1.2631578px;stroke-linecap:round;stroke-linejoin:round;stroke-miterlimit:4;stroke-dasharray:none;stroke-opacity:1;"
     d="  M 329.17895,16.421053   L 319.07368,17.431579   L 327.91579,17.431579   L 329.17895,16.421053  z "
     id="path7" />
  <path
     style="fill:#000000;fill-rule:evenodd;fill-opacity:1;stroke:none;"
     d="  M 319.07368,17.431579   L 321.6,18.694737   L 326.14737,18.694737   L 319.07368,17.431579  z "
     id="path8" />
  <path
     style="fill:none;stroke:#000000;stroke-width:1.2631578px;stroke-linecap:round;stroke-linejoin:round;stroke-miterlimit:4;stroke-dasharray:none;stroke-opacity:1;"
     d="  M 319.07368,17.431579   L 321.6,18.694737   L 326.14737,18.694737   L 319.07368,17.431579  z "
     id="path9" />
  <path
     style="fill:#000000;fill-rule:evenodd;fill-opacity:1;stroke:none;"
     d="  M 319.07368,17.431579   L 327.91579,17.431579   L 326.14737,18.694737   L 319.07368,17.431579  z "
     id="path10" />
  <path
     style="fill:none;stroke:#000000;stroke-width:1.2631578px;stroke-linecap:round;stroke-linejoin:round;stroke-miterlimit:4;stroke-dasharray:none;stroke-opacity:1;"
     d="  M 319.07368,17.431579   L 327.91579,17.431579   L 326.14737,18.694737   L 319.07368,17.431579  z "
     id="path11" />
  <path
     style="fill:#000000;fill-rule:evenodd;fill-opacity:1;stroke:none;"
     d="  M 321.6,18.694737   L 326.14737,18.694737   L 328.16842,21.978947   L 321.6,18.694737  z "
     id="path12" />
  <path
     style="fill:none;stroke:#000000;stroke-width:1.2631578px;stroke-linecap:round;stroke-linejoin:round;stroke-miterlimit:4;stroke-dasharray:none;stroke-opacity:1;"
     d="  M 321.6,18.694737   L 326.14737,18.694737   L 328.16842,21.978947   L 321.6,18.694737  z "
     id="path13" />
  <path
     style="fill:#000000;fill-rule:evenodd;fill-opacity:1;stroke:none;"
     d="  M 348.88421,20.210526   L 350.90526,23.494737   L 355.2,23.494737   L 348.88421,20.210526  z "
     id="path14" />
  <path
     style="fill:none;stroke:#000000;stroke-width:1.2631578px;stroke-linecap:round;stroke-linejoin:round;stroke-miterlimit:4;stroke-dasharray:none;stroke-opacity:1;"
     d="  M 348.88421,20.210526   L 350.90526,23.494737   L 355.2,23.494737   L 348.88421,20.210526  z "
     id="path15" />
  <path
     style="fill:#000000;fill-rule:evenodd;fill-opacity:1;stroke:none;"
     d="  M 350.90526,23.494737   L 349.13684,24.757895   L 357.72632,24.757895   L 350.90526,23.494737  z "
     id="path16" />
  <path
     style="fill:none;stroke:#000000;stroke-width:1.2631578px;stroke-linecap:round;stroke-linejoin:round;stroke-miterlimit:4;stroke-dasharray:none;stroke-opacity:1;"
     d="  M 350.90526,23.494737   L 349.13684,24.757895   L 357.72632,24.757895   L 350.90526,23.494737  z "
     id="path17" />
  <path
     style="fill:#000000;fill-rule:evenodd;fill-opacity:1;stroke:none;"
     d="  M 350.90526,23.494737   L 355.2,23.494737   L 357.72632,24.757895   L 350.90526,23.494737  z "
     id="path18" />
  <path
     style="fill:none;stroke:#000000;stroke-width:1.2631578px;stroke-linecap:round;stroke-linejoin:round;stroke-miterlimit:4;stroke-dasharray:none;stroke-opacity:1;"
     d="  M 350.90526,23.494737   L 355.2,23.494737   L 357.72632,24.757895   L 350.90526,23.494737  z "
     id="path19" />
  <path
     style="fill:#000000;fill-rule:evenodd;fill-opacity:1;stroke:none;"
     d="  M 349.13684,24.757895   L 357.72632,24.757895   L 347.62105,25.768421   L 349.13684,24.757895  z "
     id="path20" />
  <path
     style="fill:none;stroke:#000000;stroke-width:1.2631578px;stroke-linecap:round;stroke-linejoin:round;stroke-miterlimit:4;stroke-dasharray:none;stroke-opacity:1;"
     d="  M 349.13684,24.757895   L 357.72632,24.757895   L 347.62105,25.768421   L 349.13684,24.757895  z "
     id="path21" />
  <path
     style="fill:none;stroke:#000000;stroke-width:1.2631578px;stroke-linecap:round;stroke-linejoin:round;stroke-miterlimit:4;stroke-dasharray:none;stroke-opacity:1;"
     d="  M 357.72632,24.757895   L 347.62105,25.768421  "
     id="path22" />
  <path
     style="fill:none;stroke:#000000;stroke-width:1.2631578px;stroke-linecap:round;stroke-linejoin:round;stroke-miterlimit:4;stroke-dasharray:none;stroke-opacity:1;"
     d="  M 347.62105,25.768421   L 350.90526,23.494737  "
     id="path23" />
  <path
     style="fill:none;stroke:#000000;stroke-width:1.2631578px;stroke-linecap:round;stroke-linejoin:round;stroke-miterlimit:4;stroke-dasharray:none;stroke-opacity:1;"
     d="  M 348.88421,20.210526   L 350.90526,23.494737  "
     id="path24" />
  <path
     style="fill:none;stroke:#000000;stroke-width:1.2631578px;stroke-linecap:round;stroke-linejoin:round;stroke-miterlimit:4;stroke-dasharray:none;stroke-opacity:1;"
     d="  M 357.72632,24.757895   L 348.88421,20.210526  "
     id="path25" />
  <path
     style="fill:none;stroke:#000000;stroke-width:1.2631578px;stroke-linecap:round;stroke-linejoin:round;stroke-miterlimit:4;stroke-dasharray:none;stroke-opacity:1;"
     d="  M 357.72632,24.757895   L 319.07368,17.431579  "
     id="path26" />
  <path
     style="fill:none;stroke:#000000;stroke-width:1.2631578px;stroke-linecap:round;stroke-linejoin:round;stroke-miterlimit:4;stroke-dasharray:none;stroke-opacity:1;"
     d="  M 98.273684,42.189474   L 59.368421,36.884211  "
     id="path27" />
  <path
     style="fill:none;stroke:#000000;stroke-width:1.2631578px;stroke-linecap:round;stroke-linejoin:round;stroke-miterlimit:4;stroke-dasharray:none;stroke-opacity:1;"
     d="  M 98.273684,42.189474   L 88.926316,38.147368  "
     id="path28" />
  <path
     style="fill:none;stroke:#000000;stroke-width:1.2631578px;stroke-linecap:round;stroke-linejoin:round;stroke-miterlimit:4;stroke-dasharray:none;stroke-opacity:1;"
     d="  M 88.926316,38.147368   L 91.2,41.431579  "
     id="path29" />
  <path
     style="fill:none;stroke:#000000;stroke-width:1.2631578px;stroke-linecap:round;stroke-linejoin:round;stroke-miterlimit:4;stroke-dasharray:none;stroke-opacity:1;"
     d="  M 88.168421,43.957895   L 91.2,41.431579  "
     id="path30" />
  <path
     style="fill:none;stroke:#000000;stroke-width:1.2631578px;stroke-linecap:round;stroke-linejoin:round;stroke-miterlimit:4;stroke-dasharray:none;stroke-opacity:1;"
     d="  M 98.273684,42.189474   L 88.168421,43.957895  "
     id="path31" />
  <path
     style="fill:#000000;fill-rule:evenodd;fill-opacity:1;stroke:none;"
     d="  M 88.926316,38.147368   L 91.2,41.431579   L 96,41.431579   L 88.926316,38.147368  z "
     id="path32" />
  <path
     style="fill:none;stroke:#000000;stroke-width:1.2631578px;stroke-linecap:round;stroke-linejoin:round;stroke-miterlimit:4;stroke-dasharray:none;stroke-opacity:1;"
     d="  M 88.926316,38.147368   L 91.2,41.431579   L 96,41.431579   L 88.926316,38.147368  z "
     id="path33" />
  <path
     style="fill:#000000;fill-rule:evenodd;fill-opacity:1;stroke:none;"
     d="  M 91.2,41.431579   L 90.189474,42.189474   L 98.273684,42.189474   L 91.2,41.431579  z "
     id="path34" />
  <path
     style="fill:none;stroke:#000000;stroke-width:1.2631578px;stroke-linecap:round;stroke-linejoin:round;stroke-miterlimit:4;stroke-dasharray:none;stroke-opacity:1;"
     d="  M 91.2,41.431579   L 90.189474,42.189474   L 98.273684,42.189474   L 91.2,41.431579  z "
     id="path35" />
  <path
     style="fill:#000000;fill-rule:evenodd;fill-opacity:1;stroke:none;"
     d="  M 91.2,41.431579   L 96,41.431579   L 98.273684,42.189474   L 91.2,41.431579  z "
     id="path36" />
  <path
     style="fill:none;stroke:#000000;stroke-width:1.2631578px;stroke-linecap:round;stroke-linejoin:round;stroke-miterlimit:4;stroke-dasharray:none;stroke-opacity:1;"
     d="  M 91.2,41.431579   L 96,41.431579   L 98.273684,42.189474   L 91.2,41.431579  z "
     id="path37" />
  <path
     style="fill:#000000;fill-rule:evenodd;fill-opacity:1;stroke:none;"
     d="  M 89.936842,42.189474   L 98.273684,42.189474   L 88.168421,43.957895   L 89.936842,42.189474  z "
     id="path38" />
  <path
     style="fill:none;stroke:#000000;stroke-width:1.2631578px;stroke-linecap:round;stroke-linejoin:round;stroke-miterlimit:4;stroke-dasharray:none;stroke-opacity:1;"
     d="  M 89.936842,42.189474   L 98.273684,42.189474   L 88.168421,43.957895   L 89.936842,42.189474  z "
     id="path39" />
  <path
     style="fill:#000000;fill-rule:evenodd;fill-opacity:1;stroke:none;"
     d="  M 69.221053,35.368421   L 59.368421,36.884211   L 67.452632,36.884211   L 69.221053,35.368421  z "
     id="path40" />
  <path
     style="fill:none;stroke:#000000;stroke-width:1.2631578px;stroke-linecap:round;stroke-linejoin:round;stroke-miterlimit:4;stroke-dasharray:none;stroke-opacity:1;"
     d="  M 69.221053,35.368421   L 59.368421,36.884211   L 67.452632,36.884211   L 69.221053,35.368421  z "
     id="path41" />
  <path
     style="fill:#000000;fill-rule:evenodd;fill-opacity:1;stroke:none;"
     d="  M 59.368421,36.884211   L 61.389474,37.894737   L 66.189474,37.894737   L 59.368421,36.884211  z "
     id="path42" />
  <path
     style="fill:none;stroke:#000000;stroke-width:1.2631578px;stroke-linecap:round;stroke-linejoin:round;stroke-miterlimit:4;stroke-dasharray:none;stroke-opacity:1;"
     d="  M 59.368421,36.884211   L 61.389474,37.894737   L 66.189474,37.894737   L 59.368421,36.884211  z "
     id="path43" />
  <path
     style="fill:#000000;fill-rule:evenodd;fill-opacity:1;stroke:none;"
     d="  M 59.368421,36.884211   L 67.452632,36.884211   L 66.189474,37.894737   L 59.368421,36.884211  z "
     id="path44" />
  <path
     style="fill:none;stroke:#000000;stroke-width:1.2631578px;stroke-linecap:round;stroke-linejoin:round;stroke-miterlimit:4;stroke-dasharray:none;stroke-opacity:1;"
     d="  M 59.368421,36.884211   L 67.452632,36.884211   L 66.189474,37.894737   L 59.368421,36.884211  z "
     id="path45" />
  <path
     style="fill:#000000;fill-rule:evenodd;fill-opacity:1;stroke:none;"
     d="  M 61.389474,37.894737   L 66.189474,37.894737   L 68.463158,41.178947   L 61.389474,37.894737  z "
     id="path46" />
  <path
     style="fill:none;stroke:#000000;stroke-width:1.2631578px;stroke-linecap:round;stroke-linejoin:round;stroke-miterlimit:4;stroke-dasharray:none;stroke-opacity:1;"
     d="  M 61.389474,37.894737   L 66.189474,37.894737   L 68.463158,41.178947   L 61.389474,37.894737  z "
     id="path47" />
  <path
     style="fill:none;stroke:#000000;stroke-width:1.2631578px;stroke-linecap:round;stroke-linejoin:round;stroke-miterlimit:4;stroke-dasharray:none;stroke-opacity:1;"
     d="  M 59.368421,36.884211   L 68.463158,41.178947  "
     id="path48" />
  <path
     style="fill:none;stroke:#000000;stroke-width:1.2631578px;stroke-linecap:round;stroke-linejoin:round;stroke-miterlimit:4;stroke-dasharray:none;stroke-opacity:1;"
     d="  M 68.463158,41.178947   L 66.189474,37.894737  "
     id="path49" />
  <path
     style="fill:none;stroke:#000000;stroke-width:1.2631578px;stroke-linecap:round;stroke-linejoin:round;stroke-miterlimit:4;stroke-dasharray:none;stroke-opacity:1;"
     d="  M 69.221053,35.368421   L 66.189474,37.894737  "
     id="path50" />
  <path
     style="fill:none;stroke:#000000;stroke-width:1.2631578px;stroke-linecap:round;stroke-linejoin:round;stroke-miterlimit:4;stroke-dasharray:none;stroke-opacity:1;"
     d="  M 59.368421,36.884211   L 69.221053,35.368421  "
     id="path51" />
  <path
     style="fill:none;stroke:#000000;stroke-width:1.2631578px;stroke-linecap:round;stroke-linejoin:round;stroke-miterlimit:4;stroke-dasharray:none;stroke-opacity:1;"
     d="  M 438.31579,104.84211   L 362.77895,88.168421  "
     id="path52" />
  <path
     style="fill:none;stroke:#000000;stroke-width:1.2631578px;stroke-linecap:round;stroke-linejoin:round;stroke-miterlimit:4;stroke-dasharray:none;stroke-opacity:1;"
     d="  M 359.74737,120.75789   L 248.33684,96.505263  "
     id="path53" />
  <path
     style="fill:none;stroke:#000000;stroke-width:1.2631578px;stroke-linecap:round;stroke-linejoin:round;stroke-miterlimit:4;stroke-dasharray:none;stroke-opacity:1;"
     d="  M 434.52632,27.536842   L 323.11579,6.3157895  "
     id="path54" />
  <path
     style="fill:none;stroke:#000000;stroke-width:1.2631578px;stroke-linecap:round;stroke-linejoin:round;stroke-miterlimit:4;stroke-dasharray:none;stroke-opacity:1;"
     d="  M 166.98947,107.87368   L 168.75789,107.87368   L 170.52632,107.87368   L 172.29474,107.62105   L 174.06316,107.36842   L 175.83158,106.86316   L 177.34737,106.35789   L 179.11579,105.85263   L 180.88421,105.09474   L 182.4,104.33684   L 183.91579,103.57895   L 185.43158,102.56842   L 186.94737,101.55789   L 188.46316,100.29474   L 189.97895,99.284211   L 191.24211,98.021053   L 192.50526,96.757895   L 193.76842,95.242105   L 195.03158,93.726316   L 196.04211,92.210526   L 197.30526,90.694737   L 198.06316,88.926316   L 199.07368,87.410526   L 199.83158,85.642105   L 200.58947,83.873684   L 201.34737,82.105263   L 201.85263,80.084211   L 202.35789,78.315789   L 202.86316,76.294737   L 203.11579,74.526316   L 203.36842,72.505263   L 203.36842,70.484211   L 203.36842,68.463158   L 203.36842,66.694737   L 203.36842,64.673684   L 203.11579,62.652632   L 202.86316,60.884211   L 202.35789,58.863158   L 201.85263,57.094737   L 201.34737,55.073684   L 200.58947,53.305263   L 199.83158,51.536842   L 199.07368,49.768421   L 198.06316,48   L 197.30526,46.484211   L 196.04211,44.968421   L 195.03158,43.452632   L 193.76842,41.936842   L 192.50526,40.421053   L 191.24211,39.157895   L 189.97895,37.894737   L 188.46316,36.884211   L 186.94737,35.621053   L 185.43158,34.610526   L 183.91579,33.6   L 182.4,32.842105   L 180.88421,32.084211   L 179.11579,31.326316   L 177.34737,30.821053   L 175.83158,30.315789   L 174.06316,29.810526   L 172.29474,29.557895   L 170.52632,29.305263   L 168.75789,29.305263   L 166.98947,29.052632   L 165.22105,29.305263   L 163.45263,29.305263   L 161.68421,29.557895   L 159.91579,29.810526   L 158.14737,30.315789   L 156.37895,30.821053   L 154.86316,31.326316   L 153.09474,32.084211   L 151.57895,32.842105   L 149.81053,33.6   L 148.29474,34.610526   L 146.77895,35.621053   L 145.51579,36.884211   L 144,37.894737   L 142.48421,39.157895   L 141.22105,40.421053   L 139.95789,41.936842   L 138.94737,43.452632   L 137.68421,44.968421   L 136.67368,46.484211   L 135.66316,48   L 134.90526,49.768421   L 134.14737,51.536842   L 133.38947,53.305263   L 132.63158,55.073684   L 132.12632,57.094737   L 131.62105,58.863158   L 131.11579,60.884211   L 130.86316,62.652632   L 130.61053,64.673684   L 130.35789,66.694737   L 130.35789,68.463158   L 130.35789,70.484211   L 130.61053,72.505263   L 130.86316,74.526316   L 131.11579,76.294737   L 131.62105,78.315789   L 132.12632,80.084211   L 132.63158,82.105263   L 133.38947,83.873684   L 134.14737,85.642105   L 134.90526,87.410526   L 135.66316,88.926316   L 136.67368,90.694737   L 137.68421,92.210526   L 138.94737,93.726316   L 139.95789,95.242105   L 141.22105,96.757895   L 142.48421,98.021053   L 144,99.284211   L 145.51579,100.29474   L 146.77895,101.55789   L 148.29474,102.56842   L 149.81053,103.57895   L 151.57895,104.33684   L 153.09474,105.09474   L 154.86316,105.85263   L 156.37895,106.35789   L 158.14737,106.86316   L 159.91579,107.36842   L 161.68421,107.62105   L 163.45263,107.87368   L 165.22105,107.87368   L 166.98947,107.87368  z "
     id="path55" />
  <path
     style="fill:none;stroke:#000000;stroke-width:1.2631578px;stroke-linecap:round;stroke-linejoin:round;stroke-miterlimit:4;stroke-dasharray:none;stroke-opacity:1;"
     d="  M 358.48421,41.684211   L 257.17895,22.231579  "
     id="path56" />
  <path
     style="fill:none;stroke:#000000;stroke-width:1.2631578px;stroke-linecap:round;stroke-linejoin:round;stroke-miterlimit:4;stroke-dasharray:none;stroke-opacity:1;"
     d="  M 435.28421,106.35789   L 436.29474,106.10526   L 437.30526,105.6   L 438.31579,104.84211   L 438.82105,103.83158   L 439.32632,102.56842   L 439.57895,101.55789  "
     id="path57" />
  <path
     style="fill:none;stroke:#000000;stroke-width:1.2631578px;stroke-linecap:round;stroke-linejoin:round;stroke-miterlimit:4;stroke-dasharray:none;stroke-opacity:1;"
     d="  M 439.57895,39.663158   L 439.32632,38.652632   L 439.07368,37.642105   L 438.56842,36.884211   L 437.81053,36.126316   L 436.8,35.368421   L 436.04211,35.115789   L 434.77895,34.863158   L 433.76842,34.863158  "
     id="path58" />
  <path
     style="fill:none;stroke:#000000;stroke-width:1.2631578px;stroke-linecap:round;stroke-linejoin:round;stroke-miterlimit:4;stroke-dasharray:none;stroke-opacity:1;"
     d="  M 367.07368,44.715789   L 365.81053,45.221053   L 364.8,45.726316   L 364.04211,46.484211   L 363.28421,47.494737   L 363.03158,48.505263   L 362.77895,49.768421  "
     id="path59" />
  <path
     style="fill:none;stroke:#000000;stroke-width:1.2631578px;stroke-linecap:round;stroke-linejoin:round;stroke-miterlimit:4;stroke-dasharray:none;stroke-opacity:1;"
     d="  M 362.77895,111.41053   L 363.03158,112.42105   L 363.28421,113.43158   L 363.78947,114.44211   L 364.54737,115.2   L 365.55789,115.70526   L 366.31579,116.21053   L 367.57895,116.46316   L 368.58947,116.46316  "
     id="path60" />
  <path
     style="fill:none;stroke:#000000;stroke-width:1.2631578px;stroke-linecap:round;stroke-linejoin:round;stroke-miterlimit:4;stroke-dasharray:none;stroke-opacity:1;"
     d="  M 368.58947,116.46316   L 435.28421,106.35789  "
     id="path61" />
  <path
     style="fill:none;stroke:#000000;stroke-width:1.2631578px;stroke-linecap:round;stroke-linejoin:round;stroke-miterlimit:4;stroke-dasharray:none;stroke-opacity:1;"
     d="  M 439.57895,39.663158   L 439.57895,101.55789  "
     id="path62" />
  <path
     style="fill:none;stroke:#000000;stroke-width:1.2631578px;stroke-linecap:round;stroke-linejoin:round;stroke-miterlimit:4;stroke-dasharray:none;stroke-opacity:1;"
     d="  M 367.07368,44.715789   L 433.76842,34.863158  "
     id="path63" />
  <path
     style="fill:none;stroke:#000000;stroke-width:1.2631578px;stroke-linecap:round;stroke-linejoin:round;stroke-miterlimit:4;stroke-dasharray:none;stroke-opacity:1;"
     d="  M 362.77895,49.768421   L 363.03158,111.41053  "
     id="path64" />
  <path
     style="fill:none;stroke:#000000;stroke-width:1.2631578px;stroke-linecap:round;stroke-linejoin:round;stroke-miterlimit:4;stroke-dasharray:none;stroke-opacity:1;"
     d="  M 355.45263,111.41053   L 355.45263,113.17895   L 355.95789,114.94737   L 356.46316,116.71579   L 357.47368,118.23158   L 358.48421,119.49474   L 359.74737,120.75789   L 361.26316,121.76842   L 362.77895,122.77895   L 364.29474,123.28421   L 366.06316,123.78947   L 367.83158,123.78947   L 369.6,123.78947  "
     id="path65" />
  <path
     style="fill:none;stroke:#000000;stroke-width:1.2631578px;stroke-linecap:round;stroke-linejoin:round;stroke-miterlimit:4;stroke-dasharray:none;stroke-opacity:1;"
     d="  M 436.29474,113.68421   L 438.06316,113.43158   L 439.83158,112.67368   L 441.34737,111.91579   L 442.61053,110.90526   L 443.87368,109.64211   L 444.88421,108.12632   L 445.89474,106.61053   L 446.4,105.09474   L 446.90526,103.32632   L 446.90526,101.55789  "
     id="path66" />
  <path
     style="fill:none;stroke:#000000;stroke-width:1.2631578px;stroke-linecap:round;stroke-linejoin:round;stroke-miterlimit:4;stroke-dasharray:none;stroke-opacity:1;"
     d="  M 446.90526,39.663158   L 446.90526,37.894737   L 446.4,36.378947   L 445.89474,34.610526   L 444.88421,33.094737   L 443.87368,31.578947   L 442.61053,30.315789   L 441.34737,29.305263   L 439.57895,28.547368   L 438.06316,28.042105   L 436.29474,27.536842   L 434.52632,27.536842   L 432.75789,27.536842  "
     id="path67" />
  <path
     style="fill:none;stroke:#000000;stroke-width:1.2631578px;stroke-linecap:round;stroke-linejoin:round;stroke-miterlimit:4;stroke-dasharray:none;stroke-opacity:1;"
     d="  M 366.06316,37.389474   L 364.29474,37.894737   L 362.52632,38.4   L 361.01053,39.410526   L 359.74737,40.421053   L 358.48421,41.684211   L 357.47368,42.947368   L 356.71579,44.715789   L 355.95789,46.231579   L 355.45263,48   L 355.45263,49.768421  "
     id="path68" />
  <path
     style="fill:none;stroke:#000000;stroke-width:1.2631578px;stroke-linecap:round;stroke-linejoin:round;stroke-miterlimit:4;stroke-dasharray:none;stroke-opacity:1;"
     d="  M 446.90526,39.663158   L 447.15789,101.55789  "
     id="path69" />
  <path
     style="fill:none;stroke:#000000;stroke-width:1.2631578px;stroke-linecap:round;stroke-linejoin:round;stroke-miterlimit:4;stroke-dasharray:none;stroke-opacity:1;"
     d="  M 369.6,123.78947   L 436.29474,113.68421  "
     id="path70" />
  <path
     style="fill:none;stroke:#000000;stroke-width:1.2631578px;stroke-linecap:round;stroke-linejoin:round;stroke-miterlimit:4;stroke-dasharray:none;stroke-opacity:1;"
     d="  M 366.06316,37.389474   L 432.75789,27.536842  "
     id="path71" />
  <path
     style="fill:none;stroke:#000000;stroke-width:1.2631578px;stroke-linecap:round;stroke-linejoin:round;stroke-miterlimit:4;stroke-dasharray:none;stroke-opacity:1;"
     d="  M 355.45263,49.768421   L 355.45263,111.41053  "
     id="path72" />
  <path
     style="fill:none;stroke:#000000;stroke-width:1.2631578px;stroke-linecap:round;stroke-linejoin:round;stroke-miterlimit:4;stroke-dasharray:none;stroke-opacity:1;"
     d="  M 166.98947,115.45263   L 25.768421,89.431579  "
     id="path73" />
  <path
     style="fill:none;stroke:#000000;stroke-width:1.2631578px;stroke-linecap:round;stroke-linejoin:round;stroke-miterlimit:4;stroke-dasharray:none;stroke-opacity:1;"
     d="  M 166.98947,21.726316   L 32.084211,2.2736842  "
     id="path74" />
  <path
     style="fill:none;stroke:#000000;stroke-width:1.2631578px;stroke-linecap:round;stroke-linejoin:round;stroke-miterlimit:4;stroke-dasharray:none;stroke-opacity:1;"
     d="  M 166.98947,115.45263   L 170.02105,115.2   L 173.30526,114.94737   L 176.33684,114.18947   L 179.36842,113.43158   L 182.4,112.42105   L 185.43158,111.15789   L 188.21053,109.38947   L 190.98947,107.87368   L 193.51579,105.85263   L 196.04211,103.57895   L 198.31579,101.30526   L 200.33684,99.031579   L 202.35789,96.252632   L 204.12632,93.473684   L 205.64211,90.442105   L 207.15789,87.410526   L 208.16842,84.378947   L 209.17895,81.094737   L 209.93684,77.810526   L 210.44211,74.526316   L 210.69474,71.242105   L 210.94737,67.705263   L 210.69474,64.421053   L 210.18947,61.136842   L 209.68421,57.6   L 208.92632,54.568421   L 207.66316,51.284211   L 206.4,48.252632   L 204.88421,45.221053   L 203.36842,42.442105   L 201.34737,39.663158   L 199.32632,37.136842   L 197.05263,34.610526   L 194.77895,32.336842   L 192.25263,30.315789   L 189.47368,28.547368   L 186.69474,27.031579   L 183.91579,25.515789   L 180.88421,24.252632   L 177.85263,23.242105   L 174.82105,22.484211   L 171.53684,21.978947   L 168.50526,21.978947   L 165.22105,21.978947   L 162.18947,21.978947   L 158.90526,22.484211   L 155.87368,23.242105   L 152.84211,24.252632   L 149.81053,25.515789   L 147.03158,27.031579   L 144.25263,28.547368   L 141.47368,30.315789   L 138.94737,32.336842   L 136.67368,34.610526   L 134.4,37.136842   L 132.37895,39.663158   L 130.61053,42.442105   L 128.84211,45.221053   L 127.32632,48.252632   L 126.06316,51.284211   L 125.05263,54.568421   L 124.04211,57.6   L 123.53684,61.136842   L 123.03158,64.421053   L 123.03158,67.705263   L 123.03158,71.242105   L 123.28421,74.526316   L 123.78947,77.810526   L 124.54737,81.094737   L 125.55789,84.378947   L 126.56842,87.410526   L 128.08421,90.442105   L 129.6,93.473684   L 131.36842,96.252632   L 133.38947,99.031579   L 135.41053,101.30526   L 137.93684,103.57895   L 140.21053,105.85263   L 142.98947,107.87368   L 145.51579,109.38947   L 148.54737,111.15789   L 151.32632,112.42105   L 154.35789,113.43158   L 157.38947,114.18947   L 160.67368,114.94737   L 163.70526,115.2   L 166.98947,115.45263  z "
     id="path75" />
  <path
     style="fill:none;stroke:#000000;stroke-width:1.2631578px;stroke-linecap:round;stroke-linejoin:round;stroke-miterlimit:4;stroke-dasharray:none;stroke-opacity:1;"
     d="  M 355.45263,80.589474   L 254.14737,61.136842  "
     id="path76" />
  <path
     style="fill:#000000;fill-rule:evenodd;fill-opacity:1;stroke:none;"
     d="  M 354.94737,82.357895   L 355.70526,78.821053   L 253.89474,63.157895   L 354.94737,82.357895  z "
     id="path77" />
  <path
     style="fill:#000000;fill-rule:evenodd;fill-opacity:1;stroke:none;"
     d="  M 355.70526,78.821053   L 253.89474,62.905263   L 254.65263,59.368421   L 355.70526,78.821053  z "
     id="path78" />
  <path
     style="fill:none;stroke:#000000;stroke-width:1.2631578px;stroke-linecap:round;stroke-linejoin:round;stroke-miterlimit:4;stroke-dasharray:none;stroke-opacity:1;"
     d="  M 354.94737,82.357895   L 355.70526,78.821053   L 254.65263,59.368421   L 253.89474,62.905263   L 354.94737,82.357895  z "
     id="path79" />
  <path
     style="fill:#000000;fill-rule:evenodd;fill-opacity:1;stroke:none;"
     d="  M 123.03158,65.431579   L 123.28421,62.905263   L 2.2736842,45.978947   L 123.03158,65.431579  z "
     id="path80" />
  <path
     style="fill:#000000;fill-rule:evenodd;fill-opacity:1;stroke:none;"
     d="  M 123.28421,63.157895   L 2.2736842,45.978947   L 2.5263158,43.705263   L 123.28421,63.157895  z "
     id="path81" />
  <path
     style="fill:none;stroke:#000000;stroke-width:1.2631578px;stroke-linecap:round;stroke-linejoin:round;stroke-miterlimit:4;stroke-dasharray:none;stroke-opacity:1;"
     d="  M 123.03158,65.431579   L 123.28421,62.905263   L 2.5263158,43.705263   L 2.2736842,45.978947   L 123.03158,65.431579  z "
     id="path82" />
</svg>
