<?xml version="1.0" encoding="UTF-8" standalone="no"?>
<svg
   version="1.0"
   width="94.849998mm"
   height="45.990002mm"
   id="svg28"
   sodipodi:docname="image1173.emf"
   xmlns:inkscape="http://www.inkscape.org/namespaces/inkscape"
   xmlns:sodipodi="http://sodipodi.sourceforge.net/DTD/sodipodi-0.dtd"
   xmlns="http://www.w3.org/2000/svg"
   xmlns:svg="http://www.w3.org/2000/svg">
  <sodipodi:namedview
     id="namedview28"
     pagecolor="#ffffff"
     bordercolor="#000000"
     borderopacity="0.25"
     inkscape:showpageshadow="2"
     inkscape:pageopacity="0.0"
     inkscape:pagecheckerboard="0"
     inkscape:deskcolor="#d1d1d1"
     inkscape:document-units="mm" />
  <defs
     id="defs1">
    <pattern
       id="EMFhbasepattern"
       patternUnits="userSpaceOnUse"
       width="6"
       height="6"
       x="0"
       y="0" />
  </defs>
  <path
     style="fill:none;stroke:#000000;stroke-width:0.035679013px;stroke-linecap:round;stroke-linejoin:round;stroke-miterlimit:4;stroke-dasharray:none;stroke-opacity:1;"
     d="  M 181.50035,170.21777   L -0.14149223,65.138208  "
     id="path1" />
  <path
     style="fill:none;stroke:#000000;stroke-width:0.035679013px;stroke-linecap:round;stroke-linejoin:round;stroke-miterlimit:4;stroke-dasharray:none;stroke-opacity:1;"
     d="  M 181.50035,152.88911   L -0.14149223,47.809548  "
     id="path2" />
  <path
     style="fill:none;stroke:#000000;stroke-width:0.035679013px;stroke-linecap:round;stroke-linejoin:round;stroke-miterlimit:4;stroke-dasharray:none;stroke-opacity:1;"
     d="  M 354.4722,152.88911   L 210.47171,69.568628  "
     id="path3" />
  <path
     style="fill:none;stroke:#000000;stroke-width:0.035679013px;stroke-linecap:round;stroke-linejoin:round;stroke-miterlimit:4;stroke-dasharray:none;stroke-opacity:1;"
     d="  M 354.4722,152.88911   L 181.50035,152.88911  "
     id="path4" />
  <path
     style="fill:none;stroke:#000000;stroke-width:0.035679013px;stroke-linecap:round;stroke-linejoin:round;stroke-miterlimit:4;stroke-dasharray:none;stroke-opacity:1;"
     d="  M 354.4722,170.21777   L 354.4722,152.88911  "
     id="path5" />
  <path
     style="fill:none;stroke:#000000;stroke-width:0.035679013px;stroke-linecap:round;stroke-linejoin:round;stroke-miterlimit:4;stroke-dasharray:none;stroke-opacity:1;"
     d="  M 181.50035,170.21777   L 354.4722,170.21777  "
     id="path6" />
  <path
     style="fill:none;stroke:#000000;stroke-width:0.035679013px;stroke-linecap:round;stroke-linejoin:round;stroke-miterlimit:4;stroke-dasharray:none;stroke-opacity:1;"
     d="  M 181.50035,152.88911   L 181.50035,170.21777  "
     id="path7" />
  <path
     style="fill:none;stroke:#000000;stroke-width:0.035679013px;stroke-linecap:round;stroke-linejoin:round;stroke-miterlimit:4;stroke-dasharray:none;stroke-opacity:1;"
     d="  M 210.47171,106.08387   L 210.57875,106.01241   L 210.75714,105.97668   L 210.97122,106.01241   L 211.25665,106.08387   L 211.57776,106.22678   L 211.93455,106.40543   L 212.32702,106.6198   L 212.68381,106.86991   L 213.0406,107.12001   L 213.39739,107.40585   L 213.7185,107.72741   L 214.00393,108.01324   L 214.21801,108.26335   L 214.36072,108.51345   L 214.46776,108.72783   L 214.50344,108.90647   L 214.46776,109.01366  "
     id="path8" />
  <path
     style="fill:none;stroke:#000000;stroke-width:0.035679013px;stroke-linecap:round;stroke-linejoin:round;stroke-miterlimit:4;stroke-dasharray:none;stroke-opacity:1;"
     d="  M 193.16739,106.08387   L 193.06035,106.01241   L 192.88196,105.97668   L 192.63221,106.01241   L 192.38245,106.08387   L 192.02566,106.22678   L 191.70455,106.40543   L 191.31208,106.6198   L 190.95529,106.86991   L 190.56282,107.12001   L 190.24171,107.40585   L 189.9206,107.72741   L 189.63517,108.01324   L 189.42109,108.26335   L 189.2427,108.51345   L 189.17134,108.72783   L 189.13566,108.90647   L 189.17134,109.01366  "
     id="path9" />
  <path
     style="fill:none;stroke:#000000;stroke-width:0.035679013px;stroke-linecap:round;stroke-linejoin:round;stroke-miterlimit:4;stroke-dasharray:none;stroke-opacity:1;"
     d="  M 193.16739,18.297232   L 193.16739,111.97918  "
     id="path10" />
  <path
     style="fill:none;stroke:#000000;stroke-width:0.035679013px;stroke-linecap:round;stroke-linejoin:round;stroke-miterlimit:4;stroke-dasharray:none;stroke-opacity:1;"
     d="  M 210.47171,18.297232   L 210.47171,111.97918  "
     id="path11" />
  <path
     style="fill:none;stroke:#000000;stroke-width:0.035679013px;stroke-linecap:round;stroke-linejoin:round;stroke-miterlimit:4;stroke-dasharray:none;stroke-opacity:1;"
     d="  M 214.46776,109.01366   L 214.5748,109.08512   L 214.68183,109.22804   L 214.82455,109.47814   L 214.89591,109.7997   L 215.00295,110.19272   L 215.03862,110.6572   L 215.10998,111.15741   L 215.10998,111.69335   L 215.10998,112.22929   L 215.10998,112.76523   L 215.03862,113.26543   L 215.00295,113.72991   L 214.89591,114.12294   L 214.82455,114.4445   L 214.68183,114.6946   L 214.5748,114.83752   L 214.46776,114.90898  "
     id="path12" />
  <path
     style="fill:none;stroke:#000000;stroke-width:0.035679013px;stroke-linecap:round;stroke-linejoin:round;stroke-miterlimit:4;stroke-dasharray:none;stroke-opacity:1;"
     d="  M 189.17134,109.01366   L 189.0643,109.08512   L 188.92159,109.22804   L 188.81455,109.47814   L 188.70751,109.7997   L 188.63616,110.19272   L 188.5648,110.6572   L 188.52912,111.15741   L 188.49344,111.69335   L 188.49344,112.22929   L 188.52912,112.76523   L 188.5648,113.26543   L 188.63616,113.72991   L 188.70751,114.12294   L 188.81455,114.4445   L 188.92159,114.6946   L 189.0643,114.83752   L 189.17134,114.90898  "
     id="path13" />
  <path
     style="fill:none;stroke:#000000;stroke-width:0.035679013px;stroke-linecap:round;stroke-linejoin:round;stroke-miterlimit:4;stroke-dasharray:none;stroke-opacity:1;"
     d="  M 189.17134,114.90898   L 189.27838,115.40919   L 189.56381,115.9094   L 190.06332,116.37387   L 190.74122,116.83835   L 191.59751,117.2671   L 192.59653,117.66013   L 193.77393,117.98169   L 195.05838,118.30325   L 196.44986,118.51763   L 197.9127,118.732   L 199.4469,118.83919   L 201.01677,118.91065   L 202.62233,118.91065   L 204.19221,118.83919   L 205.7264,118.732   L 207.18924,118.51763   L 208.58072,118.30325   L 209.86517,117.98169   L 211.04258,117.66013   L 212.04159,117.2671   L 212.89788,116.83835   L 213.57579,116.37387   L 214.07529,115.9094   L 214.36072,115.40919   L 214.46776,114.90898  "
     id="path14" />
  <path
     style="fill:none;stroke:#000000;stroke-width:0.035679013px;stroke-linecap:round;stroke-linejoin:round;stroke-miterlimit:4;stroke-dasharray:none;stroke-opacity:1;"
     d="  M 189.17134,109.01366   L 189.27838,109.5496   L 189.56381,110.04981   L 190.06332,110.51429   L 190.74122,110.97877   L 191.59751,111.40752   L 192.59653,111.80054   L 193.77393,112.1221   L 195.05838,112.44366   L 196.44986,112.65804   L 197.9127,112.87241   L 199.4469,112.9796   L 201.01677,113.05106   L 202.62233,113.05106   L 204.19221,112.9796   L 205.7264,112.87241   L 207.18924,112.65804   L 208.58072,112.44366   L 209.86517,112.1221   L 211.04258,111.80054   L 212.04159,111.40752   L 212.89788,110.97877   L 213.57579,110.51429   L 214.07529,110.04981   L 214.36072,109.5496   L 214.46776,109.01366  "
     id="path15" />
  <path
     style="fill:none;stroke:#000000;stroke-width:0.035679013px;stroke-linecap:round;stroke-linejoin:round;stroke-miterlimit:4;stroke-dasharray:none;stroke-opacity:1;"
     d="  M 218.24974,4.9345127   L 218.24974,13.580978  "
     id="path16" />
  <path
     style="fill:none;stroke:#000000;stroke-width:0.035679013px;stroke-linecap:round;stroke-linejoin:round;stroke-miterlimit:4;stroke-dasharray:none;stroke-opacity:1;"
     d="  M 185.31801,5.3989922   L 185.38937,13.580978  "
     id="path17" />
  <path
     style="fill:none;stroke:#000000;stroke-width:0.035679013px;stroke-linecap:round;stroke-linejoin:round;stroke-miterlimit:4;stroke-dasharray:none;stroke-opacity:1;"
     d="  M 185.38937,13.580978   L 185.4964,14.224104   L 185.81751,14.8315   L 186.31702,15.403167   L 187.0306,15.974834   L 187.92258,16.546501   L 188.95727,17.04671   L 190.20603,17.51119   L 191.56184,17.904211   L 193.06035,18.261503   L 194.70159,18.583066   L 196.3785,18.797441   L 198.16245,18.976087   L 199.98208,19.083274   L 201.80171,19.119003   L 203.65702,19.083274   L 205.47665,18.976087   L 207.22492,18.797441   L 208.93751,18.583066   L 210.54307,18.261503   L 212.04159,17.904211   L 213.43307,17.51119   L 214.64616,17.04671   L 215.71653,16.546501   L 216.6085,15.974834   L 217.32208,15.403167   L 217.82159,14.8315   L 218.1427,14.224104   L 218.24974,13.580978  "
     id="path18" />
  <path
     style="fill:none;stroke:#000000;stroke-width:0.035679013px;stroke-linecap:round;stroke-linejoin:round;stroke-miterlimit:4;stroke-dasharray:none;stroke-opacity:1;"
     d="  M 218.17838,5.3989922   L 218.07134,4.7558667   L 217.78591,4.1484703   L 217.25072,3.5768032   L 216.57282,3.0051361   L 215.68085,2.4334689   L 214.61048,1.9332602   L 213.36171,1.4687806   L 212.00591,1.0757595   L 210.50739,0.71846753   L 208.90183,0.39690476   L 207.18924,0.18252959   L 205.40529,0.0038836083   L 203.58566,-0.10330398   L 201.76603,-0.13903318   L 199.91072,-0.10330398   L 198.09109,0.0038836083   L 196.34282,0.18252959   L 194.63023,0.39690476   L 193.02467,0.71846753   L 191.52616,1.0757595   L 190.13467,1.4687806   L 188.92159,1.9332602   L 187.85122,2.4334689   L 186.95924,3.0051361   L 186.24566,3.5768032   L 185.74616,4.1484703   L 185.42505,4.7558667   L 185.31801,5.3989922  "
     id="path19" />
  <path
     style="fill:none;stroke:#000000;stroke-width:0.035679013px;stroke-linecap:round;stroke-linejoin:round;stroke-miterlimit:4;stroke-dasharray:none;stroke-opacity:1;"
     d="  M 185.38937,4.9345127   L 185.4964,5.541909   L 185.81751,6.1493053   L 186.31702,6.7567017   L 187.0306,7.3283688   L 187.92258,7.8643067   L 188.95727,8.3645155   L 190.20603,8.828995   L 191.56184,9.2577454   L 193.06035,9.6150373   L 194.70159,9.9008709   L 196.3785,10.150975   L 198.16245,10.329621   L 199.98208,10.40108   L 201.80171,10.436809   L 203.65702,10.40108   L 205.47665,10.329621   L 207.22492,10.150975   L 208.93751,9.9008709   L 210.54307,9.6150373   L 212.04159,9.2577454   L 213.43307,8.828995   L 214.64616,8.3645155   L 215.71653,7.8643067   L 216.6085,7.3283688   L 217.32208,6.7567017   L 217.82159,6.1493053   L 218.1427,5.541909   L 218.24974,4.9345127  "
     id="path20" />
  <path
     style="fill:none;stroke:#000000;stroke-width:0.035679013px;stroke-linecap:round;stroke-linejoin:round;stroke-miterlimit:4;stroke-dasharray:none;stroke-opacity:1;"
     d="  M 188.52912,112.62231   L 190.38443,110.76439  "
     id="path21" />
  <path
     style="fill:none;stroke:#000000;stroke-width:0.035679013px;stroke-linecap:round;stroke-linejoin:round;stroke-miterlimit:4;stroke-dasharray:none;stroke-opacity:1;"
     d="  M 189.38542,115.62356   L 193.06035,111.94345  "
     id="path22" />
  <path
     style="fill:none;stroke:#000000;stroke-width:0.035679013px;stroke-linecap:round;stroke-linejoin:round;stroke-miterlimit:4;stroke-dasharray:none;stroke-opacity:1;"
     d="  M 191.63319,117.2671   L 196.27146,112.65804  "
     id="path23" />
  <path
     style="fill:none;stroke:#000000;stroke-width:0.035679013px;stroke-linecap:round;stroke-linejoin:round;stroke-miterlimit:4;stroke-dasharray:none;stroke-opacity:1;"
     d="  M 194.59455,118.19606   L 199.76801,113.01533  "
     id="path24" />
  <path
     style="fill:none;stroke:#000000;stroke-width:0.035679013px;stroke-linecap:round;stroke-linejoin:round;stroke-miterlimit:4;stroke-dasharray:none;stroke-opacity:1;"
     d="  M 197.94838,118.732   L 203.65702,113.01533  "
     id="path25" />
  <path
     style="fill:none;stroke:#000000;stroke-width:0.035679013px;stroke-linecap:round;stroke-linejoin:round;stroke-miterlimit:4;stroke-dasharray:none;stroke-opacity:1;"
     d="  M 201.659,118.91065   L 208.00986,112.55085  "
     id="path26" />
  <path
     style="fill:none;stroke:#000000;stroke-width:0.035679013px;stroke-linecap:round;stroke-linejoin:round;stroke-miterlimit:4;stroke-dasharray:none;stroke-opacity:1;"
     d="  M 205.7264,118.732   L 214.86023,109.58533  "
     id="path27" />
  <path
     style="fill:none;stroke:#000000;stroke-width:0.035679013px;stroke-linecap:round;stroke-linejoin:round;stroke-miterlimit:4;stroke-dasharray:none;stroke-opacity:1;"
     d="  M 210.50739,117.80304   L 215.03862,113.26543  "
     id="path28" />
</svg>
