<?xml version="1.0" encoding="UTF-8" standalone="no"?>
<svg
   version="1.0"
   width="81.089996mm"
   height="75.269997mm"
   id="svg62"
   sodipodi:docname="image178.emf"
   xmlns:inkscape="http://www.inkscape.org/namespaces/inkscape"
   xmlns:sodipodi="http://sodipodi.sourceforge.net/DTD/sodipodi-0.dtd"
   xmlns="http://www.w3.org/2000/svg"
   xmlns:svg="http://www.w3.org/2000/svg">
  <sodipodi:namedview
     id="namedview62"
     pagecolor="#ffffff"
     bordercolor="#000000"
     borderopacity="0.25"
     inkscape:showpageshadow="2"
     inkscape:pageopacity="0.0"
     inkscape:pagecheckerboard="0"
     inkscape:deskcolor="#d1d1d1"
     inkscape:document-units="mm" />
  <defs
     id="defs1">
    <pattern
       id="EMFhbasepattern"
       patternUnits="userSpaceOnUse"
       width="6"
       height="6"
       x="0"
       y="0" />
  </defs>
  <path
     style="fill:none;stroke:#000000;stroke-width:0.049981326px;stroke-linecap:round;stroke-linejoin:round;stroke-miterlimit:4;stroke-dasharray:none;stroke-opacity:1;"
     d="  M 61.370348,246.55258   L 28.232728,246.55258  "
     id="path1" />
  <path
     style="fill:none;stroke:#000000;stroke-width:0.049981326px;stroke-linecap:round;stroke-linejoin:round;stroke-miterlimit:4;stroke-dasharray:none;stroke-opacity:1;"
     d="  M 61.370348,273.62462   L 28.232728,273.62462  "
     id="path2" />
  <path
     style="fill:none;stroke:#000000;stroke-width:0.049981326px;stroke-linecap:round;stroke-linejoin:round;stroke-miterlimit:4;stroke-dasharray:none;stroke-opacity:1;"
     d="  M 37.229367,246.55258   L 37.229367,237.52856  "
     id="path3" />
  <path
     style="fill:none;stroke:#000000;stroke-width:0.049981326px;stroke-linecap:round;stroke-linejoin:round;stroke-miterlimit:4;stroke-dasharray:none;stroke-opacity:1;"
     d="  M 37.229367,273.62462   L 37.229367,282.64863  "
     id="path4" />
  <path
     style="fill:none;stroke:#000000;stroke-width:0.049981326px;stroke-linecap:round;stroke-linejoin:round;stroke-miterlimit:4;stroke-dasharray:none;stroke-opacity:1;"
     d="  M 37.229367,246.55258   L 37.229367,273.62462  "
     id="path5" />
  <path
     style="fill:#000000;fill-rule:evenodd;fill-opacity:1;stroke:none;"
     d="  M 32.43116,238.58137   L 29.282336,241.73977   L 45.176398,251.31525   z "
     id="path6" />
  <path
     style="fill:#000000;fill-rule:evenodd;fill-opacity:1;stroke:none;"
     d="  M 29.282336,241.73977   L 45.176398,251.31525   L 41.977593,254.52379   z "
     id="path7" />
  <path
     style="fill:none;stroke:#000000;stroke-width:0.049981326px;stroke-linecap:round;stroke-linejoin:round;stroke-miterlimit:4;stroke-dasharray:none;stroke-opacity:1;"
     d="  M 32.43116,238.58137   L 29.282336,241.73977   L 41.977593,254.52379   L 45.176398,251.31525   L 32.43116,238.58137   z "
     id="path8" />
  <path
     style="fill:#000000;fill-rule:evenodd;fill-opacity:1;stroke:none;"
     d="  M 41.977593,281.59583   L 45.176398,278.43743   L 29.282336,268.86194   z "
     id="path9" />
  <path
     style="fill:#000000;fill-rule:evenodd;fill-opacity:1;stroke:none;"
     d="  M 45.176398,278.43743   L 29.282336,268.86194   L 32.43116,265.65341   z "
     id="path10" />
  <path
     style="fill:none;stroke:#000000;stroke-width:0.049981326px;stroke-linecap:round;stroke-linejoin:round;stroke-miterlimit:4;stroke-dasharray:none;stroke-opacity:1;"
     d="  M 41.977593,281.59583   L 45.176398,278.43743   L 32.43116,265.65341   L 29.282336,268.86194   L 41.977593,281.59583   z "
     id="path11" />
  <path
     style="fill:#000000;fill-rule:evenodd;fill-opacity:1;stroke:none;"
     d="  M 17.836612,259.43686   L 18.236463,261.19153   L 19.286071,265.20221   L 19.485996,265.05181   L 20.485623,263.59794   L 20.835492,261.743   L 20.78551,260.8406   L 20.185735,259.13606   L 19.535977,258.18353   L 17.986556,256.67953   z "
     id="path12" />
  <path
     style="fill:#000000;fill-rule:evenodd;fill-opacity:1;stroke:none;"
     d="  M 9.6896558,263.14674   L 10.739264,264.75101   L 10.789245,264.80114   L 12.638554,265.95421   L 12.838479,266.00434   L 15.237583,266.40541   L 17.286818,266.15474   L 19.286071,265.20221   L 18.236463,261.19153   L 18.236463,261.69287   L 17.38678,263.247   L 17.336799,263.247   L 15.187602,263.94887   L 13.588199,263.59794   L 12.538591,262.69554   L 12.388648,262.495   L 11.838853,260.64007   L 11.73889,260.239   L 11.239077,258.2838   L 10.58932,256.88006   z "
     id="path13" />
  <path
     style="fill:#000000;fill-rule:evenodd;fill-opacity:1;stroke:none;"
     d="  M 3.0921207,265.00167   L 3.9917845,265.40274   L 6.4408696,266.00434   L 6.8907015,263.74834   L 5.8410937,263.49767   L 3.9917845,262.59527   L 3.5419526,262.0438   L 3.142102,260.13873   z "
     id="path14" />
  <path
     style="fill:#000000;fill-rule:evenodd;fill-opacity:1;stroke:none;"
     d="  M 0.44311032,259.83793   L 0.54307297,261.2918   L 1.0928676,262.9462   L 1.5926808,263.6982   L 3.0921207,265.00167   L 3.142102,260.13873   L 3.3420273,258.93553   L 4.2916725,257.53179   L 4.6915231,257.28113   L 7.1406082,256.82993   L 7.9902907,256.88006   L 8.190216,257.33126   L 8.6900293,258.8854   L 9.1398612,260.991   L 9.2398239,261.39207   L 9.6396745,263.0966   L 9.6896558,263.14674   L 10.58932,256.88006   L 11.838853,256.88006   L 12.838479,256.88006   L 15.137621,257.23099   L 15.737396,257.48166   L 17.436762,258.78513   L 17.836612,259.43686   L 17.986556,256.67953   L 20.435641,256.17819   L 20.435641,253.77179   L 18.036537,254.37339   L 17.686668,254.37339   L 15.587452,254.47366   L 12.238704,254.52379   L 7.7903654,254.52379   L 7.0906268,254.52379   L 4.7415045,254.62406   L 2.4923447,255.32592   L 2.3424008,255.42619   L 0.99290492,256.98033   L 0.64303563,257.93286   z "
     id="path15" />
  <path
     style="fill:none;stroke:#000000;stroke-width:0.049981326px;stroke-linecap:round;stroke-linejoin:round;stroke-miterlimit:4;stroke-dasharray:none;stroke-opacity:1;"
     d="  M 243.95214,143.17749   L 245.40159,142.12469   L 247.60077,139.01642   L 247.60077,160.92472  "
     id="path16" />
  <path
     style="fill:none;stroke:#000000;stroke-width:0.049981326px;stroke-linecap:round;stroke-linejoin:round;stroke-miterlimit:4;stroke-dasharray:none;stroke-opacity:1;"
     d="  M 152.68623,195.16583   L 197.4695,164.18339  "
     id="path17" />
  <path
     style="fill:none;stroke:#000000;stroke-width:0.049981326px;stroke-linecap:round;stroke-linejoin:round;stroke-miterlimit:4;stroke-dasharray:none;stroke-opacity:1;"
     d="  M 197.4695,164.18339   L 280.9883,164.18339  "
     id="path18" />
  <path
     style="fill:none;stroke:#000000;stroke-width:0.049981326px;stroke-linecap:round;stroke-linejoin:round;stroke-miterlimit:4;stroke-dasharray:none;stroke-opacity:1;"
     d="  M 247.50081,211.25866   L 247.50081,210.25599   L 248.25053,208.15039   L 249.00025,207.09759   L 250.44971,206.09492   L 253.34863,206.09492   L 254.79808,207.09759   L 255.49782,208.15039   L 256.24754,210.25599   L 256.24754,212.31146   L 255.49782,214.41706   L 254.04836,217.52533   L 246.80107,227.95308   L 256.94728,227.95308  "
     id="path19" />
  <path
     style="fill:none;stroke:#000000;stroke-width:0.049981326px;stroke-linecap:round;stroke-linejoin:round;stroke-miterlimit:4;stroke-dasharray:none;stroke-opacity:1;"
     d="  M 97.007034,259.68753   L 197.4695,231.26189  "
     id="path20" />
  <path
     style="fill:none;stroke:#000000;stroke-width:0.049981326px;stroke-linecap:round;stroke-linejoin:round;stroke-miterlimit:4;stroke-dasharray:none;stroke-opacity:1;"
     d="  M 197.4695,231.26189   L 303.77978,231.26189  "
     id="path21" />
  <path
     style="fill:none;stroke:#000000;stroke-width:0.049981326px;stroke-linecap:round;stroke-linejoin:round;stroke-miterlimit:4;stroke-dasharray:none;stroke-opacity:1;"
     d="  M 73.86568,246.55258   L 73.915661,246.55258  "
     id="path22" />
  <path
     style="fill:none;stroke:#000000;stroke-width:0.049981326px;stroke-linecap:round;stroke-linejoin:round;stroke-miterlimit:4;stroke-dasharray:none;stroke-opacity:1;"
     d="  M 100.8556,273.62462   L 100.90558,273.62462  "
     id="path23" />
  <path
     style="fill:#000000;fill-rule:evenodd;fill-opacity:1;stroke:none;"
     d="  M 75.215176,1.8012748   L 72.516184,1.8012748   L 75.215176,246.55258   z "
     id="path24" />
  <path
     style="fill:#000000;fill-rule:evenodd;fill-opacity:1;stroke:none;"
     d="  M 72.516184,1.8012748   L 75.215176,246.55258   L 72.516184,246.55258   z "
     id="path25" />
  <path
     style="fill:none;stroke:#000000;stroke-width:0.049981326px;stroke-linecap:round;stroke-linejoin:round;stroke-miterlimit:4;stroke-dasharray:none;stroke-opacity:1;"
     d="  M 75.215176,1.8012748   L 72.516184,1.8012748   L 72.516184,246.55258   L 75.215176,246.55258   L 75.215176,1.8012748   z "
     id="path26" />
  <path
     style="fill:#000000;fill-rule:evenodd;fill-opacity:1;stroke:none;"
     d="  M 102.20509,273.62462   L 99.506101,273.62462   L 101.6553,268.10994   z "
     id="path27" />
  <path
     style="fill:#000000;fill-rule:evenodd;fill-opacity:1;stroke:none;"
     d="  M 99.506101,273.62462   L 101.6553,268.10994   L 99.006287,268.61128   z "
     id="path28" />
  <path
     style="fill:none;stroke:#000000;stroke-width:0.049981326px;stroke-linecap:round;stroke-linejoin:round;stroke-miterlimit:4;stroke-dasharray:none;stroke-opacity:1;"
     d="  M 102.20509,273.62462   L 99.506101,273.62462   L 99.006287,268.61128   L 101.6553,268.10994   L 102.20509,273.62462   z "
     id="path29" />
  <path
     style="fill:#000000;fill-rule:evenodd;fill-opacity:1;stroke:none;"
     d="  M 101.6553,268.10994   L 99.006287,268.61128   L 100.0559,262.74567   z "
     id="path30" />
  <path
     style="fill:#000000;fill-rule:evenodd;fill-opacity:1;stroke:none;"
     d="  M 99.006287,268.61128   L 100.0559,262.74567   L 97.556829,263.79847   z "
     id="path31" />
  <path
     style="fill:none;stroke:#000000;stroke-width:0.049981326px;stroke-linecap:round;stroke-linejoin:round;stroke-miterlimit:4;stroke-dasharray:none;stroke-opacity:1;"
     d="  M 101.6553,268.10994   L 99.006287,268.61128   L 97.556829,263.79847   L 100.0559,262.74567   L 101.6553,268.10994   z "
     id="path32" />
  <path
     style="fill:#000000;fill-rule:evenodd;fill-opacity:1;stroke:none;"
     d="  M 100.0559,262.74567   L 97.556829,263.79847   L 97.406885,257.83259   z "
     id="path33" />
  <path
     style="fill:#000000;fill-rule:evenodd;fill-opacity:1;stroke:none;"
     d="  M 97.556829,263.79847   L 97.406885,257.83259   L 95.207707,259.3366   z "
     id="path34" />
  <path
     style="fill:none;stroke:#000000;stroke-width:0.049981326px;stroke-linecap:round;stroke-linejoin:round;stroke-miterlimit:4;stroke-dasharray:none;stroke-opacity:1;"
     d="  M 100.0559,262.74567   L 97.556829,263.79847   L 95.207707,259.3366   L 97.406885,257.83259   L 100.0559,262.74567   z "
     id="path35" />
  <path
     style="fill:#000000;fill-rule:evenodd;fill-opacity:1;stroke:none;"
     d="  M 97.406885,257.83259   L 95.207707,259.3366   L 93.908192,253.52112   z "
     id="path36" />
  <path
     style="fill:#000000;fill-rule:evenodd;fill-opacity:1;stroke:none;"
     d="  M 95.207707,259.3366   L 93.908192,253.52112   L 92.008902,255.42619   z "
     id="path37" />
  <path
     style="fill:none;stroke:#000000;stroke-width:0.049981326px;stroke-linecap:round;stroke-linejoin:round;stroke-miterlimit:4;stroke-dasharray:none;stroke-opacity:1;"
     d="  M 97.406885,257.83259   L 95.207707,259.3366   L 92.008902,255.42619   L 93.908192,253.52112   L 97.406885,257.83259   z "
     id="path38" />
  <path
     style="fill:#000000;fill-rule:evenodd;fill-opacity:1;stroke:none;"
     d="  M 93.908192,253.52112   L 92.008902,255.42619   L 89.609798,250.01178   z "
     id="path39" />
  <path
     style="fill:#000000;fill-rule:evenodd;fill-opacity:1;stroke:none;"
     d="  M 92.008902,255.42619   L 89.609798,250.01178   L 88.110358,252.21765   z "
     id="path40" />
  <path
     style="fill:none;stroke:#000000;stroke-width:0.049981326px;stroke-linecap:round;stroke-linejoin:round;stroke-miterlimit:4;stroke-dasharray:none;stroke-opacity:1;"
     d="  M 93.908192,253.52112   L 92.008902,255.42619   L 88.110358,252.21765   L 89.609798,250.01178   L 93.908192,253.52112   z "
     id="path41" />
  <path
     style="fill:#000000;fill-rule:evenodd;fill-opacity:1;stroke:none;"
     d="  M 89.609798,250.01178   L 88.110358,252.21765   L 84.711628,247.35471   z "
     id="path42" />
  <path
     style="fill:#000000;fill-rule:evenodd;fill-opacity:1;stroke:none;"
     d="  M 88.110358,252.21765   L 84.711628,247.35471   L 83.66202,249.86138   z "
     id="path43" />
  <path
     style="fill:none;stroke:#000000;stroke-width:0.049981326px;stroke-linecap:round;stroke-linejoin:round;stroke-miterlimit:4;stroke-dasharray:none;stroke-opacity:1;"
     d="  M 89.609798,250.01178   L 88.110358,252.21765   L 83.66202,249.86138   L 84.711628,247.35471   L 89.609798,250.01178   z "
     id="path44" />
  <path
     style="fill:#000000;fill-rule:evenodd;fill-opacity:1;stroke:none;"
     d="  M 84.711628,247.35471   L 83.66202,249.86138   L 79.413607,245.75044   z "
     id="path45" />
  <path
     style="fill:#000000;fill-rule:evenodd;fill-opacity:1;stroke:none;"
     d="  M 83.66202,249.86138   L 79.413607,245.75044   L 78.863813,248.40751   z "
     id="path46" />
  <path
     style="fill:none;stroke:#000000;stroke-width:0.049981326px;stroke-linecap:round;stroke-linejoin:round;stroke-miterlimit:4;stroke-dasharray:none;stroke-opacity:1;"
     d="  M 84.711628,247.35471   L 83.66202,249.86138   L 78.863813,248.40751   L 79.413607,245.75044   L 84.711628,247.35471   z "
     id="path47" />
  <path
     style="fill:#000000;fill-rule:evenodd;fill-opacity:1;stroke:none;"
     d="  M 79.413607,245.75044   L 78.863813,248.40751   L 73.86568,245.19898   z "
     id="path48" />
  <path
     style="fill:#000000;fill-rule:evenodd;fill-opacity:1;stroke:none;"
     d="  M 78.863813,248.40751   L 73.86568,245.19898   L 73.86568,247.90618   z "
     id="path49" />
  <path
     style="fill:none;stroke:#000000;stroke-width:0.049981326px;stroke-linecap:round;stroke-linejoin:round;stroke-miterlimit:4;stroke-dasharray:none;stroke-opacity:1;"
     d="  M 79.413607,245.75044   L 78.863813,248.40751   L 73.86568,247.90618   L 73.86568,245.19898   L 79.413607,245.75044   z "
     id="path50" />
  <path
     style="fill:#000000;fill-rule:evenodd;fill-opacity:1;stroke:none;"
     d="  M 100.8556,272.27102   L 100.8556,274.97822   L 168.33039,272.27102   z "
     id="path51" />
  <path
     style="fill:#000000;fill-rule:evenodd;fill-opacity:1;stroke:none;"
     d="  M 100.8556,274.97822   L 168.33039,272.27102   L 168.33039,274.97822   z "
     id="path52" />
  <path
     style="fill:none;stroke:#000000;stroke-width:0.049981326px;stroke-linecap:round;stroke-linejoin:round;stroke-miterlimit:4;stroke-dasharray:none;stroke-opacity:1;"
     d="  M 100.8556,272.27102   L 100.8556,274.97822   L 168.33039,274.97822   L 168.33039,272.27102   L 100.8556,272.27102   z "
     id="path53" />
  <path
     style="fill:#000000;fill-rule:evenodd;fill-opacity:1;stroke:none;"
     d="  M 122.29759,1.1996739   L 119.8485,2.4028757   L 169.52994,96.00195   z "
     id="path54" />
  <path
     style="fill:#000000;fill-rule:evenodd;fill-opacity:1;stroke:none;"
     d="  M 119.8485,2.4028757   L 169.52994,96.00195   L 167.13084,97.205152   z "
     id="path55" />
  <path
     style="fill:none;stroke:#000000;stroke-width:0.049981326px;stroke-linecap:round;stroke-linejoin:round;stroke-miterlimit:4;stroke-dasharray:none;stroke-opacity:1;"
     d="  M 122.29759,1.1996739   L 119.8485,2.4028757   L 167.13084,97.205152   L 169.52994,96.00195   L 122.29759,1.1996739   z "
     id="path56" />
  <path
     style="fill:#000000;fill-rule:evenodd;fill-opacity:1;stroke:none;"
     d="  M 169.67988,96.603551   L 166.98089,96.603551   L 169.67988,273.62462   z "
     id="path57" />
  <path
     style="fill:#000000;fill-rule:evenodd;fill-opacity:1;stroke:none;"
     d="  M 166.98089,96.603551   L 169.67988,273.62462   L 166.98089,273.62462   z "
     id="path58" />
  <path
     style="fill:none;stroke:#000000;stroke-width:0.049981326px;stroke-linecap:round;stroke-linejoin:round;stroke-miterlimit:4;stroke-dasharray:none;stroke-opacity:1;"
     d="  M 169.67988,96.603551   L 166.98089,96.603551   L 166.98089,273.62462   L 169.67988,273.62462   L 169.67988,96.603551   z "
     id="path59" />
  <path
     style="fill:#000000;fill-rule:evenodd;fill-opacity:1;stroke:none;"
     d="  M 73.86568,0.44767278   L 73.86568,3.1548769   L 121.09803,0.44767278   z "
     id="path60" />
  <path
     style="fill:#000000;fill-rule:evenodd;fill-opacity:1;stroke:none;"
     d="  M 73.86568,3.1548769   L 121.09803,0.44767278   L 121.09803,3.1548769   z "
     id="path61" />
  <path
     style="fill:none;stroke:#000000;stroke-width:0.049981326px;stroke-linecap:round;stroke-linejoin:round;stroke-miterlimit:4;stroke-dasharray:none;stroke-opacity:1;"
     d="  M 73.86568,0.44767278   L 73.86568,3.1548769   L 121.09803,3.1548769   L 121.09803,0.44767278   L 73.86568,0.44767278   z "
     id="path62" />
</svg>
