<?xml version="1.0" encoding="UTF-8" standalone="no"?>
<svg
   version="1.0"
   width="119.42mm"
   height="70.440002mm"
   id="svg87"
   sodipodi:docname="image265.emf"
   xmlns:inkscape="http://www.inkscape.org/namespaces/inkscape"
   xmlns:sodipodi="http://sodipodi.sourceforge.net/DTD/sodipodi-0.dtd"
   xmlns="http://www.w3.org/2000/svg"
   xmlns:svg="http://www.w3.org/2000/svg">
  <sodipodi:namedview
     id="namedview87"
     pagecolor="#ffffff"
     bordercolor="#000000"
     borderopacity="0.25"
     inkscape:showpageshadow="2"
     inkscape:pageopacity="0.0"
     inkscape:pagecheckerboard="0"
     inkscape:deskcolor="#d1d1d1"
     inkscape:document-units="mm" />
  <defs
     id="defs1">
    <pattern
       id="EMFhbasepattern"
       patternUnits="userSpaceOnUse"
       width="6"
       height="6"
       x="0"
       y="0" />
  </defs>
  <path
     style="fill:#000000;fill-rule:evenodd;fill-opacity:1;stroke:none;"
     d="  M 296.01378,134.90475   L 296.01378,132.49955   L 44.027431,134.90475   z "
     id="path1" />
  <path
     style="fill:#000000;fill-rule:evenodd;fill-opacity:1;stroke:none;"
     d="  M 296.01378,132.49955   L 44.027431,134.90475   L 44.027431,132.49955   z "
     id="path2" />
  <path
     style="fill:none;stroke:#000000;stroke-width:0.039947107px;stroke-linecap:round;stroke-linejoin:round;stroke-miterlimit:4;stroke-dasharray:none;stroke-opacity:1;"
     d="  M 446.37468,161.64253   L 332.52543,161.64253  "
     id="path3" />
  <path
     style="fill:none;stroke:#000000;stroke-width:0.039947107px;stroke-linecap:round;stroke-linejoin:round;stroke-miterlimit:4;stroke-dasharray:none;stroke-opacity:1;"
     d="  M 312.63177,161.64253   L 292.77806,161.64253  "
     id="path4" />
  <path
     style="fill:none;stroke:#000000;stroke-width:0.039947107px;stroke-linecap:round;stroke-linejoin:round;stroke-miterlimit:4;stroke-dasharray:none;stroke-opacity:1;"
     d="  M 272.8844,161.64253   L 173.496,161.68262  "
     id="path5" />
  <path
     style="fill:none;stroke:#000000;stroke-width:0.039947107px;stroke-linecap:round;stroke-linejoin:round;stroke-miterlimit:4;stroke-dasharray:none;stroke-opacity:1;"
     d="  M 153.64229,161.68262   L 133.74863,161.68262  "
     id="path6" />
  <path
     style="fill:none;stroke:#000000;stroke-width:0.039947107px;stroke-linecap:round;stroke-linejoin:round;stroke-miterlimit:4;stroke-dasharray:none;stroke-opacity:1;"
     d="  M 113.89492,161.68262   L 0.045667455,161.68262  "
     id="path7" />
  <path
     style="fill:none;stroke:#000000;stroke-width:0.039947107px;stroke-linecap:round;stroke-linejoin:round;stroke-miterlimit:4;stroke-dasharray:none;stroke-opacity:1;"
     d="  M 296.01378,126.44647   L 296.01378,147.29152   L 313.51061,152.86356   L 278.51694,162.44426   L 296.01378,168.05639   L 296.01378,199.00327  "
     id="path8" />
  <path
     style="fill:#000000;fill-rule:evenodd;fill-opacity:1;stroke:none;"
     d="  M 296.01378,190.8256   L 296.01378,188.4204   L 44.027431,190.8256   z "
     id="path9" />
  <path
     style="fill:#000000;fill-rule:evenodd;fill-opacity:1;stroke:none;"
     d="  M 296.01378,188.4204   L 44.027431,190.8256   L 44.027431,188.4204   z "
     id="path10" />
  <path
     style="fill:none;stroke:#000000;stroke-width:0.039947107px;stroke-linecap:round;stroke-linejoin:round;stroke-miterlimit:4;stroke-dasharray:none;stroke-opacity:1;"
     d="  M 44.027431,125.765   L 44.027431,147.69239   L 61.524264,153.26443   L 26.530599,162.84513   L 44.027431,168.45726   L 44.027431,199.2037  "
     id="path11" />
  <path
     style="fill:none;stroke:#000000;stroke-width:0.039947107px;stroke-linecap:round;stroke-linejoin:round;stroke-miterlimit:4;stroke-dasharray:none;stroke-opacity:1;"
     d="  M 152.40393,149.41611   L 267.65133,40.059794  "
     id="path12" />
  <path
     style="fill:#000000;fill-rule:evenodd;fill-opacity:1;stroke:none;"
     d="  M 191.27246,132.86033   L 192.9103,134.58406   L 263.45689,64.35229   z "
     id="path13" />
  <path
     style="fill:#000000;fill-rule:evenodd;fill-opacity:1;stroke:none;"
     d="  M 192.9103,134.58406   L 263.45689,64.35229   L 265.09472,66.116101   z "
     id="path14" />
  <path
     style="fill:#000000;fill-rule:evenodd;fill-opacity:1;stroke:none;"
     d="  M 144.97377,132.86033   L 146.6116,134.58406   L 241.60582,41.142133   z "
     id="path15" />
  <path
     style="fill:#000000;fill-rule:evenodd;fill-opacity:1;stroke:none;"
     d="  M 146.6116,134.58406   L 241.60582,41.142133   L 243.24365,42.905945   z "
     id="path16" />
  <path
     style="fill:none;stroke:#000000;stroke-width:0.039947107px;stroke-linecap:round;stroke-linejoin:round;stroke-miterlimit:4;stroke-dasharray:none;stroke-opacity:1;"
     d="  M 224.42856,22.862632   L 246.23968,46.072788   L 262.77778,38.09555   L 243.92275,69.162685   L 260.46085,61.185446   L 282.27197,84.395603  "
     id="path17" />
  <path
     style="fill:none;stroke:#000000;stroke-width:0.039947107px;stroke-linecap:round;stroke-linejoin:round;stroke-miterlimit:4;stroke-dasharray:none;stroke-opacity:1;"
     d="  M 168.30288,153.66529   L 168.30288,223.13542  "
     id="path18" />
  <path
     style="fill:none;stroke:#000000;stroke-width:0.039947107px;stroke-linecap:round;stroke-linejoin:round;stroke-miterlimit:4;stroke-dasharray:none;stroke-opacity:1;"
     d="  M 145.81266,153.66529   L 145.81266,223.13542  "
     id="path19" />
  <path
     style="fill:none;stroke:#000000;stroke-width:0.039947107px;stroke-linecap:round;stroke-linejoin:round;stroke-miterlimit:4;stroke-dasharray:none;stroke-opacity:1;"
     d="  M 176.25235,215.15818   L 137.86318,215.15818  "
     id="path20" />
  <path
     style="fill:none;stroke:#000000;stroke-width:0.039947107px;stroke-linecap:round;stroke-linejoin:round;stroke-miterlimit:4;stroke-dasharray:none;stroke-opacity:1;"
     d="  M 160.91266,193.03036   L 160.91266,212.35211  "
     id="path21" />
  <path
     style="fill:none;stroke:#000000;stroke-width:0.039947107px;stroke-linecap:round;stroke-linejoin:round;stroke-miterlimit:4;stroke-dasharray:none;stroke-opacity:1;"
     d="  M 160.91266,195.79634   L 159.63436,193.95235   L 158.3161,193.03036   L 156.39864,193.03036   L 155.12033,193.95235   L 153.84203,195.79634   L 153.20287,198.56232   L 153.20287,200.4063   L 153.84203,203.17228   L 155.12033,205.01626   L 156.39864,205.93825   L 158.3161,205.93825   L 159.63436,205.01626   L 160.91266,203.17228  "
     id="path22" />
  <path
     style="fill:#000000;fill-rule:evenodd;fill-opacity:1;stroke:none;"
     d="  M 161.27219,219.40736   L 164.06849,222.21342   L 172.49732,208.10293   z "
     id="path23" />
  <path
     style="fill:#000000;fill-rule:evenodd;fill-opacity:1;stroke:none;"
     d="  M 164.06849,222.21342   L 172.49732,208.10293   L 175.33357,210.94908   z "
     id="path24" />
  <path
     style="fill:#000000;fill-rule:evenodd;fill-opacity:1;stroke:none;"
     d="  M 152.84335,210.94908   L 150.0071,208.10293   L 141.57826,222.21342   z "
     id="path25" />
  <path
     style="fill:#000000;fill-rule:evenodd;fill-opacity:1;stroke:none;"
     d="  M 150.0071,208.10293   L 141.57826,222.21342   L 138.78197,219.40736   z "
     id="path26" />
  <path
     style="fill:none;stroke:#000000;stroke-width:0.039947107px;stroke-linecap:round;stroke-linejoin:round;stroke-miterlimit:4;stroke-dasharray:none;stroke-opacity:1;"
     d="  M 136.50498,153.66529   L 136.50498,262.42031  "
     id="path27" />
  <path
     style="fill:none;stroke:#000000;stroke-width:0.039947107px;stroke-linecap:round;stroke-linejoin:round;stroke-miterlimit:4;stroke-dasharray:none;stroke-opacity:1;"
     d="  M 168.30288,153.66529   L 168.30288,262.42031  "
     id="path28" />
  <path
     style="fill:none;stroke:#000000;stroke-width:0.039947107px;stroke-linecap:round;stroke-linejoin:round;stroke-miterlimit:4;stroke-dasharray:none;stroke-opacity:1;"
     d="  M 128.55551,254.44307   L 176.25235,254.44307  "
     id="path29" />
  <path
     style="fill:#000000;fill-rule:evenodd;fill-opacity:1;stroke:none;"
     d="  M 143.53567,250.19389   L 140.69943,247.38783   L 132.27059,261.49832   z "
     id="path30" />
  <path
     style="fill:#000000;fill-rule:evenodd;fill-opacity:1;stroke:none;"
     d="  M 140.69943,247.38783   L 132.27059,261.49832   L 129.47429,258.65217   z "
     id="path31" />
  <path
     style="fill:#000000;fill-rule:evenodd;fill-opacity:1;stroke:none;"
     d="  M 161.27219,258.65217   L 164.06849,261.49832   L 172.49732,247.38783   z "
     id="path32" />
  <path
     style="fill:#000000;fill-rule:evenodd;fill-opacity:1;stroke:none;"
     d="  M 164.06849,261.49832   L 172.49732,247.38783   L 175.33357,250.19389   z "
     id="path33" />
  <path
     style="fill:none;stroke:#000000;stroke-width:0.039947107px;stroke-linecap:round;stroke-linejoin:round;stroke-miterlimit:4;stroke-dasharray:none;stroke-opacity:1;"
     d="  M 148.52906,227.10399   L 148.52906,246.46583  "
     id="path34" />
  <path
     style="fill:none;stroke:#000000;stroke-width:0.039947107px;stroke-linecap:round;stroke-linejoin:round;stroke-miterlimit:4;stroke-dasharray:none;stroke-opacity:1;"
     d="  M 148.52906,229.86997   L 149.80737,228.02599   L 151.12562,227.10399   L 153.04308,227.10399   L 154.32139,228.02599   L 155.5997,229.86997   L 156.23885,232.63595   L 156.23885,234.47993   L 155.5997,237.24591   L 154.32139,239.08989   L 153.04308,240.01189   L 151.12562,240.01189   L 149.80737,239.08989   L 148.52906,237.24591  "
     id="path35" />
  <path
     style="fill:none;stroke:#000000;stroke-width:0.039947107px;stroke-linecap:round;stroke-linejoin:round;stroke-miterlimit:4;stroke-dasharray:none;stroke-opacity:1;"
     d="  M 256.70582,22.582025   L 280.55425,22.582025  "
     id="path36" />
  <path
     style="fill:none;stroke:#000000;stroke-width:0.039947107px;stroke-linecap:round;stroke-linejoin:round;stroke-miterlimit:4;stroke-dasharray:none;stroke-opacity:1;"
     d="  M 256.70582,22.582025   L 240.04788,55.773752  "
     id="path37" />
  <path
     style="fill:none;stroke:#000000;stroke-width:0.039947107px;stroke-linecap:round;stroke-linejoin:round;stroke-miterlimit:4;stroke-dasharray:none;stroke-opacity:1;"
     d="  M 128.55551,161.68262   L 95.998616,161.68262  "
     id="path38" />
  <path
     style="fill:none;stroke:#000000;stroke-width:0.039947107px;stroke-linecap:round;stroke-linejoin:round;stroke-miterlimit:4;stroke-dasharray:none;stroke-opacity:1;"
     d="  M 132.51027,149.41611   L 95.998616,149.41611  "
     id="path39" />
  <path
     style="fill:none;stroke:#000000;stroke-width:0.039947107px;stroke-linecap:round;stroke-linejoin:round;stroke-miterlimit:4;stroke-dasharray:none;stroke-opacity:1;"
     d="  M 103.94809,161.68262   L 103.94809,169.65986  "
     id="path40" />
  <path
     style="fill:none;stroke:#000000;stroke-width:0.039947107px;stroke-linecap:round;stroke-linejoin:round;stroke-miterlimit:4;stroke-dasharray:none;stroke-opacity:1;"
     d="  M 103.94809,149.41611   L 103.94809,141.43887  "
     id="path41" />
  <path
     style="fill:none;stroke:#000000;stroke-width:0.039947107px;stroke-linecap:round;stroke-linejoin:round;stroke-miterlimit:4;stroke-dasharray:none;stroke-opacity:1;"
     d="  M 103.94809,161.68262   L 103.94809,149.41611  "
     id="path42" />
  <path
     style="fill:#000000;fill-rule:evenodd;fill-opacity:1;stroke:none;"
     d="  M 108.14254,168.73787   L 110.97878,165.89171   L 96.9174,157.43344   z "
     id="path43" />
  <path
     style="fill:#000000;fill-rule:evenodd;fill-opacity:1;stroke:none;"
     d="  M 110.97878,165.89171   L 96.9174,157.43344   L 99.713697,154.62737   z "
     id="path44" />
  <path
     style="fill:#000000;fill-rule:evenodd;fill-opacity:1;stroke:none;"
     d="  M 99.713697,142.36087   L 96.9174,145.20702   L 110.97878,153.66529   z "
     id="path45" />
  <path
     style="fill:#000000;fill-rule:evenodd;fill-opacity:1;stroke:none;"
     d="  M 96.9174,145.20702   L 110.97878,153.66529   L 108.14254,156.47136   z "
     id="path46" />
  <path
     style="fill:none;stroke:#000000;stroke-width:0.039947107px;stroke-linecap:round;stroke-linejoin:round;stroke-miterlimit:4;stroke-dasharray:none;stroke-opacity:1;"
     d="  M 86.810782,159.39768   L 86.810782,151.66096   L 84.973215,151.66096   L 83.135648,152.30235   L 82.216865,152.98382   L 81.298081,154.26659   L 81.298081,156.19075   L 82.216865,157.47352   L 84.054432,158.7563   L 86.810782,159.39768   L 88.648349,159.39768   L 91.404699,158.7563   L 93.242266,157.47352   L 94.161049,156.19075   L 94.161049,154.26659   L 93.242266,152.98382   L 91.404699,151.66096  "
     id="path47" />
  <path
     style="fill:none;stroke:#000000;stroke-width:0.039947107px;stroke-linecap:round;stroke-linejoin:round;stroke-miterlimit:4;stroke-dasharray:none;stroke-opacity:1;"
     d="  M 408.02546,131.29696   L 408.02546,213.87541  "
     id="path48" />
  <path
     style="fill:#000000;fill-rule:evenodd;fill-opacity:1;stroke:none;"
     d="  M 435.86859,190.78551   L 435.86859,188.4204   L 380.18233,190.78551   z "
     id="path49" />
  <path
     style="fill:#000000;fill-rule:evenodd;fill-opacity:1;stroke:none;"
     d="  M 435.86859,188.4204   L 380.18233,190.78551   L 380.18233,188.4204   z "
     id="path50" />
  <path
     style="fill:#000000;fill-rule:evenodd;fill-opacity:1;stroke:none;"
     d="  M 429.47706,184.41174   L 429.47706,182.00654   L 386.57387,184.41174   z "
     id="path51" />
  <path
     style="fill:#000000;fill-rule:evenodd;fill-opacity:1;stroke:none;"
     d="  M 429.47706,182.00654   L 386.57387,184.41174   L 386.57387,182.00654   z "
     id="path52" />
  <path
     style="fill:#000000;fill-rule:evenodd;fill-opacity:1;stroke:none;"
     d="  M 435.86859,134.90475   L 435.86859,132.49955   L 380.18233,134.90475   z "
     id="path53" />
  <path
     style="fill:#000000;fill-rule:evenodd;fill-opacity:1;stroke:none;"
     d="  M 435.86859,132.49955   L 380.18233,134.90475   L 380.18233,132.49955   z "
     id="path54" />
  <path
     style="fill:#000000;fill-rule:evenodd;fill-opacity:1;stroke:none;"
     d="  M 429.47706,141.27853   L 429.47706,138.91342   L 386.57387,141.27853   z "
     id="path55" />
  <path
     style="fill:#000000;fill-rule:evenodd;fill-opacity:1;stroke:none;"
     d="  M 429.47706,138.91342   L 386.57387,141.27853   L 386.57387,138.91342   z "
     id="path56" />
  <path
     style="fill:none;stroke:#000000;stroke-width:0.039947107px;stroke-linecap:round;stroke-linejoin:round;stroke-miterlimit:4;stroke-dasharray:none;stroke-opacity:1;"
     d="  M 408.02546,197.43989   L 408.02546,145.92857  "
     id="path57" />
  <path
     style="fill:none;stroke:#000000;stroke-width:0.039947107px;stroke-linecap:round;stroke-linejoin:round;stroke-miterlimit:4;stroke-dasharray:none;stroke-opacity:1;"
     d="  M 408.02546,125.96543   L 408.02546,106.00229  "
     id="path58" />
  <path
     style="fill:none;stroke:#000000;stroke-width:0.039947107px;stroke-linecap:round;stroke-linejoin:round;stroke-miterlimit:4;stroke-dasharray:none;stroke-opacity:1;"
     d="  M 408.02546,86.039155   L 408.02546,34.567926  "
     id="path59" />
  <path
     style="fill:#000000;fill-rule:evenodd;fill-opacity:1;stroke:none;"
     d="  M 422.726,133.70215   L 425.12282,133.70215   L 422.726,35.810612   z "
     id="path60" />
  <path
     style="fill:#000000;fill-rule:evenodd;fill-opacity:1;stroke:none;"
     d="  M 425.12282,133.70215   L 422.726,35.810612   L 425.12282,35.810612   z "
     id="path61" />
  <path
     style="fill:#000000;fill-rule:evenodd;fill-opacity:1;stroke:none;"
     d="  M 390.9281,133.70215   L 393.32493,133.70215   L 390.9281,35.810612   z "
     id="path62" />
  <path
     style="fill:#000000;fill-rule:evenodd;fill-opacity:1;stroke:none;"
     d="  M 393.32493,133.70215   L 390.9281,35.810612   L 393.32493,35.810612   z "
     id="path63" />
  <path
     style="fill:#000000;fill-rule:evenodd;fill-opacity:1;stroke:none;"
     d="  M 434.67018,189.623   L 437.06701,189.623   L 434.67018,133.70215   z "
     id="path64" />
  <path
     style="fill:#000000;fill-rule:evenodd;fill-opacity:1;stroke:none;"
     d="  M 437.06701,189.623   L 434.67018,133.70215   L 437.06701,133.70215   z "
     id="path65" />
  <path
     style="fill:#000000;fill-rule:evenodd;fill-opacity:1;stroke:none;"
     d="  M 428.31859,183.20914   L 430.67547,183.20914   L 428.31859,140.07593   z "
     id="path66" />
  <path
     style="fill:#000000;fill-rule:evenodd;fill-opacity:1;stroke:none;"
     d="  M 430.67547,183.20914   L 428.31859,140.07593   L 430.67547,140.07593   z "
     id="path67" />
  <path
     style="fill:#000000;fill-rule:evenodd;fill-opacity:1;stroke:none;"
     d="  M 379.02386,189.623   L 381.38074,189.623   L 379.02386,133.70215   z "
     id="path68" />
  <path
     style="fill:#000000;fill-rule:evenodd;fill-opacity:1;stroke:none;"
     d="  M 381.38074,189.623   L 379.02386,133.70215   L 381.38074,133.70215   z "
     id="path69" />
  <path
     style="fill:#000000;fill-rule:evenodd;fill-opacity:1;stroke:none;"
     d="  M 385.37545,183.20914   L 387.77228,183.20914   L 385.37545,140.07593   z "
     id="path70" />
  <path
     style="fill:#000000;fill-rule:evenodd;fill-opacity:1;stroke:none;"
     d="  M 387.77228,183.20914   L 385.37545,140.07593   L 387.77228,140.07593   z "
     id="path71" />
  <path
     style="fill:none;stroke:#000000;stroke-width:0.039947107px;stroke-linecap:round;stroke-linejoin:round;stroke-miterlimit:4;stroke-dasharray:none;stroke-opacity:1;"
     d="  M 369.87598,35.810612   L 397.67916,35.810612   L 403.27176,18.252669   L 412.77917,53.408641   L 418.37176,35.810612   L 446.17495,35.810612  "
     id="path72" />
  <path
     style="fill:none;stroke:#000000;stroke-width:0.039947107px;stroke-linecap:round;stroke-linejoin:round;stroke-miterlimit:4;stroke-dasharray:none;stroke-opacity:1;"
     d="  M 152.40393,161.68262   L 152.40393,9.1930919  "
     id="path73" />
  <path
     style="fill:#000000;fill-rule:evenodd;fill-opacity:1;stroke:none;"
     d="  M 135.30657,133.70215   L 137.7034,133.70215   L 135.30657,38.416243   z "
     id="path74" />
  <path
     style="fill:#000000;fill-rule:evenodd;fill-opacity:1;stroke:none;"
     d="  M 137.7034,133.70215   L 135.30657,38.416243   L 137.7034,38.416243   z "
     id="path75" />
  <path
     style="fill:none;stroke:#000000;stroke-width:0.039947107px;stroke-linecap:round;stroke-linejoin:round;stroke-miterlimit:4;stroke-dasharray:none;stroke-opacity:1;"
     d="  M 114.2145,38.416243   L 142.05763,38.416243   L 147.61028,20.8583   L 157.15764,55.974185   L 162.71028,38.416243   L 190.55342,38.416243  "
     id="path76" />
  <path
     style="fill:none;stroke:#000000;stroke-width:0.039947107px;stroke-linecap:round;stroke-linejoin:round;stroke-miterlimit:4;stroke-dasharray:none;stroke-opacity:1;"
     d="  M 102.07058,71.207103   L 125.919,71.207103  "
     id="path77" />
  <path
     style="fill:none;stroke:#000000;stroke-width:0.039947107px;stroke-linecap:round;stroke-linejoin:round;stroke-miterlimit:4;stroke-dasharray:none;stroke-opacity:1;"
     d="  M 125.919,71.207103   L 144.85393,107.84628  "
     id="path78" />
  <path
     style="fill:none;stroke:#000000;stroke-width:0.039947107px;stroke-linecap:round;stroke-linejoin:round;stroke-miterlimit:4;stroke-dasharray:none;stroke-opacity:1;"
     d="  M 110.02005,52.286215   L 111.29836,51.364223   L 113.21582,48.598246   L 113.21582,67.960086  "
     id="path79" />
  <path
     style="fill:none;stroke:#000000;stroke-width:0.039947107px;stroke-linecap:round;stroke-linejoin:round;stroke-miterlimit:4;stroke-dasharray:none;stroke-opacity:1;"
     d="  M 265.17461,4.6633031   L 265.17461,3.7413107   L 265.81376,1.8973259   L 266.45292,0.97533348   L 267.73123,0.053341076   L 270.32779,0.053341076   L 271.60609,0.97533348   L 272.24525,1.8973259   L 272.8844,3.7413107   L 272.8844,5.5852955   L 272.24525,7.4292803   L 270.96694,10.195258   L 264.53546,19.415182   L 273.52356,19.415182  "
     id="path80" />
  <path
     style="fill:none;stroke:#000000;stroke-width:0.039947107px;stroke-linecap:round;stroke-linejoin:round;stroke-miterlimit:4;stroke-dasharray:none;stroke-opacity:1;"
     d="  M 74.227443,203.61323   L 81.897288,203.61323   L 81.897288,201.76925   L 81.258134,199.92526   L 80.61898,199.00327   L 79.340673,198.08128   L 77.423212,198.08128   L 76.144905,199.00327   L 74.866597,200.84725   L 74.227443,203.61323   L 74.227443,205.45722   L 74.866597,208.22319   L 76.144905,210.06718   L 77.423212,210.98917   L 79.340673,210.98917   L 80.61898,210.06718   L 81.897288,208.22319  "
     id="path81" />
  <path
     style="fill:none;stroke:#000000;stroke-width:0.039947107px;stroke-linecap:round;stroke-linejoin:round;stroke-miterlimit:4;stroke-dasharray:none;stroke-opacity:1;"
     d="  M 94.320838,197.47998   L 85.772157,204.37488   L 94.320838,211.26978  "
     id="path82" />
  <path
     style="fill:none;stroke:#000000;stroke-width:0.039947107px;stroke-linecap:round;stroke-linejoin:round;stroke-miterlimit:4;stroke-dasharray:none;stroke-opacity:1;"
     d="  M 99.67375,195.15495   L 98.075866,195.9166   L 96.997294,198.24162   L 96.477982,202.04985   L 96.477982,204.37488   L 96.997294,208.22319   L 98.075866,210.50813   L 99.67375,211.26978   L 100.75232,211.26978   L 102.35021,210.50813   L 103.42878,208.22319   L 103.94809,204.37488   L 103.94809,202.04985   L 103.42878,198.24162   L 102.35021,195.9166   L 100.75232,195.15495   L 99.67375,195.15495   z "
     id="path83" />
  <path
     style="fill:#000000;fill-rule:evenodd;fill-opacity:1;stroke:none;"
     d="  M 167.10447,112.37607   L 169.50129,112.37607   L 167.10447,38.416243   z "
     id="path84" />
  <path
     style="fill:#000000;fill-rule:evenodd;fill-opacity:1;stroke:none;"
     d="  M 169.50129,112.37607   L 167.10447,38.416243   L 169.50129,38.416243   z "
     id="path85" />
  <path
     style="fill:none;stroke:#000000;stroke-width:0.039947107px;stroke-linecap:round;stroke-linejoin:round;stroke-miterlimit:4;stroke-dasharray:none;stroke-opacity:1;"
     d="  M 168.30288,112.37607   L 168.30288,121.03478  "
     id="path86" />
  <path
     style="fill:none;stroke:#000000;stroke-width:0.039947107px;stroke-linecap:round;stroke-linejoin:round;stroke-miterlimit:4;stroke-dasharray:none;stroke-opacity:1;"
     d="  M 168.30288,125.04344   L 168.30288,133.70215  "
     id="path87" />
</svg>
