<?xml version="1.0" encoding="UTF-8" standalone="no"?>
<svg
   version="1.0"
   width="51.599998mm"
   height="25.030001mm"
   id="svg40"
   sodipodi:docname="image1188.emf"
   xmlns:inkscape="http://www.inkscape.org/namespaces/inkscape"
   xmlns:sodipodi="http://sodipodi.sourceforge.net/DTD/sodipodi-0.dtd"
   xmlns="http://www.w3.org/2000/svg"
   xmlns:svg="http://www.w3.org/2000/svg">
  <sodipodi:namedview
     id="namedview40"
     pagecolor="#ffffff"
     bordercolor="#000000"
     borderopacity="0.25"
     inkscape:showpageshadow="2"
     inkscape:pageopacity="0.0"
     inkscape:pagecheckerboard="0"
     inkscape:deskcolor="#d1d1d1"
     inkscape:document-units="mm" />
  <defs
     id="defs1">
    <pattern
       id="EMFhbasepattern"
       patternUnits="userSpaceOnUse"
       width="6"
       height="6"
       x="0"
       y="0" />
  </defs>
  <path
     style="fill:none;stroke:#000000;stroke-width:0.035649389px;stroke-linecap:round;stroke-linejoin:round;stroke-miterlimit:4;stroke-dasharray:none;stroke-opacity:1;"
     d="  M 100.83413,2.7661346   L 100.90543,3.1229631   L 101.04802,3.4441088   L 101.33322,3.7652544   L 101.72536,4.0864001   L 102.1888,4.3718629   L 102.79484,4.6573257   L 103.43653,4.9071056   L 104.18517,5.1212027   L 105.00511,5.3352999   L 105.89634,5.4780313   L 106.82322,5.6207627   L 107.78576,5.6921284   L 108.74829,5.7634941   L 109.74647,5.7634941   L 110.74466,5.7634941   L 111.74284,5.6921284   L 112.70537,5.6207627   L 113.63226,5.4780313   L 114.52349,5.3352999   L 115.34343,5.1212027   L 116.09207,4.9071056   L 116.73375,4.6573257   L 117.30414,4.3718629   L 117.80324,4.0864001   L 118.19538,3.7652544   L 118.48057,3.4441088   L 118.62317,3.1229631   L 118.69447,2.7661346  "
     id="path1" />
  <path
     style="fill:none;stroke:#000000;stroke-width:0.035649389px;stroke-linecap:round;stroke-linejoin:round;stroke-miterlimit:4;stroke-dasharray:none;stroke-opacity:1;"
     d="  M 118.65882,3.0159146   L 118.58752,2.6947689   L 118.44493,2.3736232   L 118.15973,2.0524776   L 117.76759,1.7313319   L 117.30414,1.4458691   L 116.69811,1.1604063   L 116.05642,0.91062635   L 115.30778,0.69652925   L 114.48784,0.48243214   L 113.59661,0.33970074   L 112.66972,0.19696934   L 111.70719,0.089920784   L 110.74466,0.054237933   L 109.74647,0.018555082   L 108.74829,0.054237933   L 107.75011,0.089920784   L 106.78757,0.19696934   L 105.86069,0.33970074   L 104.96946,0.48243214   L 104.14952,0.69652925   L 103.43653,0.91062635   L 102.75919,1.1604063   L 102.1888,1.4458691   L 101.68971,1.7313319   L 101.29757,2.0524776   L 101.01237,2.3736232   L 100.86978,2.6947689   L 100.79848,3.0159146  "
     id="path2" />
  <path
     style="fill:none;stroke:#000000;stroke-width:0.035649389px;stroke-linecap:round;stroke-linejoin:round;stroke-miterlimit:4;stroke-dasharray:none;stroke-opacity:1;"
     d="  M 100.83413,7.4762709   L 100.90543,7.8330994   L 101.04802,8.1542451   L 101.33322,8.4753907   L 101.72536,8.7965364   L 102.1888,9.0819992   L 102.79484,9.367462   L 103.43653,9.617242   L 104.18517,9.8313391   L 105.00511,10.045436   L 105.89634,10.188168   L 106.82322,10.330899   L 107.78576,10.402265   L 108.74829,10.47363   L 109.74647,10.47363   L 110.74466,10.47363   L 111.74284,10.402265   L 112.70537,10.330899   L 113.63226,10.188168   L 114.52349,10.045436   L 115.34343,9.8313391   L 116.09207,9.617242   L 116.73375,9.367462   L 117.30414,9.0819992   L 117.80324,8.7965364   L 118.19538,8.4753907   L 118.48057,8.1542451   L 118.62317,7.8330994   L 118.69447,7.4762709  "
     id="path3" />
  <path
     style="fill:none;stroke:#000000;stroke-width:0.035649389px;stroke-linecap:round;stroke-linejoin:round;stroke-miterlimit:4;stroke-dasharray:none;stroke-opacity:1;"
     d="  M 100.79848,3.0159146   L 100.83413,7.4762709  "
     id="path4" />
  <path
     style="fill:none;stroke:#000000;stroke-width:0.035649389px;stroke-linecap:round;stroke-linejoin:round;stroke-miterlimit:4;stroke-dasharray:none;stroke-opacity:1;"
     d="  M 118.69447,2.7661346   L 118.69447,7.4762709  "
     id="path5" />
  <path
     style="fill:none;stroke:#000000;stroke-width:0.035649389px;stroke-linecap:round;stroke-linejoin:round;stroke-miterlimit:4;stroke-dasharray:none;stroke-opacity:1;"
     d="  M 102.90179,59.323453   L 102.93744,59.608916   L 103.11569,59.858696   L 103.36523,60.144159   L 103.75738,60.393939   L 104.22082,60.608036   L 104.75556,60.822133   L 105.39725,61.000547   L 106.07459,61.178961   L 106.82322,61.321693   L 107.64316,61.428741   L 108.4631,61.464424   L 109.31868,61.500107   L 110.20992,61.500107   L 111.0655,61.464424   L 111.88544,61.428741   L 112.70537,61.321693   L 113.45401,61.178961   L 114.13135,61.000547   L 114.77304,60.822133   L 115.30778,60.608036   L 115.77122,60.393939   L 116.16336,60.144159   L 116.41291,59.858696   L 116.59116,59.608916   L 116.62681,59.323453  "
     id="path6" />
  <path
     style="fill:none;stroke:#000000;stroke-width:0.035649389px;stroke-linecap:round;stroke-linejoin:round;stroke-miterlimit:4;stroke-dasharray:none;stroke-opacity:1;"
     d="  M 102.90179,62.499227   L 102.93744,62.78469   L 103.11569,63.070152   L 103.36523,63.319932   L 103.75738,63.569712   L 104.22082,63.819492   L 104.75556,63.997907   L 105.39725,64.212004   L 106.07459,64.354735   L 106.82322,64.497467   L 107.64316,64.604515   L 108.4631,64.675881   L 109.31868,64.711564   L 110.20992,64.711564   L 111.0655,64.675881   L 111.88544,64.604515   L 112.70537,64.497467   L 113.45401,64.354735   L 114.13135,64.212004   L 114.77304,63.997907   L 115.30778,63.819492   L 115.77122,63.569712   L 116.16336,63.319932   L 116.41291,63.070152   L 116.59116,62.78469   L 116.62681,62.499227  "
     id="path7" />
  <path
     style="fill:none;stroke:#000000;stroke-width:0.035649389px;stroke-linecap:round;stroke-linejoin:round;stroke-miterlimit:4;stroke-dasharray:none;stroke-opacity:1;"
     d="  M 102.90179,59.323453   L 102.83049,59.359136   L 102.75919,59.430502   L 102.68789,59.573233   L 102.65225,59.751647   L 102.6166,59.965744   L 102.58095,60.215524   L 102.5453,60.500987   L 102.5453,60.78645   L 102.5453,61.071913   L 102.5453,61.357376   L 102.58095,61.642838   L 102.6166,61.892618   L 102.65225,62.106716   L 102.68789,62.28513   L 102.75919,62.392178   L 102.83049,62.499227   L 102.90179,62.499227  "
     id="path8" />
  <path
     style="fill:none;stroke:#000000;stroke-width:0.035649389px;stroke-linecap:round;stroke-linejoin:round;stroke-miterlimit:4;stroke-dasharray:none;stroke-opacity:1;"
     d="  M 116.62681,59.323453   L 116.69811,59.359136   L 116.7694,59.430502   L 116.8407,59.573233   L 116.87635,59.751647   L 116.912,59.965744   L 116.94765,60.215524   L 116.9833,60.500987   L 116.9833,60.78645   L 116.9833,61.071913   L 116.9833,61.357376   L 116.94765,61.642838   L 116.912,61.892618   L 116.87635,62.106716   L 116.8407,62.28513   L 116.7694,62.392178   L 116.69811,62.499227   L 116.62681,62.499227  "
     id="path9" />
  <path
     style="fill:none;stroke:#000000;stroke-width:0.035649389px;stroke-linecap:round;stroke-linejoin:round;stroke-miterlimit:4;stroke-dasharray:none;stroke-opacity:1;"
     d="  M 114.45219,10.045436   L 114.45219,60.929181  "
     id="path10" />
  <path
     style="fill:none;stroke:#000000;stroke-width:0.035649389px;stroke-linecap:round;stroke-linejoin:round;stroke-miterlimit:4;stroke-dasharray:none;stroke-opacity:1;"
     d="  M 105.0764,10.045436   L 105.0764,60.929181  "
     id="path11" />
  <path
     style="fill:none;stroke:#000000;stroke-width:0.035649389px;stroke-linecap:round;stroke-linejoin:round;stroke-miterlimit:4;stroke-dasharray:none;stroke-opacity:1;"
     d="  M 105.0764,57.753408   L 105.00511,57.682042   L 104.89816,57.682042   L 104.79121,57.682042   L 104.61296,57.753408   L 104.43471,57.824773   L 104.25647,57.896139   L 104.04257,58.003188   L 103.86432,58.145919   L 103.65043,58.28865   L 103.47218,58.467065   L 103.29393,58.609796   L 103.15134,58.752528   L 103.00874,58.930942   L 102.93744,59.03799   L 102.90179,59.180722   L 102.86614,59.252087   L 102.90179,59.323453  "
     id="path12" />
  <path
     style="fill:none;stroke:#000000;stroke-width:0.035649389px;stroke-linecap:round;stroke-linejoin:round;stroke-miterlimit:4;stroke-dasharray:none;stroke-opacity:1;"
     d="  M 114.45219,57.753408   L 114.52349,57.682042   L 114.63044,57.682042   L 114.73739,57.682042   L 114.91564,57.753408   L 115.05823,57.824773   L 115.27213,57.896139   L 115.48603,58.003188   L 115.66427,58.145919   L 115.87817,58.28865   L 116.05642,58.467065   L 116.23466,58.609796   L 116.37726,58.752528   L 116.48421,58.930942   L 116.59116,59.03799   L 116.62681,59.180722   L 116.66246,59.252087   L 116.62681,59.323453  "
     id="path13" />
  <path
     style="fill:none;stroke:#000000;stroke-width:0.035649389px;stroke-linecap:round;stroke-linejoin:round;stroke-miterlimit:4;stroke-dasharray:none;stroke-opacity:1;"
     d="  M 98.730812,83.159597   L 98.730812,92.57987  "
     id="path14" />
  <path
     style="fill:none;stroke:#000000;stroke-width:0.035649389px;stroke-linecap:round;stroke-linejoin:round;stroke-miterlimit:4;stroke-dasharray:none;stroke-opacity:1;"
     d="  M 98.730812,92.57987   L 192.73825,92.57987  "
     id="path15" />
  <path
     style="fill:none;stroke:#000000;stroke-width:0.035649389px;stroke-linecap:round;stroke-linejoin:round;stroke-miterlimit:4;stroke-dasharray:none;stroke-opacity:1;"
     d="  M 192.73825,92.57987   L 192.73825,83.159597  "
     id="path16" />
  <path
     style="fill:none;stroke:#000000;stroke-width:0.035649389px;stroke-linecap:round;stroke-linejoin:round;stroke-miterlimit:4;stroke-dasharray:none;stroke-opacity:1;"
     d="  M 192.73825,83.159597   L 98.730812,83.159597  "
     id="path17" />
  <path
     style="fill:none;stroke:#000000;stroke-width:0.035649389px;stroke-linecap:round;stroke-linejoin:round;stroke-miterlimit:4;stroke-dasharray:none;stroke-opacity:1;"
     d="  M 192.73825,83.159597   L 114.45219,37.913743  "
     id="path18" />
  <path
     style="fill:none;stroke:#000000;stroke-width:0.035649389px;stroke-linecap:round;stroke-linejoin:round;stroke-miterlimit:4;stroke-dasharray:none;stroke-opacity:1;"
     d="  M 98.730812,83.159597   L 0.01765164,26.067036  "
     id="path19" />
  <path
     style="fill:none;stroke:#000000;stroke-width:0.035649389px;stroke-linecap:round;stroke-linejoin:round;stroke-miterlimit:4;stroke-dasharray:none;stroke-opacity:1;"
     d="  M 98.730812,92.57987   L 0.01765164,35.487309  "
     id="path20" />
  <path
     style="fill:#000000;fill-rule:evenodd;fill-opacity:1;stroke:none;"
     d="  M 95.023276,42.231368   L 100.04984,45.51419   L 102.36705,45.51419   z "
     id="path21" />
  <path
     style="fill:#000000;fill-rule:evenodd;fill-opacity:1;stroke:none;"
     d="  M 100.04984,45.51419   L 100.44198,45.76397   L 102.93744,45.76397   z "
     id="path22" />
  <path
     style="fill:#000000;fill-rule:evenodd;fill-opacity:1;stroke:none;"
     d="  M 100.04984,45.51419   L 102.36705,45.51419   L 102.93744,45.76397   z "
     id="path23" />
  <path
     style="fill:#000000;fill-rule:evenodd;fill-opacity:1;stroke:none;"
     d="  M 119.19356,45.51419   L 116.8407,45.76397   L 119.58571,45.76397   z "
     id="path24" />
  <path
     style="fill:#000000;fill-rule:evenodd;fill-opacity:1;stroke:none;"
     d="  M 100.44198,45.76397   L 100.90543,46.049433   L 103.65043,46.049433   z "
     id="path25" />
  <path
     style="fill:#000000;fill-rule:evenodd;fill-opacity:1;stroke:none;"
     d="  M 100.44198,45.76397   L 102.93744,45.76397   L 103.65043,46.049433   z "
     id="path26" />
  <path
     style="fill:#000000;fill-rule:evenodd;fill-opacity:1;stroke:none;"
     d="  M 116.8407,45.76397   L 117.55369,46.049433   L 120.04915,46.049433   z "
     id="path27" />
  <path
     style="fill:#000000;fill-rule:evenodd;fill-opacity:1;stroke:none;"
     d="  M 116.8407,45.76397   L 119.58571,45.76397   L 120.04915,46.049433   z "
     id="path28" />
  <path
     style="fill:#000000;fill-rule:evenodd;fill-opacity:1;stroke:none;"
     d="  M 100.90543,46.049433   L 103.65043,46.049433   L 101.29757,46.299213   z "
     id="path29" />
  <path
     style="fill:#000000;fill-rule:evenodd;fill-opacity:1;stroke:none;"
     d="  M 117.55369,46.049433   L 118.12408,46.299213   L 120.44129,46.299213   z "
     id="path30" />
  <path
     style="fill:#000000;fill-rule:evenodd;fill-opacity:1;stroke:none;"
     d="  M 117.55369,46.049433   L 120.04915,46.049433   L 120.44129,46.299213   z "
     id="path31" />
  <path
     style="fill:#000000;fill-rule:evenodd;fill-opacity:1;stroke:none;"
     d="  M 118.12408,46.299213   L 120.44129,46.299213   L 125.46785,49.546352   z "
     id="path32" />
  <path
     style="fill:none;stroke:#000000;stroke-width:0.035649389px;stroke-linecap:round;stroke-linejoin:round;stroke-miterlimit:4;stroke-dasharray:none;stroke-opacity:1;"
     d="  M 103.65043,46.049433   L 101.29757,46.299213  "
     id="path33" />
  <path
     style="fill:none;stroke:#000000;stroke-width:0.035649389px;stroke-linecap:round;stroke-linejoin:round;stroke-miterlimit:4;stroke-dasharray:none;stroke-opacity:1;"
     d="  M 101.29757,46.299213   L 95.023276,42.231368  "
     id="path34" />
  <path
     style="fill:none;stroke:#000000;stroke-width:0.035649389px;stroke-linecap:round;stroke-linejoin:round;stroke-miterlimit:4;stroke-dasharray:none;stroke-opacity:1;"
     d="  M 123.18629,54.720365   L 114.59479,50.9023  "
     id="path35" />
  <path
     style="fill:none;stroke:#000000;stroke-width:0.035649389px;stroke-linecap:round;stroke-linejoin:round;stroke-miterlimit:4;stroke-dasharray:none;stroke-opacity:1;"
     d="  M 114.59479,50.9023   L 95.023276,42.231368  "
     id="path36" />
  <path
     style="fill:none;stroke:#000000;stroke-width:0.035649389px;stroke-linecap:round;stroke-linejoin:round;stroke-miterlimit:4;stroke-dasharray:none;stroke-opacity:1;"
     d="  M 116.8407,45.76397   L 97.304837,37.093037  "
     id="path37" />
  <path
     style="fill:none;stroke:#000000;stroke-width:0.035649389px;stroke-linecap:round;stroke-linejoin:round;stroke-miterlimit:4;stroke-dasharray:none;stroke-opacity:1;"
     d="  M 116.8407,45.76397   L 119.19356,45.51419  "
     id="path38" />
  <path
     style="fill:none;stroke:#000000;stroke-width:0.035649389px;stroke-linecap:round;stroke-linejoin:round;stroke-miterlimit:4;stroke-dasharray:none;stroke-opacity:1;"
     d="  M 125.46785,49.546352   L 116.8407,45.76397  "
     id="path39" />
  <path
     style="fill:none;stroke:#000000;stroke-width:0.035649389px;stroke-linecap:round;stroke-linejoin:round;stroke-miterlimit:4;stroke-dasharray:none;stroke-opacity:1;"
     d="  M 119.19356,45.51419   L 125.46785,49.546352  "
     id="path40" />
</svg>
