<?xml version="1.0" encoding="UTF-8" standalone="no"?>
<svg
   version="1.0"
   width="82.410004mm"
   height="64.519997mm"
   id="svg120"
   sodipodi:docname="image272.emf"
   xmlns:inkscape="http://www.inkscape.org/namespaces/inkscape"
   xmlns:sodipodi="http://sodipodi.sourceforge.net/DTD/sodipodi-0.dtd"
   xmlns="http://www.w3.org/2000/svg"
   xmlns:svg="http://www.w3.org/2000/svg">
  <sodipodi:namedview
     id="namedview120"
     pagecolor="#ffffff"
     bordercolor="#000000"
     borderopacity="0.25"
     inkscape:showpageshadow="2"
     inkscape:pageopacity="0.0"
     inkscape:pagecheckerboard="0"
     inkscape:deskcolor="#d1d1d1"
     inkscape:document-units="mm" />
  <defs
     id="defs1">
    <pattern
       id="EMFhbasepattern"
       patternUnits="userSpaceOnUse"
       width="6"
       height="6"
       x="0"
       y="0" />
  </defs>
  <path
     style="fill:#000000;fill-rule:evenodd;fill-opacity:1;stroke:none;"
     d="  M 290.91895,119.73575   L 290.91895,117.33233   L 214.77594,119.73575   z "
     id="path1" />
  <path
     style="fill:#000000;fill-rule:evenodd;fill-opacity:1;stroke:none;"
     d="  M 290.91895,117.33233   L 214.77594,119.73575   L 214.77594,117.33233   z "
     id="path2" />
  <path
     style="fill:#000000;fill-rule:evenodd;fill-opacity:1;stroke:none;"
     d="  M 157.23946,119.73575   L 157.23946,117.33233   L 17.850238,119.73575   z "
     id="path3" />
  <path
     style="fill:#000000;fill-rule:evenodd;fill-opacity:1;stroke:none;"
     d="  M 157.23946,117.33233   L 17.850238,119.73575   L 17.850238,117.33233   z "
     id="path4" />
  <path
     style="fill:#000000;fill-rule:evenodd;fill-opacity:1;stroke:none;"
     d="  M 290.91895,127.06615   L 290.91895,125.86444   L 277.3833,127.06615   z "
     id="path5" />
  <path
     style="fill:#000000;fill-rule:evenodd;fill-opacity:1;stroke:none;"
     d="  M 290.91895,125.86444   L 277.3833,127.06615   L 277.3833,125.86444   z "
     id="path6" />
  <path
     style="fill:#000000;fill-rule:evenodd;fill-opacity:1;stroke:none;"
     d="  M 269.47752,127.06615   L 269.47752,125.86444   L 249.71308,127.06615   z "
     id="path7" />
  <path
     style="fill:#000000;fill-rule:evenodd;fill-opacity:1;stroke:none;"
     d="  M 269.47752,125.86444   L 249.71308,127.06615   L 249.71308,125.86444   z "
     id="path8" />
  <path
     style="fill:#000000;fill-rule:evenodd;fill-opacity:1;stroke:none;"
     d="  M 241.8073,127.06615   L 241.8073,125.86444   L 222.04286,127.06615   z "
     id="path9" />
  <path
     style="fill:#000000;fill-rule:evenodd;fill-opacity:1;stroke:none;"
     d="  M 241.8073,125.86444   L 222.04286,127.06615   L 222.04286,125.86444   z "
     id="path10" />
  <path
     style="fill:#000000;fill-rule:evenodd;fill-opacity:1;stroke:none;"
     d="  M 214.13709,127.06615   L 214.13709,125.86444   L 200.60144,127.06615   z "
     id="path11" />
  <path
     style="fill:#000000;fill-rule:evenodd;fill-opacity:1;stroke:none;"
     d="  M 214.13709,125.86444   L 200.60144,127.06615   L 200.60144,125.86444   z "
     id="path12" />
  <path
     style="fill:#000000;fill-rule:evenodd;fill-opacity:1;stroke:none;"
     d="  M 200.60144,127.06615   L 200.60144,125.86444   L 200.60144,125.86444   z "
     id="path13" />
  <path
     style="fill:none;stroke:#000000;stroke-width:0.95827591px;stroke-linecap:round;stroke-linejoin:round;stroke-miterlimit:4;stroke-dasharray:none;stroke-opacity:1;"
     d="  M 290.91895,112.20506   L 290.91895,139.96445   L 308.2877,145.53236   L 273.51027,155.06589   L 290.91895,160.59373   L 290.91895,187.35171  "
     id="path14" />
  <path
     style="fill:#000000;fill-rule:evenodd;fill-opacity:1;stroke:none;"
     d="  M 290.91895,183.22585   L 290.91895,180.8625   L 17.850238,183.22585   z "
     id="path15" />
  <path
     style="fill:#000000;fill-rule:evenodd;fill-opacity:1;stroke:none;"
     d="  M 290.91895,180.8625   L 17.850238,183.22585   L 17.850238,180.8625   z "
     id="path16" />
  <path
     style="fill:#000000;fill-rule:evenodd;fill-opacity:1;stroke:none;"
     d="  M 290.91895,174.69374   L 290.91895,173.49204   L 268.99838,174.69374   z "
     id="path17" />
  <path
     style="fill:#000000;fill-rule:evenodd;fill-opacity:1;stroke:none;"
     d="  M 290.91895,173.49204   L 268.99838,174.69374   L 268.99838,173.49204   z "
     id="path18" />
  <path
     style="fill:#000000;fill-rule:evenodd;fill-opacity:1;stroke:none;"
     d="  M 261.09261,174.69374   L 261.09261,173.49204   L 241.32817,174.69374   z "
     id="path19" />
  <path
     style="fill:#000000;fill-rule:evenodd;fill-opacity:1;stroke:none;"
     d="  M 261.09261,173.49204   L 241.32817,174.69374   L 241.32817,173.49204   z "
     id="path20" />
  <path
     style="fill:#000000;fill-rule:evenodd;fill-opacity:1;stroke:none;"
     d="  M 233.42239,174.69374   L 233.42239,173.49204   L 213.65795,174.69374   z "
     id="path21" />
  <path
     style="fill:#000000;fill-rule:evenodd;fill-opacity:1;stroke:none;"
     d="  M 233.42239,173.49204   L 213.65795,174.69374   L 213.65795,173.49204   z "
     id="path22" />
  <path
     style="fill:#000000;fill-rule:evenodd;fill-opacity:1;stroke:none;"
     d="  M 205.75217,174.69374   L 205.75217,173.49204   L 185.98773,174.69374   z "
     id="path23" />
  <path
     style="fill:#000000;fill-rule:evenodd;fill-opacity:1;stroke:none;"
     d="  M 205.75217,173.49204   L 185.98773,174.69374   L 185.98773,173.49204   z "
     id="path24" />
  <path
     style="fill:#000000;fill-rule:evenodd;fill-opacity:1;stroke:none;"
     d="  M 178.08196,174.69374   L 178.08196,173.49204   L 158.31752,174.69374   z "
     id="path25" />
  <path
     style="fill:#000000;fill-rule:evenodd;fill-opacity:1;stroke:none;"
     d="  M 178.08196,173.49204   L 158.31752,174.69374   L 158.31752,173.49204   z "
     id="path26" />
  <path
     style="fill:#000000;fill-rule:evenodd;fill-opacity:1;stroke:none;"
     d="  M 150.41174,174.69374   L 150.41174,173.49204   L 130.6473,174.69374   z "
     id="path27" />
  <path
     style="fill:#000000;fill-rule:evenodd;fill-opacity:1;stroke:none;"
     d="  M 150.41174,173.49204   L 130.6473,174.69374   L 130.6473,173.49204   z "
     id="path28" />
  <path
     style="fill:#000000;fill-rule:evenodd;fill-opacity:1;stroke:none;"
     d="  M 122.74152,174.69374   L 122.74152,173.49204   L 102.97708,174.69374   z "
     id="path29" />
  <path
     style="fill:#000000;fill-rule:evenodd;fill-opacity:1;stroke:none;"
     d="  M 122.74152,173.49204   L 102.97708,174.69374   L 102.97708,173.49204   z "
     id="path30" />
  <path
     style="fill:#000000;fill-rule:evenodd;fill-opacity:1;stroke:none;"
     d="  M 95.071305,174.69374   L 95.071305,173.49204   L 75.306864,174.69374   z "
     id="path31" />
  <path
     style="fill:#000000;fill-rule:evenodd;fill-opacity:1;stroke:none;"
     d="  M 95.071305,173.49204   L 75.306864,174.69374   L 75.306864,173.49204   z "
     id="path32" />
  <path
     style="fill:#000000;fill-rule:evenodd;fill-opacity:1;stroke:none;"
     d="  M 67.401088,174.69374   L 67.401088,173.49204   L 47.636647,174.69374   z "
     id="path33" />
  <path
     style="fill:#000000;fill-rule:evenodd;fill-opacity:1;stroke:none;"
     d="  M 67.401088,173.49204   L 47.636647,174.69374   L 47.636647,173.49204   z "
     id="path34" />
  <path
     style="fill:#000000;fill-rule:evenodd;fill-opacity:1;stroke:none;"
     d="  M 39.730871,174.69374   L 39.730871,173.49204   L 17.850238,174.69374   z "
     id="path35" />
  <path
     style="fill:#000000;fill-rule:evenodd;fill-opacity:1;stroke:none;"
     d="  M 39.730871,173.49204   L 17.850238,174.69374   L 17.850238,173.49204   z "
     id="path36" />
  <path
     style="fill:#000000;fill-rule:evenodd;fill-opacity:1;stroke:none;"
     d="  M 17.850238,174.69374   L 17.850238,173.49204   L 17.850238,173.49204   z "
     id="path37" />
  <path
     style="fill:none;stroke:#000000;stroke-width:0.95827591px;stroke-linecap:round;stroke-linejoin:round;stroke-miterlimit:4;stroke-dasharray:none;stroke-opacity:1;"
     d="  M 17.850238,96.703058   L 17.850238,140.36502   L 35.218989,145.93293   L 0.44155851,155.46646   L 17.850238,160.9943   L 17.850238,200.69064  "
     id="path38" />
  <path
     style="fill:none;stroke:#000000;stroke-width:0.95827591px;stroke-linecap:round;stroke-linejoin:round;stroke-miterlimit:4;stroke-dasharray:none;stroke-opacity:1;"
     d="  M 152.52793,150.29912   L 193.85358,111.08347  "
     id="path39" />
  <path
     style="fill:none;stroke:#000000;stroke-width:0.95827591px;stroke-linecap:round;stroke-linejoin:round;stroke-miterlimit:4;stroke-dasharray:none;stroke-opacity:1;"
     d="  M 208.18779,97.464138   L 222.56193,83.844809  "
     id="path40" />
  <path
     style="fill:none;stroke:#000000;stroke-width:0.95827591px;stroke-linecap:round;stroke-linejoin:round;stroke-miterlimit:4;stroke-dasharray:none;stroke-opacity:1;"
     d="  M 236.93607,70.22548   L 278.26172,31.009825  "
     id="path41" />
  <path
     style="fill:#000000;fill-rule:evenodd;fill-opacity:1;stroke:none;"
     d="  M 156.40096,117.65279   L 158.03802,119.41529   L 263.84765,15.748165   z "
     id="path42" />
  <path
     style="fill:#000000;fill-rule:evenodd;fill-opacity:1;stroke:none;"
     d="  M 158.03802,119.41529   L 263.84765,15.748165   L 265.48471,17.47061   z "
     id="path43" />
  <path
     style="fill:#000000;fill-rule:evenodd;fill-opacity:1;stroke:none;"
     d="  M 162.07076,121.85876   L 162.86933,122.69995   L 172.25244,112.20506   z "
     id="path44" />
  <path
     style="fill:#000000;fill-rule:evenodd;fill-opacity:1;stroke:none;"
     d="  M 162.86933,122.69995   L 172.25244,112.20506   L 173.05101,113.08631   z "
     id="path45" />
  <path
     style="fill:#000000;fill-rule:evenodd;fill-opacity:1;stroke:none;"
     d="  M 178.0021,106.75733   L 178.80066,107.63858   L 192.33631,93.137998   z "
     id="path46" />
  <path
     style="fill:#000000;fill-rule:evenodd;fill-opacity:1;stroke:none;"
     d="  M 178.80066,107.63858   L 192.33631,93.137998   L 193.1748,93.979192   z "
     id="path47" />
  <path
     style="fill:#000000;fill-rule:evenodd;fill-opacity:1;stroke:none;"
     d="  M 198.08597,87.690266   L 198.92446,88.53146   L 212.4601,74.030881   z "
     id="path48" />
  <path
     style="fill:#000000;fill-rule:evenodd;fill-opacity:1;stroke:none;"
     d="  M 198.92446,88.53146   L 212.4601,74.030881   L 213.2986,74.912132   z "
     id="path49" />
  <path
     style="fill:#000000;fill-rule:evenodd;fill-opacity:1;stroke:none;"
     d="  M 218.20976,68.583149   L 219.04825,69.4644   L 232.5839,54.963821   z "
     id="path50" />
  <path
     style="fill:#000000;fill-rule:evenodd;fill-opacity:1;stroke:none;"
     d="  M 219.04825,69.4644   L 232.5839,54.963821   L 233.38246,55.845071   z "
     id="path51" />
  <path
     style="fill:#000000;fill-rule:evenodd;fill-opacity:1;stroke:none;"
     d="  M 238.33355,49.516089   L 239.13212,50.357283   L 252.70769,35.89676   z "
     id="path52" />
  <path
     style="fill:#000000;fill-rule:evenodd;fill-opacity:1;stroke:none;"
     d="  M 239.13212,50.357283   L 252.70769,35.89676   L 253.50626,36.737954   z "
     id="path53" />
  <path
     style="fill:#000000;fill-rule:evenodd;fill-opacity:1;stroke:none;"
     d="  M 258.45735,30.408972   L 259.25591,31.290223   L 268.5991,20.795328   z "
     id="path54" />
  <path
     style="fill:#000000;fill-rule:evenodd;fill-opacity:1;stroke:none;"
     d="  M 259.25591,31.290223   L 268.5991,20.795328   L 269.43759,21.636522   z "
     id="path55" />
  <path
     style="fill:#000000;fill-rule:evenodd;fill-opacity:1;stroke:none;"
     d="  M 268.5991,20.795328   L 269.43759,21.636522   L 269.43759,21.636522   z "
     id="path56" />
  <path
     style="fill:#000000;fill-rule:evenodd;fill-opacity:1;stroke:none;"
     d="  M 213.97738,117.65279   L 215.61443,119.41529   L 290.9988,44.589097   z "
     id="path57" />
  <path
     style="fill:#000000;fill-rule:evenodd;fill-opacity:1;stroke:none;"
     d="  M 215.61443,119.41529   L 290.9988,44.589097   L 292.63586,46.311541   z "
     id="path58" />
  <path
     style="fill:#000000;fill-rule:evenodd;fill-opacity:1;stroke:none;"
     d="  M 195.37085,127.3866   L 196.16941,128.26785   L 208.18779,115.24938   z "
     id="path59" />
  <path
     style="fill:#000000;fill-rule:evenodd;fill-opacity:1;stroke:none;"
     d="  M 196.16941,128.26785   L 208.18779,115.24938   L 208.98635,116.13063   z "
     id="path60" />
  <path
     style="fill:#000000;fill-rule:evenodd;fill-opacity:1;stroke:none;"
     d="  M 213.93745,109.80165   L 214.73601,110.6829   L 228.27166,96.182319   z "
     id="path61" />
  <path
     style="fill:#000000;fill-rule:evenodd;fill-opacity:1;stroke:none;"
     d="  M 214.73601,110.6829   L 228.27166,96.182319   L 229.11015,97.023512   z "
     id="path62" />
  <path
     style="fill:#000000;fill-rule:evenodd;fill-opacity:1;stroke:none;"
     d="  M 234.02131,90.734587   L 234.8598,91.575781   L 248.39545,77.075201   z "
     id="path63" />
  <path
     style="fill:#000000;fill-rule:evenodd;fill-opacity:1;stroke:none;"
     d="  M 234.8598,91.575781   L 248.39545,77.075201   L 249.23394,77.956452   z "
     id="path64" />
  <path
     style="fill:#000000;fill-rule:evenodd;fill-opacity:1;stroke:none;"
     d="  M 254.14511,71.62747   L 254.94367,72.508721   L 268.51925,58.008141   z "
     id="path65" />
  <path
     style="fill:#000000;fill-rule:evenodd;fill-opacity:1;stroke:none;"
     d="  M 254.94367,72.508721   L 268.51925,58.008141   L 269.31781,58.889392   z "
     id="path66" />
  <path
     style="fill:#000000;fill-rule:evenodd;fill-opacity:1;stroke:none;"
     d="  M 274.2689,52.56041   L 275.06746,53.401603   L 287.08584,40.383127   z "
     id="path67" />
  <path
     style="fill:#000000;fill-rule:evenodd;fill-opacity:1;stroke:none;"
     d="  M 275.06746,53.401603   L 287.08584,40.383127   L 287.88441,41.264378   z "
     id="path68" />
  <path
     style="fill:#000000;fill-rule:evenodd;fill-opacity:1;stroke:none;"
     d="  M 287.08584,40.383127   L 287.88441,41.264378   L 287.88441,41.264378   z "
     id="path69" />
  <path
     style="fill:none;stroke:#000000;stroke-width:0.95827591px;stroke-linecap:round;stroke-linejoin:round;stroke-miterlimit:4;stroke-dasharray:none;stroke-opacity:1;"
     d="  M 249.47351,0.44644859   L 271.19443,23.519194   L 287.64484,15.587938   L 268.8786,46.471768   L 285.28907,38.540512   L 307.01,61.613258  "
     id="path70" />
  <path
     style="fill:#000000;fill-rule:evenodd;fill-opacity:1;stroke:none;"
     d="  M 156.48082,119.45535   L 157.99809,117.61273   L 162.2704,123.54115   z "
     id="path71" />
  <path
     style="fill:#000000;fill-rule:evenodd;fill-opacity:1;stroke:none;"
     d="  M 157.99809,117.61273   L 162.2704,123.54115   L 163.50818,121.49825   z "
     id="path72" />
  <path
     style="fill:#000000;fill-rule:evenodd;fill-opacity:1;stroke:none;"
     d="  M 162.2704,123.54115   L 163.50818,121.49825   L 168.65891,126.70564   z "
     id="path73" />
  <path
     style="fill:#000000;fill-rule:evenodd;fill-opacity:1;stroke:none;"
     d="  M 163.50818,121.49825   L 168.65891,126.70564   L 169.53733,124.50251   z "
     id="path74" />
  <path
     style="fill:#000000;fill-rule:evenodd;fill-opacity:1;stroke:none;"
     d="  M 168.65891,126.70564   L 169.53733,124.50251   L 175.4467,128.86871   z "
     id="path75" />
  <path
     style="fill:#000000;fill-rule:evenodd;fill-opacity:1;stroke:none;"
     d="  M 169.53733,124.50251   L 175.4467,128.86871   L 175.96576,126.54541   z "
     id="path76" />
  <path
     style="fill:#000000;fill-rule:evenodd;fill-opacity:1;stroke:none;"
     d="  M 175.4467,128.86871   L 175.96576,126.54541   L 182.43413,129.95024   z "
     id="path77" />
  <path
     style="fill:#000000;fill-rule:evenodd;fill-opacity:1;stroke:none;"
     d="  M 175.96576,126.54541   L 182.43413,129.95024   L 182.63377,127.58689   z "
     id="path78" />
  <path
     style="fill:#000000;fill-rule:evenodd;fill-opacity:1;stroke:none;"
     d="  M 182.43413,129.95024   L 182.63377,127.58689   L 189.54134,129.95024   z "
     id="path79" />
  <path
     style="fill:#000000;fill-rule:evenodd;fill-opacity:1;stroke:none;"
     d="  M 182.63377,127.58689   L 189.54134,129.95024   L 189.38163,127.58689   z "
     id="path80" />
  <path
     style="fill:#000000;fill-rule:evenodd;fill-opacity:1;stroke:none;"
     d="  M 189.54134,129.95024   L 189.38163,127.58689   L 196.5687,128.86871   z "
     id="path81" />
  <path
     style="fill:#000000;fill-rule:evenodd;fill-opacity:1;stroke:none;"
     d="  M 189.38163,127.58689   L 196.5687,128.86871   L 196.04963,126.54541   z "
     id="path82" />
  <path
     style="fill:#000000;fill-rule:evenodd;fill-opacity:1;stroke:none;"
     d="  M 196.5687,128.86871   L 196.04963,126.54541   L 203.35648,126.70564   z "
     id="path83" />
  <path
     style="fill:#000000;fill-rule:evenodd;fill-opacity:1;stroke:none;"
     d="  M 196.04963,126.54541   L 203.35648,126.70564   L 202.47806,124.50251   z "
     id="path84" />
  <path
     style="fill:#000000;fill-rule:evenodd;fill-opacity:1;stroke:none;"
     d="  M 203.35648,126.70564   L 202.47806,124.50251   L 209.74499,123.54115   z "
     id="path85" />
  <path
     style="fill:#000000;fill-rule:evenodd;fill-opacity:1;stroke:none;"
     d="  M 202.47806,124.50251   L 209.74499,123.54115   L 208.50722,121.49825   z "
     id="path86" />
  <path
     style="fill:#000000;fill-rule:evenodd;fill-opacity:1;stroke:none;"
     d="  M 209.74499,123.54115   L 208.50722,121.49825   L 215.53457,119.45535   z "
     id="path87" />
  <path
     style="fill:#000000;fill-rule:evenodd;fill-opacity:1;stroke:none;"
     d="  M 208.50722,121.49825   L 215.53457,119.45535   L 214.0173,117.61273   z "
     id="path88" />
  <path
     style="fill:#000000;fill-rule:evenodd;fill-opacity:1;stroke:none;"
     d="  M 183.71183,128.82865   L 182.51398,128.82865   L 183.71183,147.49514   z "
     id="path89" />
  <path
     style="fill:#000000;fill-rule:evenodd;fill-opacity:1;stroke:none;"
     d="  M 182.51398,128.82865   L 183.71183,147.49514   L 182.51398,147.49514   z "
     id="path90" />
  <path
     style="fill:#000000;fill-rule:evenodd;fill-opacity:1;stroke:none;"
     d="  M 183.71183,155.4264   L 182.51398,155.4264   L 183.71183,174.09289   z "
     id="path91" />
  <path
     style="fill:#000000;fill-rule:evenodd;fill-opacity:1;stroke:none;"
     d="  M 182.51398,155.4264   L 183.71183,174.09289   L 182.51398,174.09289   z "
     id="path92" />
  <path
     style="fill:#000000;fill-rule:evenodd;fill-opacity:1;stroke:none;"
     d="  M 183.71183,174.09289   L 182.51398,174.09289   L 182.51398,174.09289   z "
     id="path93" />
  <path
     style="fill:#000000;fill-rule:evenodd;fill-opacity:1;stroke:none;"
     d="  M 190.02048,128.78859   L 188.82263,128.78859   L 190.02048,147.45509   z "
     id="path94" />
  <path
     style="fill:#000000;fill-rule:evenodd;fill-opacity:1;stroke:none;"
     d="  M 188.82263,128.78859   L 190.02048,147.45509   L 188.82263,147.45509   z "
     id="path95" />
  <path
     style="fill:#000000;fill-rule:evenodd;fill-opacity:1;stroke:none;"
     d="  M 190.02048,155.4264   L 188.82263,155.4264   L 190.02048,174.09289   z "
     id="path96" />
  <path
     style="fill:#000000;fill-rule:evenodd;fill-opacity:1;stroke:none;"
     d="  M 188.82263,155.4264   L 190.02048,174.09289   L 188.82263,174.09289   z "
     id="path97" />
  <path
     style="fill:#000000;fill-rule:evenodd;fill-opacity:1;stroke:none;"
     d="  M 190.02048,174.09289   L 188.82263,174.09289   L 188.82263,174.09289   z "
     id="path98" />
  <path
     style="fill:none;stroke:#000000;stroke-width:0.95827591px;stroke-linecap:round;stroke-linejoin:round;stroke-miterlimit:4;stroke-dasharray:none;stroke-opacity:1;"
     d="  M 252.22856,218.03525   L 259.25591,218.03525   L 255.42281,225.36566   L 257.33936,225.36566   L 258.61706,226.28697   L 259.25591,227.20827   L 259.89476,229.93214   L 259.89476,231.77475   L 259.25591,234.53868   L 257.97821,236.38129   L 256.06166,237.26254   L 254.14511,237.26254   L 252.22856,236.38129   L 251.5897,235.45998   L 250.95085,233.61737  "
     id="path99" />
  <path
     style="fill:none;stroke:#000000;stroke-width:0.95827591px;stroke-linecap:round;stroke-linejoin:round;stroke-miterlimit:4;stroke-dasharray:none;stroke-opacity:1;"
     d="  M 279.02035,77.555884   L 279.02035,76.634576   L 279.6592,74.791961   L 280.29805,73.870653   L 281.57576,72.949346   L 284.13116,72.949346   L 285.40886,73.870653   L 286.04771,74.791961   L 286.68656,76.634576   L 286.68656,78.477191   L 286.04771,80.279749   L 284.77001,83.043672   L 278.3815,92.21669   L 287.32541,92.21669  "
     id="path100" />
  <path
     style="fill:none;stroke:#000000;stroke-width:0.95827591px;stroke-linecap:round;stroke-linejoin:round;stroke-miterlimit:4;stroke-dasharray:none;stroke-opacity:1;"
     d="  M 107.40911,44.989665   L 108.68681,44.068358   L 110.60336,41.304435   L 110.60336,60.531723  "
     id="path101" />
  <path
     style="fill:none;stroke:#000000;stroke-width:0.95827591px;stroke-linecap:round;stroke-linejoin:round;stroke-miterlimit:4;stroke-dasharray:none;stroke-opacity:1;"
     d="  M 157.23946,118.53404   L 123.9793,65.979454  "
     id="path102" />
  <path
     style="fill:none;stroke:#000000;stroke-width:0.95827591px;stroke-linecap:round;stroke-linejoin:round;stroke-miterlimit:4;stroke-dasharray:none;stroke-opacity:1;"
     d="  M 123.9793,65.979454   L 100.26197,65.979454  "
     id="path103" />
  <path
     style="fill:none;stroke:#000000;stroke-width:0.95827591px;stroke-linecap:round;stroke-linejoin:round;stroke-miterlimit:4;stroke-dasharray:none;stroke-opacity:1;"
     d="  M 189.42155,125.6241   L 267.72068,97.103626  "
     id="path104" />
  <path
     style="fill:none;stroke:#000000;stroke-width:0.95827591px;stroke-linecap:round;stroke-linejoin:round;stroke-miterlimit:4;stroke-dasharray:none;stroke-opacity:1;"
     d="  M 267.72068,97.103626   L 291.43801,97.103626  "
     id="path105" />
  <path
     style="fill:none;stroke:#000000;stroke-width:0.95827591px;stroke-linecap:round;stroke-linejoin:round;stroke-miterlimit:4;stroke-dasharray:none;stroke-opacity:1;"
     d="  M 186.70644,160.63379   L 244.08321,241.58868  "
     id="path106" />
  <path
     style="fill:none;stroke:#000000;stroke-width:0.95827591px;stroke-linecap:round;stroke-linejoin:round;stroke-miterlimit:4;stroke-dasharray:none;stroke-opacity:1;"
     d="  M 244.08321,241.58868   L 267.80054,241.58868  "
     id="path107" />
  <path
     style="fill:#000000;fill-rule:evenodd;fill-opacity:1;stroke:none;"
     d="  M 171.37403,127.06615   L 171.37403,125.86444   L 153.92542,127.06615   z "
     id="path108" />
  <path
     style="fill:#000000;fill-rule:evenodd;fill-opacity:1;stroke:none;"
     d="  M 171.37403,125.86444   L 153.92542,127.06615   L 153.92542,125.86444   z "
     id="path109" />
  <path
     style="fill:#000000;fill-rule:evenodd;fill-opacity:1;stroke:none;"
     d="  M 146.01964,127.06615   L 146.01964,125.86444   L 126.2552,127.06615   z "
     id="path110" />
  <path
     style="fill:#000000;fill-rule:evenodd;fill-opacity:1;stroke:none;"
     d="  M 146.01964,125.86444   L 126.2552,127.06615   L 126.2552,125.86444   z "
     id="path111" />
  <path
     style="fill:#000000;fill-rule:evenodd;fill-opacity:1;stroke:none;"
     d="  M 118.34942,127.06615   L 118.34942,125.86444   L 98.545055,127.06615   z "
     id="path112" />
  <path
     style="fill:#000000;fill-rule:evenodd;fill-opacity:1;stroke:none;"
     d="  M 118.34942,125.86444   L 98.545055,127.06615   L 98.545055,125.86444   z "
     id="path113" />
  <path
     style="fill:#000000;fill-rule:evenodd;fill-opacity:1;stroke:none;"
     d="  M 90.639279,127.06615   L 90.639279,125.86444   L 70.874838,127.06615   z "
     id="path114" />
  <path
     style="fill:#000000;fill-rule:evenodd;fill-opacity:1;stroke:none;"
     d="  M 90.639279,125.86444   L 70.874838,127.06615   L 70.874838,125.86444   z "
     id="path115" />
  <path
     style="fill:#000000;fill-rule:evenodd;fill-opacity:1;stroke:none;"
     d="  M 62.969062,127.06615   L 62.969062,125.86444   L 43.204621,127.06615   z "
     id="path116" />
  <path
     style="fill:#000000;fill-rule:evenodd;fill-opacity:1;stroke:none;"
     d="  M 62.969062,125.86444   L 43.204621,127.06615   L 43.204621,125.86444   z "
     id="path117" />
  <path
     style="fill:#000000;fill-rule:evenodd;fill-opacity:1;stroke:none;"
     d="  M 35.298845,127.06615   L 35.298845,125.86444   L 17.850238,127.06615   z "
     id="path118" />
  <path
     style="fill:#000000;fill-rule:evenodd;fill-opacity:1;stroke:none;"
     d="  M 35.298845,125.86444   L 17.850238,127.06615   L 17.850238,125.86444   z "
     id="path119" />
  <path
     style="fill:#000000;fill-rule:evenodd;fill-opacity:1;stroke:none;"
     d="  M 17.850238,127.06615   L 17.850238,125.86444   L 17.850238,125.86444   z "
     id="path120" />
</svg>
