<?xml version="1.0" encoding="UTF-8" standalone="no"?>
<svg
   version="1.0"
   width="120.46mm"
   height="64.080002mm"
   id="svg89"
   sodipodi:docname="image234.emf"
   xmlns:inkscape="http://www.inkscape.org/namespaces/inkscape"
   xmlns:sodipodi="http://sodipodi.sourceforge.net/DTD/sodipodi-0.dtd"
   xmlns="http://www.w3.org/2000/svg"
   xmlns:svg="http://www.w3.org/2000/svg">
  <sodipodi:namedview
     id="namedview89"
     pagecolor="#ffffff"
     bordercolor="#000000"
     borderopacity="0.25"
     inkscape:showpageshadow="2"
     inkscape:pageopacity="0.0"
     inkscape:pagecheckerboard="0"
     inkscape:deskcolor="#d1d1d1"
     inkscape:document-units="mm" />
  <defs
     id="defs1">
    <pattern
       id="EMFhbasepattern"
       patternUnits="userSpaceOnUse"
       width="6"
       height="6"
       x="0"
       y="0" />
  </defs>
  <path
     style="fill:none;stroke:#000000;stroke-width:0.050003078px;stroke-linecap:round;stroke-linejoin:round;stroke-miterlimit:4;stroke-dasharray:none;stroke-opacity:1;"
     d="  M 84.542673,66.966448   L 84.542673,13.990749  "
     id="path1" />
  <path
     style="fill:none;stroke:#000000;stroke-width:0.050003078px;stroke-linecap:round;stroke-linejoin:round;stroke-miterlimit:4;stroke-dasharray:none;stroke-opacity:1;"
     d="  M 369.3602,68.722271   L 369.3602,13.990749  "
     id="path2" />
  <path
     style="fill:none;stroke:#000000;stroke-width:0.050003078px;stroke-linecap:round;stroke-linejoin:round;stroke-miterlimit:4;stroke-dasharray:none;stroke-opacity:1;"
     d="  M 78.842322,19.709717   L 375.06055,19.709717  "
     id="path3" />
  <path
     style="fill:#000000;fill-rule:evenodd;fill-opacity:1;stroke:none;"
     d="  M 89.592984,16.649568   L 87.542858,14.642912   L 81.542488,24.776521   z "
     id="path4" />
  <path
     style="fill:#000000;fill-rule:evenodd;fill-opacity:1;stroke:none;"
     d="  M 87.542858,14.642912   L 81.542488,24.776521   L 79.492362,22.7197   z "
     id="path5" />
  <path
     style="fill:none;stroke:#000000;stroke-width:0.050003078px;stroke-linecap:round;stroke-linejoin:round;stroke-miterlimit:4;stroke-dasharray:none;stroke-opacity:1;"
     d="  M 89.592984,16.649568   L 87.542858,14.642912   L 79.492362,22.7197   L 81.542488,24.776521   L 89.592984,16.649568   z "
     id="path6" />
  <path
     style="fill:#000000;fill-rule:evenodd;fill-opacity:1;stroke:none;"
     d="  M 364.30989,22.7197   L 366.31001,24.776521   L 372.36038,14.642912   z "
     id="path7" />
  <path
     style="fill:#000000;fill-rule:evenodd;fill-opacity:1;stroke:none;"
     d="  M 366.31001,24.776521   L 372.36038,14.642912   L 374.36051,16.649568   z "
     id="path8" />
  <path
     style="fill:none;stroke:#000000;stroke-width:0.050003078px;stroke-linecap:round;stroke-linejoin:round;stroke-miterlimit:4;stroke-dasharray:none;stroke-opacity:1;"
     d="  M 364.30989,22.7197   L 366.31001,24.776521   L 374.36051,16.649568   L 372.36038,14.642912   L 364.30989,22.7197   z "
     id="path9" />
  <path
     style="fill:none;stroke:#000000;stroke-width:0.050003078px;stroke-linecap:round;stroke-linejoin:round;stroke-miterlimit:4;stroke-dasharray:none;stroke-opacity:1;"
     d="  M 224.20127,13.990749   L 224.20127,0.14482816  "
     id="path10" />
  <path
     style="fill:none;stroke:#000000;stroke-width:0.050003078px;stroke-linecap:round;stroke-linejoin:round;stroke-miterlimit:4;stroke-dasharray:none;stroke-opacity:1;"
     d="  M 224.20127,6.7166241   L 225.10132,5.4122982   L 226.00138,4.7601352   L 227.40146,4.7601352   L 228.30152,5.4122982   L 229.25158,6.7166241   L 229.7016,8.7232794   L 229.7016,10.027605   L 229.25158,11.984094   L 228.30152,13.338586   L 227.40146,13.990749   L 226.00138,13.990749   L 225.10132,13.338586   L 224.20127,11.984094  "
     id="path11" />
  <path
     style="fill:none;stroke:#000000;stroke-width:0.050003078px;stroke-linecap:round;stroke-linejoin:round;stroke-miterlimit:4;stroke-dasharray:none;stroke-opacity:1;"
     d="  M 84.542673,81.263867   L 84.592676,81.263867  "
     id="path12" />
  <path
     style="fill:none;stroke:#000000;stroke-width:0.050003078px;stroke-linecap:round;stroke-linejoin:round;stroke-miterlimit:4;stroke-dasharray:none;stroke-opacity:1;"
     d="  M 369.3602,83.01969   L 369.4102,83.01969  "
     id="path13" />
  <path
     style="fill:none;stroke:#000000;stroke-width:0.050003078px;stroke-linecap:round;stroke-linejoin:round;stroke-miterlimit:4;stroke-dasharray:none;stroke-opacity:1;"
     d="  M 369.3602,19.709717   L 369.4102,19.709717  "
     id="path14" />
  <path
     style="fill:none;stroke:#000000;stroke-width:0.050003078px;stroke-linecap:round;stroke-linejoin:round;stroke-miterlimit:4;stroke-dasharray:none;stroke-opacity:1;"
     d="  M 84.542673,81.263867   L 369.3602,81.263867  "
     id="path15" />
  <path
     style="fill:#000000;fill-rule:evenodd;fill-opacity:1;stroke:none;"
     d="  M 99.093568,149.03865   L 99.093568,150.7443   L 355.20933,149.03865   z "
     id="path16" />
  <path
     style="fill:#000000;fill-rule:evenodd;fill-opacity:1;stroke:none;"
     d="  M 99.093568,150.7443   L 355.20933,149.03865   L 355.20933,150.7443   z "
     id="path17" />
  <path
     style="fill:none;stroke:#000000;stroke-width:0.050003078px;stroke-linecap:round;stroke-linejoin:round;stroke-miterlimit:4;stroke-dasharray:none;stroke-opacity:1;"
     d="  M 99.093568,149.03865   L 99.093568,150.7443   L 355.20933,150.7443   L 355.20933,149.03865   L 99.093568,149.03865   z "
     id="path18" />
  <path
     style="fill:#000000;fill-rule:evenodd;fill-opacity:1;stroke:none;"
     d="  M 99.093568,120.44381   L 99.093568,122.14947   L 355.20933,120.44381   z "
     id="path19" />
  <path
     style="fill:#000000;fill-rule:evenodd;fill-opacity:1;stroke:none;"
     d="  M 99.093568,122.14947   L 355.20933,120.44381   L 355.20933,122.14947   z "
     id="path20" />
  <path
     style="fill:none;stroke:#000000;stroke-width:0.050003078px;stroke-linecap:round;stroke-linejoin:round;stroke-miterlimit:4;stroke-dasharray:none;stroke-opacity:1;"
     d="  M 99.093568,120.44381   L 99.093568,122.14947   L 355.20933,122.14947   L 355.20933,120.44381   L 99.093568,120.44381   z "
     id="path21" />
  <path
     style="fill:#000000;fill-rule:evenodd;fill-opacity:1;stroke:none;"
     d="  M 99.093568,91.848973   L 99.093568,93.55463   L 355.20933,91.848973   z "
     id="path22" />
  <path
     style="fill:#000000;fill-rule:evenodd;fill-opacity:1;stroke:none;"
     d="  M 99.093568,93.55463   L 355.20933,91.848973   L 355.20933,93.55463   z "
     id="path23" />
  <path
     style="fill:none;stroke:#000000;stroke-width:0.050003078px;stroke-linecap:round;stroke-linejoin:round;stroke-miterlimit:4;stroke-dasharray:none;stroke-opacity:1;"
     d="  M 99.093568,91.848973   L 99.093568,93.55463   L 355.20933,93.55463   L 355.20933,91.848973   L 99.093568,91.848973   z "
     id="path24" />
  <path
     style="fill:none;stroke:#000000;stroke-width:0.050003078px;stroke-linecap:round;stroke-linejoin:round;stroke-miterlimit:4;stroke-dasharray:none;stroke-opacity:1;"
     d="  M 84.542673,232.86667   L 369.3602,232.86667  "
     id="path25" />
  <path
     style="fill:#000000;fill-rule:evenodd;fill-opacity:1;stroke:none;"
     d="  M 99.093568,191.9309   L 99.093568,193.63656   L 355.20933,191.9309   z "
     id="path26" />
  <path
     style="fill:#000000;fill-rule:evenodd;fill-opacity:1;stroke:none;"
     d="  M 99.093568,193.63656   L 355.20933,191.9309   L 355.20933,193.63656   z "
     id="path27" />
  <path
     style="fill:none;stroke:#000000;stroke-width:0.050003078px;stroke-linecap:round;stroke-linejoin:round;stroke-miterlimit:4;stroke-dasharray:none;stroke-opacity:1;"
     d="  M 99.093568,191.9309   L 99.093568,193.63656   L 355.20933,193.63656   L 355.20933,191.9309   L 99.093568,191.9309   z "
     id="path28" />
  <path
     style="fill:#000000;fill-rule:evenodd;fill-opacity:1;stroke:none;"
     d="  M 99.093568,220.52574   L 99.093568,222.2314   L 355.20933,220.52574   z "
     id="path29" />
  <path
     style="fill:#000000;fill-rule:evenodd;fill-opacity:1;stroke:none;"
     d="  M 99.093568,222.2314   L 355.20933,220.52574   L 355.20933,222.2314   z "
     id="path30" />
  <path
     style="fill:none;stroke:#000000;stroke-width:0.050003078px;stroke-linecap:round;stroke-linejoin:round;stroke-miterlimit:4;stroke-dasharray:none;stroke-opacity:1;"
     d="  M 99.093568,220.52574   L 99.093568,222.2314   L 355.20933,222.2314   L 355.20933,220.52574   L 99.093568,220.52574   z "
     id="path31" />
  <path
     style="fill:none;stroke:#000000;stroke-width:0.050003078px;stroke-linecap:round;stroke-linejoin:round;stroke-miterlimit:4;stroke-dasharray:none;stroke-opacity:1;"
     d="  M 84.542673,81.263867   L 84.542673,167.04838   L 219.55098,167.04838   L 223.55123,154.50678   L 230.35164,179.64014   L 234.35189,167.04838   L 369.3602,167.04838   L 369.3602,81.263867  "
     id="path32" />
  <path
     style="fill:none;stroke:#000000;stroke-width:0.050003078px;stroke-linecap:round;stroke-linejoin:round;stroke-miterlimit:4;stroke-dasharray:none;stroke-opacity:1;"
     d="  M 84.542673,232.86667   L 84.542673,175.62683   L 219.55098,175.62683   L 223.55123,163.03507   L 230.35164,188.21859   L 234.35189,175.62683   L 369.3602,175.62683   L 369.3602,232.86667  "
     id="path33" />
  <path
     style="fill:none;stroke:#000000;stroke-width:0.050003078px;stroke-linecap:round;stroke-linejoin:round;stroke-miterlimit:4;stroke-dasharray:none;stroke-opacity:1;"
     d="  M 70.291796,81.263867   L 13.938329,81.263867  "
     id="path34" />
  <path
     style="fill:none;stroke:#000000;stroke-width:0.050003078px;stroke-linecap:round;stroke-linejoin:round;stroke-miterlimit:4;stroke-dasharray:none;stroke-opacity:1;"
     d="  M 70.291796,232.86667   L 13.938329,232.86667  "
     id="path35" />
  <path
     style="fill:none;stroke:#000000;stroke-width:0.050003078px;stroke-linecap:round;stroke-linejoin:round;stroke-miterlimit:4;stroke-dasharray:none;stroke-opacity:1;"
     d="  M 19.638679,75.544899   L 19.638679,238.58564  "
     id="path36" />
  <path
     style="fill:#000000;fill-rule:evenodd;fill-opacity:1;stroke:none;"
     d="  M 22.688867,86.330671   L 24.68899,84.324016   L 14.638372,78.253884   z "
     id="path37" />
  <path
     style="fill:#000000;fill-rule:evenodd;fill-opacity:1;stroke:none;"
     d="  M 24.68899,84.324016   L 14.638372,78.253884   L 16.638495,76.247229   z "
     id="path38" />
  <path
     style="fill:none;stroke:#000000;stroke-width:0.050003078px;stroke-linecap:round;stroke-linejoin:round;stroke-miterlimit:4;stroke-dasharray:none;stroke-opacity:1;"
     d="  M 22.688867,86.330671   L 24.68899,84.324016   L 16.638495,76.247229   L 14.638372,78.253884   L 22.688867,86.330671   z "
     id="path39" />
  <path
     style="fill:#000000;fill-rule:evenodd;fill-opacity:1;stroke:none;"
     d="  M 16.638495,227.79987   L 14.638372,229.80652   L 24.68899,235.87665   z "
     id="path40" />
  <path
     style="fill:#000000;fill-rule:evenodd;fill-opacity:1;stroke:none;"
     d="  M 14.638372,229.80652   L 24.68899,235.87665   L 22.688867,237.88331   z "
     id="path41" />
  <path
     style="fill:none;stroke:#000000;stroke-width:0.050003078px;stroke-linecap:round;stroke-linejoin:round;stroke-miterlimit:4;stroke-dasharray:none;stroke-opacity:1;"
     d="  M 16.638495,227.79987   L 14.638372,229.80652   L 22.688867,237.88331   L 24.68899,235.87665   L 16.638495,227.79987   z "
     id="path42" />
  <path
     style="fill:none;stroke:#000000;stroke-width:0.050003078px;stroke-linecap:round;stroke-linejoin:round;stroke-miterlimit:4;stroke-dasharray:none;stroke-opacity:1;"
     d="  M 0.13747946,157.51677   L 11.338169,157.51677   L 13.288289,157.06527   L 13.938329,156.16227   L 13.938329,155.20911  "
     id="path43" />
  <path
     style="fill:none;stroke:#000000;stroke-width:0.050003078px;stroke-linecap:round;stroke-linejoin:round;stroke-miterlimit:4;stroke-dasharray:none;stroke-opacity:1;"
     d="  M 4.7377625,158.92142   L 4.7377625,155.66061  "
     id="path44" />
  <path
     style="fill:none;stroke:#000000;stroke-width:0.050003078px;stroke-linecap:round;stroke-linejoin:round;stroke-miterlimit:4;stroke-dasharray:none;stroke-opacity:1;"
     d="  M 84.542673,81.263867   L 84.592676,81.263867  "
     id="path45" />
  <path
     style="fill:none;stroke:#000000;stroke-width:0.050003078px;stroke-linecap:round;stroke-linejoin:round;stroke-miterlimit:4;stroke-dasharray:none;stroke-opacity:1;"
     d="  M 84.542673,232.86667   L 84.592676,232.86667  "
     id="path46" />
  <path
     style="fill:none;stroke:#000000;stroke-width:0.050003078px;stroke-linecap:round;stroke-linejoin:round;stroke-miterlimit:4;stroke-dasharray:none;stroke-opacity:1;"
     d="  M 19.638679,232.86667   L 19.688682,232.86667  "
     id="path47" />
  <path
     style="fill:none;stroke:#000000;stroke-width:0.050003078px;stroke-linecap:round;stroke-linejoin:round;stroke-miterlimit:4;stroke-dasharray:none;stroke-opacity:1;"
     d="  M 84.842691,92.701802   L 47.790412,92.701802  "
     id="path48" />
  <path
     style="fill:none;stroke:#000000;stroke-width:0.050003078px;stroke-linecap:round;stroke-linejoin:round;stroke-miterlimit:4;stroke-dasharray:none;stroke-opacity:1;"
     d="  M 84.842691,121.29664   L 47.790412,121.29664  "
     id="path49" />
  <path
     style="fill:none;stroke:#000000;stroke-width:0.050003078px;stroke-linecap:round;stroke-linejoin:round;stroke-miterlimit:4;stroke-dasharray:none;stroke-opacity:1;"
     d="  M 53.490762,86.982834   L 53.490762,127.01561  "
     id="path50" />
  <path
     style="fill:#000000;fill-rule:evenodd;fill-opacity:1;stroke:none;"
     d="  M 56.54095,97.768606   L 58.541073,95.761951   L 48.490455,89.691819   z "
     id="path51" />
  <path
     style="fill:#000000;fill-rule:evenodd;fill-opacity:1;stroke:none;"
     d="  M 58.541073,95.761951   L 48.490455,89.691819   L 50.490578,87.685163   z "
     id="path52" />
  <path
     style="fill:none;stroke:#000000;stroke-width:0.050003078px;stroke-linecap:round;stroke-linejoin:round;stroke-miterlimit:4;stroke-dasharray:none;stroke-opacity:1;"
     d="  M 56.54095,97.768606   L 58.541073,95.761951   L 50.490578,87.685163   L 48.490455,89.691819   L 56.54095,97.768606   z "
     id="path53" />
  <path
     style="fill:#000000;fill-rule:evenodd;fill-opacity:1;stroke:none;"
     d="  M 50.490578,116.28   L 48.490455,118.28666   L 58.541073,124.35679   z "
     id="path54" />
  <path
     style="fill:#000000;fill-rule:evenodd;fill-opacity:1;stroke:none;"
     d="  M 48.490455,118.28666   L 58.541073,124.35679   L 56.54095,126.36344   z "
     id="path55" />
  <path
     style="fill:none;stroke:#000000;stroke-width:0.050003078px;stroke-linecap:round;stroke-linejoin:round;stroke-miterlimit:4;stroke-dasharray:none;stroke-opacity:1;"
     d="  M 50.490578,116.28   L 48.490455,118.28666   L 56.54095,126.36344   L 58.541073,124.35679   L 50.490578,116.28   z "
     id="path56" />
  <path
     style="fill:none;stroke:#000000;stroke-width:0.050003078px;stroke-linecap:round;stroke-linejoin:round;stroke-miterlimit:4;stroke-dasharray:none;stroke-opacity:1;"
     d="  M 33.989562,110.0092   L 45.190252,110.0092   L 47.140372,109.55771   L 47.790412,108.65471   L 47.790412,107.70155  "
     id="path57" />
  <path
     style="fill:none;stroke:#000000;stroke-width:0.050003078px;stroke-linecap:round;stroke-linejoin:round;stroke-miterlimit:4;stroke-dasharray:none;stroke-opacity:1;"
     d="  M 38.589845,111.41386   L 38.589845,108.15305  "
     id="path58" />
  <path
     style="fill:none;stroke:#000000;stroke-width:0.050003078px;stroke-linecap:round;stroke-linejoin:round;stroke-miterlimit:4;stroke-dasharray:none;stroke-opacity:1;"
     d="  M 36.639725,104.9424   L 35.989685,103.98924   L 33.989562,102.63475   L 47.790412,102.63475  "
     id="path59" />
  <path
     style="fill:none;stroke:#000000;stroke-width:0.050003078px;stroke-linecap:round;stroke-linejoin:round;stroke-miterlimit:4;stroke-dasharray:none;stroke-opacity:1;"
     d="  M 99.093568,92.701802   L 99.143571,92.701802  "
     id="path60" />
  <path
     style="fill:none;stroke:#000000;stroke-width:0.050003078px;stroke-linecap:round;stroke-linejoin:round;stroke-miterlimit:4;stroke-dasharray:none;stroke-opacity:1;"
     d="  M 99.093568,121.29664   L 99.143571,121.29664  "
     id="path61" />
  <path
     style="fill:none;stroke:#000000;stroke-width:0.050003078px;stroke-linecap:round;stroke-linejoin:round;stroke-miterlimit:4;stroke-dasharray:none;stroke-opacity:1;"
     d="  M 53.490762,121.29664   L 53.540765,121.29664  "
     id="path62" />
  <path
     style="fill:none;stroke:#000000;stroke-width:0.050003078px;stroke-linecap:round;stroke-linejoin:round;stroke-miterlimit:4;stroke-dasharray:none;stroke-opacity:1;"
     d="  M 82.842568,190.87741   L 47.840415,190.87741  "
     id="path63" />
  <path
     style="fill:none;stroke:#000000;stroke-width:0.050003078px;stroke-linecap:round;stroke-linejoin:round;stroke-miterlimit:4;stroke-dasharray:none;stroke-opacity:1;"
     d="  M 82.842568,194.58972   L 47.840415,194.58972  "
     id="path64" />
  <path
     style="fill:none;stroke:#000000;stroke-width:0.050003078px;stroke-linecap:round;stroke-linejoin:round;stroke-miterlimit:4;stroke-dasharray:none;stroke-opacity:1;"
     d="  M 53.540765,190.87741   L 53.540765,185.15844  "
     id="path65" />
  <path
     style="fill:none;stroke:#000000;stroke-width:0.050003078px;stroke-linecap:round;stroke-linejoin:round;stroke-miterlimit:4;stroke-dasharray:none;stroke-opacity:1;"
     d="  M 53.540765,194.58972   L 53.540765,200.30869  "
     id="path66" />
  <path
     style="fill:none;stroke:#000000;stroke-width:0.050003078px;stroke-linecap:round;stroke-linejoin:round;stroke-miterlimit:4;stroke-dasharray:none;stroke-opacity:1;"
     d="  M 53.540765,190.87741   L 53.540765,194.58972  "
     id="path67" />
  <path
     style="fill:#000000;fill-rule:evenodd;fill-opacity:1;stroke:none;"
     d="  M 50.490578,185.81061   L 48.490455,187.81726   L 58.541073,193.88739   z "
     id="path68" />
  <path
     style="fill:#000000;fill-rule:evenodd;fill-opacity:1;stroke:none;"
     d="  M 48.490455,187.81726   L 58.541073,193.88739   L 56.54095,195.94421   z "
     id="path69" />
  <path
     style="fill:none;stroke:#000000;stroke-width:0.050003078px;stroke-linecap:round;stroke-linejoin:round;stroke-miterlimit:4;stroke-dasharray:none;stroke-opacity:1;"
     d="  M 50.490578,185.81061   L 48.490455,187.81726   L 56.54095,195.94421   L 58.541073,193.88739   L 50.490578,185.81061   z "
     id="path70" />
  <path
     style="fill:#000000;fill-rule:evenodd;fill-opacity:1;stroke:none;"
     d="  M 56.54095,199.65653   L 58.541073,197.64987   L 48.490455,191.57974   z "
     id="path71" />
  <path
     style="fill:#000000;fill-rule:evenodd;fill-opacity:1;stroke:none;"
     d="  M 58.541073,197.64987   L 48.490455,191.57974   L 50.490578,189.57308   z "
     id="path72" />
  <path
     style="fill:none;stroke:#000000;stroke-width:0.050003078px;stroke-linecap:round;stroke-linejoin:round;stroke-miterlimit:4;stroke-dasharray:none;stroke-opacity:1;"
     d="  M 56.54095,199.65653   L 58.541073,197.64987   L 50.490578,189.57308   L 48.490455,191.57974   L 56.54095,199.65653   z "
     id="path73" />
  <path
     style="fill:none;stroke:#000000;stroke-width:0.050003078px;stroke-linecap:round;stroke-linejoin:round;stroke-miterlimit:4;stroke-dasharray:none;stroke-opacity:1;"
     d="  M 32.389464,195.04122   L 43.590153,195.04122   L 45.540273,194.58972   L 46.190313,193.68673   L 46.190313,192.73357  "
     id="path74" />
  <path
     style="fill:none;stroke:#000000;stroke-width:0.050003078px;stroke-linecap:round;stroke-linejoin:round;stroke-miterlimit:4;stroke-dasharray:none;stroke-opacity:1;"
     d="  M 36.989747,196.44588   L 36.989747,193.18506  "
     id="path75" />
  <path
     style="fill:none;stroke:#000000;stroke-width:0.050003078px;stroke-linecap:round;stroke-linejoin:round;stroke-miterlimit:4;stroke-dasharray:none;stroke-opacity:1;"
     d="  M 30.439344,189.02125   L 31.089384,189.52292   L 30.439344,189.97441   L 29.789304,189.52292   L 30.439344,189.02125   L 31.739424,189.02125   L 33.039504,189.52292   L 33.739547,189.97441  "
     id="path76" />
  <path
     style="fill:none;stroke:#000000;stroke-width:0.050003078px;stroke-linecap:round;stroke-linejoin:round;stroke-miterlimit:4;stroke-dasharray:none;stroke-opacity:1;"
     d="  M 97.093445,190.87741   L 97.143448,190.87741  "
     id="path77" />
  <path
     style="fill:none;stroke:#000000;stroke-width:0.050003078px;stroke-linecap:round;stroke-linejoin:round;stroke-miterlimit:4;stroke-dasharray:none;stroke-opacity:1;"
     d="  M 97.093445,194.58972   L 97.143448,194.58972  "
     id="path78" />
  <path
     style="fill:none;stroke:#000000;stroke-width:0.050003078px;stroke-linecap:round;stroke-linejoin:round;stroke-miterlimit:4;stroke-dasharray:none;stroke-opacity:1;"
     d="  M 53.540765,194.58972   L 53.590768,194.58972  "
     id="path79" />
  <path
     style="fill:#000000;fill-rule:evenodd;fill-opacity:1;stroke:none;"
     d="  M 362.9098,127.4671   L 355.00931,135.94522   L 359.75961,125.36012   z "
     id="path80" />
  <path
     style="fill:none;stroke:#000000;stroke-width:0.050003078px;stroke-linecap:round;stroke-linejoin:round;stroke-miterlimit:4;stroke-dasharray:none;stroke-opacity:1;"
     d="  M 362.9098,127.4671   L 355.00931,135.94522   L 359.75961,125.36012   L 362.9098,127.4671   z "
     id="path81" />
  <path
     style="fill:none;stroke:#000000;stroke-width:0.050003078px;stroke-linecap:round;stroke-linejoin:round;stroke-miterlimit:4;stroke-dasharray:none;stroke-opacity:1;"
     d="  M 361.3097,126.41361   L 384.71114,91.096477  "
     id="path82" />
  <path
     style="fill:none;stroke:#000000;stroke-width:0.050003078px;stroke-linecap:round;stroke-linejoin:round;stroke-miterlimit:4;stroke-dasharray:none;stroke-opacity:1;"
     d="  M 384.71114,91.096477   L 450.91522,91.096477  "
     id="path83" />
  <path
     style="fill:none;stroke:#000000;stroke-width:0.050003078px;stroke-linecap:round;stroke-linejoin:round;stroke-miterlimit:4;stroke-dasharray:none;stroke-opacity:1;"
     d="  M 415.81306,77.902719   L 415.81306,77.250556   L 416.26308,75.94623   L 416.71311,75.294067   L 417.66317,74.591738   L 419.51328,74.591738   L 420.41334,75.294067   L 420.86337,75.94623   L 421.31339,77.250556   L 421.31339,78.554882   L 420.86337,79.909374   L 419.96331,81.865863   L 415.36303,88.487826   L 421.81343,88.487826  "
     id="path84" />
  <path
     style="fill:#000000;fill-rule:evenodd;fill-opacity:1;stroke:none;"
     d="  M 110.89429,83.822352   L 117.94473,93.052966   L 108.34414,86.631669   z "
     id="path85" />
  <path
     style="fill:none;stroke:#000000;stroke-width:0.050003078px;stroke-linecap:round;stroke-linejoin:round;stroke-miterlimit:4;stroke-dasharray:none;stroke-opacity:1;"
     d="  M 110.89429,83.822352   L 117.94473,93.052966   L 108.34414,86.631669   L 110.89429,83.822352   z "
     id="path86" />
  <path
     style="fill:none;stroke:#000000;stroke-width:0.050003078px;stroke-linecap:round;stroke-linejoin:round;stroke-miterlimit:4;stroke-dasharray:none;stroke-opacity:1;"
     d="  M 109.59421,85.227011   L 70.19179,48.204221  "
     id="path87" />
  <path
     style="fill:none;stroke:#000000;stroke-width:0.050003078px;stroke-linecap:round;stroke-linejoin:round;stroke-miterlimit:4;stroke-dasharray:none;stroke-opacity:1;"
     d="  M 70.19179,48.204221   L 14.038335,48.204221  "
     id="path88" />
  <path
     style="fill:none;stroke:#000000;stroke-width:0.050003078px;stroke-linecap:round;stroke-linejoin:round;stroke-miterlimit:4;stroke-dasharray:none;stroke-opacity:1;"
     d="  M 41.990055,34.3583   L 42.89011,33.706137   L 44.290196,31.699482   L 44.290196,45.59557  "
     id="path89" />
</svg>
