<?xml version="1.0" encoding="UTF-8" standalone="no"?>
<svg
   version="1.0"
   width="53.419998mm"
   height="48.130001mm"
   id="svg18"
   sodipodi:docname="image119.emf"
   xmlns:inkscape="http://www.inkscape.org/namespaces/inkscape"
   xmlns:sodipodi="http://sodipodi.sourceforge.net/DTD/sodipodi-0.dtd"
   xmlns="http://www.w3.org/2000/svg"
   xmlns:svg="http://www.w3.org/2000/svg">
  <sodipodi:namedview
     id="namedview18"
     pagecolor="#ffffff"
     bordercolor="#000000"
     borderopacity="0.25"
     inkscape:showpageshadow="2"
     inkscape:pageopacity="0.0"
     inkscape:pagecheckerboard="0"
     inkscape:deskcolor="#d1d1d1"
     inkscape:document-units="mm" />
  <defs
     id="defs1">
    <pattern
       id="EMFhbasepattern"
       patternUnits="userSpaceOnUse"
       width="6"
       height="6"
       x="0"
       y="0" />
  </defs>
  <path
     style="fill:none;stroke:#000000;stroke-width:0.037094977px;stroke-linecap:round;stroke-linejoin:round;stroke-miterlimit:4;stroke-dasharray:none;stroke-opacity:1;"
     d="  M 0.019587535,0.015584491   L 200.29537,0.015584491   L 200.29537,10.359069   L 0.019587535,10.359069   L 0.019587535,0.015584491   z "
     id="path1" />
  <path
     style="fill:none;stroke:#000000;stroke-width:0.037094977px;stroke-linecap:round;stroke-linejoin:round;stroke-miterlimit:4;stroke-dasharray:none;stroke-opacity:1;"
     d="  M 98.135804,25.098533   L 98.135804,154.42903  "
     id="path2" />
  <path
     style="fill:none;stroke:#000000;stroke-width:0.037094977px;stroke-linecap:round;stroke-linejoin:round;stroke-miterlimit:4;stroke-dasharray:none;stroke-opacity:1;"
     d="  M 102.17916,25.098533   L 102.17916,154.42903  "
     id="path3" />
  <path
     style="fill:none;stroke:#000000;stroke-width:0.037094977px;stroke-linecap:round;stroke-linejoin:round;stroke-miterlimit:4;stroke-dasharray:none;stroke-opacity:1;"
     d="  M 45.49803,10.359069   L 154.81693,10.359069  "
     id="path4" />
  <path
     style="fill:none;stroke:#000000;stroke-width:0.037094977px;stroke-linecap:round;stroke-linejoin:round;stroke-miterlimit:4;stroke-dasharray:none;stroke-opacity:1;"
     d="  M 154.81693,10.359069   L 154.81693,18.0428  "
     id="path5" />
  <path
     style="fill:none;stroke:#000000;stroke-width:0.037094977px;stroke-linecap:round;stroke-linejoin:round;stroke-miterlimit:4;stroke-dasharray:none;stroke-opacity:1;"
     d="  M 154.81693,18.0428   L 109.30139,18.0428  "
     id="path6" />
  <path
     style="fill:none;stroke:#000000;stroke-width:0.037094977px;stroke-linecap:round;stroke-linejoin:round;stroke-miterlimit:4;stroke-dasharray:none;stroke-opacity:1;"
     d="  M 45.49803,18.0428   L 45.49803,10.359069  "
     id="path7" />
  <path
     style="fill:none;stroke:#000000;stroke-width:0.037094977px;stroke-linecap:round;stroke-linejoin:round;stroke-miterlimit:4;stroke-dasharray:none;stroke-opacity:1;"
     d="  M 109.30139,18.0428   L 108.55949,18.079741   L 107.81759,18.190564   L 107.11279,18.375269   L 106.40798,18.633856   L 105.74027,18.966325   L 105.10966,19.372676   L 104.55324,19.852909   L 103.99681,20.370084   L 103.55167,20.96114   L 103.14363,21.552196   L 102.80977,22.217134   L 102.55011,22.919014   L 102.32754,23.620893   L 102.21625,24.359713   L 102.17916,25.098533  "
     id="path8" />
  <path
     style="fill:none;stroke:#000000;stroke-width:0.037094977px;stroke-linecap:round;stroke-linejoin:round;stroke-miterlimit:4;stroke-dasharray:none;stroke-opacity:1;"
     d="  M 45.49803,18.0428   L 91.013568,18.0428  "
     id="path9" />
  <path
     style="fill:none;stroke:#000000;stroke-width:0.037094977px;stroke-linecap:round;stroke-linejoin:round;stroke-miterlimit:4;stroke-dasharray:none;stroke-opacity:1;"
     d="  M 98.135804,25.098533   L 98.098709,24.359713   L 97.987424,23.620893   L 97.801949,22.919014   L 97.505189,22.217134   L 97.171335,21.552196   L 96.76329,20.96114   L 96.31815,20.370084   L 95.79882,19.852909   L 95.205301,19.372676   L 94.574686,18.966325   L 93.906977,18.633856   L 93.239267,18.375269   L 92.497367,18.190564   L 91.755468,18.079741   L 91.013568,18.0428  "
     id="path10" />
  <path
     style="fill:none;stroke:#000000;stroke-width:0.037094977px;stroke-linecap:round;stroke-linejoin:round;stroke-miterlimit:4;stroke-dasharray:none;stroke-opacity:1;"
     d="  M 0.019587535,179.51197   L 200.29537,179.51197   L 200.29537,169.16849   L 0.019587535,169.16849   L 0.019587535,179.51197   z "
     id="path11" />
  <path
     style="fill:none;stroke:#000000;stroke-width:0.037094977px;stroke-linecap:round;stroke-linejoin:round;stroke-miterlimit:4;stroke-dasharray:none;stroke-opacity:1;"
     d="  M 91.013568,161.5217   L 92.126418,161.41088   L 93.239267,161.15229   L 94.240831,160.74594   L 95.205301,160.15488   L 96.058485,159.453   L 96.76329,158.60336   L 97.356809,157.64289   L 97.801949,156.60855   L 98.061614,155.53726   L 98.135804,154.42903  "
     id="path12" />
  <path
     style="fill:none;stroke:#000000;stroke-width:0.037094977px;stroke-linecap:round;stroke-linejoin:round;stroke-miterlimit:4;stroke-dasharray:none;stroke-opacity:1;"
     d="  M 45.49803,161.5217   L 91.013568,161.5217  "
     id="path13" />
  <path
     style="fill:none;stroke:#000000;stroke-width:0.037094977px;stroke-linecap:round;stroke-linejoin:round;stroke-miterlimit:4;stroke-dasharray:none;stroke-opacity:1;"
     d="  M 102.17916,154.42903   L 102.29044,155.53726   L 102.55011,156.60855   L 102.95815,157.64289   L 103.55167,158.60336   L 104.25648,159.453   L 105.10966,160.15488   L 106.07413,160.74594   L 107.11279,161.15229   L 108.18854,161.41088   L 109.30139,161.5217  "
     id="path14" />
  <path
     style="fill:none;stroke:#000000;stroke-width:0.037094977px;stroke-linecap:round;stroke-linejoin:round;stroke-miterlimit:4;stroke-dasharray:none;stroke-opacity:1;"
     d="  M 45.49803,161.5217   L 45.49803,169.16849  "
     id="path15" />
  <path
     style="fill:none;stroke:#000000;stroke-width:0.037094977px;stroke-linecap:round;stroke-linejoin:round;stroke-miterlimit:4;stroke-dasharray:none;stroke-opacity:1;"
     d="  M 154.81693,161.5217   L 109.30139,161.5217  "
     id="path16" />
  <path
     style="fill:none;stroke:#000000;stroke-width:0.037094977px;stroke-linecap:round;stroke-linejoin:round;stroke-miterlimit:4;stroke-dasharray:none;stroke-opacity:1;"
     d="  M 154.81693,169.16849   L 154.81693,161.5217  "
     id="path17" />
  <path
     style="fill:none;stroke:#000000;stroke-width:0.037094977px;stroke-linecap:round;stroke-linejoin:round;stroke-miterlimit:4;stroke-dasharray:none;stroke-opacity:1;"
     d="  M 45.49803,169.16849   L 154.81693,169.16849  "
     id="path18" />
</svg>
