<?xml version="1.0" encoding="UTF-8" standalone="no"?>
<svg
   version="1.0"
   width="307.72mm"
   height="154.53mm"
   id="svg71"
   sodipodi:docname="image162.emf"
   xmlns:inkscape="http://www.inkscape.org/namespaces/inkscape"
   xmlns:sodipodi="http://sodipodi.sourceforge.net/DTD/sodipodi-0.dtd"
   xmlns="http://www.w3.org/2000/svg"
   xmlns:svg="http://www.w3.org/2000/svg">
  <sodipodi:namedview
     id="namedview71"
     pagecolor="#ffffff"
     bordercolor="#000000"
     borderopacity="0.25"
     inkscape:showpageshadow="2"
     inkscape:pageopacity="0.0"
     inkscape:pagecheckerboard="0"
     inkscape:deskcolor="#d1d1d1"
     inkscape:document-units="mm" />
  <defs
     id="defs1">
    <pattern
       id="EMFhbasepattern"
       patternUnits="userSpaceOnUse"
       width="6"
       height="6"
       x="0"
       y="0" />
  </defs>
  <path
     style="fill:none;stroke:#000000;stroke-width:0.035747245px;stroke-linecap:round;stroke-linejoin:round;stroke-miterlimit:4;stroke-dasharray:none;stroke-opacity:1;"
     d="  M 131.17921,114.37226   L 15.50112,114.37226  "
     id="path1" />
  <path
     style="fill:none;stroke:#000000;stroke-width:0.035747245px;stroke-linecap:round;stroke-linejoin:round;stroke-miterlimit:4;stroke-dasharray:none;stroke-opacity:1;"
     d="  M 107.33579,372.19141   L 15.50112,372.19141  "
     id="path2" />
  <path
     style="fill:none;stroke:#000000;stroke-width:0.035747245px;stroke-linecap:round;stroke-linejoin:round;stroke-miterlimit:4;stroke-dasharray:none;stroke-opacity:1;"
     d="  M 21.435163,108.42121   L 21.435163,378.14246  "
     id="path3" />
  <path
     style="fill:#000000;fill-rule:evenodd;fill-opacity:1;stroke:none;"
     d="  M 24.616667,119.6106   L 26.725755,117.50814   L 16.180317,111.20074   z "
     id="path4" />
  <path
     style="fill:#000000;fill-rule:evenodd;fill-opacity:1;stroke:none;"
     d="  M 26.725755,117.50814   L 16.180317,111.20074   L 18.289405,109.09828   z "
     id="path5" />
  <path
     style="fill:#000000;fill-rule:evenodd;fill-opacity:1;stroke:none;"
     d="  M 18.289405,366.95307   L 16.180317,369.05554   L 26.725755,375.36293   z "
     id="path6" />
  <path
     style="fill:#000000;fill-rule:evenodd;fill-opacity:1;stroke:none;"
     d="  M 16.180317,369.05554   L 26.725755,375.36293   L 24.616667,377.46539   z "
     id="path7" />
  <path
     style="fill:none;stroke:#000000;stroke-width:0.035747245px;stroke-linecap:round;stroke-linejoin:round;stroke-miterlimit:4;stroke-dasharray:none;stroke-opacity:1;"
     d="  M 14.106977,245.93664   L -0.33491034,245.93664  "
     id="path8" />
  <path
     style="fill:none;stroke:#000000;stroke-width:0.035747245px;stroke-linecap:round;stroke-linejoin:round;stroke-miterlimit:4;stroke-dasharray:none;stroke-opacity:1;"
     d="  M 7.2435058,245.93664   L 5.1701656,244.47561   L 4.4909679,243.51346   L 4.4909679,242.08806   L 5.1701656,241.12592   L 7.2435058,240.62703   L 14.106977,240.62703  "
     id="path9" />
  <path
     style="fill:none;stroke:#000000;stroke-width:0.035747245px;stroke-linecap:round;stroke-linejoin:round;stroke-miterlimit:4;stroke-dasharray:none;stroke-opacity:1;"
     d="  M 122.2424,372.19141   L 271.95186,372.19141  "
     id="path10" />
  <path
     style="fill:none;stroke:#000000;stroke-width:0.035747245px;stroke-linecap:round;stroke-linejoin:round;stroke-miterlimit:4;stroke-dasharray:none;stroke-opacity:1;"
     d="  M 271.95186,388.86859   L 271.95186,202.28378   L 258.83262,198.11448   L 285.03536,190.98749   L 271.95186,186.81819   L 271.95186,0.26901564  "
     id="path11" />
  <path
     style="fill:none;stroke:#000000;stroke-width:0.035747245px;stroke-linecap:round;stroke-linejoin:round;stroke-miterlimit:4;stroke-dasharray:none;stroke-opacity:1;"
     d="  M 122.2424,372.19141   L 120.2763,377.6792  "
     id="path12" />
  <path
     style="fill:none;stroke:#000000;stroke-width:0.035747245px;stroke-linecap:round;stroke-linejoin:round;stroke-miterlimit:4;stroke-dasharray:none;stroke-opacity:1;"
     d="  M 132.96657,372.19141   L 131.00047,377.6792  "
     id="path13" />
  <path
     style="fill:none;stroke:#000000;stroke-width:0.035747245px;stroke-linecap:round;stroke-linejoin:round;stroke-miterlimit:4;stroke-dasharray:none;stroke-opacity:1;"
     d="  M 127.60448,372.19141   L 125.63839,377.6792  "
     id="path14" />
  <path
     style="fill:none;stroke:#000000;stroke-width:0.035747245px;stroke-linecap:round;stroke-linejoin:round;stroke-miterlimit:4;stroke-dasharray:none;stroke-opacity:1;"
     d="  M 138.32866,372.19141   L 136.36256,377.6792  "
     id="path15" />
  <path
     style="fill:none;stroke:#000000;stroke-width:0.035747245px;stroke-linecap:round;stroke-linejoin:round;stroke-miterlimit:4;stroke-dasharray:none;stroke-opacity:1;"
     d="  M 143.69074,372.19141   L 141.72465,377.6792  "
     id="path16" />
  <path
     style="fill:none;stroke:#000000;stroke-width:0.035747245px;stroke-linecap:round;stroke-linejoin:round;stroke-miterlimit:4;stroke-dasharray:none;stroke-opacity:1;"
     d="  M 149.05283,372.19141   L 147.08673,377.6792  "
     id="path17" />
  <path
     style="fill:none;stroke:#000000;stroke-width:0.035747245px;stroke-linecap:round;stroke-linejoin:round;stroke-miterlimit:4;stroke-dasharray:none;stroke-opacity:1;"
     d="  M 140.72372,55.503251   L 140.72372,41.07108   L 147.47995,55.503251   L 147.47995,41.07108  "
     id="path18" />
  <path
     style="fill:#000000;fill-rule:evenodd;fill-opacity:1;stroke:none;"
     d="  M 135.25439,69.650343   L 133.25255,81.516795   L 131.28645,69.650343   z "
     id="path19" />
  <path
     style="fill:none;stroke:#000000;stroke-width:0.035747245px;stroke-linecap:round;stroke-linejoin:round;stroke-miterlimit:4;stroke-dasharray:none;stroke-opacity:1;"
     d="  M 133.25255,69.650343   L 133.25255,40.35838  "
     id="path20" />
  <path
     style="fill:none;stroke:#000000;stroke-width:0.035747245px;stroke-linecap:round;stroke-linejoin:round;stroke-miterlimit:4;stroke-dasharray:none;stroke-opacity:1;"
     d="  M 151.4479,49.480938   L 151.94836,49.160223   L 152.6633,48.126808   L 152.6633,55.325076  "
     id="path21" />
  <path
     style="fill:none;stroke:#000000;stroke-width:0.035747245px;stroke-linecap:round;stroke-linejoin:round;stroke-miterlimit:4;stroke-dasharray:none;stroke-opacity:1;"
     d="  M 167.6414,147.90478   L 167.6414,133.50825   L 174.39763,147.90478   L 174.39763,133.50825  "
     id="path22" />
  <path
     style="fill:#000000;fill-rule:evenodd;fill-opacity:1;stroke:none;"
     d="  M 162.17207,161.48171   L 160.17022,173.3838   L 158.20413,161.48171   z "
     id="path23" />
  <path
     style="fill:none;stroke:#000000;stroke-width:0.035747245px;stroke-linecap:round;stroke-linejoin:round;stroke-miterlimit:4;stroke-dasharray:none;stroke-opacity:1;"
     d="  M 160.17022,161.48171   L 160.17022,132.75991  "
     id="path24" />
  <path
     style="fill:none;stroke:#000000;stroke-width:0.035747245px;stroke-linecap:round;stroke-linejoin:round;stroke-miterlimit:4;stroke-dasharray:none;stroke-opacity:1;"
     d="  M 177.54339,142.27445   L 177.54339,141.9181   L 177.79362,141.24104   L 178.0081,140.88469   L 178.50856,140.56397   L 179.47374,140.56397   L 179.93845,140.88469   L 180.18868,141.24104   L 180.43891,141.9181   L 180.43891,142.6308   L 180.18868,143.30787   L 179.72397,144.34128   L 177.29316,147.76224   L 180.6534,147.76224  "
     id="path25" />
  <path
     style="fill:none;stroke:#000000;stroke-width:0.035747245px;stroke-linecap:round;stroke-linejoin:round;stroke-miterlimit:4;stroke-dasharray:none;stroke-opacity:1;"
     d="  M 131.17921,114.37226   L 55.001827,114.37226  "
     id="path26" />
  <path
     style="fill:none;stroke:#000000;stroke-width:0.035747245px;stroke-linecap:round;stroke-linejoin:round;stroke-miterlimit:4;stroke-dasharray:none;stroke-opacity:1;"
     d="  M 131.17921,179.76246   L 55.001827,179.76246  "
     id="path27" />
  <path
     style="fill:none;stroke:#000000;stroke-width:0.035747245px;stroke-linecap:round;stroke-linejoin:round;stroke-miterlimit:4;stroke-dasharray:none;stroke-opacity:1;"
     d="  M 60.971617,108.42121   L 60.971617,185.71351  "
     id="path28" />
  <path
     style="fill:#000000;fill-rule:evenodd;fill-opacity:1;stroke:none;"
     d="  M 64.117374,119.6106   L 66.226462,117.50814   L 55.681024,111.20074   z "
     id="path29" />
  <path
     style="fill:#000000;fill-rule:evenodd;fill-opacity:1;stroke:none;"
     d="  M 66.226462,117.50814   L 55.681024,111.20074   L 57.790112,109.09828   z "
     id="path30" />
  <path
     style="fill:#000000;fill-rule:evenodd;fill-opacity:1;stroke:none;"
     d="  M 57.790112,174.48849   L 55.681024,176.59095   L 66.226462,182.89834   z "
     id="path31" />
  <path
     style="fill:#000000;fill-rule:evenodd;fill-opacity:1;stroke:none;"
     d="  M 55.681024,176.59095   L 66.226462,182.89834   L 64.117374,185.00081   z "
     id="path32" />
  <path
     style="fill:none;stroke:#000000;stroke-width:0.035747245px;stroke-linecap:round;stroke-linejoin:round;stroke-miterlimit:4;stroke-dasharray:none;stroke-opacity:1;"
     d="  M 53.607684,149.68653   L 39.165797,149.68653  "
     id="path33" />
  <path
     style="fill:none;stroke:#000000;stroke-width:0.035747245px;stroke-linecap:round;stroke-linejoin:round;stroke-miterlimit:4;stroke-dasharray:none;stroke-opacity:1;"
     d="  M 46.744213,149.68653   L 44.670873,148.26113   L 43.991675,147.29899   L 43.991675,145.87359   L 44.670873,144.91144   L 46.744213,144.41255   L 53.607684,144.41255  "
     id="path34" />
  <path
     style="fill:none;stroke:#000000;stroke-width:0.035747245px;stroke-linecap:round;stroke-linejoin:round;stroke-miterlimit:4;stroke-dasharray:none;stroke-opacity:1;"
     d="  M 131.17921,179.76246   L 55.001827,179.76246  "
     id="path35" />
  <path
     style="fill:none;stroke:#000000;stroke-width:0.035747245px;stroke-linecap:round;stroke-linejoin:round;stroke-miterlimit:4;stroke-dasharray:none;stroke-opacity:1;"
     d="  M 107.33579,372.19141   L 55.001827,372.19141  "
     id="path36" />
  <path
     style="fill:none;stroke:#000000;stroke-width:0.035747245px;stroke-linecap:round;stroke-linejoin:round;stroke-miterlimit:4;stroke-dasharray:none;stroke-opacity:1;"
     d="  M 60.971617,173.81142   L 60.971617,378.14246  "
     id="path37" />
  <path
     style="fill:#000000;fill-rule:evenodd;fill-opacity:1;stroke:none;"
     d="  M 64.117374,185.00081   L 66.226462,182.89834   L 55.681024,176.59095   z "
     id="path38" />
  <path
     style="fill:#000000;fill-rule:evenodd;fill-opacity:1;stroke:none;"
     d="  M 66.226462,182.89834   L 55.681024,176.59095   L 57.790112,174.48849   z "
     id="path39" />
  <path
     style="fill:#000000;fill-rule:evenodd;fill-opacity:1;stroke:none;"
     d="  M 57.790112,366.95307   L 55.681024,369.05554   L 66.226462,375.36293   z "
     id="path40" />
  <path
     style="fill:#000000;fill-rule:evenodd;fill-opacity:1;stroke:none;"
     d="  M 55.681024,369.05554   L 66.226462,375.36293   L 64.117374,377.46539   z "
     id="path41" />
  <path
     style="fill:none;stroke:#000000;stroke-width:0.035747245px;stroke-linecap:round;stroke-linejoin:round;stroke-miterlimit:4;stroke-dasharray:none;stroke-opacity:1;"
     d="  M 53.607684,278.61393   L 39.165797,278.61393  "
     id="path42" />
  <path
     style="fill:none;stroke:#000000;stroke-width:0.035747245px;stroke-linecap:round;stroke-linejoin:round;stroke-miterlimit:4;stroke-dasharray:none;stroke-opacity:1;"
     d="  M 46.744213,278.61393   L 44.670873,277.18853   L 43.991675,276.22638   L 43.991675,274.76535   L 44.670873,273.80321   L 46.744213,273.33995   L 53.607684,273.33995  "
     id="path43" />
  <path
     style="fill:none;stroke:#000000;stroke-width:0.035747245px;stroke-linecap:round;stroke-linejoin:round;stroke-miterlimit:4;stroke-dasharray:none;stroke-opacity:1;"
     d="  M 111.01776,441.85782   L 111.23224,443.71084   L 111.41098,458.17865   L 111.30374,456.61071   L 118.3102,456.61071   L 117.80974,456.46817   L 116.84456,456.61071  "
     id="path44" />
  <path
     style="fill:none;stroke:#000000;stroke-width:0.035747245px;stroke-linecap:round;stroke-linejoin:round;stroke-miterlimit:4;stroke-dasharray:none;stroke-opacity:1;"
     d="  M 111.30374,443.71084   L 119.5971,442.8556   L 119.31112,442.42798   L 119.09664,443.71084   L 118.9894,456.32563   L 118.9179,457.75103   L 118.20296,456.61071  "
     id="path45" />
  <path
     style="fill:none;stroke:#000000;stroke-width:0.035747245px;stroke-linecap:round;stroke-linejoin:round;stroke-miterlimit:4;stroke-dasharray:none;stroke-opacity:1;"
     d="  M 114.55674,443.85338   L 114.55674,444.53045   L 113.6988,446.63291   L 112.59064,448.34339   L 112.09018,449.02046  "
     id="path46" />
  <path
     style="fill:none;stroke:#000000;stroke-width:0.035747245px;stroke-linecap:round;stroke-linejoin:round;stroke-miterlimit:4;stroke-dasharray:none;stroke-opacity:1;"
     d="  M 114.09202,445.95585   L 114.48524,446.09839   L 117.23778,445.67077   L 116.91606,445.24315   L 115.6649,447.91577   L 114.66398,449.30554   L 113.7703,450.44585   L 112.87662,451.408   L 111.91144,452.1207  "
     id="path47" />
  <path
     style="fill:none;stroke:#000000;stroke-width:0.035747245px;stroke-linecap:round;stroke-linejoin:round;stroke-miterlimit:4;stroke-dasharray:none;stroke-opacity:1;"
     d="  M 113.87754,447.48815   L 114.16352,447.48815   L 117.23778,451.15855   L 118.3102,451.15855   L 117.23778,450.87347   L 116.73732,450.58839  "
     id="path48" />
  <path
     style="fill:none;stroke:#000000;stroke-width:0.035747245px;stroke-linecap:round;stroke-linejoin:round;stroke-miterlimit:4;stroke-dasharray:none;stroke-opacity:1;"
     d="  M 114.378,451.01601   L 115.45042,451.97816   L 115.95088,452.69086  "
     id="path49" />
  <path
     style="fill:none;stroke:#000000;stroke-width:0.035747245px;stroke-linecap:round;stroke-linejoin:round;stroke-miterlimit:4;stroke-dasharray:none;stroke-opacity:1;"
     d="  M 113.98478,453.40356   L 115.27168,454.3657   L 115.84364,455.0784  "
     id="path50" />
  <path
     style="fill:none;stroke:#000000;stroke-width:0.035747245px;stroke-linecap:round;stroke-linejoin:round;stroke-miterlimit:4;stroke-dasharray:none;stroke-opacity:1;"
     d="  M 124.06551,443.21195   L 122.63562,443.92465   L 122.13515,445.27878   L 122.13515,446.66855   L 122.63562,448.02268   L 123.60079,448.73538   L 125.53114,449.41244   L 126.96103,450.0895   L 127.92621,451.47927   L 128.39092,452.8334   L 128.39092,454.90023   L 127.92621,456.25436   L 127.42575,456.96706   L 125.99586,457.64412   L 124.06551,457.64412   L 122.63562,456.96706   L 122.13515,456.25436   L 121.67044,454.90023   L 121.67044,452.8334   L 122.13515,451.47927   L 123.10033,450.0895   L 124.56597,449.41244   L 126.49632,448.73538   L 127.42575,448.02268   L 127.92621,446.66855   L 127.92621,445.27878   L 127.42575,443.92465   L 125.99586,443.21195   L 124.06551,443.21195   z "
     id="path51" />
  <path
     style="fill:none;stroke:#000000;stroke-width:0.035747245px;stroke-linecap:round;stroke-linejoin:round;stroke-miterlimit:4;stroke-dasharray:none;stroke-opacity:1;"
     d="  M 131.78691,456.25436   L 131.28645,456.96706   L 131.78691,457.64412   L 132.25163,456.96706  "
     id="path52" />
  <path
     style="fill:none;stroke:#000000;stroke-width:0.035747245px;stroke-linecap:round;stroke-linejoin:round;stroke-miterlimit:4;stroke-dasharray:none;stroke-opacity:1;"
     d="  M 137.0775,443.21195   L 142.3681,443.21195   L 139.47257,448.73538   L 140.93821,448.73538   L 141.90338,449.41244   L 142.3681,450.0895   L 142.83281,452.15633   L 142.83281,453.51046   L 142.3681,455.57729   L 141.40292,456.96706   L 139.97303,457.64412   L 138.50739,457.64412   L 137.0775,456.96706   L 136.57704,456.25436   L 136.11233,454.90023  "
     id="path53" />
  <path
     style="fill:none;stroke:#000000;stroke-width:0.035747245px;stroke-linecap:round;stroke-linejoin:round;stroke-miterlimit:4;stroke-dasharray:none;stroke-opacity:1;"
     d="  M 146.2288,456.25436   L 145.72834,456.96706   L 146.2288,457.64412   L 146.69351,456.96706  "
     id="path54" />
  <path
     style="fill:none;stroke:#000000;stroke-width:0.035747245px;stroke-linecap:round;stroke-linejoin:round;stroke-miterlimit:4;stroke-dasharray:none;stroke-opacity:1;"
     d="  M 151.51939,443.21195   L 156.80998,443.21195   L 153.91446,448.73538   L 155.38009,448.73538   L 156.34527,449.41244   L 156.80998,450.0895   L 157.2747,452.15633   L 157.2747,453.51046   L 156.80998,455.57729   L 155.84481,456.96706   L 154.41492,457.64412   L 152.94928,457.64412   L 151.51939,456.96706   L 151.01893,456.25436   L 150.55422,454.90023  "
     id="path55" />
  <path
     style="fill:#000000;fill-rule:evenodd;fill-opacity:1;stroke:none;"
     d="  M 174.71935,197.68686   L 174.04016,196.01202   L 146.40754,209.33951   z "
     id="path56" />
  <path
     style="fill:#000000;fill-rule:evenodd;fill-opacity:1;stroke:none;"
     d="  M 174.04016,196.01202   L 146.40754,209.33951   L 145.72834,207.7003   z "
     id="path57" />
  <path
     style="fill:#000000;fill-rule:evenodd;fill-opacity:1;stroke:none;"
     d="  M 175.29131,179.76246   L 173.50395,179.76246   L 175.29131,196.83163   z "
     id="path58" />
  <path
     style="fill:#000000;fill-rule:evenodd;fill-opacity:1;stroke:none;"
     d="  M 173.50395,179.76246   L 175.29131,196.83163   L 173.50395,196.83163   z "
     id="path59" />
  <path
     style="fill:#000000;fill-rule:evenodd;fill-opacity:1;stroke:none;"
     d="  M 146.08581,178.87159   L 146.08581,180.65334   L 174.39763,178.87159   z "
     id="path60" />
  <path
     style="fill:#000000;fill-rule:evenodd;fill-opacity:1;stroke:none;"
     d="  M 146.08581,180.65334   L 174.39763,178.87159   L 174.39763,180.65334   z "
     id="path61" />
  <path
     style="fill:#000000;fill-rule:evenodd;fill-opacity:1;stroke:none;"
     d="  M 145.72834,113.55265   L 146.40754,115.19186   L 271.59439,61.169215   z "
     id="path62" />
  <path
     style="fill:#000000;fill-rule:evenodd;fill-opacity:1;stroke:none;"
     d="  M 146.40754,115.19186   L 271.59439,61.169215   L 272.27359,62.808425   z "
     id="path63" />
  <path
     style="fill:#000000;fill-rule:evenodd;fill-opacity:1;stroke:none;"
     d="  M 121.88492,97.695081   L 122.56412,99.33429   L 271.59439,35.405117   z "
     id="path64" />
  <path
     style="fill:#000000;fill-rule:evenodd;fill-opacity:1;stroke:none;"
     d="  M 122.56412,99.33429   L 271.59439,35.405117   L 272.27359,37.044326   z "
     id="path65" />
  <path
     style="fill:#000000;fill-rule:evenodd;fill-opacity:1;stroke:none;"
     d="  M 145.19213,372.19141   L 146.97949,372.19141   L 145.19213,114.37226   z "
     id="path66" />
  <path
     style="fill:#000000;fill-rule:evenodd;fill-opacity:1;stroke:none;"
     d="  M 146.97949,372.19141   L 145.19213,114.37226   L 146.97949,114.37226   z "
     id="path67" />
  <path
     style="fill:#000000;fill-rule:evenodd;fill-opacity:1;stroke:none;"
     d="  M 121.34872,372.19141   L 123.13608,372.19141   L 121.34872,98.514685   z "
     id="path68" />
  <path
     style="fill:#000000;fill-rule:evenodd;fill-opacity:1;stroke:none;"
     d="  M 123.13608,372.19141   L 121.34872,98.514685   L 123.13608,98.514685   z "
     id="path69" />
  <path
     style="fill:none;stroke:#000000;stroke-width:0.035747245px;stroke-linecap:round;stroke-linejoin:round;stroke-miterlimit:4;stroke-dasharray:none;stroke-opacity:1;"
     d="  M 48.245597,268.63613   L 47.923872,268.17288   L 46.887202,267.46018   L 54.108146,267.46018  "
     id="path70" />
  <path
     style="fill:none;stroke:#000000;stroke-width:0.035747245px;stroke-linecap:round;stroke-linejoin:round;stroke-miterlimit:4;stroke-dasharray:none;stroke-opacity:1;"
     d="  M 48.60307,141.59739   L 48.245597,141.59739   L 47.566399,141.34794   L 47.208927,141.0985   L 46.887202,140.63524   L 46.887202,139.6731   L 47.208927,139.20984   L 47.566399,138.9604   L 48.245597,138.71096   L 48.960542,138.71096   L 49.63974,138.9604   L 50.67641,139.42365   L 54.108146,141.84683   L 54.108146,138.46151  "
     id="path71" />
</svg>
