<?xml version="1.0" encoding="UTF-8" standalone="no"?>
<svg
   version="1.0"
   width="82.769997mm"
   height="66.480003mm"
   id="svg183"
   sodipodi:docname="image274.emf"
   xmlns:inkscape="http://www.inkscape.org/namespaces/inkscape"
   xmlns:sodipodi="http://sodipodi.sourceforge.net/DTD/sodipodi-0.dtd"
   xmlns="http://www.w3.org/2000/svg"
   xmlns:svg="http://www.w3.org/2000/svg">
  <sodipodi:namedview
     id="namedview183"
     pagecolor="#ffffff"
     bordercolor="#000000"
     borderopacity="0.25"
     inkscape:showpageshadow="2"
     inkscape:pageopacity="0.0"
     inkscape:pagecheckerboard="0"
     inkscape:deskcolor="#d1d1d1"
     inkscape:document-units="mm" />
  <defs
     id="defs1">
    <pattern
       id="EMFhbasepattern"
       patternUnits="userSpaceOnUse"
       width="6"
       height="6"
       x="0"
       y="0" />
  </defs>
  <path
     style="fill:#000000;fill-rule:evenodd;fill-opacity:1;stroke:none;"
     d="  M 292.50197,133.57921   L 292.50197,131.17466   L 177.73687,133.57921   z "
     id="path1" />
  <path
     style="fill:#000000;fill-rule:evenodd;fill-opacity:1;stroke:none;"
     d="  M 292.50197,131.17466   L 177.73687,133.57921   L 177.73687,131.17466   z "
     id="path2" />
  <path
     style="fill:#000000;fill-rule:evenodd;fill-opacity:1;stroke:none;"
     d="  M 123.85692,133.57921   L 123.85692,131.17466   L 17.858327,133.57921   z "
     id="path3" />
  <path
     style="fill:#000000;fill-rule:evenodd;fill-opacity:1;stroke:none;"
     d="  M 123.85692,131.17466   L 17.858327,133.57921   L 17.858327,131.17466   z "
     id="path4" />
  <path
     style="fill:#000000;fill-rule:evenodd;fill-opacity:1;stroke:none;"
     d="  M 292.50197,140.91309   L 292.50197,139.71082   L 275.20914,140.91309   z "
     id="path5" />
  <path
     style="fill:#000000;fill-rule:evenodd;fill-opacity:1;stroke:none;"
     d="  M 292.50197,139.71082   L 275.20914,140.91309   L 275.20914,139.71082   z "
     id="path6" />
  <path
     style="fill:#000000;fill-rule:evenodd;fill-opacity:1;stroke:none;"
     d="  M 267.28327,140.91309   L 267.28327,139.71082   L 247.46857,140.91309   z "
     id="path7" />
  <path
     style="fill:#000000;fill-rule:evenodd;fill-opacity:1;stroke:none;"
     d="  M 267.28327,139.71082   L 247.46857,140.91309   L 247.46857,139.71082   z "
     id="path8" />
  <path
     style="fill:#000000;fill-rule:evenodd;fill-opacity:1;stroke:none;"
     d="  M 239.5427,140.91309   L 239.5427,139.71082   L 219.72801,140.91309   z "
     id="path9" />
  <path
     style="fill:#000000;fill-rule:evenodd;fill-opacity:1;stroke:none;"
     d="  M 239.5427,139.71082   L 219.72801,140.91309   L 219.72801,139.71082   z "
     id="path10" />
  <path
     style="fill:#000000;fill-rule:evenodd;fill-opacity:1;stroke:none;"
     d="  M 211.80213,140.91309   L 211.80213,139.71082   L 191.98744,140.91309   z "
     id="path11" />
  <path
     style="fill:#000000;fill-rule:evenodd;fill-opacity:1;stroke:none;"
     d="  M 211.80213,139.71082   L 191.98744,140.91309   L 191.98744,139.71082   z "
     id="path12" />
  <path
     style="fill:#000000;fill-rule:evenodd;fill-opacity:1;stroke:none;"
     d="  M 184.06156,140.91309   L 184.06156,139.71082   L 166.76874,140.91309   z "
     id="path13" />
  <path
     style="fill:#000000;fill-rule:evenodd;fill-opacity:1;stroke:none;"
     d="  M 184.06156,139.71082   L 166.76874,140.91309   L 166.76874,139.71082   z "
     id="path14" />
  <path
     style="fill:#000000;fill-rule:evenodd;fill-opacity:1;stroke:none;"
     d="  M 166.76874,140.91309   L 166.76874,139.71082   L 166.76874,139.71082   z "
     id="path15" />
  <path
     style="fill:none;stroke:#000000;stroke-width:0.96071231px;stroke-linecap:round;stroke-linejoin:round;stroke-miterlimit:4;stroke-dasharray:none;stroke-opacity:1;"
     d="  M 292.50197,164.1571   L 183.06082,164.1571  "
     id="path16" />
  <path
     style="fill:none;stroke:#000000;stroke-width:0.96071231px;stroke-linecap:round;stroke-linejoin:round;stroke-miterlimit:4;stroke-dasharray:none;stroke-opacity:1;"
     d="  M 163.24613,164.1571   L 143.43144,164.1571  "
     id="path17" />
  <path
     style="fill:none;stroke:#000000;stroke-width:0.96071231px;stroke-linecap:round;stroke-linejoin:round;stroke-miterlimit:4;stroke-dasharray:none;stroke-opacity:1;"
     d="  M 123.61674,164.1571   L 14.175597,164.1571  "
     id="path18" />
  <path
     style="fill:none;stroke:#000000;stroke-width:0.96071231px;stroke-linecap:round;stroke-linejoin:round;stroke-miterlimit:4;stroke-dasharray:none;stroke-opacity:1;"
     d="  M 292.50197,126.56593   L 292.50197,153.81752   L 309.95491,159.38807   L 275.08905,168.92613   L 292.50197,174.4566   L 292.50197,202.58986  "
     id="path19" />
  <path
     style="fill:#000000;fill-rule:evenodd;fill-opacity:1;stroke:none;"
     d="  M 249.18985,132.37693   L 253.15279,132.37693   L 253.15279,132.37693   z "
     id="path20" />
  <path
     style="fill:#000000;fill-rule:evenodd;fill-opacity:1;stroke:none;"
     d="  M 249.18985,132.37693   L 249.18985,140.31196   L 253.15279,140.31196   z "
     id="path21" />
  <path
     style="fill:#000000;fill-rule:evenodd;fill-opacity:1;stroke:none;"
     d="  M 249.18985,132.37693   L 253.15279,132.37693   L 253.15279,140.31196   z "
     id="path22" />
  <path
     style="fill:#000000;fill-rule:evenodd;fill-opacity:1;stroke:none;"
     d="  M 249.18985,140.31196   L 253.15279,140.31196   L 253.15279,140.31196   z "
     id="path23" />
  <path
     style="fill:#000000;fill-rule:evenodd;fill-opacity:1;stroke:none;"
     d="  M 249.18985,140.31196   L 253.15279,140.31196   L 253.15279,140.31196   z "
     id="path24" />
  <path
     style="fill:#000000;fill-rule:evenodd;fill-opacity:1;stroke:none;"
     d="  M 249.18985,140.31196   L 249.18985,164.1571   L 253.15279,164.1571   z "
     id="path25" />
  <path
     style="fill:#000000;fill-rule:evenodd;fill-opacity:1;stroke:none;"
     d="  M 249.18985,140.31196   L 253.15279,140.31196   L 253.15279,164.1571   z "
     id="path26" />
  <path
     style="fill:#000000;fill-rule:evenodd;fill-opacity:1;stroke:none;"
     d="  M 249.18985,164.1571   L 253.15279,164.1571   L 253.15279,164.1571   z "
     id="path27" />
  <path
     style="fill:#000000;fill-rule:evenodd;fill-opacity:1;stroke:none;"
     d="  M 249.18985,164.1571   L 253.15279,164.1571   L 253.15279,164.1571   z "
     id="path28" />
  <path
     style="fill:#000000;fill-rule:evenodd;fill-opacity:1;stroke:none;"
     d="  M 249.18985,164.1571   L 249.18985,187.96216   L 253.15279,187.96216   z "
     id="path29" />
  <path
     style="fill:#000000;fill-rule:evenodd;fill-opacity:1;stroke:none;"
     d="  M 249.18985,164.1571   L 253.15279,164.1571   L 253.15279,187.96216   z "
     id="path30" />
  <path
     style="fill:#000000;fill-rule:evenodd;fill-opacity:1;stroke:none;"
     d="  M 249.18985,187.96216   L 253.15279,187.96216   L 253.15279,187.96216   z "
     id="path31" />
  <path
     style="fill:#000000;fill-rule:evenodd;fill-opacity:1;stroke:none;"
     d="  M 249.18985,187.96216   L 253.15279,187.96216   L 253.15279,187.96216   z "
     id="path32" />
  <path
     style="fill:#000000;fill-rule:evenodd;fill-opacity:1;stroke:none;"
     d="  M 249.18985,187.96216   L 249.18985,195.89719   L 253.15279,195.89719   z "
     id="path33" />
  <path
     style="fill:#000000;fill-rule:evenodd;fill-opacity:1;stroke:none;"
     d="  M 249.18985,187.96216   L 253.15279,187.96216   L 253.15279,195.89719   z "
     id="path34" />
  <path
     style="fill:#000000;fill-rule:evenodd;fill-opacity:1;stroke:none;"
     d="  M 249.18985,195.89719   L 253.15279,195.89719   L 253.15279,195.89719   z "
     id="path35" />
  <path
     style="fill:none;stroke:#000000;stroke-width:0.96071231px;stroke-linecap:round;stroke-linejoin:round;stroke-miterlimit:4;stroke-dasharray:none;stroke-opacity:1;"
     d="  M 245.22691,134.2605   L 247.10831,132.37693  "
     id="path36" />
  <path
     style="fill:none;stroke:#000000;stroke-width:0.96071231px;stroke-linecap:round;stroke-linejoin:round;stroke-miterlimit:4;stroke-dasharray:none;stroke-opacity:1;"
     d="  M 245.22691,137.82725   L 249.18985,133.85974  "
     id="path37" />
  <path
     style="fill:none;stroke:#000000;stroke-width:0.96071231px;stroke-linecap:round;stroke-linejoin:round;stroke-miterlimit:4;stroke-dasharray:none;stroke-opacity:1;"
     d="  M 245.22691,141.394   L 246.30771,140.31196   L 249.18985,137.38642  "
     id="path38" />
  <path
     style="fill:none;stroke:#000000;stroke-width:0.96071231px;stroke-linecap:round;stroke-linejoin:round;stroke-miterlimit:4;stroke-dasharray:none;stroke-opacity:1;"
     d="  M 245.22691,144.96076   L 249.18985,140.95317  "
     id="path39" />
  <path
     style="fill:none;stroke:#000000;stroke-width:0.96071231px;stroke-linecap:round;stroke-linejoin:round;stroke-miterlimit:4;stroke-dasharray:none;stroke-opacity:1;"
     d="  M 245.22691,148.52751   L 249.18985,144.51992  "
     id="path40" />
  <path
     style="fill:none;stroke:#000000;stroke-width:0.96071231px;stroke-linecap:round;stroke-linejoin:round;stroke-miterlimit:4;stroke-dasharray:none;stroke-opacity:1;"
     d="  M 245.22691,152.09426   L 249.18985,148.08667  "
     id="path41" />
  <path
     style="fill:none;stroke:#000000;stroke-width:0.96071231px;stroke-linecap:round;stroke-linejoin:round;stroke-miterlimit:4;stroke-dasharray:none;stroke-opacity:1;"
     d="  M 245.22691,155.66101   L 249.18985,151.65343  "
     id="path42" />
  <path
     style="fill:none;stroke:#000000;stroke-width:0.96071231px;stroke-linecap:round;stroke-linejoin:round;stroke-miterlimit:4;stroke-dasharray:none;stroke-opacity:1;"
     d="  M 245.22691,159.22777   L 249.18985,155.22018  "
     id="path43" />
  <path
     style="fill:none;stroke:#000000;stroke-width:0.96071231px;stroke-linecap:round;stroke-linejoin:round;stroke-miterlimit:4;stroke-dasharray:none;stroke-opacity:1;"
     d="  M 245.22691,162.75444   L 249.18985,158.78693  "
     id="path44" />
  <path
     style="fill:none;stroke:#000000;stroke-width:0.96071231px;stroke-linecap:round;stroke-linejoin:round;stroke-miterlimit:4;stroke-dasharray:none;stroke-opacity:1;"
     d="  M 245.22691,166.32119   L 247.42855,164.1571   L 249.18985,162.35368  "
     id="path45" />
  <path
     style="fill:none;stroke:#000000;stroke-width:0.96071231px;stroke-linecap:round;stroke-linejoin:round;stroke-miterlimit:4;stroke-dasharray:none;stroke-opacity:1;"
     d="  M 245.22691,169.88795   L 249.18985,165.92044  "
     id="path46" />
  <path
     style="fill:none;stroke:#000000;stroke-width:0.96071231px;stroke-linecap:round;stroke-linejoin:round;stroke-miterlimit:4;stroke-dasharray:none;stroke-opacity:1;"
     d="  M 245.22691,173.4547   L 249.18985,169.48719  "
     id="path47" />
  <path
     style="fill:none;stroke:#000000;stroke-width:0.96071231px;stroke-linecap:round;stroke-linejoin:round;stroke-miterlimit:4;stroke-dasharray:none;stroke-opacity:1;"
     d="  M 245.22691,177.02145   L 249.18985,173.05394  "
     id="path48" />
  <path
     style="fill:none;stroke:#000000;stroke-width:0.96071231px;stroke-linecap:round;stroke-linejoin:round;stroke-miterlimit:4;stroke-dasharray:none;stroke-opacity:1;"
     d="  M 245.22691,180.5882   L 249.18985,176.62069  "
     id="path49" />
  <path
     style="fill:none;stroke:#000000;stroke-width:0.96071231px;stroke-linecap:round;stroke-linejoin:round;stroke-miterlimit:4;stroke-dasharray:none;stroke-opacity:1;"
     d="  M 245.22691,184.15496   L 249.18985,180.18745  "
     id="path50" />
  <path
     style="fill:none;stroke:#000000;stroke-width:0.96071231px;stroke-linecap:round;stroke-linejoin:round;stroke-miterlimit:4;stroke-dasharray:none;stroke-opacity:1;"
     d="  M 245.22691,187.72171   L 249.18985,183.7542  "
     id="path51" />
  <path
     style="fill:none;stroke:#000000;stroke-width:0.96071231px;stroke-linecap:round;stroke-linejoin:round;stroke-miterlimit:4;stroke-dasharray:none;stroke-opacity:1;"
     d="  M 245.22691,191.28846   L 248.54938,187.96216   L 249.18985,187.32095  "
     id="path52" />
  <path
     style="fill:none;stroke:#000000;stroke-width:0.96071231px;stroke-linecap:round;stroke-linejoin:round;stroke-miterlimit:4;stroke-dasharray:none;stroke-opacity:1;"
     d="  M 245.22691,194.85521   L 249.18985,190.8877  "
     id="path53" />
  <path
     style="fill:none;stroke:#000000;stroke-width:0.96071231px;stroke-linecap:round;stroke-linejoin:round;stroke-miterlimit:4;stroke-dasharray:none;stroke-opacity:1;"
     d="  M 247.74878,195.89719   L 249.18985,194.45445  "
     id="path54" />
  <path
     style="fill:#000000;fill-rule:evenodd;fill-opacity:1;stroke:none;"
     d="  M 292.50197,197.09946   L 292.50197,194.73499   L 17.858327,197.09946   z "
     id="path55" />
  <path
     style="fill:#000000;fill-rule:evenodd;fill-opacity:1;stroke:none;"
     d="  M 292.50197,194.73499   L 17.858327,197.09946   L 17.858327,194.73499   z "
     id="path56" />
  <path
     style="fill:#000000;fill-rule:evenodd;fill-opacity:1;stroke:none;"
     d="  M 292.50197,188.5633   L 292.50197,187.36103   L 270.12537,188.5633   z "
     id="path57" />
  <path
     style="fill:#000000;fill-rule:evenodd;fill-opacity:1;stroke:none;"
     d="  M 292.50197,187.36103   L 270.12537,188.5633   L 270.12537,187.36103   z "
     id="path58" />
  <path
     style="fill:#000000;fill-rule:evenodd;fill-opacity:1;stroke:none;"
     d="  M 262.1995,188.5633   L 262.1995,187.36103   L 242.38481,188.5633   z "
     id="path59" />
  <path
     style="fill:#000000;fill-rule:evenodd;fill-opacity:1;stroke:none;"
     d="  M 262.1995,187.36103   L 242.38481,188.5633   L 242.38481,187.36103   z "
     id="path60" />
  <path
     style="fill:#000000;fill-rule:evenodd;fill-opacity:1;stroke:none;"
     d="  M 234.45893,188.5633   L 234.45893,187.36103   L 214.64424,188.5633   z "
     id="path61" />
  <path
     style="fill:#000000;fill-rule:evenodd;fill-opacity:1;stroke:none;"
     d="  M 234.45893,187.36103   L 214.64424,188.5633   L 214.64424,187.36103   z "
     id="path62" />
  <path
     style="fill:#000000;fill-rule:evenodd;fill-opacity:1;stroke:none;"
     d="  M 206.71836,188.5633   L 206.71836,187.36103   L 186.90367,188.5633   z "
     id="path63" />
  <path
     style="fill:#000000;fill-rule:evenodd;fill-opacity:1;stroke:none;"
     d="  M 206.71836,187.36103   L 186.90367,188.5633   L 186.90367,187.36103   z "
     id="path64" />
  <path
     style="fill:#000000;fill-rule:evenodd;fill-opacity:1;stroke:none;"
     d="  M 178.97779,188.5633   L 178.97779,187.36103   L 159.1631,188.5633   z "
     id="path65" />
  <path
     style="fill:#000000;fill-rule:evenodd;fill-opacity:1;stroke:none;"
     d="  M 178.97779,187.36103   L 159.1631,188.5633   L 159.1631,187.36103   z "
     id="path66" />
  <path
     style="fill:#000000;fill-rule:evenodd;fill-opacity:1;stroke:none;"
     d="  M 151.23722,188.5633   L 151.23722,187.36103   L 131.42253,188.5633   z "
     id="path67" />
  <path
     style="fill:#000000;fill-rule:evenodd;fill-opacity:1;stroke:none;"
     d="  M 151.23722,187.36103   L 131.42253,188.5633   L 131.42253,187.36103   z "
     id="path68" />
  <path
     style="fill:#000000;fill-rule:evenodd;fill-opacity:1;stroke:none;"
     d="  M 123.49665,188.5633   L 123.49665,187.36103   L 103.68196,188.5633   z "
     id="path69" />
  <path
     style="fill:#000000;fill-rule:evenodd;fill-opacity:1;stroke:none;"
     d="  M 123.49665,187.36103   L 103.68196,188.5633   L 103.68196,187.36103   z "
     id="path70" />
  <path
     style="fill:#000000;fill-rule:evenodd;fill-opacity:1;stroke:none;"
     d="  M 95.756086,188.5633   L 95.756086,187.36103   L 75.941394,188.5633   z "
     id="path71" />
  <path
     style="fill:#000000;fill-rule:evenodd;fill-opacity:1;stroke:none;"
     d="  M 95.756086,187.36103   L 75.941394,188.5633   L 75.941394,187.36103   z "
     id="path72" />
  <path
     style="fill:#000000;fill-rule:evenodd;fill-opacity:1;stroke:none;"
     d="  M 68.015517,188.5633   L 68.015517,187.36103   L 48.200825,188.5633   z "
     id="path73" />
  <path
     style="fill:#000000;fill-rule:evenodd;fill-opacity:1;stroke:none;"
     d="  M 68.015517,187.36103   L 48.200825,188.5633   L 48.200825,187.36103   z "
     id="path74" />
  <path
     style="fill:#000000;fill-rule:evenodd;fill-opacity:1;stroke:none;"
     d="  M 40.274948,188.5633   L 40.274948,187.36103   L 17.858327,188.5633   z "
     id="path75" />
  <path
     style="fill:#000000;fill-rule:evenodd;fill-opacity:1;stroke:none;"
     d="  M 40.274948,187.36103   L 17.858327,188.5633   L 17.858327,187.36103   z "
     id="path76" />
  <path
     style="fill:#000000;fill-rule:evenodd;fill-opacity:1;stroke:none;"
     d="  M 17.858327,188.5633   L 17.858327,187.36103   L 17.858327,187.36103   z "
     id="path77" />
  <path
     style="fill:none;stroke:#000000;stroke-width:0.96071231px;stroke-linecap:round;stroke-linejoin:round;stroke-miterlimit:4;stroke-dasharray:none;stroke-opacity:1;"
     d="  M 17.858327,110.53558   L 17.858327,154.21828   L 35.311268,159.78883   L 0.44541617,169.28681   L 17.858327,174.85735   L 17.858327,214.57254  "
     id="path78" />
  <path
     style="fill:none;stroke:#000000;stroke-width:0.96071231px;stroke-linecap:round;stroke-linejoin:round;stroke-miterlimit:4;stroke-dasharray:none;stroke-opacity:1;"
     d="  M 143.51149,140.31196   L 245.82736,28.941114  "
     id="path79" />
  <path
     style="fill:#000000;fill-rule:evenodd;fill-opacity:1;stroke:none;"
     d="  M 122.97627,131.57542   L 124.73757,133.17845   L 230.3759,14.674105   z "
     id="path80" />
  <path
     style="fill:#000000;fill-rule:evenodd;fill-opacity:1;stroke:none;"
     d="  M 124.73757,133.17845   L 230.3759,14.674105   L 232.13721,16.317216   z "
     id="path81" />
  <path
     style="fill:#000000;fill-rule:evenodd;fill-opacity:1;stroke:none;"
     d="  M 128.18013,136.18414   L 129.06078,136.98566   L 141.55004,121.59652   z "
     id="path82" />
  <path
     style="fill:#000000;fill-rule:evenodd;fill-opacity:1;stroke:none;"
     d="  M 129.06078,136.98566   L 141.55004,121.59652   L 142.43069,122.39804   z "
     id="path83" />
  <path
     style="fill:#000000;fill-rule:evenodd;fill-opacity:1;stroke:none;"
     d="  M 146.91402,115.74545   L 147.79467,116.58704   L 160.36399,101.15783   z "
     id="path84" />
  <path
     style="fill:#000000;fill-rule:evenodd;fill-opacity:1;stroke:none;"
     d="  M 147.79467,116.58704   L 160.36399,101.15783   L 161.24464,101.95935   z "
     id="path85" />
  <path
     style="fill:#000000;fill-rule:evenodd;fill-opacity:1;stroke:none;"
     d="  M 165.72797,95.306754   L 166.60862,96.108272   L 179.13791,80.719138   z "
     id="path86" />
  <path
     style="fill:#000000;fill-rule:evenodd;fill-opacity:1;stroke:none;"
     d="  M 166.60862,96.108272   L 179.13791,80.719138   L 180.01856,81.520655   z "
     id="path87" />
  <path
     style="fill:#000000;fill-rule:evenodd;fill-opacity:1;stroke:none;"
     d="  M 184.50189,74.868061   L 185.38254,75.669578   L 197.91183,60.240368   z "
     id="path88" />
  <path
     style="fill:#000000;fill-rule:evenodd;fill-opacity:1;stroke:none;"
     d="  M 185.38254,75.669578   L 197.91183,60.240368   L 198.79248,61.041886   z "
     id="path89" />
  <path
     style="fill:#000000;fill-rule:evenodd;fill-opacity:1;stroke:none;"
     d="  M 203.31584,54.429367   L 204.15646,55.230885   L 216.72578,39.801675   z "
     id="path90" />
  <path
     style="fill:#000000;fill-rule:evenodd;fill-opacity:1;stroke:none;"
     d="  M 204.15646,55.230885   L 216.72578,39.801675   L 217.60643,40.603192   z "
     id="path91" />
  <path
     style="fill:#000000;fill-rule:evenodd;fill-opacity:1;stroke:none;"
     d="  M 222.08976,33.950598   L 222.97041,34.752116   L 235.45967,19.403058   z "
     id="path92" />
  <path
     style="fill:#000000;fill-rule:evenodd;fill-opacity:1;stroke:none;"
     d="  M 222.97041,34.752116   L 235.45967,19.403058   L 236.34032,20.204575   z "
     id="path93" />
  <path
     style="fill:#000000;fill-rule:evenodd;fill-opacity:1;stroke:none;"
     d="  M 235.45967,19.403058   L 236.34032,20.204575   L 236.34032,20.204575   z "
     id="path94" />
  <path
     style="fill:#000000;fill-rule:evenodd;fill-opacity:1;stroke:none;"
     d="  M 176.85622,131.57542   L 178.61752,133.17845   L 259.51751,41.565013   z "
     id="path95" />
  <path
     style="fill:#000000;fill-rule:evenodd;fill-opacity:1;stroke:none;"
     d="  M 178.61752,133.17845   L 259.51751,41.565013   L 261.27881,43.208124   z "
     id="path96" />
  <path
     style="fill:#000000;fill-rule:evenodd;fill-opacity:1;stroke:none;"
     d="  M 159.00298,142.47605   L 159.88363,143.31765   L 166.88883,133.89982   z "
     id="path97" />
  <path
     style="fill:#000000;fill-rule:evenodd;fill-opacity:1;stroke:none;"
     d="  M 159.88363,143.31765   L 166.88883,133.89982   L 167.76948,134.70133   z "
     id="path98" />
  <path
     style="fill:#000000;fill-rule:evenodd;fill-opacity:1;stroke:none;"
     d="  M 172.25281,128.04874   L 173.13346,128.89033   L 185.66275,113.46112   z "
     id="path99" />
  <path
     style="fill:#000000;fill-rule:evenodd;fill-opacity:1;stroke:none;"
     d="  M 173.13346,128.89033   L 185.66275,113.46112   L 186.5434,114.26264   z "
     id="path100" />
  <path
     style="fill:#000000;fill-rule:evenodd;fill-opacity:1;stroke:none;"
     d="  M 191.02673,107.61005   L 191.90738,108.41156   L 204.4767,93.02243   z "
     id="path101" />
  <path
     style="fill:#000000;fill-rule:evenodd;fill-opacity:1;stroke:none;"
     d="  M 191.90738,108.41156   L 204.4767,93.02243   L 205.35735,93.823947   z "
     id="path102" />
  <path
     style="fill:#000000;fill-rule:evenodd;fill-opacity:1;stroke:none;"
     d="  M 209.84068,87.171353   L 210.72133,87.97287   L 223.25062,72.54366   z "
     id="path103" />
  <path
     style="fill:#000000;fill-rule:evenodd;fill-opacity:1;stroke:none;"
     d="  M 210.72133,87.97287   L 223.25062,72.54366   L 224.13127,73.385254   z "
     id="path104" />
  <path
     style="fill:#000000;fill-rule:evenodd;fill-opacity:1;stroke:none;"
     d="  M 228.6146,66.732659   L 229.49525,67.534177   L 242.06457,52.104967   z "
     id="path105" />
  <path
     style="fill:#000000;fill-rule:evenodd;fill-opacity:1;stroke:none;"
     d="  M 229.49525,67.534177   L 242.06457,52.104967   L 242.90519,52.906484   z "
     id="path106" />
  <path
     style="fill:#000000;fill-rule:evenodd;fill-opacity:1;stroke:none;"
     d="  M 247.42855,46.25389   L 248.3092,47.055407   L 255.31439,37.677654   z "
     id="path107" />
  <path
     style="fill:#000000;fill-rule:evenodd;fill-opacity:1;stroke:none;"
     d="  M 248.3092,47.055407   L 255.31439,37.677654   L 256.19505,38.479171   z "
     id="path108" />
  <path
     style="fill:#000000;fill-rule:evenodd;fill-opacity:1;stroke:none;"
     d="  M 255.31439,37.677654   L 256.19505,38.479171   L 256.19505,38.479171   z "
     id="path109" />
  <path
     style="fill:none;stroke:#000000;stroke-width:0.96071231px;stroke-linecap:round;stroke-linejoin:round;stroke-miterlimit:4;stroke-dasharray:none;stroke-opacity:1;"
     d="  M 276.73027,57.435058   L 253.39297,35.914316   L 237.50118,45.011538   L 254.15353,12.870691   L 238.26175,21.927837   L 214.92444,0.44717135  "
     id="path110" />
  <path
     style="fill:#000000;fill-rule:evenodd;fill-opacity:1;stroke:none;"
     d="  M 122.97627,133.17845   L 124.69754,131.53534   L 128.18013,137.7471   z "
     id="path111" />
  <path
     style="fill:#000000;fill-rule:evenodd;fill-opacity:1;stroke:none;"
     d="  M 124.69754,131.53534   L 128.18013,137.7471   L 129.58117,135.82346   z "
     id="path112" />
  <path
     style="fill:#000000;fill-rule:evenodd;fill-opacity:1;stroke:none;"
     d="  M 128.18013,137.7471   L 129.58117,135.82346   L 134.10452,141.27378   z "
     id="path113" />
  <path
     style="fill:#000000;fill-rule:evenodd;fill-opacity:1;stroke:none;"
     d="  M 129.58117,135.82346   L 134.10452,141.27378   L 135.14529,139.14976   z "
     id="path114" />
  <path
     style="fill:#000000;fill-rule:evenodd;fill-opacity:1;stroke:none;"
     d="  M 134.10452,141.27378   L 135.14529,139.14976   L 140.5493,143.7184   z "
     id="path115" />
  <path
     style="fill:#000000;fill-rule:evenodd;fill-opacity:1;stroke:none;"
     d="  M 135.14529,139.14976   L 140.5493,143.7184   L 141.18977,141.43408   z "
     id="path116" />
  <path
     style="fill:#000000;fill-rule:evenodd;fill-opacity:1;stroke:none;"
     d="  M 140.5493,143.7184   L 141.18977,141.43408   L 147.35434,144.96076   z "
     id="path117" />
  <path
     style="fill:#000000;fill-rule:evenodd;fill-opacity:1;stroke:none;"
     d="  M 141.18977,141.43408   L 147.35434,144.96076   L 147.55449,142.59628   z "
     id="path118" />
  <path
     style="fill:#000000;fill-rule:evenodd;fill-opacity:1;stroke:none;"
     d="  M 147.35434,144.96076   L 147.55449,142.59628   L 154.23945,144.96076   z "
     id="path119" />
  <path
     style="fill:#000000;fill-rule:evenodd;fill-opacity:1;stroke:none;"
     d="  M 147.55449,142.59628   L 154.23945,144.96076   L 154.0393,142.59628   z "
     id="path120" />
  <path
     style="fill:#000000;fill-rule:evenodd;fill-opacity:1;stroke:none;"
     d="  M 154.23945,144.96076   L 154.0393,142.59628   L 161.00446,143.7184   z "
     id="path121" />
  <path
     style="fill:#000000;fill-rule:evenodd;fill-opacity:1;stroke:none;"
     d="  M 154.0393,142.59628   L 161.00446,143.7184   L 160.40402,141.43408   z "
     id="path122" />
  <path
     style="fill:#000000;fill-rule:evenodd;fill-opacity:1;stroke:none;"
     d="  M 161.00446,143.7184   L 160.40402,141.43408   L 167.48927,141.27378   z "
     id="path123" />
  <path
     style="fill:#000000;fill-rule:evenodd;fill-opacity:1;stroke:none;"
     d="  M 160.40402,141.43408   L 167.48927,141.27378   L 166.4485,139.14976   z "
     id="path124" />
  <path
     style="fill:#000000;fill-rule:evenodd;fill-opacity:1;stroke:none;"
     d="  M 167.48927,141.27378   L 166.4485,139.14976   L 173.41367,137.7471   z "
     id="path125" />
  <path
     style="fill:#000000;fill-rule:evenodd;fill-opacity:1;stroke:none;"
     d="  M 166.4485,139.14976   L 173.41367,137.7471   L 172.01263,135.82346   z "
     id="path126" />
  <path
     style="fill:#000000;fill-rule:evenodd;fill-opacity:1;stroke:none;"
     d="  M 173.41367,137.7471   L 172.01263,135.82346   L 178.57749,133.17845   z "
     id="path127" />
  <path
     style="fill:#000000;fill-rule:evenodd;fill-opacity:1;stroke:none;"
     d="  M 172.01263,135.82346   L 178.57749,133.17845   L 176.85622,131.53534   z "
     id="path128" />
  <path
     style="fill:#000000;fill-rule:evenodd;fill-opacity:1;stroke:none;"
     d="  M 128.58042,139.47036   L 127.41956,139.47036   L 128.58042,159.74875   z "
     id="path129" />
  <path
     style="fill:#000000;fill-rule:evenodd;fill-opacity:1;stroke:none;"
     d="  M 127.41956,139.47036   L 128.58042,159.74875   L 127.41956,159.74875   z "
     id="path130" />
  <path
     style="fill:#000000;fill-rule:evenodd;fill-opacity:1;stroke:none;"
     d="  M 128.58042,167.68377   L 127.41956,167.68377   L 128.58042,187.96216   z "
     id="path131" />
  <path
     style="fill:#000000;fill-rule:evenodd;fill-opacity:1;stroke:none;"
     d="  M 127.41956,167.68377   L 128.58042,187.96216   L 127.41956,187.96216   z "
     id="path132" />
  <path
     style="fill:#000000;fill-rule:evenodd;fill-opacity:1;stroke:none;"
     d="  M 128.58042,187.96216   L 127.41956,187.96216   L 127.41956,187.96216   z "
     id="path133" />
  <path
     style="fill:#000000;fill-rule:evenodd;fill-opacity:1;stroke:none;"
     d="  M 134.94514,139.43029   L 133.74425,139.43029   L 134.94514,159.74875   z "
     id="path134" />
  <path
     style="fill:#000000;fill-rule:evenodd;fill-opacity:1;stroke:none;"
     d="  M 133.74425,139.43029   L 134.94514,159.74875   L 133.74425,159.74875   z "
     id="path135" />
  <path
     style="fill:#000000;fill-rule:evenodd;fill-opacity:1;stroke:none;"
     d="  M 134.94514,167.68377   L 133.74425,167.68377   L 134.94514,187.96216   z "
     id="path136" />
  <path
     style="fill:#000000;fill-rule:evenodd;fill-opacity:1;stroke:none;"
     d="  M 133.74425,167.68377   L 134.94514,187.96216   L 133.74425,187.96216   z "
     id="path137" />
  <path
     style="fill:#000000;fill-rule:evenodd;fill-opacity:1;stroke:none;"
     d="  M 134.94514,187.96216   L 133.74425,187.96216   L 133.74425,187.96216   z "
     id="path138" />
  <path
     style="fill:#000000;fill-rule:evenodd;fill-opacity:1;stroke:none;"
     d="  M 163.4863,141.91499   L 162.28541,141.91499   L 163.4863,160.95103   z "
     id="path139" />
  <path
     style="fill:#000000;fill-rule:evenodd;fill-opacity:1;stroke:none;"
     d="  M 162.28541,141.91499   L 163.4863,160.95103   L 162.28541,160.95103   z "
     id="path140" />
  <path
     style="fill:#000000;fill-rule:evenodd;fill-opacity:1;stroke:none;"
     d="  M 163.4863,168.88605   L 162.28541,168.88605   L 163.4863,187.96216   z "
     id="path141" />
  <path
     style="fill:#000000;fill-rule:evenodd;fill-opacity:1;stroke:none;"
     d="  M 162.28541,168.88605   L 163.4863,187.96216   L 162.28541,187.96216   z "
     id="path142" />
  <path
     style="fill:#000000;fill-rule:evenodd;fill-opacity:1;stroke:none;"
     d="  M 163.4863,187.96216   L 162.28541,187.96216   L 162.28541,187.96216   z "
     id="path143" />
  <path
     style="fill:#000000;fill-rule:evenodd;fill-opacity:1;stroke:none;"
     d="  M 169.81099,139.43029   L 168.65013,139.43029   L 169.81099,159.74875   z "
     id="path144" />
  <path
     style="fill:#000000;fill-rule:evenodd;fill-opacity:1;stroke:none;"
     d="  M 168.65013,139.43029   L 169.81099,159.74875   L 168.65013,159.74875   z "
     id="path145" />
  <path
     style="fill:#000000;fill-rule:evenodd;fill-opacity:1;stroke:none;"
     d="  M 169.81099,167.68377   L 168.65013,167.68377   L 169.81099,187.96216   z "
     id="path146" />
  <path
     style="fill:#000000;fill-rule:evenodd;fill-opacity:1;stroke:none;"
     d="  M 168.65013,167.68377   L 169.81099,187.96216   L 168.65013,187.96216   z "
     id="path147" />
  <path
     style="fill:#000000;fill-rule:evenodd;fill-opacity:1;stroke:none;"
     d="  M 169.81099,187.96216   L 168.65013,187.96216   L 168.65013,187.96216   z "
     id="path148" />
  <path
     style="fill:none;stroke:#000000;stroke-width:0.96071231px;stroke-linecap:round;stroke-linejoin:round;stroke-miterlimit:4;stroke-dasharray:none;stroke-opacity:1;"
     d="  M 253.15279,195.89719   L 253.15279,132.37693  "
     id="path149" />
  <path
     style="fill:none;stroke:#000000;stroke-width:0.96071231px;stroke-linecap:round;stroke-linejoin:round;stroke-miterlimit:4;stroke-dasharray:none;stroke-opacity:1;"
     d="  M 249.18985,195.89719   L 249.18985,132.37693  "
     id="path150" />
  <path
     style="fill:none;stroke:#000000;stroke-width:0.96071231px;stroke-linecap:round;stroke-linejoin:round;stroke-miterlimit:4;stroke-dasharray:none;stroke-opacity:1;"
     d="  M 177.73687,152.21449   L 177.73687,223.74992  "
     id="path151" />
  <path
     style="fill:none;stroke:#000000;stroke-width:0.96071231px;stroke-linecap:round;stroke-linejoin:round;stroke-miterlimit:4;stroke-dasharray:none;stroke-opacity:1;"
     d="  M 249.18985,215.77482   L 249.18985,223.74992  "
     id="path152" />
  <path
     style="fill:none;stroke:#000000;stroke-width:0.96071231px;stroke-linecap:round;stroke-linejoin:round;stroke-miterlimit:4;stroke-dasharray:none;stroke-opacity:1;"
     d="  M 169.81099,215.81489   L 257.11573,215.81489  "
     id="path153" />
  <path
     style="fill:#000000;fill-rule:evenodd;fill-opacity:1;stroke:none;"
     d="  M 184.74207,211.60693   L 181.93999,208.80162   L 173.53375,222.82817   z "
     id="path154" />
  <path
     style="fill:#000000;fill-rule:evenodd;fill-opacity:1;stroke:none;"
     d="  M 181.93999,208.80162   L 173.53375,222.82817   L 170.73168,220.02286   z "
     id="path155" />
  <path
     style="fill:#000000;fill-rule:evenodd;fill-opacity:1;stroke:none;"
     d="  M 242.18466,220.02286   L 244.98673,222.82817   L 253.39297,208.80162   z "
     id="path156" />
  <path
     style="fill:#000000;fill-rule:evenodd;fill-opacity:1;stroke:none;"
     d="  M 244.98673,222.82817   L 253.39297,208.80162   L 256.19505,211.60693   z "
     id="path157" />
  <path
     style="fill:none;stroke:#000000;stroke-width:0.96071231px;stroke-linecap:round;stroke-linejoin:round;stroke-miterlimit:4;stroke-dasharray:none;stroke-opacity:1;"
     d="  M 179.6583,231.88532   L 192.98818,238.2173  "
     id="path158" />
  <path
     style="fill:none;stroke:#000000;stroke-width:0.96071231px;stroke-linecap:round;stroke-linejoin:round;stroke-miterlimit:4;stroke-dasharray:none;stroke-opacity:1;"
     d="  M 192.98818,238.2173   L 180.81916,244.74967  "
     id="path159" />
  <path
     style="fill:none;stroke:#000000;stroke-width:0.96071231px;stroke-linecap:round;stroke-linejoin:round;stroke-miterlimit:4;stroke-dasharray:none;stroke-opacity:1;"
     d="  M 192.98818,242.46535   L 180.81916,248.99771  "
     id="path160" />
  <path
     style="fill:none;stroke:#000000;stroke-width:0.96071231px;stroke-linecap:round;stroke-linejoin:round;stroke-miterlimit:4;stroke-dasharray:none;stroke-opacity:1;"
     d="  M 303.43007,74.427226   L 297.02532,87.251504   L 306.63244,87.251504  "
     id="path161" />
  <path
     style="fill:none;stroke:#000000;stroke-width:0.96071231px;stroke-linecap:round;stroke-linejoin:round;stroke-miterlimit:4;stroke-dasharray:none;stroke-opacity:1;"
     d="  M 303.43007,74.427226   L 303.43007,93.663643  "
     id="path162" />
  <path
     style="fill:none;stroke:#000000;stroke-width:0.96071231px;stroke-linecap:round;stroke-linejoin:round;stroke-miterlimit:4;stroke-dasharray:none;stroke-opacity:1;"
     d="  M 253.15279,159.02739   L 286.65763,98.5529  "
     id="path163" />
  <path
     style="fill:none;stroke:#000000;stroke-width:0.96071231px;stroke-linecap:round;stroke-linejoin:round;stroke-miterlimit:4;stroke-dasharray:none;stroke-opacity:1;"
     d="  M 286.65763,98.5529   L 310.43526,98.5529  "
     id="path164" />
  <path
     style="fill:none;stroke:#000000;stroke-width:0.96071231px;stroke-linecap:round;stroke-linejoin:round;stroke-miterlimit:4;stroke-dasharray:none;stroke-opacity:1;"
     d="  M 202.07492,229.84145   L 200.15349,230.76319   L 199.51302,232.60668   L 199.51302,234.45017   L 200.15349,236.25359   L 201.43444,237.17533   L 203.99634,238.09708   L 205.91777,239.01882   L 207.19872,240.86231   L 207.83919,242.66573   L 207.83919,245.43096   L 207.19872,247.27445   L 206.55824,248.1962   L 204.63682,249.11794   L 202.07492,249.11794   L 200.15349,248.1962   L 199.51302,247.27445   L 198.87254,245.43096   L 198.87254,242.66573   L 199.51302,240.86231   L 200.79397,239.01882   L 202.71539,238.09708   L 205.27729,237.17533   L 206.55824,236.25359   L 207.19872,234.45017   L 207.19872,232.60668   L 206.55824,230.76319   L 204.63682,229.84145   L 202.07492,229.84145   z "
     id="path165" />
  <path
     style="fill:none;stroke:#000000;stroke-width:0.96071231px;stroke-linecap:round;stroke-linejoin:round;stroke-miterlimit:4;stroke-dasharray:none;stroke-opacity:1;"
     d="  M 215.52489,229.84145   L 213.60347,230.76319   L 212.32252,233.52843   L 211.68204,238.09708   L 211.68204,240.86231   L 212.32252,245.43096   L 213.60347,248.1962   L 215.52489,249.11794   L 216.80584,249.11794   L 218.72726,248.1962   L 220.00821,245.43096   L 220.64869,240.86231   L 220.64869,238.09708   L 220.00821,233.52843   L 218.72726,230.76319   L 216.80584,229.84145   L 215.52489,229.84145   z "
     id="path166" />
  <path
     style="fill:none;stroke:#000000;stroke-width:0.96071231px;stroke-linecap:round;stroke-linejoin:round;stroke-miterlimit:4;stroke-dasharray:none;stroke-opacity:1;"
     d="  M 224.49154,249.11794   L 224.49154,236.25359  "
     id="path167" />
  <path
     style="fill:none;stroke:#000000;stroke-width:0.96071231px;stroke-linecap:round;stroke-linejoin:round;stroke-miterlimit:4;stroke-dasharray:none;stroke-opacity:1;"
     d="  M 224.49154,239.94057   L 226.41296,237.17533   L 227.69391,236.25359   L 229.61534,236.25359   L 230.89629,237.17533   L 231.53676,239.94057   L 231.53676,249.11794  "
     id="path168" />
  <path
     style="fill:none;stroke:#000000;stroke-width:0.96071231px;stroke-linecap:round;stroke-linejoin:round;stroke-miterlimit:4;stroke-dasharray:none;stroke-opacity:1;"
     d="  M 231.53676,239.94057   L 233.45819,237.17533   L 234.73914,236.25359   L 236.66056,236.25359   L 237.94151,237.17533   L 238.58199,239.94057   L 238.58199,249.11794  "
     id="path169" />
  <path
     style="fill:none;stroke:#000000;stroke-width:0.96071231px;stroke-linecap:round;stroke-linejoin:round;stroke-miterlimit:4;stroke-dasharray:none;stroke-opacity:1;"
     d="  M 243.70578,249.11794   L 243.70578,236.25359  "
     id="path170" />
  <path
     style="fill:none;stroke:#000000;stroke-width:0.96071231px;stroke-linecap:round;stroke-linejoin:round;stroke-miterlimit:4;stroke-dasharray:none;stroke-opacity:1;"
     d="  M 243.70578,239.94057   L 245.62721,237.17533   L 246.90816,236.25359   L 248.82958,236.25359   L 250.11053,237.17533   L 250.75101,239.94057   L 250.75101,249.11794  "
     id="path171" />
  <path
     style="fill:none;stroke:#000000;stroke-width:0.96071231px;stroke-linecap:round;stroke-linejoin:round;stroke-miterlimit:4;stroke-dasharray:none;stroke-opacity:1;"
     d="  M 250.75101,239.94057   L 252.67243,237.17533   L 253.95338,236.25359   L 255.87481,236.25359   L 257.15576,237.17533   L 257.79623,239.94057   L 257.79623,249.11794  "
     id="path172" />
  <path
     style="fill:#000000;fill-rule:evenodd;fill-opacity:1;stroke:none;"
     d="  M 134.82505,140.91309   L 134.82505,139.71082   L 121.9355,140.91309   z "
     id="path173" />
  <path
     style="fill:#000000;fill-rule:evenodd;fill-opacity:1;stroke:none;"
     d="  M 134.82505,139.71082   L 121.9355,140.91309   L 121.9355,139.71082   z "
     id="path174" />
  <path
     style="fill:#000000;fill-rule:evenodd;fill-opacity:1;stroke:none;"
     d="  M 114.00962,140.91309   L 114.00962,139.71082   L 94.194928,140.91309   z "
     id="path175" />
  <path
     style="fill:#000000;fill-rule:evenodd;fill-opacity:1;stroke:none;"
     d="  M 114.00962,139.71082   L 94.194928,140.91309   L 94.194928,139.71082   z "
     id="path176" />
  <path
     style="fill:#000000;fill-rule:evenodd;fill-opacity:1;stroke:none;"
     d="  M 86.269051,140.91309   L 86.269051,139.71082   L 66.454359,140.91309   z "
     id="path177" />
  <path
     style="fill:#000000;fill-rule:evenodd;fill-opacity:1;stroke:none;"
     d="  M 86.269051,139.71082   L 66.454359,140.91309   L 66.454359,139.71082   z "
     id="path178" />
  <path
     style="fill:#000000;fill-rule:evenodd;fill-opacity:1;stroke:none;"
     d="  M 58.528483,140.91309   L 58.528483,139.71082   L 38.713791,140.91309   z "
     id="path179" />
  <path
     style="fill:#000000;fill-rule:evenodd;fill-opacity:1;stroke:none;"
     d="  M 58.528483,139.71082   L 38.713791,140.91309   L 38.713791,139.71082   z "
     id="path180" />
  <path
     style="fill:#000000;fill-rule:evenodd;fill-opacity:1;stroke:none;"
     d="  M 30.787914,140.91309   L 30.787914,139.71082   L 17.858327,140.91309   z "
     id="path181" />
  <path
     style="fill:#000000;fill-rule:evenodd;fill-opacity:1;stroke:none;"
     d="  M 30.787914,139.71082   L 17.858327,140.91309   L 17.858327,139.71082   z "
     id="path182" />
  <path
     style="fill:#000000;fill-rule:evenodd;fill-opacity:1;stroke:none;"
     d="  M 17.858327,140.91309   L 17.858327,139.71082   L 17.858327,139.71082   z "
     id="path183" />
</svg>
