<?xml version="1.0" encoding="UTF-8" standalone="no"?>
<svg
   version="1.0"
   width="92.599998mm"
   height="75.940002mm"
   id="svg71"
   sodipodi:docname="image767.emf"
   xmlns:inkscape="http://www.inkscape.org/namespaces/inkscape"
   xmlns:sodipodi="http://sodipodi.sourceforge.net/DTD/sodipodi-0.dtd"
   xmlns="http://www.w3.org/2000/svg"
   xmlns:svg="http://www.w3.org/2000/svg">
  <sodipodi:namedview
     id="namedview71"
     pagecolor="#ffffff"
     bordercolor="#000000"
     borderopacity="0.25"
     inkscape:showpageshadow="2"
     inkscape:pageopacity="0.0"
     inkscape:pagecheckerboard="0"
     inkscape:deskcolor="#d1d1d1"
     inkscape:document-units="mm" />
  <defs
     id="defs1">
    <pattern
       id="EMFhbasepattern"
       patternUnits="userSpaceOnUse"
       width="6"
       height="6"
       x="0"
       y="0" />
  </defs>
  <path
     style="fill:none;stroke:#000000;stroke-width:0.038520571px;stroke-linecap:round;stroke-linejoin:round;stroke-miterlimit:4;stroke-dasharray:none;stroke-opacity:1;"
     d="  M 64.148353,62.534074   L 328.74616,62.534074  "
     id="path1" />
  <path
     style="fill:none;stroke:#000000;stroke-width:0.038520571px;stroke-linecap:round;stroke-linejoin:round;stroke-miterlimit:4;stroke-dasharray:none;stroke-opacity:1;"
     d="  M 144.30966,260.953   L 328.74616,260.953  "
     id="path2" />
  <path
     style="fill:none;stroke:#000000;stroke-width:0.038520571px;stroke-linecap:round;stroke-linejoin:round;stroke-miterlimit:4;stroke-dasharray:none;stroke-opacity:1;"
     d="  M 80.018829,62.534074   L 80.018829,202.07681  "
     id="path3" />
  <path
     style="fill:none;stroke:#000000;stroke-width:0.038520571px;stroke-linecap:round;stroke-linejoin:round;stroke-miterlimit:4;stroke-dasharray:none;stroke-opacity:1;"
     d="  M 328.74616,56.423555   L 64.148353,56.423555  "
     id="path4" />
  <path
     style="fill:none;stroke:#000000;stroke-width:0.038520571px;stroke-linecap:round;stroke-linejoin:round;stroke-miterlimit:4;stroke-dasharray:none;stroke-opacity:1;"
     d="  M 64.148353,56.423555   L 64.148353,208.22576  "
     id="path5" />
  <path
     style="fill:none;stroke:#000000;stroke-width:0.038520571px;stroke-linecap:round;stroke-linejoin:round;stroke-miterlimit:4;stroke-dasharray:none;stroke-opacity:1;"
     d="  M 144.30966,267.10195   L 328.74616,267.10195  "
     id="path6" />
  <path
     style="fill:none;stroke:#000000;stroke-width:0.038520571px;stroke-linecap:round;stroke-linejoin:round;stroke-miterlimit:4;stroke-dasharray:none;stroke-opacity:1;"
     d="  M 249.43231,208.22576   L 64.148353,208.22576  "
     id="path7" />
  <path
     style="fill:none;stroke:#000000;stroke-width:0.038520571px;stroke-linecap:round;stroke-linejoin:round;stroke-miterlimit:4;stroke-dasharray:none;stroke-opacity:1;"
     d="  M 328.74616,40.474716   L 328.74616,150.07975  "
     id="path8" />
  <path
     style="fill:none;stroke:#000000;stroke-width:0.038520571px;stroke-linecap:round;stroke-linejoin:round;stroke-miterlimit:4;stroke-dasharray:none;stroke-opacity:1;"
     d="  M 328.74616,150.07975   L 346.77379,155.80596  "
     id="path9" />
  <path
     style="fill:none;stroke:#000000;stroke-width:0.038520571px;stroke-linecap:round;stroke-linejoin:round;stroke-miterlimit:4;stroke-dasharray:none;stroke-opacity:1;"
     d="  M 346.77379,155.80596   L 310.71854,165.64428  "
     id="path10" />
  <path
     style="fill:none;stroke:#000000;stroke-width:0.038520571px;stroke-linecap:round;stroke-linejoin:round;stroke-miterlimit:4;stroke-dasharray:none;stroke-opacity:1;"
     d="  M 310.71854,165.64428   L 328.74616,171.37049  "
     id="path11" />
  <path
     style="fill:none;stroke:#000000;stroke-width:0.038520571px;stroke-linecap:round;stroke-linejoin:round;stroke-miterlimit:4;stroke-dasharray:none;stroke-opacity:1;"
     d="  M 328.74616,171.37049   L 328.74616,283.05079  "
     id="path12" />
  <path
     style="fill:none;stroke:#000000;stroke-width:0.038520571px;stroke-linecap:round;stroke-linejoin:round;stroke-miterlimit:4;stroke-dasharray:none;stroke-opacity:1;"
     d="  M 69.233068,208.22576   L 94.001796,208.22576  "
     id="path13" />
  <path
     style="fill:none;stroke:#000000;stroke-width:0.038520571px;stroke-linecap:round;stroke-linejoin:round;stroke-miterlimit:4;stroke-dasharray:none;stroke-opacity:1;"
     d="  M 96.544154,215.71979   L 69.233068,215.71979  "
     id="path14" />
  <path
     style="fill:none;stroke:#000000;stroke-width:0.038520571px;stroke-linecap:round;stroke-linejoin:round;stroke-miterlimit:4;stroke-dasharray:none;stroke-opacity:1;"
     d="  M 69.233068,215.71979   L 69.233068,208.22576  "
     id="path15" />
  <path
     style="fill:none;stroke:#000000;stroke-width:0.038520571px;stroke-linecap:round;stroke-linejoin:round;stroke-miterlimit:4;stroke-dasharray:none;stroke-opacity:1;"
     d="  M 153.1694,208.22576   L 153.1694,260.953  "
     id="path16" />
  <path
     style="fill:none;stroke:#000000;stroke-width:0.038520571px;stroke-linecap:round;stroke-linejoin:round;stroke-miterlimit:4;stroke-dasharray:none;stroke-opacity:1;"
     d="  M 147.31427,208.22576   L 147.31427,260.953  "
     id="path17" />
  <path
     style="fill:none;stroke:#000000;stroke-width:0.038520571px;stroke-linecap:round;stroke-linejoin:round;stroke-miterlimit:4;stroke-dasharray:none;stroke-opacity:1;"
     d="  M 249.43231,202.07681   L 249.43231,208.22576  "
     id="path18" />
  <path
     style="fill:none;stroke:#000000;stroke-width:0.038520571px;stroke-linecap:round;stroke-linejoin:round;stroke-miterlimit:4;stroke-dasharray:none;stroke-opacity:1;"
     d="  M 249.43231,202.07681   L 64.148353,202.07681  "
     id="path19" />
  <path
     style="fill:none;stroke:#000000;stroke-width:0.038520571px;stroke-linecap:round;stroke-linejoin:round;stroke-miterlimit:4;stroke-dasharray:none;stroke-opacity:1;"
     d="  M 144.30966,260.953   L 144.30966,267.10195  "
     id="path20" />
  <path
     style="fill:none;stroke:#000000;stroke-width:0.038520571px;stroke-linecap:round;stroke-linejoin:round;stroke-miterlimit:4;stroke-dasharray:none;stroke-opacity:1;"
     d="  M 85.873956,62.534074   L 85.873956,202.07681  "
     id="path21" />
  <path
     style="fill:none;stroke:#000000;stroke-width:0.038520571px;stroke-linecap:round;stroke-linejoin:round;stroke-miterlimit:4;stroke-dasharray:none;stroke-opacity:1;"
     d="  M 96.544154,215.71979   L 96.544154,208.22576  "
     id="path22" />
  <path
     style="fill:none;stroke:#000000;stroke-width:0.038520571px;stroke-linecap:round;stroke-linejoin:round;stroke-miterlimit:4;stroke-dasharray:none;stroke-opacity:1;"
     d="  M 57.985061,56.423555   L 19.117804,56.423555  "
     id="path23" />
  <path
     style="fill:none;stroke:#000000;stroke-width:0.038520571px;stroke-linecap:round;stroke-linejoin:round;stroke-miterlimit:4;stroke-dasharray:none;stroke-opacity:1;"
     d="  M 57.985061,208.22576   L 19.117804,208.22576  "
     id="path24" />
  <path
     style="fill:none;stroke:#000000;stroke-width:0.038520571px;stroke-linecap:round;stroke-linejoin:round;stroke-miterlimit:4;stroke-dasharray:none;stroke-opacity:1;"
     d="  M 22.19945,56.423555   L 22.19945,208.22576  "
     id="path25" />
  <path
     style="fill:#000000;fill-rule:evenodd;fill-opacity:1;stroke:none;"
     d="  M 24.395122,60.036063   L 25.820383,58.575687   L 18.578516,54.232991   z "
     id="path26" />
  <path
     style="fill:#000000;fill-rule:evenodd;fill-opacity:1;stroke:none;"
     d="  M 25.820383,58.575687   L 18.578516,54.232991   L 20.042298,52.811047   z "
     id="path27" />
  <path
     style="fill:#000000;fill-rule:evenodd;fill-opacity:1;stroke:none;"
     d="  M 20.042298,204.61325   L 18.578516,206.03519   L 25.820383,210.37789   z "
     id="path28" />
  <path
     style="fill:#000000;fill-rule:evenodd;fill-opacity:1;stroke:none;"
     d="  M 18.578516,206.03519   L 25.820383,210.37789   L 24.395122,211.83826   z "
     id="path29" />
  <path
     style="fill:none;stroke:#000000;stroke-width:0.038520571px;stroke-linecap:round;stroke-linejoin:round;stroke-miterlimit:4;stroke-dasharray:none;stroke-opacity:1;"
     d="  M 57.985061,208.22576   L 19.117804,208.22576  "
     id="path30" />
  <path
     style="fill:none;stroke:#000000;stroke-width:0.038520571px;stroke-linecap:round;stroke-linejoin:round;stroke-miterlimit:4;stroke-dasharray:none;stroke-opacity:1;"
     d="  M 138.18489,267.10195   L 19.117804,267.10195  "
     id="path31" />
  <path
     style="fill:none;stroke:#000000;stroke-width:0.038520571px;stroke-linecap:round;stroke-linejoin:round;stroke-miterlimit:4;stroke-dasharray:none;stroke-opacity:1;"
     d="  M 22.19945,208.22576   L 22.19945,267.10195  "
     id="path32" />
  <path
     style="fill:#000000;fill-rule:evenodd;fill-opacity:1;stroke:none;"
     d="  M 24.395122,211.83826   L 25.820383,210.37789   L 18.578516,206.03519   z "
     id="path33" />
  <path
     style="fill:#000000;fill-rule:evenodd;fill-opacity:1;stroke:none;"
     d="  M 25.820383,210.37789   L 18.578516,206.03519   L 20.042298,204.61325   z "
     id="path34" />
  <path
     style="fill:#000000;fill-rule:evenodd;fill-opacity:1;stroke:none;"
     d="  M 20.042298,263.48944   L 18.578516,264.91139   L 25.820383,269.25409   z "
     id="path35" />
  <path
     style="fill:#000000;fill-rule:evenodd;fill-opacity:1;stroke:none;"
     d="  M 18.578516,264.91139   L 25.820383,269.25409   L 24.395122,270.71446   z "
     id="path36" />
  <path
     style="fill:none;stroke:#000000;stroke-width:0.038520571px;stroke-linecap:round;stroke-linejoin:round;stroke-miterlimit:4;stroke-dasharray:none;stroke-opacity:1;"
     d="  M 3.7095749,228.55572   L -0.25804406,243.39006   L 0.24272338,243.39006  "
     id="path37" />
  <path
     style="fill:none;stroke:#000000;stroke-width:0.038520571px;stroke-linecap:round;stroke-linejoin:round;stroke-miterlimit:4;stroke-dasharray:none;stroke-opacity:1;"
     d="  M 3.7095749,228.55572   L 4.2103423,228.55572   L 0.24272338,243.39006  "
     id="path38" />
  <path
     style="fill:none;stroke:#000000;stroke-width:0.038520571px;stroke-linecap:round;stroke-linejoin:round;stroke-miterlimit:4;stroke-dasharray:none;stroke-opacity:1;"
     d="  M 2.1302314,236.31877   L 4.2103423,234.20507   L 5.3659595,233.47488   L 6.8682618,233.47488   L 7.6771938,234.20507   L 7.6001527,236.31877   L 5.6741241,243.39006  "
     id="path39" />
  <path
     style="fill:none;stroke:#000000;stroke-width:0.038520571px;stroke-linecap:round;stroke-linejoin:round;stroke-miterlimit:4;stroke-dasharray:none;stroke-opacity:1;"
     d="  M 2.1302314,236.31877   L 4.0177395,234.89683   L 5.1733566,234.20507   L 6.1748915,234.20507   L 6.9838235,234.89683   L 7.0993853,236.31877   L 5.2118772,243.39006   L 5.6741241,243.39006  "
     id="path40" />
  <path
     style="fill:none;stroke:#000000;stroke-width:0.038520571px;stroke-linecap:round;stroke-linejoin:round;stroke-miterlimit:4;stroke-dasharray:none;stroke-opacity:1;"
     d="  M 10.527716,237.62542   L 11.028484,237.27955   L 11.760375,236.20348   L 11.760375,243.65908  "
     id="path41" />
  <path
     style="fill:none;stroke:#000000;stroke-width:0.038520571px;stroke-linecap:round;stroke-linejoin:round;stroke-miterlimit:4;stroke-dasharray:none;stroke-opacity:1;"
     d="  M 10.527716,237.62542   L 10.527716,237.9713   L 11.028484,237.62542   L 11.529251,236.93367   L 11.529251,243.65908   L 11.760375,243.65908  "
     id="path42" />
  <path
     style="fill:none;stroke:#000000;stroke-width:0.038520571px;stroke-linecap:round;stroke-linejoin:round;stroke-miterlimit:4;stroke-dasharray:none;stroke-opacity:1;"
     d="  M 4.2873835,124.10044   L 0.31976452,138.97321   L 0.78201139,138.97321  "
     id="path43" />
  <path
     style="fill:none;stroke:#000000;stroke-width:0.038520571px;stroke-linecap:round;stroke-linejoin:round;stroke-miterlimit:4;stroke-dasharray:none;stroke-opacity:1;"
     d="  M 4.2873835,124.10044   L 4.7881509,124.10044   L 0.78201139,138.97321  "
     id="path44" />
  <path
     style="fill:none;stroke:#000000;stroke-width:0.038520571px;stroke-linecap:round;stroke-linejoin:round;stroke-miterlimit:4;stroke-dasharray:none;stroke-opacity:1;"
     d="  M 2.70804,131.90192   L 4.7496303,129.74978   L 5.9437681,129.05803   L 7.4460704,129.05803   L 8.2164819,129.74978   L 8.1779613,131.90192   L 6.2519327,138.97321  "
     id="path45" />
  <path
     style="fill:none;stroke:#000000;stroke-width:0.038520571px;stroke-linecap:round;stroke-linejoin:round;stroke-miterlimit:4;stroke-dasharray:none;stroke-opacity:1;"
     d="  M 2.70804,131.90192   L 4.5570275,130.47997   L 5.7511652,129.74978   L 6.7527001,129.74978   L 7.5616321,130.47997   L 7.6771938,131.90192   L 5.7511652,138.97321   L 6.2519327,138.97321  "
     id="path46" />
  <path
     style="fill:none;stroke:#000000;stroke-width:0.038520571px;stroke-linecap:round;stroke-linejoin:round;stroke-miterlimit:4;stroke-dasharray:none;stroke-opacity:1;"
     d="  M 10.604757,133.55445   L 10.604757,133.20857   L 10.835881,132.47838   L 11.105525,132.1325   L 11.567772,131.78662   L 12.569307,131.78662   L 13.070074,132.1325   L 13.339718,132.47838   L 13.570841,133.20857   L 13.570841,133.90032   L 13.339718,134.63051   L 12.838951,135.66815   L 10.604757,139.20379  "
     id="path47" />
  <path
     style="fill:none;stroke:#000000;stroke-width:0.038520571px;stroke-linecap:round;stroke-linejoin:round;stroke-miterlimit:4;stroke-dasharray:none;stroke-opacity:1;"
     d="  M 10.604757,133.55445   L 10.835881,133.55445   L 10.835881,133.20857   L 11.105525,132.47838   L 11.567772,132.1325   L 12.569307,132.1325   L 13.070074,132.47838   L 13.339718,133.20857   L 13.339718,133.90032   L 13.070074,134.63051   L 12.569307,135.66815   L 10.335113,139.20379  "
     id="path48" />
  <path
     style="fill:none;stroke:#000000;stroke-width:0.038520571px;stroke-linecap:round;stroke-linejoin:round;stroke-miterlimit:4;stroke-dasharray:none;stroke-opacity:1;"
     d="  M 10.604757,138.85792   L 13.801965,138.85792   L 13.801965,139.20379   L 10.335113,139.20379  "
     id="path49" />
  <path
     style="fill:none;stroke:#000000;stroke-width:0.038520571px;stroke-linecap:round;stroke-linejoin:round;stroke-miterlimit:4;stroke-dasharray:none;stroke-opacity:1;"
     d="  M 85.873956,50.274605   L 85.873956,16.916551  "
     id="path50" />
  <path
     style="fill:none;stroke:#000000;stroke-width:0.038520571px;stroke-linecap:round;stroke-linejoin:round;stroke-miterlimit:4;stroke-dasharray:none;stroke-opacity:1;"
     d="  M 147.31427,50.274605   L 147.31427,16.916551  "
     id="path51" />
  <path
     style="fill:none;stroke:#000000;stroke-width:0.038520571px;stroke-linecap:round;stroke-linejoin:round;stroke-miterlimit:4;stroke-dasharray:none;stroke-opacity:1;"
     d="  M 85.873956,19.991026   L 147.31427,19.991026  "
     id="path52" />
  <path
     style="fill:#000000;fill-rule:evenodd;fill-opacity:1;stroke:none;"
     d="  M 89.494889,17.838894   L 88.031108,16.378518   L 83.678283,23.603534   z "
     id="path53" />
  <path
     style="fill:#000000;fill-rule:evenodd;fill-opacity:1;stroke:none;"
     d="  M 88.031108,16.378518   L 83.678283,23.603534   L 82.214501,22.143159   z "
     id="path54" />
  <path
     style="fill:#000000;fill-rule:evenodd;fill-opacity:1;stroke:none;"
     d="  M 143.69333,22.143159   L 145.15712,23.603534   L 149.50994,16.378518   z "
     id="path55" />
  <path
     style="fill:#000000;fill-rule:evenodd;fill-opacity:1;stroke:none;"
     d="  M 145.15712,23.603534   L 149.50994,16.378518   L 150.97372,17.838894   z "
     id="path56" />
  <path
     style="fill:none;stroke:#000000;stroke-width:0.038520571px;stroke-linecap:round;stroke-linejoin:round;stroke-miterlimit:4;stroke-dasharray:none;stroke-opacity:1;"
     d="  M 120.85064,4.6955133   L 118.19272,14.610695   L 118.69348,14.610695  "
     id="path57" />
  <path
     style="fill:none;stroke:#000000;stroke-width:0.038520571px;stroke-linecap:round;stroke-linejoin:round;stroke-miterlimit:4;stroke-dasharray:none;stroke-opacity:1;"
     d="  M 120.85064,4.6955133   L 121.3514,4.6955133   L 118.69348,14.610695  "
     id="path58" />
  <path
     style="fill:none;stroke:#000000;stroke-width:0.038520571px;stroke-linecap:round;stroke-linejoin:round;stroke-miterlimit:4;stroke-dasharray:none;stroke-opacity:1;"
     d="  M 120.27283,6.8476457   L 119.6565,5.4257011   L 118.88609,4.6955133   L 117.38378,4.6955133   L 116.18965,5.4257011   L 114.80291,6.8476457   L 113.76285,8.9613473   L 113.37764,10.383292   L 113.3006,12.496994   L 113.91693,13.918938   L 114.72586,14.610695   L 116.18965,14.610695   L 117.38378,13.918938   L 118.77052,12.496994  "
     id="path59" />
  <path
     style="fill:none;stroke:#000000;stroke-width:0.038520571px;stroke-linecap:round;stroke-linejoin:round;stroke-miterlimit:4;stroke-dasharray:none;stroke-opacity:1;"
     d="  M 120.27283,6.8476457   L 118.69348,5.4257011   L 117.19118,5.4257011   L 115.99704,6.1174579   L 115.30367,6.8476457   L 114.26362,8.9613473   L 113.87841,10.383292   L 113.80137,12.496994   L 114.10954,13.18875   L 114.91847,13.918938   L 116.38225,13.918938   L 118.77052,12.496994  "
     id="path60" />
  <path
     style="fill:none;stroke:#000000;stroke-width:0.038520571px;stroke-linecap:round;stroke-linejoin:round;stroke-miterlimit:4;stroke-dasharray:none;stroke-opacity:1;"
     d="  M 249.43231,50.274605   L 249.43231,16.916551  "
     id="path61" />
  <path
     style="fill:none;stroke:#000000;stroke-width:0.038520571px;stroke-linecap:round;stroke-linejoin:round;stroke-miterlimit:4;stroke-dasharray:none;stroke-opacity:1;"
     d="  M 147.31427,50.274605   L 147.31427,16.916551  "
     id="path62" />
  <path
     style="fill:none;stroke:#000000;stroke-width:0.038520571px;stroke-linecap:round;stroke-linejoin:round;stroke-miterlimit:4;stroke-dasharray:none;stroke-opacity:1;"
     d="  M 249.43231,19.991026   L 147.31427,19.991026  "
     id="path63" />
  <path
     style="fill:#000000;fill-rule:evenodd;fill-opacity:1;stroke:none;"
     d="  M 245.81137,22.143159   L 247.23663,23.603534   L 251.58946,16.378518   z "
     id="path64" />
  <path
     style="fill:#000000;fill-rule:evenodd;fill-opacity:1;stroke:none;"
     d="  M 247.23663,23.603534   L 251.58946,16.378518   L 253.05324,17.838894   z "
     id="path65" />
  <path
     style="fill:#000000;fill-rule:evenodd;fill-opacity:1;stroke:none;"
     d="  M 150.97372,17.838894   L 149.50994,16.378518   L 145.15712,23.603534   z "
     id="path66" />
  <path
     style="fill:#000000;fill-rule:evenodd;fill-opacity:1;stroke:none;"
     d="  M 149.50994,16.378518   L 145.15712,23.603534   L 143.69333,22.143159   z "
     id="path67" />
  <path
     style="fill:none;stroke:#000000;stroke-width:0.038520571px;stroke-linecap:round;stroke-linejoin:round;stroke-miterlimit:4;stroke-dasharray:none;stroke-opacity:1;"
     d="  M 198.31551,-0.26207764   L 194.30937,14.610695   L 194.81013,14.610695  "
     id="path68" />
  <path
     style="fill:none;stroke:#000000;stroke-width:0.038520571px;stroke-linecap:round;stroke-linejoin:round;stroke-miterlimit:4;stroke-dasharray:none;stroke-opacity:1;"
     d="  M 198.31551,-0.26207764   L 198.77775,-0.26207764   L 194.81013,14.610695  "
     id="path69" />
  <path
     style="fill:none;stroke:#000000;stroke-width:0.038520571px;stroke-linecap:round;stroke-linejoin:round;stroke-miterlimit:4;stroke-dasharray:none;stroke-opacity:1;"
     d="  M 196.89025,6.8476457   L 198.27699,5.4257011   L 199.4326,4.6955133   L 200.93491,4.6955133   L 201.74384,5.4257011   L 202.36017,6.8476457   L 202.28313,8.9613473   L 201.89792,10.383292   L 200.81934,12.496994   L 199.47112,13.918938   L 198.27699,14.610695   L 196.77468,14.610695   L 195.96575,13.918938   L 195.38794,12.496994  "
     id="path70" />
  <path
     style="fill:none;stroke:#000000;stroke-width:0.038520571px;stroke-linecap:round;stroke-linejoin:round;stroke-miterlimit:4;stroke-dasharray:none;stroke-opacity:1;"
     d="  M 196.89025,6.8476457   L 199.24,5.4257011   L 200.7423,5.4257011   L 201.55123,6.1174579   L 201.8594,6.8476457   L 201.78236,8.9613473   L 201.39715,10.383292   L 200.31858,12.496994   L 199.66373,13.18875   L 198.46959,13.918938   L 196.96729,13.918938   L 195.38794,12.496994  "
     id="path71" />
</svg>
