<?xml version="1.0" encoding="UTF-8" standalone="no"?>
<svg
   version="1.0"
   width="72.779999mm"
   height="63.990002mm"
   id="svg138"
   sodipodi:docname="image268.emf"
   xmlns:inkscape="http://www.inkscape.org/namespaces/inkscape"
   xmlns:sodipodi="http://sodipodi.sourceforge.net/DTD/sodipodi-0.dtd"
   xmlns="http://www.w3.org/2000/svg"
   xmlns:svg="http://www.w3.org/2000/svg">
  <sodipodi:namedview
     id="namedview138"
     pagecolor="#ffffff"
     bordercolor="#000000"
     borderopacity="0.25"
     inkscape:showpageshadow="2"
     inkscape:pageopacity="0.0"
     inkscape:pagecheckerboard="0"
     inkscape:deskcolor="#d1d1d1"
     inkscape:document-units="mm" />
  <defs
     id="defs1">
    <pattern
       id="EMFhbasepattern"
       patternUnits="userSpaceOnUse"
       width="6"
       height="6"
       x="0"
       y="0" />
  </defs>
  <path
     style="fill:#000000;fill-rule:evenodd;fill-opacity:1;stroke:none;"
     d="  M 258.76717,110.19238   L 258.76717,108.27052   L 35.890223,110.19238   z "
     id="path1" />
  <path
     style="fill:#000000;fill-rule:evenodd;fill-opacity:1;stroke:none;"
     d="  M 258.76717,108.27052   L 35.890223,110.19238   L 35.890223,108.27052   z "
     id="path2" />
  <path
     style="fill:#000000;fill-rule:evenodd;fill-opacity:1;stroke:none;"
     d="  M 258.76717,116.15818   L 258.76717,115.19724   L 240.90498,116.15818   z "
     id="path3" />
  <path
     style="fill:#000000;fill-rule:evenodd;fill-opacity:1;stroke:none;"
     d="  M 258.76717,115.19724   L 240.90498,116.15818   L 240.90498,115.19724   z "
     id="path4" />
  <path
     style="fill:#000000;fill-rule:evenodd;fill-opacity:1;stroke:none;"
     d="  M 234.45696,116.15818   L 234.45696,115.19724   L 218.31691,116.15818   z "
     id="path5" />
  <path
     style="fill:#000000;fill-rule:evenodd;fill-opacity:1;stroke:none;"
     d="  M 234.45696,115.19724   L 218.31691,116.15818   L 218.31691,115.19724   z "
     id="path6" />
  <path
     style="fill:#000000;fill-rule:evenodd;fill-opacity:1;stroke:none;"
     d="  M 211.8689,116.15818   L 211.8689,115.19724   L 195.72884,116.15818   z "
     id="path7" />
  <path
     style="fill:#000000;fill-rule:evenodd;fill-opacity:1;stroke:none;"
     d="  M 211.8689,115.19724   L 195.72884,116.15818   L 195.72884,115.19724   z "
     id="path8" />
  <path
     style="fill:#000000;fill-rule:evenodd;fill-opacity:1;stroke:none;"
     d="  M 189.28083,116.15818   L 189.28083,115.19724   L 173.14077,116.15818   z "
     id="path9" />
  <path
     style="fill:#000000;fill-rule:evenodd;fill-opacity:1;stroke:none;"
     d="  M 189.28083,115.19724   L 173.14077,116.15818   L 173.14077,115.19724   z "
     id="path10" />
  <path
     style="fill:#000000;fill-rule:evenodd;fill-opacity:1;stroke:none;"
     d="  M 166.69276,116.15818   L 166.69276,115.19724   L 150.5527,116.15818   z "
     id="path11" />
  <path
     style="fill:#000000;fill-rule:evenodd;fill-opacity:1;stroke:none;"
     d="  M 166.69276,115.19724   L 150.5527,116.15818   L 150.5527,115.19724   z "
     id="path12" />
  <path
     style="fill:#000000;fill-rule:evenodd;fill-opacity:1;stroke:none;"
     d="  M 144.10469,116.15818   L 144.10469,115.19724   L 127.96464,116.15818   z "
     id="path13" />
  <path
     style="fill:#000000;fill-rule:evenodd;fill-opacity:1;stroke:none;"
     d="  M 144.10469,115.19724   L 127.96464,116.15818   L 127.96464,115.19724   z "
     id="path14" />
  <path
     style="fill:#000000;fill-rule:evenodd;fill-opacity:1;stroke:none;"
     d="  M 121.51662,116.15818   L 121.51662,115.19724   L 105.41662,116.15818   z "
     id="path15" />
  <path
     style="fill:#000000;fill-rule:evenodd;fill-opacity:1;stroke:none;"
     d="  M 121.51662,115.19724   L 105.41662,116.15818   L 105.41662,115.19724   z "
     id="path16" />
  <path
     style="fill:#000000;fill-rule:evenodd;fill-opacity:1;stroke:none;"
     d="  M 98.928555,116.15818   L 98.928555,115.19724   L 82.828549,116.15818   z "
     id="path17" />
  <path
     style="fill:#000000;fill-rule:evenodd;fill-opacity:1;stroke:none;"
     d="  M 98.928555,115.19724   L 82.828549,116.15818   L 82.828549,115.19724   z "
     id="path18" />
  <path
     style="fill:#000000;fill-rule:evenodd;fill-opacity:1;stroke:none;"
     d="  M 76.380536,116.15818   L 76.380536,115.19724   L 60.24048,116.15818   z "
     id="path19" />
  <path
     style="fill:#000000;fill-rule:evenodd;fill-opacity:1;stroke:none;"
     d="  M 76.380536,115.19724   L 60.24048,116.15818   L 60.24048,115.19724   z "
     id="path20" />
  <path
     style="fill:#000000;fill-rule:evenodd;fill-opacity:1;stroke:none;"
     d="  M 53.792468,116.15818   L 53.792468,115.19724   L 35.890223,116.15818   z "
     id="path21" />
  <path
     style="fill:#000000;fill-rule:evenodd;fill-opacity:1;stroke:none;"
     d="  M 53.792468,115.19724   L 35.890223,116.15818   L 35.890223,115.19724   z "
     id="path22" />
  <path
     style="fill:#000000;fill-rule:evenodd;fill-opacity:1;stroke:none;"
     d="  M 35.890223,116.15818   L 35.890223,115.19724   L 35.890223,115.19724   z "
     id="path23" />
  <path
     style="fill:none;stroke:#000000;stroke-width:0.9611944px;stroke-linecap:round;stroke-linejoin:round;stroke-miterlimit:4;stroke-dasharray:none;stroke-opacity:1;"
     d="  M 258.76717,135.05654   L 170.01689,135.05654  "
     id="path24" />
  <path
     style="fill:none;stroke:#000000;stroke-width:0.9611944px;stroke-linecap:round;stroke-linejoin:round;stroke-miterlimit:4;stroke-dasharray:none;stroke-opacity:1;"
     d="  M 153.91688,135.05654   L 137.77683,135.05654  "
     id="path25" />
  <path
     style="fill:none;stroke:#000000;stroke-width:0.9611944px;stroke-linecap:round;stroke-linejoin:round;stroke-miterlimit:4;stroke-dasharray:none;stroke-opacity:1;"
     d="  M 121.63677,135.05654   L 32.92654,135.05654  "
     id="path26" />
  <path
     style="fill:none;stroke:#000000;stroke-width:0.9611944px;stroke-linecap:round;stroke-linejoin:round;stroke-miterlimit:4;stroke-dasharray:none;stroke-opacity:1;"
     d="  M 258.76717,91.173906   L 258.76717,126.64837   L 272.94479,131.17276   L 244.58955,138.94031   L 258.76717,143.46471   L 258.76717,175.73606  "
     id="path27" />
  <path
     style="fill:#000000;fill-rule:evenodd;fill-opacity:1;stroke:none;"
     d="  M 258.76717,161.84256   L 258.76717,159.92069   L 35.890223,161.84256   z "
     id="path28" />
  <path
     style="fill:#000000;fill-rule:evenodd;fill-opacity:1;stroke:none;"
     d="  M 258.76717,159.92069   L 35.890223,161.84256   L 35.890223,159.92069   z "
     id="path29" />
  <path
     style="fill:#000000;fill-rule:evenodd;fill-opacity:1;stroke:none;"
     d="  M 258.76717,154.91583   L 258.76717,153.9549   L 240.90498,154.91583   z "
     id="path30" />
  <path
     style="fill:#000000;fill-rule:evenodd;fill-opacity:1;stroke:none;"
     d="  M 258.76717,153.9549   L 240.90498,154.91583   L 240.90498,153.9549   z "
     id="path31" />
  <path
     style="fill:#000000;fill-rule:evenodd;fill-opacity:1;stroke:none;"
     d="  M 234.45696,154.91583   L 234.45696,153.9549   L 218.31691,154.91583   z "
     id="path32" />
  <path
     style="fill:#000000;fill-rule:evenodd;fill-opacity:1;stroke:none;"
     d="  M 234.45696,153.9549   L 218.31691,154.91583   L 218.31691,153.9549   z "
     id="path33" />
  <path
     style="fill:#000000;fill-rule:evenodd;fill-opacity:1;stroke:none;"
     d="  M 211.8689,154.91583   L 211.8689,153.9549   L 195.72884,154.91583   z "
     id="path34" />
  <path
     style="fill:#000000;fill-rule:evenodd;fill-opacity:1;stroke:none;"
     d="  M 211.8689,153.9549   L 195.72884,154.91583   L 195.72884,153.9549   z "
     id="path35" />
  <path
     style="fill:#000000;fill-rule:evenodd;fill-opacity:1;stroke:none;"
     d="  M 189.28083,154.91583   L 189.28083,153.9549   L 173.14077,154.91583   z "
     id="path36" />
  <path
     style="fill:#000000;fill-rule:evenodd;fill-opacity:1;stroke:none;"
     d="  M 189.28083,153.9549   L 173.14077,154.91583   L 173.14077,153.9549   z "
     id="path37" />
  <path
     style="fill:#000000;fill-rule:evenodd;fill-opacity:1;stroke:none;"
     d="  M 166.69276,154.91583   L 166.69276,153.9549   L 150.5527,154.91583   z "
     id="path38" />
  <path
     style="fill:#000000;fill-rule:evenodd;fill-opacity:1;stroke:none;"
     d="  M 166.69276,153.9549   L 150.5527,154.91583   L 150.5527,153.9549   z "
     id="path39" />
  <path
     style="fill:#000000;fill-rule:evenodd;fill-opacity:1;stroke:none;"
     d="  M 144.10469,154.91583   L 144.10469,153.9549   L 127.96464,154.91583   z "
     id="path40" />
  <path
     style="fill:#000000;fill-rule:evenodd;fill-opacity:1;stroke:none;"
     d="  M 144.10469,153.9549   L 127.96464,154.91583   L 127.96464,153.9549   z "
     id="path41" />
  <path
     style="fill:#000000;fill-rule:evenodd;fill-opacity:1;stroke:none;"
     d="  M 121.51662,154.91583   L 121.51662,153.9549   L 105.41662,154.91583   z "
     id="path42" />
  <path
     style="fill:#000000;fill-rule:evenodd;fill-opacity:1;stroke:none;"
     d="  M 121.51662,153.9549   L 105.41662,154.91583   L 105.41662,153.9549   z "
     id="path43" />
  <path
     style="fill:#000000;fill-rule:evenodd;fill-opacity:1;stroke:none;"
     d="  M 98.928555,154.91583   L 98.928555,153.9549   L 82.828549,154.91583   z "
     id="path44" />
  <path
     style="fill:#000000;fill-rule:evenodd;fill-opacity:1;stroke:none;"
     d="  M 98.928555,153.9549   L 82.828549,154.91583   L 82.828549,153.9549   z "
     id="path45" />
  <path
     style="fill:#000000;fill-rule:evenodd;fill-opacity:1;stroke:none;"
     d="  M 76.380536,154.91583   L 76.380536,153.9549   L 60.24048,154.91583   z "
     id="path46" />
  <path
     style="fill:#000000;fill-rule:evenodd;fill-opacity:1;stroke:none;"
     d="  M 76.380536,153.9549   L 60.24048,154.91583   L 60.24048,153.9549   z "
     id="path47" />
  <path
     style="fill:#000000;fill-rule:evenodd;fill-opacity:1;stroke:none;"
     d="  M 53.792468,154.91583   L 53.792468,153.9549   L 35.890223,154.91583   z "
     id="path48" />
  <path
     style="fill:#000000;fill-rule:evenodd;fill-opacity:1;stroke:none;"
     d="  M 53.792468,153.9549   L 35.890223,154.91583   L 35.890223,153.9549   z "
     id="path49" />
  <path
     style="fill:#000000;fill-rule:evenodd;fill-opacity:1;stroke:none;"
     d="  M 35.890223,154.91583   L 35.890223,153.9549   L 35.890223,153.9549   z "
     id="path50" />
  <path
     style="fill:none;stroke:#000000;stroke-width:0.9611944px;stroke-linecap:round;stroke-linejoin:round;stroke-miterlimit:4;stroke-dasharray:none;stroke-opacity:1;"
     d="  M 35.890223,91.494217   L 35.890223,127.00872   L 50.10789,131.49308   L 21.712605,139.26062   L 35.890223,143.78502   L 35.890223,176.05637  "
     id="path51" />
  <path
     style="fill:none;stroke:#000000;stroke-width:0.9611944px;stroke-linecap:round;stroke-linejoin:round;stroke-miterlimit:4;stroke-dasharray:none;stroke-opacity:1;"
     d="  M 132.16986,109.23145   L 43.25938,25.149766  "
     id="path52" />
  <path
     style="fill:#000000;fill-rule:evenodd;fill-opacity:1;stroke:none;"
     d="  M 108.01985,109.95215   L 109.34149,108.55079   L 31.484748,37.601862   z "
     id="path53" />
  <path
     style="fill:#000000;fill-rule:evenodd;fill-opacity:1;stroke:none;"
     d="  M 109.34149,108.55079   L 31.484748,37.601862   L 32.84644,36.200501   z "
     id="path54" />
  <path
     style="fill:#000000;fill-rule:evenodd;fill-opacity:1;stroke:none;"
     d="  M 115.86961,109.5918   L 116.55045,108.8711   L 102.61313,97.019585   z "
     id="path55" />
  <path
     style="fill:#000000;fill-rule:evenodd;fill-opacity:1;stroke:none;"
     d="  M 116.55045,108.8711   L 102.61313,97.019585   L 103.25393,96.338924   z "
     id="path56" />
  <path
     style="fill:#000000;fill-rule:evenodd;fill-opacity:1;stroke:none;"
     d="  M 97.887261,92.615306   L 98.568107,91.894606   L 86.192729,81.524532   z "
     id="path57" />
  <path
     style="fill:#000000;fill-rule:evenodd;fill-opacity:1;stroke:none;"
     d="  M 98.568107,91.894606   L 86.192729,81.524532   L 86.833525,80.803832   z "
     id="path58" />
  <path
     style="fill:#000000;fill-rule:evenodd;fill-opacity:1;stroke:none;"
     d="  M 81.506906,77.080215   L 82.147703,76.359514   L 69.772325,65.98944   z "
     id="path59" />
  <path
     style="fill:#000000;fill-rule:evenodd;fill-opacity:1;stroke:none;"
     d="  M 82.147703,76.359514   L 69.772325,65.98944   L 70.413121,65.308779   z "
     id="path60" />
  <path
     style="fill:#000000;fill-rule:evenodd;fill-opacity:1;stroke:none;"
     d="  M 65.086502,61.545123   L 65.727298,60.864461   L 53.351921,50.494387   z "
     id="path61" />
  <path
     style="fill:#000000;fill-rule:evenodd;fill-opacity:1;stroke:none;"
     d="  M 65.727298,60.864461   L 53.351921,50.494387   L 54.032767,49.773687   z "
     id="path62" />
  <path
     style="fill:#000000;fill-rule:evenodd;fill-opacity:1;stroke:none;"
     d="  M 48.666098,46.05007   L 49.306894,45.32937   L 35.369576,33.477856   z "
     id="path63" />
  <path
     style="fill:#000000;fill-rule:evenodd;fill-opacity:1;stroke:none;"
     d="  M 49.306894,45.32937   L 35.369576,33.477856   L 36.050422,32.797195   z "
     id="path64" />
  <path
     style="fill:#000000;fill-rule:evenodd;fill-opacity:1;stroke:none;"
     d="  M 35.369576,33.477856   L 36.050422,32.797195   L 36.050422,32.797195   z "
     id="path65" />
  <path
     style="fill:#000000;fill-rule:evenodd;fill-opacity:1;stroke:none;"
     d="  M 134.0522,96.579157   L 134.73305,95.858457   L 127.44399,90.29305   z "
     id="path66" />
  <path
     style="fill:#000000;fill-rule:evenodd;fill-opacity:1;stroke:none;"
     d="  M 134.73305,95.858457   L 127.44399,90.29305   L 128.08478,89.612389   z "
     id="path67" />
  <path
     style="fill:#000000;fill-rule:evenodd;fill-opacity:1;stroke:none;"
     d="  M 122.71812,85.888772   L 123.39896,85.168072   L 111.02358,74.797997   z "
     id="path68" />
  <path
     style="fill:#000000;fill-rule:evenodd;fill-opacity:1;stroke:none;"
     d="  M 123.39896,85.168072   L 111.02358,74.797997   L 111.66438,74.077297   z "
     id="path69" />
  <path
     style="fill:#000000;fill-rule:evenodd;fill-opacity:1;stroke:none;"
     d="  M 106.33776,70.35368   L 106.97856,69.63298   L 94.60318,59.262906   z "
     id="path70" />
  <path
     style="fill:#000000;fill-rule:evenodd;fill-opacity:1;stroke:none;"
     d="  M 106.97856,69.63298   L 94.60318,59.262906   L 95.243976,58.582244   z "
     id="path71" />
  <path
     style="fill:#000000;fill-rule:evenodd;fill-opacity:1;stroke:none;"
     d="  M 89.917357,54.818588   L 90.558153,54.137927   L 78.182776,43.767853   z "
     id="path72" />
  <path
     style="fill:#000000;fill-rule:evenodd;fill-opacity:1;stroke:none;"
     d="  M 90.558153,54.137927   L 78.182776,43.767853   L 78.863622,43.047152   z "
     id="path73" />
  <path
     style="fill:#000000;fill-rule:evenodd;fill-opacity:1;stroke:none;"
     d="  M 73.496953,39.323535   L 74.137749,38.602835   L 61.762372,28.232761   z "
     id="path74" />
  <path
     style="fill:#000000;fill-rule:evenodd;fill-opacity:1;stroke:none;"
     d="  M 74.137749,38.602835   L 61.762372,28.232761   L 62.443218,27.512061   z "
     id="path75" />
  <path
     style="fill:#000000;fill-rule:evenodd;fill-opacity:1;stroke:none;"
     d="  M 57.076549,23.788443   L 57.757395,23.107782   L 50.428288,17.542375   z "
     id="path76" />
  <path
     style="fill:#000000;fill-rule:evenodd;fill-opacity:1;stroke:none;"
     d="  M 57.757395,23.107782   L 50.428288,17.542375   L 51.109134,16.821675   z "
     id="path77" />
  <path
     style="fill:#000000;fill-rule:evenodd;fill-opacity:1;stroke:none;"
     d="  M 50.428288,17.542375   L 51.109134,16.821675   L 51.109134,16.821675   z "
     id="path78" />
  <path
     style="fill:none;stroke:#000000;stroke-width:0.9611944px;stroke-linecap:round;stroke-linejoin:round;stroke-miterlimit:4;stroke-dasharray:none;stroke-opacity:1;"
     d="  M 144.10469,109.23145   L 233.05522,25.149766  "
     id="path79" />
  <path
     style="fill:#000000;fill-rule:evenodd;fill-opacity:1;stroke:none;"
     d="  M 119.95468,108.55079   L 121.27632,109.95215   L 221.32064,12.737708   z "
     id="path80" />
  <path
     style="fill:#000000;fill-rule:evenodd;fill-opacity:1;stroke:none;"
     d="  M 121.27632,109.95215   L 221.32064,12.737708   L 222.64228,14.139069   z "
     id="path81" />
  <path
     style="fill:#000000;fill-rule:evenodd;fill-opacity:1;stroke:none;"
     d="  M 127.80444,108.8711   L 128.48528,109.5918   L 141.30121,96.09869   z "
     id="path82" />
  <path
     style="fill:#000000;fill-rule:evenodd;fill-opacity:1;stroke:none;"
     d="  M 128.48528,109.5918   L 141.30121,96.09869   L 141.98205,96.819391   z "
     id="path83" />
  <path
     style="fill:#000000;fill-rule:evenodd;fill-opacity:1;stroke:none;"
     d="  M 146.02708,91.694412   L 146.66788,92.375073   L 157.72161,80.603637   z "
     id="path84" />
  <path
     style="fill:#000000;fill-rule:evenodd;fill-opacity:1;stroke:none;"
     d="  M 146.66788,92.375073   L 157.72161,80.603637   L 158.40246,81.284299   z "
     id="path85" />
  <path
     style="fill:#000000;fill-rule:evenodd;fill-opacity:1;stroke:none;"
     d="  M 162.40743,76.15932   L 163.08828,76.88002   L 174.14202,65.068546   z "
     id="path86" />
  <path
     style="fill:#000000;fill-rule:evenodd;fill-opacity:1;stroke:none;"
     d="  M 163.08828,76.88002   L 174.14202,65.068546   L 174.82286,65.789246   z "
     id="path87" />
  <path
     style="fill:#000000;fill-rule:evenodd;fill-opacity:1;stroke:none;"
     d="  M 178.82784,60.624228   L 179.50868,61.344928   L 190.56242,49.573493   z "
     id="path88" />
  <path
     style="fill:#000000;fill-rule:evenodd;fill-opacity:1;stroke:none;"
     d="  M 179.50868,61.344928   L 190.56242,49.573493   L 191.24327,50.254154   z "
     id="path89" />
  <path
     style="fill:#000000;fill-rule:evenodd;fill-opacity:1;stroke:none;"
     d="  M 195.24824,45.129175   L 195.92909,45.809836   L 206.98282,34.038401   z "
     id="path90" />
  <path
     style="fill:#000000;fill-rule:evenodd;fill-opacity:1;stroke:none;"
     d="  M 195.92909,45.809836   L 206.98282,34.038401   L 207.66367,34.759101   z "
     id="path91" />
  <path
     style="fill:#000000;fill-rule:evenodd;fill-opacity:1;stroke:none;"
     d="  M 211.66865,29.594083   L 212.34949,30.314783   L 225.16542,16.821675   z "
     id="path92" />
  <path
     style="fill:#000000;fill-rule:evenodd;fill-opacity:1;stroke:none;"
     d="  M 212.34949,30.314783   L 225.16542,16.821675   L 225.84626,17.542375   z "
     id="path93" />
  <path
     style="fill:#000000;fill-rule:evenodd;fill-opacity:1;stroke:none;"
     d="  M 225.16542,16.821675   L 225.84626,17.542375   L 225.84626,17.542375   z "
     id="path94" />
  <path
     style="fill:#000000;fill-rule:evenodd;fill-opacity:1;stroke:none;"
     d="  M 166.93306,108.55079   L 168.2547,109.95215   L 243.46816,36.200501   z "
     id="path95" />
  <path
     style="fill:#000000;fill-rule:evenodd;fill-opacity:1;stroke:none;"
     d="  M 168.2547,109.95215   L 243.46816,36.200501   L 244.7898,37.601862   z "
     id="path96" />
  <path
     style="fill:#000000;fill-rule:evenodd;fill-opacity:1;stroke:none;"
     d="  M 159.76415,108.8711   L 160.40495,109.5918   L 173.02062,96.338924   z "
     id="path97" />
  <path
     style="fill:#000000;fill-rule:evenodd;fill-opacity:1;stroke:none;"
     d="  M 160.40495,109.5918   L 173.02062,96.338924   L 173.70147,97.019585   z "
     id="path98" />
  <path
     style="fill:#000000;fill-rule:evenodd;fill-opacity:1;stroke:none;"
     d="  M 177.70644,91.894606   L 178.38729,92.615306   L 189.44103,80.803832   z "
     id="path99" />
  <path
     style="fill:#000000;fill-rule:evenodd;fill-opacity:1;stroke:none;"
     d="  M 178.38729,92.615306   L 189.44103,80.803832   L 190.12187,81.524532   z "
     id="path100" />
  <path
     style="fill:#000000;fill-rule:evenodd;fill-opacity:1;stroke:none;"
     d="  M 194.12685,76.359514   L 194.80769,77.080215   L 205.86143,65.308779   z "
     id="path101" />
  <path
     style="fill:#000000;fill-rule:evenodd;fill-opacity:1;stroke:none;"
     d="  M 194.80769,77.080215   L 205.86143,65.308779   L 206.54228,65.98944   z "
     id="path102" />
  <path
     style="fill:#000000;fill-rule:evenodd;fill-opacity:1;stroke:none;"
     d="  M 210.54725,60.864461   L 211.2281,61.545123   L 222.28183,49.773687   z "
     id="path103" />
  <path
     style="fill:#000000;fill-rule:evenodd;fill-opacity:1;stroke:none;"
     d="  M 211.2281,61.545123   L 222.28183,49.773687   L 222.92263,50.494387   z "
     id="path104" />
  <path
     style="fill:#000000;fill-rule:evenodd;fill-opacity:1;stroke:none;"
     d="  M 226.96766,45.32937   L 227.6485,46.05007   L 240.26418,32.797195   z "
     id="path105" />
  <path
     style="fill:#000000;fill-rule:evenodd;fill-opacity:1;stroke:none;"
     d="  M 227.6485,46.05007   L 240.26418,32.797195   L 240.90498,33.477856   z "
     id="path106" />
  <path
     style="fill:#000000;fill-rule:evenodd;fill-opacity:1;stroke:none;"
     d="  M 240.26418,32.797195   L 240.90498,33.477856   L 240.90498,33.477856   z "
     id="path107" />
  <path
     style="fill:none;stroke:#000000;stroke-width:0.9611944px;stroke-linecap:round;stroke-linejoin:round;stroke-miterlimit:4;stroke-dasharray:none;stroke-opacity:1;"
     d="  M 209.54601,0.2856108   L 227.28806,19.063853   L 240.70473,12.577552   L 225.40572,37.721979   L 238.82239,31.275717   L 256.52438,50.01392  "
     id="path108" />
  <path
     style="fill:none;stroke:#000000;stroke-width:0.9611944px;stroke-linecap:round;stroke-linejoin:round;stroke-miterlimit:4;stroke-dasharray:none;stroke-opacity:1;"
     d="  M 66.728543,0.2856108   L 48.986496,19.063853   L 35.569824,12.577552   L 50.908885,37.721979   L 37.492213,31.275717   L 19.750167,50.01392  "
     id="path109" />
  <path
     style="fill:none;stroke:#000000;stroke-width:0.9611944px;stroke-linecap:round;stroke-linejoin:round;stroke-miterlimit:4;stroke-dasharray:none;stroke-opacity:1;"
     d="  M 155.67907,125.36712   L 155.67907,205.72519  "
     id="path110" />
  <path
     style="fill:none;stroke:#000000;stroke-width:0.9611944px;stroke-linecap:round;stroke-linejoin:round;stroke-miterlimit:4;stroke-dasharray:none;stroke-opacity:1;"
     d="  M 120.63553,125.36712   L 120.63553,205.72519  "
     id="path111" />
  <path
     style="fill:none;stroke:#000000;stroke-width:0.9611944px;stroke-linecap:round;stroke-linejoin:round;stroke-miterlimit:4;stroke-dasharray:none;stroke-opacity:1;"
     d="  M 162.12709,199.23889   L 114.18752,199.23889  "
     id="path112" />
  <path
     style="fill:#000000;fill-rule:evenodd;fill-opacity:1;stroke:none;"
     d="  M 149.95196,202.68223   L 152.23479,204.96445   L 159.0833,193.55336   z "
     id="path113" />
  <path
     style="fill:#000000;fill-rule:evenodd;fill-opacity:1;stroke:none;"
     d="  M 152.23479,204.96445   L 159.0833,193.55336   L 161.36614,195.83558   z "
     id="path114" />
  <path
     style="fill:#000000;fill-rule:evenodd;fill-opacity:1;stroke:none;"
     d="  M 126.32259,195.83558   L 124.03976,193.55336   L 117.19125,204.96445   z "
     id="path115" />
  <path
     style="fill:#000000;fill-rule:evenodd;fill-opacity:1;stroke:none;"
     d="  M 124.03976,193.55336   L 117.19125,204.96445   L 114.90841,202.68223   z "
     id="path116" />
  <path
     style="fill:none;stroke:#000000;stroke-width:0.9611944px;stroke-linecap:round;stroke-linejoin:round;stroke-miterlimit:4;stroke-dasharray:none;stroke-opacity:1;"
     d="  M 141.26116,177.13742   L 141.26116,192.79263  "
     id="path117" />
  <path
     style="fill:none;stroke:#000000;stroke-width:0.9611944px;stroke-linecap:round;stroke-linejoin:round;stroke-miterlimit:4;stroke-dasharray:none;stroke-opacity:1;"
     d="  M 141.26116,179.3796   L 140.21986,177.89816   L 139.17857,177.13742   L 137.61663,177.13742   L 136.57533,177.89816   L 135.53404,179.3796   L 135.01339,181.62177   L 135.01339,183.10321   L 135.53404,185.34539   L 136.57533,186.82683   L 137.61663,187.58757   L 139.17857,187.58757   L 140.21986,186.82683   L 141.26116,185.34539  "
     id="path118" />
  <path
     style="fill:none;stroke:#000000;stroke-width:0.9611944px;stroke-linecap:round;stroke-linejoin:round;stroke-miterlimit:4;stroke-dasharray:none;stroke-opacity:1;"
     d="  M 108.7007,125.36712   L 108.7007,239.5981  "
     id="path119" />
  <path
     style="fill:none;stroke:#000000;stroke-width:0.9611944px;stroke-linecap:round;stroke-linejoin:round;stroke-miterlimit:4;stroke-dasharray:none;stroke-opacity:1;"
     d="  M 155.67907,125.36712   L 155.67907,239.5981  "
     id="path120" />
  <path
     style="fill:none;stroke:#000000;stroke-width:0.9611944px;stroke-linecap:round;stroke-linejoin:round;stroke-miterlimit:4;stroke-dasharray:none;stroke-opacity:1;"
     d="  M 102.25269,233.15183   L 162.12709,233.15183  "
     id="path121" />
  <path
     style="fill:#000000;fill-rule:evenodd;fill-opacity:1;stroke:none;"
     d="  M 114.38776,229.74853   L 112.10493,227.46631   L 105.25642,238.8774   z "
     id="path122" />
  <path
     style="fill:#000000;fill-rule:evenodd;fill-opacity:1;stroke:none;"
     d="  M 112.10493,227.46631   L 105.25642,238.8774   L 102.97358,236.59518   z "
     id="path123" />
  <path
     style="fill:#000000;fill-rule:evenodd;fill-opacity:1;stroke:none;"
     d="  M 149.95196,236.59518   L 152.23479,238.8774   L 159.0833,227.46631   z "
     id="path124" />
  <path
     style="fill:#000000;fill-rule:evenodd;fill-opacity:1;stroke:none;"
     d="  M 152.23479,238.8774   L 159.0833,227.46631   L 161.36614,229.74853   z "
     id="path125" />
  <path
     style="fill:none;stroke:#000000;stroke-width:0.9611944px;stroke-linecap:round;stroke-linejoin:round;stroke-miterlimit:4;stroke-dasharray:none;stroke-opacity:1;"
     d="  M 129.04598,211.05036   L 129.04598,226.70557  "
     id="path126" />
  <path
     style="fill:none;stroke:#000000;stroke-width:0.9611944px;stroke-linecap:round;stroke-linejoin:round;stroke-miterlimit:4;stroke-dasharray:none;stroke-opacity:1;"
     d="  M 129.04598,213.29254   L 130.08727,211.8111   L 131.12857,211.05036   L 132.69051,211.05036   L 133.7318,211.8111   L 134.7731,213.29254   L 135.29374,215.53472   L 135.29374,217.01616   L 134.7731,219.25834   L 133.7318,220.73978   L 132.69051,221.50051   L 131.12857,221.50051   L 130.08727,220.73978   L 129.04598,219.25834  "
     id="path127" />
  <path
     style="fill:none;stroke:#000000;stroke-width:0.9611944px;stroke-linecap:round;stroke-linejoin:round;stroke-miterlimit:4;stroke-dasharray:none;stroke-opacity:1;"
     d="  M 0.28598036,90.29305   L 19.630017,90.29305  "
     id="path128" />
  <path
     style="fill:none;stroke:#000000;stroke-width:0.9611944px;stroke-linecap:round;stroke-linejoin:round;stroke-miterlimit:4;stroke-dasharray:none;stroke-opacity:1;"
     d="  M 19.630017,90.29305   L 67.20914,55.058821  "
     id="path129" />
  <path
     style="fill:none;stroke:#000000;stroke-width:0.9611944px;stroke-linecap:round;stroke-linejoin:round;stroke-miterlimit:4;stroke-dasharray:none;stroke-opacity:1;"
     d="  M 7.9354857,74.797997   L 8.9767796,74.077297   L 10.538721,71.835119   L 10.538721,87.450289  "
     id="path130" />
  <path
     style="fill:none;stroke:#000000;stroke-width:0.9611944px;stroke-linecap:round;stroke-linejoin:round;stroke-miterlimit:4;stroke-dasharray:none;stroke-opacity:1;"
     d="  M 241.02513,90.29305   L 260.40921,90.29305  "
     id="path131" />
  <path
     style="fill:none;stroke:#000000;stroke-width:0.9611944px;stroke-linecap:round;stroke-linejoin:round;stroke-miterlimit:4;stroke-dasharray:none;stroke-opacity:1;"
     d="  M 248.75473,75.919087   L 248.75473,75.158348   L 249.27538,73.676908   L 249.79602,72.956208   L 250.83732,72.195469   L 252.91991,72.195469   L 254.00125,72.956208   L 254.5219,73.676908   L 255.04254,75.158348   L 255.04254,76.679826   L 254.5219,78.161265   L 253.4806,80.403443   L 248.23408,87.850678   L 255.56319,87.850678  "
     id="path132" />
  <path
     style="fill:none;stroke:#000000;stroke-width:0.9611944px;stroke-linecap:round;stroke-linejoin:round;stroke-miterlimit:4;stroke-dasharray:none;stroke-opacity:1;"
     d="  M 241.02513,90.29305   L 205.90148,57.301  "
     id="path133" />
  <path
     style="fill:#000000;fill-rule:evenodd;fill-opacity:1;stroke:none;"
     d="  M 137.49648,93.376045   L 138.81812,91.974684   L 53.672319,14.139069   z "
     id="path134" />
  <path
     style="fill:#000000;fill-rule:evenodd;fill-opacity:1;stroke:none;"
     d="  M 138.81812,91.974684   L 53.672319,14.139069   L 54.993961,12.737708   z "
     id="path135" />
  <path
     style="fill:none;stroke:#000000;stroke-width:0.9611944px;stroke-linecap:round;stroke-linejoin:round;stroke-miterlimit:4;stroke-dasharray:none;stroke-opacity:1;"
     d="  M 138.13728,92.655345   L 141.62161,95.978574  "
     id="path136" />
  <path
     style="fill:none;stroke:#000000;stroke-width:0.9611944px;stroke-linecap:round;stroke-linejoin:round;stroke-miterlimit:4;stroke-dasharray:none;stroke-opacity:1;"
     d="  M 143.98454,98.180713   L 149.83181,103.70608  "
     id="path137" />
  <path
     style="fill:none;stroke:#000000;stroke-width:0.9611944px;stroke-linecap:round;stroke-linejoin:round;stroke-miterlimit:4;stroke-dasharray:none;stroke-opacity:1;"
     d="  M 152.19474,105.94826   L 155.67907,109.23145  "
     id="path138" />
</svg>
