<?xml version="1.0" encoding="UTF-8" standalone="no"?>
<svg
   version="1.0"
   width="79.160004mm"
   height="55.02mm"
   id="svg68"
   sodipodi:docname="image1131.emf"
   xmlns:inkscape="http://www.inkscape.org/namespaces/inkscape"
   xmlns:sodipodi="http://sodipodi.sourceforge.net/DTD/sodipodi-0.dtd"
   xmlns="http://www.w3.org/2000/svg"
   xmlns:svg="http://www.w3.org/2000/svg">
  <sodipodi:namedview
     id="namedview68"
     pagecolor="#ffffff"
     bordercolor="#000000"
     borderopacity="0.25"
     inkscape:showpageshadow="2"
     inkscape:pageopacity="0.0"
     inkscape:pagecheckerboard="0"
     inkscape:deskcolor="#d1d1d1"
     inkscape:document-units="mm" />
  <defs
     id="defs1">
    <pattern
       id="EMFhbasepattern"
       patternUnits="userSpaceOnUse"
       width="6"
       height="6"
       x="0"
       y="0" />
  </defs>
  <path
     style="fill:none;stroke:#000000;stroke-width:0.035755947px;stroke-linecap:round;stroke-linejoin:round;stroke-miterlimit:4;stroke-dasharray:none;stroke-opacity:1;"
     d="  M 296.1718,194.80861   L 256.37543,171.88606  "
     id="path1" />
  <path
     style="fill:none;stroke:#000000;stroke-width:0.035755947px;stroke-linecap:round;stroke-linejoin:round;stroke-miterlimit:4;stroke-dasharray:none;stroke-opacity:1;"
     d="  M 206.8892,194.80861   L 246.68557,194.80861  "
     id="path2" />
  <path
     style="fill:none;stroke:#000000;stroke-width:0.035755947px;stroke-linecap:round;stroke-linejoin:round;stroke-miterlimit:4;stroke-dasharray:none;stroke-opacity:1;"
     d="  M 206.8892,204.52035   L 206.8892,194.80861  "
     id="path3" />
  <path
     style="fill:none;stroke:#000000;stroke-width:0.035755947px;stroke-linecap:round;stroke-linejoin:round;stroke-miterlimit:4;stroke-dasharray:none;stroke-opacity:1;"
     d="  M 296.1718,204.52035   L 206.8892,204.52035  "
     id="path4" />
  <path
     style="fill:none;stroke:#000000;stroke-width:0.035755947px;stroke-linecap:round;stroke-linejoin:round;stroke-miterlimit:4;stroke-dasharray:none;stroke-opacity:1;"
     d="  M 296.1718,194.80861   L 296.1718,204.52035  "
     id="path5" />
  <path
     style="fill:none;stroke:#000000;stroke-width:0.035755947px;stroke-linecap:round;stroke-linejoin:round;stroke-miterlimit:4;stroke-dasharray:none;stroke-opacity:1;"
     d="  M 256.37543,194.80861   L 296.1718,194.80861  "
     id="path6" />
  <path
     style="fill:none;stroke:#000000;stroke-width:0.035755947px;stroke-linecap:round;stroke-linejoin:round;stroke-miterlimit:4;stroke-dasharray:none;stroke-opacity:1;"
     d="  M 296.1718,127.79049   L 256.37543,127.79049  "
     id="path7" />
  <path
     style="fill:none;stroke:#000000;stroke-width:0.035755947px;stroke-linecap:round;stroke-linejoin:round;stroke-miterlimit:4;stroke-dasharray:none;stroke-opacity:1;"
     d="  M 296.1718,118.11446   L 296.1718,127.79049  "
     id="path8" />
  <path
     style="fill:none;stroke:#000000;stroke-width:0.035755947px;stroke-linecap:round;stroke-linejoin:round;stroke-miterlimit:4;stroke-dasharray:none;stroke-opacity:1;"
     d="  M 206.8892,118.11446   L 296.1718,118.11446  "
     id="path9" />
  <path
     style="fill:none;stroke:#000000;stroke-width:0.035755947px;stroke-linecap:round;stroke-linejoin:round;stroke-miterlimit:4;stroke-dasharray:none;stroke-opacity:1;"
     d="  M 206.8892,127.79049   L 206.8892,118.11446  "
     id="path10" />
  <path
     style="fill:none;stroke:#000000;stroke-width:0.035755947px;stroke-linecap:round;stroke-linejoin:round;stroke-miterlimit:4;stroke-dasharray:none;stroke-opacity:1;"
     d="  M 246.68557,127.79049   L 206.8892,127.79049  "
     id="path11" />
  <path
     style="fill:none;stroke:#000000;stroke-width:0.035755947px;stroke-linecap:round;stroke-linejoin:round;stroke-miterlimit:4;stroke-dasharray:none;stroke-opacity:1;"
     d="  M 256.37543,127.79049   L 256.37543,194.80861  "
     id="path12" />
  <path
     style="fill:none;stroke:#000000;stroke-width:0.035755947px;stroke-linecap:round;stroke-linejoin:round;stroke-miterlimit:4;stroke-dasharray:none;stroke-opacity:1;"
     d="  M 246.68557,127.79049   L 246.68557,194.80861  "
     id="path13" />
  <path
     style="fill:none;stroke:#000000;stroke-width:0.035755947px;stroke-linecap:round;stroke-linejoin:round;stroke-miterlimit:4;stroke-dasharray:none;stroke-opacity:1;"
     d="  M 296.1718,118.11446   L 270.96386,103.54685  "
     id="path14" />
  <path
     style="fill:none;stroke:#000000;stroke-width:0.035755947px;stroke-linecap:round;stroke-linejoin:round;stroke-miterlimit:4;stroke-dasharray:none;stroke-opacity:1;"
     d="  M 48.168561,121.86347   L 141.88489,175.95642  "
     id="path15" />
  <path
     style="fill:none;stroke:#000000;stroke-width:0.035755947px;stroke-linecap:round;stroke-linejoin:round;stroke-miterlimit:4;stroke-dasharray:none;stroke-opacity:1;"
     d="  M 141.88489,167.03019   L 141.88489,175.95642  "
     id="path16" />
  <path
     style="fill:none;stroke:#000000;stroke-width:0.035755947px;stroke-linecap:round;stroke-linejoin:round;stroke-miterlimit:4;stroke-dasharray:none;stroke-opacity:1;"
     d="  M 141.88489,175.95642   L 157.33146,175.95642  "
     id="path17" />
  <path
     style="fill:none;stroke:#000000;stroke-width:0.035755947px;stroke-linecap:round;stroke-linejoin:round;stroke-miterlimit:4;stroke-dasharray:none;stroke-opacity:1;"
     d="  M 171.38355,139.68022   L 171.45506,139.57311   L 171.49082,139.43029   L 171.52657,139.32318   L 171.56233,139.18036   L 171.56233,139.07324   L 171.56233,138.93042   L 171.56233,138.7519   L 171.52657,138.60908   L 171.49082,138.46626   L 171.41931,138.28773   L 171.38355,138.14491   L 171.27628,137.96639   L 171.20477,137.82357   L 171.0975,137.64504   L 170.99023,137.46652   L 170.88297,137.3237   L 170.73994,137.14518   L 170.59692,137.00236   L 170.4539,136.82383   L 170.27512,136.64531   L 170.13209,136.50249   L 169.95331,136.35967   L 169.73878,136.18114   L 169.56,136.03832   L 169.38122,135.8955   L 169.16668,135.75268   L 168.95215,135.64557   L 168.73761,135.50275   L 168.55883,135.39563   L 168.34429,135.28852   L 168.094,135.18141   L 167.87947,135.07429   L 167.66493,135.00288   L 167.4504,134.89577   L 167.23586,134.82436   L 167.02132,134.78865   L 166.80679,134.71724   L 166.59225,134.68154   L 166.41347,134.64583   L 166.19894,134.61013   L 166.02016,134.61013   L 165.84138,134.61013   L 165.6626,134.61013   L 165.48382,134.61013   L 165.30504,134.64583   L 165.16202,134.68154   L 165.01899,134.71724   L 164.87597,134.75295   L 164.73294,134.82436   L 164.62568,134.89577   L 164.51841,134.96718   L 164.41114,135.07429   L 164.33963,135.1457   L 164.26812,135.25282   L 164.19661,135.35993   L 164.16085,135.50275   L 164.12509,135.60986   L 164.08934,135.75268   L 164.08934,135.8598   L 164.08934,136.00262   L 164.08934,136.18114   L 164.12509,136.32396   L 164.16085,136.46678   L 164.23236,136.64531   L 164.30387,136.78813   L 164.37538,136.96665   L 164.4469,137.10947   L 164.55416,137.288   L 164.66143,137.46652   L 164.80446,137.60934   L 164.91172,137.78786   L 165.05475,137.93068   L 165.19777,138.10921   L 165.37655,138.28773   L 165.55533,138.43055   L 165.73411,138.57337   L 165.91289,138.7519   L 166.09167,138.89472   L 166.30621,139.03754   L 166.48499,139.18036   L 166.69952,139.28747   L 166.91406,139.43029   L 167.12859,139.5374   L 167.34313,139.64452   L 167.55766,139.75163   L 167.7722,139.85875   L 167.98674,139.93016   L 168.20127,140.03727   L 168.41581,140.10868   L 168.63034,140.14439   L 168.84488,140.2158   L 169.05941,140.2515   L 169.23819,140.28721   L 169.45273,140.32291   L 169.63151,140.32291   L 169.84604,140.32291   L 170.02482,140.32291   L 170.2036,140.32291   L 170.34663,140.28721   L 170.52541,140.2515   L 170.66843,140.2158   L 170.81146,140.18009   L 170.91872,140.10868   L 171.02599,140.03727   L 171.13326,139.96586   L 171.24053,139.85875   L 171.31204,139.78734   L 171.38355,139.68022   z "
     id="path18" />
  <path
     style="fill:none;stroke:#000000;stroke-width:0.035755947px;stroke-linecap:round;stroke-linejoin:round;stroke-miterlimit:4;stroke-dasharray:none;stroke-opacity:1;"
     d="  M 150.18027,127.43344   L 150.25179,127.32632   L 150.28754,127.21921   L 150.3233,127.07639   L 150.35905,126.96927   L 150.35905,126.82646   L 150.35905,126.68364   L 150.3233,126.54082   L 150.3233,126.36229   L 150.28754,126.21947   L 150.21603,126.07665   L 150.14452,125.89813   L 150.07301,125.75531   L 150.00149,125.57678   L 149.89423,125.39826   L 149.78696,125.25544   L 149.64394,125.07691   L 149.53667,124.89839   L 149.39364,124.75557   L 149.21486,124.57705   L 149.07184,124.43423   L 148.89306,124.2557   L 148.71428,124.11288   L 148.5355,123.97006   L 148.35672,123.82724   L 148.14219,123.68442   L 147.96341,123.5416   L 147.74887,123.39878   L 147.53433,123.29167   L 147.3198,123.14885   L 147.10526,123.04173   L 146.89073,122.93462   L 146.67619,122.8275   L 146.46166,122.75609   L 146.24712,122.68469   L 146.03258,122.61328   L 145.81805,122.54187   L 145.60351,122.47046   L 145.38898,122.43475   L 145.17444,122.39905   L 144.99566,122.39905   L 144.78113,122.36334   L 144.60235,122.36334   L 144.42357,122.36334   L 144.24479,122.36334   L 144.10176,122.39905   L 143.92298,122.43475   L 143.77996,122.47046   L 143.63694,122.54187   L 143.52967,122.57757   L 143.4224,122.64898   L 143.31513,122.75609   L 143.20786,122.8275   L 143.13635,122.93462   L 143.06484,123.00603   L 142.99333,123.14885   L 142.95757,123.25596   L 142.92182,123.36308   L 142.88606,123.5059   L 142.88606,123.64872   L 142.88606,123.79154   L 142.88606,123.93436   L 142.92182,124.07718   L 142.95757,124.22   L 143.02909,124.39852   L 143.06484,124.54134   L 143.13635,124.71987   L 143.24362,124.89839   L 143.35089,125.04121   L 143.45816,125.21973   L 143.56542,125.36255   L 143.70845,125.54108   L 143.85147,125.7196   L 143.9945,125.86242   L 144.17328,126.04095   L 144.3163,126.18377   L 144.49508,126.36229   L 144.67386,126.50511   L 144.88839,126.64793   L 145.06717,126.79075   L 145.28171,126.93357   L 145.49625,127.07639   L 145.67503,127.1835   L 145.88956,127.29062   L 146.1041,127.39773   L 146.31863,127.50485   L 146.56892,127.61196   L 146.78346,127.71908   L 146.998,127.79049   L 147.21253,127.8619   L 147.42707,127.93331   L 147.6416,127.96901   L 147.82038,128.00472   L 148.03492,128.04042   L 148.24945,128.07613   L 148.42823,128.07613   L 148.60701,128.11183   L 148.78579,128.07613   L 148.96457,128.07613   L 149.14335,128.04042   L 149.28638,128.04042   L 149.4294,127.96901   L 149.57242,127.93331   L 149.71545,127.8619   L 149.82271,127.79049   L 149.92998,127.71908   L 150.03725,127.64767   L 150.10876,127.54055   L 150.18027,127.43344   z "
     id="path19" />
  <path
     style="fill:none;stroke:#000000;stroke-width:0.035755947px;stroke-linecap:round;stroke-linejoin:round;stroke-miterlimit:4;stroke-dasharray:none;stroke-opacity:1;"
     d="  M 128.977,115.18665   L 129.01275,115.07954   L 129.08427,114.97242   L 129.12002,114.86531   L 129.12002,114.72249   L 129.15578,114.57967   L 129.15578,114.43685   L 129.12002,114.29403   L 129.08427,114.15121   L 129.04851,113.97269   L 129.01275,113.82987   L 128.94124,113.68705   L 128.86973,113.50852   L 128.76246,113.33   L 128.69095,113.18718   L 128.54793,113.00865   L 128.44066,112.83013   L 128.29764,112.68731   L 128.15461,112.50878   L 128.01159,112.33026   L 127.86856,112.18744   L 127.68978,112.04462   L 127.511,111.8661   L 127.33222,111.72328   L 127.15345,111.58046   L 126.93891,111.43764   L 126.72437,111.29482   L 126.54559,111.152   L 126.33106,111.04488   L 126.11652,110.90206   L 125.90199,110.79495   L 125.68745,110.68783   L 125.47292,110.61642   L 125.25838,110.50931   L 125.04384,110.4379   L 124.82931,110.36649   L 124.61477,110.29508   L 124.40024,110.25937   L 124.1857,110.22367   L 123.97117,110.18796   L 123.79239,110.15226   L 123.57785,110.11655   L 123.39907,110.11655   L 123.22029,110.11655   L 123.04151,110.15226   L 122.86273,110.15226   L 122.71971,110.18796   L 122.57668,110.25937   L 122.43366,110.29508   L 122.32639,110.36649   L 122.18337,110.4379   L 122.0761,110.50931   L 122.00459,110.58072   L 121.89732,110.68783   L 121.82581,110.79495   L 121.79005,110.90206   L 121.71854,111.00918   L 121.68279,111.152   L 121.68279,111.25911   L 121.64703,111.40193   L 121.64703,111.54475   L 121.68279,111.68757   L 121.71854,111.83039   L 121.7543,112.00892   L 121.79005,112.15174   L 121.86157,112.33026   L 121.93308,112.47308   L 122.04034,112.6516   L 122.11186,112.79442   L 122.25488,112.97295   L 122.36215,113.15147   L 122.50517,113.29429   L 122.6482,113.47282   L 122.79122,113.65134   L 122.93424,113.79416   L 123.11302,113.97269   L 123.2918,114.11551   L 123.47058,114.25833   L 123.64936,114.40114   L 123.8639,114.54396   L 124.07843,114.68678   L 124.25721,114.8296   L 124.47175,114.93672   L 124.68628,115.07954   L 124.90082,115.18665   L 125.11536,115.29377   L 125.32989,115.36518   L 125.54443,115.47229   L 125.75896,115.5437   L 125.9735,115.61511   L 126.18803,115.68652   L 126.40257,115.72223   L 126.61711,115.79364   L 126.83164,115.82934   L 127.01042,115.82934   L 127.22496,115.86505   L 127.40374,115.86505   L 127.58252,115.86505   L 127.7613,115.82934   L 127.94008,115.82934   L 128.0831,115.79364   L 128.22612,115.75793   L 128.36915,115.68652   L 128.47642,115.61511   L 128.61944,115.57941   L 128.72671,115.47229   L 128.79822,115.40088   L 128.90549,115.29377   L 128.977,115.18665   z "
     id="path20" />
  <path
     style="fill:none;stroke:#000000;stroke-width:0.035755947px;stroke-linecap:round;stroke-linejoin:round;stroke-miterlimit:4;stroke-dasharray:none;stroke-opacity:1;"
     d="  M 107.77372,102.97557   L 107.84523,102.86846   L 107.88099,102.76134   L 107.91675,102.61852   L 107.9525,102.4757   L 107.9525,102.36859   L 107.9525,102.22577   L 107.9525,102.08295   L 107.91675,101.90442   L 107.88099,101.7616   L 107.80948,101.61879   L 107.77372,101.44026   L 107.66645,101.26174   L 107.59494,101.11892   L 107.48767,100.94039   L 107.38041,100.79757   L 107.27314,100.61905   L 107.13012,100.44052   L 106.98709,100.2977   L 106.84407,100.11918   L 106.66529,99.976359   L 106.52226,99.797834   L 106.34348,99.655015   L 106.1647,99.47649   L 105.95017,99.333671   L 105.77139,99.190851   L 105.55685,99.083736   L 105.34232,98.940916   L 105.16354,98.798097   L 104.949,98.690982   L 104.73447,98.583867   L 104.51993,98.476753   L 104.26964,98.369638   L 104.0551,98.298228   L 103.84057,98.226818   L 103.62603,98.155408   L 103.4115,98.083999   L 103.19696,98.012589   L 103.01818,97.976884   L 102.80365,97.941179   L 102.58911,97.905474   L 102.41033,97.905474   L 102.23155,97.905474   L 102.05277,97.905474   L 101.87399,97.905474   L 101.69521,97.941179   L 101.55219,97.976884   L 101.40916,98.012589   L 101.26614,98.048294   L 101.12312,98.119703   L 101.01585,98.191113   L 100.90858,98.262523   L 100.80131,98.369638   L 100.7298,98.441048   L 100.65829,98.548162   L 100.58678,98.655277   L 100.55102,98.798097   L 100.51527,98.905212   L 100.47951,99.048031   L 100.47951,99.190851   L 100.47951,99.333671   L 100.47951,99.47649   L 100.51527,99.61931   L 100.55102,99.76213   L 100.62253,99.940654   L 100.69405,100.08347   L 100.76556,100.262   L 100.83707,100.40482   L 100.94434,100.58334   L 101.0516,100.76187   L 101.19463,100.90469   L 101.3019,101.08321   L 101.44492,101.26174   L 101.6237,101.40456   L 101.76672,101.58308   L 101.9455,101.7259   L 102.12428,101.86872   L 102.30306,102.04724   L 102.48184,102.19006   L 102.69638,102.33288   L 102.87516,102.4757   L 103.08969,102.58282   L 103.30423,102.72564   L 103.51876,102.83275   L 103.7333,102.93987   L 103.94784,103.04698   L 104.16237,103.1541   L 104.37691,103.22551   L 104.59144,103.33262   L 104.80598,103.40403   L 105.02051,103.43974   L 105.23505,103.51115   L 105.44959,103.54685   L 105.66412,103.58256   L 105.8429,103.61826   L 106.02168,103.61826   L 106.23622,103.61826   L 106.415,103.61826   L 106.59378,103.61826   L 106.7368,103.58256   L 106.91558,103.54685   L 107.0586,103.51115   L 107.20163,103.47544   L 107.3089,103.40403   L 107.41616,103.33262   L 107.52343,103.26121   L 107.6307,103.1541   L 107.70221,103.08269   L 107.77372,102.97557   z "
     id="path21" />
  <path
     style="fill:none;stroke:#000000;stroke-width:0.035755947px;stroke-linecap:round;stroke-linejoin:round;stroke-miterlimit:4;stroke-dasharray:none;stroke-opacity:1;"
     d="  M 134.80522,76.51823   L 134.80522,86.229967  "
     id="path22" />
  <path
     style="fill:none;stroke:#000000;stroke-width:0.035755947px;stroke-linecap:round;stroke-linejoin:round;stroke-miterlimit:4;stroke-dasharray:none;stroke-opacity:1;"
     d="  M 98.44142,65.235477   L 98.44142,106.97452  "
     id="path23" />
  <path
     style="fill:none;stroke:#000000;stroke-width:0.035755947px;stroke-linecap:round;stroke-linejoin:round;stroke-miterlimit:4;stroke-dasharray:none;stroke-opacity:1;"
     d="  M 182.75394,155.60462   L 98.44142,106.97452  "
     id="path24" />
  <path
     style="fill:none;stroke:#000000;stroke-width:0.035755947px;stroke-linecap:round;stroke-linejoin:round;stroke-miterlimit:4;stroke-dasharray:none;stroke-opacity:1;"
     d="  M 182.75394,113.90128   L 182.75394,155.60462  "
     id="path25" />
  <path
     style="fill:none;stroke:#000000;stroke-width:0.035755947px;stroke-linecap:round;stroke-linejoin:round;stroke-miterlimit:4;stroke-dasharray:none;stroke-opacity:1;"
     d="  M 187.22343,116.47203   L 187.22343,155.60462  "
     id="path26" />
  <path
     style="fill:none;stroke:#000000;stroke-width:0.035755947px;stroke-linecap:round;stroke-linejoin:round;stroke-miterlimit:4;stroke-dasharray:none;stroke-opacity:1;"
     d="  M 161.7652,40.56338   L 90.718136,-0.42586226  "
     id="path27" />
  <path
     style="fill:none;stroke:#000000;stroke-width:0.035755947px;stroke-linecap:round;stroke-linejoin:round;stroke-miterlimit:4;stroke-dasharray:none;stroke-opacity:1;"
     d="  M 296.1718,127.79049   L 256.37543,127.79049  "
     id="path28" />
  <path
     style="fill:none;stroke:#000000;stroke-width:0.035755947px;stroke-linecap:round;stroke-linejoin:round;stroke-miterlimit:4;stroke-dasharray:none;stroke-opacity:1;"
     d="  M 206.8892,118.11446   L 296.1718,118.11446  "
     id="path29" />
  <path
     style="fill:none;stroke:#000000;stroke-width:0.035755947px;stroke-linecap:round;stroke-linejoin:round;stroke-miterlimit:4;stroke-dasharray:none;stroke-opacity:1;"
     d="  M 206.8892,127.79049   L 206.8892,118.11446  "
     id="path30" />
  <path
     style="fill:none;stroke:#000000;stroke-width:0.035755947px;stroke-linecap:round;stroke-linejoin:round;stroke-miterlimit:4;stroke-dasharray:none;stroke-opacity:1;"
     d="  M 246.68557,127.79049   L 206.8892,127.79049  "
     id="path31" />
  <path
     style="fill:none;stroke:#000000;stroke-width:0.035755947px;stroke-linecap:round;stroke-linejoin:round;stroke-miterlimit:4;stroke-dasharray:none;stroke-opacity:1;"
     d="  M 224.30235,79.338918   L 224.23084,78.946164   L 224.05206,78.55341   L 223.73026,78.160656   L 223.26543,77.839312   L 222.72909,77.553672   L 222.08548,77.339443   L 221.40612,77.160918   L 220.691,77.089508   L 219.94012,77.089508   L 219.22501,77.160918   L 218.54564,77.303738   L 217.93779,77.517967   L 217.43721,77.803607   L 217.04389,78.124951   L 216.75785,78.517705   L 216.57907,78.910459   L 216.57907,79.303213   L 216.72209,79.731672   L 216.97238,80.124426   L 217.3657,80.481475   L 217.86628,80.767115   L 218.43838,81.052754   L 219.11774,81.231279   L 219.7971,81.338393   L 220.54798,81.374098   L 221.26309,81.338393   L 221.97821,81.231279   L 222.62182,81.052754   L 223.19392,80.80282   L 223.65874,80.481475   L 223.98055,80.124426   L 224.19508,79.767377   L 224.30235,79.338918   z "
     id="path32" />
  <path
     style="fill:none;stroke:#000000;stroke-width:0.035755947px;stroke-linecap:round;stroke-linejoin:round;stroke-miterlimit:4;stroke-dasharray:none;stroke-opacity:1;"
     d="  M 208.82003,70.412689   L 208.78427,70.019935   L 208.56973,69.627181   L 208.24793,69.234427   L 207.81886,68.913083   L 207.24676,68.627444   L 206.63891,68.413214   L 205.92379,68.234689   L 205.20868,68.16328   L 204.49356,68.16328   L 203.77844,68.234689   L 203.09907,68.377509   L 202.49122,68.591739   L 201.95488,68.877378   L 201.56157,69.234427   L 201.27552,69.591476   L 201.1325,69.98423   L 201.1325,70.412689   L 201.23977,70.805443   L 201.49006,71.198197   L 201.88337,71.555247   L 202.38396,71.876591   L 202.99181,72.126525   L 203.63541,72.30505   L 204.35053,72.412165   L 205.06565,72.483574   L 205.81653,72.447869   L 206.49589,72.30505   L 207.1395,72.126525   L 207.71159,71.876591   L 208.17642,71.590952   L 208.53398,71.233902   L 208.74851,70.841148   L 208.82003,70.412689   z "
     id="path33" />
  <path
     style="fill:none;stroke:#000000;stroke-width:0.035755947px;stroke-linecap:round;stroke-linejoin:round;stroke-miterlimit:4;stroke-dasharray:none;stroke-opacity:1;"
     d="  M 182.61092,79.338918   L 182.57516,78.946164   L 182.36063,78.55341   L 182.03882,78.160656   L 181.60975,77.839312   L 181.07341,77.553672   L 180.4298,77.339443   L 179.75044,77.160918   L 178.99957,77.089508   L 178.28445,77.089508   L 177.56933,77.160918   L 176.88997,77.303738   L 176.28211,77.517967   L 175.78153,77.803607   L 175.35246,78.124951   L 175.06641,78.517705   L 174.92339,78.910459   L 174.92339,79.303213   L 175.03066,79.731672   L 175.3167,80.124426   L 175.67426,80.481475   L 176.17485,80.767115   L 176.7827,81.052754   L 177.42631,81.231279   L 178.14142,81.338393   L 178.8923,81.374098   L 179.60742,81.338393   L 180.32254,81.231279   L 180.96614,81.052754   L 181.50248,80.80282   L 181.96731,80.481475   L 182.32487,80.124426   L 182.53941,79.767377   L 182.61092,79.338918   z "
     id="path34" />
  <path
     style="fill:none;stroke:#000000;stroke-width:0.035755947px;stroke-linecap:round;stroke-linejoin:round;stroke-miterlimit:4;stroke-dasharray:none;stroke-opacity:1;"
     d="  M 167.16435,70.412689   L 167.09284,70.019935   L 166.91406,69.627181   L 166.59225,69.234427   L 166.12743,68.913083   L 165.59109,68.627444   L 164.94748,68.413214   L 164.26812,68.234689   L 163.553,68.16328   L 162.80212,68.16328   L 162.087,68.234689   L 161.4434,68.377509   L 160.83555,68.591739   L 160.29921,68.877378   L 159.90589,69.234427   L 159.61984,69.591476   L 159.47682,69.98423   L 159.44106,70.412689   L 159.58409,70.805443   L 159.83438,71.198197   L 160.2277,71.555247   L 160.72828,71.876591   L 161.30037,72.126525   L 161.97974,72.30505   L 162.69486,72.412165   L 163.40997,72.483574   L 164.16085,72.447869   L 164.84021,72.30505   L 165.48382,72.126525   L 166.05591,71.876591   L 166.52074,71.590952   L 166.84255,71.233902   L 167.09284,70.841148   L 167.16435,70.412689   z "
     id="path35" />
  <path
     style="fill:none;stroke:#000000;stroke-width:0.035755947px;stroke-linecap:round;stroke-linejoin:round;stroke-miterlimit:4;stroke-dasharray:none;stroke-opacity:1;"
     d="  M 87.929172,40.56338   L 87.929172,49.489609  "
     id="path36" />
  <path
     style="fill:none;stroke:#000000;stroke-width:0.035755947px;stroke-linecap:round;stroke-linejoin:round;stroke-miterlimit:4;stroke-dasharray:none;stroke-opacity:1;"
     d="  M 87.929172,40.56338   L 177.21177,40.56338  "
     id="path37" />
  <path
     style="fill:none;stroke:#000000;stroke-width:0.035755947px;stroke-linecap:round;stroke-linejoin:round;stroke-miterlimit:4;stroke-dasharray:none;stroke-opacity:1;"
     d="  M 136.23546,52.595937   L 136.16394,52.167478   L 135.98516,51.774724   L 135.66336,51.417674   L 135.19853,51.060625   L 134.66219,50.774986   L 134.05434,50.560757   L 133.33922,50.417937   L 132.6241,50.310822   L 131.87323,50.310822   L 131.15811,50.382232   L 130.5145,50.560757   L 129.90665,50.774986   L 129.37031,51.060625   L 128.977,51.38197   L 128.69095,51.739019   L 128.54793,52.131773   L 128.51217,52.560232   L 128.65519,52.952986   L 128.90549,53.34574   L 129.2988,53.702789   L 129.79939,54.024133   L 130.37148,54.274068   L 131.05084,54.452592   L 131.76596,54.595412   L 132.48108,54.631117   L 133.23196,54.595412   L 133.91132,54.488297   L 134.55493,54.309773   L 135.12702,54.059838   L 135.59185,53.738494   L 135.94941,53.381445   L 136.16394,52.988691   L 136.23546,52.595937   z "
     id="path38" />
  <path
     style="fill:none;stroke:#000000;stroke-width:0.035755947px;stroke-linecap:round;stroke-linejoin:round;stroke-miterlimit:4;stroke-dasharray:none;stroke-opacity:1;"
     d="  M 151.68202,61.522165   L 151.64627,61.093706   L 151.43173,60.700952   L 151.10993,60.343903   L 150.68086,59.986854   L 150.14452,59.701215   L 149.50091,59.486985   L 148.82155,59.344166   L 148.07067,59.237051   L 147.35555,59.237051   L 146.64044,59.308461   L 145.96107,59.45128   L 145.35322,59.701215   L 144.85264,59.951149   L 144.42357,60.308198   L 144.13752,60.665247   L 143.9945,61.058002   L 143.9945,61.486461   L 144.10176,61.879215   L 144.38781,62.271969   L 144.74537,62.629018   L 145.24595,62.950362   L 145.8538,63.200296   L 146.49741,63.378821   L 147.21253,63.521641   L 147.96341,63.557346   L 148.67852,63.521641   L 149.39364,63.414526   L 150.03725,63.200296   L 150.57359,62.950362   L 151.03842,62.664723   L 151.39598,62.307674   L 151.61051,61.91492   L 151.68202,61.522165   z "
     id="path39" />
  <path
     style="fill:none;stroke:#000000;stroke-width:0.035755947px;stroke-linecap:round;stroke-linejoin:round;stroke-miterlimit:4;stroke-dasharray:none;stroke-opacity:1;"
     d="  M 177.89113,52.595937   L 177.85538,52.167478   L 177.64084,51.774724   L 177.31904,51.417674   L 176.88997,51.060625   L 176.31787,50.774986   L 175.71002,50.560757   L 174.9949,50.417937   L 174.27978,50.310822   L 173.56466,50.310822   L 172.84954,50.382232   L 172.17018,50.560757   L 171.56233,50.774986   L 171.02599,51.060625   L 170.63268,51.38197   L 170.34663,51.739019   L 170.2036,52.131773   L 170.2036,52.560232   L 170.31087,52.952986   L 170.56116,53.34574   L 170.95448,53.702789   L 171.45506,54.024133   L 172.06291,54.274068   L 172.70652,54.452592   L 173.42164,54.595412   L 174.17251,54.631117   L 174.88763,54.595412   L 175.567,54.488297   L 176.2106,54.309773   L 176.7827,54.059838   L 177.24753,53.738494   L 177.60508,53.381445   L 177.81962,52.988691   L 177.89113,52.595937   z "
     id="path40" />
  <path
     style="fill:none;stroke:#000000;stroke-width:0.035755947px;stroke-linecap:round;stroke-linejoin:round;stroke-miterlimit:4;stroke-dasharray:none;stroke-opacity:1;"
     d="  M 193.37346,61.522165   L 193.30195,61.093706   L 193.12317,60.700952   L 192.80136,60.343903   L 192.33653,59.986854   L 191.8002,59.701215   L 191.15659,59.486985   L 190.47723,59.344166   L 189.76211,59.237051   L 189.01123,59.237051   L 188.29611,59.308461   L 187.61675,59.45128   L 187.0089,59.701215   L 186.50832,59.951149   L 186.115,60.308198   L 185.82895,60.665247   L 185.65017,61.058002   L 185.65017,61.486461   L 185.7932,61.879215   L 186.04349,62.271969   L 186.4368,62.629018   L 186.93739,62.950362   L 187.50948,63.200296   L 188.18884,63.378821   L 188.90396,63.521641   L 189.61908,63.557346   L 190.3342,63.521641   L 191.04932,63.414526   L 191.69293,63.200296   L 192.26502,62.950362   L 192.72985,62.664723   L 193.05165,62.307674   L 193.26619,61.91492   L 193.37346,61.522165   z "
     id="path41" />
  <path
     style="fill:none;stroke:#000000;stroke-width:0.035755947px;stroke-linecap:round;stroke-linejoin:round;stroke-miterlimit:4;stroke-dasharray:none;stroke-opacity:1;"
     d="  M 181.68126,103.54685   L 87.929172,49.489609  "
     id="path42" />
  <path
     style="fill:none;stroke:#000000;stroke-width:0.035755947px;stroke-linecap:round;stroke-linejoin:round;stroke-miterlimit:4;stroke-dasharray:none;stroke-opacity:1;"
     d="  M 181.68126,94.656327   L 181.68126,103.54685  "
     id="path43" />
  <path
     style="fill:none;stroke:#000000;stroke-width:0.035755947px;stroke-linecap:round;stroke-linejoin:round;stroke-miterlimit:4;stroke-dasharray:none;stroke-opacity:1;"
     d="  M 181.68126,94.656327   L 87.929172,40.56338  "
     id="path44" />
  <path
     style="fill:none;stroke:#000000;stroke-width:0.035755947px;stroke-linecap:round;stroke-linejoin:round;stroke-miterlimit:4;stroke-dasharray:none;stroke-opacity:1;"
     d="  M 181.68126,103.54685   L 270.96386,103.54685  "
     id="path45" />
  <path
     style="fill:none;stroke:#000000;stroke-width:0.035755947px;stroke-linecap:round;stroke-linejoin:round;stroke-miterlimit:4;stroke-dasharray:none;stroke-opacity:1;"
     d="  M 270.96386,94.656327   L 177.21177,40.56338  "
     id="path46" />
  <path
     style="fill:none;stroke:#000000;stroke-width:0.035755947px;stroke-linecap:round;stroke-linejoin:round;stroke-miterlimit:4;stroke-dasharray:none;stroke-opacity:1;"
     d="  M 270.96386,94.656327   L 181.68126,94.656327  "
     id="path47" />
  <path
     style="fill:none;stroke:#000000;stroke-width:0.035755947px;stroke-linecap:round;stroke-linejoin:round;stroke-miterlimit:4;stroke-dasharray:none;stroke-opacity:1;"
     d="  M 270.96386,103.54685   L 270.96386,94.656327  "
     id="path48" />
  <path
     style="fill:none;stroke:#000000;stroke-width:0.035755947px;stroke-linecap:round;stroke-linejoin:round;stroke-miterlimit:4;stroke-dasharray:none;stroke-opacity:1;"
     d="  M 256.37543,127.79049   L 256.37543,171.4933  "
     id="path49" />
  <path
     style="fill:none;stroke:#000000;stroke-width:0.035755947px;stroke-linecap:round;stroke-linejoin:round;stroke-miterlimit:4;stroke-dasharray:none;stroke-opacity:1;"
     d="  M 246.68557,127.79049   L 246.68557,171.4933  "
     id="path50" />
  <path
     style="fill:none;stroke:#000000;stroke-width:0.035755947px;stroke-linecap:round;stroke-linejoin:round;stroke-miterlimit:4;stroke-dasharray:none;stroke-opacity:1;"
     d="  M 206.8892,118.11446   L 1.4355392,-0.42586226  "
     id="path51" />
  <path
     style="fill:none;stroke:#000000;stroke-width:0.035755947px;stroke-linecap:round;stroke-linejoin:round;stroke-miterlimit:4;stroke-dasharray:none;stroke-opacity:1;"
     d="  M 206.8892,127.79049   L 1.4355392,9.2858746  "
     id="path52" />
  <path
     style="fill:none;stroke:#000000;stroke-width:0.035755947px;stroke-linecap:round;stroke-linejoin:round;stroke-miterlimit:4;stroke-dasharray:none;stroke-opacity:1;"
     d="  M 205.0299,193.73747   L -0.42377,75.232853  "
     id="path53" />
  <path
     style="fill:none;stroke:#000000;stroke-width:0.035755947px;stroke-linecap:round;stroke-linejoin:round;stroke-miterlimit:4;stroke-dasharray:none;stroke-opacity:1;"
     d="  M 205.0299,203.4492   L -0.42377,84.94459  "
     id="path54" />
  <path
     style="fill:none;stroke:#000000;stroke-width:0.035755947px;stroke-linecap:round;stroke-linejoin:round;stroke-miterlimit:4;stroke-dasharray:none;stroke-opacity:1;"
     d="  M 48.168561,121.86347   L 48.168561,112.97295  "
     id="path55" />
  <path
     style="fill:none;stroke:#000000;stroke-width:0.035755947px;stroke-linecap:round;stroke-linejoin:round;stroke-miterlimit:4;stroke-dasharray:none;stroke-opacity:1;"
     d="  M 244.79051,193.73747   L 39.336842,75.232853  "
     id="path56" />
  <path
     style="fill:none;stroke:#000000;stroke-width:0.035755947px;stroke-linecap:round;stroke-linejoin:round;stroke-miterlimit:4;stroke-dasharray:none;stroke-opacity:1;"
     d="  M 182.75394,155.60462   L 187.22343,155.60462  "
     id="path57" />
  <path
     style="fill:none;stroke:#000000;stroke-width:0.035755947px;stroke-linecap:round;stroke-linejoin:round;stroke-miterlimit:4;stroke-dasharray:none;stroke-opacity:1;"
     d="  M 95.00885,140.00157   L 95.00885,130.28983  "
     id="path58" />
  <path
     style="fill:none;stroke:#000000;stroke-width:0.035755947px;stroke-linecap:round;stroke-linejoin:round;stroke-miterlimit:4;stroke-dasharray:none;stroke-opacity:1;"
     d="  M 95.00885,130.28983   L 134.80522,130.28983  "
     id="path59" />
  <path
     style="fill:none;stroke:#000000;stroke-width:0.035755947px;stroke-linecap:round;stroke-linejoin:round;stroke-miterlimit:4;stroke-dasharray:none;stroke-opacity:1;"
     d="  M 134.80522,130.28983   L 134.80522,127.93331  "
     id="path60" />
  <path
     style="fill:none;stroke:#000000;stroke-width:0.035755947px;stroke-linecap:round;stroke-linejoin:round;stroke-miterlimit:4;stroke-dasharray:none;stroke-opacity:1;"
     d="  M 171.38355,119.07849   L 171.45506,118.97137   L 171.49082,118.86426   L 171.52657,118.72144   L 171.56233,118.61432   L 171.56233,118.47151   L 171.56233,118.32869   L 171.56233,118.18587   L 171.52657,118.00734   L 171.49082,117.86452   L 171.41931,117.7217   L 171.38355,117.54318   L 171.27628,117.40036   L 171.20477,117.22183   L 171.0975,117.04331   L 170.99023,116.90049   L 170.88297,116.72196   L 170.73994,116.54344   L 170.59692,116.40062   L 170.4539,116.2221   L 170.27512,116.07928   L 170.13209,115.90075   L 169.95331,115.75793   L 169.73878,115.61511   L 169.56,115.47229   L 169.38122,115.32947   L 169.16668,115.18665   L 168.95215,115.04383   L 168.73761,114.90101   L 168.55883,114.7939   L 168.34429,114.68678   L 168.094,114.57967   L 167.87947,114.47255   L 167.66493,114.40114   L 167.4504,114.32973   L 167.23586,114.25833   L 167.02132,114.18692   L 166.80679,114.11551   L 166.59225,114.0798   L 166.41347,114.0441   L 166.19894,114.0441   L 166.02016,114.00839   L 165.84138,114.00839   L 165.6626,114.00839   L 165.48382,114.00839   L 165.30504,114.0441   L 165.16202,114.0798   L 165.01899,114.11551   L 164.87597,114.18692   L 164.73294,114.22262   L 164.62568,114.29403   L 164.51841,114.36544   L 164.41114,114.47255   L 164.33963,114.57967   L 164.26812,114.65108   L 164.19661,114.7939   L 164.16085,114.90101   L 164.12509,115.00813   L 164.08934,115.15095   L 164.08934,115.29377   L 164.08934,115.43659   L 164.08934,115.57941   L 164.12509,115.72223   L 164.16085,115.86505   L 164.23236,116.04357   L 164.30387,116.18639   L 164.37538,116.36492   L 164.4469,116.50773   L 164.55416,116.68626   L 164.66143,116.86478   L 164.80446,117.0076   L 164.91172,117.18613   L 165.05475,117.36465   L 165.19777,117.50747   L 165.37655,117.686   L 165.55533,117.82882   L 165.73411,118.00734   L 165.91289,118.15016   L 166.09167,118.29298   L 166.30621,118.4358   L 166.48499,118.57862   L 166.69952,118.72144   L 166.91406,118.82855   L 167.12859,118.93567   L 167.34313,119.04278   L 167.55766,119.1499   L 167.7722,119.25701   L 167.98674,119.36413   L 168.20127,119.43554   L 168.41581,119.50695   L 168.63034,119.57836   L 168.84488,119.61406   L 169.05941,119.64977   L 169.23819,119.68547   L 169.45273,119.72118   L 169.63151,119.72118   L 169.84604,119.75688   L 170.02482,119.72118   L 170.2036,119.72118   L 170.34663,119.68547   L 170.52541,119.64977   L 170.66843,119.61406   L 170.81146,119.57836   L 170.91872,119.50695   L 171.02599,119.43554   L 171.13326,119.36413   L 171.24053,119.29272   L 171.31204,119.1856   L 171.38355,119.07849   z "
     id="path61" />
  <path
     style="fill:none;stroke:#000000;stroke-width:0.035755947px;stroke-linecap:round;stroke-linejoin:round;stroke-miterlimit:4;stroke-dasharray:none;stroke-opacity:1;"
     d="  M 150.18027,106.8317   L 150.25179,106.72459   L 150.28754,106.61747   L 150.3233,106.47465   L 150.35905,106.36754   L 150.35905,106.22472   L 150.35905,106.0819   L 150.3233,105.93908   L 150.3233,105.79626   L 150.28754,105.61774   L 150.21603,105.47492   L 150.14452,105.29639   L 150.07301,105.15357   L 150.00149,104.97505   L 149.89423,104.83223   L 149.78696,104.6537   L 149.64394,104.47518   L 149.53667,104.33236   L 149.39364,104.15383   L 149.21486,103.97531   L 149.07184,103.83249   L 148.89306,103.68967   L 148.71428,103.51115   L 148.5355,103.36833   L 148.35672,103.22551   L 148.14219,103.08269   L 147.96341,102.93987   L 147.74887,102.79705   L 147.53433,102.68993   L 147.3198,102.54711   L 147.10526,102.44   L 146.89073,102.33288   L 146.67619,102.26147   L 146.46166,102.15436   L 146.24712,102.08295   L 146.03258,102.01154   L 145.81805,101.94013   L 145.60351,101.90442   L 145.38898,101.86872   L 145.17444,101.83301   L 144.99566,101.79731   L 144.78113,101.7616   L 144.60235,101.7616   L 144.42357,101.7616   L 144.24479,101.79731   L 144.10176,101.79731   L 143.92298,101.83301   L 143.77996,101.86872   L 143.63694,101.94013   L 143.52967,102.01154   L 143.4224,102.08295   L 143.31513,102.15436   L 143.20786,102.22577   L 143.13635,102.33288   L 143.06484,102.44   L 142.99333,102.54711   L 142.95757,102.65423   L 142.92182,102.79705   L 142.88606,102.90416   L 142.88606,103.04698   L 142.88606,103.1898   L 142.88606,103.33262   L 142.92182,103.47544   L 142.95757,103.65397   L 143.02909,103.79678   L 143.06484,103.97531   L 143.13635,104.11813   L 143.24362,104.29665   L 143.35089,104.43947   L 143.45816,104.618   L 143.56542,104.79652   L 143.70845,104.93934   L 143.85147,105.11787   L 143.9945,105.29639   L 144.17328,105.43921   L 144.3163,105.61774   L 144.49508,105.76056   L 144.67386,105.90337   L 144.88839,106.04619   L 145.06717,106.18901   L 145.28171,106.33183   L 145.49625,106.47465   L 145.67503,106.58177   L 145.88956,106.72459   L 146.1041,106.8317   L 146.31863,106.93882   L 146.56892,107.01023   L 146.78346,107.11734   L 146.998,107.18875   L 147.21253,107.26016   L 147.42707,107.33157   L 147.6416,107.36728   L 147.82038,107.43869   L 148.03492,107.47439   L 148.24945,107.47439   L 148.42823,107.5101   L 148.60701,107.5101   L 148.78579,107.5101   L 148.96457,107.47439   L 149.14335,107.47439   L 149.28638,107.43869   L 149.4294,107.40298   L 149.57242,107.33157   L 149.71545,107.26016   L 149.82271,107.18875   L 149.92998,107.11734   L 150.03725,107.04593   L 150.10876,106.93882   L 150.18027,106.8317   z "
     id="path62" />
  <path
     style="fill:none;stroke:#000000;stroke-width:0.035755947px;stroke-linecap:round;stroke-linejoin:round;stroke-miterlimit:4;stroke-dasharray:none;stroke-opacity:1;"
     d="  M 128.977,94.620622   L 129.01275,94.513507   L 129.08427,94.370687   L 129.12002,94.263573   L 129.12002,94.120753   L 129.15578,93.977933   L 129.15578,93.835114   L 129.12002,93.692294   L 129.08427,93.549474   L 129.04851,93.406655   L 129.01275,93.22813   L 128.94124,93.08531   L 128.86973,92.906786   L 128.76246,92.763966   L 128.69095,92.585442   L 128.54793,92.406917   L 128.44066,92.264097   L 128.29764,92.085573   L 128.15461,91.907048   L 128.01159,91.764229   L 127.86856,91.585704   L 127.68978,91.442884   L 127.511,91.26436   L 127.33222,91.12154   L 127.15345,90.97872   L 126.93891,90.835901   L 126.72437,90.693081   L 126.54559,90.585966   L 126.33106,90.443147   L 126.11652,90.336032   L 125.90199,90.228917   L 125.68745,90.121802   L 125.47292,90.014688   L 125.25838,89.943278   L 125.04384,89.836163   L 124.82931,89.764753   L 124.61477,89.729048   L 124.40024,89.657639   L 124.1857,89.621934   L 123.97117,89.586229   L 123.79239,89.550524   L 123.57785,89.550524   L 123.39907,89.550524   L 123.22029,89.550524   L 123.04151,89.550524   L 122.86273,89.586229   L 122.71971,89.621934   L 122.57668,89.657639   L 122.43366,89.693343   L 122.32639,89.764753   L 122.18337,89.836163   L 122.0761,89.907573   L 122.00459,89.978983   L 121.89732,90.086098   L 121.82581,90.193212   L 121.79005,90.300327   L 121.71854,90.407442   L 121.68279,90.550261   L 121.68279,90.693081   L 121.64703,90.800196   L 121.64703,90.943015   L 121.68279,91.085835   L 121.71854,91.26436   L 121.7543,91.407179   L 121.79005,91.549999   L 121.86157,91.728524   L 121.93308,91.871343   L 122.04034,92.049868   L 122.11186,92.228392   L 122.25488,92.371212   L 122.36215,92.549737   L 122.50517,92.728261   L 122.6482,92.871081   L 122.79122,93.049605   L 122.93424,93.192425   L 123.11302,93.37095   L 123.2918,93.513769   L 123.47058,93.656589   L 123.64936,93.835114   L 123.8639,93.977933   L 124.07843,94.085048   L 124.25721,94.227868   L 124.47175,94.370687   L 124.68628,94.477802   L 124.90082,94.584917   L 125.11536,94.692032   L 125.32989,94.799146   L 125.54443,94.870556   L 125.75896,94.941966   L 125.9735,95.013376   L 126.18803,95.084786   L 126.40257,95.156195   L 126.61711,95.1919   L 126.83164,95.227605   L 127.01042,95.26331   L 127.22496,95.26331   L 127.40374,95.26331   L 127.58252,95.26331   L 127.7613,95.26331   L 127.94008,95.227605   L 128.0831,95.1919   L 128.22612,95.156195   L 128.36915,95.084786   L 128.47642,95.049081   L 128.61944,94.977671   L 128.72671,94.906261   L 128.79822,94.799146   L 128.90549,94.692032   L 128.977,94.620622   z "
     id="path63" />
  <path
     style="fill:none;stroke:#000000;stroke-width:0.035755947px;stroke-linecap:round;stroke-linejoin:round;stroke-miterlimit:4;stroke-dasharray:none;stroke-opacity:1;"
     d="  M 107.77372,82.373836   L 107.84523,82.266721   L 107.88099,82.159606   L 107.91675,82.016787   L 107.9525,81.909672   L 107.9525,81.766852   L 107.9525,81.624033   L 107.9525,81.481213   L 107.91675,81.338393   L 107.88099,81.159869   L 107.80948,81.017049   L 107.77372,80.838525   L 107.66645,80.695705   L 107.59494,80.51718   L 107.48767,80.338656   L 107.38041,80.195836   L 107.27314,80.017311   L 107.13012,79.838787   L 106.98709,79.695967   L 106.84407,79.517443   L 106.66529,79.374623   L 106.52226,79.196098   L 106.34348,79.053279   L 106.1647,78.910459   L 105.95017,78.767639   L 105.77139,78.62482   L 105.55685,78.482   L 105.34232,78.33918   L 105.16354,78.232066   L 104.949,78.089246   L 104.73447,77.982131   L 104.51993,77.875017   L 104.26964,77.803607   L 104.0551,77.696492   L 103.84057,77.625082   L 103.62603,77.553672   L 103.4115,77.482263   L 103.19696,77.446558   L 103.01818,77.375148   L 102.80365,77.339443   L 102.58911,77.339443   L 102.41033,77.303738   L 102.23155,77.303738   L 102.05277,77.303738   L 101.87399,77.339443   L 101.69521,77.339443   L 101.55219,77.375148   L 101.40916,77.410853   L 101.26614,77.482263   L 101.12312,77.517967   L 101.01585,77.589377   L 100.90858,77.696492   L 100.80131,77.767902   L 100.7298,77.875017   L 100.65829,77.982131   L 100.58678,78.089246   L 100.55102,78.196361   L 100.51527,78.303476   L 100.47951,78.446295   L 100.47951,78.589115   L 100.47951,78.731935   L 100.47951,78.874754   L 100.51527,79.017574   L 100.55102,79.160394   L 100.62253,79.338918   L 100.69405,79.481738   L 100.76556,79.660262   L 100.83707,79.838787   L 100.94434,79.981607   L 101.0516,80.160131   L 101.19463,80.338656   L 101.3019,80.481475   L 101.44492,80.66   L 101.6237,80.80282   L 101.76672,80.981344   L 101.9455,81.124164   L 102.12428,81.302688   L 102.30306,81.445508   L 102.48184,81.588328   L 102.69638,81.731147   L 102.87516,81.873967   L 103.08969,82.016787   L 103.30423,82.123901   L 103.51876,82.231016   L 103.7333,82.373836   L 103.94784,82.445246   L 104.16237,82.55236   L 104.37691,82.659475   L 104.59144,82.730885   L 104.80598,82.802295   L 105.02051,82.873705   L 105.23505,82.90941   L 105.44959,82.945115   L 105.66412,82.980819   L 105.8429,83.016524   L 106.02168,83.016524   L 106.23622,83.052229   L 106.415,83.052229   L 106.59378,83.016524   L 106.7368,83.016524   L 106.91558,82.980819   L 107.0586,82.90941   L 107.20163,82.873705   L 107.3089,82.802295   L 107.41616,82.730885   L 107.52343,82.659475   L 107.6307,82.588065   L 107.70221,82.480951   L 107.77372,82.373836   z "
     id="path64" />
  <path
     style="fill:none;stroke:#000000;stroke-width:0.035755947px;stroke-linecap:round;stroke-linejoin:round;stroke-miterlimit:4;stroke-dasharray:none;stroke-opacity:1;"
     d="  M 130.04968,134.64583   L 129.97816,134.25308   L 129.79939,133.86032   L 129.47758,133.46757   L 129.01275,133.14623   L 128.47642,132.86059   L 127.83281,132.64636   L 127.15345,132.46783   L 126.43833,132.39642   L 125.68745,132.39642   L 124.97233,132.46783   L 124.29297,132.61065   L 123.72087,132.82488   L 123.18454,133.11052   L 122.79122,133.46757   L 122.50517,133.82462   L 122.36215,134.21737   L 122.32639,134.64583   L 122.46942,135.03859   L 122.71971,135.43134   L 123.11302,135.78839   L 123.61361,136.10973   L 124.1857,136.35967   L 124.86506,136.53819   L 125.58018,136.64531   L 126.2953,136.71672   L 127.01042,136.64531   L 127.72554,136.53819   L 128.36915,136.35967   L 128.94124,136.10973   L 129.40607,135.82409   L 129.72787,135.46704   L 129.94241,135.07429   L 130.04968,134.64583   z "
     id="path65" />
  <path
     style="fill:none;stroke:#000000;stroke-width:0.035755947px;stroke-linecap:round;stroke-linejoin:round;stroke-miterlimit:4;stroke-dasharray:none;stroke-opacity:1;"
     d="  M 145.49625,143.57206   L 145.46049,143.17931   L 145.24595,142.78655   L 144.92415,142.3938   L 144.49508,142.07245   L 143.92298,141.78681   L 143.31513,141.57259   L 142.63577,141.39406   L 141.88489,141.32265   L 141.16978,141.32265   L 140.45466,141.39406   L 139.77529,141.53688   L 139.16744,141.75111   L 138.66686,142.03675   L 138.23779,142.35809   L 137.95174,142.75085   L 137.80872,143.1436   L 137.80872,143.53636   L 137.91598,143.96481   L 138.20203,144.35757   L 138.55959,144.71462   L 139.06018,145.00026   L 139.66803,145.2859   L 140.31163,145.46442   L 141.02675,145.57154   L 141.77763,145.60724   L 142.49275,145.57154   L 143.17211,145.46442   L 143.81572,145.2859   L 144.38781,145.03596   L 144.85264,144.71462   L 145.2102,144.35757   L 145.42473,144.00052   L 145.49625,143.57206   z "
     id="path66" />
  <path
     style="fill:none;stroke:#000000;stroke-width:0.035755947px;stroke-linecap:round;stroke-linejoin:round;stroke-miterlimit:4;stroke-dasharray:none;stroke-opacity:1;"
     d="  M 114.56735,125.75531   L 114.5316,125.32685   L 114.31706,124.93409   L 113.99526,124.57705   L 113.56619,124.22   L 112.99409,123.93436   L 112.38624,123.72013   L 111.70688,123.57731   L 110.956,123.47019   L 110.24088,123.47019   L 109.52576,123.5416   L 108.8464,123.68442   L 108.23855,123.93436   L 107.73797,124.18429   L 107.3089,124.54134   L 107.02285,124.89839   L 106.87982,125.29114   L 106.87982,125.7196   L 106.98709,126.11236   L 107.27314,126.50511   L 107.6307,126.86216   L 108.13128,127.1835   L 108.73913,127.43344   L 109.38274,127.61196   L 110.09786,127.75478   L 110.84873,127.79049   L 111.56385,127.75478   L 112.27897,127.64767   L 112.88682,127.43344   L 113.45892,127.1835   L 113.92375,126.89787   L 114.2813,126.54082   L 114.49584,126.14806   L 114.56735,125.75531   z "
     id="path67" />
  <path
     style="fill:none;stroke:#000000;stroke-width:0.035755947px;stroke-linecap:round;stroke-linejoin:round;stroke-miterlimit:4;stroke-dasharray:none;stroke-opacity:1;"
     d="  M 99.120783,116.82908   L 99.049272,116.40062   L 98.870492,116.00787   L 98.548688,115.65082   L 98.083861,115.29377   L 97.547522,115.00813   L 96.903915,114.7939   L 96.224552,114.65108   L 95.509433,114.54396   L 94.758558,114.54396   L 94.043439,114.61537   L 93.364076,114.7939   L 92.791981,115.00813   L 92.255642,115.29377   L 91.862326,115.61511   L 91.576279,115.97216   L 91.433255,116.36492   L 91.397499,116.79337   L 91.540523,117.18613   L 91.790815,117.57888   L 92.18413,117.93593   L 92.684713,118.25728   L 93.256808,118.50721   L 93.936171,118.68573   L 94.65129,118.82855   L 95.366409,118.86426   L 96.117284,118.82855   L 96.796647,118.72144   L 97.440254,118.54291   L 98.012349,118.25728   L 98.477176,117.97164   L 98.79898,117.61459   L 99.049272,117.22183   L 99.120783,116.82908   z "
     id="path68" />
</svg>
