<?xml version="1.0" encoding="UTF-8" standalone="no"?>
<svg
   version="1.0"
   width="119.42mm"
   height="76.559998mm"
   id="svg90"
   sodipodi:docname="image264.emf"
   xmlns:inkscape="http://www.inkscape.org/namespaces/inkscape"
   xmlns:sodipodi="http://sodipodi.sourceforge.net/DTD/sodipodi-0.dtd"
   xmlns="http://www.w3.org/2000/svg"
   xmlns:svg="http://www.w3.org/2000/svg">
  <sodipodi:namedview
     id="namedview90"
     pagecolor="#ffffff"
     bordercolor="#000000"
     borderopacity="0.25"
     inkscape:showpageshadow="2"
     inkscape:pageopacity="0.0"
     inkscape:pagecheckerboard="0"
     inkscape:deskcolor="#d1d1d1"
     inkscape:document-units="mm" />
  <defs
     id="defs1">
    <pattern
       id="EMFhbasepattern"
       patternUnits="userSpaceOnUse"
       width="6"
       height="6"
       x="0"
       y="0" />
  </defs>
  <path
     style="fill:#000000;fill-rule:evenodd;fill-opacity:1;stroke:none;"
     d="  M 296.05372,149.79296   L 296.05372,147.43259   L 44.067378,149.79296   z "
     id="path1" />
  <path
     style="fill:#000000;fill-rule:evenodd;fill-opacity:1;stroke:none;"
     d="  M 296.05372,147.43259   L 44.067378,149.79296   L 44.067378,147.43259   z "
     id="path2" />
  <path
     style="fill:none;stroke:#000000;stroke-width:0.039947107px;stroke-linecap:round;stroke-linejoin:round;stroke-miterlimit:4;stroke-dasharray:none;stroke-opacity:1;"
     d="  M 446.37468,176.47725   L 332.52543,176.47725  "
     id="path3" />
  <path
     style="fill:none;stroke:#000000;stroke-width:0.039947107px;stroke-linecap:round;stroke-linejoin:round;stroke-miterlimit:4;stroke-dasharray:none;stroke-opacity:1;"
     d="  M 312.67172,176.47725   L 292.77806,176.47725  "
     id="path4" />
  <path
     style="fill:none;stroke:#000000;stroke-width:0.039947107px;stroke-linecap:round;stroke-linejoin:round;stroke-miterlimit:4;stroke-dasharray:none;stroke-opacity:1;"
     d="  M 272.92435,176.51725   L 173.53595,176.51725  "
     id="path5" />
  <path
     style="fill:none;stroke:#000000;stroke-width:0.039947107px;stroke-linecap:round;stroke-linejoin:round;stroke-miterlimit:4;stroke-dasharray:none;stroke-opacity:1;"
     d="  M 153.64229,176.51725   L 133.78858,176.51725  "
     id="path6" />
  <path
     style="fill:none;stroke:#000000;stroke-width:0.039947107px;stroke-linecap:round;stroke-linejoin:round;stroke-miterlimit:4;stroke-dasharray:none;stroke-opacity:1;"
     d="  M 113.89492,176.51725   L 0.045667455,176.51725  "
     id="path7" />
  <path
     style="fill:none;stroke:#000000;stroke-width:0.039947107px;stroke-linecap:round;stroke-linejoin:round;stroke-miterlimit:4;stroke-dasharray:none;stroke-opacity:1;"
     d="  M 296.05372,140.0714   L 296.05372,170.11623   L 313.51061,175.71713   L 278.55689,185.27866   L 296.05372,190.83955   L 296.05372,214.28332  "
     id="path8" />
  <path
     style="fill:#000000;fill-rule:evenodd;fill-opacity:1;stroke:none;"
     d="  M 296.05372,205.60192   L 296.05372,203.20154   L 44.067378,205.60192   z "
     id="path9" />
  <path
     style="fill:#000000;fill-rule:evenodd;fill-opacity:1;stroke:none;"
     d="  M 296.05372,203.20154   L 44.067378,205.60192   L 44.067378,203.20154   z "
     id="path10" />
  <path
     style="fill:none;stroke:#000000;stroke-width:0.039947107px;stroke-linecap:round;stroke-linejoin:round;stroke-miterlimit:4;stroke-dasharray:none;stroke-opacity:1;"
     d="  M 44.067378,140.19142   L 44.067378,170.51629   L 61.524264,176.11719   L 26.570546,185.67872   L 44.067378,191.23962   L 44.067378,214.8034  "
     id="path11" />
  <path
     style="fill:none;stroke:#000000;stroke-width:0.039947107px;stroke-linecap:round;stroke-linejoin:round;stroke-miterlimit:4;stroke-dasharray:none;stroke-opacity:1;"
     d="  M 170.0206,155.55389   L 133.22932,120.7083  "
     id="path12" />
  <path
     style="fill:none;stroke:#000000;stroke-width:0.039947107px;stroke-linecap:round;stroke-linejoin:round;stroke-miterlimit:4;stroke-dasharray:none;stroke-opacity:1;"
     d="  M 118.76847,107.0261   L 104.34756,93.343904  "
     id="path13" />
  <path
     style="fill:none;stroke:#000000;stroke-width:0.039947107px;stroke-linecap:round;stroke-linejoin:round;stroke-miterlimit:4;stroke-dasharray:none;stroke-opacity:1;"
     d="  M 89.886709,79.661708   L 53.095424,44.816115  "
     id="path14" />
  <path
     style="fill:#000000;fill-rule:evenodd;fill-opacity:1;stroke:none;"
     d="  M 138.70207,149.47291   L 140.3399,147.75264   L 65.479027,80.141785   z "
     id="path15" />
  <path
     style="fill:#000000;fill-rule:evenodd;fill-opacity:1;stroke:none;"
     d="  M 140.3399,147.75264   L 65.479027,80.141785   L 67.116859,78.421509   z "
     id="path16" />
  <path
     style="fill:none;stroke:#000000;stroke-width:0.039947107px;stroke-linecap:round;stroke-linejoin:round;stroke-miterlimit:4;stroke-dasharray:none;stroke-opacity:1;"
     d="  M 170.0206,155.55389   L 206.81189,120.7083  "
     id="path17" />
  <path
     style="fill:none;stroke:#000000;stroke-width:0.039947107px;stroke-linecap:round;stroke-linejoin:round;stroke-miterlimit:4;stroke-dasharray:none;stroke-opacity:1;"
     d="  M 221.27274,107.0261   L 235.73359,93.343904  "
     id="path18" />
  <path
     style="fill:none;stroke:#000000;stroke-width:0.039947107px;stroke-linecap:round;stroke-linejoin:round;stroke-miterlimit:4;stroke-dasharray:none;stroke-opacity:1;"
     d="  M 250.1545,79.661708   L 286.98573,44.816115  "
     id="path19" />
  <path
     style="fill:#000000;fill-rule:evenodd;fill-opacity:1;stroke:none;"
     d="  M 199.7013,147.75264   L 201.33914,149.47291   L 275.64075,75.821092   z "
     id="path20" />
  <path
     style="fill:#000000;fill-rule:evenodd;fill-opacity:1;stroke:none;"
     d="  M 201.33914,149.47291   L 275.64075,75.821092   L 277.27858,77.581374   z "
     id="path21" />
  <path
     style="fill:#000000;fill-rule:evenodd;fill-opacity:1;stroke:none;"
     d="  M 153.40261,147.75264   L 155.04044,149.47291   L 253.78969,52.657374   z "
     id="path22" />
  <path
     style="fill:#000000;fill-rule:evenodd;fill-opacity:1;stroke:none;"
     d="  M 155.04044,149.47291   L 253.78969,52.657374   L 255.42752,54.417656   z "
     id="path23" />
  <path
     style="fill:none;stroke:#000000;stroke-width:0.039947107px;stroke-linecap:round;stroke-linejoin:round;stroke-miterlimit:4;stroke-dasharray:none;stroke-opacity:1;"
     d="  M 191.63199,168.51597   L 191.63199,245.84838  "
     id="path24" />
  <path
     style="fill:none;stroke:#000000;stroke-width:0.039947107px;stroke-linecap:round;stroke-linejoin:round;stroke-miterlimit:4;stroke-dasharray:none;stroke-opacity:1;"
     d="  M 148.44917,168.51597   L 148.44917,245.84838  "
     id="path25" />
  <path
     style="fill:none;stroke:#000000;stroke-width:0.039947107px;stroke-linecap:round;stroke-linejoin:round;stroke-miterlimit:4;stroke-dasharray:none;stroke-opacity:1;"
     d="  M 199.58146,237.8471   L 140.49969,237.8471  "
     id="path26" />
  <path
     style="fill:#000000;fill-rule:evenodd;fill-opacity:1;stroke:none;"
     d="  M 184.6013,242.08778   L 187.3976,244.88823   L 195.82643,230.80597   z "
     id="path27" />
  <path
     style="fill:#000000;fill-rule:evenodd;fill-opacity:1;stroke:none;"
     d="  M 187.3976,244.88823   L 195.82643,230.80597   L 198.66268,233.64642   z "
     id="path28" />
  <path
     style="fill:#000000;fill-rule:evenodd;fill-opacity:1;stroke:none;"
     d="  M 155.47986,233.64642   L 152.64361,230.80597   L 144.21477,244.88823   z "
     id="path29" />
  <path
     style="fill:#000000;fill-rule:evenodd;fill-opacity:1;stroke:none;"
     d="  M 152.64361,230.80597   L 144.21477,244.88823   L 141.41848,242.08778   z "
     id="path30" />
  <path
     style="fill:none;stroke:#000000;stroke-width:0.039947107px;stroke-linecap:round;stroke-linejoin:round;stroke-miterlimit:4;stroke-dasharray:none;stroke-opacity:1;"
     d="  M 173.89547,210.60272   L 173.89547,229.88582  "
     id="path31" />
  <path
     style="fill:none;stroke:#000000;stroke-width:0.039947107px;stroke-linecap:round;stroke-linejoin:round;stroke-miterlimit:4;stroke-dasharray:none;stroke-opacity:1;"
     d="  M 173.89547,213.32316   L 172.61717,211.52287   L 171.29891,210.60272   L 169.38145,210.60272   L 168.10314,211.52287   L 166.82484,213.32316   L 166.18568,216.0836   L 166.18568,217.9239   L 166.82484,220.68434   L 168.10314,222.52464   L 169.38145,223.44479   L 171.29891,223.44479   L 172.61717,222.52464   L 173.89547,220.68434  "
     id="path32" />
  <path
     style="fill:none;stroke:#000000;stroke-width:0.039947107px;stroke-linecap:round;stroke-linejoin:round;stroke-miterlimit:4;stroke-dasharray:none;stroke-opacity:1;"
     d="  M 133.74863,168.51597   L 133.74863,285.01467  "
     id="path33" />
  <path
     style="fill:none;stroke:#000000;stroke-width:0.039947107px;stroke-linecap:round;stroke-linejoin:round;stroke-miterlimit:4;stroke-dasharray:none;stroke-opacity:1;"
     d="  M 191.63199,168.51597   L 191.63199,285.01467  "
     id="path34" />
  <path
     style="fill:none;stroke:#000000;stroke-width:0.039947107px;stroke-linecap:round;stroke-linejoin:round;stroke-miterlimit:4;stroke-dasharray:none;stroke-opacity:1;"
     d="  M 125.79916,277.05339   L 199.58146,277.05339  "
     id="path35" />
  <path
     style="fill:#000000;fill-rule:evenodd;fill-opacity:1;stroke:none;"
     d="  M 140.77932,272.81271   L 137.94308,270.01226   L 129.51424,284.09452   z "
     id="path36" />
  <path
     style="fill:#000000;fill-rule:evenodd;fill-opacity:1;stroke:none;"
     d="  M 137.94308,270.01226   L 129.51424,284.09452   L 126.71794,281.29407   z "
     id="path37" />
  <path
     style="fill:#000000;fill-rule:evenodd;fill-opacity:1;stroke:none;"
     d="  M 184.6013,281.29407   L 187.3976,284.09452   L 195.82643,270.01226   z "
     id="path38" />
  <path
     style="fill:#000000;fill-rule:evenodd;fill-opacity:1;stroke:none;"
     d="  M 187.3976,284.09452   L 195.82643,270.01226   L 198.66268,272.81271   z "
     id="path39" />
  <path
     style="fill:none;stroke:#000000;stroke-width:0.039947107px;stroke-linecap:round;stroke-linejoin:round;stroke-miterlimit:4;stroke-dasharray:none;stroke-opacity:1;"
     d="  M 158.83541,249.76901   L 158.83541,269.09211  "
     id="path40" />
  <path
     style="fill:none;stroke:#000000;stroke-width:0.039947107px;stroke-linecap:round;stroke-linejoin:round;stroke-miterlimit:4;stroke-dasharray:none;stroke-opacity:1;"
     d="  M 158.83541,252.52945   L 160.11372,250.68916   L 161.39203,249.76901   L 163.30949,249.76901   L 164.5878,250.68916   L 165.90605,252.52945   L 166.54521,255.2899   L 166.54521,257.13019   L 165.90605,259.89064   L 164.5878,261.73093   L 163.30949,262.65108   L 161.39203,262.65108   L 160.11372,261.73093   L 158.83541,259.89064  "
     id="path41" />
  <path
     style="fill:none;stroke:#000000;stroke-width:0.039947107px;stroke-linecap:round;stroke-linejoin:round;stroke-miterlimit:4;stroke-dasharray:none;stroke-opacity:1;"
     d="  M 88.967926,24.97293   L 112.81635,24.97293  "
     id="path42" />
  <path
     style="fill:none;stroke:#000000;stroke-width:0.039947107px;stroke-linecap:round;stroke-linejoin:round;stroke-miterlimit:4;stroke-dasharray:none;stroke-opacity:1;"
     d="  M 112.81635,24.97293   L 126.95762,101.38519  "
     id="path43" />
  <path
     style="fill:none;stroke:#000000;stroke-width:0.039947107px;stroke-linecap:round;stroke-linejoin:round;stroke-miterlimit:4;stroke-dasharray:none;stroke-opacity:1;"
     d="  M 98.275601,3.8495398   L 99.553909,2.9293921   L 101.51132,0.16894905   L 101.51132,19.49205  "
     id="path44" />
  <path
     style="fill:none;stroke:#000000;stroke-width:0.039947107px;stroke-linecap:round;stroke-linejoin:round;stroke-miterlimit:4;stroke-dasharray:none;stroke-opacity:1;"
     d="  M 238.76957,24.812905   L 262.618,24.812905  "
     id="path45" />
  <path
     style="fill:none;stroke:#000000;stroke-width:0.039947107px;stroke-linecap:round;stroke-linejoin:round;stroke-miterlimit:4;stroke-dasharray:none;stroke-opacity:1;"
     d="  M 249.51535,4.6496682   L 249.51535,3.7295205   L 250.19445,1.8892252   L 250.8336,0.96907747   L 252.11191,0.048929787   L 254.66852,0.048929787   L 255.94683,0.96907747   L 256.58598,1.8892252   L 257.22514,3.7295205   L 257.22514,5.5698159   L 256.58598,7.4101113   L 255.30768,10.170554   L 248.87619,19.332025   L 257.86429,19.332025  "
     id="path46" />
  <path
     style="fill:none;stroke:#000000;stroke-width:0.039947107px;stroke-linecap:round;stroke-linejoin:round;stroke-miterlimit:4;stroke-dasharray:none;stroke-opacity:1;"
     d="  M 238.76957,24.812905   L 214.72142,101.06514  "
     id="path47" />
  <path
     style="fill:none;stroke:#000000;stroke-width:0.039947107px;stroke-linecap:round;stroke-linejoin:round;stroke-miterlimit:4;stroke-dasharray:none;stroke-opacity:1;"
     d="  M 150.16689,155.55389   L 95.998616,155.55389  "
     id="path48" />
  <path
     style="fill:none;stroke:#000000;stroke-width:0.039947107px;stroke-linecap:round;stroke-linejoin:round;stroke-miterlimit:4;stroke-dasharray:none;stroke-opacity:1;"
     d="  M 128.55551,176.51725   L 95.998616,176.51725  "
     id="path49" />
  <path
     style="fill:none;stroke:#000000;stroke-width:0.039947107px;stroke-linecap:round;stroke-linejoin:round;stroke-miterlimit:4;stroke-dasharray:none;stroke-opacity:1;"
     d="  M 103.94809,155.55389   L 103.94809,147.59261  "
     id="path50" />
  <path
     style="fill:none;stroke:#000000;stroke-width:0.039947107px;stroke-linecap:round;stroke-linejoin:round;stroke-miterlimit:4;stroke-dasharray:none;stroke-opacity:1;"
     d="  M 103.94809,176.51725   L 103.94809,184.47853  "
     id="path51" />
  <path
     style="fill:none;stroke:#000000;stroke-width:0.039947107px;stroke-linecap:round;stroke-linejoin:round;stroke-miterlimit:4;stroke-dasharray:none;stroke-opacity:1;"
     d="  M 103.94809,155.55389   L 103.94809,176.51725  "
     id="path52" />
  <path
     style="fill:#000000;fill-rule:evenodd;fill-opacity:1;stroke:none;"
     d="  M 99.753644,148.51276   L 96.9174,151.35321   L 110.97878,159.79457   z "
     id="path53" />
  <path
     style="fill:#000000;fill-rule:evenodd;fill-opacity:1;stroke:none;"
     d="  M 96.9174,151.35321   L 110.97878,159.79457   L 108.18248,162.63503   z "
     id="path54" />
  <path
     style="fill:#000000;fill-rule:evenodd;fill-opacity:1;stroke:none;"
     d="  M 108.18248,183.55838   L 110.97878,180.71793   L 96.9174,172.27657   z "
     id="path55" />
  <path
     style="fill:#000000;fill-rule:evenodd;fill-opacity:1;stroke:none;"
     d="  M 110.97878,180.71793   L 96.9174,172.27657   L 99.753644,169.47612   z "
     id="path56" />
  <path
     style="fill:none;stroke:#000000;stroke-width:0.039947107px;stroke-linecap:round;stroke-linejoin:round;stroke-miterlimit:4;stroke-dasharray:none;stroke-opacity:1;"
     d="  M 86.850729,169.91619   L 86.850729,162.15495   L 85.013162,162.15495   L 83.175595,162.83506   L 82.256812,163.47516   L 81.338028,164.75537   L 81.338028,166.67567   L 82.256812,167.95588   L 84.094379,169.23609   L 86.850729,169.91619   L 88.648349,169.91619   L 91.404699,169.23609   L 93.242266,167.95588   L 94.161049,166.67567   L 94.161049,164.75537   L 93.242266,163.47516   L 91.404699,162.15495  "
     id="path57" />
  <path
     style="fill:#000000;fill-rule:evenodd;fill-opacity:1;stroke:none;"
     d="  M 435.86859,205.56192   L 435.86859,203.20154   L 380.22228,205.56192   z "
     id="path58" />
  <path
     style="fill:#000000;fill-rule:evenodd;fill-opacity:1;stroke:none;"
     d="  M 435.86859,203.20154   L 380.22228,205.56192   L 380.22228,203.20154   z "
     id="path59" />
  <path
     style="fill:#000000;fill-rule:evenodd;fill-opacity:1;stroke:none;"
     d="  M 429.51701,199.20089   L 429.51701,196.80051   L 386.57387,199.20089   z "
     id="path60" />
  <path
     style="fill:#000000;fill-rule:evenodd;fill-opacity:1;stroke:none;"
     d="  M 429.51701,196.80051   L 386.57387,199.20089   L 386.57387,196.80051   z "
     id="path61" />
  <path
     style="fill:#000000;fill-rule:evenodd;fill-opacity:1;stroke:none;"
     d="  M 435.86859,149.79296   L 435.86859,147.39258   L 380.22228,149.79296   z "
     id="path62" />
  <path
     style="fill:#000000;fill-rule:evenodd;fill-opacity:1;stroke:none;"
     d="  M 435.86859,147.39258   L 380.22228,149.79296   L 380.22228,147.39258   z "
     id="path63" />
  <path
     style="fill:#000000;fill-rule:evenodd;fill-opacity:1;stroke:none;"
     d="  M 429.51701,156.15399   L 429.51701,153.79361   L 386.57387,156.15399   z "
     id="path64" />
  <path
     style="fill:#000000;fill-rule:evenodd;fill-opacity:1;stroke:none;"
     d="  M 429.51701,153.79361   L 386.57387,156.15399   L 386.57387,153.79361   z "
     id="path65" />
  <path
     style="fill:none;stroke:#000000;stroke-width:0.039947107px;stroke-linecap:round;stroke-linejoin:round;stroke-miterlimit:4;stroke-dasharray:none;stroke-opacity:1;"
     d="  M 408.06541,212.20298   L 408.06541,160.79473  "
     id="path66" />
  <path
     style="fill:none;stroke:#000000;stroke-width:0.039947107px;stroke-linecap:round;stroke-linejoin:round;stroke-miterlimit:4;stroke-dasharray:none;stroke-opacity:1;"
     d="  M 408.06541,140.87153   L 408.06541,120.94833  "
     id="path67" />
  <path
     style="fill:none;stroke:#000000;stroke-width:0.039947107px;stroke-linecap:round;stroke-linejoin:round;stroke-miterlimit:4;stroke-dasharray:none;stroke-opacity:1;"
     d="  M 408.06541,101.02514   L 408.06541,49.656892  "
     id="path68" />
  <path
     style="fill:#000000;fill-rule:evenodd;fill-opacity:1;stroke:none;"
     d="  M 422.76594,148.59277   L 425.12282,148.59277   L 422.76594,49.656892   z "
     id="path69" />
  <path
     style="fill:#000000;fill-rule:evenodd;fill-opacity:1;stroke:none;"
     d="  M 425.12282,148.59277   L 422.76594,49.656892   L 425.12282,49.656892   z "
     id="path70" />
  <path
     style="fill:#000000;fill-rule:evenodd;fill-opacity:1;stroke:none;"
     d="  M 390.96805,148.59277   L 393.32493,148.59277   L 390.96805,49.656892   z "
     id="path71" />
  <path
     style="fill:#000000;fill-rule:evenodd;fill-opacity:1;stroke:none;"
     d="  M 393.32493,148.59277   L 390.96805,49.656892   L 393.32493,49.656892   z "
     id="path72" />
  <path
     style="fill:#000000;fill-rule:evenodd;fill-opacity:1;stroke:none;"
     d="  M 434.67018,204.40173   L 437.06701,204.40173   L 434.67018,148.59277   z "
     id="path73" />
  <path
     style="fill:#000000;fill-rule:evenodd;fill-opacity:1;stroke:none;"
     d="  M 437.06701,204.40173   L 434.67018,148.59277   L 437.06701,148.59277   z "
     id="path74" />
  <path
     style="fill:#000000;fill-rule:evenodd;fill-opacity:1;stroke:none;"
     d="  M 428.31859,198.0007   L 430.71542,198.0007   L 428.31859,154.95379   z "
     id="path75" />
  <path
     style="fill:#000000;fill-rule:evenodd;fill-opacity:1;stroke:none;"
     d="  M 430.71542,198.0007   L 428.31859,154.95379   L 430.71542,154.95379   z "
     id="path76" />
  <path
     style="fill:#000000;fill-rule:evenodd;fill-opacity:1;stroke:none;"
     d="  M 379.02386,204.40173   L 381.42069,204.40173   L 379.02386,148.59277   z "
     id="path77" />
  <path
     style="fill:#000000;fill-rule:evenodd;fill-opacity:1;stroke:none;"
     d="  M 381.42069,204.40173   L 379.02386,148.59277   L 381.42069,148.59277   z "
     id="path78" />
  <path
     style="fill:#000000;fill-rule:evenodd;fill-opacity:1;stroke:none;"
     d="  M 385.37545,198.0007   L 387.77228,198.0007   L 385.37545,154.95379   z "
     id="path79" />
  <path
     style="fill:#000000;fill-rule:evenodd;fill-opacity:1;stroke:none;"
     d="  M 387.77228,198.0007   L 385.37545,154.95379   L 387.77228,154.95379   z "
     id="path80" />
  <path
     style="fill:none;stroke:#000000;stroke-width:0.039947107px;stroke-linecap:round;stroke-linejoin:round;stroke-miterlimit:4;stroke-dasharray:none;stroke-opacity:1;"
     d="  M 369.87598,49.656892   L 397.71911,49.656892   L 403.27176,32.13408   L 412.81911,67.179705   L 418.37176,49.656892   L 446.2149,49.656892  "
     id="path81" />
  <path
     style="fill:none;stroke:#000000;stroke-width:0.039947107px;stroke-linecap:round;stroke-linejoin:round;stroke-miterlimit:4;stroke-dasharray:none;stroke-opacity:1;"
     d="  M 51.018175,95.504251   L 70.112892,75.220995   L 61.244634,59.138414   L 93.202319,76.261162   L 84.334061,60.138574   L 103.42878,39.895325  "
     id="path82" />
  <path
     style="fill:none;stroke:#000000;stroke-width:0.039947107px;stroke-linecap:round;stroke-linejoin:round;stroke-miterlimit:4;stroke-dasharray:none;stroke-opacity:1;"
     d="  M 242.40476,40.575434   L 259.86165,59.098407   L 273.08414,52.69738   L 257.98413,77.541368   L 271.20662,71.14034   L 288.70346,89.663313  "
     id="path83" />
  <path
     style="fill:none;stroke:#000000;stroke-width:0.039947107px;stroke-linecap:round;stroke-linejoin:round;stroke-miterlimit:4;stroke-dasharray:none;stroke-opacity:1;"
     d="  M 78.302048,219.00407   L 86.01184,219.00407   L 86.01184,217.16378   L 85.372686,215.32348   L 84.733532,214.40333   L 83.415278,213.48319   L 81.497817,213.48319   L 80.219509,214.40333   L 78.941202,216.24363   L 78.302048,219.00407   L 78.302048,220.84437   L 78.941202,223.60481   L 80.219509,225.44511   L 81.497817,226.36525   L 83.415278,226.36525   L 84.733532,225.44511   L 86.01184,223.60481  "
     id="path84" />
  <path
     style="fill:none;stroke:#000000;stroke-width:0.039947107px;stroke-linecap:round;stroke-linejoin:round;stroke-miterlimit:4;stroke-dasharray:none;stroke-opacity:1;"
     d="  M 98.395443,212.88309   L 89.846762,219.7642   L 98.395443,226.6453  "
     id="path85" />
  <path
     style="fill:none;stroke:#000000;stroke-width:0.039947107px;stroke-linecap:round;stroke-linejoin:round;stroke-miterlimit:4;stroke-dasharray:none;stroke-opacity:1;"
     d="  M 103.74835,210.56272   L 102.15047,211.32284   L 101.0719,213.64321   L 100.55259,217.48383   L 100.55259,219.7642   L 101.0719,223.60481   L 102.15047,225.88518   L 103.74835,226.6453   L 104.82693,226.6453   L 106.42481,225.88518   L 107.50338,223.60481   L 108.06264,219.7642   L 108.06264,217.48383   L 107.50338,213.64321   L 106.42481,211.32284   L 104.82693,210.56272   L 103.74835,210.56272   z "
     id="path86" />
  <path
     style="fill:#000000;fill-rule:evenodd;fill-opacity:1;stroke:none;"
     d="  M 169.22166,134.51051   L 170.85949,132.79024   L 87.330094,56.978067   z "
     id="path87" />
  <path
     style="fill:#000000;fill-rule:evenodd;fill-opacity:1;stroke:none;"
     d="  M 170.85949,132.79024   L 87.330094,56.978067   L 88.967926,55.217785   z "
     id="path88" />
  <path
     style="fill:none;stroke:#000000;stroke-width:0.039947107px;stroke-linecap:round;stroke-linejoin:round;stroke-miterlimit:4;stroke-dasharray:none;stroke-opacity:1;"
     d="  M 170.0206,133.63037   L 176.49204,139.75135  "
     id="path89" />
  <path
     style="fill:none;stroke:#000000;stroke-width:0.039947107px;stroke-linecap:round;stroke-linejoin:round;stroke-miterlimit:4;stroke-dasharray:none;stroke-opacity:1;"
     d="  M 179.36823,142.5118   L 185.83966,148.59277  "
     id="path90" />
</svg>
